<svg width="16" height="16" viewBox="0 0 16 16" fill="none" xmlns="http://www.w3.org/2000/svg">
<path fill-rule="evenodd" clip-rule="evenodd" d="M3.94171 3.44252C4.50376 3.29087 5.08209 3.62673 5.23288 4.19134L5.80093 6.31959C5.95172 6.88421 5.61758 7.46511 5.05553 7.61676C5.01355 7.6279 4.97156 7.63646 4.92958 7.64246L3.92629 7.84809C3.92629 7.84809 3.32483 7.93634 3.34025 8.53866C3.35824 9.30119 4.628 11.51 5.27658 11.9075C5.78893 12.2211 6.16506 11.7422 6.16506 11.7422L6.84449 10.9728C6.87105 10.9394 6.89932 10.9077 6.92931 10.8768C7.34142 10.4638 8.00886 10.4638 8.42097 10.8768L9.9726 12.4353C10.3839 12.8483 10.3839 13.5191 9.9726 13.9321C9.9726 13.9321 9.04556 14.9028 7.89491 15.608C6.51206 16.4562 5.19176 15.6954 4.77365 15.4846C3.79006 14.9868 2.4372 13.4017 1.54272 11.875L1.50074 11.8021C0.631107 10.2608 -0.0586028 8.29105 0.00394229 7.18837C0.0305025 6.71885 0.0347864 5.19035 1.45704 4.41154C2.64112 3.76295 3.94171 3.44252 3.94171 3.44252Z" fill="#2C2D2E"/>
<path fill-rule="evenodd" clip-rule="evenodd" d="M12.5699 6.68289L13.0102 7.44558C13.187 7.75181 13.1099 8.12772 12.8373 8.28511C12.7174 8.35429 12.5799 8.36943 12.4482 8.33897L9.5538 7.82065C9.37197 7.79122 9.19702 7.67414 9.0905 7.48964C8.98398 7.30515 8.97006 7.09509 9.03549 6.92291L10.0338 4.15711C10.0733 4.02782 10.1552 3.91631 10.275 3.84713C10.5476 3.68973 10.9117 3.81087 11.0885 4.11709L11.8228 5.3889C12.0492 5.32414 12.2708 5.23081 12.4832 5.10819C13.8869 4.29777 14.3716 2.50478 13.5722 1.09815C13.3701 0.748187 13.4902 0.30017 13.8401 0.0981164C14.1901 -0.103937 14.6381 0.0161085 14.8402 0.366075C14.8427 0.370513 14.8453 0.374951 14.8479 0.379389C16.0408 2.48364 15.3145 5.16423 13.2153 6.37618C13.0055 6.49734 12.7895 6.59918 12.5699 6.68289Z" fill="#2C2D2E"/>
</svg>
