<svg width="16" height="16" viewBox="0 0 16 16" fill="none" xmlns="http://www.w3.org/2000/svg">
<path fill-rule="evenodd" clip-rule="evenodd" d="M4.32503 11.0279C3.86803 10.8129 3.55103 10.3489 3.55103 9.81087C3.55103 9.06887 4.15303 8.46687 4.89403 8.46687C5.11703 8.46687 5.32703 8.52187 5.51303 8.61787C6.26403 8.98587 7.10803 9.19187 8.00003 9.19187C8.89403 9.19187 9.73903 8.98487 10.492 8.61587C10.676 8.52087 10.885 8.46687 11.106 8.46687C11.847 8.46687 12.449 9.06887 12.449 9.81087C12.449 10.3489 12.131 10.8149 11.673 11.0289C11.167 11.2779 10.631 11.4769 10.073 11.6189L11.908 13.6989C12.399 14.2549 12.346 15.1049 11.79 15.5959C11.234 16.0859 10.384 16.0329 9.89303 15.4769L7.99903 13.3309L6.10503 15.4769C5.61403 16.0329 4.76403 16.0859 4.20803 15.5959C3.65203 15.1049 3.59903 14.2549 4.09003 13.6989L5.92503 11.6189C5.36703 11.4759 4.83203 11.2769 4.32503 11.0279ZM8.00003 0.0678711C10.27 0.0678711 12.114 1.91187 12.114 4.18187C12.114 6.45187 10.27 8.29587 8.00003 8.29587C5.73003 8.29587 3.88603 6.45187 3.88603 4.18187C3.88603 1.91187 5.73003 0.0678711 8.00003 0.0678711ZM8.00003 2.56687C8.89103 2.56687 9.61503 3.29087 9.61503 4.18187C9.61503 5.07287 8.89103 5.79687 8.00003 5.79687C7.10903 5.79687 6.38503 5.07287 6.38503 4.18187C6.38503 3.29087 7.10903 2.56687 8.00003 2.56687Z" fill="#2C2D2E"/>
</svg>
