<svg width="16" height="16" viewBox="0 0 16 16" fill="none" xmlns="http://www.w3.org/2000/svg">
<path fill-rule="evenodd" clip-rule="evenodd" d="M8 0C12.415 0 16 3.585 16 8C16 12.415 12.415 16 8 16C3.585 16 0 12.415 0 8C0 3.585 3.585 0 8 0ZM13.786 7.56C13.819 7.526 13.869 7.515 13.913 7.532C13.957 7.548 13.987 7.589 13.99 7.636C13.996 7.756 14 7.878 14 8C14 8.968 13.77 9.882 13.363 10.692C13.363 10.692 13.361 10.695 13.359 10.7C13.188 11.056 12.766 11.214 12.403 11.059C12.04 10.903 11.864 10.489 12.003 10.119C12.116 9.822 12.179 9.656 12.179 9.656C12.256 9.46 12.321 9.258 12.371 9.049C12.386 8.986 12.418 8.927 12.465 8.881C12.698 8.647 13.439 7.906 13.786 7.56ZM10.24 3.918C10.169 3.989 10.062 4.006 9.973 3.961C9.377 3.67 8.707 3.506 8 3.506H7.971C5.504 3.522 3.506 5.529 3.506 8C3.506 8.585 3.618 9.144 3.821 9.656C3.821 9.656 3.884 9.822 3.997 10.119C4.136 10.489 3.96 10.903 3.597 11.059C3.234 11.214 2.812 11.056 2.641 10.7C2.639 10.695 2.637 10.692 2.637 10.692C2.23 9.882 2 8.968 2 8C2 4.689 4.689 2 8 2H8.039C9.163 2.007 10.214 2.324 11.111 2.87C11.15 2.894 11.174 2.937 11.175 2.982C11.176 3.028 11.154 3.071 11.116 3.097C10.995 3.183 10.879 3.279 10.771 3.387C10.771 3.387 10.427 3.731 10.24 3.918ZM13.162 6.004C13.553 5.613 13.553 4.98 13.162 4.589C12.772 4.199 12.138 4.199 11.748 4.589L7.033 9.305C6.642 9.695 6.642 10.329 7.033 10.719C7.423 11.109 8.057 11.109 8.447 10.719L13.162 6.004Z" fill="#2C2D2E"/>
</svg>
