<svg width="16" height="16" viewBox="0 0 16 16" fill="none" xmlns="http://www.w3.org/2000/svg">
<path d="M16 6.58473C16 6.11689 15.6258 5.74266 15.1579 5.74266H11.6024C11.1347 5.74266 10.7603 5.36829 10.7603 4.90045C10.7603 4.43261 10.3861 4.05838 9.91823 4.05838H5.80127C5.33343 4.05838 4.9592 4.43261 4.9592 4.90045C4.9592 5.36829 4.58496 5.74252 4.11713 5.74252H2.99425C2.52642 5.74265 2.15218 6.11689 2.15218 6.58473V12.1988C2.15218 12.6666 2.52642 13.0408 2.99425 13.0408H4.99666C5.31477 13.0408 5.59556 13.2092 5.74513 13.49L6.17551 14.2946C6.32523 14.5753 6.60588 14.7438 6.92398 14.7438H11.6959C12.0327 14.7438 12.3321 14.5379 12.4632 14.2385L13.5486 11.7121C13.6796 11.394 13.9789 11.2068 14.3159 11.2068H15.1393C15.6071 11.2068 15.9814 10.8325 15.9814 10.3647V6.58459L16 6.58473Z" fill="#2C2D2E"/>
<path d="M10.1053 2H5.61404C5.35205 2 5.1462 2.20585 5.1462 2.46784C5.1462 2.72982 5.35205 2.93567 5.61404 2.93567H7.39178V3.49711H8.51465V2.93567H10.1054C10.3673 2.93567 10.5732 2.72982 10.5732 2.46784C10.5731 2.20585 10.3672 2 10.1053 2Z" fill="#2C2D2E"/>
<path d="M0 7.14613V11.6374C0 11.8993 0.205855 12.1052 0.467836 12.1052C0.729818 12.1052 0.935672 11.8993 0.935672 11.6374V9.85962H1.49711V8.73674H0.935672V7.14603C0.935672 6.88405 0.729818 6.67819 0.467836 6.67819C0.205855 6.67833 0 6.88415 0 7.14613Z" fill="#2C2D2E"/>
</svg>
