<svg width="16" height="16" viewBox="0 0 16 16" fill="none" xmlns="http://www.w3.org/2000/svg">
<path fill-rule="evenodd" clip-rule="evenodd" d="M1.98457 11.4054C1.37732 10.3534 1.05787 9.15979 1.05829 7.9372C1.05989 4.11215 4.1727 1 7.99795 1C9.85427 1.0008 11.5965 1.72332 12.9068 3.03455C14.2169 4.34577 14.9382 6.08877 14.9375 7.94258C14.9359 11.7674 11.8224 14.88 7.99795 14.88H7.99499C6.83359 14.8795 5.69246 14.5882 4.67883 14.0354L1 15L1.98457 11.4054ZM5.8734 4.73693C5.99696 4.74201 6.13365 4.74779 6.26357 5.03656C6.35225 5.23378 6.50136 5.60121 6.62031 5.89431C6.70817 6.1108 6.77958 6.28675 6.79801 6.32359C6.84134 6.41032 6.87028 6.51159 6.81241 6.62732C6.80373 6.64469 6.7957 6.66108 6.78803 6.67674C6.74464 6.76534 6.71276 6.83045 6.63924 6.91651C6.61028 6.9503 6.58034 6.98671 6.5504 7.02312C6.49067 7.09577 6.43095 7.16841 6.37905 7.22016C6.29211 7.30662 6.20179 7.40054 6.30291 7.57392C6.40411 7.74753 6.75209 8.31511 7.26757 8.77471C7.82126 9.26834 8.30229 9.47718 8.54662 9.58326C8.59463 9.60411 8.6335 9.62098 8.66199 9.63527C8.83538 9.722 8.93657 9.70753 9.03769 9.59166C9.13889 9.476 9.47098 9.08555 9.58657 8.91217C9.70223 8.73857 9.81782 8.76743 9.97681 8.82523C10.1357 8.8831 10.9882 9.30262 11.1616 9.38935C11.1954 9.4062 11.2269 9.42142 11.2562 9.43554C11.3773 9.49398 11.4591 9.53346 11.494 9.59166C11.5373 9.66413 11.5373 10.0112 11.3928 10.416C11.2484 10.8209 10.5404 11.2114 10.2225 11.2402C10.1919 11.243 10.1615 11.2466 10.1303 11.2503C9.83645 11.2849 9.46565 11.3285 8.14171 10.8065C6.51317 10.1642 5.43924 8.57272 5.21713 8.24356C5.19888 8.21652 5.18639 8.198 5.1798 8.18922L5.17775 8.18648C5.08388 8.06097 4.4718 7.24262 4.4718 6.3959C4.4718 5.59734 4.86432 5.17875 5.04491 4.98617C5.05724 4.97302 5.06858 4.96092 5.07874 4.94983C5.23759 4.77631 5.42544 4.73291 5.5411 4.73291C5.54778 4.73291 5.55446 4.73291 5.56114 4.73291C5.66995 4.7329 5.77812 4.73288 5.8734 4.73693Z" fill="#2C2D2E"/>
</svg>
