<svg width="16" height="16" viewBox="0 0 16 16" fill="none" xmlns="http://www.w3.org/2000/svg">
<path fill-rule="evenodd" clip-rule="evenodd" d="M8 0C12.415 0 16 3.585 16 8C16 12.415 12.415 16 8 16C3.585 16 0 12.415 0 8C0 3.585 3.585 0 8 0ZM8 2C11.311 2 14 4.689 14 8C14 11.311 11.311 14 8 14C4.689 14 2 11.311 2 8C2 4.689 4.689 2 8 2ZM7 4.48C7 3.928 7.448 3.48 8 3.48V3.479C10.495 3.479 12.52 5.504 12.521 7.999V8C12.52 10.49 10.503 12.512 8.015 12.52H8C7.448 12.52 7 12.072 7 11.52V4.48Z" fill="#2C2D2E"/>
</svg>
