<svg width="16" height="16" viewBox="0 0 16 16" fill="none" xmlns="http://www.w3.org/2000/svg">
<path fill-rule="evenodd" clip-rule="evenodd" d="M7.413 1.2069C7.57309 1.0777 7.77812 1 8 1C8.22188 1 8.42691 1.0777 8.587 1.2069L14.6349 5.87575C14.8568 6.04708 15 6.31577 15 6.61723C15 7.13401 14.5806 7.55343 14.0638 7.55343H13.6172V13.1707C14.134 13.1707 14.5534 13.5901 14.5534 14.1069C14.5534 14.6236 14.134 15.0431 13.6172 15.0431H2.38277C1.86599 15.0431 1.44657 14.6236 1.44657 14.1069C1.44657 13.5901 1.86599 13.1707 2.38277 13.1707V7.55343H1.9362C1.41942 7.55343 1 7.13401 1 6.61723C1 6.31577 1.14324 6.04708 1.36512 5.87575L7.413 1.2069ZM5.19143 8.02153C5.19143 7.76314 4.98172 7.55343 4.72333 7.55343C4.46494 7.55343 4.25523 7.76314 4.25523 8.02153V12.7026C4.25523 12.9609 4.46494 13.1707 4.72333 13.1707C4.98172 13.1707 5.19143 12.9609 5.19143 12.7026V8.02153ZM8.93625 8.48963C8.93625 7.97285 8.51683 7.55343 8.00005 7.55343C7.48326 7.55343 7.06384 7.97285 7.06384 8.48963V12.2345C7.06384 12.7512 7.48326 13.1707 8.00005 13.1707C8.51683 13.1707 8.93625 12.7512 8.93625 12.2345V8.48963ZM11.7449 8.02153C11.7449 7.76314 11.5352 7.55343 11.2768 7.55343C11.0184 7.55343 10.8087 7.76314 10.8087 8.02153V12.7026C10.8087 12.9609 11.0184 13.1707 11.2768 13.1707C11.5352 13.1707 11.7449 12.9609 11.7449 12.7026V8.02153ZM8.00005 3.80861C8.51683 3.80861 8.93625 4.22803 8.93625 4.74482C8.93625 5.2616 8.51683 5.68102 8.00005 5.68102C7.48326 5.68102 7.06384 5.2616 7.06384 4.74482C7.06384 4.22803 7.48326 3.80861 8.00005 3.80861Z" fill="#2C2D2E"/>
</svg>
