<svg fill="none" height="16" viewBox="0 0 16 16" width="16" xmlns="http://www.w3.org/2000/svg"><g fill="#2c2d2e"><path d="m4.22347 4.22347c.29796-.29796.78105-.29796 1.07901 0l6.47402 6.47403c.298.298.298.7811 0 1.079-.2979.298-.781.298-1.079 0l-6.47403-6.47402c-.29796-.29796-.29796-.78105 0-1.07901z"/><path d="m4.22347 11.7765c-.29796-.2979-.29796-.781 0-1.079l6.47403-6.47403c.298-.29796.7811-.29796 1.079 0 .298.29796.298.78105 0 1.07901l-6.47402 6.47402c-.29796.298-.78105.298-1.07901 0z"/></g></svg>