<svg width="33" height="32" viewBox="0 0 33 32" fill="none" xmlns="http://www.w3.org/2000/svg">
<path fill-rule="evenodd" clip-rule="evenodd" d="M16.6001 30C12.8871 30 9.32611 28.525 6.7006 25.8995C4.07509 23.274 2.6001 19.713 2.6001 16C2.6001 12.287 4.07509 8.72601 6.7006 6.1005C9.32611 3.475 12.8871 2 16.6001 2C20.3131 2 23.8741 3.475 26.4996 6.1005C29.1251 8.72601 30.6001 12.287 30.6001 16C30.6001 19.713 29.1251 23.274 26.4996 25.8995C23.8741 28.525 20.3131 30 16.6001 30ZM16.6036 18.1152L5.23747 22.8186C6.41279 24.796 8.08441 26.432 10.0867 27.5643C12.089 28.6967 14.3524 29.2863 16.6527 29.2745C18.9511 29.2677 21.208 28.6622 23.2011 27.5175C25.1942 26.3728 26.8547 24.7286 28.0188 22.7468L16.6036 18.1152ZM14.6356 14.7926L16.4459 2.79384C14.1494 2.82416 11.9002 3.45063 9.91879 4.61186C7.93733 5.77308 6.29158 7.42922 5.14284 9.41795C3.98998 11.4069 3.37672 13.6625 3.36381 15.9613C3.3509 18.2601 3.93879 20.5225 5.06924 22.5242L14.6356 14.7926ZM18.512 14.9503L28.1888 22.4401C29.2956 20.4393 29.864 18.1854 29.8382 15.8991C29.8124 13.6127 29.1933 11.3722 28.0416 9.39692C26.8949 7.41856 25.2555 5.77077 23.2831 4.61395C21.3106 3.45713 19.0722 2.83069 16.7859 2.79559L18.512 14.9521V14.9503Z" fill="#2C2D2E"/>
</svg>
