<svg width="31" height="30" viewBox="0 0 31 30" fill="none" xmlns="http://www.w3.org/2000/svg">
<path d="M17.8915 15.1397L16.543 17.7406H16.515L16.4468 15.1397H15.3189L15.2749 15.2332L15.3716 15.2912C15.465 15.3558 15.4911 15.4214 15.5032 15.6019L15.656 18.7582H16.9126L18.9406 15.1397H17.8915ZM13.8776 17.0128C13.7514 17.3686 13.6522 17.5976 13.5057 17.7487C13.3906 17.8674 13.2387 17.9525 12.889 17.9525C12.6148 17.9525 12.4619 17.8423 12.4619 17.6337C12.46 17.4993 12.4972 17.295 12.6438 16.8974C12.7705 16.542 12.8697 16.3131 13.0167 16.162C13.1303 16.0432 13.2827 15.9577 13.6329 15.9577C13.9071 15.9577 14.0594 16.0679 14.059 16.2755C14.0619 16.4119 14.0246 16.6161 13.8776 17.0128ZM13.8191 15.095H13.702C13.008 15.095 12.6114 15.2789 12.2859 15.6185C11.8811 16.039 11.5009 17.1758 11.5082 17.7772C11.5159 18.3905 11.9197 18.8157 12.7686 18.8157H12.8929C13.5889 18.8157 13.9855 18.6318 14.311 18.2922C14.7153 17.8708 15.0877 16.7344 15.0805 16.1335C15.0722 15.5207 14.6684 15.095 13.8191 15.095ZM10.4112 16.4532C10.3479 16.6076 10.2782 16.6447 10.1868 16.6812C10.1254 16.705 9.99527 16.7135 9.87001 16.7135H9.38489L9.649 15.9658H10.2352C10.4107 15.9658 10.4823 16.0556 10.4847 16.1577C10.4857 16.2228 10.4553 16.342 10.4112 16.4532ZM10.3242 15.1397H8.7334L8.70151 15.2332L8.76583 15.2955C8.83353 15.361 8.83111 15.439 8.77163 15.6062L7.6602 18.7582H8.67587L9.11019 17.5069L9.45408 17.5074L9.83616 18.7582H10.8567L10.3769 17.4779C10.6555 17.4337 10.7953 17.3553 10.935 17.2332C11.1265 17.0613 11.2591 16.8199 11.3689 16.4646C11.5295 15.9492 11.4322 15.6546 11.3292 15.5036C11.1875 15.2955 10.8891 15.1397 10.3242 15.1397ZM20.9801 17.3069L21.2616 16.5501H19.9669L20.1676 15.9724H21.5702L21.8783 15.1373H19.2303L19.1935 15.2437L19.2569 15.305C19.325 15.3701 19.3221 15.4475 19.2631 15.6157L18.1604 18.7568H20.6348L20.9337 17.9159H19.4895L19.7023 17.3069H20.9801ZM23.9513 16.4532C23.8879 16.6076 23.8173 16.6447 23.7273 16.6812C23.6644 16.705 23.5362 16.7135 23.411 16.7135H22.9264L23.188 15.9658H23.7752C23.9498 15.9658 24.0223 16.0556 24.0238 16.1577C24.0257 16.2228 23.9943 16.342 23.9513 16.4532ZM23.8627 15.1397H22.2725L22.2415 15.2332L22.3053 15.2955C22.3735 15.361 22.3702 15.439 22.3116 15.6062L21.1992 18.7582H22.2164L22.6502 17.5074H22.9936L23.3762 18.7582H24.3957L23.9169 17.4779C24.195 17.4337 24.3348 17.3553 24.4741 17.2332C24.6661 17.0613 24.7991 16.8199 24.9089 16.4646C25.0695 15.9492 24.9722 15.6546 24.8697 15.5036C24.728 15.2955 24.4291 15.1397 23.8627 15.1397ZM25.9483 19.9957C23.158 21.4119 19.4363 22.1919 15.4669 22.1919C11.498 22.1919 7.77675 21.4119 4.98603 19.9957C2.30221 18.6332 0.823186 16.8589 0.823186 15.0005C0.823186 13.1406 2.30221 11.3663 4.98603 10.0048C7.77675 8.58907 11.498 7.80807 15.4669 7.80807C19.4363 7.80807 23.158 8.58907 25.9483 10.0048C28.6326 11.3663 30.1101 13.1406 30.1101 15.0005C30.1101 16.8589 28.6326 18.6332 25.9483 19.9957ZM26.326 9.28646C23.4202 7.81188 19.564 7 15.4669 7C11.3698 7 7.51314 7.81188 4.60828 9.28646C2.88744 10.1601 0 12.0641 0 15.0005C0 17.9354 2.88744 19.8399 4.60828 20.7135C7.51268 22.1881 11.3689 23 15.4669 23C19.5645 23 23.4207 22.1881 26.326 20.7135C28.0469 19.8399 30.9333 17.9359 30.9333 15.0005C30.9333 12.0636 28.0469 10.1601 26.326 9.28646ZM25.5575 19.2532C22.5554 20.7762 18.8211 21.3553 15.4669 21.3553C12.1122 21.3553 8.37888 20.7762 5.37586 19.2532C3.78706 18.4461 1.67491 16.9591 1.67491 15.0005C1.67491 13.0399 3.78656 11.5544 5.37586 10.7477C8.37888 9.2247 12.1122 8.64561 15.4669 8.64561C18.8211 8.64561 22.5554 9.22375 25.5575 10.7477C27.1477 11.5544 29.2589 13.0399 29.2589 15.0005C29.2589 16.9601 27.1473 18.4461 25.5575 19.2532ZM25.7132 10.4508C22.6652 8.90261 18.8699 8.31021 15.4669 8.31021C12.0634 8.31021 8.26912 8.90309 5.21963 10.4508C3.50749 11.3193 1.33441 12.8869 1.33441 15.0005C1.33441 17.1121 3.50749 18.6807 5.21963 19.5501C8.26912 21.0969 12.0644 21.6898 15.4669 21.6898C18.8699 21.6898 22.6652 21.0978 25.7132 19.5501C27.4263 18.6807 29.5994 17.1121 29.5994 15.0005C29.5994 12.8869 27.4268 11.3193 25.7132 10.4508ZM7.77867 15.6062L4.99908 16.504L4.65956 17.419H7.11076L7.42997 16.5568H5.73088L7.6597 15.9154L7.77867 15.6062ZM18.839 11.5972H19.2418C19.5161 11.5972 19.6675 11.6874 19.6709 11.896C19.6733 12.0304 19.6365 12.2147 19.4943 12.6114C19.3686 12.9663 19.268 13.172 19.1253 13.3226C19.0107 13.4413 18.8583 13.494 18.5086 13.494H18.172L18.839 11.5972ZM17.9558 11.2052L16.856 14.3573H18.4786C19.1741 14.3573 19.5712 14.2057 19.8933 13.8665C20.2977 13.4465 20.6672 12.3539 20.6551 11.7525C20.643 11.1387 20.2396 10.7392 19.3908 10.7392H17.9166L17.8857 10.8323L17.9495 10.8936C18.0172 10.9596 18.0148 11.0375 17.9558 11.2052ZM24.0789 12.0366H21.6277L21.3086 12.8978H23.0071L21.0778 13.5411L20.9589 13.8494L23.7384 12.9515L24.0789 12.0366ZM13.1236 14.3553H14.0474L14.8532 12.0147L15.3242 14.3553H16.249L17.5094 10.7378L16.543 10.7392L15.8698 12.7055L15.4853 10.7392H14.1828L14.1509 10.8323L14.2147 10.8936C14.2834 10.9596 14.28 11.0375 14.2215 11.2052L13.1236 14.3553ZM6.50037 14.3573L9.01394 14.3563L9.31769 13.494H7.85653L8.82194 10.7392H7.56153L7.53006 10.8323L7.59296 10.8936C7.66162 10.9596 7.65874 11.0375 7.59972 11.2052L6.50037 14.3573ZM11.8482 11.7392H11.8811L11.8985 12.8318H11.2204L11.8482 11.7392ZM9.27463 14.3553H10.344L10.8074 13.5558H11.9145L11.9255 14.3553H12.8958L12.6864 10.7392H11.2339L11.2015 10.8323L11.2484 10.8784C11.3249 10.952 11.2934 11.058 11.0105 11.4988L9.27463 14.3553Z" fill="white"/>
</svg>
