<svg width="16" height="16" viewBox="0 0 16 16" fill="none" xmlns="http://www.w3.org/2000/svg">
<path fill-rule="evenodd" clip-rule="evenodd" d="M16 8C16 3.585 12.415 0 8 0C3.585 0 0 3.585 0 8C0 12.415 3.585 16 8 16C12.415 16 16 12.415 16 8ZM11.289 5.53294C11.162 5.46694 11.027 5.43294 10.885 5.42194C10.838 5.41994 10.792 5.42094 10.744 5.42394C10.619 5.43694 10.499 5.46694 10.385 5.52294C10.329 5.55094 10.277 5.58394 10.225 5.62094C10.2073 5.63524 10.1983 5.64249 10.1894 5.64988C10.1803 5.65748 10.1713 5.66523 10.153 5.68094C9.4824 6.32041 8.83195 6.98095 8.1815 7.64149C7.87073 7.95707 7.55997 8.27266 7.24701 8.58594L5.95401 7.29294C5.83901 7.18394 5.70901 7.09894 5.55801 7.04994C5.43901 7.01094 5.31301 6.99394 5.18801 7.00194C5.06301 7.00894 4.94001 7.03994 4.82601 7.09294C4.48001 7.25294 4.25101 7.60694 4.24701 7.98794C4.24601 8.08194 4.25801 8.17594 4.28301 8.26594C4.32501 8.41894 4.40401 8.55394 4.50701 8.67294C5.17901 9.37794 5.86901 10.0659 6.57301 10.7389C6.65501 10.8099 6.74301 10.8709 6.84301 10.9149C7.09801 11.0279 7.39501 11.0279 7.65001 10.9149C7.75001 10.8709 7.83801 10.8099 7.92001 10.7389C9.16301 9.55194 10.379 8.33694 11.566 7.09294C11.669 6.97394 11.748 6.83894 11.79 6.68694C11.887 6.33494 11.781 5.94894 11.517 5.69694C11.449 5.63194 11.372 5.57694 11.289 5.53294Z" fill="#0DC268"/>
</svg>
