<svg width="16" height="16" viewBox="0 0 16 16" fill="none" xmlns="http://www.w3.org/2000/svg">
<path fill-rule="evenodd" clip-rule="evenodd" d="M10.9635 12.695C9.94338 13.3836 8.71507 13.7854 7.39269 13.7854C3.86484 13.7854 1 10.9205 1 7.39269C1 3.86484 3.86484 1 7.39269 1C10.9205 1 13.7854 3.86484 13.7854 7.39269C13.7854 8.70594 13.3881 9.92785 12.7078 10.9443L14.6384 12.874C15.1205 13.3562 15.1205 14.1397 14.6384 14.6219C14.1562 15.1041 13.3726 15.1041 12.8904 14.6219L10.9635 12.695ZM7.39283 3.26224C9.6732 3.26224 11.5234 5.11247 11.5234 7.39283C11.5234 9.6732 9.6732 11.5234 7.39283 11.5234C5.11247 11.5234 3.26224 9.6732 3.26224 7.39283C3.26224 5.11247 5.11247 3.26224 7.39283 3.26224Z" fill="#2C2D2E"/>
</svg>
