<svg width="16" height="16" viewBox="0 0 16 16" fill="none" xmlns="http://www.w3.org/2000/svg">
<path fill-rule="evenodd" clip-rule="evenodd" d="M3.97195 13C4.52395 13 4.97195 13.448 4.97195 14C4.97195 14.552 4.52395 15 3.97195 15H2.00195C1.44995 15 1.00195 14.552 1.00195 14C1.00195 13.448 1.44995 13 2.00195 13H3.97195ZM11.002 11.586V9C11.002 8.448 11.45 8 12.002 8C12.554 8 13.002 8.448 13.002 9V11.585L13.355 11.232C13.745 10.842 14.379 10.842 14.769 11.232C15.159 11.622 15.159 12.256 14.769 12.646L12.722 14.694C12.717 14.698 12.713 14.703 12.709 14.707C12.514 14.902 12.258 15 12.002 15C11.746 15 11.49 14.902 11.295 14.707C11.29 14.703 11.286 14.698 11.282 14.694L9.23395 12.646C8.84395 12.256 8.84395 11.622 9.23395 11.232C9.62495 10.842 10.258 10.842 10.648 11.232L11.002 11.586ZM6.00195 9C6.55395 9 7.00195 9.448 7.00195 10C7.00195 10.552 6.55395 11 6.00195 11H2.00195C1.44995 11 1.00195 10.552 1.00195 10C1.00195 9.448 1.44995 9 2.00195 9H6.00195ZM8.94195 5C9.49395 5 9.94195 5.448 9.94195 6C9.94195 6.552 9.49395 7 8.94195 7H2.00195C1.44995 7 1.00195 6.552 1.00195 6C1.00195 5.448 1.44995 5 2.00195 5H8.94195ZM14.002 1C14.554 1 15.002 1.448 15.002 2C15.002 2.552 14.554 3 14.002 3H2.00195C1.44995 3 1.00195 2.552 1.00195 2C1.00195 1.448 1.44995 1 2.00195 1H14.002Z" fill="#2C2D2E"/>
</svg>
