<svg width="16" height="16" viewBox="0 0 16 16" fill="none" xmlns="http://www.w3.org/2000/svg">
<path fill-rule="evenodd" clip-rule="evenodd" d="M2.99096 8.05894C2.32996 7.68894 1.56896 7.26294 0.717965 6.78594C0.0749649 6.42594 -0.099035 5.64294 0.087965 5.17594C0.275965 4.70994 0.713965 4.35294 1.25996 4.21994C4.69297 3.38794 10.967 1.86594 14.318 1.05394C14.776 0.942937 15.316 0.994937 15.652 1.28794C16.092 1.67194 16.008 2.26494 15.881 2.66494C14.95 5.58894 13.269 10.8729 12.315 13.8699C12.163 14.3469 11.783 14.7769 11.258 14.9409C10.468 15.1799 9.85296 14.6879 9.53296 14.2809C8.90796 13.4849 8.33097 12.7479 7.83196 12.1079L4.71496 14.4609C4.38896 14.7069 3.95196 14.7469 3.58696 14.5649C3.22096 14.3829 2.99096 14.0099 2.99096 13.6019V8.05894ZM6.25296 9.66494C6.36796 9.41494 6.53496 9.19094 6.74396 9.00994C7.59296 8.27394 9.96096 6.21894 11.514 4.87194C11.596 4.80094 11.611 4.67994 11.55 4.58994C11.488 4.50094 11.37 4.47194 11.274 4.52294C9.34297 5.55594 6.28996 7.18894 5.17596 7.78594C4.91196 7.92694 4.74196 8.19594 4.72796 8.49494C4.68696 9.33894 4.60196 11.1089 4.54496 12.3049C4.53896 12.4179 4.61396 12.5179 4.72396 12.5439C4.83296 12.5709 4.94496 12.5159 4.99196 12.4139C5.40796 11.5089 5.97196 10.2789 6.25296 9.66494Z" fill="#2C2D2E"/>
</svg>
