<svg width="41" height="40" viewBox="0 0 41 40" fill="none" xmlns="http://www.w3.org/2000/svg">
<path d="M33.46 25.4333C32.2161 25.4333 31.0695 25.0121 30.1526 24.3063C31.0831 23.1178 31.64 21.6232 31.64 20C31.64 18.377 31.0831 16.8823 30.1526 15.6937C31.0695 14.988 32.2161 14.5667 33.46 14.5667C36.4559 14.5667 38.8933 17.0041 38.8933 20C38.8933 22.996 36.4559 25.4333 33.46 25.4333ZM21.3325 24.3063C22.2631 23.1178 22.82 21.6232 22.82 20C22.82 18.377 22.2631 16.8823 21.3326 15.6937C22.2494 14.988 23.3962 14.5667 24.64 14.5667C25.8839 14.5667 27.0305 14.988 27.9474 15.6937C27.0169 16.8823 26.46 18.377 26.46 20C26.46 21.6232 27.0169 23.1178 27.9474 24.3063C27.0305 25.0121 25.8839 25.4333 24.64 25.4333C23.3962 25.4333 22.2494 25.0121 21.3325 24.3063ZM12.5125 24.3063C13.4431 23.1178 14 21.6232 14 20C14 18.377 13.4431 16.8823 12.5126 15.6937C13.4294 14.988 14.5762 14.5667 15.82 14.5667C17.0638 14.5667 18.2106 14.988 19.1274 15.6937C18.1969 16.8823 17.64 18.377 17.64 20C17.64 21.6232 18.1969 23.1178 19.1274 24.3063C18.2106 25.0121 17.0638 25.4333 15.82 25.4333C14.5762 25.4333 13.4294 25.0121 12.5125 24.3063ZM1.56674 20C1.56674 17.0041 4.00414 14.5667 7 14.5667C8.24376 14.5667 9.39064 14.988 10.3074 15.6937C9.37692 16.8823 8.82 18.377 8.82 20C8.82 21.6232 9.37692 23.1178 10.3074 24.3063C9.39064 25.0121 8.24376 25.4333 7 25.4333C4.00414 25.4333 1.56674 22.996 1.56674 20ZM11.41 23.1678C10.767 22.2753 10.3867 21.1816 10.3867 20C10.3867 18.8185 10.767 17.7247 11.41 16.8322C12.053 17.7247 12.4333 18.8185 12.4333 20C12.4333 21.1816 12.053 22.2753 11.41 23.1678ZM20.23 23.1678C19.587 22.2753 19.2067 21.1816 19.2067 20C19.2067 18.8185 19.587 17.7247 20.23 16.8322C20.873 17.7247 21.2533 18.8185 21.2533 20C21.2533 21.1816 20.873 22.2753 20.23 23.1678ZM29.05 23.1678C28.407 22.2753 28.0267 21.1816 28.0267 20C28.0267 18.8185 28.407 17.7247 29.05 16.8322C29.693 17.7247 30.0733 18.8185 30.0733 20C30.0733 21.1816 29.693 22.2753 29.05 23.1678ZM33.46 13C31.7895 13 30.2546 13.589 29.05 14.569C27.8454 13.589 26.3105 13 24.64 13C22.9695 13 21.4346 13.589 20.23 14.569C19.0254 13.589 17.4903 13 15.82 13C14.1495 13 12.6146 13.589 11.41 14.569C10.2054 13.589 8.67034 13 7 13C3.1402 13 0 16.1402 0 20C0 23.8599 3.1402 27 7 27C8.67034 27 10.2054 26.4112 11.41 25.431C12.6146 26.4112 14.1495 27 15.82 27C17.4903 27 19.0254 26.4112 20.23 25.431C21.4346 26.4112 22.9695 27 24.64 27C26.3105 27 27.8454 26.4112 29.05 25.431C30.2546 26.4112 31.7895 27 33.46 27C37.3198 27 40.46 23.8599 40.46 20C40.46 16.1402 37.3198 13 33.46 13Z" fill="black"/>
</svg>
