<svg width="16" height="16" viewBox="0 0 16 16" fill="none" xmlns="http://www.w3.org/2000/svg">
<path fill-rule="evenodd" clip-rule="evenodd" d="M8.00026 4.31638C3.75468 4.31638 0.313826 5.97225 0.313826 8.01595C0.313826 10.0602 3.75519 11.717 8.00026 11.717C12.2448 11.717 15.6862 10.0602 15.6862 8.01595C15.6862 5.97276 12.2448 4.31638 8.00026 4.31638ZM16 8.01697C16 10.2357 12.4178 12.0344 8.00026 12.0344C3.58169 12.0339 0 10.2352 0 8.01595C0 5.79825 3.5822 4 8.00026 4C12.4183 4 16 5.79876 16 8.01697Z" fill="#393939"/>
<path fill-rule="evenodd" clip-rule="evenodd" d="M6.12446 6.29056L5.76522 6.87484H6.12956L6.12446 6.29056ZM4.71505 7.60506H5.36107C5.36107 7.60506 5.35903 7.55505 5.37587 7.52341C5.40649 7.46473 5.4866 7.3244 5.4866 7.3244H6.13671L6.13824 7.49943C6.13824 7.49943 6.1413 7.56015 6.09333 7.60659H6.73833C6.73833 7.60659 6.69037 7.57955 6.68169 7.50045L6.60056 5.74813C6.60056 5.74813 6.59698 5.63587 6.65056 5.61239H6.01067C6.01067 5.61239 6.05557 5.66751 5.96984 5.79355L4.79211 7.53923C4.79211 7.53923 4.77016 7.58108 4.71556 7.60506H4.71505ZM11.5406 8.51949L11.7151 8.0485H10.4058C10.4058 8.0485 10.4527 8.08983 10.3925 8.25771C10.3318 8.42611 9.80158 9.85542 9.80158 9.85542C9.80158 9.85542 9.70769 10.0432 9.68064 10.0432H11.0303L11.1916 9.5666C11.1916 9.5666 11.1712 9.59364 11.0436 9.59364H10.4731L10.5941 9.27114H11.037C11.037 9.27114 11.1309 9.26451 11.1513 9.29155L11.3324 8.78229C11.3324 8.78229 11.3192 8.82821 11.1982 8.82821H10.7686L10.8961 8.47254H11.4401C11.4401 8.47254 11.5136 8.46234 11.5406 8.51949ZM8.27633 8.04901C8.27633 8.04901 8.32634 8.07554 8.32634 8.20311V9.9289C8.32634 9.9289 8.31971 10.0233 8.28399 10.0427H8.82387C8.82387 10.0427 8.82387 10.0029 8.87745 9.93553C8.93103 9.86818 10.0521 8.36436 10.0521 8.36436C10.0521 8.36436 10.3083 8.04901 10.3751 8.04901H9.60257C9.60257 8.04901 9.66329 8.08932 9.61583 8.1628C9.56889 8.23679 8.88204 9.264 8.88204 9.264L8.89072 8.22812C8.89072 8.22812 8.8897 8.06176 8.95654 8.04799L8.27633 8.04901ZM6.99042 9.61405C7.17208 9.64722 7.3716 9.5171 7.47519 9.1002C7.63337 8.46948 7.34251 8.46438 7.28944 8.45775C7.1287 8.43836 6.91387 8.62359 6.82661 9.00988C6.78681 9.18592 6.74395 9.56813 6.99042 9.61405ZM6.945 10.085C7.67165 10.085 8.10386 9.37218 8.10386 8.86087C8.10386 8.32507 7.88341 7.98981 7.38027 7.98981C6.73731 7.98981 6.31888 8.47765 6.2107 9.08336C6.11119 9.64059 6.42604 10.085 6.94551 10.085H6.945ZM12.4336 8.90833C12.4336 8.90833 12.6801 8.9267 12.7556 8.73381C12.8449 8.50622 12.6224 8.51184 12.6224 8.51184H12.4403L12.3061 8.90833H12.4336ZM11.954 10.0432C11.9029 10.0442 11.9387 9.92073 11.9387 9.92073L12.1489 9.35126L12.453 9.9687C12.4734 10.0095 12.4632 10.0427 12.4632 10.0427H13.1919C13.1251 10.0427 13.0511 9.91512 13.0511 9.91512L12.7005 9.28645C13.1904 9.28645 13.3384 8.81801 13.3384 8.81801C13.5955 8.00972 12.776 8.04901 12.776 8.04901H11.9499C12.0106 8.11586 11.9637 8.2572 11.9637 8.2572C11.9637 8.2572 11.4248 9.7406 11.3845 9.8544C11.3593 9.92469 11.3193 9.98873 11.2671 10.0422L11.9535 10.0432H11.954ZM5.16921 8.5001L5.03296 8.90067H5.16053C5.16053 8.90067 5.40904 8.92262 5.50038 8.72514C5.50038 8.72514 5.60754 8.49908 5.308 8.49908L5.16921 8.5001ZM4.67015 10.0361C4.64974 10.0361 4.64974 9.97074 4.64974 9.97074L4.886 9.34411L5.20084 9.96156C5.22126 10.0024 5.21105 10.0355 5.21105 10.0355H5.91473C5.84738 10.0355 5.77798 9.90798 5.77798 9.90798L5.42792 9.27931C5.91779 9.27931 6.07445 8.79351 6.07445 8.79351C6.31633 8.02145 5.50293 8.04135 5.50293 8.04135H4.67015C4.73087 8.10871 4.68341 8.24955 4.68341 8.24955L4.12669 9.84164C4.08587 9.95594 4.01239 10.0355 4.01239 10.0355H4.67066L4.67015 10.0361ZM2.41979 9.21093H3.70469L3.86083 8.76341H3.02958L3.97718 8.43529L4.03994 8.25414L2.58104 8.73279L2.41979 9.21093ZM9.58573 7.14937C9.58573 7.14937 9.58828 7.14835 9.6786 7.14835C9.81637 7.14835 10.07 7.11774 10.2404 6.70287C10.5211 6.02011 10.1297 6.04308 10.1297 6.04308H9.97865L9.58573 7.14937ZM9.50051 5.61495C9.50051 5.61495 9.55052 5.69557 9.4852 5.88183C9.41937 6.06808 8.90603 7.4535 8.90603 7.4535C8.90603 7.4535 8.8652 7.58312 8.81009 7.60863L9.61634 7.60761C9.61634 7.60761 10.5925 7.64384 10.8951 6.61715C10.8951 6.61715 11.2778 5.60474 10.17 5.61495H9.50051ZM6.8062 7.60302H7.39507C7.39507 7.60302 7.35476 7.54331 7.37976 7.478C7.41548 7.38717 7.72778 6.53601 7.72778 6.53601L7.86351 7.60302H8.39727L9.09738 5.70476C9.09738 5.70476 9.12596 5.61597 9.16474 5.61597L8.59781 5.61444C8.59781 5.61444 8.61414 5.67975 8.59373 5.73027C8.57332 5.78079 8.25133 6.64215 8.25133 6.64215L8.12529 5.61444H7.51652C7.51652 5.61444 7.54816 5.66495 7.52775 5.72006L6.88223 7.4928C6.88223 7.4928 6.8409 7.60302 6.8062 7.60302ZM4.0874 7.16162C4.0874 7.16162 4.57217 5.86958 4.61146 5.77211C4.68035 5.59862 4.72169 5.61086 4.72169 5.61086H3.99963C4.08944 5.65373 4.00984 5.82212 4.00984 5.82212C4.00984 5.82212 3.43117 7.4336 3.39086 7.51423C3.35055 7.59485 3.32044 7.60506 3.32044 7.60506H4.57217L4.7472 7.12794C4.73189 7.17336 4.61197 7.16162 4.61197 7.16162H4.0874ZM12.798 6.3768H11.5141L11.3574 6.82432H12.1887L11.2406 7.15244L11.1778 7.33359L12.6372 6.85545L12.798 6.3768ZM15.4872 8.01635C15.4872 9.95033 12.1346 11.5184 7.99976 11.5184C3.86441 11.5184 0.512341 9.95033 0.512341 8.01635C0.512341 6.08237 3.86441 4.51477 7.99976 4.51477C12.1346 4.51477 15.4872 6.08288 15.4872 8.01635Z" fill="#393939"/>
</svg>
