<svg width="16" height="16" viewBox="0 0 16 16" fill="none" xmlns="http://www.w3.org/2000/svg">
<g clip-path="url(#clip0_7537_10)">
<path fill-rule="evenodd" clip-rule="evenodd" d="M11.121 4C11.621 4 12.051 4.38 12.111 4.88C12.111 4.88 12.171 5.4 12.231 5.87C12.291 6.33 12.611 6.71 13.041 6.85C13.101 6.87 14.141 6.88 14.141 6.88C14.631 6.95 15.001 7.37 15.001 7.87V10C15.551 10 16.001 10.45 16.001 11C16.001 11.55 15.551 12 15.001 12H14.001C14.001 13.1 13.101 14 12.001 14C10.901 14 10.001 13.1 10.001 12H6.001C6.001 13.1 5.101 14 4.001 14C2.901 14 2.001 13.1 2.001 12H1.001C0.451 12 0.001 11.55 0.001 11C0.001 10.45 0.451 10 1.001 10H7.003C7.532 10 8.04 9.789 8.415 9.415C8.79 9.04 9.001 8.531 9.001 8V5C9.001 4.45 9.451 4 10.001 4H11.121V4ZM12.001 13C11.451 13 11.001 12.55 11.001 12C11.001 11.45 11.451 11 12.001 11C12.551 11 13.001 11.45 13.001 12C13.001 12.55 12.551 13 12.001 13ZM4.001 13C3.451 13 3.001 12.55 3.001 12C3.001 11.45 3.451 11 4.001 11C4.551 11 5.001 11.45 5.001 12C5.001 12.55 4.551 13 4.001 13ZM6.691 2C7.039 2 7.372 2.138 7.617 2.383C7.862 2.629 8 2.962 8 3.309V7.69C8 8.038 7.862 8.371 7.617 8.617C7.372 8.862 7.039 9 6.691 9H1.31C0.962 9 0.629 8.862 0.384 8.617C0.138 8.371 0 8.038 0 7.69V3.309C0 2.962 0.138 2.629 0.384 2.383C0.629 2.138 0.962 2 1.31 2H6.691V2ZM11.041 7C11.131 7 11.231 6.96 11.291 6.89C11.361 6.811 11.391 6.72 11.381 6.62C11.341 6.24 11.281 5.66 11.251 5.311C11.231 5.13 11.081 5 10.901 5H10.351C10.151 5 10.001 5.16 10.001 5.35V6.65C10.001 6.75 10.041 6.83 10.101 6.9C10.171 6.96 10.251 7 10.351 7H11.041V7Z" fill="#333333"/>
</g>
<defs>
<clipPath id="clip0_7537_10">
<rect width="16" height="16" fill="white"/>
</clipPath>
</defs>
</svg>
