<svg width="32" height="32" viewBox="0 0 32 32" fill="none" xmlns="http://www.w3.org/2000/svg">
<path fill-rule="evenodd" clip-rule="evenodd" d="M10.2707 7.72143C10.718 8.23759 10.4647 8.77826 10.0174 9.24624C9.88508 9.38462 9.76618 9.50839 9.6535 9.62568C9.22822 10.0684 8.8915 10.4189 8.25829 11.1149L5.84131 8.83788C6.07322 8.53733 6.45974 8.07344 6.72537 7.77942C7.60532 6.80508 7.92851 6.52004 8.34875 6.47758C8.57408 6.45471 8.79695 6.50779 8.97458 6.65072C9.3389 6.94392 9.30682 7.36861 9.25666 7.50174L9.24597 7.53114L9.27968 7.51807C9.61851 7.38004 10.0272 7.4413 10.2707 7.72143ZM8.10203 7.34901C7.86765 7.56136 7.35038 8.09794 6.86353 8.68924L7.33228 9.13271C7.33228 9.13271 8.27638 8.15184 8.53378 7.86354C8.6481 7.73613 8.75089 7.58177 8.71389 7.41925C8.67688 7.25754 8.51322 7.14565 8.3545 7.18893C8.25664 7.21507 8.17605 7.28204 8.10203 7.34901ZM9.02968 8.30702C8.72951 8.61573 7.81009 9.58109 7.81009 9.58109L8.30023 10.0425L9.519 8.74722C9.61275 8.64677 9.72624 8.51528 9.75667 8.37725C9.78216 8.26128 9.73528 8.14449 9.63331 8.0767C9.52969 8.0081 9.41373 8.01872 9.30764 8.07017C9.22541 8.11019 9.14893 8.18451 9.02968 8.30702Z" fill="#2C2D2E"/>
<path d="M17.0504 4.80903L16.2765 6.53066H15.5717L14.7979 4.80903L14.7485 4.6563L14.7625 4.81556L14.6811 7.11625C14.4097 7.14238 14.1293 7.17913 13.8529 7.22487L13.9788 3.81754C14.3653 3.77507 14.7502 3.74485 15.135 3.72852L15.8966 5.60777L15.9237 5.74743L15.9508 5.60777L16.7132 3.72852C17.0981 3.74485 17.4829 3.77507 17.8695 3.81754L17.9953 7.22487C17.719 7.17913 17.4385 7.14156 17.1671 7.11625L17.0857 4.81556L17.0997 4.6563L17.0504 4.80903Z" fill="#2C2D2E"/>
<path d="M23.321 10.82C23.1672 10.6216 22.8934 10.2949 22.7034 10.0924L23.5809 8.40992L23.6607 8.30212L23.5521 8.38134L21.8597 9.25359C21.668 9.07963 21.3679 8.824 21.1401 8.65004L22.9378 5.83972C23.1936 6.03573 23.3942 6.19744 23.6031 6.37385L22.4164 8.15429L22.3103 8.27598L22.4435 8.18532L24.025 7.39883L24.585 7.95501L23.7931 9.52474L23.7018 9.65704L23.8243 9.5525L25.6179 8.3748C25.7865 8.57163 26.0119 8.85095 26.1533 9.03471L23.321 10.82Z" fill="#2C2D2E"/>
<path fill-rule="evenodd" clip-rule="evenodd" d="M24.297 16.0002C24.297 11.4179 20.5824 7.70325 16.0002 7.70312C15.9241 7.70312 15.848 7.70415 15.7725 7.70618C12.2669 7.80044 9.30656 10.065 8.18506 13.2062C7.8729 14.0792 7.70288 15.0198 7.70288 16.0002C7.70288 20.5825 11.4176 24.2972 15.9999 24.2972C16.5953 24.2972 17.1759 24.2345 17.7357 24.1154C20.7667 23.4712 23.1835 21.174 23.9993 18.2106C24.1933 17.5068 24.297 16.7656 24.297 16.0002ZM23.837 16.0006C23.837 16.0007 23.837 16.0004 23.837 16.0006C23.837 11.6724 20.3283 8.16324 16.0001 8.16313L15.9999 15.9993L8.16288 15.9994C8.16288 20.3277 11.6716 23.8372 15.9999 23.8372C15.9999 23.8372 16 23.8372 15.9999 23.8372L15.9999 15.9993L23.837 16.0006Z" fill="#2C2D2E"/>
<path fill-rule="evenodd" clip-rule="evenodd" d="M2 16C2 8.26823 8.26823 2 16 2C23.7318 2 30 8.26823 30 16C30 23.7318 23.7318 30 16 30C8.26823 30 2 23.7318 2 16ZM16 29.0896C23.2297 29.0896 29.0896 23.2288 29.0896 16C29.0896 8.77117 23.2288 2.9104 16 2.9104C8.77117 2.9104 2.9104 8.77117 2.9104 16C2.9104 23.2288 8.77035 29.0896 16 29.0896Z" fill="#2C2D2E"/>
</svg>
