<svg width="33" height="32" viewBox="0 0 33 32" fill="none" xmlns="http://www.w3.org/2000/svg">
<path d="M19.1647 18.6649C19.1647 18.7257 19.1839 18.7609 19.219 18.7609C19.2479 18.7577 19.2734 18.7449 19.2959 18.7289L29.2693 12.256C29.4378 12.1382 29.6397 12.0776 29.8452 12.0832H32.037C32.3729 12.0832 32.6001 12.3072 32.6001 12.6431V16.8283C32.6001 17.3339 32.4881 17.6283 32.0402 17.897L29.3812 19.4969C29.3547 19.5153 29.3238 19.5263 29.2916 19.5289C29.2596 19.5289 29.2276 19.5032 29.2276 19.4104V14.5277C29.2276 14.4701 29.2116 14.4317 29.1733 14.4317C29.1452 14.4349 29.1185 14.446 29.0964 14.4637L21.8076 19.1993C21.6412 19.3112 21.446 19.3721 21.2476 19.3689H16.4161C16.0769 19.3689 15.853 19.1449 15.853 18.8057V12.7743C15.853 12.7296 15.8338 12.6879 15.7954 12.6879C15.7674 12.6915 15.7408 12.7025 15.7186 12.7199L10.9094 15.606C10.8615 15.638 10.8487 15.6605 10.8487 15.6828C10.8487 15.702 10.8582 15.7212 10.8902 15.7564L14.3267 19.1897C14.3715 19.2345 14.4035 19.2697 14.4035 19.3081C14.4035 19.3401 14.3523 19.3657 14.2915 19.3657H11.1878C10.9447 19.3657 10.7559 19.3305 10.6247 19.1993L8.54171 17.1195C8.53381 17.1101 8.52406 17.1023 8.51305 17.0968C8.50203 17.0913 8.49 17.0882 8.47771 17.0875C8.45512 17.0886 8.43314 17.0951 8.41371 17.1067L4.93249 19.1993C4.72131 19.3272 4.57731 19.3625 4.36931 19.3625H1.16653C0.824095 19.3657 0.600098 19.1385 0.600098 18.8025V14.6973C0.600098 14.1885 0.712096 13.8974 1.16322 13.6286L3.83819 12.0224C3.85916 12.0086 3.88355 12.0009 3.90857 12C3.95019 12 3.97256 12.0416 3.97256 12.1344V17.6314C3.97256 17.6891 3.98538 17.7146 4.02694 17.7146C4.05575 17.7114 4.08138 17.6986 4.10694 17.6826L13.1429 12.2464C13.3156 12.128 13.5268 12.0704 13.738 12.08H18.6015C18.9375 12.08 19.1647 12.304 19.1647 12.6399L19.1614 18.6649H19.1647Z" fill="#2C2D2E"/>
</svg>
