<svg fill="none" height="30" viewBox="0 0 30 30" width="30" xmlns="http://www.w3.org/2000/svg"><g fill="#fff"><path d="m15 5.63271c5.8441 0 11.1391 1.02552 15 2.68699-3.2417-3.20968-8.7498-5.3197-15-5.3197-6.25021 0-11.75832 2.11002-15 5.3197 3.86094-1.66147 9.15594-2.68699 15-2.68699zm0 18.73459c-5.84406 0-11.13906-1.0255-15-2.6919 3.24168 3.2095 8.74979 5.3246 15 5.3246 6.2502 0 11.7583-2.1151 15-5.3246-3.8609 1.6664-9.1559 2.6919-15 2.6919z"/><path clip-rule="evenodd" d="m3 19.9798 1.93329-9.9784h3.28321c.88891-.02168 1.76513.214 2.5235.6783.7057.4324 1.2457 1.0893 1.533 1.8653.2686.7116.3503 1.4798.2375 2.2319l-.0475.4543c-.1354.8772-.4772 1.7095-.9972 2.4287-.5297.7265-1.2281 1.3131-2.03505 1.7094-.83515.4046-1.75152.6132-2.67947.6105zm4.19897-8.1402-1.21424 6.2816h.76655c.40986.0189.8188-.0538 1.19679-.2135.37799-.1596.71539-.402.98748-.7091.61738-.8253.957-1.8253.97005-2.8559v-.2238c.0741-.5814-.0605-1.1705-.37989-1.6621-.15544-.1989-.35561-.3585-.58424-.4657-.22863-.1074-.47931-.159-.73176-.1515z" fill-rule="evenodd"/><path d="m22.0141 16.2286 2.3335-6.2272h2.6524l-4.0497 9.9784h-2.7134l-.4478-5.6574-2.4081 5.6574h-2.7134l-.563-9.9784h2.5573l.1493 6.2001 2.5642-6.2001h2.2249z"/></g></svg>