<svg width="16" height="16" viewBox="0 0 16 16" fill="none" xmlns="http://www.w3.org/2000/svg">
<path fill-rule="evenodd" clip-rule="evenodd" d="M7.813 14.0001C7.401 15.1601 6.293 15.9921 4.992 15.9921C3.691 15.9921 2.583 15.1601 2.171 14.0001H2C1.448 14.0001 1 13.5521 1 13.0001C1 12.4481 1.448 12.0001 2 12.0001H2.171C2.583 10.8401 3.691 10.0081 4.992 10.0081C6.293 10.0081 7.401 10.8401 7.813 12.0001H14C14.552 12.0001 15 12.4481 15 13.0001C15 13.5521 14.552 14.0001 14 14.0001H7.813ZM4.992 12.0001C5.544 12.0001 5.992 12.4481 5.992 13.0001C5.992 13.5521 5.544 14.0001 4.992 14.0001C4.44 14.0001 3.992 13.5521 3.992 13.0001C3.992 12.4481 4.44 12.0001 4.992 12.0001ZM9.187 7.00806C9.599 5.84706 10.707 5.01506 12.008 5.01506C13.659 5.01506 15 6.35606 15 8.00806C15 9.65906 13.659 11.0001 12.008 11.0001C10.707 11.0001 9.599 10.1681 9.187 9.00806H2C1.448 9.00806 1 8.56006 1 8.00806C1 7.45606 1.448 7.00806 2 7.00806H9.187ZM12 7.00806C12.552 7.00806 13 7.45606 13 8.00806C13 8.56006 12.552 9.00806 12 9.00806C11.448 9.00806 11 8.56006 11 8.00806C11 7.45606 11.448 7.00806 12 7.00806ZM8.811 4.00806C8.396 5.16406 7.29 5.99206 5.992 5.99206C4.694 5.99206 3.588 5.16406 3.174 4.00806H2C1.448 4.00806 1 3.56006 1 3.00806C1 2.45606 1.448 2.00806 2 2.00806H3.169C3.578 0.843057 4.689 0.00805664 5.992 0.00805664C7.296 0.00805664 8.406 0.843057 8.816 2.00806H14C14.552 2.00806 15 2.45606 15 3.00806C15 3.56006 14.552 4.00806 14 4.00806H8.811ZM5.992 2.00006C6.544 2.00006 6.992 2.44806 6.992 3.00006C6.992 3.55206 6.544 4.00006 5.992 4.00006C5.44 4.00006 4.992 3.55206 4.992 3.00006C4.992 2.44806 5.44 2.00006 5.992 2.00006Z" fill="#2C2D2E"/>
</svg>
