<svg width="32" height="32" viewBox="0 0 32 32" fill="none" xmlns="http://www.w3.org/2000/svg">
<path fill-rule="evenodd" clip-rule="evenodd" d="M11.1112 15.1656C13.2546 16.0592 14.6826 17.3105 15.98 20.1234C17.2729 17.3105 18.6578 15.881 20.8458 14.9874L26.3484 13.0162L26.384 13.1572C26.4731 13.7821 26.5176 14.5421 26.5176 15.3006C26.5176 23.0699 21.3816 24.633 15.9785 24.5899C10.5753 24.6345 5.48386 23.0699 5.48386 15.3006C5.48386 14.7202 5.48386 14.1399 5.57292 13.6485L5.65308 13.319L11.1112 15.1656ZM25.1639 9.77724L25.0451 9.58427C23.1228 6.72682 19.6405 6.05588 15.9785 6.05588C12.3165 6.05588 8.74357 6.77135 6.86731 9.67333L6.66691 10.0222C9.88803 11.8643 13.5441 11.8984 15.9785 16.5505C18.214 11.7559 21.9101 11.6862 25.1639 9.77724ZM27.7675 8.11027L27.4558 7.75402C24.5968 4.67094 19.9077 4 15.9785 4C12.0048 4.00297 7.18051 4.67094 4.3676 7.93214L4.234 8.11027C2.84759 9.76239 2 12.13 2 15.3006C2 25.0798 9.9489 26.6428 15.9785 26.6428C22.0526 26.6428 30 25.0798 30 15.3006C30 12.13 29.1539 9.76388 27.7675 8.11027Z" fill="#2C2D2E"/>
</svg>
