<svg width="16" height="16" viewBox="0 0 16 16" fill="none" xmlns="http://www.w3.org/2000/svg">
<path fill-rule="evenodd" clip-rule="evenodd" d="M8.99695 16C10.1009 16 10.9969 15.104 10.9969 14H5.99695C4.05395 14 2.99695 12.811 2.99695 11.015V4C1.89295 4 0.996948 4.896 0.996948 6V14C0.996948 15.104 1.89295 16 2.99695 16H8.99695ZM12.0029 13H5.99695C4.89295 13 3.99695 12.104 3.99695 11V3C3.99695 1.896 4.89295 1 5.99695 1H12.0029C13.1069 1 14.0029 1.896 14.0029 3V11C14.0029 12.104 13.1069 13 12.0029 13ZM8.49695 8H6.49695C6.22095 8 5.99695 8.224 5.99695 8.5C5.99695 8.776 6.22095 9 6.49695 9H8.49695C8.77295 9 8.99695 8.776 8.99695 8.5C8.99695 8.224 8.77295 8 8.49695 8ZM11.4969 6H6.49695C6.22095 6 5.99695 6.224 5.99695 6.5C5.99695 6.776 6.22095 7 6.49695 7H11.4969C11.7729 7 11.9969 6.776 11.9969 6.5C11.9969 6.224 11.7729 6 11.4969 6ZM11.4969 4H6.49695C6.22095 4 5.99695 4.224 5.99695 4.5C5.99695 4.776 6.22095 5 6.49695 5H11.4969C11.7729 5 11.9969 4.776 11.9969 4.5C11.9969 4.224 11.7729 4 11.4969 4Z" fill="#2C2D2E"/>
</svg>
