<svg width="16" height="16" viewBox="0 0 16 16" fill="none" xmlns="http://www.w3.org/2000/svg">
<path fill-rule="evenodd" clip-rule="evenodd" d="M1.56737 2.36648C2.44213 1.49172 3.62829 1 4.86546 1C6.0075 1 7.17304 1.53746 8.00038 2.23009C8.82732 1.53765 9.99298 1 11.1345 1C12.3717 1 13.5579 1.49172 14.4326 2.36648L14.6339 2.56774C15.5096 3.44256 16 4.63046 16 5.86633C16 7.10283 15.5096 8.28919 14.6344 9.16442C13.7137 10.0845 13.0298 10.7686 12.2342 11.5644C11.7915 12.0072 11.3142 12.4846 10.7422 13.0566C9.2276 14.5712 6.7724 14.5712 5.25781 13.0566L1.36562 9.16442C0.490384 8.28919 0 7.10283 0 5.86633C0 4.63046 0.489938 3.44305 1.36562 2.56824L1.56737 2.36648Z" fill="#ED2939"/>
</svg>
