<svg width="16" height="16" viewBox="0 0 16 16" fill="none" xmlns="http://www.w3.org/2000/svg">
<path fill-rule="evenodd" clip-rule="evenodd" d="M1.647 10.739C2.987 11.636 5.333 12.231 8 12.231C10.667 12.231 13.013 11.636 14.353 10.739C14.768 11.123 15 11.55 15 12C15 13.656 11.863 15 8 15C4.137 15 1 13.656 1 12C1 11.55 1.232 11.123 1.647 10.739ZM14.353 6.739C14.768 7.123 15 7.55 15 8C15 9.656 11.863 11 8 11C4.137 11 1 9.656 1 8C1 7.55 1.232 7.123 1.647 6.739C2.987 7.636 5.333 8.231 8 8.231C10.667 8.231 13.013 7.636 14.353 6.739ZM8 1C11.863 1 15 2.344 15 4C15 5.656 11.863 7 8 7C4.137 7 1 5.656 1 4C1 2.344 4.137 1 8 1Z" fill="#2C2D2E"/>
</svg>
