<svg width="33" height="32" viewBox="0 0 33 32" fill="none" xmlns="http://www.w3.org/2000/svg">
<path fill-rule="evenodd" clip-rule="evenodd" d="M16.3999 6C7.56397 6 0.399902 10.5645 0.399902 16.1943C0.399902 21.8241 7.56397 26.3887 16.3999 26.3887C25.2358 26.3887 32.3999 21.8241 32.3999 16.1943C32.3999 10.5645 25.2358 6 16.3999 6ZM4.54517 12.1599C4.9848 14.0013 8.1871 15.5304 12.5222 16.1128L12.521 16.3727C12.521 20.741 13.7774 24.4059 15.4722 25.4024C8.44068 25.0659 2.89496 21.187 2.89496 16.4517C2.89496 14.8971 3.49388 13.4342 4.54517 12.1599ZM14.1125 16.2784C15.6353 16.3938 17.1645 16.3938 18.6873 16.2784C18.5815 19.519 17.5977 22.0573 16.3999 22.0573C15.2021 22.0573 14.2183 19.519 14.1125 16.2784ZM20.2776 16.1128C24.7096 15.5177 27.959 13.9325 28.2801 12.035C29.3977 13.3386 30.0361 14.8461 30.0361 16.4517C30.0361 21.2189 24.4152 25.1169 17.3161 25.4087C19.016 24.4212 20.2788 20.7499 20.2788 16.374L20.2776 16.1128ZM17.7863 7.68716C22.217 7.91271 25.6143 9.20357 25.6143 10.7608C25.6143 12.0325 23.3486 13.1258 20.1043 13.6075C19.7513 10.8856 18.8899 8.70022 17.7851 7.68716H17.7863ZM18.5891 13.7808C17.1321 13.9004 15.6677 13.9004 14.2107 13.7808C14.505 11.2119 15.3741 9.35011 16.3999 9.35011C17.4257 9.35011 18.2948 11.2119 18.5891 13.7808ZM12.6955 13.6075C9.45119 13.1258 7.1855 12.0325 7.1855 10.7608C7.1855 10.2357 7.57161 9.74132 8.25463 9.30551C9.08975 8.88847 9.95955 8.54482 10.8542 8.27843C12.0469 7.97515 13.4665 7.76617 15.0135 7.68716C13.9099 8.70022 13.0485 10.8856 12.6943 13.6075H12.6955Z" fill="#2C2D2E"/>
</svg>
