<svg width="16" height="16" viewBox="0 0 16 16" fill="none" xmlns="http://www.w3.org/2000/svg">
<path fill-rule="evenodd" clip-rule="evenodd" d="M12.5243 1.15L15.8502 4.48C15.9501 4.57 16 4.7 16 4.83V12.66C16 13.92 14.9713 14.95 13.7129 14.95C12.4544 14.95 11.4357 13.92 11.4357 12.66V10.98C11.4357 10.34 10.9164 9.81 10.2672 9.81C9.62796 9.81 9.10861 10.34 9.10861 10.98V13H9.39825C9.71785 13 9.98752 13.27 9.98752 13.6V14.4C9.98752 14.73 9.71785 15 9.39825 15H0.599251C0.269663 15 0 14.73 0 14.4V13.6C0 13.27 0.269663 13 0.599251 13H0.998752V4C0.998752 2.9 1.89763 2 2.99625 2H6.99126C8.08989 2 8.98876 2.9 8.98876 4V9.05C9.34831 8.81 9.77778 8.67 10.2472 8.67C11.5056 8.67 12.5243 9.7 12.5243 10.96V12.64C12.5243 13.28 13.0437 13.8 13.6929 13.8C14.3321 13.8 14.8514 13.28 14.8514 12.64V7.8L14.5019 8.15C14.2122 8.44 13.7428 8.44 13.4532 8.15C13.2335 7.93 12.9838 7.67 12.774 7.46C12.5144 7.2 12.3645 6.85 12.3645 6.48V3.83L11.1061 2.57C10.9164 2.37 10.9164 2.05 11.1061 1.86L11.8152 1.15C12.015 0.95 12.3346 0.95 12.5243 1.15ZM6.2422 4H3.74532C3.33583 4 2.99625 4.34 2.99625 4.75V6.25C2.99625 6.66 3.33583 7 3.74532 7H6.2422C6.65169 7 6.99126 6.66 6.99126 6.25V4.75C6.99126 4.34 6.65169 4 6.2422 4Z" fill="#2C2D2E"/>
</svg>
