<svg width="16" height="16" viewBox="0 0 16 16" fill="none" xmlns="http://www.w3.org/2000/svg">
<path fill-rule="evenodd" clip-rule="evenodd" d="M11.52 16H4.48C2.007 16 0 13.993 0 11.52V4.48C0 2.007 2.007 0 4.48 0H11.52C13.993 0 16 2.007 16 4.48V11.52C16 13.993 13.993 16 11.52 16ZM11.48 2H4.52C3.129 2 2 3.129 2 4.52V11.48C2 12.871 3.129 14 4.52 14H11.48C12.871 14 14 12.871 14 11.48V4.52C14 3.129 12.871 2 11.48 2ZM12 3C12.552 3 13 3.448 13 4C13 4.552 12.552 5 12 5C11.448 5 11 4.552 11 4C11 3.448 11.448 3 12 3ZM8 4C10.208 4 12 5.792 12 8C12 10.208 10.208 12 8 12C5.792 12 4 10.208 4 8C4 5.792 5.792 4 8 4ZM8 6C9.104 6 10 6.896 10 8C10 9.104 9.104 10 8 10C6.896 10 6 9.104 6 8C6 6.896 6.896 6 8 6Z" fill="#2C2D2E"/>
</svg>
