<svg width="16" height="16" viewBox="0 0 16 16" fill="none" xmlns="http://www.w3.org/2000/svg">
<path fill-rule="evenodd" clip-rule="evenodd" d="M1 3.64232C1 2.94153 1.27839 2.26945 1.77392 1.77392C2.26945 1.27839 2.94153 1 3.64232 1H6.91574V3.56311H4.74684C4.44342 3.5632 4.15245 3.68381 3.93793 3.8984C3.72341 4.11299 3.6029 4.40399 3.6029 4.70742V6.91574H1V3.64232Z" fill="#00AAFF"/>
<path fill-rule="evenodd" clip-rule="evenodd" d="M3.6029 11.0951C3.6029 11.3985 3.72341 11.6895 3.93793 11.9041C4.15245 12.1187 4.44342 12.2393 4.74684 12.2394H6.91574V15H3.64232C2.94153 15 2.26945 14.7216 1.77392 14.226C1.27839 13.7305 1 13.0584 1 12.3576V9.08422H3.6029V11.0951Z" fill="#A169F7"/>
<path fill-rule="evenodd" clip-rule="evenodd" d="M12.3577 1C13.0585 1 13.7306 1.27839 14.2261 1.77392C14.7216 2.26945 15 2.94153 15 3.64232V6.91574H12.2788V4.70742C12.2788 4.40399 12.1583 4.11299 11.9438 3.8984C11.7293 3.68381 11.4383 3.5632 11.1349 3.56311H9.08426V1H12.3577Z" fill="#FF6163"/>
<path fill-rule="evenodd" clip-rule="evenodd" d="M11.1349 12.2394C11.4383 12.2393 11.7293 12.1187 11.9438 11.9041C12.1583 11.6895 12.2788 11.3985 12.2788 11.0951V9.08422H15V12.3576C15 13.0584 14.7216 13.7305 14.2261 14.226C13.7306 14.7216 13.0585 15 12.3577 15H9.08426V12.2394H11.1349Z" fill="#97CF26"/>
</svg>
