<svg width="16" height="16" viewBox="0 0 16 16" fill="none" xmlns="http://www.w3.org/2000/svg">
<path fill-rule="evenodd" clip-rule="evenodd" d="M8.056 1.00005C10.438 1.00005 13.048 1.34005 13.994 1.62305C14.59 1.86005 14.982 2.43805 14.982 3.08005C15 4.55605 15 7.27805 15 9.53305C15 12.7941 10.261 15.9751 8.026 16.0001H8C5.776 16.0001 1 12.8071 1 9.53305C1 7.27805 1 4.55605 1.018 3.08005C1.018 2.43805 1.41 1.86005 2.006 1.62305C2.959 1.33705 5.604 0.995054 8 1.00005H8.056ZM10.809 5.35105C10.949 5.36005 11.083 5.39205 11.209 5.45405C11.53 5.61405 11.745 5.94405 11.762 6.30305C11.767 6.41105 11.754 6.51905 11.725 6.62305C11.682 6.77305 11.604 6.90605 11.502 7.02305C10.36 8.21905 9.19 9.38905 7.994 10.5311C7.913 10.6021 7.824 10.6631 7.725 10.7071C7.469 10.8191 7.172 10.8191 6.917 10.7071C6.817 10.6631 6.729 10.6021 6.647 10.5311C5.946 9.86105 5.26 9.17605 4.591 8.47505C4.489 8.35705 4.411 8.22505 4.368 8.07505C4.335 7.95605 4.323 7.83205 4.334 7.70905C4.346 7.58605 4.38 7.46605 4.435 7.35505C4.483 7.25905 4.547 7.17005 4.623 7.09405C4.877 6.84005 5.258 6.74105 5.604 6.83905C5.769 6.88605 5.913 6.97605 6.037 7.09405L7.321 8.37805C8.243 7.45505 9.146 6.51205 10.089 5.61005C10.124 5.58005 10.124 5.58005 10.16 5.55105C10.314 5.44105 10.482 5.37605 10.671 5.35405C10.717 5.35105 10.763 5.34905 10.809 5.35105Z" fill="#2C2D2E"/>
</svg>
