<svg width="449" height="133" xmlns="http://www.w3.org/2000/svg" xmlns:xlink="http://www.w3.org/1999/xlink"><defs><path id="a" d="M0 0h448.669v132.782H0z"/></defs><g fill="none" fill-rule="evenodd"><mask id="b" fill="#fff"><use xlink:href="#a"/></mask><path d="M314.267 65.241a5.029 5.029 0 00-5.02 5.02 5.016 5.016 0 005.02 5.025 5.013 5.013 0 005.013-5.025c0-2.761-2.247-5.02-5.013-5.02zM140.35 70.013s2.504-8.381 2.885-9.694c1.012-3.41 2.526-8.779 2.526-8.779h.248s1.394 5.565 2.304 8.73c.356 1.231 2.748 9.743 2.748 9.743H140.35zm15.24 15.22h9.06l-13.682-41.821c-1.44-.486-3.238-.79-5.137-.79-2.074 0-2.814.275-4.441.79l-14.51 41.821h8.678s1.164-3.662 2.586-8.212h15.004l2.443 8.212zm293.079 0s-4.29-9.156-5.34-11.226c-1.184-2.35-2.274-3.971-4.697-4.547v-.138c1.623-.306 2.912-1.29 4.307-4.28 1.345-2.926 1.743-3.551 2.528-4.242.774-.701 1.828-.434 1.828-.434l.399-5.446c-1.128-.15-2.373-.152-3.66-.082-2.123.132-3.234.735-4.274 1.799-.814.808-1.377 2.015-2.068 3.43-.738 1.512-1.32 2.735-2.06 4.275-.756 1.576-1.125 2.28-3.161 2.28h-1.321V55.315h-7.896v29.918h7.896V73.008l1.075-.018c2.244 0 2.628.56 3.82 2.927 1.404 2.83 4.055 9.316 4.055 9.316h8.569zm-32.273 0V55.315h-7.866v11.312h-8.904V55.315h-7.851v29.918h7.85V73.016h8.905v12.217h7.866zm-216.1-30.19l-.032 28.617c3.728 1.573 7.823 2.282 11.462 2.282 8.35 0 12.818-4.316 12.818-11.43 0-6.437-3.955-10.419-11.347-10.419-1.878 0-2.98.249-5.041.744v-9.794h-7.86zm16.117 19.834c0 2.952-1.04 4.974-4.816 4.974-1.272 0-1.795 0-3.445-.463v-8.627c2.049-.399 2.23-.466 3.445-.466 3.609 0 4.816 1.755 4.816 4.582zm171.243 7.485c-2.083-3.156-2.622-5.018-2.622-8.988v-8.059c0-4.354-.498-5.951-1.65-7.547-1.6-2.239-4.257-3.207-9.167-3.207-3.466 0-6.861.375-10.11 1.202l1.163 5.772c2.203-.308 4.52-.574 6.182-.574 5.197 0 5.797.759 5.797 4.658v1.462a15.002 15.002 0 00-3.97-.535c-7.86 0-12 3.834-12 10.164 0 5.949 4.425 9.197 9.839 9.197 2.015 0 4.11-.375 5.77-1.046 1.006-.442 1.442-.691 2.737-1.547.786 1.152 2.359 2.316 2.997 2.526l5.034-3.478zm-9.996-3.449c-1.726.599-2.863.736-4.234.736-2.815 0-4.4-1.111-4.4-3.996 0-3.002 2.015-4.019 5.912-4.019.946 0 1.88.143 2.31.296v2.153c0 2.322.127 3.841.412 4.83zm-76.755 3.449c-2.075-3.156-2.614-5.018-2.614-8.988v-8.059c0-4.354-.503-5.951-1.658-7.547-1.591-2.239-4.254-3.207-9.161-3.207-3.46 0-6.864.375-10.116 1.202l1.166 5.772c2.212-.308 4.515-.574 6.182-.574 5.206 0 5.806.759 5.806 4.658v1.462a15.085 15.085 0 00-3.975-.535c-7.867 0-12.006 3.834-12.006 10.164 0 5.949 4.42 9.197 9.843 9.197 2.013 0 4.114-.375 5.775-1.046.999-.442 1.435-.691 2.736-1.547.785 1.152 2.35 2.316 2.99 2.526l5.032-3.478zm-9.991-3.449c-1.728.599-2.865.736-4.23.736-2.813 0-4.412-1.111-4.412-3.996 0-3.002 2.018-4.019 5.915-4.019.937 0 1.88.143 2.323.296v2.153c0 2.322.114 3.841.404 4.83zm-96.851 6.32V56.405c-4.317-1.286-7.638-1.844-11.97-1.844-4.328 0-7.567.558-11.886 1.844v14.76c0 4.014-.07 5.218-.506 6.515-.435 1.137-1.018 2.502-2.602 3.557l2.143 4.603c6.313-1.783 8.69-4.53 8.69-13.261V61.72c2.087-.305 2.499-.375 4.16-.375 1.674 0 2.023.07 4.103.375v23.513h7.868zm59.498 9.8V84.284c.996.589 2.982 1.459 6.33 1.459 6.66 0 11.567-5.534 11.567-15.647 0-10.893-4.875-15.556-12.887-15.556-2.036 0-3.361.209-5.01.995V42.692h-7.831v12.843c-1.647-.786-2.98-.995-5.013-.995-8.012 0-12.89 4.856-12.89 15.742 0 10.117 4.41 15.461 11.557 15.461 3.363 0 5.35-.87 6.346-1.459v10.749h7.83zM235.9 70.282c0-6.005 1.81-9.18 5.417-9.18 1.523 0 2.534-.009 4.412.889V78.51c-1.705.559-2.511.635-4.031.635-4.111 0-5.797-3.355-5.797-8.863zm27.486-.186c0 5.501-2.191 9.049-5.798 9.049-1.514 0-2.317-.076-4.028-.635V61.991c1.878-.898 2.889-.889 4.406-.889 3.612 0 5.42 2.985 5.42 8.994zm94.893 2.15c0-7.412-4.342-12.519-13.465-12.519-2.241 0-3.806.214-6.223.785l-.017-10.669c1.503-.214 4.078-.402 6.914-.402 2.683 0 6.082.147 9.064.511l.208-6.183c-3.39-.76-8.306-1.224-12.12-1.224-3.76 0-9.603.94-12.387 1.693l-.003 39.437c4.339 1.587 8.573 2.314 12.92 2.314 9.947 0 15.109-5.273 15.109-13.743zm-8.365.597c0 3.997-2.211 6.627-6.287 6.627-1.611 0-2.932.005-5.036-.569V66.802c.929-.153 2.848-.451 5.036-.372 4.143.157 6.287 2.092 6.287 6.413zM42.554 21L30.788 56.325h23.719L42.7 21h-.147zM1.319 115.06c-.73 0-1.32.604-1.32 1.351v15.021c0 .749.59 1.35 1.32 1.35h82.61c.725 0 1.309-.601 1.309-1.35v-15.021c0-.747-.584-1.351-1.308-1.351H1.319zM42.624 0c9.04 0 11.883 6.475 14.258 12.958 1.008 2.741 24.49 67.047 25.193 68.976.197.532.067 1.421-.762 1.738-.832.316-13.036 5.062-13.71 5.315-.674.254-1.434-.121-1.682-.792-.25-.667-5.307-14.683-5.88-16.254H25.25c-.572 1.571-5.682 15.612-5.918 16.254-.234.642-.965 1.075-1.678.792-.716-.285-12.974-5.034-13.698-5.315-.702-.267-1.024-1.064-.775-1.738.864-2.414 23.988-65.685 25.173-68.976C30.64 6.579 33.587 0 42.623 0z" fill="#ED3523" mask="url(#b)"/></g></svg>