<svg width="83" height="17" xmlns="http://www.w3.org/2000/svg"><g fill="none" fill-rule="evenodd"><path d="M.91 8.34A8.097 8.097 0 018.998.242v2.926a5.174 5.174 0 00.011 10.347 5.175 5.175 0 005.172-5.194l2.926.003A8.099 8.099 0 01.91 8.34" fill="#00613C"/><path d="M5.435 8.34a3.593 3.593 0 117.186.002 3.593 3.593 0 01-7.186-.002" fill="#4EAF46"/><path d="M11.519 3.79a2.058 2.058 0 114.118 0 2.06 2.06 0 11-4.118 0" fill="#00613C"/><path d="M74.764 5.829l-.25 1.229c-.587 2.673-.805 3.534-1.314 6.192l-.113.096-1.62.047-.08-.11.653-2.738.191-.897a97.003 97.003 0 00-2.089-.027c-.544 0-.958.006-1.381.018a117.503 117.503 0 00-.743 3.611l-.113.096-1.623.047-.079-.11.652-2.738.257-1.193c.428-1.878.508-2.291.763-4.025l.112-.11c.745-.097.921-.128 1.684-.287l.082.11-.173.789-.247 1.229-.259 1.163c.584.015 1.169.024 1.757.024.62 0 1.028-.012 1.718-.025.223-1.018.313-1.574.508-2.893l.112-.11a16.79 16.79 0 001.686-.287l.079.11-.17.789m-17.876 4.07c-.352 1.378-1.329 3.759-4.333 3.759-2.126 0-3.294-1.103-3.294-3.278 0-.281.022-.594.069-.922l.033-.244c.579-3.603 2.141-7.018 5.567-7.052.456-.006 1.383-.053 2.013-.202l-.229 1.439c-.635.163-1.64.248-2.226.251-.728.008-1.231.285-1.58.619a2.636 2.636 0 00-.411.512 4.449 4.449 0 00-.234.427 5.049 5.049 0 011.523-.233c2.093 0 3.341 1.168 3.341 3.229 0 .56-.095 1.135-.239 1.695m-1.663-.496c.112-.463.191-.925.191-1.373 0-1.615-1.039-1.887-1.63-1.887-2.51 0-2.83 3.9-2.83 4.491 0 1.28.767 1.839 1.632 1.839 1.71 0 2.349-1.757 2.637-3.07m22.282-.978c.381-.331.602-.539 1.126-1.046.556-.541 1.909-1.941 2.163-2.212l.175-.094h1.831l.047.144c-.159.142-.24.206-.877.746-.255.209-.411.367-.713.637l-2.07 1.909 2.467 4.695-.095.125-1.767.05-.128-.096c-.414-.988-.524-1.208-1.096-2.372l-1.114-2.259a129.38 129.38 0 00-.961 4.598l-.11.096-1.624.047-.078-.11.652-2.738.255-1.193c.428-1.878.508-2.291.762-4.025l.112-.11c.749-.097.922-.128 1.687-.287l.08.11-.171.789-.249 1.229-.304 1.367M66.486 5.103l-.08-.128-2.207-.015c-1.47 0-3.531.095-5.019 1.837-.671.796-1.278 2.168-1.278 3.427 0 1.993 1.327 3.144 2.957 3.144 1.357 0 2.063-.591 2.334-.813l-.112.637.079.114 1.502-.033.114-.112c.318-1.901.432-2.505.991-4.963l.719-3.095zm-3.055 6.223c-.175.14-.35.303-.527.412-.414.255-.958.368-1.389.368-1.456 0-1.871-1.228-1.871-1.993 0-.079.032-2.138 1.71-3.284.944-.638 1.983-.67 2.51-.67.24 0 .478.015.719.015l-1.152 5.152z" fill="#4EAF46"/><path d="M24.926 11.846c1.218 0 1.787-1.269 2.157-2.902.26-1.15.542-2.836-.926-2.836-1.252 0-1.806 1.201-2.175 2.836-.345 1.517-.423 2.902.944 2.902zm-.566 1.768c-1.733 0-4.228-.55-3.324-4.553.338-1.503 1.376-4.687 5.646-4.687 4.152 0 3.534 3.403 3.279 4.604-.766 3.384-2.833 4.636-5.601 4.636zm10.151-.2c-.802 0-2.119 0-2.672.017l-.094-.099a80.27 80.27 0 00.924-3.721c.319-1.418.603-2.667.714-3.236-.671.016-1.704.016-2.209.034l-.091-.117c.133-.433.32-1.182.437-1.632l.153-.086a152.394 152.394 0 007.107-.017l.114.086c-.123.397-.34 1.216-.451 1.632l-.158.1c-.66-.015-1.161-.015-2.115-.015-.082.364-.34 1.434-.769 3.334a105.224 105.224 0 00-.744 3.586l-.146.134m9.267-6.839c-.536 0-1.138.016-1.406.016-.083.368-.409 1.736-.709 3.069-.355 1.568-.67 3.037-.792 3.652l-.157.102c-.817 0-1.867 0-2.706.017l-.092-.099c.172-.686.609-2.552 1.029-4.405.421-1.866.786-3.701.904-4.219l.14-.117c.902 0 1.811.034 4.046.034 1.751 0 3.447-.051 4.352-.068l.076.103c-.117.45-.62 2.6-1.102 4.733-.389 1.72-.745 3.435-.837 3.919l-.123.102c-.717 0-2.034 0-2.721.017l-.074-.119c.147-.582.469-1.932.847-3.602.286-1.267.575-2.617.689-3.119-.268 0-.863-.016-1.364-.016" fill="#00613C"/></g></svg>