<svg width="142" height="31" xmlns="http://www.w3.org/2000/svg" xmlns:xlink="http://www.w3.org/1999/xlink"><defs><path id="a" d="M.836.9h8.896v9.059H.836z"/></defs><g fill="none" fill-rule="evenodd"><path d="M116.81 22.09h-3.624a.907.907 0 01-.905-.909v-.272c0-.502.404-.908.905-.908h3.624v2.088zm-.456-7.249h-5.433l.736 1.81h4.246c.503 0 .907.407.907.906v.636h-4.078a2.718 2.718 0 00-2.715 2.716v.272a2.722 2.722 0 002.715 2.72h6.34v-6.344a2.719 2.719 0 00-2.718-2.716zm11.82 3.352h-4.44V14.84h-2.263v9.06h2.263v-3.898h4.44V23.9h2.265v-9.06h-2.265z" fill="#F69439"/><g transform="translate(132 13.942)"><mask id="b" fill="#fff"><use xlink:href="#a"/></mask><path fill="#F69439" mask="url(#b)" d="M9.098.9H6.446L3.932 4.252h-.83V.898H.835v9.06H3.1v-3.9h.822l2.971 3.9h2.838l-4.085-4.8z"/></g><path d="M106.123 20.168a1.925 1.925 0 01-1.92 1.922h-2.969v-5.44h2.97c1.056 0 1.919.862 1.919 1.918v1.6zm-1.469-5.327h-3.42v-1.81h5.512l.73-1.813H98.97V23.9h5.686a3.733 3.733 0 003.733-3.732v-1.596a3.732 3.732 0 00-3.734-3.73zm-46.308 2.716v3.624a.91.91 0 01-.907.908h-.27V23.9h.722a2.722 2.722 0 002.717-2.719v-3.624c0-.499.408-.906.906-.906h3.168v7.25h2.266v-9.06h-5.886a2.719 2.719 0 00-2.716 2.716M40.85 16.65h4.167l.733-1.81h-5.353a2.719 2.719 0 00-2.717 2.717v3.624a2.721 2.721 0 002.717 2.719h5.353l-.733-1.811H40.85a.909.909 0 01-.905-.908v-3.624c0-.5.406-.906.905-.906m12.872 4.53a.907.907 0 01-.904.908h-2.717a.91.91 0 01-.904-.908v-3.624c0-.499.408-.906.904-.906h2.717c.5 0 .904.407.904.906v3.624zm-.45-6.34h-3.623a2.717 2.717 0 00-2.715 2.716v3.624a2.72 2.72 0 002.715 2.72h3.622a2.723 2.723 0 002.72-2.72v-3.624a2.72 2.72 0 00-2.72-2.716zm-19.667 6.34a.91.91 0 01-.907.908H29.98a.908.908 0 01-.904-.908v-3.627a.908.908 0 01.904-.903h2.718c.5 0 .907.407.907.906v3.624zm-.454-6.34h-3.623c-.153 0-.302.014-.449.04a1.918 1.918 0 011.917-1.85h3.053l.734-1.813h-4.24a3.73 3.73 0 00-3.73 3.73v6.233a2.721 2.721 0 002.715 2.72h3.623a2.721 2.721 0 002.716-2.72v-3.624a2.719 2.719 0 00-2.716-2.716zm51.111 1.809h2.813v7.25h2.266v-7.25h3.17v-1.81h-8.98zm-3.972 4.531a.907.907 0 01-.905.908h-2.717a.908.908 0 01-.903-.908v-3.624c0-.499.406-.906.903-.906h2.717c.501 0 .905.407.905.906v3.624zm-.45-6.34h-3.621a2.72 2.72 0 00-2.718 2.716v.636h-1.898v-3.352h-2.261v9.06h2.26V20h1.9v1.18a2.722 2.722 0 002.717 2.72h3.62a2.722 2.722 0 002.718-2.72v-3.624a2.72 2.72 0 00-2.718-2.716zM17.408 19.37l2.072-5.795 2.12 5.795h-4.192zm.729-8.151L13 23.899h2.793l.969-2.717h5.5l.994 2.718h2.703l-5.137-12.681h-2.685zM4.51 23.878l-4.51.04 5.238 5.239c.97.971 2.884 1.76 4.251 1.756l4.574.029-5.3-5.305c-.97-.968-2.883-1.76-4.253-1.76m2.567.07l-.003-7.497c0-1.368-.794-3.284-1.76-4.25L2.095 9.04v7.41c0 1.373.794 3.28 1.764 4.249l3.218 3.249zM14.135 4.51L14.095 0 8.859 5.242c-.97.967-1.761 2.882-1.755 4.25l-.026 4.572 5.299-5.302c.97-.97 1.759-2.879 1.759-4.252m32.289 20.53h-.375v.022l.375-.021" fill="#F69439"/></g></svg>