<svg width="371" height="57" xmlns="http://www.w3.org/2000/svg" xmlns:xlink="http://www.w3.org/1999/xlink"><defs><path id="a" d="M.308 24.115L23.969.446h34.014L40.006 13.525l-10.198.006-10.626 10.584z"/><path id="c" d="M58.621.13L34.7 24.051 22.736 12.086 34.715.106H10.979l-.23-.007L.569 11.65l34.416 31.596 29.176-29.339H82.54L100.976.13z"/><path id="e" d="M.308 24.115l.556-.551 18.054-.011 10.695-10.576h9.98L57.983.446 40.006 13.525l-10.198.006-10.626 10.584z"/><path id="g" d="M82.423 13.32l-18.528.028L34.952 42.23 1.08 11.616 10.979.106l-.23-.007L.569 11.65l34.416 31.596 29.176-29.339H82.54L100.976.13z"/><path id="i" d="M.288.508h18.816v16.95H.288z"/></defs><g fill="none" fill-rule="evenodd"><path fill="#760017" d="M0 17.88l35.939 35.94 30.702-30.943h18.381l16.953-16.952H59.62l-23.921 23.92L23.737 17.88 35.716 5.9H11.98l-.231-.008z"/><path fill="#760017" d="M40.88 53.31l3.427-3.398L67.97 26.24h34.014L85.027 43.175H75.04L64.926 53.31z"/><g transform="translate(44 25.794)"><mask id="b" fill="#fff"><use xlink:href="#a"/></mask><path mask="url(#b)" d="M.308 24.115L23.969.446h34.014L40.006 13.525l-10.198.006-10.626 10.584z"/></g><g transform="translate(1 5.794)"><mask id="d" fill="#fff"><use xlink:href="#c"/></mask><path mask="url(#d)" d="M58.621.13L34.7 24.051 22.736 12.086 34.715.106H10.979l-.23-.007L.569 11.65l34.416 31.596 29.176-29.339H82.54L100.976.13z"/></g><g transform="translate(44 25.794)"><mask id="f" fill="#fff"><use xlink:href="#e"/></mask><path mask="url(#f)" d="M.308 24.115l.556-.551 18.054-.011 10.695-10.576h9.98L57.983.446 40.006 13.525l-10.198.006-10.626 10.584z"/></g><g transform="translate(1 5.794)"><mask id="h" fill="#fff"><use xlink:href="#g"/></mask><path mask="url(#h)" d="M82.423 13.32l-18.528.028L34.952 42.23 1.08 11.616 10.979.106l-.23-.007L.569 11.65l34.416 31.596 29.176-29.339H82.54L100.976.13z"/></g><path fill="#B2002C" d="M118.407 36.302l-1.43 6.449 1.892-.2 6.17-6.25h4.683l-8.058 7.919 4.906 9.033h-4.884l-3.558-7.236h-1.876l-1.604 7.236h-3.742l3.758-16.951zm16.569 8.957h3.442c2.02 0 3.485-1.111 3.861-2.811.369-1.67-.428-2.76-2.476-2.76h-3.593l-1.234 5.57zm5.73-8.957c4.048 0 6.217 2.426 5.398 6.123-.863 3.896-4.461 6.197-8.433 6.197h-3.441l-1.026 4.63h-3.798l3.758-16.95h7.542zm23.038 0l-.757 3.416h-8.934l-.705 3.188h7.97l-.733 3.312h-7.973l-.802 3.62h9.362l-.758 3.415h-13.11l3.76-16.951zm10.549 3.386c-1.082 4.76-2.485 8.227-3.868 10.15h6.88l2.25-10.15h-5.262zm9.81-3.387l-3.002 13.536h2.455l-.232 1.04-1.638 5.916h-3.416l.634-3.54h-11.466l-.988 3.54h-3.438l1.101-5.89.23-1.042h.71c.71 0 1.6-.477 2.297-1.568 1.358-2.024 2.481-5.365 3.34-9.237l.61-2.755h12.803zm10.27.001l-2.502 11.285 10.702-11.285h3.338l-3.759 16.95h-3.77l2.362-10.65-10.155 10.65h-3.719l3.76-16.95zm37.103 0l-1.469 6.626h7.414l1.471-6.626h3.825l-3.759 16.95h-3.826l1.51-6.801h-7.415l-1.509 6.802h-3.82l3.758-16.951zm34.978 0l-3.76 16.95h-3.792l3.758-16.95h3.794zM247.962 49.86h3.063c1.97 0 3.2-.857 3.56-2.475.37-1.672-.534-2.51-2.482-2.51h-3.04l-1.101 4.985zm3.005-13.56l-1.155 5.214H253c4 0 6.219 2.1 5.375 5.894-.78 3.518-3.951 5.844-7.822 5.844h-7.14l3.759-16.951h3.795zm23.696.002l-2.502 11.285 10.7-11.285h3.34l-3.76 16.95h-3.767l2.359-10.65-10.155 10.65h-3.72l3.756-16.95zm44.018 10.245h4.781l-.82-6.45h-.252l-3.709 6.45zm6.782-10.271l3.241 16.977h-4.2l-.545-3.361h-7.26l-2.012 3.36h-4.122l10.72-16.976h4.178zm-100.442.026h-15.916l-.763 3.44h5.792l-2.994 13.51h3.771l2.993-13.51h4.943zm77.736 13.558h-3.894l.931-4.196h3.993c1.7 0 2.544.758 2.245 2.1-.279 1.264-1.4 2.096-3.275 2.096m1.667-7.514h-3.895l.583-2.629h7.65l2.157-3.416h-12.818l-3.758 16.952h7.664c3.822 0 7.068-1.972 7.847-5.49.813-3.669-1.559-5.417-5.43-5.417m34.929-6.044l-1.47 6.626h7.415l1.468-6.626h3.819l-3.759 16.95h-3.818l1.508-6.801h-7.415l-1.508 6.802h-3.822l3.758-16.951z"/><g transform="translate(351 35.794)"><mask id="j" fill="#fff"><use xlink:href="#i"/></mask><path fill="#B2002C" mask="url(#j)" d="M7.792.508L6.36 6.957l1.895-.2 6.172-6.25h4.677l-8.056 7.919 4.902 9.033h-4.88l-3.56-7.236H5.637l-1.606 7.236H.288L4.05.508z"/></g><path fill="#B2002C" d="M275.636 30.445l-.639 2.872h8.727l2.223-2.872zM125.545 5.93l3.056 7.691 6.41-7.692h4.073l-3.76 16.955h-3.72l2.482-11.185h-.227l-5.353 6.451h-1.973l-2.493-6.45h-.226l-2.48 11.184h-3.697l3.759-16.955zm19.067 8.477c-.679 3.062.77 5.44 4.01 5.44 3.34 0 5.761-2.482 6.417-5.44.696-3.139-.743-5.444-4.004-5.444-3.266 0-5.754 2.43-6.423 5.444m14.224 0c-1.08 4.86-5.63 8.83-10.967 8.83-5.267 0-8.137-3.819-7.026-8.83 1.082-4.886 5.675-8.83 10.942-8.83 5.363 0 8.165 3.796 7.051 8.83m17.579-3.747c-.96-1.039-2.375-1.618-4.249-1.618-3.316 0-5.904 2.226-6.6 5.365-.714 3.212.983 5.364 4.172 5.364 1.898 0 3.771-.685 5.361-1.922l1.562 2.655c-2.355 1.845-4.934 2.732-7.892 2.732-5.288 0-8.171-3.44-6.987-8.78 1.081-4.88 5.536-8.88 11.305-8.88 2.631 0 4.675.835 6.037 2.326l-2.709 2.758zm10.881-4.73l-1.432 6.45 1.891-.2 6.167-6.25h4.681l-8.059 7.92 4.905 9.034h-4.878l-3.564-7.236h-1.867l-1.605 7.236h-3.746l3.758-16.955zm15.126 8.477c-.678 3.062.766 5.44 4.007 5.44 3.34 0 5.764-2.482 6.418-5.44.697-3.139-.744-5.444-4.006-5.444-3.268 0-5.752 2.43-6.419 5.444m14.222 0c-1.077 4.86-5.628 8.83-10.967 8.83-5.266 0-8.14-3.819-7.029-8.83 1.084-4.886 5.677-8.83 10.945-8.83 5.363 0 8.168 3.796 7.051 8.83m6.071 5.238h4.478c1.644 0 2.656-.683 2.947-2.001.281-1.263-.477-1.949-2.095-1.949h-4.454l-.876 3.95zm1.558-7.034h3.875c1.288 0 2.201-.683 2.437-1.746.248-1.115-.359-1.701-1.803-1.701h-3.744l-.765 3.447zm5.201-6.682c3.771 0 5.5 1.793 4.87 4.63-.308 1.391-1.209 2.605-2.339 3.139l-.05.227c1.525.531 2.278 2.051 1.87 3.897-.614 2.757-3.048 5.062-7.4 5.062h-8.2l3.76-16.955h7.49zm22.621 4.731c-.957-1.039-2.37-1.618-4.245-1.618-3.316 0-5.907 2.226-6.603 5.365-.71 3.212.986 5.364 4.174 5.364 1.9 0 3.772-.685 5.362-1.922l1.561 2.655c-2.354 1.845-4.935 2.732-7.897 2.732-5.286 0-8.164-3.44-6.98-8.78 1.082-4.88 5.534-8.88 11.304-8.88 2.63 0 4.674.835 6.04 2.326l-2.716 2.758zm10.442-4.73l-1.43 6.45 1.89-.2 6.17-6.25h4.686l-8.062 7.92 4.909 9.034h-4.888l-3.555-7.236h-1.874l-1.605 7.236h-3.745L258.79 5.93zm18.648 0l-2.502 11.284L289.384 5.93h3.341l-3.761 16.955h-3.769l2.362-10.655L277.4 22.884h-3.72l3.76-16.955zm19.803 0l-2.504 11.284 10.7-11.285h3.343l-3.761 16.955h-3.772l2.363-10.655L297.2 22.884h-3.72l3.76-16.954zM302.011 0l-.637 2.874h8.725L312.324 0z"/></g></svg>