<svg xmlns="http://www.w3.org/2000/svg" xmlns:xlink="http://www.w3.org/1999/xlink" viewBox="0 0 298.5 41.8"><path fill="#005BAA" d="M3.2 13.8c-.1-.2 0-.5 0-.6.1-.2.2-.4.4-.5 0 0 1.2-.5 2.2-2.1C7 8.7 8.6 6.8 12.3 6.8v.9s0 .8-.7.9c-.9.1-2.8.8-3.9 2.9-.9 1.6-2.1 1.9-2.1 1.9l6.8 7.1c-1.6 0-2.6-.1-2.9-.2-.4-.1-.9-.5-1.6-1.3l-4.5-5c-.1.1-.2 0-.2-.2M24 15.1c0 3.8-1.6 5.7-4.7 5.7-1.9 0-3.1-.5-3.7-1.5v5.6c-1.1 0-1.8-.1-2-.2-.2-.1-.3-.7-.3-1.6V9.6c.9 0 1.4.1 1.5.2.1.1.2.6.2 1.4.7-1.1 2.1-1.7 4.2-1.7 3.2-.1 4.8 1.8 4.8 5.6m-2.3 0c0-1.2-.2-2.2-.6-2.7-.5-.7-1.3-1-2.5-1-1.5 0-2.4.2-2.7.5-.3.3-.4 1.4-.4 3.3 0 1.2.2 2.1.5 2.7.5.7 1.3 1.1 2.5 1.1 1.5 0 2.4-.2 2.7-.5.4-.4.5-1.5.5-3.4m13.7-.9c0 .9-.1 1.5-.3 1.6-.2.1-.9.2-2.1.2h-5.8c0 .8.3 1.5.8 2s1.3.8 2.3.8h2.4c.9 0 1.4.1 1.6.2.2.1.2.7.2 1.6h-4.1c-3.6 0-5.5-1.9-5.5-5.6 0-3.7 1.8-5.6 5.5-5.6 1.6 0 2.8.5 3.7 1.4.9.9 1.3 2 1.3 3.4m-2.4 0c0-2-.9-3-2.8-3-1.5 0-2.3.1-2.6.4-.3.3-.4 1.1-.4 2.6H33zm14.3 6.4v.6c0 .9-.1 1.5-.3 1.6-.2.2-.9.2-2 .2v-2.5h-7.1V23c-1.1 0-1.8-.1-2-.2-.2-.1-.3-.7-.3-1.6v-.6c0-1 .1-1.5.2-1.6.1-.1.4-.2.9-.2 1.4-1.4 1.8-5.2 1.9-7.4v-.2c0-.8.1-1.2.2-1.4.1-.2.7-.2 1.6-.2h3.8c.9 0 1.4.1 1.6.2.2.1.2.5.2 1.4v7.6c.5 0 .9.1 1 .2.2.2.3.7.3 1.6m-3.5-2.5v-6.7h-3.2c0 .7-.1 1.9-.2 3.2-.2 1.3-.5 2.9-1.2 4.2H43c.6 0 .7-.3.7-.5l.1-.2M3 20.7c-1.2 0-1.9-.1-2.1-.2-.2-.2-.3-.7-.3-1.7V6.9c1.2 0 1.9.1 2.1.2.2.2.3.7.3 1.6v12zm45.4-.1V9.5c1.2 0 1.9.1 2.1.2.2.1.3.6.3 1.4v6.5l4.1-6.7c.5-.7.8-1.1 1.1-1.2.2-.1.8-.2 1.7-.2h1.2v9.2c0 1-.1 1.5-.3 1.7-.2.2-.9.2-2.1.2v-8.2l-4.1 6.7c-.5.8-.9 1.2-1.1 1.3-.2.1-.8.2-1.6.2h-1.3zM70.2 9.5c0 1-.1 1.6-.2 1.7-.1.2-.7.2-1.6.2h-2.1v9.1c-1.1 0-1.8-.1-2-.2-.2-.2-.3-.7-.3-1.7v-7.2h-4c0-1 .1-1.6.2-1.7.1-.2.6-.2 1.5-.2h8.5z"/><path fill="#FFF" d="M98.8 13.6c0 7-5.7 12.8-12.8 12.8-7.1 0-12.8-5.7-12.8-12.8C73.2 6.5 78.9.8 86 .8c7.1 0 12.8 5.7 12.8 12.8"/><path fill="#ED1C24" d="M80.2 13.6l5.9 5.9 5.9-5.9-5.9-5.9-5.9 5.9zm-6 0c0-6.6 5.3-11.9 11.9-11.9C92.7 1.7 98 7 98 13.6s-5.3 11.9-11.9 11.9c-6.6-.1-11.9-5.4-11.9-11.9"/><path fill="#005BAA" d="M122.4 17.3c0-.9-.6-1.5-2.2-1.5h-4.5v3h4.5c1.2 0 1.9-.1 2-.2 0 0 .2-.4.2-1.3m-2.4-6.1h-4.4V14h4.5c1.1 0 1.6-.1 1.7-.2.1-.1.2-.4.2-1.2.1-.9-.5-1.4-2-1.4m-4.6 9.4c-.9 0-1.4-.1-1.6-.2-.1-.1-.2-.6-.2-1.4v-8c0-.8.1-1.3.2-1.4.2-.1.7-.2 1.6-.2h4.6c2.8 0 4.2 1 4.2 2.9 0 1.2-.4 2-1.3 2.3l-.2.1.2.1c.5.2.9.5 1.2 1 .3.5.5 1 .5 1.6 0 2.2-1.5 3.3-4.4 3.3-.2-.1-4.8-.1-4.8-.1zm21-5.6c0 3.8-1.5 5.7-4.7 5.7-1.9 0-3.1-.5-3.7-1.5v5.6c-1.1 0-1.8-.1-2-.2-.2-.1-.3-.7-.3-1.6V9.5c.9 0 1.4.1 1.5.2.1.1.2.6.2 1.4.7-1.1 2.1-1.7 4.2-1.7 3.3-.1 4.8 1.8 4.8 5.6m-2.3 0c0-1.2-.2-2.2-.6-2.7-.5-.7-1.3-1-2.4-1-1.5 0-2.4.2-2.7.5-.3.3-.4 1.4-.4 3.3 0 1.2.2 2.1.5 2.7.5.7 1.3 1.1 2.5 1.1 1.5 0 2.4-.2 2.7-.5.3-.4.4-1.5.4-3.4m14.5 0c0 3.8-1.8 5.6-5.5 5.6-3.6 0-5.4-1.9-5.4-5.6 0-3.7 1.8-5.6 5.5-5.6 3.6 0 5.4 1.8 5.4 5.6m-2.3 0c0-1.2-.2-2.1-.6-2.6-.5-.7-1.3-1.1-2.5-1.1-1.6 0-2.5.2-2.7.5-.3.3-.4 1.4-.4 3.3 0 2.5 1 3.8 3.1 3.8 1.6 0 2.5-.2 2.7-.5.2-.4.4-1.5.4-3.4m13.5 5.2c-.2.2-.9.2-2.1.2v-8.7h-5.5v8.7c-1.2 0-1.9-.1-2.1-.2-.2-.2-.3-.7-.3-1.7v-7c0-1.1.1-1.7.2-1.9.2-.2.7-.3 1.7-.3h6.4c1 0 1.5.1 1.7.3.2.2.2.8.2 1.9v7c.1 1 0 1.6-.2 1.7m11.8.3c-.9 0-1.4-.1-1.5-.2-.1-.1-.2-.6-.2-1.5-.3.5-.8.9-1.5 1.2-.8.4-1.7.6-2.8.6-1.3 0-2.3-.3-3-.8-.8-.6-1.3-1.4-1.3-2.5s.4-2 1.1-2.6c.8-.7 2-1 3.5-1h3.5c0-.8-.2-1.4-.7-1.7-.5-.3-1.2-.5-2.3-.5H164c-.8 0-1.3-.1-1.5-.2-.1-.2-.2-.7-.2-1.6h3.9c2.1 0 3.5.4 4.3 1.3.7.7 1 1.8 1 3.4l.1 6.1zm-2.3-4.7v-.3h-3.1c-1.3 0-2 .1-2.2.2-.2.1-.3.7-.3 1.6 0 1.1.8 1.6 2.5 1.6 1.6 0 2.5-.1 2.8-.4.2-.3.3-1.2.3-2.7m-57.2 4.8h-7.3c-1.2 0-1.9-.1-2.1-.2-.2-.2-.3-.7-.3-1.7v-10c0-1 .1-1.6.3-1.7.2-.2.9-.2 2.1-.2h5.3c1 0 1.5.1 1.7.2.2.2.2.7.2 1.7h-7.3v3.8h4.7c1 0 1.5.1 1.7.2.2.2.2.7.2 1.7h-6.6v4.1h5.2c1.1 0 1.7.1 1.8.2.3.4.4.9.4 1.9"/><path fill="#ED1C24" d="M211.4 20.6c-1.2 0-1.9-.1-2.1-.2-.2-.2-.3-.7-.3-1.7V9.3c1.2 0 1.9.1 2.1.2.2.1.3.7.3 1.5v9.6zm7.7-.1c-1.3 0-2.3 0-2.6-.1-.3-.1-.7-.4-1.3-1l-3.5-4c-.1-.2-.2-.4-.2-.6 0 0 0-.6.4-.8 0 0 1.1-.5 2-1.8 1-1.5 2.2-2.8 5.2-2.8v.9s.1.9-.6 1c-.7.1-1.7.3-3.1 2.2-.8 1.1-1.3 1.3-1.3 1.3l5 5.7zm-23.5 0c-.9 0-1.4-.1-1.5-.2-.1-.1-.2-.6-.2-1.5-.3.5-.8.9-1.5 1.2-.8.4-1.7.6-2.8.6-1.3 0-2.3-.3-3-.8-.8-.6-1.3-1.4-1.3-2.5s.4-2 1.1-2.6c.8-.7 2-1 3.5-1h3.5c0-.8-.2-1.4-.7-1.7-.5-.3-1.2-.5-2.3-.5h-2.3c-.8 0-1.3-.1-1.5-.2-.1-.2-.2-.7-.2-1.6h3.9c2.1 0 3.5.4 4.3 1.3.7.7 1 1.8 1 3.4v6.1zm-2.2-4.7v-.3h-3.1c-1.3 0-2 .1-2.2.2-.2.1-.3.7-.3 1.6 0 1.1.8 1.6 2.5 1.6 1.6 0 2.5-.1 2.8-.4.1-.3.3-1.2.3-2.7m-9.7-1.6c.1.1.1.2.2.3l.1.2c0-.2-.1-.3-.3-.5m.8 2.3c0 2.7-1.8 4-5.5 4h-3.2c-1.1 0-1.8-.1-2-.2-.2-.2-.3-.7-.3-1.7v-10c0-1 .1-1.5.3-1.7.2-.2.9-.2 2-.2h7.9s-.1 1.1-.2 1.4c-.1.3-.2.5-.9.5h-6.7v3.9h3.6c2.5 0 3.7 1.1 4.2 1.7.2.2.3.4.3.5.3.6.5 1.1.5 1.8m-2.5 0c0-1.4-1-2-2.9-2h-3.2v4.2h3.2c1.5 0 2.4-.1 2.6-.3.2-.3.3-.9.3-1.9m25.4 4c-1.2 0-1.9-.1-2.1-.2-.2-.2-.3-.7-.3-1.7v-3h-5.5v5c-1.2 0-1.9-.1-2.1-.2-.2-.2-.3-.7-.3-1.7V9.4c1.2 0 1.9.1 2.1.2.2.2.3.7.3 1.7v2.3h5.5V9.4c1.2 0 1.9.1 2.1.2.2.2.3.7.3 1.7v9.2z"/><path fill="#005BAA" d="M222.5 13.4c0-5 1.2-8.1 5.9-8.1 0 1.6 0 1.5-1.3 1.8-2.3.6-2.7 3-2.7 6.3s.4 5.7 2.7 6.3c1.3.3 1.3.3 1.3 1.8-4.7 0-5.9-3.2-5.9-8.1m11.9 2.1h-2.7v4.7c-2.3 0-2.3 0-2.3-1.9V8.6c0-1.9 0-1.9 2.3-1.9h2.6c5.2 0 5.6 2.5 5.6 4.4 0 1.8-.3 4.4-5.5 4.4m0-6.9h-2.6v5.1h2.7c3.1 0 3.1 0 3.1-2.6-.1-1.2-.4-2.5-3.2-2.5m11.8 11.7c-4.3 0-5.3-2.7-5.3-5.5 0-2.9 1.1-5.5 5.4-5.5 4.2 0 5.4 2.7 5.4 5.5-.1 2.9-1.3 5.5-5.5 5.5m0-9.2c-3.1 0-3.1 0-3.1 3.7 0 2.1.6 3.7 3 3.7 3.1 0 3.1 0 3.1-3.7.1-2-.4-3.7-3-3.7m11.4 9.1c-4.3 0-5.4-2.5-5.4-5.4 0-2.9 1.2-5.4 5.3-5.4h3.3c0 1.8 0 1.8-1.7 1.8h-1.7c-3 0-3-.1-3 3.5 0 2.1.6 3.6 3 3.6h1.6c1.8 0 1.8 0 1.8 1.8.1.1-3.2.1-3.2.1zm9 0c-4.3 0-5.4-2.5-5.4-5.4 0-2.9 1.2-5.4 5.3-5.4h3.3c0 1.8 0 1.8-1.7 1.8h-1.7c-3 0-3-.1-3 3.5 0 2.1.6 3.6 3 3.6h1.6c1.8 0 1.8 0 1.8 1.8.1.1-3.2.1-3.2.1zm25.6 1.4c0-1.6 0-1.5 1.3-1.8 2.3-.6 2.7-3 2.7-6.3s-.4-5.7-2.7-6.3c-1.3-.3-1.3-.3-1.3-1.8 4.7 0 5.9 3.1 5.9 8.1.1 4.9-1.2 8.1-5.9 8.1"/><path fill="#055BA9" d="M291.4 10.1c0-.2-.1-.3-.2-.4-.1-.2-.3-.2-.6-.3h-3.2c-2.1 0-3.2.5-3.9 1.2-.7.7-.8 1.5-.8 2.2 0 1.3.5 2.2 1.3 2.7.7.4 1.6.6 2.5.6l-4.4 4.1h1.4c.8 0 1.2 0 1.6-.2.4-.2.7-.5 1.2-1l2.8-3.1c.1-.1.1-.1.1-.2v4.5h1.2c.2 0 .4 0 .5-.1.2-.1.3-.3.4-.5V11c.1-.4.1-.7.1-.9m-2.2 4.6c-.1-.1-.3-.2-.6-.2h-2.7c-.3 0-.4-.1-.6-.1-.2-.1-.3-.2-.3-.4-.1-.2-.1-.6-.1-1.1 0-.4.1-.8.4-1.1.3-.3.9-.6 2-.6h1.9V15c.1-.2.1-.2 0-.3m0 1.2z"/><path fill="#005BAA" d="M280.5 20c.3 0 .5-.1.6-.2.1 0 .1-.2.2-.5 0-.3.1-.6.1-1.1V9.5h-2.1c-.3 0-.4.1-.5.1-.2.1-.5.5-1 1.1l-4.2 6.8V11c0-.4 0-.7-.1-.9 0-.2-.1-.3-.2-.4-.1 0-.3-.1-.6-.1s-.7 0-1.2-.1V20h1.1c.8 0 1.3-.1 1.5-.2.1 0 .2-.2.4-.4s.4-.5.6-.9l4.2-6.8V20h1.2"/><path fill="none" d="M-62.8-40.7h432.7v305.9H-62.8z"/><path fill="#0054A4" d="M253.2 28.4h22.6v12.5h-22.6z"/><defs><path id="a" d="M253.2 28.4h22.6v12.5h-22.6z"/></defs><clipPath id="b"><use xlink:href="#a" overflow="visible"/></clipPath><path clip-path="url(#b)" fill="#FFF" d="M261.4 34.7l6.6-6.6 6.5 6.6-6.5 6.5-6.6-6.5"/><path fill="#231F20" d="M280.4 29.2l-2.1.2v1.5h1.8v.8h-1.8v2.5h-1.1v-5.7h3.2v.7m.5.1v-.9h1.2v.9h-1.2zm1.1 4.9h-1.2v-4.5h1.2v4.5m4.7-1.6c0 1.1-.5 1.6-1.6 1.6h-2.2v-5.8h2c.6 0 1 .1 1.2.3s.4.6.4 1.1c0 .8-.4 1.2-1.3 1.3 1 .1 1.5.6 1.5 1.5zm-1.4-2.6c0-.5-.2-.8-.7-.8h-.6v1.7h.5c.3 0 .5-.1.6-.2.2-.1.2-.3.2-.7zm.2 2.5c0-.3-.1-.6-.2-.7-.1-.1-.4-.2-.7-.2h-.6v1.8h.7c.3 0 .5-.1.6-.2.1-.1.2-.3.2-.7m5.7 1.7H290l-.4-1.8h-1.3l-.4 1.8h-1.2l1.6-5.8h1.5l1.4 5.8zm-1.7-2.6l-.5-2.2-.5 2.2h1"/><path fill="#939598" d="M280.7 40.5c-.7.3-1.3.4-1.7.4-1.5 0-2.2-1-2.2-2.9 0-2 .7-3.1 2.2-3.1.5 0 1 .2 1.5.5l-.3.5c-.4-.3-.8-.4-1.1-.4-.5 0-.8.2-1.1.6-.2.4-.3 1-.3 1.8 0 .7.1 1.3.3 1.6.2.4.6.6 1.1.6.3 0 .6-.1.9-.2v-1.8h-1.2v-.6h2l-.1 3m4.6.3h-1l-2-2.7v2.7h-.8V35h1.5c.5 0 1 .1 1.3.4.3.3.5.6.5 1.1 0 .4-.1.8-.4 1.1-.3.3-.6.4-1.1.4h-.2l2.2 2.8zm-1.4-4.3c0-.6-.3-.9-1-.9h-.6v1.9h.4c.8 0 1.2-.3 1.2-1m5.6 1.4c0 1-.2 1.7-.5 2.2-.4.5-.9.8-1.5.8s-1.1-.3-1.5-.8c-.4-.5-.5-1.2-.5-2.2 0-1 .2-1.7.5-2.2.4-.5.9-.8 1.5-.8.7 0 1.2.3 1.5.8.3.5.5 1.2.5 2.2zm-.9 0c0-.8-.1-1.3-.3-1.7-.2-.4-.5-.6-.9-.6s-.7.2-.9.6c-.2.4-.3 1-.3 1.7 0 .8.1 1.3.3 1.8.2.4.5.6.9.6s.7-.2.9-.6c.2-.5.3-1 .3-1.8m5.4 1.2c0 .3 0 .5-.1.7-.1.3-.3.6-.6.8-.3.2-.7.3-1.2.3-.6 0-1-.2-1.4-.5-.3-.3-.5-.7-.5-1.3V35h.8v4.1c0 .8.4 1.2 1.1 1.2.7 0 1.1-.4 1.1-1.2V35h.8v4.1m4.2-2.4c0 .7-.2 1.1-.7 1.4-.3.2-.7.3-1.3.3h-.5v2.4h-.8V35h1.4c.2 0 .5 0 .7.1.4.1.7.3.9.5.2.3.3.6.3 1.1zm-.9 0c0-.7-.3-1.1-1-1.1h-.6v2.2h.4c.4 0 .7-.1.9-.2.2-.2.3-.5.3-.9"/></svg>