<svg width="365" height="57" xmlns="http://www.w3.org/2000/svg" xmlns:xlink="http://www.w3.org/1999/xlink"><defs><path id="a" d="M0 60.28h372.729V0H0z"/></defs><g transform="translate(0 -4)" fill="none" fill-rule="evenodd"><path d="M211.373 20.402h21.015v4.685h-1.52s-.256-2.404-2.66-2.404h-3.667V44.33h-5.194V22.683h-3.797c-2.023 0-2.53 1.647-2.656 2.404h-1.52v-4.685zm43.913 0h3.8V44.33h-5.07V27.618L241.493 44.33h-3.807V24.834c0-2.785-2.4-3.164-2.4-3.164v-1.268h7.468V37.24l12.532-16.838zM145.434 44.33h-6.579l-4.684-8.863s-1.394-2.656-2.914-2.656h-1.899V44.33h-5.19V24.834c0-2.786-2.532-3.033-2.532-3.033v-1.397h7.722v9.998h2.281s1.518-.123 2.785-2.151c4.053-6.583 3.544-7.847 5.317-7.847h5.057v1.644c-3.54 0-4.554 7.22-7.973 9.494 1.652.63 2.28 2.157 5.951 8.862 0 0 .885 2.28 2.658 2.28v1.646zm141.379-5.19c-2.406 3.29-5.954 5.573-10.632 5.573-6.333 0-12.411-4.94-12.411-11.4v-1.39c0-6.963 5.57-11.9 12.41-11.9 6.837 0 12.148 5.57 12.148 12.28h-18.351v3.925c0 3.415 2.783 6.202 6.836 6.202 3.546 0 5.948-1.516 7.852-3.546l2.148.255zm-16.836-9.24h12.404v-1.27a6.21 6.21 0 00-6.2-6.2c-3.421 0-6.204 2.784-6.204 6.2v1.27zM168.12 36.101c0 3.037-2.152 5.947-5.443 6.078h-.5c-2.913 0-5.448-2.153-5.824-4.432V27.493c.25-2.406 2.658-5.065 5.823-5.065h1.007s4.811.253 4.937 6.08v7.594zm-4.808-16.079c-2.912 0-5.696 1.263-6.959 3.036v-2.656h-7.598v1.393s2.408.38 2.408 3.038v30.39h5.19V41.795c2.405 2.785 5.568 2.915 6.58 2.915 6.707-.13 11.261-5.318 11.261-11.777v-1.519c0-6.959-4.299-11.392-10.882-11.392zM91.02 35.971c0 3.417-2.656 6.457-6.58 6.457-3.93 0-6.456-3.04-6.456-6.457v-7.596c0-3.419 2.905-6.076 6.457-6.076 3.923 0 6.579 2.784 6.579 6.205v7.467zm-6.58-15.95c-8.992 0-12.663 6.961-12.663 11.524v2.022c0 5.315 5.193 11.142 12.664 11.142 6.963 0 12.784-5.19 12.784-11.27v-1.647c0-6.073-4.811-11.772-12.784-11.772zm123.39.38h-7.593v1.396s2.53.378 2.53 3.164V44.33h5.064V20.402zm-22.284 21.525V31.925h4.432c2.405 0 4.3 1.897 4.3 4.685v1.015c0 2.275-2.148 4.3-4.427 4.3h-4.304zm0-12.404v-9.118h-7.593V21.8s2.276.249 2.276 3.035v19.498h11.775c4.553 0 7.846-2.787 7.846-6.708v-1.14c0-4.313-3.162-6.963-8.104-6.963h-6.2zm-87.435-9.12h21.014v4.685h-1.522s-.253-2.404-2.662-2.404h-3.668V44.33h-5.19V22.683h-3.8c-2.021 0-2.531 1.647-2.652 2.404h-1.52v-4.685z" fill="#58585B"/><path d="M46.816 33.766c0 6.791-3.532 12.885-9.228 15.9l-1.306.618c-.429.197-.902.31-1.361.31-.887 0-1.591-.376-2.013-1.064-.336-.569-.429-1.182-.297-1.884.198-.972.956-1.46 1.18-1.583 3.358-1.525 5.518-4.95 5.518-8.74v-9.907c0-3.792-2.152-7.213-5.474-8.72-.008-.009-.999-.482-1.224-1.61-.132-.703-.039-1.317.297-1.88.422-.68 1.126-1.066 2.013-1.066.459 0 .932.103 1.361.306 0 0 1.227.583 1.278.602 5.72 3.033 9.256 9.13 9.256 15.918v2.8zM22.038 46.063c.224.122.986.611 1.185 1.583.133.702.043 1.315-.299 1.884-.419.688-1.124 1.064-2.014 1.064-.455 0-.924-.113-1.362-.31l-1.305-.618c-5.695-3.015-9.229-9.109-9.229-15.9v-2.8c0-6.788 3.546-12.885 9.255-15.918.055-.019 1.279-.602 1.279-.602a3.252 3.252 0 011.358-.306c.888 0 1.599.385 2.018 1.065.342.564.432 1.178.299 1.881-.225 1.128-1.213 1.601-1.224 1.61-3.322 1.507-5.47 4.928-5.47 8.72v9.906c0 3.791 2.151 7.216 5.509 8.741zm5.877-41.609C12.5 4.454 0 16.952 0 32.365 0 47.781 12.5 60.28 27.915 60.28s27.917-12.498 27.917-27.914c0-15.413-12.502-27.91-27.917-27.91z" fill="#00BAE3"/><path d="M324.1 38.346h-2.863V26.524h6.115l.243 1.474h-4.75v3.322h1.525c2.504 0 4.01 1.219 4.01 3.413 0 2.416-1.711 3.613-4.28 3.613m.185-5.602h-1.44v4.18h1.336c1.609 0 2.57-.667 2.57-2.141 0-1.352-.855-2.04-2.466-2.04m10.423-6.27h1.612l4.557 11.653-1.59.341-1.391-3.667h-4.814l-1.315 3.547h-1.684l4.625-11.875zm-1.113 6.906h3.77l-1.885-5.023-1.885 5.023zm17.435 4.967v-5.45h-5.98v5.45h-1.612V26.525h1.612v4.9h5.98v-4.9h1.607v11.82zm11.563-11.822l-4.902 5.311v-5.31h-1.617v11.821h1.617v-5.995l5.463 6.115 1.784-.377-5.5-6.013 5.206-5.552z" fill="#58585B"/><mask id="b" fill="#fff"><use xlink:href="#a"/></mask><path fill="#58585B" mask="url(#b)" d="M304.281 60.276h.998V4.451h-.998z"/></g></svg>