<svg width="122" height="60" xmlns="http://www.w3.org/2000/svg" xmlns:xlink="http://www.w3.org/1999/xlink"><defs><path id="a" d="M0 59.33h121.685V0H0z"/></defs><g fill="none" fill-rule="evenodd"><path fill="#001689" d="M0 59.678h58.948V.348H0z"/><g transform="translate(0 .027)"><path d="M17.896 19.49c.435.967 1.147 1.959 3.096 3.298.432.3.913.923.55 1.8-.37.876-1.055 2.12-.647 2.607.413.484 1.881.737 3.074.255 0 0 .25.758.689 1.244 0 0-.207.418-.894.207 0 0 .25.623-.095 1.293 0 0-.8-.138-1.144-.878 0 0-.323.576-.964.784 0 0-.527-.274-.41-1.34 0 0-.392.949-1.581 1.108 0 0-.69-.875.204-2.051 0 0-.642.577-1.807.3 0 0-.186-.6.867-1.43 0 0-1.192-.047-1.649-1.062 0 0 .504-.624 1.74-.484 0 0-1.144-.255-1.397-1.639 0 0 .825-.53 2.132.323 0 0-.232-.437-.78-.875-.549-.44-1.214-1.662-.984-3.46zm4.797 13.914a3.22 3.22 0 01-.4-.687c.206 1.678.277 2.809 1.178 3.896 0 0 .543-.727.194-2.493a1.737 1.737 0 01-.485-.228s.205.717.075 1.438c0 0-.322-.236-.562-1.926m-1.558-.174a5.321 5.321 0 01-.424-.632c-.074.975-.331 3.538.523 4.342 0 0 .586-.431.79-4.173-.123.21-.34.433-.447.555 0 0 .143 1.187-.28 2.025 0 0-.423-.324-.162-2.117M19.1 35.19c.715-.865.932-3.456.932-3.456.1-.068.198-.14.301-.221.036-.034.078-.067.115-.104 0 .093.004.192.014.29-.104 1.56-.226 3.166-.71 3.966-.474.785-1.347 1.191-1.347 1.191-.815-1.463.17-3.425 1-4.79.1-.038.203-.087.309-.14-.29 1.05-.843 2.3-.614 3.263m-2.028-4.497a1.152 1.152 0 00.088.48c-.685.676-1.192 1.323-2.206 2.74-1.015 1.418-2.623 1.475-2.623 1.475.156-1.149.465-2.056 1.327-3.035.86-.978 1.96-1.873 2.768-2.464a1.52 1.52 0 00.9.102 1.19 1.19 0 00-.207.419c-.614.353-2.39 1.26-3.11 2.723 0 0 1.124-.358 3.063-2.44M15.8 29.263l.065-.122c.026-.04.046-.076.073-.11-.66.257-3.014 1.151-3.775 1.547-.762.4-1.865 1.3-2.463 3.133 0 0 1.588.142 2.898-.948 1.312-1.095 2.84-2.617 3.492-3.1a1.081 1.081 0 01-.151-.17s-1.775 1.58-3.65 2.264c0 0 .4-.734 1.143-1.265.902-.645 1.578-.862 2.368-1.229m-1.348-1.083a3.69 3.69 0 01.08-.179c-.778.158-2.717.393-3.586.659-.866.27-2.434.907-3.365 2.695 0 0 1.366.423 3.943-.796 2.577-1.222 3.386-1.476 3.877-1.607a1.785 1.785 0 01-.813-.252c-1.028.462-2.403 1.006-3.768 1.043 0 0 .671-.478 1.38-.78.766-.32 1.61-.615 2.252-.783m.067-1.284c.251.119.445.178.775.212-.18.118-.35.266-.502.466-.909.264-2.459.551-5.014.737-2.552.183-3.916-.287-3.916-.287.89-.548 2.31-1.104 3.27-1.29.96-.188 3.48-.166 4.585-.318.012.013.146.122.364.254-.93.084-2.91.176-3.93.7 0 0 1.884.251 4.368-.474m-.193-1.479a2.94 2.94 0 01.475-.224c-1.294-.393-3.068-1.024-5.742-1.198-1.959-.13-3.372-.016-4.105.174 0 0 1.786 1.265 3.824 1.71 2.042.448 3.699.166 4.91.177.078-.12.17-.256.312-.391-1.418.009-3.773-.36-4.616-.644 0 0 2.055-.43 4.942.396m-.007-1.53c.007.037.16.77 1.004 1.176-1.816-.8-5.392-1.26-7.316-2.064-2.598-1.088-3.074-2.445-3.074-2.445 2.25-.06 4.068.492 5.47.926 1.641.505 4.14 1.445 5.014 1.838a1.937 1.937 0 00-.99.312c-1.22-.472-1.789-.672-2.897-.984-.877-.247-1.523-.295-2.07-.348 0 0 .77.512 2.038.92 1.257.405 1.801.472 2.821.669m-.136-1.995c.072.129.287.438.372.56-2.871-.484-6.029-2.669-7.005-4.024-.976-1.356-.7-3.377-.7-3.377.947.19 3.005 1.977 3.538 2.516.534.535 2.142 2.113 3.257 2.992l.347 1.017a119.456 119.456 0 00-2.792-2.17c-.544-.412-1.357-.998-2.167-1.275 0 0 .746.976 1.347 1.454.694.552 1.4 1.03 1.98 1.35.515.286.78.447 1.823.957" fill="#FFF"/><path d="M22.28 29.98c.088-.077.165-.152.225-.22.133.167.577.724.797 1.28.163.474.34 1.12.428 1.489.088.367.347 1.137.507 1.4 0 0-.7.088-1.217-.521-.509-.597-.68-1.198-.76-1.814-.067-.483-.042-1.153.02-1.613m-1.102.091c.13.176.255.246.267.254l.096.049.096-.034c.09-.027.168-.059.243-.097.103.285.145.422.169.663.032.322.094.83-.024 1.243-.145.504-.448.813-.613 1.006 0 0-.458-.507-.588-.924-.136-.438-.185-.947-.016-1.469.092-.283.238-.542.37-.691m-1.576.049a2.32 2.32 0 001.089-.43c.06.166.152.389.085.705-.072.317-.289.666-.6.92-.475.378-1.104.735-1.802.627 0 0-.16-.529 1.228-1.822m-.53-.881c.059.469.281.764.296.787-.162.196-.75 1.211-1.976 1.043 0 0-.334-.693.484-1.244.552-.373.817-.45 1.196-.586m.107-.87a2.629 2.629 0 01-1.271-.007l-.142-.034-.044-.138c-.63.517-1.38.605-1.637 1.074 0 0 .315.583 1.133.488a2.73 2.73 0 001.87-1.038 3.19 3.19 0 01.091-.344m-1.413-.728c.114-.174.194-.443.44-.715a4.273 4.273 0 00-1.664.022c-.754.141-1.524.32-1.909 1.478 0 0 .482.414 1.363.235.748-.156 1.397-.478 1.77-1.02m-.322-1.252a1.912 1.912 0 01-.49-.66l-.061-.145c-.654-.268-1.335-.405-2.005-.157-.667.253-.842.54-1.01.792 0 0 .74.623 1.588.644.85.029 1.636-.22 1.978-.474m.198-1.352c.112-.043.238-.083.38-.112a2.331 2.331 0 01-.71-1.233c-.304.071-1.016.071-1.33-.048-.315-.121-.932-.127-1.413.192 0 0 .16.851 1.248 1.141 1.028.272 1.406.202 1.825.06m-.393-1.657l.144-.093c.02-.012.263-.163.679-.196-.35-.262-1.188-.968-1.776-1.307-.648-.364-1.72-.846-2.265-.919 0 0 .512 1.35 1.105 1.897.621.566 1.053.775 2.113.618m1.104-.622c-.264-.341-.469-.812-.62-1.369-.123-.451-.406-1.574-.573-1.864-.167-.292-.77-1.308-1.948-1.626 0 0-.314 1.328.279 2.375.51.905 1.559 1.858 2.862 2.484m6.537 6.164c.145.15.257.23.52.363 0 0 .376.722-.08 1.595-.457.872-.84 1.76-1.023 2.257 0 0-.245-.038-.517-1.402-.183-.925-.416-1.157-.66-1.474.266.134.48.174.498.178l.182.031.082-.163a1.863 1.863 0 00.197-1.1c.424.011.649-.204.737-.313.006-.012.014-.018.018-.028l.046.056" fill="#FFF"/><path d="M14.882 18.457a7.066 7.066 0 00-.004.417l.024.326c-.697-.894-1.528-1.97-2.322-2.964-.545-.68-1.006-1.092-1.516-1.424.427 1.26 1.202 2.267 1.747 2.77.544.5 1.338 1.347 2.108 1.863l.074.256c.06.234.152.475.281.701.178.319.415.633.694.937-.224-.112-.48-.233-.74-.343l-.238-.1c-2.122-1.132-4.222-3.477-5.075-5.109-.854-1.631-.497-3.525-.273-4.539.963.822 2.348 2.438 2.952 3.319.744 1.078 1.698 2.607 2.285 3.852l.003.038m29.739 6.96a2.874 2.874 0 00-.473-.224c1.291-.393 3.068-1.024 5.74-1.198 1.96-.13 3.376-.016 4.107.174 0 0-1.784 1.265-3.826 1.71-2.04.448-3.697.166-4.908.177a2.105 2.105 0 00-.313-.391c1.418.009 3.776-.36 4.617-.644 0 0-2.055-.43-4.944.396m.007-1.53c-.007.037-.159.77-1.004 1.176 1.816-.8 5.395-1.26 7.316-2.064 2.6-1.088 3.075-2.445 3.075-2.445-2.25-.06-4.068.492-5.47.926-1.64.505-4.14 1.445-5.016 1.838.33.012.687.109.992.312 1.221-.472 1.789-.672 2.899-.984.874-.247 1.52-.295 2.068-.348 0 0-.769.512-2.038.92-1.259.405-1.802.472-2.822.669m.137-1.995c-.07.129-.287.438-.372.56 2.872-.484 6.03-2.669 7.005-4.024.98-1.356.701-3.377.701-3.377-.949.19-3.006 1.977-3.539 2.516-.533.535-2.142 2.113-3.258 2.992l-.347 1.017c.954-.774 2.087-1.635 2.795-2.17.542-.412 1.355-.998 2.164-1.275 0 0-.744.976-1.346 1.454a14.707 14.707 0 01-1.98 1.35c-.514.286-.778.447-1.823.957m-.697-3.435c.004.129.007.268.001.417l-.024.326c.696-.894 1.53-1.97 2.324-2.964.545-.68 1.007-1.092 1.517-1.424-.432 1.26-1.202 2.267-1.75 2.77-.544.5-1.333 1.347-2.105 1.863l-.076.256c-.06.234-.15.475-.28.701-.18.319-.413.633-.695.937.224-.112.48-.233.74-.343l.238-.1c2.122-1.132 4.225-3.477 5.075-5.109.85-1.631.5-3.525.273-4.539-.963.822-2.349 2.438-2.954 3.319-.743 1.078-1.694 2.607-2.284 3.852v.038M17.59 31.344c-.874.88-2.716 2.853-2.545 4.994 0 0 1.714-.538 2.417-1.802.707-1.261 1.142-2.053 1.437-2.337-.19.024-.38.024-.565-.007l-.154-.024c-.435.797-1.296 2.098-2.07 2.553 0 0-.199-1.055 2.079-3.195.031-.087.078-.189.142-.299-.208.077-.446.12-.712.115M41.052 19.49c-.435.967-1.15 1.959-3.092 3.298-.437.3-.917.923-.551 1.8.365.876 1.055 2.12.64 2.607-.41.484-1.877.737-3.071.255 0 0-.25.758-.685 1.244 0 0 .204.418.894.207 0 0-.252.623.09 1.293 0 0 .803-.138 1.144-.878 0 0 .322.576.966.784 0 0 .529-.274.412-1.34 0 0 .388.949 1.582 1.108 0 0 .688-.875-.209-2.051 0 0 .643.577 1.812.3 0 0 .183-.6-.874-1.43 0 0 1.196-.047 1.655-1.062 0 0-.505-.624-1.742-.484 0 0 1.144-.255 1.396-1.639 0 0-.825-.53-2.13.323 0 0 .228-.437.777-.875.551-.44 1.217-1.662.986-3.46m-4.796 13.914a3.64 3.64 0 00.401-.687c-.205 1.678-.28 2.809-1.18 3.896 0 0-.542-.727-.195-2.493.154-.044.322-.117.488-.228 0 0-.207.717-.08 1.438 0 0 .33-.236.566-1.926m1.558-.174c.108-.137.317-.426.424-.632.074.975.329 3.538-.525 4.342 0 0-.585-.431-.792-4.173.125.21.342.433.446.555 0 0-.14 1.187.283 2.025 0 0 .424-.324.164-2.117m2.036 1.96c-.72-.865-.935-3.456-.935-3.456a3.687 3.687 0 01-.416-.325c0 .093-.003.192-.011.29.1 1.56.227 3.166.708 3.966.474.785 1.344 1.191 1.344 1.191.819-1.463-.17-3.425-.996-4.79a2.864 2.864 0 01-.307-.14c.288 1.05.84 2.3.613 3.263m2.023-4.497a1.09 1.09 0 01-.047.373 1.642 1.642 0 01-.036.107c.681.676 1.19 1.323 2.204 2.74 1.015 1.418 2.622 1.475 2.622 1.475-.153-1.149-.464-2.056-1.325-3.035-.86-.978-1.958-1.873-2.768-2.464a1.52 1.52 0 01-.821.114.422.422 0 01-.08-.012c.107.144.172.287.208.419.612.353 2.393 1.26 3.11 2.723 0 0-1.125-.358-3.067-2.44m1.277-1.429l-.068-.122a.977.977 0 00-.07-.11c.66.257 3.014 1.151 3.774 1.547.761.4 1.861 1.3 2.459 3.133 0 0-1.585.142-2.897-.948-1.31-1.095-2.84-2.617-3.49-3.1.066-.061.115-.12.153-.17 0 0 1.774 1.58 3.647 2.264 0 0-.4-.734-1.138-1.265-.906-.645-1.58-.862-2.37-1.229m1.343-1.083a1.832 1.832 0 00-.077-.179c.777.158 2.719.393 3.587.659.864.27 2.434.907 3.364 2.695 0 0-1.365.423-3.945-.796-2.578-1.222-3.382-1.476-3.874-1.607.39-.029.668-.162.813-.252 1.028.462 2.404 1.006 3.768 1.043 0 0-.675-.478-1.38-.78a18.45 18.45 0 00-2.256-.783m-.062-1.284a2.14 2.14 0 01-.776.212c.18.118.351.266.505.466.908.264 2.453.551 5.01.737 2.554.183 3.915-.287 3.915-.287-.889-.548-2.306-1.104-3.266-1.29-.962-.188-3.483-.166-4.589-.318a2.994 2.994 0 01-.363.254c.931.084 2.91.176 3.932.7 0 0-1.885.251-4.368-.474" fill="#FFF"/><path d="M36.667 29.98a5.015 5.015 0 01-.228-.22c-.13.167-.573.724-.79 1.28-.166.474-.343 1.12-.429 1.489-.09.367-.352 1.137-.51 1.4 0 0 .7.088 1.218-.521.51-.597.68-1.198.763-1.814a6.882 6.882 0 00-.024-1.613m1.1.091c-.129.176-.252.246-.265.254l-.093.049-.101-.034a1.595 1.595 0 01-.24-.097 2.49 2.49 0 00-.168.663c-.035.322-.096.83.021 1.243.148.504.446.813.614 1.006 0 0 .458-.507.59-.924.135-.438.184-.947.018-1.469a2.125 2.125 0 00-.376-.691m1.58.049a2.33 2.33 0 01-1.09-.43c-.058.166-.152.389-.082.705.067.317.285.666.602.92.468.378 1.1.735 1.799.627 0 0 .16-.529-1.229-1.822m.526-.881a1.673 1.673 0 01-.296.787c.163.196.751 1.211 1.984 1.043 0 0 .328-.693-.486-1.244-.558-.373-.82-.45-1.202-.586m-.107-.87a2.65 2.65 0 001.276-.007l.142-.034.04-.138c.632.517 1.381.605 1.639 1.074 0 0-.315.583-1.132.488a2.733 2.733 0 01-1.872-1.038 2.211 2.211 0 00-.093-.344m1.418-.728c-.117-.174-.2-.443-.442-.715a4.278 4.278 0 011.664.022c.754.141 1.524.32 1.91 1.478 0 0-.487.414-1.367.235-.744-.156-1.394-.478-1.765-1.02m.32-1.252a1.94 1.94 0 00.49-.66l.061-.145c.656-.268 1.338-.405 2.002-.157.67.253.844.54 1.016.792 0 0-.74.623-1.592.644-.85.029-1.636-.22-1.978-.474m-.197-1.352a2.46 2.46 0 00-.383-.112c.291-.256.576-.649.714-1.233.304.071 1.017.071 1.331-.048.314-.121.93-.127 1.412.192 0 0-.157.851-1.25 1.141-1.03.272-1.407.202-1.824.06m.391-1.657l-.142-.093c-.02-.012-.264-.163-.683-.196.354-.262 1.187-.968 1.782-1.307.646-.364 1.716-.846 2.266-.919 0 0-.514 1.35-1.11 1.897-.618.566-1.051.775-2.113.618m-1.103-.622c.264-.341.469-.812.62-1.369.126-.451.408-1.574.576-1.864.169-.292.77-1.308 1.948-1.626 0 0 .314 1.328-.28 2.375-.512.905-1.558 1.858-2.864 2.484m-6.532 6.164a1.8 1.8 0 01-.524.363s-.378.722.08 1.595c.454.872.838 1.76 1.024 2.257 0 0 .244-.038.515-1.402.185-.925.418-1.157.659-1.474-.265.134-.476.174-.495.178l-.181.031-.084-.163a1.829 1.829 0 01-.21-.868c0-.082.004-.16.013-.231-.424.01-.65-.205-.734-.314-.01-.012-.017-.018-.022-.028l-.041.056" fill="#FFF"/><path d="M41.359 31.344c.873.88 2.716 2.853 2.541 4.994 0 0-1.712-.538-2.414-1.802-.707-1.261-1.14-2.053-1.437-2.337.188.024.378.024.565-.007l.157-.024c.433.797 1.294 2.098 2.069 2.553 0 0 .196-1.055-2.08-3.195a2 2 0 00-.143-.299c.207.077.446.12.711.115M28.137 14.267c0-.158.6-.288 1.337-.288.74 0 1.337.13 1.337.288 0 .157-.598.286-1.337.286-.738 0-1.337-.13-1.337-.286m1.598.63a.262.262 0 01-.261.265.266.266 0 01-.265-.264c0-.146.12-.264.265-.264a.26.26 0 01.26.264m-1.693-.911c-.443-1.067-.742-1.856-.73-2.119.007-.158.196-.277.375-.332.175-.056.332-.067.45.024.233.179.446 1.62.527 2.218-.224.043-.36.072-.622.209m.813-.231c.111-.015.228-.02.345-.025a15.106 15.106 0 00-.382-1.9c-.117-.377-.264-.647-.51-.715 0 0 .19.524.296 1.065.104.542.183 1.059.25 1.575m-1.407 1.91c.49-.116.993-.644.993-.644-.793.115-.993.644-.993.644m.735-.047c-.685.4-1.45.34-1.45.34.148-.274.287-.527.715-.834.428-.308 1.126-.385 1.4-.347-.061.205-.34.648-.665.84m-2.554 1.132v-.055c-.672.086-1.464.051-1.464.051.04.251.144.442.321.559.043-.55 1.143-.555 1.143-.555m-2.231-.725s.85.317 1.702.277c.848-.044 2.416-.061 2.92-.31 0 0-.081.322-.486.507 0 0 .213 0 .42.184 0 0-.121.265-.483.406 0 0 .649.676 1.343.628 0 0-.32.4-1.03.246-.71-.154-.938-.554-1.058-.708 0 0 .092.383.048.537 0 0-.312-.019-.555-.327 0 0 .177.308.214.568 0 0-.196.022-.547-.186 0 0 .073.192.087.412 0 0-.821-.264-1.219-.64 0 0-.005.26.015.406 0 0-1.273-.13-1.371-2m-.197.13c.032.405.135.804.276 1.087 0 0-.501-.378-.623-.7-.125-.32-.155-.541.347-.387m-1.006 1.538a.21.21 0 100-.42.207.207 0 00-.204.211c0 .117.092.21.205.21m1.227-.247c.335.154.634.519.634.519-.508.117-.733.263-.733.263a1.438 1.438 0 00-1.775.004c-.527-.298-.628-1.032-.365-1.42.263-.39.857-.32 1.138-.253.179.568.799.75 1.1.887m.746.645s.353.476.613.685c0 0-1.31-.012-1.64 1.129 0 0-.453-.7-.122-1.155.357-.49.684-.55 1.149-.659" fill="#FFF"/><path d="M25.602 18.376s.423.125.565.162c0 0 .004-.246-.004-.365.127.031.285.072.421.086 0 0 .421.948.752 1.33 0 0 .019.21-.165.53 0 0-.24-.56-.669-1.01-.242-.252-.397-.381-.9-.733m-1.112-.203c.137.037.813.25 1.137.488.411.294.693.633.648 1.217 0 0-.33-.463-.695-.671-.289-.167-.813-.627-1.09-1.034m.01-4.289c.124 0 .365.06.365.261 0 .205-.311.693-.396.91h-.008c-.083-.217-.399-.705-.399-.91 0-.2.245-.26.369-.26h.068m-.274 1.575c-.058-.284-.17-1.022-.343-1.184-.165-.157-.41-.172-.53-.165a.229.229 0 00-.201.299c.048.17.59.987.661 1.09.126-.022.102-.014.413-.04m.48 0c.062-.284.171-1.022.345-1.184.164-.157.41-.172.53-.165a.232.232 0 01.205.299c-.053.17-.595.987-.667 1.09-.124-.022-.1-.014-.412-.04m.35-2.567h-.424v-.469h-.34v.47h-.427v.296h.426v.551h.34v-.55h.424zm-5.122 3.035c0-.093.004-.183.018-.272a2.06 2.06 0 00.01-.588c-.305.118-.51.192-.93.873 0 0 .669-.414.902-.013m.583 1.077c.009-.168.12-.703.26-1.076.17-.465.07-1.134-.136-1.542-.198-.392-.306-.76-.273-1.167 0 0-.392.133-.621.274-.036.472.237.944.367 1.212.154.317.122.73.088.984-.06.43.028.886.315 1.315m.044-3.605a.523.523 0 01.013-.262s.624-.61 1.148-.714c.33-.07.532.079.632.16 0 0-.183-.02-.463.21-.28.227-.628.501-.888.57-.261.07-.315.05-.442.036m1.845-.77c.232.236.432.486.426.702-.003.224-.262.787-.396 1-.136.214-.335.495-.313.836.013.17.13.344.27.489 0 0-.763-.182-.858-.656-.08-.425.1-.72.223-.955.113-.222.464-.736.554-.95.08-.195.124-.357.094-.465m4.455 5.34c.15.544.41 1.054.666 1.454.23.367.376.959.355 1.16 0 0 .344-.765.17-1.305-.14-.42-.509-1.047-1.191-1.31m.858.179s.524.01.768.172c.314.208.612.665.729 1.212 0 0-.53-.093-.79-.354-.262-.263-.584-.656-.707-1.03m-2.707.952c-.1.007-.369.07-.5.11 0 0 .445.13.668.316.191.157.355.4.43.81.109.573.442 1.19.542 1.375l.041-.007c-.06-.395.182-1.213.248-1.332 0 0-.355-.222-.518-.454-.12-.17-.328-.454-.91-.818m2.317 1.23c.129.3.475.834.313 1.39-.16.556-.523.795-.745 1.268 0 0-.174-.853-.138-1.51.04-.657.278-.91.57-1.148m1.004.022s.52 1.015.614 1.412c.09.394.006.657-.172.898-.173.237-.474.495-.751.996 0 0-.321-.427-.359-.65-.037-.223.023-.756.093-.978.068-.227.342-.945.575-1.678m.266 3.24c-.113.124-.72.859-.802 1.073-.082.213-.223.619-.036.902.19.283.625.73 1 .92 0 0-.41-.644-.366-1.173.024-.339.285-.64.335-.847.05-.204.018-.553-.131-.876m-1.19-.405c.094.13.256.447.279.755.022.303-.027.547-.192.992-.206.562-.53 1.187-.68 1.47 0 0-.285-.412-.443-.779 0 0 .446-.616.638-1.05.219-.512.31-.985.398-1.388m-.205-.237s-.194 1.445-1.038 2.517c-.572.726-1.036.98-1.345.98-.463 0-.93-.39-1.084-.836-.158-.443-.107-1.135.194-1.38 0 0 .276.867.871.898.673.039 1.536-.72 2.402-2.18" fill="#FFF"/><path d="M26.511 22.346c.07.258.093.654 0 1.028-.07.285-.241.654-.572.863-.285.18-.962.222-1.216-.418 0 0 1.23.093 1.788-1.473m2.012 5.825c.168.435.768.984.767 1.324-.01.897-.402 1.447-.494 1.743 0 0-.715-.57-.842-1.224-.065-.336.01-1.345.57-1.843m-.801.636c.082-.234.347-.87.65-1.09 0 0 .389-1.152-.862-1.863 0 0-.515.687-.65 1.333-.137.65.543 1.037.862 1.62m-1.565-2.912c-.2.247-.486.584-.706.69 0 0-.075.514-.034.857.067.508.388 1.026.528 1.405 0 0 .547-.719.61-1.141.062-.424.054-.771.075-.975 0 0-.305-.498-.473-.836m-1.445 2.472c-.155-.24-.653-1.11-.66-1.745 0 0 .616.33 1.133.087 0 0 .066.826-.031 1.105-.084.226-.19.361-.442.553m.144.175c.1-.089.346-.317.45-.436 0 0 .408.754.478.975 0 0-.205.054-.431-.11a3.354 3.354 0 01-.497-.43m1.896-.442c-.049.19-.711 1.116-.825 1.23 0 0 .049.334.296.817.244.48.585.819.767.989 0 0 .411-.717.532-1.03.135-.362.12-.717.063-.85-.14-.313-.62-.765-.833-1.156m.995 2.422c.146.296.587.785.656 1.172.055.302.007.55-.076.763-.083.204-.346.613-.523.924 0 0-.605-.575-.737-.984a1.452 1.452 0 01.082-1.02c.144-.274.46-.571.598-.855m-1.71-.084c.155.346.53.688.615.989.1.357.133.581-.038.997-.152.362-.336.575-.397.797 0 0-.49-.64-.574-.906-.08-.266-.107-.704-.005-.98.098-.282.277-.642.4-.897m2.416 2.436s-.846 1.027-.826 1.572c.026.677.473 1.13.535 1.546 0 0 .442-.504.612-.843.19-.38.333-.703.287-1.135-.054-.432-.166-.707-.608-1.14m-1.557-.1c.134.196.51.868.404 1.265-.106.402-.522.964-.663 1.204 0 0-.333-.69-.41-1.007-.074-.313-.005-.83.669-1.463m2.584-19.617c.058-.386.502-1.216.502-1.577a.512.512 0 10-1.023 0c0 .361.449 1.191.504 1.577h.017m1.425.832c.446-1.067.741-1.856.73-2.119-.007-.158-.196-.277-.371-.332-.18-.056-.339-.067-.455.024-.23.179-.448 1.62-.527 2.218.228.043.363.072.623.209m-.813-.231c-.112-.015-.228-.02-.343-.025.07-.572.266-1.526.382-1.9.114-.377.26-.647.509-.715 0 0-.192.524-.296 1.065a27.848 27.848 0 00-.252 1.575m.418 1.266s.499.528.992.644c0 0-.202-.53-.992-.644m-.41-.244c.276-.038.973.039 1.402.347.429.307.567.56.714.834 0 0-.766.06-1.45-.34-.324-.193-.603-.636-.666-.841m4.361 2.527c.179-.117.28-.308.324-.56 0 0-.794.036-1.47-.05v.055s1.104.006 1.146.555m-.28.72c.019-.147.012-.406.012-.406-.399.376-1.217.64-1.217.64.012-.22.082-.412.082-.412-.347.208-.542.186-.542.186.036-.26.214-.568.214-.568-.245.308-.557.327-.557.327-.043-.154.05-.537.05-.537-.121.154-.347.554-1.06.708-.712.155-1.028-.246-1.028-.246.693.048 1.34-.628 1.34-.628-.36-.14-.481-.406-.481-.406.21-.184.421-.184.421-.184-.406-.185-.49-.506-.49-.506.509.248 2.074.266 2.926.31.85.04 1.697-.278 1.697-.278-.096 1.87-1.368 2-1.368 2m1.567-1.87a3.127 3.127 0 01-.275 1.087s.502-.378.622-.7c.122-.32.154-.541-.347-.387m1.212 1.329a.211.211 0 00-.21-.21.21.21 0 000 .42.21.21 0 00.21-.21m-.333-.924c.282-.068.875-.136 1.137.253.266.388.162 1.122-.365 1.42 0 0-.803-.695-1.774-.004 0 0-.228-.146-.735-.263 0 0 .3-.365.637-.519.299-.137.922-.32 1.1-.887m-1.846 1.532s-.352.476-.612.685c0 0 1.309-.012 1.64 1.129 0 0 .453-.7.12-1.155-.355-.49-.682-.55-1.148-.659" fill="#FFF"/><path d="M33.345 18.376s-.423.125-.564.162c0 0-.007-.246.007-.365-.128.031-.285.072-.422.086 0 0-.424.948-.752 1.33 0 0-.02.21.164.53 0 0 .239-.56.666-1.01.244-.252.398-.381.901-.733m1.11-.203c-.131.037-.808.25-1.137.488-.408.294-.689.633-.646 1.217 0 0 .332-.463.696-.671.291-.167.814-.627 1.088-1.034m-.009-4.289c-.123 0-.366.06-.366.261 0 .205.314.693.397.91h.008c.083-.217.398-.705.398-.91 0-.2-.242-.26-.368-.26h-.069m.277 1.575c.058-.284.167-1.022.343-1.184.165-.157.41-.172.532-.165a.225.225 0 01.198.299c-.048.17-.591.987-.664 1.09-.125-.022-.1-.014-.409-.04m-.482 0c-.06-.284-.17-1.022-.345-1.184-.166-.157-.411-.172-.532-.165a.229.229 0 00-.199.299c.049.17.59.987.663 1.09.126-.022.1-.014.413-.04m-.346-2.567h.42v-.469h.34v.47h.425v.296h-.425v.551h-.34v-.55h-.42zM28.88 10.11h.42v-.47h.345v.47h.423v.295h-.423v.554H29.3v-.554h-.42zm10.137 5.82a3.46 3.46 0 00-.021-.273 2.177 2.177 0 01-.012-.588c.306.118.511.192.931.873 0 0-.668-.414-.898-.013" fill="#FFF"/><path d="M38.43 17.005a5.228 5.228 0 00-.255-1.076c-.172-.465-.075-1.134.13-1.542.199-.392.31-.76.273-1.167 0 0 .395.133.622.274.038.472-.234.944-.364 1.212-.156.317-.125.73-.09.984.06.43-.032.886-.316 1.315m-.04-3.605a.582.582 0 00-.017-.262s-.62-.61-1.145-.714a.71.71 0 00-.635.16s.186-.02.465.21c.279.227.625.501.888.57.262.07.32.05.444.036m-1.848-.77c-.232.236-.43.486-.425.702.003.224.261.787.397 1 .136.214.334.495.31.836-.012.17-.13.344-.266.489 0 0 .762-.182.853-.656.084-.425-.094-.72-.218-.955-.114-.222-.467-.736-.555-.95-.08-.195-.124-.357-.095-.465m-4.454 5.34a5.654 5.654 0 01-.667 1.454c-.232.367-.378.959-.351 1.16 0 0-.347-.765-.17-1.305.134-.42.503-1.047 1.188-1.31m-.86.179s-.522.01-.765.172c-.316.208-.618.665-.732 1.212 0 0 .53-.093.792-.354.262-.263.582-.656.704-1.03m2.71.952c.1.007.367.07.498.11 0 0-.446.13-.666.316-.19.157-.358.4-.432.81-.106.573-.443 1.19-.543 1.375l-.037-.007c.06-.395-.185-1.213-.247-1.332 0 0 .354-.222.514-.454.118-.17.33-.454.912-.818m-2.318 1.23c-.127.3-.474.834-.315 1.39.163.556.526.795.746 1.268 0 0 .177-.853.138-1.51-.04-.657-.275-.91-.57-1.148m-2.137 1.557c.025-.327.774-1.111.736-1.535-.039-.427-.6-.725-.739-.788h-.007c-.137.063-.699.361-.739.788-.04.424.712 1.208.734 1.535h.015m1.134-1.535s-.52 1.015-.615 1.412c-.091.394-.006.657.172.898.175.237.473.495.753.996 0 0 .319-.427.36-.65.038-.223-.025-.756-.095-.978-.068-.227-.345-.945-.575-1.678m-1.134 3.925c.236-.206.448-.513.516-.695.065-.18.082-.445-.076-.65-.189-.241-.425-.514-.44-.735h-.012c-.018.221-.252.494-.442.736-.158.204-.141.468-.072.65.065.181.278.488.516.694h.01m.869-.686c.114.125.721.86.803 1.074.082.213.221.619.033.902-.19.283-.621.73-1.001.92 0 0 .41-.644.369-1.173-.027-.339-.288-.64-.337-.847-.047-.204-.014-.553.133-.876m1.188-.405c-.094.13-.255.447-.28.755-.02.303.029.547.195.992.208.562.529 1.187.677 1.47 0 0 .286-.412.444-.779 0 0-.445-.616-.636-1.05-.221-.512-.31-.985-.4-1.388m.208-.237s.192 1.445 1.036 2.517c.571.726 1.037.98 1.344.98.463 0 .93-.39 1.087-.836.154-.443.106-1.135-.194-1.38 0 0-.278.867-.873.898-.67.039-1.535-.72-2.4-2.18" fill="#FFF"/><path d="M32.436 22.346c-.07.258-.091.654 0 1.028.071.285.244.654.574.863.286.18.957.222 1.215-.418 0 0-1.23.093-1.789-1.473m-2.962 4.29c.174-.085.32-.147.523-.454.153-.24.302-.687.22-1.005-.106-.393-.315-.55-.443-.795-.103.098-.167.174-.294.247h-.006c-.129-.073-.194-.15-.3-.247-.13.246-.336.402-.443.795-.082.318.065.764.22 1.005.2.307.349.37.523.454m0 2.437c.083-.384.881-1.123.806-1.527-.11-.602-.496-.475-.8-.729h-.006c-.308.254-.698.127-.809.73-.07.403.722 1.142.805 1.526h.004m.952-.902c-.168.435-.771.984-.766 1.324.01.897.399 1.447.493 1.743 0 0 .715-.57.84-1.224.067-.336-.01-1.345-.567-1.843m.797.636c-.082-.234-.344-.87-.65-1.09 0 0-.389-1.152.863-1.863 0 0 .514.687.652 1.333.136.65-.546 1.037-.865 1.62m1.57-2.912c.199.247.48.584.704.69 0 0 .072.514.033.857-.067.508-.39 1.026-.526 1.405 0 0-.549-.719-.614-1.141-.065-.424-.05-.771-.07-.975 0 0 .301-.498.473-.836m1.44 2.472c.155-.24.658-1.11.664-1.745 0 0-.618.33-1.136.087 0 0-.066.826.035 1.105.08.226.187.361.436.553m-.142.175a5.313 5.313 0 01-.445-.436s-.412.754-.48.975c0 0 .203.054.428-.11.225-.165.274-.21.497-.43m-1.896-.442c.05.19.711 1.116.825 1.23 0 0-.053.334-.298.817-.243.48-.582.819-.766.989 0 0-.408-.717-.53-1.03-.139-.362-.122-.717-.06-.85.135-.313.616-.765.829-1.156m-2.714 5.476c.062-.253.445-.555.602-.996.095-.26.092-.563-.01-.771-.12-.244-.55-.838-.598-1.009-.054.17-.477.765-.6 1.009-.103.208-.105.512-.012.771.16.441.543.743.606.996h.012m1.719-3.054c-.144.296-.585.785-.655 1.172a1.41 1.41 0 00.073.763c.083.204.352.613.526.924 0 0 .603-.575.736-.984a1.44 1.44 0 00-.083-1.02c-.144-.274-.458-.571-.597-.855m1.714-.084c-.157.346-.533.688-.618.989-.101.357-.133.581.037.997.155.362.334.575.399.797 0 0 .49-.64.57-.906.086-.266.108-.704.01-.98-.102-.282-.279-.642-.398-.897m-3.439 8.046c.031-.312.674-1.28.703-2.307.016-.515-.438-1.317-.697-1.624h-.015c-.256.307-.711 1.11-.696 1.624.031 1.026.672 1.995.705 2.307m1.021-5.61s.845 1.027.826 1.572c-.025.677-.477 1.13-.536 1.546 0 0-.444-.504-.612-.843-.19-.38-.335-.703-.281-1.135.047-.432.158-.707.603-1.14m1.554-.1c-.135.196-.508.868-.403 1.265.11.402.524.964.662 1.204 0 0 .333-.69.41-1.007.075-.313.003-.83-.669-1.463" fill="#FFF"/><path d="M30.05 40.13c.052-.797.503-1.276.58-1.69.09-.457.06-.894-.292-1.42a13.033 13.033 0 01-.845 2.191c-.009.012-.013.028-.019.042-.007-.014-.01-.03-.02-.042a12.94 12.94 0 01-.842-2.192c-.352.527-.383.964-.296 1.421.08.414.53.893.58 1.69.05.8-.843 1.104-.843 1.104.3.11.644.16 1.19-.361.1-.094.174-.198.231-.308.058.11.133.214.232.308.542.52.889.471 1.19.36 0 .001-.895-.303-.846-1.103m-2.81-5.31c.092.3.37.852.406 1.02.067.317-.024.7-.597 1.107 0 0-.371-.262-.519-.604-.136-.323-.057-.552.085-.717.144-.166.482-.554.624-.806m1.205 1.183c0 .16-.118 1.064-.372 1.515-.359.63-.886 1.096-1.347 1.096-.426 0-.518-.257-.728-.36 0 0 .107-.548.587-.69.59-.179 1.494-.89 1.86-1.561" fill="#FFF"/><path d="M26.904 37.155c-.098-.078-.185-.128-.303-.267 0 0-.454.168-.829.422-.375.254-.743.687-.94.912 0 0 .56.145.917-.018 0 0 .128-.54.529-.782.088-.051.368-.135.626-.267m-.463-.462c-.09-.136-.268-.387-.23-.781 0 0-.79.506-1.02.693-.24.197-.734.708-.844.877 0 0 .598-.133 1.057-.288.501-.167.848-.392 1.037-.501m-1.338.857c-.424.155-1.382.308-1.78.428-.4.12-.69.327-1.072.746 0 0 .587.166.901.264 0 0 .498-.34 1.044-.552.357-.138.53-.512.907-.886m-.89 2.84c.092-.103.208-.22.119-.458-.062-.177-.409-.367-.615-.468-.343-.165-1.294-.422-1.606-.514 0 0-.155.182-.235.374-.036.074.011.151.146.175.265.046.9-.074 1.058.028.164.11.104.256.104.405 0 0 .292-.182.474-.14.256.054.41.176.555.598m-.846-1.333c.068.024.44.137.801.367 0 0 .16-.062.24-.21.076-.142.4-.626.701-.69 0 0-.255-.025-.402-.072 0 0-.308.08-.527.17a4.97 4.97 0 00-.813.435m2.453-.611c-.057.027-.155.075-.378.085 0 0-.835.582-.933 1.166-.082.496.178.735.303.796.125.066.71.307 1.09-.482 0 0-.648.214-.824-.098-.175-.315.112-.77.288-.901.229-.176.645-.291.895-.248 0 0-.202-.194-.441-.318" fill="#FFF"/><path d="M20.345 45.125c.101-.43.215-.878.409-1.292.378-.806 1.304-2.948 3.235-3.328.182-.034-.209-.488-.38-.463-.175.019-.519.245-.67.348 0 0 0-.458-.006-.541-.004-.086-.077-.111-.152-.11-.075.002-.54-.001-.69.168-.44.514-1.183 1.894-1.604 2.92-.422 1.027-.708 1.344-1.153 1.185-.444-.158-.71-.671-1.484-.516-.269.056-.568.237-.8.504.064.126.147.279.51.279.361 0 1.051.152 1.437.424.388.272.793.36 1.348.422m7.711-6.646c.044.333.204.644.38.966 0 0-.59 2.73-2.713 2.942 0 0 .041-.565.67-.997.63-.43 1.571-1.101 1.504-2.116 0 0-.168.035-.47.416-.302.38-.965 1.479-1.993 1.487 0 0 .154-.514.608-.811.455-.296 1.032-.676 1.294-1.135.262-.456.538-.667.72-.752m-1.002 9.95l1.294 1.823.98-1.756-.346-.625c-.257.46-.531.958-.687 1.231-.121-.167-.448-.629-.876-1.231l-.365.557" fill="#FFF"/><path d="M26.724 46.884c-1.263-1.777-2.82-3.977-2.979-4.2l.489-.354-1.541-.595.027 1.693.521-.379 3.116 4.395.367-.56m-10.64-9.985c.379-.417 1.023-.055 1.674.548.655.604 1.064 1.222.686 1.639-.355.387-1.025.056-1.682-.545-.653-.605-1.064-1.224-.679-1.642" fill="#FFF"/><path d="M17.134 44.324a.707.707 0 01-.062-.052c-.346-.304-.543-.776-.543-1.29 0-.987.796-1.791 1.78-1.791.98 0 1.775.804 1.775 1.791 0 .134-.025.352-.025.352.081-.152.373-.836.432-.963a2.274 2.274 0 00-2.183-1.668c-.895 0-1.67.523-2.039 1.283.139-.905.586-1.717.902-2.017.38-.359 1.023-.475 1.023-.475-.423.07-.98-.192-1.602-.77-.592-.544-.894-1.021-.913-1.42.036.563.02.879-.14 1.336-.214.623-.8 1.774-.59 3.074.114.714.628 1.775 1.488 2.643.183.194.25.483.273.631 0 0 1.266 0 1.566.03 0 0 .302-.03.297-.217-.003-.19-.17-.238-.322-.238-.15 0-.78.016-1.117-.239m7.009.435c-.816.294-1.63.454-2.4.573a7.317 7.317 0 01-1.465.08.444.444 0 01-.038.258s.096.112.096.235c.477.018.974-.01 1.48-.09.846-.13 1.73-.3 2.623-.64l-.296-.416m1.334-.064c1.083-.592 2.137-1.511 3.09-2.976l.17-.287c-.261.117-.593.032-.593.032-.02.026-.06.092-.08.131-.888 1.318-1.871 2.148-2.874 2.692l.287.408m-7.128.468c-.149-.025-.624-.011-.908.03-.313.051-.667.114-.705.288-.034.165.078.339.236.588.097.154.33.065.458.017.128-.047.86-.442.975-.57.12-.131.168-.315-.056-.353m.744.485a.546.546 0 00-.466-.048c-.2.074-.92.501-.966.704-.05.2.05.298.161.344.111.045.246.088.347.098a.561.561 0 00.449-.205c.091-.115.43-.524.475-.618.049-.09.075-.224 0-.275m.089.45a8.532 8.532 0 00-.431.533c-.033.058.018.15.11.139.089-.01.587-.06.872-.255.284-.197.475-.576.278-.712-.196-.137-.502-.073-.83.295m.162-1.088c-.096-.022-.472-.116-.55.008-.104.154-.032.32.26.463.29.138.838.251.95.101.104-.155-.045-.41-.66-.572m12.365-10.19c-.094.3-.371.852-.409 1.02-.065.317.023.7.598 1.107 0 0 .37-.262.518-.604.139-.323.06-.552-.084-.717-.144-.166-.479-.554-.623-.806M30.5 36.003c0 .16.117 1.064.375 1.515.359.63.885 1.096 1.346 1.096.428 0 .52-.257.728-.36 0 0-.107-.548-.589-.69-.587-.179-1.492-.89-1.86-1.561" fill="#FFF"/><path d="M32.043 37.155c.099-.078.181-.128.3-.267 0 0 .458.168.833.422.372.254.737.687.94.912 0 0-.563.145-.92-.018 0 0-.129-.54-.53-.782-.085-.051-.365-.135-.623-.267m.464-.462c.088-.136.267-.387.226-.781 0 0 .788.506 1.025.693.239.197.731.708.842.877 0 0-.599-.133-1.057-.288-.502-.167-.849-.392-1.036-.501m1.337.857c.426.155 1.377.308 1.78.428.4.12.691.327 1.073.746 0 0-.59.166-.9.264 0 0-.5-.34-1.048-.552-.354-.138-.53-.512-.905-.886m.889 2.84c-.091-.103-.207-.22-.12-.458.063-.177.41-.367.62-.468.343-.165 1.293-.422 1.602-.514 0 0 .154.182.237.374.035.074-.015.151-.145.175-.267.046-.903-.074-1.06.028-.166.11-.107.256-.107.405 0 0-.288-.182-.476-.14-.25.054-.408.176-.551.598m.846-1.333c-.07.024-.44.137-.8.367 0 0-.16-.062-.24-.21-.076-.142-.402-.626-.701-.69 0 0 .254-.025.399-.072 0 0 .31.08.532.17.219.09.492.226.81.435m-2.455-.611c.058.027.156.075.377.085 0 0 .838.582.934 1.166.088.496-.174.735-.301.796-.127.066-.71.307-1.089-.482 0 0 .646.214.823-.098.175-.315-.11-.77-.285-.901-.231-.176-.646-.291-.9-.248 0 0 .202-.194.441-.318" fill="#FFF"/><path d="M38.601 45.125c-.102-.43-.212-.878-.408-1.292-.376-.806-1.303-2.948-3.238-3.328-.18-.034.208-.488.386-.463.172.019.516.245.67.348 0 0 0-.458.003-.541.005-.086.076-.111.15-.11.075.002.542-.001.688.168.443.514 1.186 1.894 1.608 2.92.422 1.027.71 1.344 1.151 1.185.446-.158.715-.671 1.486-.516.27.056.566.237.803.504-.067.126-.151.279-.51.279-.366 0-1.057.152-1.44.424-.388.272-.792.36-1.349.422m-7.714-6.646c-.04.333-.201.644-.375.966 0 0 .588 2.73 2.715 2.942 0 0-.045-.565-.673-.997-.632-.43-1.573-1.101-1.505-2.116 0 0 .168.035.469.416.306.38.969 1.479 1.993 1.487 0 0-.15-.514-.606-.811-.454-.296-1.034-.676-1.295-1.135-.26-.456-.535-.667-.723-.752m-1.41 2.65c.126.361.928 1.506 1.28 1.83.354.327 1.211 1.191 1.67 1.623 0 0-1.306-.326-2.041-.997 0 0-.523.305-.904.305h-.018c-.382 0-.905-.305-.905-.305-.734.67-2.038.997-2.038.997.457-.432 1.314-1.296 1.666-1.622.355-.325 1.16-1.47 1.283-1.832h.007" fill="#FFF"/><path d="M29.48 44.16c.289 0 .562-.116.717-.183-.155.327-.445.835-.723 1.045h-.004c-.279-.21-.569-.718-.72-1.045.151.067.424.182.714.182h.016" fill="#FFF"/><path d="M30.599 50.252l5.106-7.202.52.378.031-1.693-1.547.595.491.355-4.549 6.417-2.312-4.218-.286.44-2.058 3.13-.516-.347-.006 1.665 1.562-.623-.524-.35c.284-.432 1.401-2.127 1.773-2.698l2.315 4.15" fill="#FFF"/><path d="M31.53 47.423a529.293 529.293 0 01-.868-1.322 80.75 80.75 0 01-.685 1.243l-.365-.658.994-1.802.288.44 1.022 1.555-.386.544m1.055.468l.367.563.514-.347.01 1.665-1.564-.623.522-.35c-.054-.082-.133-.21-.237-.365l.388-.543M42.865 36.9c-.382-.417-1.026-.055-1.68.548-.652.604-1.062 1.222-.682 1.639.353.387 1.03.056 1.682-.545.65-.605 1.062-1.224.68-1.642" fill="#FFF"/><path d="M41.813 44.324c.023-.018.04-.034.06-.052.346-.304.547-.776.547-1.29 0-.987-.799-1.791-1.78-1.791-.982 0-1.778.804-1.778 1.791 0 .134.026.352.026.352-.08-.152-.375-.836-.433-.963a2.268 2.268 0 012.184-1.668c.895 0 1.67.523 2.037 1.283-.14-.905-.582-1.717-.9-2.017-.379-.359-1.023-.475-1.023-.475.421.07.978-.192 1.602-.77.59-.544.897-1.021.912-1.42-.036.563-.02.879.137 1.336.216.623.804 1.774.596 3.074-.115.714-.63 1.775-1.487 2.643-.185.194-.254.483-.274.631 0 0-1.269 0-1.571.03 0 0-.299-.03-.294-.217.006-.19.17-.238.323-.238.147 0 .78.016 1.116-.239m-8.347.37c-1.08-.596-2.134-1.51-3.087-2.975l-.171-.288c.262.117.595.034.595.034.02.025.059.091.078.13.888 1.316 1.871 2.149 2.874 2.692l-.289.406m1.336.064c.817.296 1.63.456 2.4.575a7.35 7.35 0 001.465.08.448.448 0 00.04.258s-.093.112-.093.235a7.71 7.71 0 01-1.486-.09c-.838-.13-1.73-.3-2.619-.642l.293-.416m5.795.406c.151-.025.627-.011.91.03.311.051.666.114.704.288.034.165-.078.339-.234.588-.101.154-.333.065-.458.017-.13-.047-.862-.442-.981-.57-.114-.131-.164-.315.059-.353m-.747.485a.557.557 0 01.47-.048c.198.074.917.501.967.704.047.2-.052.298-.164.344-.11.045-.246.088-.346.098a.56.56 0 01-.447-.205c-.094-.115-.427-.524-.48-.618-.046-.09-.07-.224 0-.275m-.084.45c.103.119.396.473.429.533.036.058-.018.15-.109.139-.092-.01-.586-.06-.871-.255-.285-.197-.474-.576-.277-.712.191-.137.498-.073.828.295m-.161-1.088c.094-.022.47-.116.55.008.1.154.028.32-.263.463-.287.138-.837.251-.946.101-.107-.155.044-.41.659-.572" fill="#FFF"/><mask id="b" fill="#fff"><use xlink:href="#a"/></mask><path fill="#CC003D" mask="url(#b)" d="M62.737 59.651h58.948V.321H62.737z"/><path d="M110.222 19.14c.006-.262.054-2.104.058-2.352h.446c1.722 0 2.011.306 2.171 2.353h-2.675zm4.9-1.022c-.27-2.29-1.338-3.482-3.862-3.482h-3.21l-.436 12.94h2.339s.216-6.002.228-6.286l2.955.003c.027.261.47 6.282.47 6.282h2.414s-.83-8.889-.897-9.457zM81.845 36.911c.005-.262.053-2.104.057-2.353l.42-.026c1.722 0 2.037.333 2.197 2.38h-2.674zm4.9-1.022c-.27-2.29-1.34-3.483-3.863-3.483h-3.21l-.436 12.94h2.339s.215-6.002.228-6.286l2.955.003c.027.262.47 6.283.47 6.283h2.414s-.83-8.889-.898-9.457zm-17.55-21.253v12.936h2.364V16.787h2.929v10.785h2.367V14.636zM94.2 19.141h-1.287c-.532 0-.927-.12-1.178-.361-.178-.168-.265-.396-.265-.692v-3.452H89.1v3.693c0 .852.336 1.572.996 2.144.651.566 1.449.852 2.374.852h1.73v6.247h2.366V14.636H94.2v4.505m4.985-4.505v2.151h1.964v10.785h2.393V16.787h1.965v-2.151zm-3.47 17.77v4.135h-3.246v-4.135h-2.36v12.942h2.36v-6.656h3.245v6.656h2.36V32.406zm-23.35 10.939c-.23 0-.807-.054-.807-.054v-4.554s.185-.044.389-.044c1.199 0 2.616-.07 2.616 2.324 0 2.194-1.557 2.328-2.198 2.328m.287-6.705c-.408 0-.77.01-1.094.025v-2.107H75.8v-2.151h-6.606v12.936h3.588c3.577 0 4.131-3.2 4.131-4.385 0-1.402-.55-4.318-4.261-4.318m8.783-15.513c.02-3.503.88-4.655 1.786-4.672.907.017 1.767 1.17 1.787 4.671v.001c-.02 3.42-.88 4.588-1.786 4.606-.907-.018-1.767-1.186-1.787-4.606m5.928-.48c-.041-1.85-.357-3.176-.846-4.118-.77-1.61-1.999-2.21-3.267-2.226l-.008-.001h-.049c-1.268.016-2.496.617-3.267 2.227-.49.942-.805 2.268-.846 4.118l-.005.42v-.001c.002 1.153.13 2.27.378 3.171.65 2.65 2.15 3.588 3.715 3.617l.033.001h.041l.033-.001c1.565-.029 3.065-.966 3.715-3.617.25-.9.377-2.018.378-3.171l-.005-.419m22.488 24.697l-2.846-7.583c.591-.443 1.05-1.291 1.255-2.136.199-.82.46-3.219.46-3.219h-2.327a71.92 71.92 0 01-.138 1.9c-.107 1.236-.47 2.377-1.726 2.377h-.97c-.002-.103 0-4.277 0-4.277h-2.366v12.942h2.366v-6.571s1.251.002 1.428 0l2.324 6.567h2.54z" fill="#FFF" mask="url(#b)"/></g></g></svg>