<svg width="174" height="32" xmlns="http://www.w3.org/2000/svg" xmlns:xlink="http://www.w3.org/1999/xlink"><defs><path id="a" d="M.663.511h14.766V16.27H.663z"/></defs><g fill="none" fill-rule="evenodd"><path fill="#EE3D42" d="M.07 16.137h31.647V0H.07z"/><path fill="#231F20" d="M.07 31.643h31.649V15.82H.069z"/><path fill="#FEFEFE" d="M5.589 16.784H26.18v-1.926H5.59z"/><path d="M51.91 7.901c3.444 0 5.606 2.25 5.606 5.36 0 3.24-2.162 5.104-5.606 5.104h-6.85v5.294h-2.92V7.9h9.769zm.167 7.86c1.512 0 2.458-1.048 2.458-2.457 0-1.554-.946-2.795-2.625-2.795h-6.85v5.252h7.017zm16.26 8.338c-5.02 0-9.18-3.338-9.18-8.339 0-4.936 4.16-8.34 9.18-8.34 5.042 0 9.135 3.404 9.135 8.34 0 5.001-4.093 8.339-9.135 8.339m0-13.989c-3.658 0-6.158 2.478-6.158 5.65 0 3.258 2.396 5.67 6.158 5.67 3.74 0 6.11-2.433 6.11-5.67 0-3.172-2.37-5.65-6.11-5.65m21.237 13.97c-5.274 0-9.245-3.34-9.245-8.34 0-4.916 4.031-8.32 9.245-8.32 3.11 0 5.334.885 7.333 2.35l-1.56 2.316c-1.448-1.117-3.275-1.934-5.688-1.934-3.848 0-6.242 2.436-6.242 5.589 0 3.256 2.418 5.605 6.282 5.605 2.415 0 4.325-.777 5.776-1.887l1.554 2.31c-1.993 1.47-4.344 2.31-7.455 2.31m32.688-4.245l-1.805 3.826h-3.153l7.666-15.759h3.066l7.691 15.76h-3.152l-1.805-3.827h-8.508zm1.218-2.561h6.074l-3.028-6.387-3.046 6.387zm27.706 6.385v-6.741h-10.314v6.741h-2.92V7.901h2.92v6.432h10.314V7.901h2.922v15.757z" fill="#231F20"/><g transform="translate(157.767 7.39)"><mask id="b" fill="#fff"><use xlink:href="#a"/></mask><path fill="#231F20" mask="url(#b)" d="M.663 16.269V.51h2.924v7.354L11.504.51h3.588L6.946 8.098l8.484 8.17h-3.926L3.587 8.623v7.647z"/></g><path d="M110.089 13.678h-6.842v-3.322h11.271V7.888h-14.192v15.744h9.763c3.44 0 5.811-1.87 5.811-4.977 0-3.231-2.372-4.977-5.811-4.977m.169 7.35h-7.01v-4.743h7.01c1.83 0 2.87.965 2.87 2.37 0 1.553-.827 2.373-2.87 2.373" fill="#231F20"/></g></svg>