<svg width="162" height="32" xmlns="http://www.w3.org/2000/svg"><g fill="none" fill-rule="evenodd"><path d="M158.886 17.861l3.095 6.275h-2.775l-2.091-4.268-1.358 1.523v2.745h-2.65v-9.561h2.65v2.381c0 .387-.01.951-.034 1.69.208-.327.46-.65.756-.986l2.713-3.088h2.46l-2.766 3.29zm-16.025 6.275v-9.561h2.654v3.442h2.76v-3.442h2.655v9.56h-2.654v-4.059h-2.761v4.06h-2.654zm-4.83-4.583c-1.858.199-2.786.795-2.786 1.79 0 .336.098.624.293.866.196.242.473.366.836.366.469 0 .862-.206 1.18-.62.32-.416.477-.923.477-1.527v-.875zm2.81 4.583h-2.57c-.084-.377-.123-.878-.123-1.495-.453.683-.905 1.134-1.351 1.362-.448.224-.958.334-1.53.334-.838 0-1.521-.245-2.043-.73-.518-.484-.774-1.14-.774-1.963 0-.594.146-1.15.45-1.652.306-.505.793-.903 1.46-1.191.67-.286 1.895-.503 3.667-.638v-.548c0-.93-.435-1.39-1.305-1.39-.933 0-1.456.46-1.564 1.39l-2.443-.245c.155-1.088.64-1.856 1.451-2.313.807-.45 1.719-.681 2.74-.681.613 0 1.187.077 1.729.23.537.154.96.38 1.261.684.302.3.51.62.615.96.11.336.16.926.16 1.76v4.338c.003.832.06 1.431.17 1.788zm-16.197-2.441h2.19c.516 0 .912-.147 1.19-.432.277-.288.421-.668.421-1.13 0-1.003-.617-1.506-1.845-1.506h-1.956v3.068zm-2.796 2.44V11.218h8.138v2.318h-5.34v2.822h2.046c1.065 0 1.906.108 2.526.325.617.22 1.124.635 1.515 1.243.39.618.59 1.372.59 2.266 0 1.24-.36 2.21-1.072 2.905-.718.697-1.715 1.04-3 1.04h-5.403zm-6.486-4.182v-1.486c.973 0 1.584-.126 1.837-.384.245-.258.373-.555.373-.894 0-.36-.121-.656-.357-.884-.24-.224-.571-.336-1.008-.336-.928 0-1.48.47-1.66 1.417l-1.857-.347c.4-1.776 1.62-2.663 3.668-2.663 1.1 0 1.94.249 2.51.74.569.492.855 1.113.855 1.86 0 .963-.556 1.656-1.664 2.076 1.287.366 1.929 1.132 1.929 2.3 0 .85-.309 1.563-.93 2.132-.618.57-1.509.853-2.675.853-2.132 0-3.437-.978-3.906-2.926l1.867-.352c.243 1.136.867 1.705 1.859 1.705.512 0 .914-.132 1.197-.4.29-.267.432-.633.432-1.088 0-.338-.1-.621-.294-.845a1.219 1.219 0 00-.752-.41c-.302-.045-.778-.068-1.424-.068zm-7.994 2.603c1.367 0 2.048-1.083 2.048-3.248 0-.98-.162-1.755-.486-2.315-.332-.565-.83-.848-1.507-.848-.7 0-1.22.292-1.556.875-.339.585-.51 1.36-.51 2.325 0 1.04.178 1.838.537 2.384.359.553.85.827 1.474.827zm-.068 1.78c-1.333 0-2.348-.513-3.045-1.524-.706-1.017-1.051-2.18-1.051-3.492 0-1.415.386-2.592 1.159-3.532.775-.94 1.8-1.412 3.067-1.412 1.205 0 2.194.46 2.97 1.373.772.915 1.16 2.108 1.16 3.573 0 1.509-.402 2.72-1.202 3.637-.809.916-1.826 1.378-3.058 1.378zm-4.498-.2h-2.314l-1.904-3.481-2.084 3.48h-1.744l2.99-4.918-2.588-4.64h2.325l1.474 2.81 1.685-2.81h1.698l-2.537 4.144 2.999 5.415zM89.085 22.46h1.968c.498 0 .857-.103 1.072-.317.22-.213.33-.551.33-1.027 0-.983-.472-1.479-1.4-1.479h-1.968v2.823h-.002zm-2.03 1.676v-9.561h2.03v3.492h2.368c1.026 0 1.78.295 2.263.882.484.583.729 1.315.729 2.186 0 .96-.263 1.698-.79 2.217-.524.523-1.263.784-2.204.784h-4.396zm-9.202 0l2.878-9.561h2.393l2.793 9.56H83.8l-2.03-7.883-2.267 7.884h-1.65zm-2.592-5.907c-.007-.69-.201-1.252-.583-1.684-.382-.434-.855-.654-1.42-.654-.56 0-1.023.204-1.394.61-.374.41-.594.986-.66 1.73h4.057v-.002zm.126 2.86l1.833.263a4.13 4.13 0 01-1.388 2.141c-.69.563-1.552.844-2.592.844-1.245 0-2.249-.446-3.008-1.337-.76-.892-1.14-2.094-1.14-3.616 0-1.445.382-2.638 1.15-3.587.765-.946 1.803-1.421 3.11-1.421 1.285 0 2.272.468 2.974 1.403.702.933 1.047 2.13 1.047 3.596l-.005.246H71.2c0 .65.055 1.168.172 1.562.119.393.345.729.692 1.02.343.29.775.436 1.29.436 1.007.002 1.682-.517 2.034-1.55zm-9.02-.464l1.747.19c-.229 1.195-.663 2.084-1.31 2.66-.645.574-1.429.862-2.343.862-1.239 0-2.192-.48-2.857-1.445-.668-.964-1.004-2.141-1.004-3.54 0-1.438.366-2.624 1.095-3.566.736-.94 1.708-1.413 2.92-1.413 1.958 0 3.126 1.1 3.499 3.296l-1.747.252c-.15-1.184-.701-1.776-1.643-1.776-.688 0-1.191.32-1.5.962-.31.638-.468 1.415-.468 2.325 0 .964.162 1.71.484 2.233.323.523.775.788 1.356.788.894 0 1.483-.61 1.771-1.828zm-8.489 0l1.744.19c-.226 1.195-.663 2.084-1.31 2.66-.646.574-1.428.862-2.34.862-1.239 0-2.192-.48-2.86-1.445-.667-.964-1.003-2.141-1.003-3.54 0-1.438.366-2.624 1.097-3.566.73-.94 1.705-1.413 2.917-1.413 1.959 0 3.127 1.1 3.5 3.296l-1.745.252c-.153-1.184-.704-1.776-1.65-1.776-.686 0-1.189.32-1.495.962-.315.638-.469 1.415-.469 2.325 0 .964.158 1.71.485 2.233.322.523.775.788 1.355.788.892 0 1.486-.61 1.774-1.828zm-11.241 1.931c1.362 0 2.046-1.083 2.046-3.248 0-.98-.163-1.755-.49-2.315-.326-.565-.83-.848-1.503-.848-.702 0-1.223.292-1.56.875-.335.585-.504 1.36-.504 2.325 0 1.04.176 1.838.534 2.384.362.553.853.827 1.477.827zm-.07 1.78c-1.331 0-2.346-.513-3.045-1.524-.7-1.017-1.052-2.18-1.052-3.492 0-1.415.386-2.592 1.161-3.532s1.8-1.412 3.068-1.412c1.202 0 2.192.46 2.971 1.373.77.915 1.159 2.108 1.159 3.573 0 1.509-.4 2.72-1.207 3.637-.804.916-1.824 1.378-3.056 1.378zM34.69 17.019h2.592c.676 0 1.19-.176 1.55-.53.356-.352.532-.82.532-1.413 0-.526-.162-.98-.492-1.36-.329-.38-.925-.569-1.785-.569h-2.395v3.872h-.002zm0 7.118H32.5v-12.92h4.976c1.42 0 2.47.38 3.159 1.141a3.905 3.905 0 011.024 2.693c0 1.182-.368 2.14-1.109 2.866-.743.736-1.684 1.1-2.825 1.1H34.69v5.12zM13.085 31.07c7.095 0 12.889-5.888 12.889-13.095 0-7.218-5.794-13.097-12.89-13.097S.199 10.757.199 17.974c0 7.207 5.792 13.095 12.887 13.095" fill="#008A52"/><path d="M10.688 25.693h.571v-5.822h-.571v5.822zm6.201-7.321l.128.649c-.286-.526-.827-.789-1.623-.789h-.562c-.955 0-1.538.382-1.758 1.141-.205-.798-.809-1.193-1.817-1.193H8.79v11.924a12.762 12.762 0 01-4.668-3.019 12.98 12.98 0 01-3.726-9.113c0-3.554 1.427-6.78 3.726-9.118 2.3-2.334 5.47-3.783 8.962-3.783 3.493 0 6.663 1.45 8.963 3.783a12.978 12.978 0 013.716 9.518H16.89zm8.764 1.392a5.575 5.575 0 01-.026.178h-2.134v.519h.322c.612-.014 1.3-.025 1.632.423a12.881 12.881 0 01-1.312 3.415v-2.793h-.642v3.826c-.43.628-.915 1.216-1.445 1.758a1.885 1.885 0 01-.07.066V18.9h3.672v.864h.003zm-4.318 3.095a1.018 1.018 0 00-.622-.592l.622-3.219v3.81zm-4.073-.364V20.27l.39 1.998c-.164.061-.29.137-.39.228zm3.611 5.648c-.441.35-.907.675-1.394.965v-5.534h-.592v5.863c-.45.24-.917.448-1.394.63v-6.335c0-.583.141-1.02.731-1.22l-.651-3.585h1.314l.222 3.913h.16l.221-3.913h1.385l-.742 3.584c.621.222.742.601.742 1.22v4.412h-.002zM16.7 22.95h-1.305v-2.98h-.562v10.054h.562v-6.516H16.7v6.324c0 .195-.016.364-.045.52a12.38 12.38 0 01-2.867.5c-.226-.268-.258-.679-.258-1.017v-9.671c0-.503.1-.855.29-1.056.19-.201.533-.3 1.015-.3.492 0 1.214-.07 1.584.3.19.201.281.553.281 1.056v2.786zm-3.613 7.922c-.62 0-1.23-.045-1.827-.134v-3.363c.876 0 1.447-.3 1.717-.9v3.357c0 .414.064.76.192 1.036a1.125 1.125 0 01-.082.004zm-2.398-4.054v3.824c-.45-.09-.894-.202-1.326-.339V18.747h1.897c.492 0 .835.1 1.034.29.2.19.29.533.29 1.026v5.44c0 .49-.092.832-.29 1.022-.3.302-.853.302-1.315.302-.1-.01-.2-.01-.29-.01zm2.398-22.142C5.876 4.676 0 10.646 0 17.972c0 7.314 5.877 13.291 13.086 13.294 7.207-.003 13.083-5.98 13.083-13.294 0-7.324-5.876-13.296-13.083-13.296z" fill="#FFF"/><path fill="#FFF" d="M2.156 10.966l.02.426.06.4.098.379.115.373.146.352.174.338.18.334.208.31.222.3.254.302.52.58.552.544.571.553.562.54.563.553.512.571.249.302.233.304.213.309.18.329.18.343.14.363.108.361.1.391.053.393.027.418-.016 3.523-.02-.419-.062-.402-.1-.382-.108-.37-.144-.352-.178-.354-.181-.32-.213-.32-.219-.302-.254-.302-.519-.573-.555-.56-.562-.53-.572-.545-.562-.562-.51-.58-.251-.284-.229-.318-.2-.313-.181-.331-.174-.343-.16-.347-.11-.37-.091-.382-.057-.403-.032-.425zm-.585 4.456l.035.45.057.419.112.41.121.387.171.382.181.359.201.35.226.333.245.32.27.32.571.604.604.585.63.585.615.574.6.583.57.603.273.322.242.32.23.334.2.35.2.359.154.379.116.39.112.41.062.418.028.45-.016 3.729-.032-.448-.062-.419-.098-.411-.13-.389-.154-.38-.196-.36-.192-.35-.234-.331-.249-.32-.272-.32-.562-.606-.61-.592-.615-.576-.62-.574-.614-.594-.563-.615-.28-.302-.239-.329-.233-.34-.2-.343-.181-.368-.17-.37-.12-.4-.101-.4-.06-.419-.032-.46z"/><path d="M14.478 13.28c.258.008.464.273.464.61 0 .333-.206.598-.464.607l-.14.334c.361 0 .77.046.77.466 0 .508-.329.92-.902.92-.574 0-1.04-.414-1.04-.92 0-.397.144-.454.544-.585l-.117-.237.256-.231a.401.401 0 010-.739l-.222-.169.083-.24c-.398-.132-.544-.187-.544-.587 0-.51.466-.92 1.04-.92.573 0 .903.412.903.92 0 .423-.352.466-.77.466l.139.304zm11.136.107h-8.247c-.082-.206-.21-.341-.354-.341s-.272.137-.355.34h-.297c-.08-.205-.208-.34-.354-.34-.144 0-.272.137-.354.34h-.231c.176-.242.28-.53.28-.84 0-.835-.593-1.507-1.496-1.507s-1.635.672-1.635 1.506c0 .38.286.727.382.986a.34.34 0 00-.263.33c0 .172.128.312.293.332-.092.323-.41.56-.41 1.068 0 .832.732 1.506 1.635 1.506s1.497-.674 1.497-1.506a1.41 1.41 0 00-.281-.84h.23c.083.207.211.335.355.335s.274-.13.354-.334h.295c.083.206.21.334.355.334s.274-.13.354-.334h6.055v.336h-.284v.679h.284l.267.372-.55-.082v.912h.55v-.414h.816v.414h.551v-.912l-.55.082.267-.372h.283v-.68h-.283v-.335h.838a.395.395 0 00.389-.398v-.237a.392.392 0 00-.386-.4z" fill="#FFCA38"/><path d="M13.239 12.504c0 .197.034.282.1.343.069.067.197.112.396.179l.066.02-.089.265.277.208-.11.05a.33.33 0 100 .608l.1.046-.297.268.128.26-.077.025c-.2.062-.327.115-.396.176-.066.064-.098.151-.1.343 0 .464.427.85.969.853.535-.005.827-.373.832-.853-.003-.185-.08-.267-.208-.329-.13-.055-.316-.068-.492-.068h-.105l.197-.469.045-.002c.206-.003.398-.236.398-.54 0-.301-.19-.535-.398-.537l.003-.068.064-.03-.064.03-.003.068-.043-.002-.201-.441h.107c.206.002.391-.012.512-.069.12-.057.185-.137.188-.329-.005-.48-.295-.846-.832-.85-.54-.003-.967.386-.967.845m.969 3.779c-.606 0-1.106-.432-1.109-.99 0-.203.04-.347.144-.446.092-.082.21-.125.37-.18l-.102-.21.224-.202a.475.475 0 01-.194-.381.46.46 0 01.19-.378l-.179-.139.075-.226c-.164-.053-.288-.099-.381-.185-.105-.096-.144-.236-.144-.444.002-.55.503-.99 1.108-.99.302 0 .551.11.716.293.167.18.253.432.253.697.003.233-.107.386-.272.455-.13.062-.288.075-.459.08l.075.174c.286.039.49.331.49.674 0 .338-.204.633-.49.672l-.082.199c.153.004.309.02.444.08a.46.46 0 01.29.455c0 .27-.087.516-.254.697-.162.185-.409.295-.713.295m-1.705-1.027c.002-.498.286-.756.39-1.014a.403.403 0 11-.032-.752c-.107-.24-.354-.567-.358-.944 0-.876.768-1.578 1.705-1.578.94 0 1.566.714 1.568 1.578 0 .28-.08.544-.22.77h.053c.087-.192.222-.332.4-.338.178.006.313.146.4.338h.204c.086-.192.221-.332.4-.338.178.006.313.146.4.338h8.2v.137H17.32l-.016-.043c-.078-.195-.192-.298-.29-.293-.096-.005-.213.098-.288.293l-.019.043h-.39l-.019-.043c-.075-.195-.192-.298-.288-.293-.096-.005-.212.098-.288.293l-.018.043h-.416l.082-.112a1.33 1.33 0 00.268-.798c-.003-.802-.563-1.435-1.429-1.437-.869 0-1.563.646-1.566 1.437-.002.345.272.684.377.96l.028.078-.078.016a.263.263 0 00-.208.26c0 .133.1.243.231.261l.08.014-.023.073c-.105.354-.409.571-.407 1.05.003.79.697 1.435 1.566 1.437.864-.002 1.426-.636 1.429-1.438 0-.297-.099-.571-.268-.798l-.082-.112h.416l.018.042c.076.196.192.299.288.294.096.005.213-.098.29-.294l.016-.042h.391l.019.042c.075.196.192.299.288.294.096.005.212-.098.29-.294l.016-.042h6.171v.478h-.283v.537h.249l.386.535-.635-.094v.757h.414v-.41h.955v.41h.411V15.8l-.633.092.384-.533h.25v-.537h-.284v-.478h.91a.329.329 0 00.32-.329v-.237a.326.326 0 00-.318-.33v-.134a.46.46 0 01.457.464v.237a.463.463 0 01-.46.464h-.77v.201h.284v.821h-.316l-.15.206.468-.069v1.063h-.69v-.416h-.677v.416h-.69v-1.063l.469.069-.151-.206h-.318v-.82h.283v-.202h-5.938c-.087.195-.222.336-.4.34-.178-.004-.313-.145-.4-.34h-.203c-.087.195-.222.336-.4.34-.179-.004-.313-.145-.4-.34h-.053c.14.231.22.492.22.773 0 .866-.627 1.575-1.568 1.577-.942.005-1.71-.695-1.71-1.573" fill="#FFF"/><path fill="#FFCA38" d="M8.607 15.795v2.064l3.074-3.018v-2.045z"/><path d="M8.676 17.694l2.933-2.882v-1.854l-2.933 2.866v1.87zm-.14-1.9v-.031l3.212-3.136v2.24l-3.211 3.156v-2.228z" fill="#FFF"/><path fill="#FFCA38" d="M8.607 8.254v2.062l3.074-3.015V5.253z"/><path d="M8.676 10.154l2.933-2.882V5.418L8.676 8.284v1.87zm-.14-1.9v-.031l3.212-3.134v2.24l-3.211 3.157V8.255zM6.144 4.347V.001h.331v.11V0h.137v4.345z" fill="#FFF"/><path fill="#FFCA38" d="M8.607 10.768v2.064l3.074-3.02V7.77z"/><path d="M8.676 12.665l2.933-2.882V7.929l-2.933 2.866v1.87zm-.14-1.9v-.029L11.749 7.6v2.24l-3.211 3.159v-2.233zM7.182 5.157V0h.334v.112V0h.137v5.156z" fill="#FFF"/><path fill="#FFCA38" d="M6.283 4.235h.19V.11h-.19zm1.038.809h.192V.11h-.192z"/><path fill="#FFF" d="M8.221 5.694V0h.331v.112V0h.138v5.694z"/><path fill="#FFCA38" d="M8.607 13.283v2.06l3.074-3.015V10.28z"/><path d="M8.676 15.18l2.933-2.884v-1.851L8.676 13.31v1.87zm-.14-1.896v-.035l3.212-3.136v2.243l-3.211 3.156v-2.228z" fill="#FFF"/><path fill="#FFCA38" d="M8.361 5.583h.19V.111h-.19z"/><path fill="#FFF" d="M9.261 5.257V0h.331v.112V0h.138v5.257z"/><path fill="#FFCA38" d="M8.306 15.795v2.064L5.234 14.84v-2.045z"/><path d="M5.304 14.813l2.932 2.882v-1.87L5.304 12.96v1.854zm-.142.057v-2.24l3.193 3.115-.05.05.05-.05.02.02v2.259L5.163 14.87zm5.137-10.417V0h.34v.112V0h.14v4.453z" fill="#FFF"/><path fill="#FFCA38" d="M9.401 5.144h.19V.111H9.4z"/><path fill="#FFF" d="M11.28 3.696V0h.33v.112V0h.138v3.696z"/><path fill="#FFCA38" d="M10.439 4.342h.201V.112h-.201zm.98-.756h.19V.11h-.19zM8.306 8.254v2.062L5.234 7.301V5.253z"/><path d="M5.304 7.272l2.932 2.883v-1.87L5.304 5.419v1.853zm-.142.055V5.09l3.193 3.114-.05.05.05-.05.02.02v2.26L5.163 7.328z" fill="#FFF"/><path fill="#FFCA38" d="M8.306 10.768v2.064l-3.072-3.02V7.77z"/><path d="M5.304 9.786l2.932 2.882V10.8L5.304 7.932v1.854zm-.142.057v-2.24l3.193 3.115-.05.048.05-.048.02.02V13L5.163 9.843z" fill="#FFF"/><path fill="#FFCA38" d="M8.306 13.283v2.06l-3.072-3.015V10.28z"/><path d="M5.304 12.297l2.932 2.884v-1.87l-2.932-2.866v1.852zm-.142.06v-2.24l3.193 3.115-.05.052.05-.052.02.02v2.26l-3.213-3.156zm.001-8.685V0h.34v.11V0h.14v3.67z" fill="#FFF"/><path fill="#FFCA38" d="M5.303 3.56h.201V.111h-.201zm3.304 2.18v2.064l3.074-3.017V2.74z"/><path d="M8.676 7.638l2.933-2.882V2.905L8.676 5.769v1.87zm-.14-1.899v-.03l3.212-3.136v2.243L8.537 7.972V5.74z" fill="#FFF"/><path fill="#FFCA38" d="M8.306 5.739v2.064L5.234 4.786V2.74z"/><path d="M5.304 4.757l2.932 2.882V5.77L5.304 2.905v1.852zm-.142.059v-2.24l3.193 3.115-.05.048.05-.048.02.021v2.26L5.163 4.817z" fill="#FFF"/></g></svg>