<svg width="170" height="42" xmlns="http://www.w3.org/2000/svg"><g fill="#299E30" fill-rule="evenodd"><path d="M57 19.19c0-5.476 3.126-8.928 8.896-8.928 2.524 0 4.087.476 5.169.952l-.721 2.024c-1.323-.476-2.405-.714-4.328-.714-3.486 0-6.251 1.905-6.251 6.428 0 4.643 2.885 6.786 6.732 6.786 1.683 0 2.885-.238 4.087-.595l.601 2.024c-1.322.476-2.645.833-5.049.833-6.01-.12-9.136-3.571-9.136-8.81zm25.605 1.905c0-2.143-.961-3.69-3.366-3.69-1.562 0-2.765.476-3.967 1.19v1.548c0 3.928 1.202 5.833 3.607 5.833 3.005-.119 3.726-2.619 3.726-4.88zm-9.737-.833c0-2.738.48-7.024 2.044-8.452 1.322-1.31 4.928-2.143 9.136-2.858l.36 2.262c-3.726.596-7.092 1.19-7.813 2.024-.722.714-1.082 2.262-1.202 3.452a9.47 9.47 0 014.568-1.19c3.245 0 5.289 1.548 5.289 5.595 0 4.762-2.765 6.905-6.491 6.905-3.727-.12-5.89-2.381-5.89-7.738zm23.201-.476c0-2.381-.841-3.929-2.885-3.929-1.803 0-3.125 1.31-3.246 3.929h6.131zm-8.775 1.428c0-5.238 2.644-7.262 6.01-7.262 3.727 0 5.29 2.381 5.29 6.667v.952h-8.776c0 3.453 2.044 4.167 4.448 4.167 1.322 0 2.404-.238 3.727-.595l.48 2.024c-1.202.476-2.764.714-4.568.714-3.967 0-6.611-1.548-6.611-6.667zm23.2-.476c0-2.38-.84-4.524-3.485-4.524-1.443 0-2.405.596-3.126.953v8.452c.36 0 1.322.238 2.284.238 3.126 0 4.328-2.143 4.328-5.119zm-9.135-6.428h2.524v1.07c1.202-.832 2.164-1.309 3.847-1.309 3.125 0 5.29 2.143 5.29 6.667 0 5.476-3.247 7.262-6.853 7.262-.841 0-1.803-.12-2.284-.238v5.119h-2.524V14.31zm23.802 6.785c0-2.143-.962-3.69-3.366-3.69-1.563 0-2.765.476-3.967 1.19v1.548c0 3.928 1.202 5.833 3.606 5.833 2.885-.119 3.727-2.619 3.727-4.88zm-9.858-.833c0-2.738.481-7.024 2.044-8.452 1.322-1.31 4.929-2.143 9.136-2.858l.36 2.262c-3.726.596-7.092 1.19-7.813 2.024-.721.714-1.082 2.262-1.202 3.452a9.47 9.47 0 014.568-1.19c3.245 0 5.29 1.548 5.29 5.595 0 4.762-2.766 6.905-6.492 6.905-3.607-.12-5.89-2.381-5.89-7.738zm22.36 4.405V21.57l-2.885.12c-1.804 0-2.885.833-2.885 2.142 0 1.31.961 1.905 2.284 1.905 1.202.12 2.524-.476 3.486-1.071zm-8.295-.596c0-3.333 3.005-4.047 5.29-4.047h2.885v-1.429c0-1.785-.962-2.262-2.886-2.262-1.442 0-2.644.238-3.726.596l-.481-1.905c1.202-.476 2.765-.953 4.688-.953 3.246 0 4.929 1.072 4.929 3.81v6.905c0 .833.721.952 1.443 1.071l-.24 1.905h-.482c-1.322 0-2.765-.357-3.005-1.548-.842.596-2.164 1.667-4.328 1.667-2.404 0-4.087-1.31-4.087-3.81z" fill-rule="nonzero"/><path d="M143.794 14.31h2.524v5.714h6.371V14.31h2.525v13.333h-2.525v-5.595h-6.37v5.595h-2.525zm21.037 11.07l-3.847-4.523 5.29-6.428h2.885l-5.41 6.31 2.645 2.975c1.202 1.31 2.284 2.143 3.366 2.381L169.279 28c-1.202-.238-2.645-.476-4.448-2.619zm-6.492-11.07h2.525v13.333h-2.525z"/><path d="M13.2 12.5L32.7 1.3C31.9.8 31 .4 30.2 0l-17 9.7-7.5-4.3c-.5.6-1 1.2-1.5 1.9l9 5.2zm23.6-8.1c-.6-.6-1.2-1.1-1.9-1.6L13.2 15.2l-10.4-6-1.1 2.1 11.4 6.6L36.8 4.4zM13.2 20.7L1 13.7l-.6 2.4 12.8 7.3L39.9 8.1c-.4-.7-.9-1.3-1.4-1.9L13.2 20.7zm30.3-.6c0 12-9.7 21.7-21.7 21.7C9.7 41.8 0 32.1 0 20.1c0-.5 0-1 .1-1.5l13.2 7.6 27.9-16c1.4 2.9 2.3 6.3 2.3 9.9z" fill-rule="nonzero"/></g></svg>