<svg width="24" height="24" fill="none" xmlns="http://www.w3.org/2000/svg"><path d="M22.727 7C26.848 15.262 20.353 23.939 12 24c9.15-.807 13.985-9.856 10.727-17z" fill="#B9B9B6"/><path d="M19.635 3.324a11.12 11.12 0 00-4.83-2.862C12.728-.174 9.6-.294 6.79 1.018c5.245-1.154 9.144 1.55 11.44 3.936a9.031 9.031 0 011.605 2.166c.216.597.117 1.073-.279 1.451-.83.755-3.245.953-4.472 1.054-.694 0-1.287-.398-1.604-.597-.138-.08-.435-.278-.554-.357-.792-.537-1.504-.716-2.236.179-.317.437-.634.854-.951 1.292-.336.496.277.874.634.417.277-.318.395-.497.672-.815a1.157 1.157 0 011.565-.1c1.127 1.054 1.86 1.75 2.988 2.783.06.06.119.04.158 0 .633-.656 3.801-1.232 4.394-1.093.495.119.732.438.753.974-.298 3.438-2.435 6.44-5.563 7.812l-1.009.337c-.613.2-1.07.12-1.345-.337-.298-.477-.397-1.332-.298-2.584.038-.338.077-.677.119-1.014l.04-.357c0-.06-.04-.08-.08-.06-.178.06-.494.159-.87-.239a8.317 8.317 0 01-.634-.576c-.1.124-.206.243-.317.357-.296.278-.395.299-.534.299h-.02c-.039 0-.039.039-.039.06.02.218.04.357.059.576.04.358.08.695.099 1.034.099 1.133-.02 1.948-.316 2.365-.298.417-.772.556-1.425.417l-.476-.1a9.528 9.528 0 01-3.344-2.166 9.005 9.005 0 01-2.376-4.036c-.099-.337-.158-.675-.218-.972-.099-.677-.158-1.114.159-1.531-.554.596-.733 1.55-.713 2.683.124 1.892.687 3.73 1.643 5.366 4.473 4.493 11.737 4.474 16.21-.038 4.474-4.493 4.454-11.787-.019-16.28zM17.3 10.697c-.791.18-1.484.199-1.524.04-.04-.16.594-.438 1.386-.616.81-.18 1.484-.199 1.523-.04.04.16-.593.437-1.385.616z" fill="#403E3E"/><path d="M9.797 13.322l-.791.953c-.396.478.237.975.634.538l.81-.954c.397-.418-.316-.954-.653-.537zm-1.048-.438c-.219.279-.456.577-.673.835a.41.41 0 00.51.62.406.406 0 00.122-.103c.22-.278.437-.577.674-.834.376-.378-.257-.955-.633-.518zm-1.267-.238l-.356.438a.434.434 0 00.02.596.43.43 0 00.593-.02c0-.02.02-.02.02-.04l.396-.438c.375-.476-.337-.953-.673-.536zm3.088 2.803l.633-.696c.396-.438-.297-.994-.673-.557-.198.22-.416.457-.613.696-.397.437.238.994.653.557z" fill="#403E3E"/><path d="M6.71.978A10.99 10.99 0 018.689.72c.752-.039 1.524 0 2.277.14 1.383.24 2.711.732 3.918 1.45.93.558 1.8 1.21 2.593 1.948.159.14.297.299.436.438-3.72-3.578-9.64-3.458-13.202.278a8.953 8.953 0 00-1.445 1.988c-.238.616-.179 1.133.217 1.511.792.755 2.97.934 4.117 1.053.416.02.892.06 1.208-.08.653-.317.733-1.192 1.662-1.192.139 0 .08.06 0 .14a.605.605 0 00-.158.158c-.376.497-.693.954-1.05 1.451-.493.676.516 1.412 1.109.736l.634-.736a.944.944 0 011.287-.079c1.147 1.034 2.275 2.107 3.364 3.12.396.358-.197 1.034-.613.597-.634-.596-.852-.856-1.504-1.392-.14-.139-.357.1-.218.22.535.516.81.774 1.366 1.271.375.358-.159.994-.634.577-.475-.418-.772-.716-1.227-1.153-.139-.14-.356.099-.238.238.397.358.713.676 1.108 1.034.377.357-.197.933-.612.557-.337-.299-.714-.657-1.03-.955-.12-.1-.337.1-.198.2.237.218.634.576.871.795.376.317-.139.973-.594.596l-.791-.676.098-.08c.336-.397-.02-.974-.375-1.073a.508.508 0 00-.298-.02c.317-.556-.653-1.133-.99-.755a.285.285 0 00-.059.08c.06-.477-.732-.895-1.108-.438-.039.04-.06.06-.099.12-.06-.557-.93-.756-1.267-.22-.376-.775-3.503-1.471-4.355-1.252-.197.04-.356.16-.494.298-1.207 1.312-.752 5.009.95 8.01-4.474-4.511-4.453-11.805.02-16.298A11.724 11.724 0 016.71.978zm-.97 9.144c-.811-.18-1.484-.199-1.524-.04-.039.16.593.437 1.385.616.792.18 1.485.199 1.525.04.039-.16-.574-.418-1.386-.616z" fill="#ED1C24"/></svg>