<svg width="160" height="35" viewBox="0 0 160 35" fill="none" xmlns="http://www.w3.org/2000/svg">
<g clip-path="url(#clip0_1104_11)">
<path d="M32.7592 10.0898C38.6994 21.999 29.3372 34.5064 17.2969 34.5943C30.4861 33.4311 37.4554 20.3875 32.7592 10.0898Z" fill="#B9B9B6"/>
<path d="M28.3031 4.79109C26.3734 2.8431 23.9763 1.42269 21.3409 0.66568C18.347 -0.251076 13.8382 -0.424049 9.78775 1.46712C17.3481 -0.196302 22.9683 3.70136 26.2778 7.14064C27.2009 8.05975 27.9807 9.11219 28.5914 10.2628C28.9027 11.1233 28.76 11.8095 28.1892 12.3543C26.9928 13.4426 23.5117 13.728 21.7431 13.8736C20.7427 13.8736 19.8879 13.2999 19.431 13.0131C19.2321 12.8978 18.804 12.6123 18.6324 12.4985C17.4908 11.7244 16.4645 11.4664 15.4094 12.7565C14.9524 13.3864 14.4955 13.9875 14.0386 14.6188C13.5542 15.3338 14.4378 15.8787 14.9524 15.2199C15.3517 14.7615 15.5218 14.5035 15.9211 14.0451C16.2103 13.7423 16.6029 13.5593 17.0209 13.5326C17.4388 13.5059 17.8515 13.6374 18.1769 13.901C19.8014 15.4203 20.858 16.4235 22.484 17.9125C22.5705 17.999 22.6555 17.9702 22.7117 17.9125C23.6242 16.9669 28.1906 16.1367 29.0454 16.337C29.7589 16.5086 30.1005 16.9684 30.1308 17.741C29.7013 22.6967 26.6209 27.0239 22.1121 29.0015L20.6577 29.4873C19.7741 29.7756 19.1153 29.6603 18.7189 29.0015C18.2894 28.314 18.1467 27.0815 18.2894 25.2768C18.3442 24.7896 18.4004 24.301 18.4609 23.8152L18.5186 23.3006C18.5186 23.2141 18.4609 23.1853 18.4033 23.2141C18.1467 23.3006 17.6912 23.4433 17.1492 22.8696C16.8305 22.6088 16.5255 22.3316 16.2353 22.0394C16.0912 22.2181 15.9384 22.3896 15.7784 22.554C15.3517 22.9547 15.209 22.985 15.0087 22.985H14.9798C14.9236 22.985 14.9236 23.0412 14.9236 23.0714C14.9524 23.3857 14.9813 23.586 15.0087 23.9017C15.0663 24.4178 15.124 24.9035 15.1514 25.3922C15.2941 27.0253 15.1225 28.2001 14.6959 28.8012C14.2663 29.4023 13.5831 29.6026 12.6418 29.4023L11.9557 29.2581C10.1469 28.5687 8.50425 27.5047 7.1355 26.1359C5.50075 24.5327 4.31916 22.5256 3.71064 20.3183C3.56793 19.8325 3.48289 19.3453 3.3964 18.9172C3.2537 17.9414 3.16866 17.3114 3.62559 16.7104C2.82703 17.5695 2.56902 18.9446 2.59784 20.5778C2.77658 23.305 3.58812 25.9543 4.96613 28.3125C11.4137 34.7889 21.8843 34.7615 28.3319 28.2578C34.7809 21.7814 34.7506 11.2675 28.3031 4.79109ZM24.9373 15.4188C23.7971 15.6783 22.7982 15.7057 22.7405 15.4765C22.6829 15.2459 23.5968 14.8451 24.7384 14.5886C25.906 14.3291 26.8775 14.3017 26.9337 14.5309C26.9914 14.7615 26.0789 15.1608 24.9373 15.4188Z" fill="white"/>
<path d="M14.1222 19.2029L12.982 20.5766C12.4112 21.2656 13.3236 21.982 13.8959 21.3521L15.0634 19.977C15.6357 19.3744 14.6079 18.6018 14.1222 19.2029ZM12.6115 18.5716C12.2959 18.9737 11.9543 19.4033 11.6415 19.7752C11.5563 19.881 11.5103 20.013 11.511 20.1488C11.5118 20.2846 11.5593 20.4161 11.6456 20.521C11.7319 20.6259 11.8517 20.6978 11.9848 20.7248C12.118 20.7517 12.2563 20.732 12.3766 20.6688C12.4445 20.6315 12.5042 20.581 12.5524 20.5204C12.8696 20.1197 13.1824 19.6887 13.524 19.3182C14.066 18.7734 13.1535 17.9416 12.6115 18.5716ZM10.7852 18.2285L10.2721 18.8598C10.1662 18.9796 10.1102 19.1354 10.1156 19.2951C10.1209 19.4549 10.1873 19.6065 10.3009 19.7189C10.4198 19.8249 10.5749 19.8809 10.7341 19.8756C10.8932 19.8702 11.0442 19.8038 11.1557 19.6901C11.1557 19.6613 11.1845 19.6613 11.1845 19.6325L11.7553 19.0011C12.2959 18.315 11.2696 17.6274 10.7852 18.2285ZM15.2364 22.2688L16.1488 21.2656C16.7197 20.6343 15.7207 19.8328 15.1788 20.4627C14.8933 20.7798 14.5791 21.1215 14.2952 21.466C13.7229 22.0959 14.6382 22.8988 15.2364 22.2688Z" fill="white"/>
<path d="M9.67228 1.41006C10.6099 1.19984 11.5647 1.07536 12.5249 1.03817C13.6089 0.981952 14.7216 1.03817 15.8071 1.23997C17.8006 1.58592 19.7148 2.2951 21.4546 3.33006C22.7952 4.13438 24.0492 5.0742 25.1923 6.13799C25.4215 6.33979 25.6204 6.56898 25.8207 6.76934C20.4586 1.61186 11.9253 1.78483 6.79084 7.17006C5.96811 8.02497 5.26722 8.98924 4.70795 10.0356C4.36489 10.9236 4.44994 11.6688 5.02075 12.2137C6.16237 13.302 9.30183 13.56 10.9552 13.7315C11.5548 13.7603 12.2409 13.818 12.6964 13.6162C13.6377 13.1592 13.753 11.898 15.0921 11.898C15.2925 11.898 15.2074 11.9845 15.0921 12.0998C15.0027 12.1609 14.9255 12.2381 14.8644 12.3275C14.3224 13.0439 13.8654 13.7027 13.3508 14.4191C12.6402 15.3935 14.0946 16.4544 14.9494 15.48L15.8633 14.4191C16.1004 14.1684 16.4239 14.0172 16.7684 13.996C17.1128 13.9749 17.4524 14.0854 17.7184 14.3052C19.3717 15.7956 20.9977 17.3423 22.5674 18.8025C23.1382 19.3185 22.2834 20.2929 21.6838 19.663C20.7699 18.8039 20.4557 18.4292 19.5159 17.6565C19.3141 17.4562 19.0013 17.8007 19.2016 17.9737C19.9728 18.7174 20.3692 19.0893 21.1707 19.8057C21.7112 20.3218 20.9415 21.2385 20.2568 20.6374C19.5721 20.0349 19.144 19.6054 18.4881 18.9755C18.2878 18.7737 17.975 19.1182 18.1451 19.3185C18.7173 19.8346 19.1728 20.2929 19.7422 20.809C20.2856 21.3236 19.4582 22.1538 18.86 21.6119C18.3743 21.1809 17.8308 20.6648 17.3753 20.2353C17.2024 20.0911 16.8896 20.3794 17.0899 20.5236C17.4316 20.8378 18.0038 21.3538 18.3454 21.6695C18.8874 22.1265 18.1451 23.072 17.4892 22.5286L16.349 21.5542L16.4903 21.4389C16.9746 20.8666 16.4615 20.0349 15.9498 19.8922C15.8127 19.8398 15.663 19.8297 15.5202 19.8634C15.9771 19.062 14.5789 18.2302 14.0932 18.7751C14.0583 18.8083 14.0295 18.8473 14.0081 18.8904C14.0946 18.2029 12.953 17.6003 12.411 18.2591C12.3548 18.3167 12.3245 18.3456 12.2683 18.432C12.1818 17.6292 10.9278 17.3423 10.442 18.1149C9.90003 16.9978 5.39264 15.9946 4.16453 16.3102C3.88057 16.3679 3.65138 16.5409 3.45246 16.7398C1.71264 18.631 2.36849 23.96 4.82183 28.2857C-1.62718 21.7834 -1.59691 11.2695 4.85066 4.79312C6.24744 3.39188 7.87943 2.24681 9.67228 1.41006ZM8.27408 14.5906C7.10507 14.3311 6.13498 14.3038 6.07732 14.5329C6.02111 14.7636 6.9321 15.1629 8.07372 15.4209C9.21534 15.6803 10.2143 15.7077 10.2719 15.4785C10.3281 15.2479 9.44453 14.876 8.27408 14.5906Z" fill="white"/>
</g>
<g clip-path="url(#clip1_1104_11)">
<path d="M145.02 23.2934C144.302 22.1073 143.898 20.758 143.847 19.3727C143.612 15.9911 145.312 12.6959 149.621 12.6685C150.209 12.6685 150.794 12.7233 151.352 12.8949C151.087 12.497 150.647 12.2131 150.179 12.0703C149.805 11.9768 149.42 11.9389 149.036 11.9579C144.726 11.9867 142.996 15.2819 143.261 18.6621C143.436 20.51 143.995 22.1576 145.02 23.2949V23.2934ZM130.479 19.315C132.12 18.4934 133.41 16.9583 133.206 14.9979C133.141 14.2295 132.797 13.5114 132.239 12.9799C132.443 13.3777 132.589 13.8332 132.619 14.2585C132.824 16.3053 131.358 17.924 129.57 18.7212C129.951 18.861 130.244 19.0599 130.479 19.315ZM106.675 19.315C108.315 18.4934 109.605 16.9583 109.4 14.9979C109.336 14.2297 108.993 13.5117 108.435 12.9799C108.668 13.3777 108.785 13.8044 108.844 14.2585C109.049 16.3053 107.583 17.924 105.794 18.7212C106.117 18.861 106.412 19.0599 106.675 19.315ZM129.248 25.1125C129.98 26.221 130.977 27.1305 133.088 27.1305L136.285 27.044C136.016 26.8125 135.761 26.5656 135.521 26.3046L132.53 26.3911C130.889 26.4199 129.922 25.8794 129.248 25.1125ZM97.4105 16.5878C97.3802 14.9403 97.3514 14.3723 97.2635 13.3215C98.4238 13.0433 99.613 12.892 100.809 12.8675C101.517 12.8389 102.226 12.8955 102.92 13.0361C102.833 12.7233 102.363 12.4105 102.012 12.2693C101.423 12.1513 100.824 12.1034 100.224 12.1266C99.0206 12.1554 97.8184 12.3255 96.6754 12.5821C96.7935 13.8044 96.8224 14.9114 96.8527 16.5604L97.4105 16.5878ZM121.242 16.559C121.213 14.9114 121.184 14.3435 121.098 13.2941C122.258 13.0145 123.447 12.8617 124.644 12.8372C125.347 12.8098 126.079 12.866 126.754 13.0087C126.667 12.6959 126.196 12.3831 125.846 12.2419C125.258 12.124 124.658 12.0761 124.058 12.0992C122.855 12.128 121.651 12.2981 120.51 12.5547C120.599 13.7756 120.657 14.884 120.687 16.5316L121.242 16.559ZM105.413 25.114C106.147 26.2224 107.143 27.132 109.253 27.132L112.45 27.0455C112.182 26.8139 111.927 26.567 111.687 26.306L108.697 26.3925C107.055 26.4213 106.088 25.8808 105.413 25.114ZM97.4422 20.6786C98.7611 20.51 99.8753 20.4235 101.106 20.9352C100.719 20.4747 100.211 20.1305 99.6404 19.9406C98.5853 19.7129 97.9395 19.8267 96.8844 19.9694V20.6224C96.9132 23.7489 97.0602 25.1399 97.5575 26.0783H93.0141C92.9478 26.3349 92.8498 26.5828 92.7215 26.8163H98.1442C97.6181 25.8794 97.471 24.4869 97.4422 21.3619V20.6786ZM121.245 20.6498C122.565 20.4812 123.678 20.3961 124.91 20.9078C124.523 20.4474 124.015 20.1032 123.444 19.9132C122.388 19.6855 121.743 19.7994 120.69 19.9421V20.595C120.719 23.7201 120.866 25.1125 121.363 26.0494H116.819C116.762 26.3046 116.644 26.5612 116.525 26.7889H121.947C121.419 25.8505 121.301 24.4595 121.272 21.3345V20.6512H121.243L121.245 20.6498ZM74.8072 19.4303C75.8926 16.9871 75.6289 17.3576 76.8022 14.9403C76.6552 14.6289 76.5081 14.3161 76.3323 14.0033C74.9845 16.732 75.1301 16.6743 73.8991 19.4303H74.8072ZM87.8537 25.852C87.0033 24.6296 86.0952 22.6707 84.5427 19.1752C82.4887 14.6275 81.7564 12.6959 81.7262 11.5312H81.2577C81.5215 12.7522 82.2826 14.714 83.9835 18.4358C85.8602 22.7255 86.8274 24.6858 87.8537 25.8505V25.852ZM83.0465 26.0509C83.1042 26.2786 83.1935 26.5352 83.2224 26.7903H88.6148C88.3813 26.5626 88.2054 26.306 88.0008 26.0509H83.0465ZM69.0919 26.0509C68.9289 26.3063 68.7528 26.5531 68.5644 26.7903H71.995C72.2224 25.6252 72.5857 24.4907 73.0775 23.4102H81.755C81.6382 23.181 81.5503 22.9258 81.4335 22.6707H72.5211C72.016 23.7462 71.6517 24.8823 71.4372 26.0509H69.089H69.0919ZM49.0098 23.2646C50.6516 25.6804 53.9337 27.3006 58.5377 27.3857C61.1755 27.4131 63.7845 27.044 65.866 26.2469L65.6022 23.9478L65.164 24.203L65.3096 25.5103C63.2281 26.3046 60.6191 26.675 57.9813 26.6476C53.8472 26.59 50.7683 25.2538 49.0098 23.2646ZM66.16 12.9799C65.9015 12.845 65.637 12.7218 65.3672 12.6109L64.3121 14.3147L64.1968 14.5439C64.4303 14.7125 64.635 14.9403 64.8108 15.1392L66.16 12.9799ZM61.1755 12.5547C60.3758 12.3278 59.5429 12.241 58.7135 12.2981C53.5532 12.4394 51.8235 15.7936 51.9705 19.0037C52.0263 20.3927 52.5651 21.7187 53.4941 22.7529C52.9098 21.8549 52.5855 20.8127 52.5572 19.7417C52.4087 16.5331 54.1413 13.1788 59.2988 13.0361C60.3962 12.969 61.4954 13.134 62.5247 13.5204C62.1412 13.1149 61.6831 12.787 61.1755 12.5547Z" fill="#B9B9B6"/>
<path d="M139.82 23.1478C140.231 23.7445 140.7 24.2577 141.257 24.7117C143.428 26.5323 146.594 27.4144 149.438 27.3856C154.363 27.3856 159.877 25.0807 159.992 19.2213C160.074 17.4583 159.464 15.733 158.291 14.4141C159.083 15.6193 159.484 17.0401 159.437 18.4818C159.348 24.3701 153.807 26.6461 148.881 26.6461C146.505 26.6702 144.162 26.0825 142.078 24.9395C141.219 24.4903 140.453 23.8824 139.82 23.1478Z" fill="#B9B9B6"/>
<path d="M137.26 18.0726C137.145 23.9248 143.119 26.7183 148.012 26.6895C152.902 26.6607 158.439 24.2563 158.556 18.0726C158.703 12.1872 153.078 9.33454 147.806 9.42391C142.533 9.51616 137.378 11.8571 137.26 18.0726ZM64.4383 11.4953C62.1932 10.3143 59.6802 9.73568 57.1446 9.81598C49.763 9.90535 45.9821 13.8376 46.1291 18.6131C46.2762 23.0556 50.1724 26.5987 56.7915 26.7183C59.4264 26.7472 62.0354 26.358 64.114 25.519L63.8517 23.0859C62.0956 24.2136 60.0503 24.8079 57.9634 24.7969C53.0726 24.7969 50.9046 21.705 50.785 18.5843C50.6394 15.1897 52.3691 11.6466 57.5237 11.4953C59.8372 11.4376 61.9763 12.3371 63.0906 13.7482L64.4369 11.4953H64.4383ZM70.6783 18.0408C68.6271 22.8452 68.2466 24.1064 66.8412 26.0581H70.2675C70.4953 24.8286 70.8585 23.6308 71.3515 22.4848H80.2855C80.8044 23.6308 81.2052 24.8286 81.4862 26.0581H86.8484C85.7644 24.8574 84.7972 22.8437 82.7763 18.0408C80.754 13.238 79.9944 11.1969 79.9626 9.96589H73.6664C73.5785 11.1969 72.728 13.238 70.6783 18.0408ZM72.0549 20.8027C73.2844 17.8909 74.4578 14.9201 75.7738 12.0358C77.1216 14.9187 78.3511 17.8909 79.5821 20.8041L72.0549 20.8027ZM95.6931 19.6351C96.2281 19.5744 96.7662 19.5436 97.3046 19.5428C98.6826 19.5428 99.8819 19.7836 100.732 20.5028C101.701 21.2912 102.507 22.2605 103.105 23.3569C103.925 24.8863 104.803 26.5079 107.53 26.5079L110.722 26.4185C107.94 23.8657 106.913 19.9335 103.046 18.9129C105.42 18.5526 107.938 16.5403 107.673 13.718C107.382 10.4459 103.602 9.754 99.6772 9.754C96.7793 9.7582 93.8875 10.0196 91.0358 10.5353C91.6513 12.0358 91.7695 13.6891 91.7695 15.3699C91.7695 16.3299 91.7407 17.2913 91.7407 18.1619V20.2333C91.7104 23.5371 91.5634 25.127 91.0632 26.1172H96.4873C95.9583 25.127 95.8416 23.6553 95.8113 20.3529L95.696 19.6336H95.6931V19.6351ZM100.82 17.5926C99.8834 17.7425 98.9464 17.8016 97.9792 17.8016C97.1864 17.8016 96.4253 17.7727 95.6945 17.7425C95.6657 15.9983 95.6369 13.1486 95.5187 11.8571C96.6804 11.5777 97.8675 11.4169 99.0617 11.3771C100.731 11.3482 103.193 11.6163 103.573 13.6891C103.727 14.5662 103.532 15.4684 103.031 16.2045C102.787 16.5648 102.473 16.873 102.109 17.1113C101.745 17.3496 101.336 17.5132 100.908 17.5926H100.82ZM119.509 19.6034C120.044 19.5434 120.582 19.5135 121.12 19.514C122.498 19.514 123.697 19.7533 124.548 20.474C125.517 21.2613 126.323 22.2297 126.922 23.3252C127.742 24.8574 128.618 26.479 131.344 26.479L134.537 26.3882C131.755 23.8369 130.729 19.9017 126.861 18.8812C129.235 18.5208 131.752 16.5115 131.488 13.6891C131.197 10.4171 127.418 9.72517 123.493 9.72517C120.593 9.72517 117.694 9.99616 114.851 10.5064C115.467 12.007 115.585 13.6589 115.585 15.3381C115.585 16.301 115.556 17.261 115.556 18.1331V20.2045C115.526 23.5054 115.379 25.0967 114.879 26.0884H120.3C119.772 25.0967 119.656 23.6264 119.625 20.3241L119.509 19.6034ZM124.636 17.5911C123.699 17.7425 122.762 17.8016 121.793 17.8016C121.002 17.8016 120.239 17.7727 119.509 17.7425C119.48 15.9983 119.451 13.1486 119.334 11.8571C120.496 11.5777 121.683 11.4169 122.877 11.3771C124.546 11.3482 127.007 11.6163 127.389 13.6891C127.541 14.5661 127.347 15.4681 126.847 16.2045C126.602 16.5649 126.288 16.8732 125.924 17.1115C125.559 17.3497 125.151 17.5133 124.722 17.5926L124.636 17.5911ZM147.924 24.9785C144.115 24.8863 142.298 22.0654 142.064 18.2513C141.831 14.6794 143.53 11.1969 147.834 11.1666C151.438 11.1378 153.548 14.0178 153.723 17.9227C153.929 21.4945 151.906 25.127 147.924 24.9771V24.9785Z" fill="white"/>
</g>
<defs>
<clipPath id="clip0_1104_11">
<rect width="34.5946" height="34.5946" fill="white"/>
</clipPath>
<clipPath id="clip1_1104_11">
<rect width="113.874" height="18.7387" fill="white" transform="translate(46.127 8.64844)"/>
</clipPath>
</defs>
</svg>
