<svg width="79" height="13" fill="none" xmlns="http://www.w3.org/2000/svg"><path d="M68.607 10.16a5.665 5.665 0 01-.814-2.72c-.163-2.346 1.017-4.632 4.006-4.651.408 0 .814.038 1.201.157-.184-.276-.489-.473-.814-.572a2.71 2.71 0 00-.793-.078c-2.99.02-4.19 2.306-4.006 4.651.121 1.282.509 2.425 1.22 3.214zM58.519 7.4c1.139-.57 2.034-1.635 1.892-2.995a2.184 2.184 0 00-.671-1.4c.142.276.243.592.264.887.142 1.42-.875 2.543-2.115 3.096.264.097.467.235.63.412zm-16.514 0c1.138-.57 2.033-1.635 1.891-2.995a2.185 2.185 0 00-.67-1.4c.162.276.243.572.284.887.142 1.42-.875 2.543-2.116 3.096.224.097.428.235.61.412zm15.66 4.022c.508.769 1.2 1.4 2.664 1.4l2.218-.06a6.396 6.396 0 01-.53-.513l-2.075.06c-1.138.02-1.81-.355-2.278-.887zM35.578 5.508c-.021-1.143-.041-1.537-.102-2.266.805-.193 1.63-.298 2.46-.315a6.13 6.13 0 011.464.117c-.06-.217-.386-.434-.63-.532a5.273 5.273 0 00-1.24-.099c-.835.02-1.669.138-2.462.316.082.848.102 1.616.123 2.76l.387.02zm16.533-.02c-.02-1.143-.04-1.537-.1-2.265.805-.194 1.63-.3 2.46-.317.488-.019.996.02 1.464.119-.06-.217-.387-.434-.63-.532a5.274 5.274 0 00-1.24-.099c-.835.02-1.67.138-2.462.316.062.847.102 1.616.123 2.759l.385.02zM41.13 11.423c.509.769 1.2 1.4 2.664 1.4l2.218-.06a6.396 6.396 0 01-.53-.513l-2.074.06c-1.139.02-1.81-.355-2.278-.887zM35.6 8.346c.915-.117 1.688-.177 2.542.178a2.262 2.262 0 00-1.017-.69c-.732-.158-1.18-.079-1.912.02v.453c.02 2.169.122 3.134.467 3.785h-3.152c-.046.178-.114.35-.203.512h3.762c-.365-.65-.467-1.616-.487-3.784v-.474zm16.513-.02c.916-.117 1.688-.176 2.543.179a2.263 2.263 0 00-1.017-.69c-.733-.158-1.18-.079-1.911.02v.453c.02 2.168.122 3.134.467 3.784h-3.152c-.04.177-.122.355-.204.513H52.6c-.366-.651-.448-1.616-.468-3.784v-.474h-.02zM19.897 7.48c.753-1.695.57-1.438 1.384-3.115-.102-.216-.204-.433-.326-.65-.935 1.893-.834 1.853-1.688 3.765h.63zm9.051 4.455c-.59-.848-1.22-2.207-2.297-4.632C25.226 4.148 24.718 2.808 24.697 2h-.325c.183.847.711 2.208 1.891 4.79 1.302 2.976 1.973 4.336 2.685 5.144zm-3.335.138c.04.158.102.336.122.513h3.741c-.162-.158-.284-.336-.426-.513h-3.437zm-9.681 0a6.123 6.123 0 01-.366.513h2.38a10.53 10.53 0 01.751-2.345h6.02c-.081-.159-.142-.336-.223-.513h-6.183a9.591 9.591 0 00-.752 2.345H15.93zM2 10.14c1.139 1.676 3.416 2.8 6.61 2.859 1.83.019 3.64-.237 5.084-.79l-.183-1.595-.304.177.101.907c-1.444.551-3.254.808-5.084.789C5.356 12.447 3.22 11.52 2 10.14zm11.898-7.135a6.686 6.686 0 00-.55-.256l-.732 1.182-.08.159c.162.117.304.275.426.413l.936-1.498zM10.44 2.71a5 5 0 00-1.708-.178c-3.58.098-4.78 2.425-4.678 4.652a4.141 4.141 0 001.057 2.601 4.026 4.026 0 01-.65-2.089C4.358 5.47 5.56 3.143 9.138 3.044a5.425 5.425 0 012.238.336 3.015 3.015 0 00-.936-.67z" fill="#B9B9B6"/><path d="M65 10.059c.285.414.61.77.997 1.085 1.506 1.263 3.702 1.875 5.675 1.855 3.417 0 7.242-1.599 7.322-5.664A4.69 4.69 0 0077.814 4a4.85 4.85 0 01.795 2.822c-.062 4.085-3.906 5.664-7.323 5.664a9.613 9.613 0 01-4.72-1.184A5.317 5.317 0 0165 10.059z" fill="#B9B9B6"/><path d="M63.224 6.538c-.08 4.06 4.065 5.998 7.459 5.978 3.393-.02 7.234-1.688 7.315-5.978.102-4.083-3.8-6.062-7.458-6-3.658.064-7.234 1.688-7.316 6zm-50.52-4.563A10.177 10.177 0 007.644.81C2.523.872-.1 3.6.002 6.913c.102 3.082 2.805 5.54 7.397 5.623 1.828.02 3.638-.25 5.08-.832l-.182-1.688a7.487 7.487 0 01-4.085 1.187c-3.393 0-4.897-2.145-4.98-4.31-.101-2.355 1.099-4.813 4.675-4.918 1.605-.04 3.089.584 3.862 1.563l.934-1.563zm4.329 4.541c-1.423 3.333-1.687 4.208-2.662 5.562h2.377c.158-.853.41-1.684.752-2.479h6.198c.36.795.638 1.626.833 2.479h3.72c-.752-.833-1.423-2.23-2.825-5.562-1.403-3.332-1.93-4.748-1.952-5.602h-4.368c-.061.854-.651 2.27-2.073 5.602zm.955 1.916c.853-2.02 1.667-4.081 2.58-6.082.935 2 1.788 4.062 2.642 6.083h-5.222zm16.399-.81a10.04 10.04 0 011.118-.064c.956 0 1.788.167 2.378.666a6.674 6.674 0 011.646 1.98c.569 1.061 1.178 2.186 3.07 2.186l2.214-.062c-1.93-1.771-2.642-4.499-5.325-5.207 1.647-.25 3.394-1.646 3.21-3.604-.202-2.27-2.824-2.75-5.547-2.75a33.97 33.97 0 00-5.995.542c.427 1.041.509 2.188.509 3.354 0 .666-.02 1.333-.02 1.937v1.437c-.021 2.292-.123 3.395-.47 4.082h3.763c-.367-.687-.448-1.708-.469-3.999l-.08-.499h-.002zm3.557-1.417c-.65.104-1.3.145-1.971.145-.55 0-1.078-.02-1.585-.041-.02-1.21-.04-3.187-.122-4.083a12.26 12.26 0 012.458-.333c1.158-.02 2.866.166 3.13 1.604a2.375 2.375 0 01-.376 1.745 2.283 2.283 0 01-1.473.963h-.061zM50.909 7.6a9.96 9.96 0 011.118-.062c.956 0 1.788.166 2.378.666a6.671 6.671 0 011.647 1.978c.569 1.063 1.177 2.188 3.068 2.188l2.215-.063c-1.93-1.77-2.642-4.5-5.325-5.208 1.647-.25 3.393-1.644 3.21-3.602-.202-2.27-2.824-2.75-5.547-2.75-2.012 0-4.023.188-5.995.542.427 1.041.509 2.187.509 3.352 0 .668-.02 1.334-.02 1.939v1.437c-.021 2.29-.123 3.394-.47 4.082h3.761c-.366-.688-.447-1.708-.468-3.999l-.08-.5zm3.557-1.396c-.65.105-1.3.146-1.972.146-.549 0-1.078-.02-1.585-.041-.02-1.21-.04-3.187-.121-4.083a12.26 12.26 0 012.458-.333c1.158-.02 2.865.166 3.13 1.604A2.38 2.38 0 0156 5.242a2.284 2.284 0 01-1.474.963h-.06v-.001zm16.156 5.125c-2.642-.064-3.903-2.021-4.065-4.667-.162-2.478 1.017-4.894 4.003-4.915 2.5-.02 3.964 1.978 4.085 4.687.143 2.478-1.26 4.998-4.023 4.894z" fill="#403E3E"/></svg>