<svg width="32" height="32" fill="none" xmlns="http://www.w3.org/2000/svg"><path d="M9.974 2.766a13.858 13.858 0 012.49-.323c.946-.05 1.916 0 2.863.176 1.75.306 3.422.925 4.929 1.824a19.55 19.55 0 013.262 2.45c.2.176.373.375.547.55-4.681-4.502-12.125-4.352-16.606.349a11.259 11.259 0 00-1.817 2.499c-.3.776-.224 1.425.274 1.9.996.95 3.735 1.175 5.177 1.325.523.025 1.123.073 1.52-.1.822-.4.922-1.5 2.09-1.5.175 0 .101.075 0 .175a.76.76 0 00-.198.2c-.474.625-.872 1.2-1.32 1.825-.622.849.646 1.774 1.395.925l.796-.925a1.188 1.188 0 011.619-.101c1.445 1.301 2.863 2.65 4.232 3.925.498.45-.249 1.3-.771.75-.797-.75-1.072-1.075-1.893-1.75-.174-.175-.447.125-.273.276.671.65 1.02.974 1.717 1.6.473.45-.2 1.249-.797.724-.598-.524-.971-.9-1.543-1.45-.174-.175-.449.125-.298.3.498.45.896.85 1.394 1.3.472.45-.25 1.175-.772.7-.424-.375-.896-.824-1.296-1.2-.149-.125-.422.126-.249.25l1.096 1c.474.4-.173 1.224-.747.75l-.996-.849.125-.102c.424-.498-.025-1.223-.472-1.35a.639.639 0 00-.374-.024c.398-.7-.822-1.424-1.245-.95a.343.343 0 00-.075.1c.075-.6-.921-1.124-1.395-.55a.793.793 0 00-.123.15c-.077-.7-1.171-.95-1.594-.275-.474-.975-4.408-1.85-5.477-1.575-.25.05-.45.2-.623.375-1.519 1.65-.946 6.3 1.194 10.074C.114 20.54.138 11.367 5.791 5.717a14.3 14.3 0 014.182-2.952l.001.001zm-1.22 11.501c-1.021-.225-1.868-.249-1.917-.05-.05.2.747.55 1.743.776.994.224 1.866.249 1.917.05.049-.2-.723-.527-1.743-.776z" fill="#ED1C24"/><path d="M11.791 18.116c.474-.6-.423-1.2-.845-.675l-.45.549a.548.548 0 00.025.75.529.529 0 00.38.138.545.545 0 00.368-.162c0-.025.024-.025.024-.05l.498-.55zm-7.096-2c-.398.524-.323 1.075-.2 1.925.077.375.15.799.275 1.225a11.323 11.323 0 002.987 5.073 11.988 11.988 0 004.208 2.725l.598.126c.82.175 1.419 0 1.792-.527.374-.524.523-1.548.4-2.974-.026-.424-.077-.848-.126-1.299-.024-.275-.05-.45-.074-.726 0-.025 0-.073.05-.073h.024c.175 0 .3-.026.672-.376.14-.144.274-.294.4-.45.2.2.596.574.796.725.474.5.872.375 1.095.3.05-.025.1 0 .1.075l-.05.45c-.05.4-.1.824-.149 1.274-.124 1.576 0 2.651.374 3.251.347.574.92.673 1.69.425l1.272-.425c3.934-1.727 6.623-5.5 6.995-9.825-.023-.675-.323-1.074-.946-1.225-.747-.175-4.73.55-5.526 1.376-.05.05-.125.073-.2 0-1.419-1.301-2.34-2.176-3.759-3.5a1.448 1.448 0 00-1.01-.323 1.43 1.43 0 00-.957.448c-.348.4-.497.625-.846 1.025-.449.575-1.22.1-.796-.526.398-.55.796-1.074 1.194-1.624.922-1.125 1.817-.9 2.813-.225.15.1.523.35.697.45.4.25 1.145.75 2.017.75 1.543-.125 4.58-.375 5.626-1.325.498-.475.623-1.075.35-1.825a11.36 11.36 0 00-2.018-2.724c-2.887-3-7.79-6.4-14.389-4.95 3.536-1.65 7.468-1.5 10.083-.7a14.27 14.27 0 016.074 3.624c5.627 5.649 5.653 14.824.025 20.473-5.627 5.65-14.763 5.675-20.391.026a15.372 15.372 0 01-2.066-6.75c-.025-1.424.2-2.624.896-3.375zm10.932 3.975c.498-.55-.374-1.25-.846-.7a27.57 27.57 0 00-.773.876c-.498.55.3 1.25.823.7l.796-.876zm-.946-1.124c.497-.526-.4-1.2-.822-.676l-.996 1.2c-.498.6.3 1.225.798.676l1.02-1.2zm-1.345-.575c-.298.325-.572.7-.845 1.05a.487.487 0 01-.344.187.518.518 0 01-.379-.113.516.516 0 01-.075-.724c.274-.325.573-.7.845-1.05.474-.55 1.272.176.798.65z" fill="#ED1C24"/><path d="M25.037 14.24c-.051-.198-.897-.175-1.917.05-.997.226-1.793.576-1.744.776.051.199.921.174 1.917-.05.997-.225 1.793-.575 1.744-.775z" fill="#ED1C24"/></svg>