<svg fill="none" height="32" viewBox="0 0 121 32" width="121" xmlns="http://www.w3.org/2000/svg"><path d="m13.613 24.2498s.4168-.1702.4545-.2922l-.0553-.138c-.0391-.0898-.0337-.1877.0418-.2412l.4505-.3097.7527.1434s-.1363-.1689-.1228-.3954l-.7175-.1515-.6771.4102c-.29.2158-.3116.5682-.2158.7773z" fill="#fff"/><path d="m18.9323 26.1985c.1348-.0053.2832-.008.4464-.008 0 0 .3872-1.1245.4086-1.1606-.217-.0952-.6676-.3326-.8416-.441.1147.1702.3939.3658.3386.516z" fill="#fff"/><path d="m22.6169 19.5293h-10.6999v3.9995c0 1.6352 1.1911 2.6592 2.9485 2.6592 1.4688 0 1.8558.0562 2.4022.5951.3763-.3726.6879-.5121 1.3272-.5643l.0148-.0616.3372-1.0361c-.0189-.0228-.5705-.646-.5705-.646-.2185.0724-.4019.0845-.7108.0845-.317 0-.6744-.0363-1.0615-.1086-.0392-.0094-.0756-.0121-.112-.0121-.0472 0-.0512.004-.0634.0268l-.0674.1099-.1228.201-.2306-.0522-1.0264-.24-.1404.2306.0216.0241.1255.1367-.0553.1783c-.0756.2332-.321.5053-.3952.5804l-.2563.2734-.2333-.2935-.1753-.2185c-.1849-.2051-.2279-.5201-.1241-.8497-.0028.0026-.0068.0039-.0108.0039l-.29.1193-.1309-.2815-.0917-.1996c-.1577-.3512-.0998-.8645.3252-1.1742l.8268-.4637.7863.1542c.0189-.0752.0471-.3432.0701-.4115-.0148-.0013-.0296-.0054-.0446-.0054l-.4531.1675-.4371-.3002s-.1712-.1636-.0162-.327l.4236-.6366-1.0723-1.3378 1.6482.673.1093-.1354.2225-.2641.2523.2386c.0714.0683.1119.1527.1321.2372.4545.1756 1.2679.6943 1.3393 1.5373l-.2548.1019v.0067c.058.0684.1065.0966.1213.0992l1.1762.1153c.0297-.0054.0675-.0188.1093-.0309.1456-.0495.3655-.1206.6258-.1206.2118 0 .4167.0482.6136.1394.0729-.0268.162-.0469.2645-.0536l.0565-.0013c.63 0 .9428.4677 1.1938.8404.0418.0642.0836.1259.1268.1862.2198.3083.507.76.5192.7788l.1295.2011-.1592.1836c-.1227.1406-.3061.3056-.6217.3056-.0648 0-.1362-.0068-.2131-.0216-.0674-.012-.1281-.0322-.1875-.0562-.0094.0616-.0216.1354-.0338.1983l-.2063 1.0696c1.2341-.3015 2.0178-1.2277 2.0178-2.5519z" fill="#ffdd2d"/><path d="m11.9173 19.2076h8.3206c-.4154-.4262-.41-.9663-.3034-1.3175-.1214-.0577-.2212-.1274-.3102-.2024-.3251.2385-1.3178.957-1.5768 1.1365l-.0552.0376-3.2655-.587h-.0661c-.0782 0-.1928-.0028-.3183-.0175-.0351.1461-.1618.2467-.3075.2467-.0162 0-.0351-.0014-.0526-.0055-.085-.0147-.1591-.0576-.209-.1286-.0513-.0697-.0715-.1528-.0567-.2385l.0121-.0698c-.3372-.2358-.6474-.7626-.5098-1.3175l.0134-.0589.0473-.0336c.0067-.0053.0633-.0428.147-.0911l-.2374-.0362c-.089-.0161-.1483-.0979-.1348-.1849.0148-.0885.0984-.1516.1861-.1341l.5651.0885.0513-1.9784.8416-.8846.5247 1.0978-.5544 1.9032.4991.0778c.0876.0134.1484.0951.1349.1849-.0135.0791-.0809.1341-.1605.1341-.0082 0-.0176 0-.0257-.0014l-.406-.0656c.0055.012.0135.0186.0189.032.0432.0886.139.1529.1956.1797l2.4899.0389c.1051-.1019.3669-.3566.6353-.626-.6124-.2305-.835-.7559-.8728-1.1044-.3425-.1448-.5786-.3618-.7094-.6447-.1592-.3497-.1025-.6996-.0607-.8698-.3318-.1207-.6811-.3404-1.0372-.6916h-3.7496c.1605.4288.2967.894.2967 1.3564z" fill="#ffdd2d"/><g fill="#000"><path d="m15.3445 21.2651c-.0607-.0054-.1119.0414-.116.1004-.004.0616.0418.1139.1039.1152.0593.0054.1119-.0402.1173-.1004 0-.059-.0431-.1139-.1052-.1152z"/><path d="m22.6024 28.5174-.6164-.2346.1699-.6326.1875-.6902s-1.0925.5884-2.6315 1.0308c-.437.1246-.7674.1808-.7674.1808v.4691s-.8228.1421-1.655.1421h-.0095-.0121-.0162-.0094c-.8322 0-1.655-.1421-1.655-.1421v-.4691s-.3318-.0562-.7674-.1808c-1.539-.4424-2.6302-1.0308-2.6302-1.0308l.1848.6902.174.6326-.6178.2346-.6851.2546c.7863.3767 1.8747.9263 2.8716 1.197l-.2347.638s1.2638.5723 3.3692.5777v.0013h.0068.0094.0082.0053v-.0013c2.1082-.0054 3.3706-.5777 3.3706-.5777l-.2361-.638c.9968-.2707 2.088-.8203 2.8703-1.197zm-10.6258.2976 1.0143-.335-.2994-.9718c.4464.252 1.4486.6299 2.0285.8055l-.4895 1.3363c-.8957-.2452-1.6416-.5308-2.2539-.835zm5.2913 2.0346c-1.1775 0-2.5222-.2694-2.9174-.4088l.6015-1.6178c.4991.1448 1.5377.2989 2.2916.2935h.0014.0229.0202.0028c.754.0054 1.7898-.1487 2.2916-.2935l.6001 1.6178c-.3951.1407-1.7385.4088-2.9147.4088zm3.0348-1.1996-.4882-1.3363c.5812-.1756 1.5806-.5535 2.0285-.8055l-.2981.9718 1.013.335c-.6138.3042-1.3556.5898-2.2552.835z"/><path d="m17.2666 3.26585c1.2544 0 2.2578.41288 2.8122.85386 0 0 .1646-.98519.727-1.855l-1.0102.11388-.5287-1.11645-1.0157.52006-.9846-.967747-.9819.967747-1.0169-.52006-.5274 1.11645-1.0103-.11388c.5624.86981.727 1.855.727 1.855.5557-.44098 1.5565-.85386 2.8095-.85386zm-2.5722-.4959.2806.02953.1214-.25333.3534-.75056.6555.33636.2536.1287.2023-.19833.7068-.69696.7081.69696.2023.19833.2536-.1287.6515-.33636.3574.75056.1187.25333.2805-.02953.2671-.03217c-.1228.27483-.2132.53477-.278.75064-.7067-.39136-1.6266-.61393-2.5639-.61393-.9333 0-1.8519.22257-2.5614.61393-.066-.21587-.1551-.47722-.2779-.75064z"/><path d="m31.9832 16.3379c1.6226 0 2.1648-1.6405 2.1877-1.7102l.1807-.5778-.6083.0188h-.0026c-.2145 0-2.0044-.0469-3.2736-1.6499l-.12-.1487c-.8295-1.0482-1.6158-2.044-3.0213-2.49844.0405-.03613.0985-.08173.1781-.13266.7458-.48787 1.1801-1.08034 1.2894-1.76787.1591-1.03473-.5044-1.85904-.5341-1.89254l-.4519-.55487-.2818.65809c-.0189.04152-.4937 1.09505-1.4918 1.09505h-.0742c-.0688-.00406-.1336-.00673-.1983-.01213.0352-.4704-.0513-1.19821-.7148-1.88045-.7972-.8216-1.7764-.94492-2.2888-.94492-.2739 0-.456.0335-.4749.03623l-.6824.13398.4208.55091c.3305.42486.6298 1.20899.275 1.61912-.1132.13-.3465.23586-.5704.34173-.4599.2104-1.0872.5026-1.0872 1.24787 0 .48253.3764.98646 1.0588 1.41533 2.0206 1.26257 3.2668 2.58017 3.805 4.03437.8322 2.237-.2536 3.513-1.3084 4.1845l-.4734.3029.4141.3779c.0553.0483.5625.4919 1.311.5563.1416.0094.2778.0174.4047.0174.4801 0 .8888-.075 1.2206-.1756-.0918.1595-.2037.3217-.3453.4852-.6028.6942-1.3447 1.0106-2.4116 1.0267l-.3966.0067-.031.3954c-.0041.079-.0337.8122.6649 1.4355.1066.0964.2361.1756.371.2413-.4734.4235-.955 1.1606-1.048 2.4246-.0782 1.0548-.3318 1.4448-.3345 1.4488l-.4383.6648.7917.0108c1.3084 0 2.3104-.3592 3.005-1.0696.4101-.4209.6448-.8954.7838-1.3162.2279.193.522.3618.9049.4516.1457.0336.3049.0523.4762.0523.3696 0 .6784-.0777.7135-.0857l.5057-.1341-.2238-.4691c-.0162-.0375-.4384-.9784.0161-2.3214.1956-.5804.2954-1.1004.3439-1.5052.3184.1648.7447.3016 1.2963.3029 1.2516 0 1.8033-.9288 1.8289-.9677l.2469-.4262-.4572-.1876c-1.4919-.6152-1.8223-2.2679-1.8884-3.1632.1349.0255.2887.0496.4626.055zm1.1828 3.5035s-.437.7547-1.4391.7547h-.0121c-1.2032-.0068-1.6887-.7359-1.6887-.7359s.0701.949-.3642 2.2289c-.522 1.5428.004 2.6459.004 2.6459s-.2805.075-.6042.075c-.1241 0-.2536-.0121-.375-.0443-1.0048-.2372-1.2556-1.1459-1.2556-1.1459s.093 3.0707-3.5096 3.0707h-.0283s.3169-.429.4113-1.6634c.1713-2.2785 1.7238-2.5908 1.7238-2.5908s-.8282-.1032-1.187-.4235c-.5611-.5053-.5219-1.0897-.5219-1.0897 1.2678-.0174 2.0973-.4463 2.7299-1.1741.6852-.7881.7985-1.6365.7985-1.6365s-.6812.6138-1.9988.6138c-.116 0-.2402-.0054-.367-.0174-.6231-.0496-1.0547-.4437-1.0547-.4437 1.3716-.8739 2.3347-2.3991 1.481-4.6965-.6839-1.8402-2.3267-3.2153-3.9803-4.25137-.5503-.3418-.8565-.72107-.8565-1.04813 0-.76934 1.1006-.79347 1.5525-1.31087.5205-.60045.1941-1.57481-.2577-2.16053 0 0 .1524-.03085.3925-.03085.4761 0 1.3003.11926 1.9773.81623.8997.92481.5261 1.93142.5261 1.93142l.2414.04693c.1443.0308.2873.0362.4357.04287.0323 0 .0647.00133.0971.00133 1.307 0 1.891-1.35777 1.891-1.35777s1.3893 1.69824-.6555 3.02777c-.3521.22787-.5072.43827-.4667.66347l.0324.1475.1456.0254c1.4823.3994 2.2323 1.4154 3.1481 2.5707 1.3906 1.7572 3.3585 1.8135 3.6013 1.8135h.0256s-.4492 1.4086-1.7723 1.4086c-.0216 0-.0405 0-.0634-.0012-.6083-.0216-.9199-.2534-.9199-.2534s-.2387 3.1993 2.1634 4.1911z"/><path d="m29.1331 9.94858c.6055.32022.9576.74922 1.2665 1.12982.3034.3712.5921.7291 1.0425.8779.1605.055.3305.0805.5031.0805.6771 0 1.357-.4116 1.6145-.9812l.259-.571-.6271-.0375c-.0298-.0013-.8363-.0737-1.7346-.98645-.3696-.37387-.816-.571-1.2976-.571-.588 0-1.0237.2922-1.0722.32173l-.5773.40347zm1.0277-.62726c.3021 0 .6542.10179.9874.44359 1.0452 1.05489 2.0177 1.11379 2.0177 1.11379-.1767.3887-.6892.7305-1.2193.7305-.1227 0-.2455-.0188-.3682-.0603-.7189-.2413-.9766-1.3135-2.2404-1.98105 0 0 .3535-.24653.8228-.24653z"/><path d="m29.4161 15.6438v.0215c-.3641-2.9192-2.4979-5.0275-4.8718-6.31019-.2198-.11667-.4221-.2158-.6191-.311.723.11127 1.887.12467 2.7852-.65007 0 0-1.3744 1.00527-4.1906.09254.7796.5026 2.2943 1.21166 3.6768 2.36022 3.457 3.0184.9832 5.963.9832 5.963 1.2423-1.2879 1.2935-2.6684.928-3.7956.6542 1.0816 1.0723 2.395 1.0075 4.0142-.0957 2.32-1.3784 4.3265-2.7286 5.9389-.6487.7827-.7943 1.7437-.7943 1.7437s.2616-.8484 1.0128-1.721c1.4473-1.6833 2.6841-3.4325 2.846-5.9523.1497.4571.7661 1.7291 1.744 2.2075.0026.0014-1.2261-.7344-1.7791-3.6014z"/><path d="m10.9932 26.445c-.0013-.004-.2522-.3941-.3331-1.4489-.0944-1.2639-.5746-2.0011-1.04937-2.4246.1376-.0644.26433-.1434.37093-.2412.69734-.6234.66764-1.3564.66354-1.4355l-.0269-.3954-.3993-.0067c-1.06414-.0175-1.8074-.3338-2.41027-1.0268-.14027-.1634-.25354-.3256-.34527-.4851.33174.1005.73773.1756 1.21927.1756.12953 0 .26307-.0081.40467-.0175.74853-.0643 1.2557-.5066 1.3123-.5562l.4141-.3779-.4734-.303c-1.0588-.6728-2.14054-1.9488-1.30967-4.1844.53813-1.4543 1.78307-2.7718 3.80627-4.0344.6825-.42894 1.0561-.9328 1.0561-1.41534 0-.7452-.6258-1.03873-1.0858-1.24786-.2239-.10587-.4572-.21174-.5704-.34174-.3562-.40882-.0554-1.1942.2737-1.61914l.4235-.55082-.6852-.13407c-.0202-.00265-.1996-.03614-.4747-.03614-.5126 0-1.4891.12331-2.2876.94491-.66494.68357-.75254 1.41133-.71887 1.8804-.06474.0054-.12947.00813-.19693.01206h-.0728c-1.0008 0-1.4742-1.0534-1.49307-1.095l-.282-.6581-.45587.55488c-.0256.03358-.69187.85916-.53004 1.89256.10789.68753.54218 1.27993 1.28804 1.76786.08094.05094.1376.09647.17807.13274-1.40405.4543-2.18907 1.4515-3.0186 2.4996l-.12005.1488c-1.2678 1.603-3.06173 1.65-3.276178 1.65l-.610934-.0188.186073.5776c.021594.0697.562454 1.7103 2.186349 1.7103l.07827-.0026c.17127-.0054.32508-.0282.46267-.055-.06751.8939-.39797 2.5466-1.89106 3.1631l-.455889.1877.246901.4262c.024238.0388.577258.9677 1.831558.9677.54765-.0014.97383-.1381 1.29354-.3029.04856.4047.14834.9248.34393 1.5051.45457 1.343.03103 2.2839.01481 2.3215l-.22388.4691.50718.134c.03368.008.34527.0857.71345.0857.17267 0 .33187-.0187.47486-.0522.3844-.0898.68106-.2586.90627-.4517.1376.4208.37366.8953.7824 1.3162.69586.7103 1.69666 1.0695 3.005 1.0695l.7931-.0106zm-.3831.2453c-3.60257 0-3.51077-3.0707-3.51077-3.0707s-.25087.9087-1.25574 1.146c-.12005.0321-.24821.0443-.37365.0443-.32366 0-.6029-.0752-.6029-.0752s.52331-1.103.00132-2.6457c-.43156-1.2801-.3614-2.2289-.3614-2.2289s-.48426.7291-1.68868.7358h-.01217c-1.00212 0-1.43914-.7546-1.43914-.7546 2.40081-.9905 2.16475-4.1885 2.16475-4.1885s-.3115.2305-.9212.2533c-.02159.0014-.04178.0014-.06338.0014-1.32455 0-1.772325-1.4087-1.772325-1.4087h.026966c.244169 0 2.209359-.0563 3.599929-1.8135.91583-1.1553 1.66709-2.17 3.14669-2.5706l.14833-.0255.03247-.14747c.04046-.2252-.11334-.4356-.46534-.66347-2.04478-1.33093-.65553-3.0278-.65553-3.0278s.58133 1.35647 1.891 1.35647c.03233 0 .06206-.0014.09573-.0014.147-.00807.29274-.0134.43567-.0442l.24146-.04693s-.37366-1.00656.52734-1.93137c.67717-.69829 1.50117-.81623 1.97597-.81623.2414 0 .3912.03077.3912.03077-.4505.58705-.7769 1.56017-.2564 2.16063.4506.516 1.5498.54146 1.5498 1.3108 0 .32566-.3061.7064-.8564 1.04813-1.655 1.03607-3.29777 2.41117-3.98031 4.25147-.85239 2.2973.10927 3.8212 1.48371 4.6965 0 0-.43164.394-1.05611.4436-.12679.0121-.24953.0174-.36826.0174-1.3164 0-1.99753-.6139-1.99753-.6139s.11326.8485.79446 1.6366c.6366.7277 1.46614 1.1567 2.73404 1.1741 0 0 .0404.5844-.5207 1.0896-.36007.319-1.18834.4236-1.18834.4236s1.55384.3123 1.72384 2.5908c.093 1.2344.4073 1.6634.4073 1.6634z"/><path d="m2.58649 12.0388c.174 0 .34393-.0255.50436-.0805.45324-.1488.74051-.5066 1.04399-.8779.31027-.3807.65959-.8095 1.26514-1.12987l.6232-.3324-.57868-.40346c-.04857-.0308-.48286-.3216-1.06956-.3216-.48285 0-.93063.19566-1.29889.57086-.89829.91147-1.7035.98517-1.73321.98657l-.627142.0361.257647.5723c.258875.567.937335.9799 1.613145.9799zm.79842-2.27187c.3345-.34186.68656-.44366.99003-.44366.46665 0 .82002.24653.82002.24653-1.26241.6689-1.52138 1.7399-2.24302 1.9811-.11865.0415-.24275.0603-.36545.0603-.53011 0-1.04267-.3405-1.21799-.7305 0-.0013.97109-.0604 2.01641-1.11377z"/><path d="m5.4175 17.0298c-.06743-1.6191.35073-2.9326 1.00618-4.0142-.36553 1.1272-.3156 2.5077.928 3.7958 0 0-2.47372-2.9447.98454-5.9631 1.38393-1.14866 2.89728-1.85773 3.67558-2.36033-2.81498.91274-4.18945-.09246-4.18945-.09246.89827.77473 2.06233.76133 2.78535.6488-.1956.09506-.4007.19426-.61788.31086-2.37647 1.28263-4.50894 3.39103-4.87448 6.31023v-.0228c-.55161 2.867-1.77904 3.6028-1.77904 3.6028.97656-.4786 1.59164-1.7492 1.74131-2.2075.16325 2.5198 1.40001 4.2689 2.84727 5.9523.75127.8725 1.01567 1.721 1.01567 1.721s-.147-.9611-.79847-1.7438c-1.34746-1.6097-2.63018-3.6175-2.72458-5.9376z"/><path d="m16.4532 11.123v.579c.201-.2426.5895-.1929.5895-.1929v.835s-.0135.4101-.1605.5883h.4208.4194c-.1442-.1768-.1592-.5883-.1592-.5883v-.835s.3885-.0497.5882.1929v-.579h-.8484z"/><path d="m16.0917 7.68919c.2684.21186.4235.24666.4289.25073l.1052.0482v-.54553l-.9873-.4128c0 .00133.0094.31626.4532.6594z"/><path d="m18.44 7.68919c.4464-.34314.4545-.6594.4545-.6594l-.9873.4128v.54553l.1038-.0482c.0068-.00407.1606-.03887.429-.25073z"/><path d="m20.2186 5.46829c0-.82697-1.4014-1.57083-2.9484-1.57083h-.0014-.004-.004c-1.5471 0-2.9485.74386-2.9485 1.57083l.0311.20371.6176 3.52369-.6203.35786-1.6051.93155h.0054s-.3614.1836-.5288.2975c-.6109.4223-.7404 1.0374-.3857 1.2921.0877-.5013.4869-1.0267 1.2341-1.0267.5382 0 .9482.2761 1.2801.6903.0849.1045.1659.2158.2414.3364.093.1514.1861.2842.2792.4129h-4.134c.3035.6071.5921 1.2505.5921 1.9488v9.0926c0 2.2008 1.7035 3.2516 3.5459 3.2516 1.4243 0 1.6159-.0643 2.4023.713.7822-.7786.9738-.713 2.3994-.713 1.8438 0 3.5446-1.0508 3.5446-3.2516v-9.0926c0-.6983.2887-1.3417.5935-1.9488h-4.1354c.0917-.1274.1848-.2615.2778-.4129.0769-.1206.1565-.2319.2401-.3364.3345-.4155.7432-.6903 1.2814-.6903.7472 0 1.1451.5241 1.2341 1.0267.3548-.2547.2266-.8698-.3885-1.2921-.1645-.1139-.526-.2975-.526-.2975h.0054l-1.605-.93155-.6178-.35786.6178-3.52369zm-5.298.41014 2.1716.73179v3.38967l-1.5983-.83767zm.4492 7.20017c.3561.3524.7054.571 1.0372.6916-.0432.1702-.0998.5214.0607.8712.1308.2814.3682.4986.7094.6434.0378.3485.259.8725.8727 1.1044-.2684.2694-.5301.5227-.6366.6259l-2.4886-.0389c-.0566-.0282-.1524-.0911-.1954-.1809-.0055-.0121-.0136-.0188-.0176-.0322l.4059.0657c.0095.0013.0175.0013.0257.0013.0782 0 .147-.0536.1605-.134.0135-.0898-.0472-.1716-.1349-.185l-.499-.0777.5543-1.902-.5247-1.0976-.8416.8846-.0513 1.9782-.5651-.0884c-.0877-.0174-.1713.047-.1861.134-.0135.0872.0458.1689.1348.185l.2374.0362c-.0849.0483-.1402.0858-.147.0911l-.0486.0335-.0135.0591c-.1375.5549.174 1.0816.51 1.3175l-.0122.0696c-.0135.0859.0054.1689.0566.2386.0486.0711.1241.114.2077.1287.0176.0027.0364.004.0527.004.1456 0 .2724-.1005.3088-.2465.1254.0146.2401.0173.3183.0173h.0661l3.2654.5857.0553-.0361c.2603-.181 1.2517-.8993 1.5767-1.1367.089.0765.1888.1462.3102.2038-.1052.3511-.1119.8913.3049 1.3176h-8.322v-4.7729c0-.4624-.1362-.9275-.2967-1.3564h3.7496zm4.0355 4.3668c-.3304.2412-1.1801.8577-1.4877 1.0722l-2.9673-.5294c.0068-.0268.0135-.0523.0203-.0791.039-.1529.0782-.3619.0809-.6071l2.4939.0402.0472-.0484c.0378-.0374.8282-.7961 1.2314-1.233.0958.1192.2158.2332.3722.3337-.0539.2895-.031.7023.2091 1.0509zm-4.9675-.5108c.0701.1462.1968.244.2846.299-.0028.1366-.0162.3498-.0526.5374-.0082.0416-.0189.0804-.0311.1193-.0067.0242-.0135.0443-.0189.0603-.1308 0-.3884-.016-.5988-.0924-.2333-.0858-.5813-.5107-.5004-.9784.1012-.0618.3345-.1918.553-.1918.1686-.0013.2832.0778.3642.2466zm-.3089-.5883.0499-1.8993.4289-.4516.2698.5602-.5315 1.8228zm5.2495 9.8459c-.1619 0-.3116.0027-.4465.0081l.3534-1.0924c.0553-.1515-.2239-.3458-.3386-.516.174.1086.6245.3458.8417.441-.0229.0348-.41 1.1593-.41 1.1593zm1.1086-1.2411-.2306 1.1956c-.147.0201-.3034.0307-.464.0375l.2428-1.15c.0728-.3418-.851-.4477-1.3069-1.1192-.2226.2493-.6421.3231-1.0629.3231-.3844 0-.7688-.0617-1.0022-.1073-.0593-.0093-.116-.016-.1712-.016-.1349 0-.2577.0415-.3426.1836l-.0675.1126-1.2583-.2949-.313.5147c-.0445.0831-.0472.1542.0243.2318l.0849.0926c-.058.1822-.3196.457-.3196.457l-.1874-.232c-.1485-.1648-.1242-.465.031-.7438l.499-.8377 1.0656.1528-.166-.3753c-.2225-.4959.116-1.1272.1524-1.4904-.0121.1099-.1133.134-.232.134-.1078 0-.2279-.0201-.3075-.0201-.031 0-.058.0027-.0728.0134l-.2887.1743-.2279-.1998c-.027-.0388-.0364-.1286.031-.1956l.5274-.5871-.6231-.7224.8726.4356.2657-.3203c.0729.071.0419.2573.0419.2573.2724.0067 1.0358.4263 1.0763 1.4047.0027.0294.0027.063.0027.095 0 0 .0068.0122.0202.0322.054.0738.2023.2628.3911.2802l1.2059.118h.0053c.1323 0 .3953-.1542.7324-.1542.1835 0 .3885.0469.607.1836 0 0 .1092-.0858.2873-.0952.0134-.0013.0284-.0013.0418-.0013.5409 0 .7648.4853 1.0548.8887.2185.3069.5098.7626.5098.7626-.1079.1273-.2078.197-.375.197-.0458 0-.0984-.004-.1551-.0147-.58-.1059-.6635-1.2907-.994-1.3846-.0175-.0053-.0364-.0067-.0526-.0067-.1066 0-.1537.0939-.1537.0939.1509.4033.0633.5669.2252.8779.1213.2305.3371.4208.4262.5106 0 .0027-.0243.177-.05.3083zm-6.4754-1.1313.0552.1382c-.0364.1206-.4544.2921-.4544.2921l-.0905-.1957c-.0957-.2091-.0755-.5616.2159-.7774l.677-.4101.7176.1514c-.0135.2265.1227.3955.1227.3955l-.7526-.1434-.4505.3096c-.0755.0522-.0809.1501-.0404.2398zm6.5888 2.2612.2064-1.0696c.0107-.063.0242-.1367.0336-.1984.058.0242.1201.0443.1875.0564.0769.0147.1483.0214.2131.0214.3157 0 .4991-.1649.6218-.3056l.1592-.1836-.1295-.201c-.0121-.0202-.2981-.4705-.5193-.7788-.0432-.0603-.085-.1206-.1268-.1863-.2508-.3727-.5651-.8403-1.195-.8403l-.0566.0013c-.1039.0067-.1929.0267-.2644.0535-.1983-.0924-.402-.1393-.6138-.1393-.2602 0-.4801.0711-.6258.1206-.0418.0121-.0795.0255-.1092.0309l-1.1775-.1154c-.0148-.0026-.0634-.0307-.1214-.1004v-.0054l.2549-.1019c-.0714-.843-.8861-1.3617-1.3406-1.5373-.0202-.0845-.0607-.169-.1322-.2372l-.2536-.2386-.2226.2654-.1092.1354-1.6482-.673 1.0723 1.3377-.4235.6367c-.1552.1635.0162.327.0162.327l.4369.2989.4533-.1675c.0161 0 .0296.004.0444.0053-.0215.0683-.0498.3364-.0688.4115l-.7863-.1542-.8268.4638c-.4249.3096-.4829.823-.325 1.1742l.0917.1996.1308.2815.2886-.1193c.0041-.0014.0082-.0027.0108-.0053-.1038.3297-.062.6433.1241.8497l.1753.2198.2334.2936.2563-.2735c.0755-.0751.3197-.3471.3952-.5803l.0553-.1784-.1254-.1366-.0203-.0241.1403-.2306 1.0264.2399.2306.0523.1228-.2011.0674-.1099c.0122-.0227.0162-.0268.0634-.0268.0364 0 .0728.0041.112.0121.387.0724.7444.1086 1.0614.1086.3076 0 .491-.0121.7108-.0844 0 0 .5517.6218.5706.646l-.3372 1.0347-.0148.063c-.6394.0509-.9509.1903-1.3272.5643-.5463-.5389-.9334-.5951-2.4022-.5951-1.7575 0-2.9484-1.024-2.9484-2.6592v-3.9981h10.6985l.0027 3.9981c.0013 1.3269-.7823 2.2517-2.0164 2.5533zm2.3131-13.0024c-.1631.4289-.2994.894-.2994 1.3564l.0014 2.9836c-.6273-.1046-.7014-.7762-.7041-.8056l-.0122-.1367-.1348-.0121c-.2725-.0254-.4532-.1408-.6056-.2881-.3076-.3056-.309-.8015-.3076-.8056-.004.0255-.3385.4905.05.9985.1631.2145.3992.3459.7054.3982.0714.3726.3506.8979 1.0089.9784v1.4609h-1.8506c-.8538-.4717-.4923-1.3028-.4748-1.3376l.0729-.1582-.1632-.0617c-.924-.3404-.6704-1.2572-.6569-1.296l.0377-.1341-.1254-.0589c-.7634-.3512-.6595-1.2988-.65-1.3376-.2348.1889-.3198.5749-.1579.9529-.0877.0992-.2049.2198-.3331.3511-.7904-.1996-.8146-.922-.8146-.9555l-.0015-.1113-.1038-.0402c-.3089-.114-.5207-.2842-.6245-.5134-.1173-.2532-.0756-.5186-.0431-.646.0903.0201.1807.0349.267.0416.089.0093.1807.0147.2725.0147h.0054.0067c.0917 0 .1821-.0054.2711-.0147.4923-.0483 1.044-.2587 1.6186-.8244h3.7455zm-2.8837-3.0158.731.4223h.0108l.1835.1059c-.4127.1139-.7283.319-.9927.5884-.0094.008-.0188.0188-.0284.0281-.0606.0643-.1214.1341-.178.2051-.0108.0134-.0216.0282-.0337.0429-.0567.0723-.1092.1461-.1605.2238-.0081.0135-.0176.0269-.027.0389-.0607.0898-.1186.1863-.1766.2854-.5207.8914-1.3516 1.4235-2.0906 1.4248-.7378-.0013-1.5687-.5334-2.0894-1.4248-.0566-.0965-.1132-.1902-.174-.2814-.0121-.0174-.0229-.0348-.0336-.0496-.0513-.0737-.1026-.1461-.1552-.2144-.0134-.0188-.0256-.0336-.0391-.0496-.0567-.0684-.1147-.1368-.1727-.1998-.012-.0093-.0202-.0214-.0323-.0321-.2657-.2694-.58-.4731-.9941-.5857l.1862-.1059h.008l.7311-.4223.7513-.42745 2.007 1.08565.004-.004.0054.004 2.007-1.08565zm-.99-.89931-1.5996.83771v-3.39098l2.1702-.73179zm-1.7736-2.92586-2.3793-.93417c.2023-.47581 1.1357-.88065 2.3793-.88198 1.2449.00133 2.1782.40617 2.3792.88198z"/><path d="m46.7295 20.4224v-5.3668h3.1679v-1.9529h-8.6423v1.9529h3.1678v5.3668zm6.3208-3.0601v-4.2596h-2.2298v7.3197h1.9684l3.8444-4.2596v4.2596h2.2298v-7.3197h-1.9684zm13.3142.3383v2.7218h2.23v-7.3197h-2.23v2.6757h-3.583v-2.6757h-2.2298v7.3197h2.2298v-2.7218zm8.4394 2.7218c.5073 0 .9686-.046 1.3993-.1691 1.154-.3229 1.9067-1.261 1.9067-2.5373 0-1.2148-.6454-2.0606-1.6754-2.4451-.4933-.1845-1.0766-.1999-1.6306-.1999h-2.2914v-1.9683h-2.2293v7.3197zm-.3847-3.629c.308 0 .6 0 .8613.0922.3694.123.5847.4306.5847.7996 0 .3845-.2153.7074-.5693.8612-.246.1076-.492.1076-.8767.1076h-1.9067v-1.8606zm7.6887.8611 2.6606 2.7679h2.9674l-3.7054-3.8136 3.5674-3.5061h-2.7987l-2.6913 2.7526h-.6147v-2.7526h-2.2293v7.3197h2.2293v-2.7679zm10.216-4.7517c-2.9987 0-4.7974 1.6915-4.7974 3.8751 0 2.1837 1.7987 3.8753 4.7974 3.8753 2.984 0 4.7833-1.6916 4.7833-3.8753 0-2.1836-1.7993-3.8751-4.7833-3.8751zm0 5.9666c-1.4914 0-2.444-.892-2.444-2.0915 0-1.1993.9526-2.0759 2.444-2.0759 1.4766 0 2.4453.8766 2.4453 2.0759 0 1.1995-.9687 2.0915-2.4453 2.0915zm12.2091-6.1819h-2.23v.7381c-2.7985.0615-4.4751 1.2456-4.4751 3.337 0 2.0913 1.6766 3.1832 4.4751 3.2447v.7381h2.23v-.7381c2.814-.0615 4.49-1.1534 4.49-3.2447 0-2.0914-1.676-3.2755-4.49-3.337zm-2.23 5.7513c-1.538-.0616-2.214-.692-2.214-1.6762s.676-1.6916 2.214-1.753zm2.23-3.4292c1.554.0614 2.214.7688 2.214 1.753s-.66 1.6146-2.214 1.6762zm11.908-2.3221h-2.23v.7381c-2.798.0615-4.474 1.2456-4.474 3.337 0 2.0913 1.676 3.1832 4.474 3.2447v.7381h2.23v-.7381c2.815-.0615 4.491-1.1534 4.491-3.2447 0-2.0914-1.676-3.2755-4.491-3.337zm-2.23 5.7513c-1.537-.0616-2.214-.692-2.214-1.6762s.677-1.6916 2.214-1.753zm2.23-3.4292c1.554.0614 2.215.7688 2.215 1.753s-.661 1.6146-2.215 1.6762z"/></g></svg>