<svg width="118" height="32" viewBox="0 0 118 32" fill="none" xmlns="http://www.w3.org/2000/svg">
<path d="M113.158 8.65106L109.16 13.1316V8.65106H106.267V19.9619H109.16V15.1999L113.44 19.9619H117.177L111.914 14.0355L116.796 8.65106H113.158Z" fill="#EF3124"/>
<path d="M101.166 12.8695H97.1674V8.65106H94.2726V19.9619H97.1674V15.5022H101.166V19.9619H104.059V8.65106H101.166V12.8695Z" fill="#EF3124"/>
<path d="M17.1794 14.7753C17.1102 16.8853 16.8384 17.3067 15.6515 17.3067V19.9619H16.0938C19.0514 19.9619 19.7622 18.4357 19.8716 15.0406L19.9922 11.2822H22.7648V19.9667H25.6597V8.65106H17.3804L17.1794 14.7753Z" fill="#EF3124"/>
<path d="M32.8502 12.0863H30.7595V8.65106H27.8646V19.9619H32.8888C36.0426 19.9619 37.1683 17.913 37.1683 15.9847C37.1683 13.4935 35.6003 12.0863 32.8486 12.0863H32.8502ZM32.6266 17.4707H30.7595V14.5984H32.6282C33.6334 14.5984 34.2365 15.0406 34.2365 15.9847C34.2365 17.0091 33.6543 17.4707 32.6282 17.4707" fill="#EF3124"/>
<path d="M46.5927 8.38895V4.1898H43.6978V8.38895C40.3848 8.66396 38.1542 11.0217 38.1542 14.2928C38.1542 17.564 40.3848 19.9394 43.6995 20.2209V24.4811H46.5943V20.2241C49.9089 19.9619 52.1396 17.5914 52.1396 14.2928C52.1396 10.9943 49.9089 8.64788 46.5927 8.38574V8.38895ZM43.6978 17.4884C42.0896 17.2665 41.086 16.0619 41.086 14.2928C41.086 12.5238 42.0912 11.3192 43.6978 11.0989V17.4884ZM46.5927 17.4884V11.1021C48.201 11.3224 49.2126 12.5238 49.2126 14.2928C49.2126 16.0619 48.209 17.2665 46.6007 17.4884" fill="#EF3124"/>
<path d="M62.9889 16.4865V12.6846C62.9889 9.91196 61.2198 8.16379 58.2477 8.16379C55.1727 8.16379 53.5452 10.0117 53.4053 11.9416H56.3387C56.4384 11.5186 56.8807 10.7949 58.2477 10.7949C59.3735 10.7949 60.0956 11.3176 60.0956 12.6846H57.2217C54.6485 12.6846 53.1238 14.0307 53.1238 16.2806C53.1238 18.6351 54.7932 20.2434 57.2024 20.2434C58.9714 20.2434 59.9493 19.4087 60.3771 18.7767C60.7582 19.5406 61.6025 19.9619 62.7074 19.9619H63.7126V17.3485C63.1899 17.3485 62.9889 17.1073 62.9889 16.4849V16.4865ZM60.094 15.7419C60.094 17.0478 59.1693 17.7908 57.9647 17.7908C56.9193 17.7908 56.0959 17.4096 56.0959 16.2839C56.0959 15.1581 56.9997 14.9973 57.7829 14.9973H60.094V15.7419Z" fill="#EF3124"/>
<path d="M72.1511 10.2577V7.06375H79.6455V4.1898H69.1179V19.9619H75.3901C78.8655 19.9619 80.8582 18.2347 80.8582 15.06C80.8582 12.067 78.8687 10.2577 75.3901 10.2577H72.1511ZM75.2486 17.1089H72.1511V13.0062H75.2454C76.8536 13.0062 77.7574 13.7493 77.7574 15.0552C77.7574 16.4013 76.8536 17.1041 75.2454 17.1041" fill="#EF3124"/>
<path d="M91.9229 16.4865V12.6846C91.9229 9.91196 90.1538 8.16379 87.1802 8.16379C84.1116 8.16861 82.4793 10.0165 82.3426 11.9464H85.276C85.3773 11.5234 85.8196 10.7997 87.185 10.7997C88.3108 10.7997 89.0345 11.3224 89.0345 12.6894H86.1557C83.5825 12.6894 82.0563 14.0355 82.0563 16.2855C82.0563 18.6351 83.7273 20.2434 86.1364 20.2434C87.9055 20.2434 88.8817 19.4087 89.3095 18.7767C89.6923 19.5406 90.5366 19.9619 91.6415 19.9619H92.645V17.3485C92.124 17.3485 91.9229 17.1073 91.9229 16.4849V16.4865ZM89.0281 15.7419C89.0281 17.0478 88.1033 17.7908 86.8971 17.7908C85.8534 17.7908 85.0283 17.4096 85.0283 16.2839C85.0283 15.1581 85.9338 14.9973 86.717 14.9973H89.0281V15.7419Z" fill="#EF3124"/>
<path d="M15.4714 24.7851H0V28H15.4714V24.7851Z" fill="#EF3124"/>
<path d="M10.5485 6.35448C10.1063 5.03893 9.59806 4 7.85632 4C6.11458 4 5.5726 5.03572 5.10942 6.35448L0.321651 19.9619H3.49634L4.60121 16.7277H10.7126L11.7402 19.9619H15.1176L10.5485 6.35448ZM5.52596 13.9953L7.69549 7.53816H7.7759L9.82482 13.9953H5.52596Z" fill="#EF3124"/>
</svg>
