<svg width="122" height="32" viewBox="0 0 122 32" fill="none" xmlns="http://www.w3.org/2000/svg">
<path d="M35.765 14.9686L36.2331 13.4796L34.6846 13.5278C34.5538 13.5278 33.6029 13.501 32.6804 12.8362C32.7492 12.8429 32.8179 12.8523 32.8881 12.8523C33.8376 12.8523 34.7561 12.284 35.1244 11.4717L35.7907 10.0041C34.9558 10.0149 34.1924 9.91033 34.1924 9.91033C34.1856 9.90893 33.584 9.8326 32.8881 9.1262C32.389 8.6196 31.7713 8.35147 31.1022 8.35147C30.8096 8.35147 30.5479 8.40373 30.3227 8.4748C30.3578 8.35553 30.3914 8.23487 30.4104 8.1102C30.6234 6.7364 29.7333 5.68826 29.7333 5.68967L28.5693 4.25688L27.8477 5.94027C27.845 5.94565 27.6629 6.33975 27.3365 6.53269C27.238 6.03811 26.9966 5.48191 26.48 4.94979C25.5062 3.94722 24.3206 3.79843 23.7002 3.79843C23.4128 3.79843 23.2079 3.82929 23.1579 3.83731L21.7526 4.11214C21.8334 3.79985 22.0061 3.25696 22.3217 2.76775L23.0973 1.56687L21.1456 1.78802L20.5238 0.475807L19.3207 1.09238L18.208 0L17.0978 1.09238L15.8907 0.475807L15.2702 1.78802L13.32 1.56687L14.0968 2.76775C14.4124 3.25696 14.5851 3.79843 14.6647 4.11073L13.3239 3.84806L13.2781 3.84004C13.2106 3.82929 13.007 3.79843 12.7184 3.79843C12.0979 3.79843 10.9124 3.94855 9.94117 4.94979C9.42323 5.48059 9.18183 6.03811 9.08203 6.53269C8.75837 6.34239 8.57757 5.95367 8.57757 5.95367L7.85463 4.26084L6.67181 5.70307C6.52742 5.88932 5.81397 6.87453 6.00816 8.11293C6.02843 8.23627 6.06078 8.35687 6.09587 8.4762C5.87197 8.40513 5.61027 8.35287 5.31763 8.35287C4.64861 8.35287 4.03089 8.62093 3.53049 9.1276C2.83714 9.83127 2.23829 9.91033 2.24375 9.91033C2.24375 9.91033 1.61113 10.0229 0.631932 10.0054L1.29417 11.4731C1.66243 12.2867 2.58223 12.8537 3.53049 12.8537C3.60198 12.8537 3.67073 12.8442 3.74089 12.8375C2.82101 13.5023 1.87011 13.5291 1.75543 13.5305L0.177368 13.4796L0.654849 14.9673C0.894955 15.734 1.69743 17.0046 3.23512 17.1413C3.06782 17.8383 2.69691 18.6183 1.88227 18.9547L0.707471 19.4359L1.34811 20.5443C1.70959 21.1421 2.55799 21.8417 3.76645 21.8417C4.02816 21.8404 4.28034 21.8149 4.52318 21.7641C4.58523 22.0375 4.66342 22.3109 4.75518 22.5816C5.11525 23.6458 4.80507 24.3883 4.80101 24.3964L4.22102 25.604L5.51587 25.9431C5.53209 25.9485 5.92319 26.0543 6.41283 26.0543C6.6354 26.0543 6.8471 26.0316 7.04677 25.9847C7.19777 25.9498 7.34217 25.9029 7.48103 25.8466C7.6483 26.1455 7.85197 26.4176 8.08937 26.6615C8.9189 27.5073 10.0937 27.9361 11.5827 27.9361H11.5881L12.651 27.9227L10.4551 28.8288L12.1222 29.629C12.7278 29.9225 13.4467 30.2696 14.1778 30.535L13.97 31.1007L14.5446 31.3607C14.5958 31.3834 15.7005 31.8753 17.5376 31.9799C17.5376 31.9799 17.9814 32 18.2254 32C18.4696 32 18.9079 31.9786 18.9079 31.9786C20.7329 31.8713 21.8294 31.3848 21.8807 31.3607L22.4566 31.0993L22.2462 30.5324C22.9988 30.2589 23.7433 29.8983 24.3233 29.6169L25.9594 28.8275L23.7702 27.9201L24.8372 27.9335C26.3276 27.9335 27.5038 27.5046 28.3318 26.6575C28.5679 26.4149 28.7716 26.1429 28.9402 25.8439C29.0792 25.9003 29.2248 25.9471 29.3758 25.982C29.5741 26.0289 29.7859 26.0517 30.0084 26.0517C30.4899 26.0517 30.8852 25.9459 30.8959 25.9431L32.1962 25.6014L31.6296 24.4165C31.6162 24.3857 31.306 23.6445 31.6661 22.5789C31.7578 22.3069 31.8346 22.0335 31.8967 21.7613C32.1409 21.8123 32.3958 21.8391 32.6588 21.8391C34.1977 21.8391 34.9355 20.7628 35.0785 20.5296L35.7124 19.4333L34.5376 18.9534C33.7216 18.6169 33.3521 17.8355 33.1862 17.14C34.7022 17.0113 35.5168 15.7407 35.765 14.9686ZM14.7671 4.62409L14.751 4.62814L14.7645 4.61069L14.7671 4.62409Z" fill="white"/>
<path d="M18.2093 4.55859C16.9657 4.55991 16.0338 4.96468 15.8301 5.44049L18.2093 6.37341L20.5886 5.44049C20.3863 4.96468 19.4543 4.55991 18.2093 4.55859Z" fill="white"/>
<path d="M18.2334 29.2535H18.2307H18.2104H18.1875H18.1862C17.4322 29.2589 16.395 29.1047 15.8946 28.96L15.293 30.5777C15.6896 30.7185 17.033 30.9865 18.2104 30.9865C19.3852 30.9865 20.73 30.7172 21.1252 30.5777L20.5249 28.96C20.0232 29.106 18.9873 29.2589 18.2334 29.2535Z" fill="white"/>
<path d="M22.7858 27.6455C22.338 27.8975 21.3385 28.2754 20.7572 28.451L21.2455 29.7873C22.1451 29.5433 22.8869 29.2579 23.5007 28.9523L22.4877 28.6172L22.7858 27.6455Z" fill="white"/>
<path d="M13.6342 27.6455L13.9336 28.6172L12.9193 28.9523C13.5316 29.2579 14.2775 29.5433 15.1731 29.7873L15.6614 28.451C15.0827 28.2754 14.0819 27.8961 13.6342 27.6455Z" fill="white"/>
<path d="M18.2094 3.01171C19.1468 3.01171 20.0667 3.23419 20.7734 3.62565C20.8382 3.40978 20.9286 3.14843 21.0513 2.875L20.7843 2.90717L20.5037 2.9367L20.385 2.68337L20.0276 1.93282L19.3761 2.2705L19.1226 2.39919L18.9202 2.20087L18.2121 1.50391L17.5054 2.20087L17.303 2.39919L17.0495 2.2705L16.394 1.93282L16.0406 2.68337L15.9192 2.9367L15.6386 2.90717L15.3716 2.875C15.4944 3.14975 15.5834 3.40978 15.6494 3.62565C16.3576 3.23419 17.2747 3.01171 18.2094 3.01171Z" fill="white"/>
<path d="M32.5213 11.6861C32.6428 11.7276 32.7668 11.7464 32.8896 11.7464C33.4196 11.7464 33.9322 11.406 34.1089 11.0159C34.1089 11.0159 33.1364 10.957 32.0911 9.9021C31.758 9.5603 31.4059 9.4585 31.1038 9.4585C30.6344 9.4585 30.2823 9.7051 30.2823 9.7051C31.5449 10.3726 31.8024 11.4448 32.5213 11.6861Z" fill="white"/>
<path d="M3.52975 11.7464C3.65245 11.7464 3.77656 11.7276 3.89529 11.6861C4.61685 11.4448 4.87582 10.3726 6.13832 9.7051C6.13832 9.7051 5.78486 9.4585 5.31822 9.4585C5.01473 9.4585 4.66269 9.5603 4.32817 9.9021C3.28427 10.957 2.31177 11.0159 2.31177 11.0159C2.48577 11.406 2.99965 11.7464 3.52975 11.7464Z" fill="white"/>
<path d="M32.8642 16.0438C32.8858 16.0451 32.9047 16.0451 32.9276 16.0451C34.2507 16.0451 34.6999 14.6363 34.6999 14.6363H34.6743C34.4315 14.6363 32.4636 14.5801 31.073 12.8229C30.1572 11.6677 29.4072 10.6517 27.9249 10.2522L27.7793 10.2267L27.7469 10.0793C27.7064 9.85413 27.8615 9.64373 28.2136 9.41586C30.2583 8.08499 28.8704 6.38809 28.8704 6.38809C28.8704 6.38809 28.2864 7.74586 26.9795 7.74586C26.9484 7.74586 26.9147 7.74446 26.8823 7.74446C26.734 7.73646 26.591 7.73106 26.4466 7.70033L26.2052 7.65333C26.2052 7.65333 26.5775 6.6468 25.6792 5.72198C25.0021 5.0237 24.178 4.90576 23.7019 4.90576C23.4617 4.90576 23.3093 4.93652 23.3093 4.93652C23.7612 5.52357 24.0876 6.49669 23.5657 7.09713C23.1152 7.61313 22.0145 7.63859 22.0145 8.40793C22.0145 8.73366 22.3207 9.11433 22.871 9.45606C24.526 10.4921 26.1688 11.8659 26.8513 13.7076C27.7051 16.0049 26.7434 17.5289 25.3703 18.4027C25.3703 18.4027 25.8006 18.7967 26.4251 18.8463C26.5519 18.8584 26.676 18.8637 26.792 18.8637C28.1097 18.8637 28.7909 18.2499 28.7909 18.2499C28.7909 18.2499 28.6789 19.0983 27.9923 19.8864C27.3598 20.6142 26.5289 21.0418 25.2624 21.0605C25.2624 21.0605 25.2219 21.6449 25.7831 22.1502C26.1418 22.4692 26.9713 22.5737 26.9713 22.5737C26.9713 22.5737 25.4189 22.886 25.2476 25.1646C25.1545 26.3989 24.8375 26.8279 24.8375 26.8279H24.8659C28.4685 26.8279 28.3754 23.7573 28.3754 23.7573C28.3754 23.7573 28.6263 24.6659 29.6311 24.9032C29.7525 24.9354 29.882 24.9475 30.0061 24.9475C30.3299 24.9475 30.6103 24.8724 30.6103 24.8724C30.6103 24.8724 30.0843 23.7693 30.6063 22.2266C31.0393 20.9466 30.9691 19.9977 30.9691 19.9977C30.9691 19.9977 31.4547 20.7268 32.6579 20.7335H32.6699C33.6721 20.7335 34.1091 19.9789 34.1091 19.9789C31.7069 18.9884 31.9443 15.7905 31.9443 15.7905C31.9443 15.7905 32.2559 16.0209 32.8642 16.0438ZM32.1412 19.3837C31.1647 18.9053 30.5469 17.6347 30.3973 17.1763C30.2353 19.6961 28.9972 21.4452 27.5499 23.1286C26.7987 24.0011 26.5371 24.8495 26.5371 24.8495C26.5371 24.8495 26.6813 23.8886 27.3314 23.1059C28.6816 21.4934 29.9643 19.487 30.0601 17.1669C30.1261 15.5478 29.7067 14.2343 29.0525 13.1527C29.418 14.2799 29.3668 15.6604 28.1245 16.9484C28.1245 16.9484 30.5969 14.0037 27.1399 10.9854C25.7561 9.83679 24.2427 9.12773 23.4632 8.62513C26.2794 9.53786 27.6539 8.53259 27.6539 8.53259C26.7541 9.30726 25.5902 9.29386 24.8685 9.18266C25.0641 9.27786 25.2679 9.37699 25.4877 9.49359C27.8615 10.775 29.9953 12.8833 30.3595 15.8039V15.781C30.9125 18.6479 32.1412 19.3837 32.1412 19.3837Z" fill="white"/>
<path d="M9.44741 22.5737C9.44741 22.5737 10.2769 22.4705 10.6357 22.1502C11.1954 21.6449 11.1564 21.0605 11.1564 21.0605C9.88854 21.0431 9.05901 20.6142 8.42241 19.8878C7.74121 19.0997 7.62794 18.2512 7.62794 18.2512C7.62794 18.2512 8.30901 18.8651 9.62547 18.8651C9.74421 18.8651 9.86694 18.8597 9.99367 18.8477C10.6182 18.7981 11.0498 18.404 11.0498 18.404C9.67667 17.5301 8.71374 16.0049 9.56614 13.7076C10.25 11.8673 11.8914 10.4921 13.5465 9.45606C14.0967 9.11433 14.4029 8.73493 14.4029 8.40793C14.4029 7.63859 13.3036 7.61313 12.8531 7.09713C12.3312 6.49669 12.6589 5.52225 13.1094 4.93652C13.1094 4.93652 12.9597 4.90576 12.7182 4.90576C12.2435 4.90576 11.4193 5.0237 10.7423 5.72198C9.84127 6.6468 10.2149 7.65333 10.2149 7.65333L9.97347 7.70033C9.82921 7.73106 9.68481 7.73646 9.53781 7.74446C9.50414 7.74446 9.47441 7.74586 9.44207 7.74586C8.13241 7.74586 7.55107 6.38942 7.55107 6.38942C7.55107 6.38942 6.16315 8.08633 8.20654 9.41719C8.55861 9.64506 8.71241 9.85546 8.67194 10.0807L8.63947 10.2281L8.49114 10.2536C7.01154 10.653 6.26029 11.6689 5.34446 12.8243C3.95653 14.5788 1.99133 14.6363 1.74594 14.6363H1.71887C1.71887 14.6363 2.16807 16.0451 3.49121 16.0451C3.51281 16.0451 3.53167 16.0451 3.55459 16.0438C4.16287 16.0223 4.47579 15.7905 4.47579 15.7905C4.47579 15.7905 4.71052 18.987 2.31103 19.9789C2.31103 19.9789 2.74806 20.7335 3.75018 20.7335H3.76234C4.96675 20.7268 5.45103 19.9977 5.45103 19.9977C5.45103 19.9977 5.38086 20.9466 5.81251 22.2266C6.33441 23.7693 5.8111 24.8724 5.8111 24.8724C5.8111 24.8724 6.09167 24.9475 6.41401 24.9475C6.53944 24.9475 6.66761 24.9354 6.78766 24.9032C7.79107 24.6659 8.04334 23.7573 8.04334 23.7573C8.04334 23.7573 7.95161 26.8279 11.5543 26.8279H11.5798C11.5798 26.8279 11.2643 26.3989 11.1725 25.1646C10.9999 22.886 9.44741 22.5737 9.44741 22.5737ZM8.86887 23.1286C7.42161 21.4452 6.18475 19.6961 6.0215 17.1763C5.87183 17.6334 5.25675 18.9053 4.28029 19.3837C4.28029 19.3837 5.50761 18.6479 6.05931 15.781V15.8039C6.42485 12.8847 8.55727 10.775 10.9324 9.49359C11.1496 9.37566 11.3559 9.27653 11.5502 9.18266C10.8286 9.29386 9.66461 9.30726 8.76494 8.53259C8.76494 8.53259 10.1393 9.53786 12.9543 8.62513C12.1747 9.12773 10.6627 9.83679 9.27881 10.9854C5.82053 14.0037 8.29421 16.9484 8.29421 16.9484C7.05067 15.659 7.00081 14.2799 7.36627 13.1527C6.71079 14.2357 6.29263 15.5478 6.36007 17.1669C6.45447 19.487 7.73714 21.4934 9.08461 23.1059C9.73614 23.8873 9.88314 24.8495 9.88314 24.8495C9.88314 24.8495 9.61867 24.0011 8.86887 23.1286Z" fill="white"/>
<path d="M15.5459 11.347C15.6051 11.4099 15.6631 11.4784 15.7185 11.5466C15.732 11.5628 15.7441 11.5775 15.7575 11.5963C15.8089 11.6646 15.8615 11.737 15.9114 11.8107C15.9221 11.8254 15.933 11.8429 15.9451 11.8602C16.0058 11.9514 16.0625 12.0453 16.1191 12.1418C16.6383 13.033 17.4706 13.5652 18.2083 13.5665C18.9475 13.5652 19.777 13.033 20.299 12.1418C20.357 12.0426 20.415 11.9461 20.4756 11.8563C20.4851 11.8429 20.4946 11.8308 20.5026 11.8174C20.5539 11.741 20.6079 11.666 20.6645 11.5936C20.6766 11.5775 20.6874 11.5641 20.6982 11.5507C20.7562 11.4796 20.8155 11.41 20.8763 11.3456C20.887 11.3349 20.8951 11.3255 20.9045 11.3175C21.1689 11.0481 21.4845 10.843 21.8972 10.7291L21.7138 10.6232H21.7031L20.9719 10.201L20.2207 9.77344L18.2137 10.8591L18.2083 10.855L18.2043 10.8591L16.1959 9.77344L15.4461 10.1996L14.7137 10.6218H14.7055L14.5194 10.7278C14.9335 10.8416 15.2477 11.044 15.5135 11.3134C15.5255 11.3242 15.5337 11.3362 15.5459 11.347ZM17.3963 11.2598H18.2461H19.0945V11.8388C18.8949 11.5963 18.5065 11.6459 18.5065 11.6459V12.4809C18.5065 12.4809 18.5213 12.891 18.6655 13.0692H18.2461H17.8253C17.9723 12.8924 17.9858 12.4809 17.9858 12.4809V11.6459C17.9858 11.6459 17.5987 11.5963 17.3963 11.8388V11.2598Z" fill="white"/>
<path d="M18.0355 10.1366V6.74704L15.864 6.01514L16.4372 9.3003L18.0355 10.1366ZM17.5689 7.57937V8.1235L17.4637 8.07524C17.4583 8.07124 17.3045 8.03637 17.0347 7.82457C16.5897 7.4815 16.5816 7.16517 16.5816 7.16517L17.5689 7.57937Z" fill="white"/>
<path d="M19.9833 9.3003L20.5539 6.01514L18.3837 6.74704V10.1366L19.9833 9.3003ZM18.8504 7.57937L19.8376 7.1665C19.8376 7.1665 19.8296 7.48284 19.3831 7.8259C19.1147 8.0377 18.9596 8.0725 18.9542 8.07657L18.8489 8.12477V7.57937H18.8504Z" fill="white"/>
<path d="M14.9644 17.9953C15.1762 18.0717 15.4325 18.0878 15.5633 18.0878C15.5687 18.0717 15.5754 18.0515 15.5822 18.0275C15.5943 17.9886 15.6051 17.9511 15.6133 17.9081C15.6497 17.7206 15.6631 17.5075 15.6658 17.3707C15.5767 17.3157 15.4513 17.2179 15.3813 17.0718C15.3003 16.9029 15.1857 16.8252 15.017 16.8252C14.7985 16.8252 14.5639 16.9552 14.464 17.0169C14.3845 17.4846 14.7311 17.9095 14.9644 17.9953Z" fill="white"/>
<path d="M19.7672 16.1963C19.3639 16.6319 18.5748 17.3906 18.5357 17.4294L18.4885 17.4777L15.9946 17.4388C15.9932 17.6841 15.9528 17.8932 15.9137 18.046C15.907 18.0714 15.9002 18.0982 15.8934 18.125L18.8608 18.6545C19.1696 18.44 20.0194 17.8234 20.3485 17.5822C20.1084 17.2338 20.0854 16.8209 20.1394 16.5301C19.983 16.4296 19.8629 16.317 19.7672 16.1963Z" fill="white"/>
<path d="M20.1059 13.2155C19.5312 13.7824 18.9796 13.9915 18.4874 14.0398C18.3983 14.0492 18.308 14.0544 18.2162 14.0544H18.2094H18.204C18.1124 14.0544 18.0206 14.0492 17.9316 14.0398C17.8453 14.0317 17.755 14.0183 17.6646 13.9982C17.6322 14.1255 17.5917 14.3922 17.7077 14.6442C17.8116 14.8734 18.0234 15.0436 18.3322 15.1563L18.436 15.1964L18.4374 15.3077C18.4374 15.3412 18.4617 16.0623 19.2534 16.262C19.3829 16.1293 19.5002 16.01 19.5866 15.9108C19.4247 15.5328 19.5096 15.1468 19.7444 14.9578C19.7336 14.998 19.6311 15.9444 20.3946 16.2954L20.52 16.3545L20.4822 16.4872C20.47 16.5274 20.2151 17.4428 21.139 17.7832L21.3022 17.8449L21.2294 18.0031C21.2132 18.0379 20.8504 18.869 21.7042 19.3407H23.556V17.8798C22.8979 17.7993 22.6186 17.274 22.5472 16.9013C22.241 16.849 22.0036 16.7177 21.8417 16.5032C21.4532 15.9952 21.7878 15.5302 21.7918 15.5047C21.7905 15.5088 21.7918 16.0046 22.0994 16.3102C22.2518 16.4576 22.4326 16.5716 22.7063 16.5971L22.8412 16.6092L22.8534 16.7459C22.856 16.7753 22.9302 17.4455 23.5574 17.5514L23.556 14.5678C23.556 14.1054 23.6923 13.6404 23.8555 13.2114H20.1059V13.2155Z" fill="white"/>
<path d="M15.1224 14.5822L15.0725 16.4828L15.2896 16.515L15.821 14.6921L15.5513 14.1318L15.1224 14.5822Z" fill="white"/>
<path d="M20.9813 23.2989C20.9975 23.2989 21.0164 23.3016 21.0339 23.3056C21.3644 23.3995 21.4481 24.5843 22.028 24.6902C22.0847 24.7022 22.1373 24.7049 22.1831 24.7049C22.3504 24.7049 22.4502 24.6338 22.5581 24.5079C22.5581 24.5079 22.2667 24.0522 22.0483 23.7453C21.7583 23.3432 21.5331 22.8566 20.9935 22.8566C20.9813 22.8566 20.9652 22.8566 20.9517 22.858C20.7737 22.8674 20.6644 22.9531 20.6644 22.9531C20.4459 22.8164 20.2423 22.7695 20.0574 22.7695C19.7189 22.7695 19.4559 22.9237 19.325 22.9237H19.3197L18.1138 22.8058C17.925 22.7883 17.7767 22.5993 17.7227 22.5256C17.7092 22.5054 17.7025 22.4934 17.7025 22.4934C17.7025 22.4612 17.7025 22.4278 17.6998 22.3982C17.6593 21.4185 16.8959 20.999 16.6248 20.9922C16.6248 20.9922 16.6571 20.806 16.583 20.735L16.3173 21.0552L15.4446 20.6196L16.0664 21.3421L15.539 21.9304C15.4729 21.9976 15.481 22.0887 15.508 22.1262L15.7359 22.3259L16.0246 22.1516C16.0394 22.141 16.0651 22.1382 16.0974 22.1382C16.177 22.1382 16.2971 22.1583 16.4049 22.1583C16.5223 22.1583 16.6248 22.1328 16.6369 22.0229C16.6005 22.3862 16.262 23.0174 16.4845 23.5134L16.6491 23.8874L15.5835 23.7345L15.0845 24.5722C14.9307 24.851 14.9065 25.1526 15.0548 25.3161L15.2409 25.548C15.2409 25.548 15.5026 25.2718 15.5619 25.0909L15.4769 24.9984C15.4055 24.9207 15.4095 24.851 15.4527 24.7666L15.7656 24.2505L17.024 24.5454L17.0901 24.4328C17.1751 24.2921 17.2979 24.2492 17.4327 24.2492C17.488 24.2492 17.5447 24.2559 17.604 24.2653C17.8374 24.3109 18.2218 24.3725 18.6062 24.3725C19.0283 24.3725 19.4465 24.2975 19.6689 24.0496C20.1249 24.721 21.0488 24.8282 20.9759 25.1686L20.7332 26.3187C20.8937 26.312 21.0488 26.3012 21.1958 26.2811L21.4265 25.0842C21.4521 24.9542 21.4763 24.7786 21.4763 24.7786C21.3873 24.6888 21.1715 24.4985 21.0502 24.268C20.8869 23.957 20.9759 23.7948 20.8235 23.39C20.8289 23.3928 20.8748 23.2989 20.9813 23.2989ZM16.2741 21.6182C16.2121 21.6168 16.1675 21.5646 16.1702 21.503C16.1757 21.444 16.2255 21.397 16.2862 21.4024C16.3483 21.4051 16.3928 21.4587 16.3901 21.5177C16.3847 21.5766 16.3335 21.6222 16.2741 21.6182Z" fill="white"/>
<path d="M14.5559 24.387C14.5559 24.387 14.9726 24.2168 15.0104 24.0948L14.9551 23.9568C14.916 23.867 14.9214 23.7691 14.9969 23.7156L15.4474 23.4059L16.2 23.5493C16.2 23.5493 16.0638 23.3804 16.0773 23.1539L15.3598 23.0024L14.6826 23.4126C14.3926 23.6284 14.371 23.9808 14.4668 24.1899L14.5559 24.387Z" fill="white"/>
<path d="M19.8751 26.3357C20.01 26.3304 20.1583 26.3277 20.3216 26.3277C20.3216 26.3277 20.7087 25.2032 20.7302 25.1671C20.5131 25.0719 20.0626 24.8345 19.8886 24.7261C20.0033 24.8963 20.2825 25.0919 20.2272 25.2421L19.8751 26.3357Z" fill="white"/>
<path d="M23.5598 19.6665H12.8599V23.666C12.8599 25.3012 14.0509 26.3252 15.8083 26.3252C17.2772 26.3252 17.6642 26.3814 18.2105 26.9203C18.5869 26.5477 18.8985 26.4082 19.5377 26.356L19.5525 26.2944L19.8897 25.2583C19.8709 25.2355 19.3193 24.6123 19.3193 24.6123C19.1007 24.6847 18.9173 24.6968 18.6085 24.6968C18.2915 24.6968 17.9341 24.6605 17.5469 24.5882C17.5078 24.5788 17.4714 24.5761 17.4349 24.5761C17.3877 24.5761 17.3837 24.5801 17.3716 24.6029L17.3041 24.7128L17.1814 24.9138L16.9508 24.8616L15.9243 24.6216L15.784 24.8522L15.8056 24.8763L15.9311 25.013L15.8758 25.1913C15.8002 25.4245 15.5547 25.6966 15.4806 25.7717L15.2243 26.0451L14.991 25.7516L14.8157 25.5331C14.6308 25.328 14.5877 25.013 14.6915 24.6834C14.6888 24.686 14.6847 24.6873 14.6808 24.6873L14.3908 24.8066L14.2599 24.5251L14.1682 24.3255C14.0105 23.9743 14.0683 23.461 14.4933 23.1513L15.3201 22.6876L16.1065 22.8418C16.1253 22.7666 16.1536 22.4986 16.1765 22.4303C16.1617 22.429 16.1469 22.4249 16.132 22.4249L15.6789 22.5924L15.2418 22.2922C15.2418 22.2922 15.0705 22.1286 15.2256 21.9652L15.6491 21.3286L14.5769 19.9908L16.2251 20.6638L16.3344 20.5284L16.5569 20.2643L16.8091 20.5029C16.8806 20.5712 16.9211 20.6556 16.9413 20.7401C17.3958 20.9157 18.2091 21.4344 18.2806 22.2774L18.0257 22.3793V22.386C18.0837 22.4544 18.1323 22.4826 18.1471 22.4852L19.3233 22.6005C19.3529 22.5951 19.3907 22.5817 19.4325 22.5696C19.5782 22.5201 19.7981 22.449 20.0583 22.449C20.2701 22.449 20.4751 22.4972 20.672 22.5884C20.7449 22.5616 20.8339 22.5415 20.9365 22.5348L20.993 22.5335C21.6229 22.5335 21.9358 23.0012 22.1868 23.3739C22.2285 23.4381 22.2703 23.4998 22.3135 23.5601C22.5333 23.8684 22.8206 24.3201 22.8328 24.3389L22.9623 24.54L22.8031 24.7236C22.6804 24.8642 22.4969 25.0292 22.1813 25.0292C22.1166 25.0292 22.0451 25.0224 21.9683 25.0076C21.9009 24.9956 21.8401 24.9754 21.7808 24.9514C21.7713 25.013 21.7592 25.0868 21.747 25.1497L21.5407 26.2193C22.7748 25.9178 23.5585 24.9916 23.5585 23.6674L23.5598 19.6665Z" fill="#FFDD2D"/>
<path d="M12.8601 19.3448H21.1808C20.7653 18.9186 20.7708 18.3785 20.8773 18.0273C20.7559 17.9696 20.6561 17.8999 20.5671 17.8249C20.2421 18.0634 19.2493 18.7819 18.9904 18.9614L18.9351 18.999L15.6697 18.412H15.6036C15.5254 18.412 15.4107 18.4092 15.2853 18.3945C15.2502 18.5406 15.1235 18.6412 14.9777 18.6412C14.9615 18.6412 14.9427 18.6398 14.9251 18.6358C14.8401 18.621 14.7661 18.5781 14.7161 18.5071C14.6649 18.4374 14.6447 18.3543 14.6595 18.2686L14.6716 18.1988C14.3344 17.963 14.0242 17.4362 14.1617 16.8813L14.1752 16.8224L14.2225 16.7888C14.2292 16.7835 14.2858 16.746 14.3695 16.6977L14.1321 16.6615C14.0431 16.6454 13.9837 16.5636 13.9973 16.4766C14.0121 16.3881 14.0957 16.325 14.1833 16.3425L14.7485 16.431L14.7997 14.4526L15.6414 13.568L16.1661 14.6658L15.6117 16.569L16.1108 16.6468C16.1984 16.6602 16.2591 16.7419 16.2457 16.8317C16.2321 16.9108 16.1647 16.9658 16.0851 16.9658C16.077 16.9658 16.0676 16.9658 16.0595 16.9644L15.6535 16.8988C15.6589 16.9108 15.6669 16.9174 15.6724 16.9308C15.7155 17.0194 15.8113 17.0837 15.8679 17.1105L18.3579 17.1494C18.463 17.0475 18.7247 16.7928 18.9931 16.5234C18.3808 16.2929 18.1582 15.7675 18.1204 15.419C17.7779 15.2742 17.5418 15.0572 17.411 14.7743C17.2518 14.4246 17.3085 14.0747 17.3503 13.9045C17.0185 13.7838 16.6692 13.5641 16.3131 13.2129H12.5635C12.724 13.6417 12.8601 14.1069 12.8601 14.5693V19.3448Z" fill="#FFDD2D"/>
<path d="M16.2874 21.4018C16.2267 21.3964 16.1755 21.4433 16.1714 21.5023C16.1673 21.5639 16.2132 21.6161 16.2753 21.6175C16.3345 21.6229 16.3872 21.5773 16.3925 21.517C16.3925 21.458 16.3495 21.4031 16.2874 21.4018Z" fill="black"/>
<path d="M23.5454 28.6541L22.929 28.4195L23.0989 27.7869L23.2864 27.0967C23.2864 27.0967 22.1939 27.6851 20.6549 28.1275C20.2179 28.2521 19.8875 28.3083 19.8875 28.3083V28.7774C19.8875 28.7774 19.0647 28.9195 18.2325 28.9195H18.223H18.2109H18.1947H18.1853C17.3531 28.9195 16.5303 28.7774 16.5303 28.7774V28.3083C16.5303 28.3083 16.1985 28.2521 15.7629 28.1275C14.2239 27.6851 13.1327 27.0967 13.1327 27.0967L13.3175 27.7869L13.4915 28.4195L12.8737 28.6541L12.1886 28.9087C12.9749 29.2854 14.0633 29.835 15.0602 30.1057L14.8255 30.7437C14.8255 30.7437 16.0893 31.316 18.1947 31.3214V31.3227H18.2015H18.2109H18.2191H18.2244V31.3214C20.3326 31.316 21.595 30.7437 21.595 30.7437L21.3589 30.1057C22.3557 29.835 23.4469 29.2854 24.2292 28.9087L23.5454 28.6541ZM12.9196 28.9517L13.9339 28.6167L13.6345 27.6449C14.0809 27.8969 15.0831 28.2748 15.663 28.4504L15.1735 29.7867C14.2778 29.5415 13.5319 29.2559 12.9196 28.9517ZM18.2109 30.9863C17.0334 30.9863 15.6887 30.7169 15.2935 30.5775L15.895 28.9597C16.3941 29.1045 17.4327 29.2586 18.1866 29.2532H18.188H18.2109H18.2311H18.2339C18.9879 29.2586 20.0237 29.1045 20.5255 28.9597L21.1256 30.5775C20.7305 30.7182 19.3871 30.9863 18.2109 30.9863ZM21.2457 29.7867L20.7575 28.4504C21.3387 28.2748 22.3381 27.8969 22.786 27.6449L22.4879 28.6167L23.5009 28.9517C22.8871 29.2559 22.1453 29.5415 21.2457 29.7867Z" fill="black"/>
<path d="M18.2095 3.40306C19.4639 3.40306 20.4673 3.81593 21.0217 4.25692C21.0217 4.25692 21.1862 3.27173 21.7487 2.40191L20.7384 2.51579L20.2098 1.39935L19.1941 1.91941L18.2095 0.95166L17.2276 1.91941L16.2106 1.39935L15.6832 2.51579L14.673 2.40191C15.2354 3.27173 15.4 4.25692 15.4 4.25692C15.9556 3.81593 16.9564 3.40306 18.2095 3.40306ZM15.6373 2.90716L15.9179 2.93669L16.0393 2.68336L16.3926 1.9328L17.0482 2.26916L17.3018 2.39785L17.5041 2.19953L18.2108 1.50257L18.919 2.19953L19.1213 2.39785L19.3748 2.26916L20.0264 1.9328L20.3838 2.68336L20.5024 2.93669L20.783 2.90716L21.05 2.87499C20.9273 3.14982 20.8369 3.40976 20.7721 3.62563C20.0654 3.23427 19.1455 3.0117 18.2082 3.0117C17.2748 3.0117 16.3562 3.23427 15.6468 3.62563C15.5808 3.40976 15.4917 3.14841 15.3689 2.87499L15.6373 2.90716Z" fill="black"/>
<path d="M32.926 16.4751C34.5487 16.4751 35.0908 14.8346 35.1138 14.7649L35.2945 14.1871L34.6862 14.2059H34.6836C34.4691 14.2059 32.6792 14.159 31.41 12.556L31.29 12.4073C30.4605 11.3591 29.6742 10.3633 28.2687 9.90887C28.3092 9.87274 28.3672 9.82714 28.4468 9.7762C29.1926 9.28834 29.6269 8.69587 29.7362 8.00834C29.8953 6.9736 29.2318 6.1493 29.2021 6.1158L28.7502 5.56092L28.4684 6.21902C28.4495 6.26054 27.9746 7.31407 26.9766 7.31407H26.9024C26.8336 7.31 26.7688 7.30734 26.7041 7.30194C26.7392 6.83154 26.6528 6.10372 25.9893 5.42148C25.1921 4.59988 24.2129 4.47656 23.7004 4.47656C23.4266 4.47656 23.2445 4.51006 23.2256 4.5128L22.5432 4.64678L22.964 5.19768C23.2944 5.62254 23.5938 6.40668 23.239 6.8168C23.1258 6.9468 22.8925 7.05267 22.6686 7.15854C22.2086 7.36894 21.5814 7.66114 21.5814 8.4064C21.5814 8.88894 21.9578 9.39287 22.6402 9.82174C24.6608 11.0843 25.907 12.4019 26.4452 13.8561C27.2774 16.0931 26.1916 17.3691 25.1368 18.0406L24.6634 18.3435L25.0775 18.7214C25.1328 18.7697 25.64 19.2133 26.3885 19.2777C26.5301 19.2871 26.6663 19.2951 26.7932 19.2951C27.2733 19.2951 27.682 19.2201 28.0138 19.1195C27.922 19.279 27.8101 19.4412 27.6685 19.6047C27.0656 20.2989 26.3238 20.6153 25.2569 20.6314L24.8603 20.6381L24.8293 21.0335C24.8252 21.1125 24.7956 21.8457 25.4942 22.469C25.6008 22.5654 25.7303 22.6446 25.8652 22.7103C25.3918 23.1338 24.9102 23.8709 24.8172 25.1349C24.739 26.1897 24.4854 26.5797 24.4827 26.5837L24.0444 27.2485L24.8361 27.2593C26.1444 27.2593 27.1465 26.9001 27.8411 26.1897C28.2512 25.7688 28.4859 25.2943 28.6248 24.8735C28.8528 25.0665 29.1468 25.2353 29.5298 25.3251C29.6755 25.3587 29.8347 25.3774 30.006 25.3774C30.3756 25.3774 30.6844 25.2997 30.7195 25.2917L31.2252 25.1576L31.0014 24.6885C30.9852 24.651 30.563 23.7101 31.0175 22.3671C31.2131 21.7867 31.3129 21.2667 31.3614 20.8619C31.6798 21.0267 32.106 21.1635 32.6576 21.1648C33.9093 21.1648 34.461 20.236 34.4866 20.1971L34.7334 19.7709L34.2762 19.5833C32.7844 18.9681 32.454 17.3154 32.3879 16.4201C32.5228 16.4456 32.6766 16.4697 32.8505 16.4751H32.926ZM34.1089 19.9786C34.1089 19.9786 33.6719 20.7333 32.6698 20.7333H32.6576C31.4545 20.7265 30.969 19.9974 30.969 19.9974C30.969 19.9974 31.0391 20.9464 30.6048 22.2263C30.0828 23.7691 30.6088 24.8722 30.6088 24.8722C30.6088 24.8722 30.3283 24.9472 30.0046 24.9472C29.8805 24.9472 29.751 24.9351 29.6296 24.9029C28.6248 24.6657 28.374 23.757 28.374 23.757C28.374 23.757 28.467 26.8277 24.8644 26.8277H24.8361C24.8361 26.8277 25.153 26.3987 25.2474 25.1643C25.4187 22.8858 26.9712 22.5735 26.9712 22.5735C26.9712 22.5735 26.143 22.4703 25.7842 22.15C25.2231 21.6447 25.2622 21.0603 25.2622 21.0603C26.5301 21.0429 27.3596 20.614 27.9922 19.8862C28.6774 19.0981 28.7907 18.2497 28.7907 18.2497C28.7907 18.2497 28.1095 18.8635 26.7918 18.8635C26.6758 18.8635 26.5517 18.8581 26.4249 18.8461C25.8018 18.7965 25.3702 18.4024 25.3702 18.4024C26.7418 17.5285 27.7049 16.0033 26.8512 13.7059C26.1673 11.8657 24.5245 10.4906 22.8709 9.45454C22.3206 9.11274 22.0144 8.73347 22.0144 8.4064C22.0144 7.63707 23.115 7.61294 23.5669 7.09554C24.0874 6.49509 23.761 5.52073 23.3092 4.93501C23.3092 4.93501 23.4616 4.90416 23.7017 4.90416C24.1778 4.90416 25.002 5.02342 25.679 5.72038C26.5787 6.6452 26.205 7.6518 26.205 7.6518L26.4465 7.69874C26.5908 7.72954 26.7338 7.73494 26.8822 7.7416C26.9145 7.7416 26.9469 7.74294 26.9792 7.74294C28.2862 7.74294 28.8703 6.38517 28.8703 6.38517C28.8703 6.38517 30.2596 8.0834 28.2148 9.41294C27.8627 9.6408 27.7076 9.8512 27.7481 10.0764L27.7805 10.2239L27.9261 10.2493C29.4084 10.6487 30.1584 11.6647 31.0742 12.82C32.4648 14.5772 34.4327 14.6335 34.6754 14.6335H34.7011C34.7011 14.6335 34.2519 16.0421 32.9288 16.0421C32.9072 16.0421 32.8883 16.0421 32.8654 16.0409C32.2571 16.0193 31.9455 15.7875 31.9455 15.7875C31.9455 15.7875 31.7068 18.9868 34.1089 19.9786Z" fill="black"/>
<path d="M30.0761 10.0858C30.6816 10.4061 31.0337 10.835 31.3425 11.2156C31.646 11.5869 31.9347 11.9447 32.3851 12.0935C32.5456 12.1485 32.7155 12.174 32.8882 12.174C33.5653 12.174 34.2452 11.7625 34.5027 11.1929L34.7617 10.6219L34.1345 10.5843C34.1048 10.583 33.2983 10.5106 32.4 9.59786C32.0304 9.22399 31.5839 9.02686 31.1024 9.02686C30.5144 9.02686 30.0787 9.31906 30.0301 9.34859L29.4529 9.75206L30.0761 10.0858ZM31.1038 9.45852C31.4059 9.45852 31.7579 9.56032 32.0911 9.90212C33.1363 10.957 34.1089 11.0159 34.1089 11.0159C33.9322 11.4046 33.4197 11.7464 32.8895 11.7464C32.7669 11.7464 32.6441 11.7277 32.5213 11.6861C31.8025 11.4449 31.5448 10.3726 30.281 9.70506C30.281 9.70506 30.6345 9.45852 31.1038 9.45852Z" fill="black"/>
<path d="M30.359 15.781V15.8025C29.9948 12.8833 27.861 10.775 25.4872 9.49232C25.2674 9.37565 25.065 9.27652 24.8681 9.18132C25.591 9.29258 26.755 9.30598 27.6533 8.53125C27.6533 8.53125 26.2789 9.53652 23.4626 8.62378C24.2423 9.12638 25.757 9.83545 27.1394 10.984C30.5964 14.0024 28.1227 16.947 28.1227 16.947C29.365 15.6591 29.4162 14.2786 29.0507 13.1514C29.7048 14.233 30.123 15.5464 30.0582 17.1656C29.9625 19.4856 28.6798 21.4921 27.3296 23.1045C26.6808 23.8872 26.5352 24.8482 26.5352 24.8482C26.5352 24.8482 26.7968 23.9998 27.5481 23.1272C28.9954 21.4439 30.2322 19.6947 30.394 17.1749C30.5438 17.632 31.1602 18.904 32.138 19.3824C32.1407 19.3838 30.912 18.648 30.359 15.781Z" fill="black"/>
<path d="M11.9361 26.5822C11.9347 26.5782 11.6839 26.1881 11.603 25.1333C11.5086 23.8694 11.0283 23.1322 10.5536 22.7087C10.6912 22.6443 10.8179 22.5653 10.9245 22.4675C11.6219 21.8441 11.5921 21.1111 11.5881 21.032L11.5611 20.6366L11.1619 20.6299C10.0977 20.6124 9.35447 20.2961 8.7516 19.6031C8.61133 19.4397 8.49807 19.2775 8.40633 19.118C8.73807 19.2185 9.14407 19.2936 9.6256 19.2936C9.75513 19.2936 9.88867 19.2855 10.0303 19.2761C10.7788 19.2118 11.286 18.7695 11.3426 18.7199L11.7567 18.342L11.2833 18.039C10.2245 17.3662 9.14273 16.0902 9.9736 13.8546C10.5117 12.4003 11.7567 11.0828 13.7799 9.8202C14.4624 9.39127 14.8359 8.8874 14.8359 8.40487C14.8359 7.65967 14.2101 7.36614 13.7502 7.157C13.5263 7.05114 13.293 6.94527 13.1797 6.81527C12.8236 6.40644 13.1243 5.62107 13.4535 5.19612L13.877 4.6453L13.1918 4.51124C13.1716 4.50859 12.9922 4.4751 12.7171 4.4751C12.2045 4.4751 11.228 4.59841 10.4295 5.42001C9.76453 6.10358 9.67693 6.83134 9.7106 7.3004C9.64587 7.3058 9.58113 7.30854 9.51367 7.31247H9.44087C8.44007 7.31247 7.96667 6.25906 7.9478 6.21746L7.6658 5.55937L7.20993 6.11424C7.18433 6.14783 6.51806 6.9734 6.67989 8.0068C6.78779 8.69434 7.22207 9.28674 7.96793 9.77467C8.04887 9.8256 8.10553 9.87114 8.146 9.9074C6.74195 10.3617 5.95693 11.3589 5.1274 12.407L5.00735 12.5558C3.73955 14.1588 1.94563 14.2058 1.73117 14.2058L1.12024 14.187L1.30631 14.7646C1.32791 14.8343 1.86877 16.4749 3.49266 16.4749L3.57093 16.4723C3.7422 16.4669 3.89601 16.4441 4.03361 16.4173C3.96609 17.3112 3.63563 18.9639 2.14254 19.5804L1.68665 19.7681L1.93355 20.1943C1.95779 20.2331 2.51081 21.162 3.76511 21.162C4.31276 21.1606 4.73894 21.0239 5.05865 20.8591C5.10721 21.2638 5.20699 21.7839 5.40259 22.3642C5.85715 23.7072 5.43361 24.6481 5.41739 24.6857L5.19351 25.1548L5.70069 25.2888C5.73437 25.2968 6.04596 25.3745 6.41414 25.3745C6.58681 25.3745 6.74601 25.3558 6.889 25.3223C7.2734 25.2325 7.57007 25.0637 7.79527 24.8706C7.93287 25.2914 8.16893 25.7659 8.57767 26.1868C9.27353 26.8971 10.2743 27.2563 11.5827 27.2563L12.3758 27.2457L11.9361 26.5822ZM11.553 26.8275C7.9504 26.8275 8.0422 23.7568 8.0422 23.7568C8.0422 23.7568 7.79133 24.6655 6.78646 24.9028C6.66641 24.9349 6.53825 24.9471 6.41281 24.9471C6.08915 24.9471 5.80991 24.8719 5.80991 24.8719C5.80991 24.8719 6.33322 23.7689 5.81123 22.2262C5.37967 20.9461 5.44983 19.9973 5.44983 19.9973C5.44983 19.9973 4.96557 20.7264 3.76115 20.7331H3.74899C2.74687 20.7331 2.30984 19.9785 2.30984 19.9785C4.71065 18.988 4.47459 15.79 4.47459 15.79C4.47459 15.79 4.16309 16.0205 3.55339 16.0433C3.5318 16.0447 3.51161 16.0447 3.49001 16.0447C2.16546 16.0447 1.71769 14.636 1.71769 14.636H1.74465C1.98882 14.636 3.95401 14.5797 5.34459 12.8225C6.26041 11.6672 7.01167 10.6525 8.49127 10.2519L8.6396 10.2264L8.67207 10.0789C8.71253 9.85374 8.55873 9.64334 8.20673 9.41547C6.16195 8.08454 7.5512 6.38767 7.5512 6.38767C7.5512 6.38767 8.13253 7.74414 9.4422 7.74414C9.47453 7.74414 9.50427 7.74274 9.53793 7.74274C9.68493 7.73467 9.83067 7.72934 9.9736 7.69854L10.2151 7.6516C10.2151 7.6516 9.8414 6.64505 10.7424 5.72024C11.4195 5.02195 12.2436 4.90401 12.7183 4.90401C12.9598 4.90401 13.1095 4.93478 13.1095 4.93478C12.6591 5.52182 12.3327 6.49494 12.8532 7.0954C13.3037 7.6114 14.403 7.63687 14.403 8.4062C14.403 8.73187 14.0969 9.1126 13.5466 9.45434C11.8915 10.4904 10.2488 11.8655 9.56627 13.7058C8.71387 16.0031 9.67553 17.527 11.0499 18.4023C11.0499 18.4023 10.6183 18.7963 9.99387 18.8459C9.86707 18.858 9.74433 18.8633 9.6256 18.8633C8.3092 18.8633 7.62807 18.2494 7.62807 18.2494C7.62807 18.2494 7.74133 19.0979 8.42253 19.886C9.05913 20.6137 9.88867 21.0427 11.1565 21.0601C11.1565 21.0601 11.197 21.6445 10.6359 22.1497C10.2758 22.4687 9.44753 22.5733 9.44753 22.5733C9.44753 22.5733 11.0014 22.8856 11.1713 25.1641C11.2644 26.3985 11.5787 26.8275 11.5787 26.8275H11.553Z" fill="black"/>
<path d="M3.52936 12.1755C3.70336 12.1755 3.8733 12.15 4.03372 12.095C4.48696 11.9463 4.77423 11.5884 5.07771 11.2171C5.38798 10.8365 5.7373 10.4076 6.34286 10.0873L6.96605 9.75485L6.38737 9.35138C6.3388 9.32058 5.90451 9.02979 5.31782 9.02979C4.83496 9.02979 4.38718 9.22545 4.01892 9.60065C3.12063 10.5121 2.31542 10.5858 2.28572 10.5872L1.65857 10.6233L1.91622 11.1957C2.1751 11.7626 2.85355 12.1755 3.52936 12.1755ZM4.32778 9.90365C4.66228 9.56179 5.01434 9.45998 5.31782 9.45998C5.78446 9.45998 6.13783 9.70652 6.13783 9.70652C4.87542 10.3754 4.61645 11.4464 3.89481 11.6876C3.77616 11.7291 3.65206 11.7479 3.52936 11.7479C2.99925 11.7479 2.48669 11.4075 2.31137 11.0175C2.31137 11.0161 3.28246 10.9571 4.32778 9.90365Z" fill="black"/>
<path d="M6.36037 17.1666C6.29294 15.5474 6.7111 14.2339 7.36655 13.1523C7.00102 14.2795 7.05095 15.66 8.29455 16.9481C8.29455 16.9481 5.82084 14.0034 9.27909 10.985C10.663 9.83636 12.1764 9.12729 12.9546 8.62469C10.1397 9.53743 8.76522 8.53223 8.76522 8.53223C9.66349 9.30696 10.8276 9.29356 11.5506 9.18103C11.355 9.27609 11.1499 9.37529 10.9327 9.49189C8.55622 10.7746 6.42375 12.8829 6.05821 15.8021V15.7794C5.5066 18.6463 4.27917 19.3821 4.27917 19.3821C5.25573 18.9036 5.87081 17.633 6.02048 17.1746C6.18373 19.6944 7.42049 21.4435 8.86775 23.127C9.61902 23.9994 9.88342 24.8479 9.88342 24.8479C9.88342 24.8479 9.73642 23.8868 9.08495 23.1041C7.73749 21.4944 6.45477 19.4866 6.36037 17.1666Z" fill="black"/>
<path d="M17.3961 11.2603V11.8393C17.5971 11.5967 17.9856 11.6463 17.9856 11.6463V12.4813C17.9856 12.4813 17.9721 12.8915 17.8251 13.0697H18.2459H18.6653C18.5211 12.8928 18.5061 12.4813 18.5061 12.4813V11.6463C18.5061 11.6463 18.8946 11.5967 19.0943 11.8393V11.2603H18.2459H17.3961Z" fill="black"/>
<path d="M17.0346 7.8259C17.303 8.03777 17.4581 8.07257 17.4635 8.07664L17.5687 8.12484V7.5793L16.5814 7.1665C16.5814 7.16784 16.5908 7.48277 17.0346 7.8259Z" fill="black"/>
<path d="M19.383 7.8259C19.8294 7.48277 19.8375 7.1665 19.8375 7.1665L18.8502 7.5793V8.12484L18.954 8.07664C18.9608 8.07257 19.1146 8.03777 19.383 7.8259Z" fill="black"/>
<path d="M21.1616 5.60501C21.1616 4.77804 19.7602 4.03418 18.2132 4.03418H18.2118H18.2078H18.2038C16.6567 4.03418 15.2553 4.77804 15.2553 5.60501L15.2864 5.80872L15.904 9.33241L15.2837 9.69027L13.6786 10.6218H13.684C13.684 10.6218 13.3226 10.8054 13.1552 10.9193C12.5443 11.3416 12.4148 11.9567 12.7695 12.2114C12.8572 11.7101 13.2564 11.1847 14.0036 11.1847C14.5418 11.1847 14.9518 11.4608 15.2837 11.875C15.3686 11.9795 15.4496 12.0908 15.5251 12.2114C15.6181 12.3628 15.7112 12.4956 15.8043 12.6243H11.6703C11.9738 13.2314 12.2624 13.8748 12.2624 14.5731V23.6657C12.2624 25.8665 13.9659 26.9173 15.8083 26.9173C17.2326 26.9173 17.4242 26.853 18.2106 27.6303C18.9928 26.8517 19.1844 26.9173 20.61 26.9173C22.4538 26.9173 24.1546 25.8665 24.1546 23.6657V14.5731C24.1546 13.8748 24.4433 13.2314 24.7481 12.6243H20.6127C20.7044 12.4969 20.7975 12.3628 20.8905 12.2114C20.9674 12.0908 21.047 11.9795 21.1306 11.875C21.4651 11.4595 21.8738 11.1847 22.412 11.1847C23.1592 11.1847 23.5571 11.7088 23.6461 12.2114C24.0009 11.9567 23.8727 11.3416 23.2576 10.9193C23.0931 10.8054 22.7316 10.6218 22.7316 10.6218H22.737L21.132 9.69027L20.5142 9.33241L21.132 5.80872L21.1616 5.60501ZM15.8636 6.01515L18.0352 6.74694V10.1366L16.4369 9.29894L15.8636 6.01515ZM16.3128 13.2153C16.6689 13.5677 17.0182 13.7863 17.35 13.9069C17.3068 14.0771 17.2502 14.4283 17.4107 14.7781C17.5415 15.0595 17.7789 15.2767 18.1201 15.4215C18.1579 15.77 18.3791 16.294 18.9928 16.5259C18.7244 16.7953 18.4627 17.0486 18.3562 17.1518L15.8676 17.1129C15.811 17.0847 15.7152 17.0218 15.6722 16.932C15.6667 16.9199 15.6586 16.9132 15.6546 16.8998L16.0605 16.9655C16.07 16.9668 16.078 16.9668 16.0862 16.9668C16.1644 16.9668 16.2332 16.9132 16.2467 16.8328C16.2602 16.743 16.1995 16.6612 16.1118 16.6478L15.6128 16.5701L16.1671 14.6681L15.6424 13.5705L14.8008 14.4551L14.7495 16.4333L14.1844 16.3449C14.0967 16.3275 14.0131 16.3919 13.9983 16.4789C13.9848 16.5661 14.0441 16.6478 14.1331 16.6639L14.3705 16.7001C14.2856 16.7484 14.2303 16.7859 14.2235 16.7912L14.1749 16.8247L14.1614 16.8838C14.0239 17.4387 14.3354 17.9654 14.6714 18.2013L14.6592 18.2709C14.6457 18.3568 14.6646 18.4398 14.7158 18.5095C14.7644 18.5806 14.8399 18.6235 14.9235 18.6382C14.9411 18.6409 14.9599 18.6422 14.9762 18.6422C15.1218 18.6422 15.2486 18.5417 15.285 18.3957C15.4104 18.4103 15.5251 18.413 15.6033 18.413H15.6694L18.9348 18.9987L18.9901 18.9626C19.2504 18.7816 20.2418 18.0633 20.5668 17.8259C20.6558 17.9024 20.7556 17.9721 20.877 18.0297C20.7718 18.3808 20.7651 18.921 21.1819 19.3473H12.8599V14.5744C12.8599 14.112 12.7237 13.6469 12.5632 13.218H16.3128V13.2153ZM20.3483 17.5821C20.0179 17.8233 19.1682 18.4398 18.8606 18.6543L15.8933 18.1249C15.9001 18.0981 15.9068 18.0726 15.9136 18.0458C15.9526 17.8929 15.9918 17.6839 15.9945 17.4387L18.4884 17.4789L18.5356 17.4305C18.5734 17.3931 19.3638 16.6344 19.767 16.1975C19.8628 16.3167 19.9828 16.4307 20.1392 16.5312C20.0853 16.8207 20.1082 17.2335 20.3483 17.5821ZM15.3808 17.0713C15.4509 17.2175 15.5776 17.3153 15.6654 17.3703C15.6626 17.5069 15.6492 17.7201 15.6128 17.9077C15.6046 17.9493 15.5939 17.9881 15.5817 18.027C15.575 18.0512 15.5682 18.0713 15.5628 18.0873C15.432 18.0873 15.1744 18.0713 14.964 17.9949C14.7307 17.9091 14.3827 17.4842 14.4636 17.0165C14.5648 16.9547 14.7981 16.8247 15.0166 16.8247C15.1852 16.8234 15.2998 16.9025 15.3808 17.0713ZM15.0719 16.483L15.1218 14.5837L15.5507 14.1321L15.8205 14.6923L15.289 16.5151L15.0719 16.483ZM20.3214 26.3289C20.1595 26.3289 20.0098 26.3316 19.8749 26.337L20.2283 25.2446C20.2836 25.0931 20.0044 24.8988 19.8897 24.7286C20.0637 24.8372 20.5142 25.0744 20.7314 25.1696C20.7085 25.2044 20.3214 26.3289 20.3214 26.3289ZM21.43 25.0878L21.1994 26.2834C21.0524 26.3035 20.896 26.3141 20.7354 26.3209L20.9782 25.1709C21.051 24.8291 20.1272 24.7232 19.6713 24.0517C19.4487 24.301 19.0292 24.3748 18.6084 24.3748C18.224 24.3748 17.8396 24.3131 17.6062 24.2675C17.5469 24.2582 17.4902 24.2515 17.435 24.2515C17.3001 24.2515 17.1773 24.293 17.0924 24.4351L17.0249 24.5477L15.7666 24.2528L15.4536 24.7675C15.4091 24.8506 15.4064 24.9217 15.4779 24.9993L15.5628 25.0919C15.5048 25.2741 15.2432 25.5489 15.2432 25.5489L15.0558 25.3169C14.9073 25.1521 14.9316 24.8519 15.0868 24.5731L15.5858 23.7354L16.6514 23.8882L16.4854 23.5129C16.2629 23.017 16.6014 22.3857 16.6378 22.0225C16.6257 22.1324 16.5245 22.1565 16.4058 22.1565C16.298 22.1565 16.1779 22.1364 16.0983 22.1364C16.0673 22.1364 16.0403 22.1391 16.0255 22.1498L15.7368 22.3241L15.5089 22.1243C15.4819 22.0855 15.4725 21.9957 15.5399 21.9287L16.0673 21.3416L15.4442 20.6192L16.3168 21.0548L16.5825 20.7345C16.6554 20.8055 16.6244 20.9918 16.6244 20.9918C16.8968 20.9985 17.6602 21.4181 17.7007 22.3965C17.7034 22.4259 17.7034 22.4595 17.7034 22.4915C17.7034 22.4915 17.7102 22.5037 17.7236 22.5237C17.7776 22.5975 17.9259 22.7865 18.1147 22.8039L19.3206 22.9219H19.3259C19.4582 22.9219 19.7212 22.7677 20.0583 22.7677C20.2418 22.7677 20.4468 22.8146 20.6653 22.9513C20.6653 22.9513 20.7745 22.8655 20.9526 22.8561C20.966 22.8548 20.981 22.8548 20.9944 22.8548C21.5353 22.8548 21.7592 23.3401 22.0492 23.7435C22.2677 24.0504 22.559 24.5061 22.559 24.5061C22.4511 24.6334 22.3512 24.7031 22.184 24.7031C22.1382 24.7031 22.0856 24.6991 22.0289 24.6884C21.4489 24.5825 21.3654 23.3977 21.0349 23.3038C21.0174 23.2985 20.9985 23.2971 20.9823 23.2971C20.8757 23.2971 20.8286 23.391 20.8286 23.391C20.9795 23.7943 20.8919 23.9579 21.0538 24.2689C21.1751 24.4994 21.3909 24.6897 21.48 24.7795C21.48 24.7822 21.4557 24.9565 21.43 25.0878ZM14.9546 23.9565L15.0098 24.0947C14.9734 24.2153 14.5554 24.3868 14.5554 24.3868L14.4649 24.1911C14.3692 23.982 14.3894 23.6295 14.6808 23.4137L15.3578 23.0036L16.0754 23.155C16.0619 23.3815 16.1981 23.5505 16.1981 23.5505L15.4455 23.4071L14.995 23.7167C14.9195 23.7689 14.9141 23.8668 14.9546 23.9565ZM21.5434 26.2177L21.7498 25.1481C21.7605 25.0851 21.774 25.0114 21.7834 24.9497C21.8414 24.9739 21.9035 24.994 21.9709 25.0061C22.0478 25.0208 22.1192 25.0275 22.184 25.0275C22.4997 25.0275 22.6831 24.8626 22.8058 24.7219L22.965 24.5383L22.8355 24.3373C22.8234 24.3171 22.5374 23.8668 22.3162 23.5585C22.273 23.4982 22.2312 23.4379 22.1894 23.3722C21.9386 22.9995 21.6243 22.5319 20.9944 22.5319L20.9378 22.5332C20.8339 22.5399 20.7449 22.5599 20.6734 22.5867C20.4751 22.4943 20.2714 22.4474 20.0596 22.4474C19.7994 22.4474 19.5795 22.5185 19.4338 22.568C19.392 22.5801 19.3543 22.5935 19.3246 22.5989L18.1471 22.4835C18.1323 22.4809 18.0837 22.4528 18.0257 22.3831V22.3777L18.2806 22.2758C18.2092 21.4328 17.3945 20.9141 16.94 20.7385C16.9198 20.654 16.8793 20.5695 16.8078 20.5013L16.5542 20.2627L16.3316 20.5281L16.2224 20.6635L14.5742 19.9905L15.6465 21.3282L15.223 21.9649C15.0678 22.1284 15.2392 22.2919 15.2392 22.2919L15.6761 22.5908L16.1294 22.4233C16.1455 22.4233 16.159 22.4273 16.1738 22.4286C16.1523 22.4969 16.124 22.765 16.105 22.8401L15.3187 22.6859L14.4919 23.1497C14.067 23.4593 14.009 23.9727 14.1669 24.3239L14.2586 24.5235L14.3894 24.805L14.678 24.6857C14.6821 24.6843 14.6862 24.683 14.6888 24.6804C14.585 25.0101 14.6268 25.3237 14.8129 25.5301L14.9882 25.7499L15.2216 26.0435L15.4779 25.77C15.5534 25.6949 15.7976 25.4229 15.8731 25.1897L15.9284 25.0113L15.803 24.8747L15.7827 24.8506L15.923 24.62L16.9494 24.8599L17.18 24.9122L17.3028 24.7111L17.3702 24.6012C17.3824 24.5785 17.3864 24.5744 17.4336 24.5744C17.47 24.5744 17.5064 24.5785 17.5456 24.5865C17.9326 24.6589 18.29 24.6951 18.607 24.6951C18.9146 24.6951 19.098 24.683 19.3178 24.6107C19.3178 24.6107 19.8695 25.2325 19.8884 25.2567L19.5512 26.2914L19.5364 26.3544C18.897 26.4053 18.5855 26.5447 18.2092 26.9187C17.6629 26.3798 17.2758 26.3236 15.807 26.3236C14.0495 26.3236 12.8586 25.2996 12.8586 23.6644V19.6663H23.5571L23.5598 23.6644C23.5611 24.9913 22.7775 25.9161 21.5434 26.2177ZM23.8565 13.2153C23.6934 13.6442 23.5571 14.1093 23.5571 14.5717L23.5585 17.5553C22.9312 17.4507 22.8571 16.7791 22.8544 16.7497L22.8422 16.613L22.7074 16.6009C22.4349 16.5755 22.2542 16.4601 22.1018 16.3128C21.7942 16.0072 21.7928 15.5113 21.7942 15.5072C21.7902 15.5327 21.4557 15.9977 21.8442 16.5057C22.0073 16.7202 22.2434 16.8516 22.5496 16.9039C22.621 17.2765 22.9002 17.8018 23.5585 17.8823V19.3432H21.7079C20.8541 18.8715 21.2156 18.0404 21.2331 18.0056L21.306 17.8474L21.1428 17.7857C20.2188 17.4453 20.4724 16.5285 20.4859 16.4897L20.5236 16.3556L20.3982 16.2967C19.6348 15.9455 19.7387 14.9979 19.7482 14.9591C19.5134 15.148 19.4284 15.534 19.5903 15.912C19.5026 16.0112 19.3854 16.1318 19.2572 16.2631C18.4668 16.0635 18.4426 15.3411 18.4426 15.3076L18.4411 15.1963L18.3373 15.1561C18.0284 15.0421 17.8166 14.8719 17.7128 14.6427C17.5955 14.3895 17.6372 14.1241 17.6697 13.9967C17.76 14.0168 17.8504 14.0316 17.9367 14.0383C18.0257 14.0476 18.1174 14.053 18.2092 14.053H18.2146H18.2213C18.313 14.053 18.4034 14.0476 18.4924 14.0383C18.9847 13.99 19.5364 13.7796 20.111 13.2139H23.8565V13.2153ZM20.9728 10.1995L21.7038 10.6218H21.7146L21.8981 10.7277C21.4854 10.8416 21.1698 11.0467 20.9054 11.3161C20.896 11.3241 20.8866 11.3349 20.877 11.3442C20.8164 11.4085 20.7556 11.4783 20.699 11.5493C20.6882 11.5627 20.6774 11.5775 20.6653 11.5922C20.6086 11.6645 20.5561 11.7383 20.5048 11.816C20.4967 11.8295 20.4872 11.8429 20.4778 11.8549C20.4171 11.9447 20.3592 12.0412 20.3012 12.1403C19.7805 13.0317 18.9496 13.5638 18.2106 13.5651C17.4728 13.5638 16.6419 13.0317 16.1212 12.1403C16.0646 12.0438 16.008 11.9501 15.9472 11.8589C15.9351 11.8415 15.9243 11.8241 15.9136 11.8093C15.8623 11.7356 15.811 11.6632 15.7584 11.5949C15.745 11.5761 15.7328 11.5613 15.7193 11.5453C15.6626 11.4769 15.6046 11.4085 15.5466 11.3455C15.5346 11.3362 15.5264 11.3241 15.5143 11.3134C15.2486 11.044 14.9343 10.8403 14.5202 10.7277L14.7064 10.6218H14.7144L15.4455 10.1995L16.1968 9.77207L18.2038 10.8577L18.2078 10.8537L18.2132 10.8577L20.2202 9.77207L20.9728 10.1995ZM19.9828 9.30021L18.3832 10.1379V6.74694L20.5534 6.01515L19.9828 9.30021ZM18.2092 6.37435L15.8299 5.44018C16.0322 4.96437 16.9656 4.55953 18.2092 4.5582C19.4541 4.55953 20.3874 4.96437 20.5884 5.44018L18.2092 6.37435Z" fill="black"/>
<path d="M47.6724 20.5596V15.1928H50.8403V13.2399H42.198V15.1928H45.3657V20.5596H47.6724ZM53.9931 17.4995V13.2399H51.7634V20.5596H53.7317L57.5761 16.3V20.5596H59.8059V13.2399H57.8375L53.9931 17.4995ZM67.3074 17.8378V20.5596H69.5374V13.2399H67.3074V15.9156H63.7243V13.2399H61.4946V20.5596H63.7243V17.8378H67.3074ZM75.7467 20.5596C76.2541 20.5596 76.7154 20.5136 77.1461 20.3905C78.3001 20.0676 79.0527 19.1295 79.0527 17.8532C79.0527 16.6384 78.4074 15.7926 77.3774 15.4081C76.8841 15.2236 76.3007 15.2082 75.7467 15.2082H73.4554V13.2399H71.2261V20.5596H75.7467ZM75.3621 16.9306C75.6701 16.9306 75.9621 16.9306 76.2234 17.0228C76.5927 17.1458 76.8081 17.4534 76.8081 17.8224C76.8081 18.2069 76.5927 18.5298 76.2387 18.6836C75.9927 18.7912 75.7467 18.7912 75.3621 18.7912H73.4554V16.9306H75.3621ZM83.0507 17.7917L85.7114 20.5596H88.6787L84.9734 16.746L88.5407 13.2399H85.7421L83.0507 15.9925H82.4361V13.2399H80.2067V20.5596H82.4361V17.7917H83.0507ZM93.2667 13.04C90.2681 13.04 88.4694 14.7315 88.4694 16.9151C88.4694 19.0988 90.2681 20.7904 93.2667 20.7904C96.2507 20.7904 98.0501 19.0988 98.0501 16.9151C98.0501 14.7315 96.2507 13.04 93.2667 13.04ZM93.2667 19.0066C91.7754 19.0066 90.8227 18.1146 90.8227 16.9151C90.8227 15.7158 91.7754 14.8392 93.2667 14.8392C94.7434 14.8392 95.7121 15.7158 95.7121 16.9151C95.7121 18.1146 94.7434 19.0066 93.2667 19.0066ZM105.476 12.8247H103.246V13.5628C100.447 13.6243 98.7707 14.8084 98.7707 16.8998C98.7707 18.9911 100.447 20.083 103.246 20.1445V20.8826H105.476V20.1445C108.289 20.083 109.966 18.9911 109.966 16.8998C109.966 14.8084 108.289 13.6243 105.476 13.5628V12.8247ZM103.246 18.576C101.708 18.5144 101.031 17.884 101.031 16.8998C101.031 15.9156 101.708 15.2082 103.246 15.1468V18.576ZM105.476 15.1468C107.029 15.2082 107.69 15.9156 107.69 16.8998C107.69 17.884 107.029 18.5144 105.476 18.576V15.1468ZM117.384 12.8247H115.154V13.5628C112.355 13.6243 110.68 14.8084 110.68 16.8998C110.68 18.9911 112.355 20.083 115.154 20.1445V20.8826H117.384V20.1445C120.199 20.083 121.875 18.9911 121.875 16.8998C121.875 14.8084 120.199 13.6243 117.384 13.5628V12.8247ZM115.154 18.576C113.617 18.5144 112.94 17.884 112.94 16.8998C112.94 15.9156 113.617 15.2082 115.154 15.1468V18.576ZM117.384 15.1468C118.937 15.2082 119.599 15.9156 119.599 16.8998C119.599 17.884 118.937 18.5144 117.384 18.576V15.1468Z" fill="black"/>
</svg>
