<svg width="127" height="32" fill="none" xmlns="http://www.w3.org/2000/svg">
    <path d="M116.802 12.423h4.99l-.518 2.899h2.089a3.45 3.45 0 012.022.477 1.784 1.784 0 01.662 1.541 4.633 4.633 0 01-.086.822c-.185 1.024-.559 1.756-1.122 2.183a4.055 4.055 0 01-2.467.642h-4.921l1.176-6.504h-2.187l.362-2.06zm4.111 4.851l-.305 1.743h1.427c.288.02.575-.05.822-.201.194-.17.319-.403.354-.658a1.87 1.87 0 00.028-.28.504.504 0 00-.209-.468 1.315 1.315 0 00-.691-.136h-1.426zm-9.045 1.748l.823-4.642h-1.982l-.123.913c-.12.752-.314 1.49-.58 2.203a6.255 6.255 0 01-.954 1.526h2.816zm-5.656 0a6.197 6.197 0 001.073-1.604 9.46 9.46 0 00.666-2.207l.489-2.788h7.433l-1.176 6.599h.822l-.752 4.172h-2.537l.411-2.228h-5.077l-.411 2.212h-2.512l.753-4.173.818.017zm-4.613-.823c0-.337-.111-.55-.329-.64a2.959 2.959 0 00-1.06-.137 2.006 2.006 0 00-.942.181.953.953 0 00-.444.716c0 .41.103.662.305.768.232.117.491.173.752.16a4.69 4.69 0 00.958-.073.902.902 0 00.538-.263 1.39 1.39 0 00.251-.691l-.029-.02zm-.16 1.489h-.099c-.325.908-1.233 1.369-2.7 1.369a5.81 5.81 0 01-1.489-.157 1.645 1.645 0 01-.904-.563 1.792 1.792 0 01-.317-1.122c.004-.276.033-.552.086-.822a3.62 3.62 0 01.638-1.596 2.467 2.467 0 011.184-.842 6.452 6.452 0 013.247-.082.876.876 0 01.666.793h.128l.246-1.353c.049-.198.076-.4.083-.604a.628.628 0 00-.235-.53 1.576 1.576 0 00-.871-.177 1.723 1.723 0 00-.896.193 1.019 1.019 0 00-.412.74H97.02c.083-.538.289-1.05.6-1.496.255-.347.597-.62.992-.79a4.123 4.123 0 011.233-.295 17.46 17.46 0 011.624-.058c.696-.016 1.393.035 2.08.152.437.063.839.275 1.139.6.283.386.42.86.386 1.336a7.98 7.98 0 01-.132 1.234l-.966 5.344h-2.844l.308-1.274zm-12.699 0l-.867 4.978h-2.804l2.2-12.255h2.803l-.296 1.348h.132a2.2 2.2 0 011.035-1.134 3.918 3.918 0 011.674-.317 3.345 3.345 0 012.055.535 2.013 2.013 0 01.703 1.714c.002.307-.026.614-.082.917l-.362 1.953a6.389 6.389 0 01-.699 2.113A2.836 2.836 0 0193 20.707a4.523 4.523 0 01-1.957.37 2.993 2.993 0 01-1.422-.288 1.484 1.484 0 01-.707-1.101h-.173zm.538-2.98a8.64 8.64 0 00-.143 1.175 1.04 1.04 0 00.259.785c.254.198.575.291.896.259.33.016.658-.038.966-.156a1.23 1.23 0 00.575-.625c.2-.46.338-.943.412-1.439a7.75 7.75 0 00.143-1.233.92.92 0 00-.28-.79 1.793 1.793 0 00-1.014-.205 1.957 1.957 0 00-.93.18 1.208 1.208 0 00-.518.65 7.708 7.708 0 00-.337 1.398h-.029zm-8.46 4.258l1.694-9.39h5.097l.506-2.832h-8.362l-2.195 12.222h3.26zm-7.81-6.504a2.43 2.43 0 00-1.04.173 1.155 1.155 0 00-.523.613 7.98 7.98 0 00-.366 1.45 8.9 8.9 0 00-.164 1.288.823.823 0 00.28.74 1.9 1.9 0 001.01.193c.277.009.554-.02.823-.087a.925.925 0 00.477-.32c.14-.198.242-.42.304-.654.078-.284.16-.666.246-1.16.098-.446.158-.9.181-1.356a1.05 1.05 0 00-.115-.53.578.578 0 00-.374-.267 2.358 2.358 0 00-.756-.074l.016-.008zm.34-2.15a9.674 9.674 0 012.216.198c.454.085.862.332 1.147.694.263.43.386.93.354 1.431a13.03 13.03 0 01-.23 2.056 9.453 9.453 0 01-.823 2.738 2.668 2.668 0 01-1.46 1.27c-.9.28-1.84.401-2.782.362a8.542 8.542 0 01-2.187-.222 1.986 1.986 0 01-1.156-.749 2.622 2.622 0 01-.353-1.475 11.4 11.4 0 01.214-1.924c.117-.75.308-1.487.571-2.2.181-.498.477-.948.864-1.311.401-.34.882-.571 1.397-.674a9.897 9.897 0 012.212-.173l.016-.02zm-4.859.103l-.357 2.056h-2.245l-1.188 6.495H61.89l1.176-6.504h-2.224l.357-2.055 7.29.008zM54.96 14.22l-.275 1.48h1.406c.254.02.509-.03.736-.144a.872.872 0 00.292-.588c0-.131.029-.218.029-.246 0-.342-.25-.506-.752-.506H54.96v.004zm-2.338-1.797h4.633a4.054 4.054 0 011.953.366 1.353 1.353 0 01.653 1.291c0 .19-.016.38-.05.568-.056.44-.252.85-.558 1.171-.322.298-.72.5-1.151.584v.066c.92.156 1.385.666 1.385 1.533 0 .163-.018.326-.053.485a3.47 3.47 0 01-.576 1.509 2.146 2.146 0 01-1.114.752 6.283 6.283 0 01-1.833.218H51.1l1.52-8.543zm1.747 5l-.304 1.747h1.5a1.46 1.46 0 00.843-.19.978.978 0 00.358-.678c.02-.144.032-.234.032-.275a.521.521 0 00-.213-.485 1.48 1.48 0 00-.716-.124h-1.5v.004zm-7.811-.93l-.55-5.299h-.034l-2.438 5.3h3.022zm.23 2.385h-4.374l-.978 2.088h-3.392L43.91 8.744h4.957l1.517 12.222H47.06l-.272-2.088z"
          fill="#E52628"/>
    <path fill-rule="evenodd" clip-rule="evenodd"
          d="M33.628 7.429l-11.889 2.96L18.089 0l-3.7 12.222-11.885 2.964 9.192 4.387L0 24.888l22.06-7.445-10.94 5.669L8.448 32l9.64-9.39 9.595 4.593-3.67-10.393 9.615-9.381zM16.814 17.583l1.784-6.22 1.768 5.007-3.552 1.213z"
          fill="#E20E19"/>
</svg>