<svg xmlns="http://www.w3.org/2000/svg" viewBox="0 0 730.14 258.47">
  <title>Ресурс 1</title>
  <g>
    <g>
      <path d="M120.56,143H13.13a13.12,13.12,0,1,0,0,26.24H120.56a13.12,13.12,0,1,0,0-26.24Zm0,0" fill="#353535"/>
      <path d="M133.69,90.47H52.49a13.12,13.12,0,1,0,0,26.25h81.19a13.12,13.12,0,0,0,0-26.25Zm0,0" fill="#353535"/>
      <path d="M146.81,38h-55a13.12,13.12,0,0,0,0,26.24h55a13.12,13.12,0,1,0,0-26.24Zm0,0" fill="#353535"/>
      <path d="M300.55,156.22a51.12,51.12,0,1,0,51.12,51.12,51.17,51.17,0,0,0-51.12-51.12Zm0,76a24.87,24.87,0,1,1,24.87-24.87,24.89,24.89,0,0,1-24.87,24.87Zm0,0" fill="#353535"/>
      <path d="M354.44,103.72l-8.23-.07a8.81,8.81,0,0,1-8.2-5.79L305.56,8.23a8.79,8.79,0,0,0-8.27-5.79H206.81a8.77,8.77,0,0,0-8.61,7.11l-36,184.74a8.79,8.79,0,0,0,8.62,10.46H230a70.58,70.58,0,0,1,141.09,0H380a8.79,8.79,0,0,0,8.79-8.78V138.31a34.59,34.59,0,0,0-34.32-34.59Zm-48.23-27.3a5.09,5.09,0,0,1-4.06,2H211a5.07,5.07,0,0,1-5-5.9l7.6-45.64a5.07,5.07,0,0,1,5-4.23h70.11a5.06,5.06,0,0,1,4.86,3.64L307,71.95a5.07,5.07,0,0,1-.81,4.47Zm0,0" fill="#f48028"/>
    </g>
    <g>
      <path d="M398.17,1.39h19.91V39.18l22-37.79h20.13L437.47,34.7,462.13,92H441.54l-15.94-41.7-7.53,10.91V92H398.17Z" fill="#353535"/>
      <path d="M529.68,46.65q0,46.71-32.85,46.71-16.32,0-24.62-11.91t-8.29-34.8Q463.93,0,496.77,0q16.06,0,24.48,11.68T529.68,46.65Zm-21,0q0-18.31-2.85-24.39t-9.09-6.07q-6.17,0-9,6.1t-2.85,24.35q0,17.92,2.82,24.22t9.06,6.3q6.17,0,9.06-6T508.72,46.65Z" fill="#353535"/>
      <path d="M543.55,1.39h29.2l12.81,55.94L600,1.39h28.33V92H609.64V16.12L591.13,92H576.66L559.74,16.12V92H543.55Z" fill="#353535"/>
      <path d="M645.41,1.39h29.2l12.81,55.94,14.4-55.94h28.33V92H711.5V16.12L693,92H678.52L661.6,16.12V92H645.41Z" fill="#353535"/>
    </g>
    <g>
      <path d="M487.16,116.06h19.62l25.34,88.68H512.18l-4.42-18.32h-25l-4.35,18.32H460.52Zm16.93,55.16-9-36.33-8.6,36.33Z" fill="#353535"/>
      <path d="M539.52,116.06H569.8q10.65,0,16.08,1.69a16.75,16.75,0,0,1,9.1,7.41q3.67,5.72,3.67,14.23,0,14.88-12.67,19.1Q601,163.81,601,180.24q0,8.64-4.09,14.58a19.68,19.68,0,0,1-10.1,7.93q-6,2-17.05,2H539.52Zm18.71,35.8h6.3q9.42,0,11.86-3.38a12.88,12.88,0,0,0,2.44-7.73,11.42,11.42,0,0,0-2.44-7.18Q574,130.41,566,130.41h-7.73Zm0,37.68h9.55q13.45,0,13.45-11.6,0-6.45-3.35-9.09t-10.1-2.64h-9.55Z" fill="#353535"/>
      <path d="M606,116.06h55.29v16.63H643.14v72H623.65v-72H606Z" fill="#353535"/>
      <path d="M730.13,160.36q0,45.74-32.16,45.74-16,0-24.1-11.66t-8.12-34.07q0-45.67,32.16-45.67,15.72,0,24,11.43T730.13,160.36Zm-20.53,0q0-17.93-2.79-23.87t-8.9-5.94q-6,0-8.84,6t-2.79,23.84q0,17.54,2.76,23.71t8.87,6.17q6,0,8.87-5.91T709.6,160.36Z" fill="#353535"/>
    </g>
  </g>
</svg>
