<svg width="108" height="24" fill="none" xmlns="http://www.w3.org/2000/svg"><path d="M97.607 15.16a5.666 5.666 0 01-.814-2.719c-.163-2.346 1.017-4.633 4.006-4.652.408 0 .814.038 1.201.157-.184-.276-.488-.472-.814-.572a2.71 2.71 0 00-.793-.078c-2.99.02-4.19 2.306-4.006 4.651.121 1.282.509 2.425 1.22 3.214zM87.519 12.4c1.139-.57 2.034-1.635 1.892-2.995a2.184 2.184 0 00-.671-1.4c.142.277.244.592.264.887.142 1.42-.875 2.543-2.115 3.096.264.097.467.235.63.413zm-16.515 0c1.14-.57 2.034-1.635 1.892-2.995a2.185 2.185 0 00-.67-1.4c.162.277.243.572.284.887.142 1.42-.875 2.543-2.116 3.096.224.097.428.235.61.413zm15.66 4.022c.51.769 1.2 1.4 2.665 1.4l2.218-.06a6.381 6.381 0 01-.53-.512l-2.075.06c-1.138.019-1.81-.355-2.278-.888zM64.58 10.508c-.021-1.142-.041-1.537-.102-2.266.805-.192 1.63-.298 2.46-.315.489-.02.976.02 1.464.117-.06-.217-.386-.434-.63-.532a5.273 5.273 0 00-1.24-.098c-.835.019-1.669.138-2.462.315.082.849.102 1.616.123 2.76l.387.02zm16.533-.019c-.02-1.144-.04-1.538-.1-2.266.805-.194 1.63-.3 2.46-.316a6 6 0 011.464.118c-.06-.217-.387-.434-.63-.532a5.274 5.274 0 00-1.24-.099c-.835.02-1.67.138-2.462.316.062.848.102 1.616.123 2.759l.385.02zm-10.981 5.933c.508.769 1.2 1.4 2.663 1.4l2.218-.06a6.381 6.381 0 01-.53-.512l-2.074.06c-1.139.019-1.81-.355-2.278-.888zM64.6 13.347c.915-.118 1.688-.178 2.542.177a2.262 2.262 0 00-1.017-.69c-.732-.157-1.18-.079-1.912.02v.453c.02 2.17.122 3.135.468 3.785h-3.153c-.046.178-.114.35-.203.513h3.762c-.365-.65-.467-1.617-.487-3.785v-.473zm16.513-.02c.916-.118 1.688-.177 2.543.178a2.263 2.263 0 00-1.017-.69c-.733-.158-1.18-.079-1.911.02v.453c.02 2.168.121 3.134.467 3.784h-3.152c-.04.178-.122.355-.204.513H81.6c-.366-.65-.448-1.616-.468-3.784v-.474h-.02zm-32.215-.847c.753-1.696.57-1.44 1.384-3.115-.102-.216-.204-.433-.326-.65-.935 1.892-.834 1.852-1.688 3.765h.63zm9.051 4.454c-.59-.847-1.22-2.207-2.297-4.632C54.226 9.15 53.718 7.808 53.697 7h-.325c.183.848.711 2.208 1.891 4.79 1.302 2.976 1.973 4.336 2.685 5.144zm-3.335.138c.04.158.102.336.122.513h3.741c-.162-.158-.284-.335-.426-.513h-3.437zm-9.681 0a6.14 6.14 0 01-.366.513h2.38a10.53 10.53 0 01.751-2.345h6.02c-.081-.158-.142-.336-.223-.513h-6.183a9.59 9.59 0 00-.752 2.345h-1.627zM31 15.141c1.139 1.676 3.416 2.8 6.61 2.858 1.83.02 3.64-.236 5.084-.789l-.183-1.596-.305.177.102.907c-1.444.552-3.254.808-5.084.789-2.868-.04-5.005-.966-6.224-2.346zm11.898-7.136a6.68 6.68 0 00-.55-.256l-.732 1.183-.08.158c.162.118.304.276.426.414l.936-1.5zM39.44 7.71a4.999 4.999 0 00-1.709-.178c-3.58.099-4.78 2.425-4.677 4.653a4.141 4.141 0 001.056 2.6 4.025 4.025 0 01-.65-2.088c-.102-2.228 1.099-4.554 4.678-4.653a5.425 5.425 0 012.238.336 3.015 3.015 0 00-.936-.67z" fill="#B9B9B6"/><path d="M94 15.06c.285.413.61.769.997 1.085 1.506 1.263 3.702 1.874 5.676 1.855 3.416 0 7.241-1.6 7.321-5.665A4.69 4.69 0 00106.815 9c.549.849.834 1.835.794 2.822-.062 4.085-3.906 5.665-7.323 5.665a9.614 9.614 0 01-4.72-1.185A5.315 5.315 0 0194 15.059z" fill="#B9B9B6"/><path d="M92.224 11.538c-.08 4.061 4.065 5.998 7.459 5.978 3.393-.02 7.234-1.688 7.315-5.978.102-4.082-3.8-6.061-7.458-6-3.658.064-7.234 1.688-7.316 6zm-50.52-4.562a10.177 10.177 0 00-5.06-1.166c-5.12.062-7.743 2.791-7.641 6.103.102 3.082 2.805 5.54 7.397 5.623 1.828.02 3.638-.25 5.08-.832l-.182-1.688a7.487 7.487 0 01-4.085 1.187c-3.393 0-4.897-2.145-4.98-4.31-.101-2.354 1.099-4.812 4.675-4.917 1.605-.041 3.089.584 3.862 1.562l.934-1.562zm4.329 4.54c-1.423 3.333-1.687 4.208-2.662 5.562h2.377c.158-.853.41-1.684.752-2.479h6.198c.36.796.638 1.626.833 2.479h3.72c-.752-.833-1.423-2.229-2.825-5.561-1.403-3.333-1.93-4.75-1.952-5.603h-4.368c-.061.854-.651 2.27-2.073 5.603zm.955 1.916c.853-2.02 1.667-4.08 2.58-6.081.935 2 1.788 4.062 2.642 6.083h-5.222v-.002zm16.399-.81a9.977 9.977 0 011.118-.064c.956 0 1.788.167 2.378.667a6.672 6.672 0 011.646 1.979c.569 1.062 1.178 2.187 3.07 2.187l2.214-.063c-1.93-1.77-2.642-4.499-5.325-5.207 1.647-.25 3.394-1.646 3.21-3.603-.202-2.27-2.824-2.75-5.546-2.75-2.013 0-4.025.188-5.996.541.427 1.042.509 2.188.509 3.354 0 .666-.02 1.333-.02 1.937v1.437c-.021 2.292-.123 3.396-.47 4.082h3.763c-.367-.686-.448-1.707-.469-3.998l-.08-.5h-.002zm3.557-1.417c-.65.104-1.3.146-1.971.146-.55 0-1.078-.02-1.585-.042-.02-1.209-.04-3.187-.122-4.083.807-.194 1.63-.305 2.458-.333 1.158-.02 2.866.166 3.13 1.604a2.375 2.375 0 01-.376 1.745 2.284 2.284 0 01-1.473.963h-.061zM79.909 12.6c.372-.041.745-.062 1.118-.062.956 0 1.788.166 2.378.666a6.67 6.67 0 011.647 1.978c.569 1.063 1.177 2.188 3.068 2.188l2.215-.063c-1.93-1.77-2.642-4.5-5.325-5.207 1.647-.25 3.393-1.645 3.21-3.603-.202-2.27-2.824-2.75-5.547-2.75-2.012 0-4.023.188-5.995.542.427 1.041.508 2.187.508 3.353 0 .667-.02 1.334-.02 1.938v1.437c-.02 2.29-.122 3.394-.468 4.082h3.76c-.366-.688-.447-1.708-.468-3.999l-.08-.5zm3.557-1.396c-.65.105-1.3.147-1.972.147-.549 0-1.078-.02-1.585-.042-.02-1.209-.04-3.187-.121-4.083a12.28 12.28 0 012.458-.333c1.158-.02 2.866.166 3.13 1.604A2.38 2.38 0 0185 10.242a2.284 2.284 0 01-1.474.963h-.06v-.001zm16.156 5.125c-2.642-.063-3.903-2.021-4.065-4.667-.162-2.478 1.017-4.894 4.003-4.915 2.5-.02 3.964 1.978 4.085 4.687.143 2.479-1.259 4.999-4.023 4.895z" fill="#403E3E"/><path d="M22.727 7C26.848 15.262 20.353 23.94 12 24c9.15-.806 13.985-9.855 10.727-17z" fill="#B9B9B6"/><path d="M19.635 3.324a11.12 11.12 0 00-4.83-2.862C12.728-.174 9.6-.294 6.79 1.018c5.245-1.154 9.144 1.55 11.44 3.936a9.031 9.031 0 011.605 2.167c.216.596.117 1.072-.279 1.45-.83.755-3.245.954-4.472 1.054-.694 0-1.287-.398-1.604-.596a14.06 14.06 0 01-.554-.358c-.792-.537-1.504-.716-2.236.179-.317.437-.634.855-.951 1.292-.336.496.277.875.634.418.277-.319.395-.498.672-.816a1.157 1.157 0 011.565-.1c1.127 1.054 1.86 1.75 2.988 2.784.06.059.119.038.158 0 .633-.657 3.801-1.233 4.394-1.094.495.12.732.438.753.974-.298 3.439-2.435 6.44-5.563 7.812l-1.009.338c-.613.199-1.07.12-1.345-.338-.298-.476-.397-1.332-.298-2.584.038-.338.077-.676.119-1.014l.04-.357c0-.06-.04-.08-.08-.06-.178.06-.494.16-.87-.239a8.317 8.317 0 01-.634-.576 5.25 5.25 0 01-.317.358c-.296.278-.395.298-.534.298h-.02c-.039 0-.039.04-.039.06.02.218.04.357.059.576.04.358.08.695.099 1.034.099 1.133-.02 1.948-.316 2.365-.298.417-.772.556-1.425.417l-.476-.099a9.53 9.53 0 01-3.344-2.167 9.005 9.005 0 01-2.376-4.036c-.099-.337-.158-.675-.218-.972-.099-.677-.158-1.114.159-1.53-.554.595-.733 1.55-.713 2.682a12.23 12.23 0 001.643 5.367c4.473 4.493 11.737 4.473 16.21-.04 4.474-4.492 4.454-11.786-.019-16.279zM17.3 10.698c-.791.178-1.484.198-1.524.038-.04-.158.594-.436 1.386-.615.81-.18 1.484-.199 1.523-.039.04.159-.593.437-1.385.616z" fill="#403E3E"/><path d="M9.797 13.322l-.791.953c-.396.478.237.975.634.538l.81-.954c.397-.418-.316-.954-.653-.537zm-1.048-.437a31.64 31.64 0 01-.673.834.41.41 0 00.51.62.407.407 0 00.122-.103c.22-.278.437-.576.674-.834.376-.378-.257-.955-.633-.517zm-1.267-.239l-.356.438a.434.434 0 00.02.596.43.43 0 00.593-.02c0-.02.02-.02.02-.04l.396-.438c.375-.476-.337-.953-.673-.536zm3.088 2.803l.633-.696c.396-.438-.297-.994-.673-.556-.198.218-.416.457-.613.695-.397.438.238.994.653.557z" fill="#403E3E"/><path d="M6.71.978A10.99 10.99 0 018.689.72c.752-.04 1.524 0 2.277.139 1.383.24 2.711.732 3.918 1.45.93.558 1.8 1.21 2.593 1.949.159.14.297.298.436.437-3.72-3.578-9.64-3.458-13.202.278a8.953 8.953 0 00-1.445 1.988c-.238.617-.179 1.133.217 1.511.792.755 2.97.934 4.117 1.054.416.02.892.059 1.208-.08.653-.318.733-1.192 1.662-1.192.139 0 .08.059 0 .139a.605.605 0 00-.158.158c-.376.497-.693.954-1.05 1.451-.493.676.516 1.412 1.109.736l.634-.736a.945.945 0 011.287-.079c1.147 1.034 2.275 2.107 3.364 3.121.396.357-.197 1.033-.613.596-.634-.596-.852-.855-1.504-1.391-.14-.14-.357.099-.218.218.535.517.81.776 1.366 1.273.375.357-.159.993-.634.576-.475-.418-.772-.716-1.227-1.153-.139-.14-.356.1-.238.238.397.358.713.676 1.108 1.034.377.358-.197.933-.612.557-.337-.298-.714-.656-1.03-.955-.12-.1-.337.1-.198.2.237.218.634.576.871.795.376.317-.139.974-.594.596l-.791-.676.098-.08c.336-.397-.02-.974-.375-1.073a.508.508 0 00-.298-.02c.317-.556-.653-1.133-.99-.755a.286.286 0 00-.059.08c.06-.477-.732-.895-1.108-.438-.039.04-.06.06-.099.12-.06-.557-.93-.756-1.267-.22-.376-.774-3.503-1.47-4.355-1.252-.197.04-.356.16-.494.299-1.207 1.312-.752 5.008.95 8.01-4.474-4.512-4.453-11.806.02-16.299A11.724 11.724 0 016.71.978zm-.97 9.144c-.811-.18-1.484-.199-1.524-.04-.039.16.593.438 1.385.616.792.18 1.485.199 1.525.04.039-.16-.574-.418-1.386-.616z" fill="#ED1C24"/></svg>