<svg width="124" height="32" fill="none" xmlns="http://www.w3.org/2000/svg"><path d="M45.83 2.434l-5.927 13.569h2.6l1.494-3.473h5.734l1.512 3.473h2.62l-5.926-13.57h-2.108zm-.857 7.843l1.89-4.345 1.889 4.345h-3.78zm74.405-4.09c-1.663 0-3.134.597-4.039 1.64l-.094.106 1.368 1.433.112-.118c.46-.472 1.278-1.036 2.576-1.036.829 0 2.193.238 2.302 1.788a8.762 8.762 0 00-2.001-.232c-2.27 0-4.693.87-4.693 3.312 0 2.133 1.862 3.106 3.591 3.106 1.25 0 2.423-.455 3.204-1.234l.11 1.045h2.051v-5.74c.003-3-2.316-4.07-4.487-4.07zm-.654 7.973c-1.025 0-1.561-.56-1.561-1.113 0-.703.845-1.414 2.458-1.414.601 0 1.225.1 1.95.315-.08 1.31-1.534 2.212-2.847 2.212zm-5.154-7.805h-2.927l-3.453 3.752V6.355h-2.366v9.648h2.366v-3.765l3.907 3.765h3.176l-5.06-4.906 4.357-4.742zm-35.14-.188c-2.83 0-5.048 2.201-5.048 5.012 0 2.81 2.218 5.01 5.048 5.01s5.048-2.202 5.048-5.01c0-2.811-2.215-5.012-5.048-5.012zm0 7.806c-1.542 0-2.663-1.176-2.663-2.794 0-1.619 1.12-2.795 2.663-2.795 1.531 0 2.644 1.176 2.644 2.796.003 1.617-1.11 2.793-2.644 2.793zM62.567 10.85a2.36 2.36 0 00.667-1.666c0-1.305-.91-2.828-3.48-2.828H55.34v9.648h4.955c2.606 0 3.536-1.51 3.536-2.92 0-.917-.469-1.737-1.263-2.235h-.001zm-4.862-2.52h2.122c.388 0 1.039.115 1.039.889 0 .82-.727.908-1.04.908h-2.122l.001-1.798zm2.57 5.625h-2.57V11.93h2.57c.755 0 1.19.372 1.19 1.02 0 .629-.443 1.004-1.19 1.004zm23.849-5.459h2.8v7.507h2.365V8.497h2.932V6.355h-8.1v2.141h.003zm13.954-2.33c-2.869 0-5.029 2.156-5.029 5.013 0 2.95 2.068 5.01 5.03 5.01 1.927 0 3.486-.796 4.388-2.24l.076-.122-1.824-1.306-.087.144c-.547.89-1.4 1.344-2.538 1.344-1.48 0-2.548-.888-2.704-2.228h7.315l.008-.146c.019-.303.019-.478.019-.68.003-3.306-2.335-4.788-4.654-4.788zm-2.562 3.81c.374-1.296 1.556-1.761 2.488-1.761 1.165 0 2.054.684 2.311 1.76h-4.8zM64.642 8.497h2.8v7.506h2.367V8.497h2.93V6.355H64.64v2.141h.002z" fill="#000"/><path fill-rule="evenodd" clip-rule="evenodd" d="M0 6.04A6.04 6.04 0 016.04 0h7.482v5.859H8.564A2.616 2.616 0 005.95 8.474v5.048H0V6.04z" fill="#0AF"/><path fill-rule="evenodd" clip-rule="evenodd" d="M5.95 23.075a2.616 2.616 0 002.614 2.615h4.958V32H6.04A6.04 6.04 0 010 25.96v-7.482h5.95v4.596z" fill="#A169F7"/><path fill-rule="evenodd" clip-rule="evenodd" d="M25.96 0A6.04 6.04 0 0132 6.04v7.482h-6.22V8.474a2.615 2.615 0 00-2.614-2.615h-4.688V0h7.482z" fill="#FF6163"/><path fill-rule="evenodd" clip-rule="evenodd" d="M23.166 25.69a2.615 2.615 0 002.614-2.616v-4.596H32v7.482A6.04 6.04 0 0125.96 32h-7.482v-6.31h4.688z" fill="#97CF26"/><path d="M41.684 28.897v-4.21h2.42v4.21h1.152V23.66H40.53v5.236h1.153zm6.3 2.189v-2.89c.292.418.931.805 1.685.805 1.435 0 2.525-1.225 2.525-2.722 0-1.498-1.09-2.724-2.525-2.724-.754 0-1.393.388-1.686.807v-.701h-1.152v7.424h1.152zm1.476-3.131c-.932 0-1.571-.733-1.571-1.676s.639-1.676 1.571-1.676c.922 0 1.56.733 1.56 1.676s-.639 1.675-1.56 1.675zm6.19 1.047c1.55 0 2.743-1.204 2.743-2.723s-1.194-2.724-2.743-2.724c-1.55 0-2.744 1.205-2.744 2.724 0 1.518 1.193 2.723 2.744 2.723zm0-1.07c-.932 0-1.582-.721-1.582-1.653 0-.933.65-1.655 1.582-1.655.92 0 1.57.723 1.57 1.655s-.648 1.654-1.57 1.654zm6.186 1.07c1.099 0 1.916-.461 2.387-1.215l-.88-.628c-.283.46-.754.796-1.497.796-.88 0-1.56-.556-1.614-1.425h4.117c.01-.168.01-.261.01-.377 0-1.686-1.141-2.598-2.524-2.598-1.592 0-2.733 1.184-2.733 2.724 0 1.602 1.141 2.722 2.733 2.722v.001zm-1.55-3.31c.167-.774.826-1.162 1.507-1.162.67 0 1.278.408 1.404 1.162h-2.912zm8.753 3.205h1.529l-2.744-2.66 2.366-2.577h-1.403l-2.063 2.24v-2.24h-1.152v5.236h1.152v-2.23l2.315 2.23zm3.161 0h1.152v-4.21h1.645V23.66H70.63v1.026h1.57v4.21zm5.57 0h1.268l.838-1.948h3.33l.849 1.948h1.277l-3.246-7.436h-1.069l-3.246 7.436zm3.771-5.781l1.194 2.743h-2.388l1.194-2.743zm5.626 5.78h1.016l2.377-5.235h-1.288l-1.602 3.675-1.592-3.675H84.8l2.367 5.236zm4.617-6.377c.43 0 .764-.345.764-.775a.763.763 0 00-.764-.765.778.778 0 00-.775.765c0 .43.356.775.775.775zm-.576 6.378h1.152V23.66h-1.152v5.236zm4.933.052c.367 0 .619-.042.86-.115v-1.026a1.63 1.63 0 01-.619.104c-.597 0-.879-.23-.879-.89v-2.335H97V23.66h-1.497v-1.455h-1.152v1.456h-1.09v1.026h1.09v2.524c0 1.183.785 1.738 1.79 1.738zm4.208.053c1.55 0 2.744-1.204 2.744-2.723s-1.194-2.724-2.744-2.724c-1.55 0-2.743 1.205-2.743 2.724 0 1.518 1.193 2.723 2.743 2.723zm0-1.07c-.932 0-1.581-.721-1.581-1.653 0-.933.65-1.655 1.581-1.655.922 0 1.571.723 1.571 1.655s-.649 1.654-1.571 1.654z" fill="#333"/></svg>