<?xml version="1.0" encoding="UTF-8"?><svg xmlns="http://www.w3.org/2000/svg" xmlns:xlink="http://www.w3.org/1999/xlink" viewBox="0 0 201.81 126.45"><defs><style>.cls-1{fill:url(#_ÅÂÁ_Ï_ÌÌ_È_ËÂÌÚ_150-2);}.cls-2{fill:#b89dc2;}.cls-3{fill:#bd0c34;}.cls-4{fill:#dacfe5;}.cls-5{fill:#d9cfe4;}.cls-6{fill:#3dffff;opacity:.28;}.cls-6,.cls-7{mix-blend-mode:soft-light;}.cls-7{fill:#f5f197;opacity:.55;}.cls-8{isolation:isolate;}.cls-9{fill:#fff;opacity:.47;}.cls-10{fill:url(#_ÅÂÁ_Ï_ÌÌ_È_ËÂÌÚ_161);}.cls-11{fill:url(#_ÅÂÁ_Ï_ÌÌ_È_ËÂÌÚ_162);}.cls-12{fill:url(#_ÅÂÁ_Ï_ÌÌ_È_ËÂÌÚ_159);}.cls-13{fill:url(#_ÅÂÁ_Ï_ÌÌ_È_ËÂÌÚ_151);}.cls-14{fill:url(#_ÅÂÁ_Ï_ÌÌ_È_ËÂÌÚ_150);}</style><linearGradient id="_ÅÂÁ_Ï_ÌÌ_È_ËÂÌÚ_150" x1="-150.64" y1="-302.32" x2="-127.76" y2="-312.47" gradientTransform="translate(84.22 399.13) rotate(19.21)" gradientUnits="userSpaceOnUse"><stop offset=".4" stop-color="#ff1c30"/><stop offset="1" stop-color="#e30040"/></linearGradient><linearGradient id="_ÅÂÁ_Ï_ÌÌ_È_ËÂÌÚ_150-2" x1="-98.84" y1="-339.6" x2="-34.91" y2="-367.95" xlink:href="#_ÅÂÁ_Ï_ÌÌ_È_ËÂÌÚ_150"/><radialGradient id="_ÅÂÁ_Ï_ÌÌ_È_ËÂÌÚ_162" cx="-87.32" cy="-315.24" fx="-87.32" fy="-315.24" r="77.39" gradientTransform="translate(84.22 399.13) rotate(19.21)" gradientUnits="userSpaceOnUse"><stop offset="0" stop-color="#fff"/><stop offset=".78" stop-color="#ebe1ef"/></radialGradient><linearGradient id="_ÅÂÁ_Ï_ÌÌ_È_ËÂÌÚ_161" x1="-107.67" y1="-378.9" x2="-63.26" y2="-322.79" gradientTransform="translate(84.22 399.13) rotate(19.21)" gradientUnits="userSpaceOnUse"><stop offset="0" stop-color="#fff"/><stop offset=".12" stop-color="#ffebec"/><stop offset=".51" stop-color="#ffb1b6"/><stop offset=".69" stop-color="#ff9ba2"/><stop offset=".77" stop-color="#f09ba8"/><stop offset=".93" stop-color="#ca9cb9"/><stop offset=".99" stop-color="#b89dc2"/></linearGradient><radialGradient id="_ÅÂÁ_Ï_ÌÌ_È_ËÂÌÚ_159" cx="-53.98" cy="24.98" fx="-53.98" fy="24.98" r="32.58" gradientTransform="translate(65.86 54.2) rotate(-11.74)" gradientUnits="userSpaceOnUse"><stop offset=".23" stop-color="#f1edf5"/><stop offset=".73" stop-color="#dacfe5"/><stop offset="1" stop-color="#c9b9dc"/></radialGradient><linearGradient id="_ÅÂÁ_Ï_ÌÌ_È_ËÂÌÚ_151" x1="-164.54" y1="-278.44" x2="-153.31" y2="-239.51" gradientTransform="translate(84.22 399.13) rotate(19.21)" gradientUnits="userSpaceOnUse"><stop offset="0" stop-color="#fff"/><stop offset="1" stop-color="#ebe1ef"/></linearGradient></defs><g class="cls-8"><g id="Layer_2"><g id="_ëÎÓÈ_6"><g><path class="cls-3" d="M70.67,91.25c-.32-11.7,.95-23.13,3.42-34.56,2.28-10.57,5.92-20.69,11.11-30.19,2.51-4.6,5.51-8.62,8.98-12.14l.22-1.49c-8.97,5.09-17.82,13.43-22.03,18.25-18.26,20.9-32.95,51.9-42.54,59.43,.54,3.06-.81,11.55,2.29,11.52,9.33-.08,28.08-1.05,40.57-5.1-.24-2.36-1.94-3.37-2-5.72Z"/><path class="cls-14" d="M72.12,31.4c-17.76,20.45-32.12,50.33-41.68,58.63,.12,1.15,.17,2.83,.26,4.6,1.72,.66,3.77,.2,5.33-.84,1.72-1.15,3.63-1.22,4.8-2.92,12.46-18.19,22.02-39.39,31.3-59.47Z"/><path class="cls-1" d="M197.23,74.95l-.98-.57c.38,.12,.7,.32,.98,.57l-1.26-1.9c-2.81-17.77-18.27-39.21-37.16-52.85C152.92,15.94,130.64,.41,123.37,.02c-7.92-.43-20.39,6.86-27.49,11.28-7.1,4.41-13.68,14.2-17.83,21.73-5.11,9.27-11.54,28.24-10.44,37.83,1.11,9.59,6.3,9.8,10.13,19.02,.25,.79,.52,1.57,.8,2.33,10.03-6.78,19.94-14.26,30.71-17.83,15.7-5.21,30.94-14.09,47.57-12.85,14.93,1.11,27.95,10.22,40.09,18.98,1.97-1.05,1.94-4.16,.33-5.57Z"/><path class="cls-7" d="M68.77,75.74c6.1-4.05,12.46-7.85,17.55-13.11,6.46-6.68-1.97-1.36,.16-10.41,5.56-23.69,14.48-40.42,31.77-51.64-7.5,1.76-16.67,7.16-22.38,10.71-7.1,4.41-13.68,14.2-17.83,21.73-5.11,9.27-11.54,28.24-10.44,37.83,.23,1.98,.63,3.55,1.16,4.89Z"/><path class="cls-6" d="M197.23,74.95l-.98-.57c.38,.12,.7,.32,.98,.57l-1.26-1.9c-2.81-17.77-18.27-39.21-37.16-52.85-4.94-3.57-21.41-15.07-30.88-18.91,6.49,5.11,11.73,12.05,15.91,19.27,6.4,11.04,10.98,23.1,17.99,33.76,2.36,3.58,5.01,6.97,7.88,10.15,9.73,3.61,18.68,9.91,27.19,16.06,1.97-1.05,1.94-4.16,.33-5.57Z"/><path class="cls-4" d="M199.72,78.54c-.76-5.59-4.05-10.5-7.7-14.8-13.14-15.49-32.27-25.77-52.44-28.19-20.17-2.42-41.19,3.06-57.62,15.01-3.71,2.7-7.17,5.86-9.43,9.85-11.51,20.31-5.39,14.25-3.46,21.72-1.07,12.51,2.56,15.33,5.63,15.89,6.75-7.3,15.85-12.96,24.82-16.42,5.23-2.31,11.39-4.19,18.51-5.06,43.36-5.27,64.98,10.38,73.64,17.51,2.15-3.06,8.55-11.8,8.04-15.51Z"/><path class="cls-11" d="M74.71,98.01c6.75-7.3,15.85-12.95,24.82-16.42,5.23-2.31,11.39-4.19,18.51-5.06,19.86-2.41,40.57,.7,58.58,7.22,6.5-5.15-4.45-20.59-18.91-26.62-2.43-11.48-4.72-16.98-14.1-20.99-1.34-.23-2.68-.43-4.03-.59-20.17-2.42-41.19,3.06-57.62,15.01-2.35,1.71-4.88,6.5,2.6,14.7-12.09,10.87-15.53,21.7-14.71,28.12,1.14,3.25,3.09,4.31,4.86,4.63Z"/><path class="cls-10" d="M200.95,77.6c-.69-3.39-3.02-8.45-5.06-11.25-3.64-4.98-8.14-9.43-12.92-13.32-8.45-6.88-18.27-12.06-28.74-15.09-2.32-.67-4.63-1.12-7.01-1.53-.61-.11-7.08-.98-7.64-.86,.13,.13,1.35,.25,7.22,1.71,2.3,.57,4.72,1.36,6.96,2.13,5.74,1.97,11.3,4.51,16.5,7.64,3.84,2.31,7.49,4.92,10.91,7.81,0,0,11.18,5.62,13.33,30.25,.25,2.83-1.01,5.88-11.69,.66-15.5-7.58-38.14-13.22-57.7-11.49-5.91,.52-11.76,1.17-17.49,2.81-6.72,1.93-13.33,4.91-19.3,8.37-3.93,2.28-7.57,5.04-10.91,8.13-.93,.86-1.84,1.73-2.7,2.66-.58,.63-1.05,.29-1.73-.19-2.11-1.5-2.65-4.53-2.91-6.92-.18-1.59-.16-3.21-.16-4.81,0-1.37,.06-2.73,.16-4.07-1.05-1.11-2-2.36-2.87-3.68-.48-.74-1.64-.49-1.78,.38-.02,.12-.04,.24-.06,.36,.15,.35,.35,.69,.61,1.04,.83,1.08,1.57,2.06,1.97,3.39,.12,.39,.13,.79,.1,1.2-.34,4.17-1.1,14.61,6.18,16.21,.52,.11,1.07,.01,1.48-.33,.84-.7,1.57-1.68,2.35-2.4,2.13-1.99,4.43-3.8,6.82-5.47,4.96-3.44,10.3-5.94,15.85-8.25,5.59-2.33,11.47-3.88,17.48-4.57,11.89-1.37,24.03-1.45,35.84,.66,12.4,2.22,24.14,7.02,34.22,14.62,1.05,.8,6.46,5.35,8.23,8.38,.37,.62,1.25,.66,1.65,.06,.48-.72,.99-1.57,1.3-2.34,1.71-4.39,3.45-12.29,1.5-21.88Z"/><g><path class="cls-12" d="M10.71,87.85c-1.5,1.49-5.71,1.19-6.48,3.29-1.31,3.57,.81,4.16,.81,4.16,0,0-4.76,4.18-5.04,7.93-.19,2.56,2.36,6.79,5.37,4.5-6.35,3.36-.83,13.3,5.38,9.64-2.99,5.9,6.11,10.7,9.28,4.89,3.67,7.11,14.98,3.75,14.15-4.22,6.51,5.84,9.82-6.46,6.77-11.16,3.56,1.34,5.48-4.7,1.53-5.45,2.28-1.72,3.19-5.04,2.11-7.69-1.6-3.93-4.79-2.13-6.89-4.01-1.35-1.21-6.44-14.62-10.59-6.23-1.03-1.92-2.71-4.94-5.37-4.36-1.43,.31-3.66,1.75-2.06,3.59-3.82-3.76-11.23,.14-8.98,5.12Z"/><path class="cls-2" d="M45.22,94.73c-.08-.38-.19-.75-.34-1.11h0c-.42-1.02-.95-1.7-1.56-2.15-.29-.21-.59-.36-.89-.48-.43-.08-.88-.14-1.33-.19-.11-.01-.23-.03-.34-.04-.51-.06-1.01-.14-1.47-.29-.89-.28-1.55-.7-2.04-1.37-.04-.06,0,.93,1.05,1.69,.94,.68,2.18,.66,3.28,.99,.71,.21,1.37,.6,1.8,1.38,.27,.45,.48,.98,.6,1.56,.1,.46,.13,.96,.1,1.47-.08,1.15-.53,2.4-1.38,3.37l-.09,.1-.07,.08s-.41,.36-.42,.37c-.24,.22-.54,.45-.85,.71l-.11,.09-.06,.05c-.19,.15-.28,.39-.26,.63v.07c.05,.21,.19,.39,.38,.49l.05,.03h.02s.06,.04,.06,.04h.02s.27,.1,.27,.1l.54,.18s.57,.19,.59,.19h.02s.12,.06,.12,.06c0,0,.07,.04,.07,.04,0,0,.05,.03,.07,.04,.25,.16,.42,.39,.49,.71,.02,.1,.03,.22,.03,.35,0,.52-.27,1.15-.63,1.45-.08,.06-.14,.11-.18,.14l-.04,.03s-.04,.02-.06,.03l-.16,.07s-.17,.03-.2,.04c-.04,0-.1-.02-.16-.03l-.69-.12c-.42-.08-.95-.24-1.49-.38-.11-.03-.22-.03-.32,0-.16,.03-.32,.13-.42,.27-.13,.17-.17,.38-.13,.58,.01,.07,.04,.14,.08,.2,.29,.51,.59,1.02,.86,1.54,.16,.3,.32,.58,.36,.72l.12,.35c.07,.23,.12,.46,.17,.69,.05,.26,.1,.53,.13,.8,.11,1.06,.09,2.17-.1,3.27-.18,1.1-.52,2.19-1.04,3.11-.46,.84-1.16,1.49-1.75,1.6,0,0-.14,.02-.14,.02-.35,.05-.78-.04-1.23-.25l-.33-.17c-.18-.12-.45-.34-.7-.52-.22-.16-.48-.37-.76-.6l-.82-.68c-.17-.14-.39-.19-.6-.15l-.18,.06c-.25,.13-.41,.39-.39,.67,.03,.69,.1,1.42,.1,1.98v.88s-.04,.37-.04,.37c-.08,.52-.22,1.02-.43,1.47-.41,.92-1.08,1.72-1.89,2.31-.82,.61-1.78,1.02-2.75,1.22-.96,.2-1.93,.19-2.82-.01-.88-.18-1.68-.6-2.36-1.14-.32-.26-.61-.57-.89-.9,0,0-.2-.27-.21-.29-.09-.11-.2-.31-.32-.52l-.34-.59s-.17-.29-.18-.31c0,0-.02-.04-.03-.05l-.09-.12c-.14-.19-.37-.3-.61-.29h-.12c-.19,.05-.36,.17-.46,.34l-.09,.14c-.24,.38-.47,.76-.7,1.13l-.25,.34-.19,.2c-.24,.26-.51,.47-.81,.63-.31,.18-.65,.3-.99,.37-.3,.06-.6,.09-.9,.08-.93-.02-1.79-.35-2.49-.79-.09-.05-.18-.12-.27-.18-.09-.06-.17-.13-.25-.19-.07-.06-.14-.12-.21-.19-.02-.02-.04-.03-.06-.05-.1-.09-.17-.19-.25-.29-.04-.04-.08-.08-.11-.12,0,0,0-.01-.01-.02-.12-.15-.22-.3-.31-.46-.88-1.37-1.02-2.79-.77-4.33-.11,0-.22,.05-.26,.16-.53,1.14-.64,2.26-.43,3.27,.31,1.5,1.31,2.74,2.58,3.53,1.27,.79,2.83,1.15,4.3,.84,1.21-.25,2.36-.97,3.19-2.23,.87,1.46,2.08,2.45,3.44,3.02,1.49,.62,3.15,.73,4.71,.4,1.8-.37,3.49-1.32,4.68-2.74,1.06-1.26,1.71-2.91,1.68-4.81,1.3,1,2.51,1.32,3.59,1.1,.86-.18,1.6-.7,2.2-1.42,.9-1.08,1.51-2.61,1.84-4.25,.32-1.65,.34-3.41,.02-4.96-.14-.66-.34-1.29-.61-1.85,.33,.05,.66,.04,.96-.02,.88-.18,1.56-.78,1.98-1.52,.42-.74,.59-1.63,.42-2.46-.17-.88-.78-1.67-1.82-2.04,1.78-1.63,2.59-4.2,2.11-6.55Z"/></g><path class="cls-9" d="M82.8,29.66c.71-.63,1.2-2.17,1.71-3,.65-1.05,1.34-2.09,2.06-3.09,1.45-2.01,3.03-3.92,4.74-5.72,3.42-3.59,7.34-6.72,11.62-9.26,2.38-1.42,4.92-2.78,7.55-3.7-1.8,2.21-4.5,4.09-6.66,6.01-2.35,2.1-4.7,4.19-7.05,6.29-4.66,4.16-9.32,8.32-13.98,12.47Z"/><path class="cls-13" d="M5.5,105.53c0-.1,0-.2,.02-.29,.3-1.7,1.77-3.05,3.44-3.53,.63-.18,1.28-.25,1.94-.24,.16-.5,.4-.97,.73-1.36,.04-.79,.35-1.62,1.03-2.48,1.85-2.33,4.34-2.33,6.83-1.77,.09-1.14,.6-2.05,1.38-2.72,.14-.27,.31-.51,.54-.71,1.04-.91,2.56-1.03,3.94-.86,.76,.09,1.51,.25,2.27,.37,.39-1.44,1.3-2.66,2.99-3.25,2.21-.77,3.92-.03,5.21,1.34,.05,.05,.11,.1,.16,.15,.12-.38,.21-.78,.26-1.18-2.11-3.75-5.72-9.93-8.81-3.7-.99-1.86-2.62-4.78-5.2-4.22-1.39,.3-3.54,1.7-1.99,3.48-3.7-3.64-10.88,.13-8.7,4.96-1.45,1.45-5.53,1.15-6.28,3.18-.96,2.62-.01,3.58,.5,3.89-.49,.54-.93,1.12-1.3,1.74-.33,.37-.69,.79-1.04,1.25-.07,.61-.1,1.21-.03,1.82-.21,1.85,.4,3.81,1.76,5.03,.1-.3,.21-.6,.35-.89Z"/><path class="cls-5" d="M84.25,66.42c-3.5,2.46-6.16,5.35-7.94,7.58-.95,1.08-1.6,2.04-2.14,2.66-.53,.62-.9,.94-1.05,.86-.15-.08-.07-.55,.22-1.33,.29-.78,.73-1.92,1.54-3.19,1.48-2.59,4.15-5.93,7.96-8.6,1.89-1.33,3.85-2.39,5.71-3.11,1.85-.76,3.6-1.22,5.07-1.48,2.97-.53,4.8-.37,4.85-.07,.15,.8-7.19,1.68-14.22,6.69Z"/></g></g></g></g></svg>