<svg style="display: none;" aria-hidden="true" xmlns="http://www.w3.org/2000/svg" xmlns:xlink="http://www.w3.org/1999/xlink"><symbol viewBox="0 0 16 16" id="icon-arrow" xmlns="http://www.w3.org/2000/svg"><path fill-rule="evenodd" clip-rule="evenodd" d="M12.448 6.351a1.2 1.2 0 010 1.698l-3.6 3.6a1.2 1.2 0 01-1.697 0l-3.6-3.6A1.2 1.2 0 015.248 6.35L8 9.103l2.75-2.753a1.2 1.2 0 011.697 0z"/></symbol><symbol viewBox="0 0 41 40" id="icon-audi" xmlns="http://www.w3.org/2000/svg"><path d="M33.46 25.433a5.405 5.405 0 01-3.307-1.127A6.963 6.963 0 0031.64 20a6.964 6.964 0 00-1.487-4.306 5.405 5.405 0 013.307-1.127A5.44 5.44 0 0138.893 20a5.44 5.44 0 01-5.433 5.433zm-12.128-1.127A6.963 6.963 0 0022.82 20a6.964 6.964 0 00-1.487-4.306 5.405 5.405 0 013.307-1.127c1.244 0 2.39.421 3.307 1.127A6.964 6.964 0 0026.46 20c0 1.623.557 3.118 1.487 4.306a5.405 5.405 0 01-3.307 1.127 5.405 5.405 0 01-3.308-1.127zm-8.82 0A6.963 6.963 0 0014 20a6.964 6.964 0 00-1.487-4.306 5.405 5.405 0 013.307-1.127c1.244 0 2.39.421 3.307 1.127A6.964 6.964 0 0017.64 20c0 1.623.557 3.118 1.487 4.306a5.405 5.405 0 01-3.307 1.127 5.405 5.405 0 01-3.308-1.127zM1.567 20A5.44 5.44 0 017 14.567c1.244 0 2.39.421 3.307 1.127A6.964 6.964 0 008.82 20c0 1.623.557 3.118 1.487 4.306A5.405 5.405 0 017 25.433 5.44 5.44 0 011.567 20zm9.843 3.168A5.402 5.402 0 0110.387 20c0-1.181.38-2.275 1.023-3.168A5.402 5.402 0 0112.433 20c0 1.182-.38 2.275-1.023 3.168zm8.82 0A5.402 5.402 0 0119.207 20c0-1.181.38-2.275 1.023-3.168A5.402 5.402 0 0121.253 20c0 1.182-.38 2.275-1.023 3.168zm8.82 0A5.402 5.402 0 0128.027 20c0-1.181.38-2.275 1.023-3.168A5.402 5.402 0 0130.073 20c0 1.182-.38 2.275-1.023 3.168zM33.46 13c-1.67 0-3.205.589-4.41 1.569A6.966 6.966 0 0024.64 13c-1.67 0-3.205.589-4.41 1.569A6.966 6.966 0 0015.82 13c-1.67 0-3.205.589-4.41 1.569A6.966 6.966 0 007 13c-3.86 0-7 3.14-7 7s3.14 7 7 7c1.67 0 3.205-.589 4.41-1.569A6.965 6.965 0 0015.82 27c1.67 0 3.205-.589 4.41-1.569A6.965 6.965 0 0024.64 27c1.67 0 3.205-.589 4.41-1.569A6.965 6.965 0 0033.46 27c3.86 0 7-3.14 7-7s-3.14-7-7-7z"/></symbol><symbol viewBox="0 0 16 16" id="icon-autoteka" xmlns="http://www.w3.org/2000/svg"><path fill-rule="evenodd" clip-rule="evenodd" d="M1 3.642A2.642 2.642 0 013.642 1h3.274v2.563h-2.17a1.144 1.144 0 00-1.143 1.144v2.209H1V3.642zM3.603 11.095a1.144 1.144 0 001.144 1.144h2.169V15H3.642A2.642 2.642 0 011 12.358V9.084h2.603v2.011zM12.358 1A2.642 2.642 0 0115 3.642v3.274h-2.721V4.707a1.144 1.144 0 00-1.144-1.144h-2.05V1h3.273zM11.135 12.24a1.144 1.144 0 001.144-1.145v-2.01H15v3.273A2.642 2.642 0 0112.358 15H9.084v-2.76h2.05z"/></symbol><symbol viewBox="0 0 16 16" id="icon-bank" xmlns="http://www.w3.org/2000/svg"><path fill-rule="evenodd" clip-rule="evenodd" d="M7.413 1.207a.933.933 0 011.174 0l6.048 4.669a.935.935 0 01-.571 1.677h-.447v5.618a.937.937 0 010 1.872H2.383a.937.937 0 010-1.872V7.553h-.447a.937.937 0 01-.57-1.677l6.047-4.67zM5.191 8.022a.468.468 0 00-.936 0v4.68a.468.468 0 00.936 0v-4.68zm3.745.468a.937.937 0 00-1.872 0v3.745a.937.937 0 001.872 0V8.49zm2.809-.468a.468.468 0 00-.936 0v4.68a.468.468 0 00.936 0v-4.68zM8 3.809a.937.937 0 110 1.873.937.937 0 010-1.873z"/></symbol><symbol viewBox="0 0 32 32" id="icon-bmw" xmlns="http://www.w3.org/2000/svg"><path fill-rule="evenodd" clip-rule="evenodd" d="M10.27 7.721c.448.517.195 1.057-.253 1.525l-.364.38a64.7 64.7 0 00-1.395 1.489L5.841 8.838c.232-.3.619-.765.884-1.059.88-.974 1.204-1.259 1.624-1.301a.847.847 0 01.626.173.809.809 0 01.282.85l-.011.03.034-.013c.339-.138.747-.077.99.203zM8.103 7.35c-.234.212-.752.749-1.238 1.34l.468.444s.944-.981 1.202-1.27c.114-.127.217-.281.18-.444-.037-.161-.2-.273-.36-.23a.64.64 0 00-.252.16zm.928.958c-.3.309-1.22 1.274-1.22 1.274l.49.462L9.52 8.747c.094-.1.207-.232.238-.37a.284.284 0 00-.124-.3c-.103-.069-.22-.058-.325-.007-.083.04-.16.115-.278.237z"/><path d="M17.05 4.809l-.774 1.722h-.704l-.774-1.722-.05-.153.014.16-.08 2.3c-.272.026-.553.063-.83.109l.127-3.407a17.29 17.29 0 011.156-.09l.762 1.88.027.14.027-.14.762-1.88c.385.017.77.047 1.156.09l.126 3.407a11.857 11.857 0 00-.828-.109l-.081-2.3.014-.16-.05.153zm6.271 6.011a12.17 12.17 0 00-.618-.728l.878-1.682.08-.108-.109.08-1.692.872c-.192-.174-.492-.43-.72-.604l1.798-2.81c.256.196.456.357.665.534l-1.187 1.78-.106.122.134-.09 1.581-.787.56.556-.792 1.57-.091.132.122-.104 1.794-1.178c.169.197.394.476.535.66l-2.832 1.785z"/><path fill-rule="evenodd" clip-rule="evenodd" d="M24.297 16a8.297 8.297 0 00-8.524-8.294A8.296 8.296 0 007.703 16a8.297 8.297 0 0010.033 8.115 8.303 8.303 0 006.263-5.904 8.307 8.307 0 00.298-2.21zm-.46 0A7.837 7.837 0 0016 8.164V16H8.163A7.838 7.838 0 0016 23.837V16l7.837.002z"/><path fill-rule="evenodd" clip-rule="evenodd" d="M2 16C2 8.268 8.268 2 16 2s14 6.268 14 14-6.268 14-14 14S2 23.732 2 16zm14 13.09c7.23 0 13.09-5.861 13.09-13.09S23.229 2.91 16 2.91 2.91 8.771 2.91 16 8.77 29.09 16 29.09z"/></symbol><symbol viewBox="0 0 56 32" id="icon-cadillac" xmlns="http://www.w3.org/2000/svg"><path fill-rule="evenodd" clip-rule="evenodd" d="M12.692 9.95C5.406 9.536.679 15.675 7.869 15.787c5.87-4.56 13.246-8.164 15.862-6.273 2.428 2.982-10.19 7.598-15.017 6.94-5.727 6.566-.858 7.791 6.985 2.655 2.573-2.415 5.053-3.36 7.085-2.726l-3.364 3.684c-.76 1.592.71.865 2.38-.568 2.104-2.774 4.421-3.452 6.24-3.199.892-.967 1.908-1.812 2.801-2.78h1.286c-2.126 2.042-4.324 3.998-6.278 6.25-.372 1.099.517 1.262 2.392-.581l3.031-2.754 1.14-.013-3.246 3.237c-.727 1.306.53 1.387 2.792.19.602-2.526 4.887-6.646 6.573-6.7 1.324.85-1.886 4.411-5.687 6.638-.53 1.428 1.033 1.166 3.47.206.434-2.37 4.935-6.603 6.27-6.472 1.64.327-.829 3.683-5.277 6.323-.445 1.7 1.327.903 3.136-.52 2.153-2.488 4.694-3.694 7.246-2.892l-3.182 3.575c-.458.549.107 1.299 1.054.46 1.627-1.592 4.724-5.595 7.483-4.363.739.63.035 1.65-1.15 2.26-.283.069-.366-.004-.25-.22.828-.665 1.208-1.24.794-1.654-2.058-.604-6.71 4.132-3.489 4.452 1.336-.142 2.58-.642 3.761-1.387l.203.395c-2.63 1.834-6.54 2.48-5.98-.33-1.778 2.244-3.4 2.026-3.315.557-1.973 1.847-3.795 1.346-3.178-.424-1.887 2.177-3.833 1.905-4.202.665-2.86 1.418-4.176 1.281-4.209-.145-2.537 1.776-4.564 1.42-3.747-.716-1.947 2.314-3.798 2.286-3.26.317-2.573 2.333-4.329 1.672-3.25-.12-1.57 1.722-3.733 2.439-3.264.472-2.302 1.803-3.718 1.145-2.926-.558-4.282 4.207-14.61 5.697-8.328-3.23-6.697.061-5.926-6.98 5.467-6.9l-.029.412zM9.3 15.944c5.625.733 14.994-4.336 13.994-5.957-1.17-1.413-6.505.153-13.994 5.957zm12.228.63c-1.96 2.556-3.474 3.953-4.417 4.153-.744.158-.85-.184-.616-.751.727-1.572 3.3-3.377 5.033-3.403zm5.865.028c-1.96 2.558-3.474 3.954-4.417 4.154-.745.158-.85-.184-.616-.75.727-1.573 3.3-3.378 5.033-3.404zm18.914.03c-1.96 2.556-3.475 3.953-4.418 4.153-.744.158-.85-.183-.615-.75.726-1.573 3.301-3.378 5.033-3.404zM33.272 14.85c.246.24.216.661-.067.936-.284.276-.717.303-.963.062-.246-.24-.217-.661.067-.937.284-.275.716-.302.963-.061zm-.297 4.28c3.95-2.767 5.765-4.924 5.025-5.383-2.173 1.364-4.433 3.623-5.025 5.383zm4.477.057c3.95-2.766 5.764-4.924 5.024-5.382-2.172 1.363-4.433 3.622-5.024 5.382z"/></symbol><symbol viewBox="0 0 16 16" id="icon-call" xmlns="http://www.w3.org/2000/svg"><path fill-rule="evenodd" clip-rule="evenodd" d="M6.288.69c.611-.165 1.24.2 1.404.815L8.31 3.82a1.153 1.153 0 01-.947 1.439l-1.092.224s-.654.096-.637.75c.02.83 1.4 3.233 2.106 3.665.557.342.967-.18.967-.18l.739-.836a1.145 1.145 0 011.715-.104l1.688 1.695a1.156 1.156 0 010 1.628s-1.009 1.056-2.26 1.823c-1.505.923-2.941.095-3.396-.134-1.07-.542-2.542-2.266-3.515-3.927l-.045-.08c-.946-1.676-1.697-3.819-1.629-5.018.03-.51.034-2.174 1.581-3.02C4.873 1.038 6.288.69 6.288.69z"/></symbol><symbol viewBox="0 0 16 16" id="icon-callback" xmlns="http://www.w3.org/2000/svg"><path fill-rule="evenodd" clip-rule="evenodd" d="M3.942 3.443a1.054 1.054 0 011.29.748l.569 2.129a1.06 1.06 0 01-.871 1.322l-1.004.206s-.601.088-.586.69c.018.763 1.288 2.972 1.937 3.37.512.313.888-.166.888-.166l.68-.77a1.053 1.053 0 011.576-.096l1.552 1.56a1.062 1.062 0 010 1.496s-.927.97-2.078 1.676c-1.383.848-2.703.087-3.121-.123-.984-.498-2.337-2.083-3.231-3.61l-.042-.073C.63 10.261-.06 8.292.004 7.188c.027-.47.03-1.998 1.453-2.776 1.184-.649 2.485-.97 2.485-.97zm8.628 3.24l.44.763c.177.306.1.682-.173.84a.532.532 0 01-.389.053l-2.894-.518a.667.667 0 01-.463-.331.667.667 0 01-.056-.567l.999-2.766c.04-.13.121-.24.241-.31.273-.157.637-.036.813.27l.735 1.272a2.95 2.95 0 001.75-4.29.732.732 0 111.275-.72 4.414 4.414 0 01-2.278 6.304z"/></symbol><symbol viewBox="0 0 16 16" id="icon-check" xmlns="http://www.w3.org/2000/svg"><path fill-rule="evenodd" clip-rule="evenodd" d="M16 8c0-4.415-3.585-8-8-8S0 3.585 0 8s3.585 8 8 8 8-3.585 8-8zm-4.711-2.467a1.037 1.037 0 00-.545-.11 1.05 1.05 0 00-.519.198l-.036.029-.036.03c-.67.64-1.321 1.301-1.972 1.961-.31.316-.621.632-.934.945L5.954 7.293a1.042 1.042 0 00-.396-.243.988.988 0 00-.732.043 1.007 1.007 0 00-.543 1.173c.042.153.121.288.224.407a62.886 62.886 0 002.066 2.066 1.003 1.003 0 001.347 0 110.886 110.886 0 003.646-3.646c.103-.12.182-.254.224-.406a1.009 1.009 0 00-.501-1.154z"/></symbol><symbol viewBox="0 0 20 20" id="icon-checkbox-active" xmlns="http://www.w3.org/2000/svg"><path fill-rule="evenodd" clip-rule="evenodd" d="M6 0a6 6 0 00-6 6v8a6 6 0 006 6h8a6 6 0 006-6V6a6 6 0 00-6-6H6zm6.875 6.375c.5-.5 1.25-.5 1.75 0s.5 1.25 0 1.75l-5 5c-.25.25-.5.375-.875.375s-.625-.125-.875-.375l-2.5-2.5c-.5-.5-.5-1.25 0-1.75s1.25-.5 1.75 0L8.75 10.5l4.125-4.125z"/></symbol><symbol viewBox="0 0 20 20" id="icon-checkmark" xmlns="http://www.w3.org/2000/svg"><path fill-rule="evenodd" clip-rule="evenodd" d="M14.625 6.375c-.5-.5-1.25-.5-1.75 0L8.75 10.5 7.125 8.875c-.5-.5-1.25-.5-1.75 0s-.5 1.25 0 1.75l2.5 2.5c.25.25.5.375.875.375s.625-.125.875-.375l5-5c.5-.5.5-1.25 0-1.75z"/></symbol><symbol viewBox="0 0 16 16" id="icon-close-s" xmlns="http://www.w3.org/2000/svg"><path d="M4.223 4.223a.763.763 0 011.08 0l6.474 6.474a.763.763 0 11-1.08 1.08L4.223 5.302a.763.763 0 010-1.079z"/><path d="M4.223 11.777a.763.763 0 010-1.08l6.474-6.474a.763.763 0 111.08 1.08l-6.475 6.474a.763.763 0 01-1.079 0z"/></symbol><symbol viewBox="0 0 16 16" id="icon-color" xmlns="http://www.w3.org/2000/svg"><path fill-rule="evenodd" clip-rule="evenodd" d="M16 8c0 4.415-3.585 8-8 8s-8-3.585-8-8 3.585-8 8-8 8 3.585 8 8zM8 1.927c3.352 0 3.352 12.146 0 12.146A6.076 6.076 0 011.927 8 6.076 6.076 0 018 1.927z"/></symbol><symbol viewBox="0 0 16 16" id="icon-compare" xmlns="http://www.w3.org/2000/svg"><path d="M8.002 0a1 1 0 00-1 1v1H7v2h.002v2H7v6h.002v1a1 1 0 002 0V1a1 1 0 00-1-1z"/><path fill-rule="evenodd" clip-rule="evenodd" d="M2.203 4.8A4.456 4.456 0 015 2.206v2.19a2.45 2.45 0 00-.94 1.144L3.877 6H5v6H4v2H1v-2H0V9c0-.89.42-1.7 1.099-2.21-.189-.1-.363-.22-.515-.37A2.02 2.02 0 010 5.01V5h2c.041 0 .081 0 .12.01l.083-.21zM1 8h1.378c.43 0 .843.17 1.147.47.304.31.475.72.475 1.15V10H2.998A1.996 1.996 0 011 8zm10-2h1.123l-.183-.46a2.735 2.735 0 00-.344-.6c-.16-.2-.352-.38-.568-.52L11 4.4V2.207A4.456 4.456 0 0113.797 4.8l.083.21h.005A.448.448 0 0114 5h2v.01c0 .52-.21 1.03-.584 1.41-.152.15-.326.27-.515.37l.009.01c.163.12.312.26.444.42.26.31.451.68.555 1.07.06.23.09.47.091.71v3h-1v2h-3v-2h-1V6zm2.622 2H15v.01c-.007 1.1-.9 1.99-2 1.99h-1v-.38c0-.43.17-.84.475-1.15.304-.3.717-.47 1.147-.47z"/></symbol><symbol viewBox="0 0 16 16" id="icon-credit-card" xmlns="http://www.w3.org/2000/svg"><path fill-rule="evenodd" clip-rule="evenodd" d="M13.133 2C14.163 2 15 2.836 15 3.867v7.466c0 1.03-.836 1.867-1.867 1.867H2.867A1.867 1.867 0 011 11.333V3.867C1 2.837 1.836 2 2.867 2h10.266zm-5.6 8.867a.467.467 0 00-.466-.467H3.333a.467.467 0 000 .933h3.734a.467.467 0 00.466-.466zM5.667 9a.467.467 0 00-.467-.467H3.333a.467.467 0 000 .934H5.2c.258 0 .467-.21.467-.467zm3.266-.467H7.067a.467.467 0 000 .934h1.866a.467.467 0 000-.934zm3.734 0H10.8a.467.467 0 000 .934h1.867a.467.467 0 000-.934zM5.9 3.867H3.567a.7.7 0 00-.7.7v1.4a.7.7 0 00.7.7H5.9a.7.7 0 00.7-.7v-1.4a.7.7 0 00-.7-.7z"/></symbol><symbol viewBox="0 0 16 16" id="icon-docs" xmlns="http://www.w3.org/2000/svg"><path fill-rule="evenodd" clip-rule="evenodd" d="M8.997 16a2 2 0 002-2h-5c-1.943 0-3-1.189-3-2.985V4a2 2 0 00-2 2v8a2 2 0 002 2h6zm3.006-3H5.997a2 2 0 01-2-2V3a2 2 0 012-2h6.006a2 2 0 012 2v8a2 2 0 01-2 2zM8.497 8h-2a.5.5 0 000 1h2a.5.5 0 000-1zm3-2h-5a.5.5 0 000 1h5a.5.5 0 000-1zm0-2h-5a.5.5 0 000 1h5a.5.5 0 000-1z"/></symbol><symbol viewBox="0 0 16 16" id="icon-download" xmlns="http://www.w3.org/2000/svg"><path fill-rule="evenodd" clip-rule="evenodd" d="M3 6v8h10V6h-1a1 1 0 010-2h2a1 1 0 011 1v10a1 1 0 01-1 1H2a.996.996 0 01-.799-.4A.993.993 0 011 15V5a1 1 0 011-1h2a1 1 0 010 2H3zm4 3.585V2a1 1 0 012 0v7.585l1-1a1.002 1.002 0 011.415 0c.39.391.39 1.024 0 1.415l-2.708 2.707-.021.021-.002.001-.005.005-.021.019-.042.035-.02.015-.039.028-.002.001-.001.001c-.04.026-.08.049-.122.069l-.005.003-.003.001-.042.019-.006.002-.005.002-.006.002-.017.007-.006.002a1.004 1.004 0 01-.279.058l-.015.001-.042.001H8l-.048-.001-.015-.001a.993.993 0 01-.228-.041l-.005-.001-.006-.002a.325.325 0 01-.017-.006l-.006-.002-.031-.011-.02-.008-.006-.002-.022-.01-.006-.002-.014-.007-.036-.017-.001-.001a1.176 1.176 0 01-.09-.053l-.004-.003-.003-.002a.775.775 0 01-.058-.042l-.005-.004a.936.936 0 01-.059-.051l-.004-.004-.003-.002-.002-.002-.002-.003-.016-.015L4.585 10a1.002 1.002 0 010-1.415 1.002 1.002 0 011.415 0l1 1z"/></symbol><symbol viewBox="0 0 16 16" id="icon-engine" xmlns="http://www.w3.org/2000/svg"><path fill-rule="evenodd" clip-rule="evenodd" d="M9.999.002L11 .24 9.426 5.46 15 7.11l-8.999 8.887L6 16l-1-.238 1.573-5.222L1 8.89 9.994.005l.002-.004h.002L10 0l-.001.002z"/></symbol><symbol viewBox="0 0 16 16" id="icon-facebook" xmlns="http://www.w3.org/2000/svg"><path fill-rule="evenodd" clip-rule="evenodd" d="M8.962 16V8.85h2.45l.367-2.844H8.962V4.19c0-.823.229-1.384 1.41-1.384l1.506-.001V.26A20.072 20.072 0 009.683.149c-2.171 0-3.658 1.325-3.658 3.76v2.097H3.569V8.85h2.456V16h2.937z"/></symbol><symbol viewBox="0 0 16 16" id="icon-favorites" xmlns="http://www.w3.org/2000/svg"><path fill-rule="evenodd" clip-rule="evenodd" d="M4.865 3.165a2.5 2.5 0 00-1.767.732l-.202.202a2.499 2.499 0 000 3.535l3.893 3.892a1.71 1.71 0 002.422 0l1.492-1.492 2.4-2.4a2.499 2.499 0 00.001-3.535l-.202-.202a2.5 2.5 0 00-1.768-.732c-.602 0-1.408.372-1.923.888l-.001.002L8 5.263l-1.21-1.21c-.517-.516-1.321-.888-1.925-.888zm-3.298-.799A4.664 4.664 0 014.865 1C6.008 1 7.173 1.537 8 2.23 8.827 1.538 9.993 1 11.134 1c1.238 0 2.424.492 3.299 1.366l.2.202c.001 0 0 0 0 0a4.663 4.663 0 01.001 6.596l-2.4 2.4-1.492 1.493a3.878 3.878 0 01-5.484 0L1.366 9.164a4.663 4.663 0 010-6.596l.201-.202z"/></symbol><symbol viewBox="0 0 16 16" id="icon-filter" xmlns="http://www.w3.org/2000/svg"><path fill-rule="evenodd" clip-rule="evenodd" d="M7.813 14a2.996 2.996 0 01-2.821 1.992A2.996 2.996 0 012.171 14H2a1 1 0 010-2h.171a2.996 2.996 0 012.821-1.992c1.301 0 2.409.832 2.821 1.992H14a1 1 0 010 2H7.813zm-2.821-2a1 1 0 110 2 1 1 0 010-2zm4.195-4.992a2.995 2.995 0 012.821-1.993A2.994 2.994 0 0115 8.008a2.994 2.994 0 01-5.813 1H2a1 1 0 010-2h7.187zm2.813 0a1 1 0 110 2 1 1 0 010-2zm-3.189-3a2.995 2.995 0 01-5.637 0H2a1 1 0 010-2h1.169a2.994 2.994 0 015.647 0H14a1 1 0 010 2H8.811zM5.992 2a1 1 0 110 2 1 1 0 010-2z"/></symbol><symbol viewBox="0 0 33 32" id="icon-ford" xmlns="http://www.w3.org/2000/svg"><path fill-rule="evenodd" clip-rule="evenodd" d="M5.619 11.758C8.499 10.668 12.454 10 16.805 10c4.347 0 8.299.667 11.178 1.758 1.438.544 2.627 1.202 3.464 1.951.837.75 1.353 1.621 1.353 2.582 0 .961-.516 1.832-1.353 2.58-.837.749-2.027 1.405-3.465 1.949-2.879 1.088-6.83 1.753-11.177 1.753-4.351 0-8.306-.665-11.186-1.753-1.439-.544-2.629-1.2-3.466-1.948C1.316 18.123.8 17.252.8 16.292c0-.962.516-1.834 1.353-2.583.837-.749 2.027-1.407 3.466-1.951zM2.654 14.27c-.744.666-1.102 1.35-1.102 2.021 0 .672.358 1.355 1.102 2.02.744.665 1.842 1.281 3.23 1.806 2.776 1.048 6.636 1.704 10.921 1.704 4.28 0 8.137-.656 10.912-1.704 1.388-.525 2.486-1.14 3.23-1.806.743-.665 1.101-1.348 1.101-2.02 0-.671-.358-1.355-1.102-2.022-.744-.665-1.841-1.283-3.23-1.809-2.774-1.05-6.631-1.708-10.91-1.708-4.285 0-8.146.658-10.92 1.708-1.39.526-2.488 1.143-3.232 1.81z"/><path d="M15.5 13.017c.76.207 2.224.846 3.633.846.957 0 2.086-.615 2.086-.938 0-.08 0-.16-.202-.16-.221 0-.1.019-.655.11-.524.08-1.169.06-1.672.06-1.37-.02-3.054-.302-3.728-.423a9.387 9.387 0 00-1.593-.14c-2.51 0-3.527 1.007-3.537 2.005-.01.533.383 1.077.967 1.077 1.049 0 1.653-1.088 1.703-1.48 0 0 .02-.07-.04-.121-.03-.02-.11-.01-.14.06-.142.332-.707.716-1.11.786-.372.07-.624-.13-.644-.443-.041-.767.826-1.603 2.77-1.603.555 0 1.26.151 2.036.332l.02.005c-.312.07-1.413.918-2.278 2.243-.231.03-1.198.111-1.52.473a.358.358 0 00-.061.132c.02.08.08.12.171.05.202-.231 1.018-.323 1.21-.333-1.19 1.673-2.288 2.771-3.265 2.771-.101 0-.202.011-.313-.019-.393-.091-.625-.504-.625-.877 0-.494.474-1.028.746-1.128.09-.041.13-.091.13-.132 0-.06-.04-.1-.15-.1-.938.232-1.441.997-1.43 1.622.019 1.028.795 1.602 1.672 1.602 1.23 0 1.854-.534 3.86-3.779a21.32 21.32 0 001.591-.201s.121.292.423.292c.05.01.04-.04.071-.15-.13-.011-.282-.102-.282-.213.12-.06.222-.131.312-.201.132-.121.262-.373.262-.544a.353.353 0 00-.302-.343c-.323-.05-.574.211-.605.645 0 .11.04.242.04.242s-.705.12-1.31.15c.746-1.259 1.432-1.702 1.633-1.883.04-.03.141-.142.151-.162a.113.113 0 00-.025-.13zm1.305 8.161c-8.041 0-14.54-2.186-14.54-4.887 0-2.69 6.499-4.878 14.54-4.878 8.032 0 14.552 2.187 14.552 4.878 0 2.7-6.52 4.887-14.552 4.887zm3.81-3.909c-.202.181-.444.423-.999.423-.322 0-.574-.262-.513-.594.04-.263.13-.393.322-.464.09.261.262.403.555.403.332-.01.523-.312.533-.575 0-.221-.14-.503-.543-.523-.373-.02-.656.15-1.059.614 0 0 .101-.685-.655-.665-.08 0-.16 0-.241.04-.414.132-.947.797-1.371 1.31.02-.1.02-.201.02-.302 0-.292-.11-.675-.313-.876-.04-.041-.08-.041-.12-.041-.132 0-.242.111-.242.283.1.1.232.352.232.593 0 .242-.071.686-.172.857-.383.656-.867 1.079-1.45.988-.313-.07-.525-.373-.464-.827.03-.261.191-.624.342-.846a1.922 1.922 0 011.27-.786s.03-.12-.05-.182c-.03-.05-.071-.11-.212-.11-.856.03-1.38.645-1.683 1.25-.11.211-.272.513-.362.705 0 0-.08.222-.454.504-.191.15-.252.201-.282.191.01.07.06.172.15.252.03.02.132-.04.172-.06.474-.272.524-.404.524-.404.1.565.585.857 1.12.857.734 0 1.41-.665 1.803-1.25.414-.614.977-1.219.977-1.219.222-.211.453-.353.594-.353.131.01.223.12.192.242a2.447 2.447 0 01-.263.666l-1.097 1.864h.857c.493-.927.513-.958.997-1.844.131.493.393.685.816.695.363.01.615-.01.887-.152-.071.283-.03.565.06.757.101.231.303.523.797.533.593 0 1.178-.261 1.35-.413.05.293.191.443.564.443.756-.02 1.42-.795 1.824-1.3.07-.09.161-.241.161-.281 0-.06-.08-.1-.12-.1-.04 0-.111.09-.152.14-.191.202-.988 1.028-1.42 1.048.09 0-.151.05-.172-.141-.01-.12.09-.272.13-.353l2.158-3.819h-.797l-1.3 2.196c-.1-.202-.251-.675-.846-.685-.987-.01-1.37.665-2.055 1.311z"/><path d="M22.71 16.432c-.353-.04-.796.262-1.159.705-.18.222-.373.645-.403.898-.04.252.03.503.121.574.09.07.494.282 1.119-.353.353-.353.695-.927.695-.927l-.11-.03c.21-.393.17-.816-.263-.867zm-7.417-1.41s.102.01.253-.162c.06-.06.16-.242.14-.362-.01-.06-.04-.132-.11-.121-.15.03-.242.1-.282.252a.651.651 0 000 .393"/></symbol><symbol viewBox="0 0 16 16" id="icon-form" xmlns="http://www.w3.org/2000/svg"><path fill-rule="evenodd" clip-rule="evenodd" d="M2.12 5.01l.083-.21A4.455 4.455 0 016.338 2h3.324a4.455 4.455 0 014.135 2.8l.083.21h.005A.448.448 0 0114 5h2v.01c0 .52-.21 1.03-.584 1.41-.152.15-.326.27-.515.37l.009.01c.163.12.312.26.444.42.26.31.451.68.555 1.07.06.23.09.47.091.71v3h-1v2h-3v-2H4v2H1v-2H0V9c0-.89.42-1.7 1.099-2.21-.189-.1-.363-.22-.515-.37A2.02 2.02 0 010 5.01V5h2c.041 0 .081 0 .12.01zM15 8h-1.378c-.43 0-.843.17-1.147.47A1.64 1.64 0 0012 9.62V10h1c1.1 0 1.993-.89 2-1.99V8zM2.378 8H1c0 1.11.895 2 1.998 2H4v-.38c0-.43-.171-.84-.475-1.15-.304-.3-.717-.47-1.147-.47zm3.96-4c-1.003 0-1.905.61-2.278 1.54L3.877 6h8.246l-.183-.46a2.735 2.735 0 00-.344-.6c-.16-.2-.352-.38-.568-.52a2.294 2.294 0 00-.694-.33A2.543 2.543 0 009.662 4H6.338z"/></symbol><symbol viewBox="0 0 16 16" id="icon-fuel" xmlns="http://www.w3.org/2000/svg"><path fill-rule="evenodd" clip-rule="evenodd" d="M12.524 1.15l3.326 3.33c.1.09.15.22.15.35v7.83c0 1.26-1.029 2.29-2.287 2.29a2.286 2.286 0 01-2.277-2.29v-1.68c0-.64-.52-1.17-1.169-1.17-.639 0-1.158.53-1.158 1.17V13h.29a.6.6 0 01.589.6v.8a.6.6 0 01-.59.6H.6c-.33 0-.6-.27-.6-.6v-.8c0-.33.27-.6.6-.6h.399V4c0-1.1.899-2 1.997-2h3.995C8.09 2 8.99 2.9 8.99 4v5.05c.36-.24.789-.38 1.258-.38a2.286 2.286 0 012.277 2.29v1.68c0 .64.52 1.16 1.169 1.16.64 0 1.158-.52 1.158-1.16V7.8l-.35.35a.74.74 0 01-1.048 0c-.22-.22-.47-.48-.679-.69-.26-.26-.41-.61-.41-.98V3.83l-1.258-1.26a.514.514 0 010-.71l.71-.71c.199-.2.519-.2.708 0zM6.242 4H3.745c-.41 0-.749.34-.749.75v1.5c0 .41.34.75.75.75h2.496c.41 0 .75-.34.75-.75v-1.5c0-.41-.34-.75-.75-.75z"/></symbol><symbol viewBox="0 0 16 17" id="icon-gear" xmlns="http://www.w3.org/2000/svg"><path fill-rule="evenodd" clip-rule="evenodd" d="M2.235 8.622A7.006 7.006 0 019.207.992 7.01 7.01 0 0116 6.292l-1.94.49a5.002 5.002 0 00-4.852-3.79 5.002 5.002 0 00-4.964 5.6l-2.008.03zm5.04-.12a2.003 2.003 0 011.933-2.51c1.103 0 1.999.9 1.999 2a2.003 2.003 0 01-2.522 1.93l-2.069 2.07-.04 2.87-2.369 2.13-2-2-2-2 2.126-2.37 2.864-.04 2.077-2.08z"/></symbol><symbol viewBox="0 0 16 14" id="icon-heart" xmlns="http://www.w3.org/2000/svg"><path fill-rule="evenodd" clip-rule="evenodd" d="M4.865 2.165a2.5 2.5 0 00-1.767.732l-.202.202a2.499 2.499 0 000 3.535l3.893 3.892a1.71 1.71 0 002.422 0l1.492-1.492 2.4-2.4a2.499 2.499 0 00.001-3.535l-.202-.202a2.5 2.5 0 00-1.768-.732c-.602 0-1.408.372-1.923.888l-.001.002L8 4.263l-1.21-1.21c-.517-.516-1.321-.888-1.925-.888zm-3.298-.799A4.664 4.664 0 014.865 0C6.008 0 7.173.537 8 1.23 8.827.538 9.993 0 11.134 0c1.238 0 2.424.492 3.299 1.366l.2.202c.001 0 0 0 0 0a4.663 4.663 0 01.001 6.596l-2.4 2.4-1.492 1.493a3.878 3.878 0 01-5.484 0L1.366 8.164a4.663 4.663 0 010-6.596l.201-.202z"/></symbol><symbol viewBox="0 0 33 32" id="icon-hyundai" xmlns="http://www.w3.org/2000/svg"><path d="M32.2 16.018c0 4.387-7.184 7.982-16 7.982-8.853 0-16-3.595-16-7.982C.2 11.595 7.347 8 16.2 8c8.816 0 16 3.595 16 8.018zm-16.762-1.115c1.379-.251 2.721-.719 3.773-1.114 3.41-1.187 5.007-2.41 5.333-2.697.436-.396.11-.54-.29-.683-2.322-.683-5.841-1.187-8.09-1.079-1.633.036-2.54 1.798-2.903 2.553-1.705 3.56 1.343 3.2 2.177 3.02zM4.99 19.937c.073-.144 2.758-6.364 5.914-9.744.399-.36-.036-.431-.544-.323-5.225 1.006-8.853 3.38-8.853 6.112 0 1.51 1.088 2.912 2.903 4.027.254.144.507.036.58-.072zm11.937-2.84c-1.38.251-2.722.719-3.774 1.114-3.41 1.187-5.006 2.445-5.333 2.733-.436.36-.109.54.29.647 2.322.683 5.841 1.186 8.091 1.115 1.633-.072 2.54-1.834 2.939-2.59 1.669-3.559-1.379-3.163-2.213-3.02v.001zm13.932-1.079c0-1.51-1.053-2.876-2.903-3.991-.254-.18-.472-.072-.58.072-.073.108-2.758 6.328-5.914 9.708-.363.395.036.467.544.36 5.225-1.043 8.853-3.417 8.853-6.149z"/></symbol><symbol viewBox="0 0 16 16" id="icon-instagram" xmlns="http://www.w3.org/2000/svg"><path fill-rule="evenodd" clip-rule="evenodd" d="M11.52 16H4.48A4.482 4.482 0 010 11.52V4.48A4.482 4.482 0 014.48 0h7.04A4.482 4.482 0 0116 4.48v7.04A4.482 4.482 0 0111.52 16zm-.04-14H4.52A2.521 2.521 0 002 4.52v6.96A2.521 2.521 0 004.52 14h6.96A2.521 2.521 0 0014 11.48V4.52A2.521 2.521 0 0011.48 2zM12 3a1 1 0 110 2 1 1 0 010-2zM8 4c2.208 0 4 1.792 4 4s-1.792 4-4 4-4-1.792-4-4 1.792-4 4-4zm0 2a2 2 0 11-.001 4.001A2 2 0 018 6z"/></symbol><symbol viewBox="0 0 33 32" id="icon-kia" xmlns="http://www.w3.org/2000/svg"><path d="M19.165 18.665c0 .06.019.096.054.096a.165.165 0 00.077-.032l9.973-6.473a.96.96 0 01.576-.173h2.192c.336 0 .563.224.563.56v4.185c0 .506-.112.8-.56 1.069l-2.659 1.6a.183.183 0 01-.09.032c-.031 0-.063-.026-.063-.119v-4.882c0-.058-.016-.096-.055-.096a.15.15 0 00-.077.032l-7.288 4.735a.978.978 0 01-.56.17h-4.832c-.34 0-.563-.224-.563-.563v-6.032c0-.044-.02-.086-.058-.086a.157.157 0 00-.076.032l-4.81 2.886c-.048.032-.06.055-.06.077 0 .019.01.038.041.073l3.437 3.434c.044.044.076.08.076.118 0 .032-.05.058-.112.058h-3.103c-.243 0-.432-.035-.563-.167l-2.083-2.08a.09.09 0 00-.064-.032.138.138 0 00-.064.02l-3.482 2.092a.96.96 0 01-.563.163H1.167c-.343.004-.567-.223-.567-.56v-4.105c0-.508.112-.8.563-1.068l2.675-1.607a.137.137 0 01.07-.022c.042 0 .065.042.065.134v5.497c0 .058.012.084.054.084a.191.191 0 00.08-.032l9.036-5.437a.977.977 0 01.595-.166h4.864c.335 0 .563.224.563.56l-.004 6.025h.004z"/></symbol><symbol viewBox="0 0 16 16" id="icon-land-rover" xmlns="http://www.w3.org/2000/svg"><path fill-rule="evenodd" clip-rule="evenodd" d="M8 4.316c-4.245 0-7.686 1.656-7.686 3.7 0 2.044 3.441 3.701 7.686 3.701s7.686-1.657 7.686-3.701c0-2.043-3.441-3.7-7.686-3.7zm8 3.701c0 2.219-3.582 4.017-8 4.017s-8-1.799-8-4.018C0 5.798 3.582 4 8 4s8 1.799 8 4.017z"/><path fill-rule="evenodd" clip-rule="evenodd" d="M6.124 6.29l-.359.585h.365l-.006-.584zM4.715 7.606h.646s-.002-.05.015-.082c.03-.058.11-.199.11-.199h.65l.002.175s.003.061-.045.108h.645S6.69 7.58 6.682 7.5L6.6 5.748s-.004-.112.05-.136h-.64s.045.056-.041.182L4.792 7.539s-.022.042-.076.066h-.001zm6.826.914l.174-.47h-1.31s.048.04-.012.209c-.061.168-.591 1.597-.591 1.597s-.094.188-.121.188h1.35l.16-.476s-.02.027-.147.027h-.57l.12-.323h.443s.094-.006.114.02l.181-.509s-.013.046-.134.046h-.43l.128-.355h.544s.074-.01.1.046zm-3.265-.47s.05.027.05.154V9.93s-.006.094-.042.114h.54s0-.04.053-.107c.054-.068 1.175-1.572 1.175-1.572s.256-.315.323-.315h-.772s.06.04.013.114c-.047.074-.734 1.101-.734 1.101l.009-1.036s-.001-.166.066-.18l-.68.001zM6.99 9.614c.182.033.382-.097.485-.514.158-.63-.132-.636-.186-.642-.16-.02-.375.166-.462.552-.04.176-.083.558.163.604zm-.045.471c.727 0 1.159-.713 1.159-1.224 0-.536-.22-.871-.724-.871-.643 0-1.061.488-1.17 1.093-.099.558.216 1.002.736 1.002h-.001zm5.489-1.177s.246.019.322-.174c.089-.228-.134-.222-.134-.222h-.182l-.134.396h.128zm-.48 1.135c-.051.001-.015-.122-.015-.122l.21-.57.304.618c.02.04.01.074.01.074h.729c-.067 0-.14-.128-.14-.128l-.351-.629c.49 0 .637-.468.637-.468.258-.808-.562-.769-.562-.769h-.826c.06.067.014.208.014.208l-.58 1.597a.52.52 0 01-.117.188l.687.001zM5.169 8.5l-.136.4h.128s.248.023.34-.175c0 0 .107-.226-.193-.226l-.139.001zm-.499 1.536c-.02 0-.02-.065-.02-.065l.236-.627.315.618c.02.04.01.074.01.074h.704c-.068 0-.137-.128-.137-.128l-.35-.629c.49 0 .646-.485.646-.485.242-.773-.571-.753-.571-.753H4.67c.06.068.013.209.013.209l-.556 1.592a.631.631 0 01-.115.194h.659zm-2.25-.825h1.285l.156-.448H3.03l.947-.328.063-.18-1.459.478-.161.478zm7.166-2.062h.093c.137 0 .391-.031.561-.446.281-.683-.11-.66-.11-.66h-.151L9.586 7.15zM9.5 5.615s.05.08-.016.267c-.066.186-.579 1.572-.579 1.572s-.04.13-.096.155l.806-.001s.976.036 1.28-.99c0 0 .382-1.013-.726-1.003H9.5zM6.806 7.603h.59s-.041-.06-.016-.125c.035-.09.348-.942.348-.942l.136 1.067h.533l.7-1.898s.029-.089.068-.089l-.567-.002s.016.066-.004.116-.343.912-.343.912l-.126-1.028h-.608s.031.051.01.106l-.645 1.773s-.041.11-.076.11zm-2.719-.441s.485-1.292.524-1.39c.07-.173.11-.161.11-.161H4c.09.043.01.211.01.211s-.579 1.612-.62 1.692c-.04.08-.07.091-.07.091h1.252l.175-.477c-.015.045-.135.034-.135.034h-.525zm8.711-.785h-1.284l-.157.447h.832l-.948.328-.063.182 1.46-.479.16-.478zm2.69 1.64c0 1.933-3.353 3.501-7.488 3.501-4.136 0-7.488-1.568-7.488-3.502C.512 6.082 3.864 4.515 8 4.515c4.135 0 7.487 1.568 7.487 3.501z"/></symbol><symbol viewBox="0 0 16 16" id="icon-map" xmlns="http://www.w3.org/2000/svg"><path fill-rule="evenodd" clip-rule="evenodd" d="M1 7.025V7c0-3.863 3.137-7 7-7s7 3.137 7 7v.025c-.016 5.231-5.05 8.353-6.641 8.909A1.117 1.117 0 018 16c-.126 0-.247-.024-.359-.066C6.05 15.378 1.016 12.256 1 7.025zM8 4a3.001 3.001 0 010 6 3.001 3.001 0 010-6z"/></symbol><symbol viewBox="0 0 32 32" id="icon-mazda" xmlns="http://www.w3.org/2000/svg"><path fill-rule="evenodd" clip-rule="evenodd" d="M11.111 15.166c2.144.893 3.572 2.145 4.869 4.957 1.293-2.813 2.678-4.242 4.866-5.136l5.502-1.97.036.14c.09.625.134 1.385.134 2.144 0 7.769-5.136 9.332-10.54 9.289-5.403.044-10.494-1.52-10.494-9.29 0-.58 0-1.16.089-1.652l.08-.329 5.458 1.847zm14.053-5.389l-.119-.193c-1.922-2.857-5.405-3.528-9.067-3.528s-7.234.715-9.11 3.617l-.201.35c3.221 1.841 6.877 1.875 9.312 6.527 2.235-4.794 5.931-4.864 9.185-6.773zm2.603-1.667l-.311-.356C24.596 4.671 19.908 4 15.979 4c-3.974.003-8.798.67-11.611 3.932l-.134.178C2.848 9.762 2 12.13 2 15.3c0 9.78 7.949 11.343 13.979 11.343C22.053 26.643 30 25.08 30 15.3c0-3.171-.846-5.537-2.233-7.19z"/></symbol><symbol viewBox="0 0 33 32" id="icon-mercedes-benz" xmlns="http://www.w3.org/2000/svg"><path fill-rule="evenodd" clip-rule="evenodd" d="M16.6 30a14 14 0 110-28 14 14 0 010 28zm.004-11.885L5.237 22.82a13.2 13.2 0 0011.416 6.456 13.227 13.227 0 0011.366-6.528l-11.415-4.632zm-1.968-3.322l1.81-12A13.255 13.255 0 005.143 9.419a13.196 13.196 0 00-.074 13.106l9.567-7.731zm3.876.157l9.677 7.49a13.205 13.205 0 00-.147-13.043 13.245 13.245 0 00-11.256-6.601l1.726 12.156v-.002z"/></symbol><symbol viewBox="0 0 16 16" id="icon-mileage" xmlns="http://www.w3.org/2000/svg"><path fill-rule="evenodd" clip-rule="evenodd" d="M8 0c4.415 0 8 3.585 8 8s-3.585 8-8 8-8-3.585-8-8 3.585-8 8-8zm5.786 7.56a.118.118 0 01.127-.028.118.118 0 01.077.104 5.978 5.978 0 01-.627 3.056l-.004.008a.74.74 0 01-1.356-.581l.176-.463a4.56 4.56 0 00.192-.607.348.348 0 01.094-.168l1.321-1.321zM10.24 3.918a.23.23 0 01-.267.043A4.487 4.487 0 008 3.506h-.029a4.496 4.496 0 00-4.15 6.15l.176.463a.74.74 0 01-1.36.573A6.003 6.003 0 018 2h.039a5.961 5.961 0 013.072.87.136.136 0 01.005.227 2.69 2.69 0 00-.345.29l-.531.531zm2.922 2.086a1 1 0 10-1.414-1.415L7.033 9.305a.999.999 0 101.414 1.414l4.715-4.715z"/></symbol><symbol viewBox="0 0 33 32" id="icon-nissan" xmlns="http://www.w3.org/2000/svg"><path d="M18.717 16.65c-.023.006-.111.006-.15.006H15.7v.666h2.917c.022 0 .194 0 .227-.005.595-.056.867-.55.867-.984 0-.444-.283-.922-.822-.972-.106-.011-.195-.011-.233-.011H16.75a.969.969 0 01-.211-.017c-.15-.039-.206-.172-.206-.283 0-.1.056-.233.211-.278a.795.795 0 01.2-.016h2.75V14.1H16.7a1.86 1.86 0 00-.278.017.924.924 0 00-.811.939c0 .4.25.866.8.944.1.011.239.011.3.011h1.856c.033 0 .116 0 .133.006.211.027.283.183.283.322a.31.31 0 01-.266.311zm-5.434 0c-.022.006-.11.006-.144.006h-2.872v.666h2.916c.023 0 .195 0 .228-.005.595-.056.867-.55.867-.984 0-.444-.284-.922-.822-.972-.106-.011-.195-.011-.234-.011h-1.905a.968.968 0 01-.212-.017c-.15-.039-.205-.172-.205-.283 0-.1.056-.233.211-.278a.795.795 0 01.2-.016h2.75V14.1h-2.794a1.86 1.86 0 00-.278.017.924.924 0 00-.811.939c0 .4.25.866.8.944.1.011.239.011.3.011h1.855c.034 0 .117 0 .134.006.21.027.283.183.283.322a.306.306 0 01-.267.311zm-4.511-2.572H8.05v3.26h.722v-3.26zm-2.317 3.261v-3.261h-.722v2.433l-2.405-2.433H2.4v3.26h.722v-2.444l2.422 2.445h.911zm23.228-3.261v2.433l-2.405-2.433h-.928v3.26h.722v-2.444l2.417 2.445h.91v-3.261h-.716zm-7.094 0l-2.034 3.26h.878l.361-.582h2.373l.36.583h.873l-2.033-3.261h-.778zm1.205 2.06h-1.627l.816-1.31.811 1.31zm-17.377-3.91c1.455-4.25 5.466-7.106 9.989-7.106 4.522 0 8.538 2.856 9.988 7.106l.012.033h3.183v-.383l-1.322-.156c-.817-.094-.99-.455-1.212-.91L27 10.7C25.089 6.633 20.928 4 16.405 4c-4.527 0-8.683 2.633-10.594 6.711l-.056.111c-.222.456-.394.817-1.21.911l-1.323.156v.383H6.4l.017-.044zm19.988 6.933l-.01.033c-1.456 4.25-5.467 7.1-9.99 7.1-4.522 0-8.538-2.855-9.988-7.105l-.012-.033H3.228v.383l1.322.155c.817.095.989.456 1.211.912l.056.11c1.91 4.078 6.072 6.712 10.594 6.712 4.522 0 8.683-2.634 10.595-6.706l.055-.11c.222-.456.395-.818 1.211-.912l1.322-.156v-.383h-3.189z"/></symbol><symbol viewBox="0 0 16 16" id="icon-ok" xmlns="http://www.w3.org/2000/svg"><path fill-rule="evenodd" clip-rule="evenodd" d="M4.325 11.028a1.345 1.345 0 01.569-2.561c.223 0 .433.055.619.15A5.636 5.636 0 008 9.193c.894 0 1.739-.207 2.492-.576a1.344 1.344 0 111.181 2.413 8.21 8.21 0 01-1.6.59l1.835 2.08a1.345 1.345 0 01-2.015 1.778L7.999 13.33l-1.894 2.146a1.345 1.345 0 01-2.015-1.778l1.835-2.08a8.303 8.303 0 01-1.6-.591zM8 .068a4.117 4.117 0 014.114 4.114A4.117 4.117 0 018 8.296a4.117 4.117 0 01-4.114-4.114A4.117 4.117 0 018 .068zm0 2.499a1.616 1.616 0 010 3.23 1.616 1.616 0 010-3.23z"/></symbol><symbol viewBox="0 0 16 16" id="icon-owners" xmlns="http://www.w3.org/2000/svg"><path fill-rule="evenodd" clip-rule="evenodd" d="M11.356 7H12.5a1.5 1.5 0 011.235 2.352h-.001a.369.369 0 01-.017.025l-4.048 5.725a1.798 1.798 0 01-.071.1v.001A1.997 1.997 0 018 16a1.997 1.997 0 01-1.598-.797v-.001c-.025-.032-.048-.066-.071-.1L2.283 9.377A1.5 1.5 0 013.5 7h1.126a4.497 4.497 0 003.365 1.509A4.497 4.497 0 0011.356 7zM7.991 1a3.001 3.001 0 010 6 3.001 3.001 0 010-6z"/></symbol><symbol viewBox="0 0 16 16" id="icon-play" xmlns="http://www.w3.org/2000/svg"><path fill-rule="evenodd" clip-rule="evenodd" d="M4.891 14.824A1.253 1.253 0 013 13.748V2.252a1.253 1.253 0 011.913-1.063l9.421 5.692a1.273 1.273 0 010 2.238l-9.43 5.698-.013.007z"/></symbol><symbol viewBox="0 0 16 16" id="icon-plus-s" xmlns="http://www.w3.org/2000/svg"><path fill-rule="evenodd" clip-rule="evenodd" d="M8.286 4c.236 0 .428.192.428.429v3.857h3.857c.237 0 .429.192.429.428v.572a.429.429 0 01-.429.428H8.714v3.857a.429.429 0 01-.428.429h-.572a.429.429 0 01-.428-.429V9.714H3.429A.429.429 0 013 9.286v-.572c0-.236.192-.428.429-.428h3.857V4.429c0-.237.192-.429.428-.429h.572z"/></symbol><symbol viewBox="0 0 16 16" id="icon-question" xmlns="http://www.w3.org/2000/svg"><path fill-rule="evenodd" clip-rule="evenodd" d="M8 0c4.415 0 8 3.585 8 8s-3.585 8-8 8-8-3.585-8-8 3.585-8 8-8zM6.964 11.478a1.022 1.022 0 002.042 0 1.022 1.022 0 00-2.042 0zm1.152-7.957c-1.728 0-2.724 1.453-2.724 2.16 0 .314.171.812.734.812.432 0 .72-.314.733-.589C6.898 5.629 7.186 5 8.064 5c.628 0 1.204.445 1.204.995 0 1.1-2.147 1.188-2.147 2.812 0 .55.38.943.851.943a.872.872 0 00.877-.891c0-.88 2.069-1.018 2.069-2.903 0-1.375-1.27-2.435-2.802-2.435z"/></symbol><symbol viewBox="0 0 16 16" id="icon-search" xmlns="http://www.w3.org/2000/svg"><path fill-rule="evenodd" clip-rule="evenodd" d="M10.963 12.695a6.36 6.36 0 01-3.57 1.09A6.396 6.396 0 011 7.393 6.396 6.396 0 017.393 1a6.396 6.396 0 016.392 6.393 6.365 6.365 0 01-1.077 3.551l1.93 1.93a1.237 1.237 0 01-1.748 1.748l-1.927-1.927zm-3.57-9.433a4.132 4.132 0 010 8.261 4.132 4.132 0 010-8.26z"/></symbol><symbol viewBox="0 0 16 16" id="icon-share" xmlns="http://www.w3.org/2000/svg"><path fill-rule="evenodd" clip-rule="evenodd" d="M9.333 4.77V3.168c0-.644.464-1.167 1.038-1.167.252 0 .482.101.662.27l4.094 3.453c.26.212.429.556.429.944 0 .388-.17.732-.43.944l-4.093 3.453a.967.967 0 01-.662.27c-.574 0-1.038-.523-1.038-1.167V7.492a5.372 5.372 0 00-6.667 5.175 1.334 1.334 0 01-2.666 0v-.028A8.04 8.04 0 019.333 4.77z"/></symbol><symbol viewBox="0 0 16 16" id="icon-shield" xmlns="http://www.w3.org/2000/svg"><path fill-rule="evenodd" clip-rule="evenodd" d="M8.056 1c2.382 0 4.992.34 5.938.623.596.237.988.815.988 1.457C15 4.556 15 7.278 15 9.533c0 3.261-4.739 6.442-6.974 6.467H8c-2.224 0-7-3.193-7-6.467 0-2.255 0-4.977.018-6.453 0-.642.392-1.22.988-1.457C2.959 1.337 5.604.995 8 1h.056zm2.753 4.351c.14.01.274.041.4.103a1.01 1.01 0 01.516 1.17 1.05 1.05 0 01-.223.399 107.494 107.494 0 01-3.508 3.508c-.081.071-.17.132-.269.176a1.014 1.014 0 01-.808 0 1.073 1.073 0 01-.27-.176 63.32 63.32 0 01-2.056-2.056 1.054 1.054 0 01-.223-.4 1.028 1.028 0 01-.034-.366 1.02 1.02 0 01.289-.615 1.01 1.01 0 01.981-.255c.165.047.309.137.433.255l1.284 1.284c.922-.923 1.825-1.866 2.768-2.768l.071-.059c.154-.11.322-.175.511-.197.046-.003.092-.005.138-.003z"/></symbol><symbol viewBox="0 0 16 16" id="icon-skoda" xmlns="http://www.w3.org/2000/svg"><path fill-rule="evenodd" clip-rule="evenodd" d="M13.817 11.894A7 7 0 102.183 4.106a7 7 0 0011.634 7.788zm-.135-.097a6.825 6.825 0 10-11.35-7.583 6.825 6.825 0 0011.35 7.583z"/><path fill-rule="evenodd" clip-rule="evenodd" d="M13.283 11.53a6.344 6.344 0 10-10.55-7.05 6.344 6.344 0 0010.55 7.05zm-.468-.312a5.782 5.782 0 10-9.614-6.424 5.782 5.782 0 009.614 6.424z"/><path fill-rule="evenodd" clip-rule="evenodd" d="M10.835 10a2.985 2.985 0 011.57.774.161.161 0 010 .231 2.98 2.98 0 01-1.57.771.14.14 0 01-.162-.137v-.236a.108.108 0 00-.072-.101.107.107 0 00-.044-.006h-4.79a.21.21 0 00-.116.022l-.6.351a.22.22 0 01-.119.033h-.634a.099.099 0 01-.096-.052 8.98 8.98 0 00-.946-1.298.203.203 0 01.156-.351h1.457c.036 0 .072.01.104.027l.925.434a.24.24 0 00.362-.245C5.958 8.11 4.125 7.627 3.1 7.446a.203.203 0 01-.174-.236c.09-.588.286-1.154.58-1.671a.209.209 0 01.243-.085c.567.146 1.114.36 1.63.634.313.164.527.203.664.088a9.791 9.791 0 00-1.86-1.323c-.071-.036-.118-.102-.047-.187a4.74 4.74 0 011.323-1.097.247.247 0 01.252.019c.61.34 1.176.753 1.685 1.232a.853.853 0 00.67.299 7.099 7.099 0 00-1.548-1.762c-.096-.098-.123-.22.055-.274a5.197 5.197 0 011.487-.217c.062 0 .118.004.173.007.056.003.111.007.173.007.103.007.2.05.274.12 1.22 1.107 1.47 1.838 1.723 2.575l.014.043c.207.635.3 1.301.275 1.968a9.255 9.255 0 01-.434 2.58c-.033.12-.002.326.162.326h.14a.131.131 0 00.113-.137v-.214a.143.143 0 01.162-.14zM9.48 9.61a.648.648 0 10-1.08-.716.648.648 0 001.08.715z"/></symbol><symbol viewBox="0 0 16 16" id="icon-sort" xmlns="http://www.w3.org/2000/svg"><path fill-rule="evenodd" clip-rule="evenodd" d="M3.972 13a1 1 0 010 2h-1.97a1 1 0 010-2h1.97zm7.03-1.414V9a1 1 0 012 0v2.585l.353-.353a1 1 0 011.414 1.414l-2.047 2.048-.013.013a.997.997 0 01-1.414 0l-.013-.013-2.048-2.048a1 1 0 011.414-1.414l.354.354zM6.002 9a1 1 0 010 2h-4a1 1 0 010-2h4zm2.94-4a1 1 0 010 2h-6.94a1 1 0 010-2h6.94zm5.06-4a1 1 0 010 2h-12a1 1 0 010-2h12z"/></symbol><symbol viewBox="0 0 16 16" id="icon-telegram" xmlns="http://www.w3.org/2000/svg"><path fill-rule="evenodd" clip-rule="evenodd" d="M2.991 8.059L.718 6.786c-.643-.36-.817-1.143-.63-1.61.188-.466.626-.823 1.172-.956l13.058-3.166c.458-.111.998-.06 1.334.234.44.384.356.977.229 1.377L12.315 13.87a1.646 1.646 0 01-1.057 1.07c-.79.24-1.405-.252-1.725-.66a829.458 829.458 0 01-1.701-2.172L4.715 14.46a1.076 1.076 0 01-1.724-.86V8.06zm3.262 1.606c.115-.25.282-.474.491-.655l4.77-4.138a.214.214 0 00-.24-.349L5.176 7.786a.848.848 0 00-.448.709l-.183 3.81a.232.232 0 00.179.239.233.233 0 00.268-.13l1.261-2.75z"/></symbol><symbol viewBox="0 0 16 16" id="icon-tiktok" xmlns="http://www.w3.org/2000/svg"><path fill-rule="evenodd" clip-rule="evenodd" d="M10.947 0c.263 2.27 1.525 3.624 3.72 3.768v2.554c-1.272.125-2.386-.293-3.682-1.08v4.776c0 6.067-6.588 7.963-9.237 3.614-1.702-2.798-.66-7.709 4.8-7.905v2.692c-.416.068-.86.173-1.267.312-1.214.413-1.903 1.186-1.712 2.55.369 2.61 5.14 3.383 4.743-1.72V.006h2.635V0z"/></symbol><symbol viewBox="0 0 16 16" id="icon-time" xmlns="http://www.w3.org/2000/svg"><path fill-rule="evenodd" clip-rule="evenodd" d="M8 0c4.415 0 8 3.585 8 8s-3.585 8-8 8-8-3.585-8-8 3.585-8 8-8zm0 2c3.311 0 6 2.689 6 6s-2.689 6-6 6-6-2.689-6-6 2.689-6 6-6zM7 4.48a1 1 0 011-1v-.001a4.523 4.523 0 014.521 4.52V8a4.523 4.523 0 01-4.506 4.52H8a1 1 0 01-1-1V4.48z"/></symbol><symbol viewBox="0 0 16 16" id="icon-tires" xmlns="http://www.w3.org/2000/svg"><path fill-rule="evenodd" clip-rule="evenodd" d="M1.647 10.739c1.34.897 3.686 1.492 6.353 1.492s5.013-.595 6.353-1.492c.415.384.647.811.647 1.261 0 1.656-3.137 3-7 3s-7-1.344-7-3c0-.45.232-.877.647-1.261zm12.706-4C14.768 7.123 15 7.55 15 8c0 1.656-3.137 3-7 3S1 9.656 1 8c0-.45.232-.877.647-1.261C2.987 7.636 5.333 8.231 8 8.231s5.013-.595 6.353-1.492zM8 1c3.863 0 7 1.344 7 3s-3.137 3-7 3-7-1.344-7-3 3.137-3 7-3z"/></symbol><symbol viewBox="0 0 33 32" id="icon-toyota" xmlns="http://www.w3.org/2000/svg"><path fill-rule="evenodd" clip-rule="evenodd" d="M16.4 6C7.564 6 .4 10.565.4 16.194c0 5.63 7.164 10.195 16 10.195s16-4.565 16-10.195S25.236 6 16.4 6zM4.545 12.16c.44 1.841 3.642 3.37 7.977 3.953l-.001.26c0 4.368 1.256 8.033 2.951 9.03-7.031-.337-12.577-4.216-12.577-8.951 0-1.555.599-3.018 1.65-4.292zm9.568 4.118a30.27 30.27 0 004.574 0c-.106 3.241-1.09 5.78-2.287 5.78-1.198 0-2.182-2.539-2.287-5.78zm6.165-.165c4.432-.595 7.681-2.18 8.002-4.078 1.118 1.304 1.756 2.811 1.756 4.417 0 4.767-5.62 8.665-12.72 8.957 1.7-.988 2.963-4.66 2.963-9.035l-.001-.261zm-2.492-8.426c4.431.226 7.828 1.517 7.828 3.074 0 1.272-2.265 2.365-5.51 2.847-.353-2.722-1.214-4.908-2.319-5.92h.001zm.803 6.094a26.76 26.76 0 01-4.378 0c.294-2.57 1.163-4.43 2.189-4.43s1.895 1.86 2.19 4.43zm-5.893-.174c-3.245-.481-5.51-1.574-5.51-2.846 0-.525.386-1.02 1.069-1.455a16.067 16.067 0 012.6-1.028c1.192-.303 2.611-.512 4.159-.59-1.104 1.012-1.965 3.198-2.32 5.92h.001z"/></symbol><symbol viewBox="0 0 16 16" id="icon-trade-in" xmlns="http://www.w3.org/2000/svg"><path fill-rule="evenodd" clip-rule="evenodd" d="M12 8a1 1 0 012 0v.027a6.03 6.03 0 01-7 5.948v1.15c0 .483-.348.875-.778.875a.726.726 0 01-.497-.202l-3.07-2.59a.911.911 0 01-.322-.708c0-.291.127-.549.322-.708l3.07-2.59A.726.726 0 016.222 9c.43 0 .778.392.778.875v2.06a4.029 4.029 0 005-3.908V8zM9 2.078V.875C9 .392 9.348 0 9.778 0c.189 0 .362.076.497.202l3.07 2.59a.911.911 0 01.322.708.911.911 0 01-.322.708l-3.07 2.59A.726.726 0 019.778 7C9.348 7 9 6.608 9 6.125V4.119A4.03 4.03 0 004 8a1 1 0 01-2 0v-.021a6.03 6.03 0 017-5.901z"/></symbol><symbol viewBox="0 0 16 16" id="icon-view-l" xmlns="http://www.w3.org/2000/svg"><path fill-rule="evenodd" clip-rule="evenodd" d="M15 3a2 2 0 00-2-2H3a2 2 0 00-2 2v10a2 2 0 002 2h10a2 2 0 002-2V3zM4 3a1 1 0 00-1 1v8a1 1 0 001 1h8a1 1 0 001-1V4a1 1 0 00-1-1H4z"/></symbol><symbol viewBox="0 0 16 16" id="icon-view-s" xmlns="http://www.w3.org/2000/svg"><path fill-rule="evenodd" clip-rule="evenodd" d="M13 1a2 2 0 012 2v10a2 2 0 01-2 2H3a2 2 0 01-2-2V3a2 2 0 012-2h10zM3 4a1 1 0 011-1h8a1 1 0 011 1v2a1 1 0 01-1 1H4a1 1 0 01-1-1V4zm1 5a1 1 0 00-1 1v2a1 1 0 001 1h8a1 1 0 001-1v-2a1 1 0 00-1-1H4z"/></symbol><symbol viewBox="0 0 16 16" id="icon-vk" xmlns="http://www.w3.org/2000/svg"><path fill-rule="evenodd" clip-rule="evenodd" d="M16 3c0-1.656-1.344-3-3-3H3C1.344 0 0 1.344 0 3v10c0 1.656 1.344 3 3 3h10c1.656 0 3-1.344 3-3V3zM2.445 4.514h1.322c.33 0 .457.139.584.508C4.999 6.89 6.08 8.53 6.524 8.53c.166 0 .242-.077.242-.496V6.102c-.031-.549-.223-.788-.364-.966-.088-.11-.157-.196-.157-.317 0-.153.127-.305.33-.305h2.059c.28 0 .381.152.381.483v2.605c0 .279.115.381.204.381.165 0 .305-.102.61-.407.94-1.054 1.614-2.681 1.614-2.681.089-.191.241-.369.572-.369h1.309c.394 0 .483.204.394.483-.14.64-1.288 2.334-1.647 2.864-.07.102-.11.161-.107.161-.14.229-.191.33 0 .585a4.4 4.4 0 00.38.399c.172.169.367.36.522.541.559.635.991 1.169 1.106 1.538.101.368-.076.559-.458.559h-1.309c-.346 0-.525-.2-.906-.623-.164-.182-.365-.406-.632-.673-.775-.75-1.118-.852-1.309-.852-.266 0-.343.064-.343.445v1.182c0 .318-.101.508-.94.508-1.385 0-2.923-.839-4.003-2.402C2.445 6.954 2 5.225 2 4.882c0-.19.064-.368.445-.368z"/></symbol><symbol viewBox="0 0 16 16" id="icon-volkswagen" xmlns="http://www.w3.org/2000/svg"><path d="M8 3.205c-.456 0-.91.064-1.348.192L8 6.382l1.348-2.985A4.767 4.767 0 008 3.205z"/><path d="M10.574 3.954L8.815 7.873H7.192l-1.766-3.92A4.821 4.821 0 004.13 5.168l2.208 4.898.854-1.898h1.617l.854 1.898 2.211-4.894a4.804 4.804 0 00-1.3-1.218zM3.367 6.759a4.803 4.803 0 002.493 5.533L3.367 6.76z"/><path d="M9.326 12.61a4.802 4.802 0 01-2.653 0v-.001l1.326-2.941 1.327 2.942zm3.046-2.635a4.796 4.796 0 01-2.231 2.317l2.496-5.523c.283 1.068.19 2.2-.265 3.206z"/><path fill-rule="evenodd" clip-rule="evenodd" d="M3.05 3.05a7 7 0 119.9 9.9 7 7 0 01-9.9-9.9zM8 2.07a5.93 5.93 0 100 11.86A5.93 5.93 0 008 2.07z"/></symbol><symbol viewBox="0 0 16 16" id="icon-volume" xmlns="http://www.w3.org/2000/svg"><path d="M16 6.585a.839.839 0 00-.842-.842h-3.556a.839.839 0 01-.842-.843.839.839 0 00-.842-.842H5.801a.839.839 0 00-.842.842.839.839 0 01-.842.843H2.994a.839.839 0 00-.842.842v5.614c0 .468.374.842.842.842h2.003c.318 0 .599.168.748.449l.43.805c.15.28.43.449.749.449h4.772a.843.843 0 00.767-.505l1.086-2.527a.813.813 0 01.767-.505h.823a.839.839 0 00.842-.842v-3.78H16zM10.105 2H5.614a.463.463 0 00-.468.468c0 .262.206.468.468.468h1.778v.561h1.123v-.561h1.59a.463.463 0 00.468-.468.463.463 0 00-.468-.468zM0 7.146v4.491c0 .262.206.468.468.468a.463.463 0 00.468-.468V9.86h.561V8.737H.936V7.146a.463.463 0 00-.468-.468.463.463 0 00-.468.468z"/></symbol><symbol viewBox="0 0 16 16" id="icon-wd" xmlns="http://www.w3.org/2000/svg"><path fill-rule="evenodd" clip-rule="evenodd" d="M8 0c4.415 0 8 3.585 8 8s-3.585 8-8 8-8-3.585-8-8 3.585-8 8-8zm-.554 10.581a.646.646 0 00-.632.215c-.386.453-1.042 1.236-1.042 1.236a.531.531 0 00.193.83A5.344 5.344 0 008 13.265c.721 0 1.408-.145 2.033-.409a.525.525 0 00.192-.821c-.281-.339-.665-.799-1.035-1.241a.65.65 0 00-.637-.217A2.35 2.35 0 018 10.64c-.19 0-.375-.02-.554-.059zm2.988-1.58a.64.64 0 00.1.661c.377.461 1.036 1.245 1.036 1.245a.53.53 0 00.849-.044c.524-.824.832-1.8.832-2.848a.46.46 0 00-.576-.443l-1.635.438a.649.649 0 00-.469.508 2.192 2.192 0 01-.137.483zm-5.01-.482a.644.644 0 00-.465-.503c-.598-.167-1.633-.444-1.633-.444a.459.459 0 00-.576.443c0 1.048.308 2.024.838 2.844a.525.525 0 00.838.044c.289-.338.68-.802 1.045-1.236a.65.65 0 00.101-.668 2.174 2.174 0 01-.148-.48zM8 7a1 1 0 110 2 1 1 0 010-2zM6.77 5.696a.642.642 0 00.347-.57c.008-.596.008-1.625.008-1.625a.533.533 0 00-.677-.513 5.325 5.325 0 00-2.833 2.141.522.522 0 00.308.782c.436.122 1.029.283 1.587.433a.647.647 0 00.635-.176c.179-.19.391-.348.625-.472zm3.091.468a.643.643 0 00.628.174c.576-.147 1.59-.419 1.59-.419a.53.53 0 00.315-.795A5.334 5.334 0 009.55 2.997a.522.522 0 00-.666.504c-.005.445-.007 1.053-.008 1.624 0 .243.136.466.352.577.237.118.449.276.633.462z"/></symbol><symbol viewBox="0 0 16 16" id="icon-year" xmlns="http://www.w3.org/2000/svg"><path fill-rule="evenodd" clip-rule="evenodd" d="M3 2V0h2v2h6V0h2v2h2v14H1V2h2zm3 9H4v2h2v-2zm3 0H7v2h2v-2zM6 8H4v2h2V8zm3 0H7v2h2V8zm3 0h-2v2h2V8zM9 5H7v2h2V5zm3 0h-2v2h2V5z"/></symbol><symbol viewBox="0 0 16 16" id="icon-youtube" xmlns="http://www.w3.org/2000/svg"><path fill-rule="evenodd" clip-rule="evenodd" d="M0 8c0-1.841.331-3.465.833-4.423a3.204 3.204 0 011.159-1.426C2.912 1.479 5.256 1 8 1s5.088.479 6.008 1.151c.513.349.919.844 1.159 1.426C15.669 4.535 16 6.159 16 8c0 1.841-.331 3.465-.833 4.423a3.204 3.204 0 01-1.159 1.426C13.088 14.521 10.744 15 8 15s-5.088-.479-6.008-1.151a3.204 3.204 0 01-1.159-1.426C.331 11.465 0 9.841 0 8zm6.833 2.897A.522.522 0 016 10.479V5.521a.522.522 0 01.833-.418l3.931 2.443-.002.003a.546.546 0 010 .902l.002.003-3.931 2.443z"/></symbol><symbol viewBox="0 0 16 16" id="icon-zen" xmlns="http://www.w3.org/2000/svg"><path fill-rule="evenodd" clip-rule="evenodd" d="M7.76 0c-.04 3.243-.26 5.066-1.478 6.282C5.066 7.5 3.243 7.72 0 7.76v.48c3.243.04 5.066.261 6.282 1.478C7.5 10.934 7.72 12.757 7.76 16h.48c.04-3.243.261-5.066 1.478-6.282C10.934 8.5 12.757 8.28 16 8.24v-.48c-3.243-.04-5.066-.261-6.282-1.478C8.5 5.066 8.28 3.243 8.24 0h-.48z"/></symbol></svg>