<svg width="16" height="16" fill="none" xmlns="http://www.w3.org/2000/svg">
  <style>@media (prefers-color-scheme:dark){path{fill:#fff}}</style>
  <path
    d="M4.987 1.383a6.93 6.93 0 011.245-.161c.473-.025.958 0 1.432.087a7.25 7.25 0 012.464.913 9.769 9.769 0 011.63 1.225c.1.087.188.187.275.275A5.858 5.858 0 002.82 5.146c-.15.387-.112.712.137.95.498.475 1.868.587 2.589.662.261.013.56.037.76-.05.41-.2.46-.75 1.044-.75.088 0 .051.038 0 .087a.38.38 0 00-.099.1c-.236.313-.436.6-.66.913-.31.425.324.887.698.463l.398-.463a.593.593 0 01.81-.05c.722.65 1.43 1.325 2.116 1.962.249.225-.125.65-.386.375-.398-.375-.536-.537-.946-.875-.087-.088-.224.062-.137.138.336.325.51.487.858.8.237.225-.1.624-.398.362-.299-.262-.486-.45-.772-.725-.086-.087-.224.063-.149.15.25.225.448.425.697.65.236.225-.124.588-.385.35-.213-.188-.449-.412-.648-.6-.075-.062-.212.063-.125.125l.548.5c.237.2-.087.612-.373.375l-.498-.424.062-.051c.212-.25-.013-.612-.236-.675a.319.319 0 00-.187-.013c.2-.35-.411-.712-.623-.474a.173.173 0 00-.037.05c.037-.3-.46-.563-.697-.275a.396.396 0 00-.062.075c-.038-.35-.586-.475-.797-.138-.237-.487-2.204-.925-2.739-.787a.619.619 0 00-.311.187c-.76.825-.473 3.15.597 5.037C.057 10.27.07 5.683 2.896 2.858a7.15 7.15 0 012.09-1.476l.001.001zm-.61 5.75c-.51-.112-.934-.124-.959-.024-.024.1.374.275.872.387.497.112.933.125.958.025.025-.1-.36-.263-.871-.388z"
    fill="#ED1C24"/>
  <path
    d="M5.896 9.058c.236-.3-.212-.6-.423-.338l-.225.275a.274.274 0 00.013.375.263.263 0 00.19.069.272.272 0 00.183-.081c0-.013.013-.013.013-.025l.249-.275zm-3.548-1c-.2.262-.162.537-.1.962.038.188.075.4.137.613A5.66 5.66 0 003.88 12.17a5.992 5.992 0 002.103 1.362l.3.063c.41.088.709 0 .896-.264.187-.261.261-.774.2-1.486-.013-.212-.039-.425-.063-.65-.013-.138-.025-.225-.037-.363 0-.012 0-.037.024-.037h.013c.087 0 .15-.013.335-.188.07-.071.138-.147.2-.225.1.1.299.288.398.363.237.25.436.187.548.15.025-.012.05 0 .05.037l-.025.226c-.025.2-.05.412-.074.636-.063.788 0 1.326.186 1.626.174.287.46.337.846.212l.636-.212a5.913 5.913 0 003.497-4.912c-.012-.338-.162-.537-.473-.613-.373-.088-2.365.275-2.763.688-.025.025-.062.037-.1 0-.71-.65-1.17-1.088-1.88-1.75a.724.724 0 00-.983.063c-.174.2-.249.312-.423.512-.224.287-.61.05-.398-.263.199-.275.398-.537.597-.812.461-.563.909-.45 1.407-.113.074.05.261.176.348.226.2.124.573.374 1.008.374.772-.062 2.291-.187 2.814-.662.249-.238.31-.538.174-.912a5.676 5.676 0 00-1.008-1.363c-1.444-1.5-3.896-3.2-7.195-2.475 1.768-.825 3.734-.75 5.042-.35a7.141 7.141 0 013.037 1.813c2.813 2.824 2.826 7.412.012 10.236-2.813 2.825-7.381 2.837-10.196.013A7.686 7.686 0 011.9 9.745c-.012-.712.1-1.312.449-1.687zm5.465 1.988c.25-.276-.186-.625-.422-.35a14.55 14.55 0 00-.387.437c-.249.276.15.625.411.35l.398-.437zm-.472-.562c.248-.264-.2-.6-.412-.338l-.498.6c-.249.3.15.612.4.338l.51-.6zm-.673-.288c-.149.163-.286.35-.423.525a.244.244 0 01-.172.094.26.26 0 01-.189-.057.258.258 0 01-.038-.362c.137-.163.287-.35.423-.525.237-.275.636.088.4.325z"
    fill="#403E3E"/>
  <path
    d="M12.518 7.12c-.025-.1-.448-.087-.958.025-.498.113-.896.288-.872.388.025.1.46.087.959-.025.498-.113.896-.287.871-.388z"
    fill="#403E3E"/>
</svg>
