<svg xmlns="http://www.w3.org/2000/svg" viewBox="0 0 188.11 39.14">
    <defs>
        <style>.cls-1{fill:#009fe3;}</style>
    </defs>
    <title>logo</title>
    <g id="Layer_2" data-name="Layer 2">
        <g id="Layer_1-2" data-name="Layer 1">
            <path class="cls-1"
                  d="M34.5,6.93a13.9,13.9,0,0,0-6.21-5.14A23.13,23.13,0,0,0,18.84,0H0V10.18H18a5.87,5.87,0,0,1,4,1.2,4.28,4.28,0,0,1,1.34,3.38A4.31,4.31,0,0,1,22,18.15a5.87,5.87,0,0,1-4,1.2H0V39.14H13.2V29.52h5.64a23,23,0,0,0,9.45-1.79,13.83,13.83,0,0,0,6.21-5.14,14.09,14.09,0,0,0,2.18-7.83A14.09,14.09,0,0,0,34.5,6.93Z"/>
            <path class="cls-1"
                  d="M57.76,29.3H54.18v9.84H41V0H59.83a23.13,23.13,0,0,1,9.45,1.79,14,14,0,0,1,6.21,5.14,14.09,14.09,0,0,1,2.18,7.83,13.83,13.83,0,0,1-1.9,7.33,13.45,13.45,0,0,1-5.48,5l8.22,12.08H64.42ZM63,11.38a5.9,5.9,0,0,0-4-1.2H54.18v9.17H59a5.9,5.9,0,0,0,4-1.2,4.34,4.34,0,0,0,1.34-3.39A4.32,4.32,0,0,0,63,11.38Z"/>
            <path class="cls-1" d="M82.65,0H95.84V39.14H82.65Z"/>
            <path class="cls-1"
                  d="M137.17,39.14l-.12-17.84-8.5,14.32h-5.81l-8.5-13.7V39.14h-12V0h10.84l12.75,20.86L138.23,0h10.85l.11,39.14Z"/>
            <rect class="cls-1" x="155.56" width="31.82" height="9.95"/>
            <polygon class="cls-1"
                     points="168.53 29.19 168.53 24.04 185.09 24.04 185.09 14.54 155.56 14.54 155.56 39.14 188.11 39.14 188.11 29.19 168.53 29.19"/>
        </g>
    </g>
</svg>