<svg width="93" height="21" fill="none" xmlns="http://www.w3.org/2000/svg"><path d="M12.05 1.674c.816-.024 1.482.042 1.998.198.528.156.93.36 1.206.612 1.416-.6 2.736-.9 3.96-.9.54 0 .99.066 1.35.198.372.12.66.294.864.522.204.228.33.498.378.81.06.312.048.654-.036 1.026-.132.6-.426 1.266-.882 1.998a13.924 13.924 0 01-1.746 2.214 21.58 21.58 0 01-2.412 2.16 21.552 21.552 0 01-2.916 1.872 18.48 18.48 0 01-3.222 1.35 12.299 12.299 0 01-3.33.54c-.504 0-.978-.012-1.422-.036a8.473 8.473 0 01-1.188-.144c-.3.504-.588 1.056-.864 1.656-.276.6-.474 1.2-.594 1.8-.072.36-.102.696-.09 1.008.012.324.09.606.234.846.144.24.36.432.648.576.288.144.672.216 1.152.216.588 0 1.23-.138 1.926-.414a9.316 9.316 0 001.998-1.098 9.023 9.023 0 001.71-1.512c.492-.564.822-1.128.99-1.692a1.52 1.52 0 00-.018-.954c-.096-.3-.33-.552-.702-.756.312-.06.558-.102.738-.126.18-.024.324-.036.432-.036.36 0 .642.066.846.198.204.12.342.282.414.486.072.192.096.414.072.666-.024.24-.078.48-.162.72a5.448 5.448 0 01-.738 1.242c-.312.42-.684.822-1.116 1.206-.432.396-.912.762-1.44 1.098-.528.348-1.074.648-1.638.9a9.27 9.27 0 01-1.728.612 7.25 7.25 0 01-1.728.216c-.708 0-1.302-.114-1.782-.342-.48-.228-.852-.54-1.116-.936-.252-.396-.408-.864-.468-1.404a5.91 5.91 0 01.126-1.746c.204-.948.606-1.932 1.206-2.952-.9-.456-1.494-1.056-1.782-1.8-.288-.756-.348-1.554-.18-2.394.18-.696.468-1.362.864-1.998.408-.648.888-1.254 1.44-1.818a11.833 11.833 0 011.89-1.53A14.32 14.32 0 017.37 2.826c.756-.348 1.53-.618 2.322-.81a10.97 10.97 0 012.358-.342zm3.096 2.628a1.61 1.61 0 00-.036-.666c-.9.516-1.812 1.14-2.736 1.872-.912.72-1.8 1.512-2.664 2.376a40.057 40.057 0 00-2.448 2.682 35.989 35.989 0 00-2.124 2.808l-.036.036c.324.084.672.15 1.044.198.372.036.774.042 1.206.018a9.765 9.765 0 003.078-.576 15.657 15.657 0 002.898-1.386 18.682 18.682 0 002.574-1.926 22.22 22.22 0 002.106-2.178c.612-.732 1.11-1.44 1.494-2.124.396-.684.648-1.284.756-1.8.108-.456.078-.816-.09-1.08-.168-.264-.504-.366-1.008-.306a6.75 6.75 0 00-1.656.306c-.576.18-1.17.432-1.782.756.036.168.06.348.072.54a2.65 2.65 0 01-.018.54c-.048.3-.162.636-.342 1.008-.168.36-.378.726-.63 1.098-.252.372-.54.732-.864 1.08-.312.348-.642.66-.99.936a6.18 6.18 0 01-1.044.648 2.534 2.534 0 01-1.008.27 1.12 1.12 0 01-.702-.18c-.192-.132-.336-.408-.432-.828.444.096.948.036 1.512-.18a6.798 6.798 0 001.656-.954 7.975 7.975 0 001.422-1.422c.408-.528.672-1.05.792-1.566zm-3.204-2.034c-.924.06-1.872.282-2.844.666-.972.372-1.89.87-2.754 1.494a11.208 11.208 0 00-2.25 2.142 7.46 7.46 0 00-1.368 2.628 5.056 5.056 0 00-.018 1.944c.132.6.408 1.092.828 1.476a26.658 26.658 0 012.34-3.042A30.806 30.806 0 018.594 6.84a26.746 26.746 0 012.916-2.286 22.125 22.125 0 013.006-1.728 2.67 2.67 0 00-.828-.414A3.896 3.896 0 0012.5 2.25h-.288c-.084 0-.174.006-.27.018zm6.839 13.14c-.06.084-.174.216-.342.396a13.813 13.813 0 01-1.314 1.224 9.589 9.589 0 01-.738.576c-.228.168-.438.3-.63.396-.192.084-.336.102-.432.054a2.527 2.527 0 01-.612-.378.544.544 0 01-.162-.576c.12-.384.36-.864.72-1.44s.822-1.17 1.386-1.782c.192-.204.42-.438.684-.702.264-.276.552-.534.864-.774.324-.24.666-.444 1.026-.612a2.61 2.61 0 011.116-.252c.456-.012.798.102 1.026.342.228.228.33.462.306.702a.722.722 0 01-.108.306.297.297 0 01-.27.144c0-.048-.006-.108-.018-.18a.516.516 0 00-.054-.234.42.42 0 00-.198-.18c-.084-.06-.216-.09-.396-.09-.18 0-.39.078-.63.234-.24.156-.486.348-.738.576-.24.216-.468.444-.684.684-.216.228-.39.414-.522.558l-.216.252c-.144.168-.312.366-.504.594l-.576.684a6.669 6.669 0 00-.432.558c-.072.096-.084.162-.036.198.048.024.144.006.288-.054.18-.096.426-.27.738-.522.312-.264.636-.546.972-.846.348-.312.666-.612.954-.9.3-.3.522-.534.666-.702l.594-.81c.012-.012.066.024.162.108.108.072.216.168.324.288.12.12.228.258.324.414a.75.75 0 01.144.414c-.012.12-.078.252-.198.396-.12.144-.282.336-.486.576l-.144.198-.36.45c-.132.18-.264.366-.396.558a5.782 5.782 0 00-.306.486c-.072.156-.09.246-.054.27.036.024.09.018.162-.018a.991.991 0 00.252-.162c.096-.072.162-.126.198-.162.276-.228.588-.51.936-.846l1.062-.99 1.584-1.548-.09.234a3.274 3.274 0 01-.18.378c-.072.144-.18.318-.324.522a6.473 6.473 0 01-.594.666l-.108.09-.432.45-.774.774c-.264.264-.522.51-.774.738a8.09 8.09 0 01-.828.612c-.252.156-.474.24-.666.252-.288.012-.51-.114-.666-.378-.144-.264-.15-.588-.018-.972.036-.108.078-.222.126-.342.06-.132.114-.258.162-.378.06-.12.108-.228.144-.324.048-.096.078-.162.09-.198z" fill="#fff"/><path d="M26.08 9.558c.48.216.761.45.845.702a.927.927 0 01-.054.774 2.78 2.78 0 01-.558.756l-.666.702c.096.06.192.096.288.108.096.012.18.018.252.018.192 0 .408-.06.648-.18.252-.132.534-.402.846-.81.168.024.324.084.468.18.156.096.276.21.36.342.096.132.15.27.162.414.012.132-.042.252-.162.36-.324.264-.678.57-1.062.918-.372.336-.732.684-1.08 1.044-.336.348-.636.69-.9 1.026-.264.324-.444.594-.54.81-.036.06-.072.126-.108.198-.024.072-.03.126-.018.162.024.036.09.042.198.018.108-.036.288-.138.54-.306.18-.108.468-.336.864-.684.408-.36.882-.786 1.422-1.278l1.602-1.548-.09.234a3.274 3.274 0 01-.18.378 7.43 7.43 0 01-.342.522 6.473 6.473 0 01-.594.666 33.64 33.64 0 00-1.026.954c-.36.336-.72.654-1.08.954-.36.288-.708.528-1.044.72-.324.192-.618.288-.882.288-.432-.012-.702-.168-.81-.468-.108-.3-.066-.678.126-1.134.204-.468.54-.984 1.008-1.548.48-.564 1.086-1.116 1.818-1.656-.168 0-.348.006-.54.018-.192 0-.408-.066-.648-.198l-1.98 1.998-.774.702v-.342c.012-.12.084-.27.216-.45l.234-.234c.984-.948 1.62-1.614 1.908-1.998-.144-.156-.216-.318-.216-.486.012-.18.066-.36.162-.54.096-.18.216-.36.36-.54.156-.18.306-.36.45-.54.144-.18.27-.354.378-.522.108-.18.174-.348.198-.504z" fill="#fff"/><path d="M31.787 9.558c.48.216.762.45.846.702a.927.927 0 01-.054.774 2.78 2.78 0 01-.558.756l-.666.702c.096.06.192.096.288.108.096.012.18.018.252.018.192 0 .408-.06.648-.18.252-.132.534-.402.846-.81.168.024.324.084.468.18.156.096.276.21.36.342.096.132.15.27.162.414.012.132-.042.252-.162.36-.324.264-.678.57-1.062.918-.372.336-.732.684-1.08 1.044-.336.348-.636.69-.9 1.026-.264.324-.444.594-.54.81-.036.06-.072.126-.108.198-.024.072-.03.126-.018.162.024.036.09.042.198.018.108-.036.288-.138.54-.306.18-.108.468-.336.864-.684.408-.36.882-.786 1.422-1.278l1.602-1.548-.09.234a3.274 3.274 0 01-.18.378 7.43 7.43 0 01-.342.522 6.473 6.473 0 01-.594.666 33.64 33.64 0 00-1.026.954c-.36.336-.72.654-1.08.954-.36.288-.708.528-1.044.72-.324.192-.618.288-.882.288-.432-.012-.702-.168-.81-.468-.108-.3-.066-.678.126-1.134.204-.468.54-.984 1.008-1.548.48-.564 1.086-1.116 1.818-1.656-.168 0-.348.006-.54.018-.192 0-.408-.066-.648-.198l-1.98 1.998-.774.702v-.342c.012-.12.084-.27.216-.45l.234-.234c.984-.948 1.62-1.614 1.908-1.998-.144-.156-.216-.318-.216-.486.012-.18.066-.36.162-.54.096-.18.216-.36.36-.54.156-.18.306-.36.45-.54.144-.18.27-.354.378-.522.108-.18.174-.348.198-.504zm1.568 7.452c0-.3.06-.612.18-.936.12-.324.282-.642.486-.954.216-.324.456-.63.72-.918.276-.288.558-.546.846-.774.156-.264.342-.51.558-.738.228-.24.474-.45.738-.63s.534-.324.81-.432c.288-.108.57-.156.846-.144.564.024.942.18 1.134.468.192.288.234.654.126 1.098a5.386 5.386 0 01-.738 1.746 7.97 7.97 0 01-1.224 1.53c.264-.06.57-.186.918-.378.36-.192.786-.498 1.278-.918l1.836-1.746-.09.234a3.274 3.274 0 01-.18.378c-.072.144-.18.318-.324.522a6.473 6.473 0 01-.594.666l-.108.09c-.228.216-.48.444-.756.684a8.825 8.825 0 01-.864.63c-.288.18-.588.336-.9.468-.3.12-.594.18-.882.18h-.27a5.1 5.1 0 01-1.242.684c-.408.156-.774.228-1.098.216-.336-.024-.618-.108-.846-.252-.228-.144-.348-.402-.36-.774zm2.97-2.34c-.024.24-.018.468.018.684.036.216.108.408.216.576.228-.264.45-.546.666-.846.228-.312.432-.612.612-.9.192-.288.354-.558.486-.81.144-.252.246-.462.306-.63.084-.252.102-.444.054-.576-.036-.132-.108-.198-.216-.198-.312 0-.6.09-.864.27a2.29 2.29 0 00-.648.666.922.922 0 01.45.036.518.518 0 01.306.234.34.34 0 01.018.108.2.2 0 01.018.09.946.946 0 01-.144.09 2.846 2.846 0 00-.126.09c-.192.132-.384.3-.576.504-.192.192-.384.396-.576.612zm-.522 2.07a1.95 1.95 0 01-.504-.63l-.126.216c-.06.096-.114.198-.162.306a7.036 7.036 0 00-.09.288.419.419 0 00.018.216c.024.048.072.066.144.054.204-.024.444-.174.72-.45zM66.468 3.132c.06-.216.078-.42.054-.612a1.039 1.039 0 00-.198-.504.869.869 0 00-.414-.324c-.168-.072-.36-.096-.576-.072a2.406 2.406 0 00-1.08.36 3.479 3.479 0 00-.882.756c-.264.3-.498.654-.702 1.062a13.1 13.1 0 00-.576 1.296l-.774 2.268c-.324.96-.684 1.956-1.08 2.988a35.6 35.6 0 01-1.296 3.042c-.48.984-1.02 1.92-1.62 2.808a11.902 11.902 0 01-2.016 2.34 9.452 9.452 0 01-2.502 1.656c-.912.432-1.932.672-3.06.72-.72 0-1.344-.12-1.872-.36s-.96-.57-1.296-.99a3.516 3.516 0 01-.702-1.458 4.993 4.993 0 01-.036-1.8c.108-.72.336-1.464.684-2.232.36-.768.846-1.536 1.458-2.304a17.34 17.34 0 012.322-2.376 20.104 20.104 0 012.664-1.926c.9-.552 1.77-.984 2.61-1.296.84-.324 1.578-.498 2.214-.522.54-.012.906.156 1.098.504.204.336.258.792.162 1.368a5.604 5.604 0 01-.288 1.08c-.144.384-.33.792-.558 1.224-.228.42-.492.852-.792 1.296-.3.432-.63.858-.99 1.278-.324.372-.69.768-1.098 1.188-.408.408-.84.792-1.296 1.152-.444.36-.9.672-1.368.936a3.739 3.739 0 01-1.368.45c-.6.06-1.008-.06-1.224-.36-.216-.3-.282-.696-.198-1.188.072-.408.234-.852.486-1.332.252-.492.558-.942.918-1.35.372-.408.78-.75 1.224-1.026.444-.276.888-.414 1.332-.414.096 0 .198.036.306.108.12.072.228.174.324.306s.174.288.234.468c.06.168.084.348.072.54-.372-.24-.666-.36-.882-.36-.348 0-.708.114-1.08.342-.372.228-.72.51-1.044.846a5.783 5.783 0 00-.81 1.062c-.228.372-.366.708-.414 1.008a.504.504 0 00.18.504c.156.132.36.204.612.216.264-.048.588-.186.972-.414.384-.228.78-.498 1.188-.81.42-.312.822-.654 1.206-1.026.396-.372.738-.726 1.026-1.062.348-.432.672-.864.972-1.296.312-.444.582-.87.81-1.278.24-.42.438-.81.594-1.17.156-.372.258-.696.306-.972.06-.348.018-.618-.126-.81-.144-.204-.414-.288-.81-.252-.444 0-.978.156-1.602.468-.612.312-1.278.738-1.998 1.278a24.285 24.285 0 00-2.214 1.89 34.513 34.513 0 00-2.25 2.322 9.115 9.115 0 00-1.368 2.07 7.846 7.846 0 00-.702 2.268 4.884 4.884 0 00-.036 1.314c.06.42.186.786.378 1.098a2 2 0 00.792.756c.336.192.75.294 1.242.306.864-.06 1.662-.3 2.394-.72a8.041 8.041 0 002.034-1.602 14.66 14.66 0 001.692-2.286c.516-.864.99-1.77 1.422-2.718a35.65 35.65 0 001.17-2.898c.36-.984.696-1.926 1.008-2.826.132-.42.264-.822.396-1.206.132-.396.264-.774.396-1.134a7.97 7.97 0 01.792-1.602 5.455 5.455 0 011.134-1.26 5.086 5.086 0 011.512-.81c.576-.192 1.224-.288 1.944-.288.624 0 1.146.198 1.566.594a1.74 1.74 0 00.018-.432c0-.156-.012-.288-.036-.396.648.312 1.086.684 1.314 1.116.24.432.288.858.144 1.278-.048.156-.168.372-.36.648a8.61 8.61 0 01-.756.918c-.3.336-.648.69-1.044 1.062-.396.372-.834.732-1.314 1.08-.468.348-.966.666-1.494.954a9.245 9.245 0 01-1.584.702c.264-.18.588-.456.972-.828.396-.384.804-.822 1.224-1.314a26.72 26.72 0 001.224-1.548c.396-.54.738-1.062 1.026-1.566l-.036.036zm-2.135 8.226c.06 0 .15.018.27.054.132.036.258.09.378.162.132.06.246.132.342.216.096.084.144.168.144.252-.024.312-.156.648-.396 1.008-.24.36-.564.72-.972 1.08a9.128 9.128 0 01-1.386.99c-.528.3-1.086.558-1.674.774-.096.18-.18.354-.252.522-.072.156-.12.3-.144.432a.431.431 0 00.054.288c.06.072.162.108.306.108.168 0 .348-.042.54-.126.204-.096.408-.21.612-.342.084-.048.174-.108.27-.18.108-.072.246-.174.414-.306.168-.132.378-.312.63-.54l1.008-.918 1.584-1.548-.09.234a3.274 3.274 0 01-.18.378c-.072.144-.18.318-.324.522a7.687 7.687 0 01-.576.666l-.108.09c-.924.9-1.734 1.614-2.43 2.142-.696.516-1.338.762-1.926.738-.516-.012-.84-.21-.972-.594s-.114-.852.054-1.404c.108-.36.318-.798.63-1.314.324-.528.708-1.038 1.152-1.53a8.46 8.46 0 011.44-1.278c.528-.36 1.056-.552 1.584-.576h.018zm-2.718 3.564a.226.226 0 01-.054.09.226.226 0 00-.054.09c.384-.24.744-.486 1.08-.738.336-.264.636-.522.9-.774.276-.264.504-.51.684-.738.18-.24.3-.456.36-.648a5.017 5.017 0 00-.72.468 14.29 14.29 0 00-.846.72c-.276.264-.54.534-.792.81-.24.264-.426.504-.558.72z" fill="#fff"/><path d="M65.838 16.74c-.096.144-.126.24-.09.288.036.048.108.066.216.054.108-.012.234-.048.378-.108.144-.072.282-.15.414-.234.156-.096.33-.216.522-.36l.594-.486c.204-.18.402-.36.594-.54.204-.18.396-.354.576-.522l1.584-1.548a12.1 12.1 0 00-.09.234 2.357 2.357 0 01-.198.378 5.206 5.206 0 01-.36.558 7.546 7.546 0 01-.648.72l-.432.45c-.168.168-.396.39-.684.666-.288.264-.606.522-.954.774a8.442 8.442 0 01-1.08.666c-.36.18-.696.27-1.008.27-.252 0-.432-.06-.54-.18a.771.771 0 01-.198-.486 1.738 1.738 0 01.054-.648c.048-.24.12-.462.216-.666.372-.804.774-1.59 1.206-2.358.444-.768.882-1.488 1.314-2.16.444-.684.864-1.308 1.26-1.872.396-.576.75-1.074 1.062-1.494.156-.204.354-.45.594-.738.252-.288.51-.552.774-.792s.516-.426.756-.558c.24-.132.438-.144.594-.036.168.108.294.252.378.432.096.168.156.348.18.54.036.192.048.384.036.576-.012.18-.042.342-.09.486-.12.288-.318.624-.594 1.008-.264.372-.576.774-.936 1.206-.348.42-.732.858-1.152 1.314-.408.444-.81.876-1.206 1.296-.396.408-.774.792-1.134 1.152-.348.36-.642.666-.882.918-.204.336-.396.66-.576.972-.168.3-.318.576-.45.828zm5.67-8.604a13.95 13.95 0 00-.576.756l-.846 1.188a94.914 94.914 0 00-2.106 3.096c.348-.396.714-.798 1.098-1.206.384-.408.756-.816 1.116-1.224.372-.42.72-.84 1.044-1.26.324-.432.612-.87.864-1.314.072-.144.132-.288.18-.432.06-.144.078-.24.054-.288-.024-.06-.102-.042-.234.054-.12.084-.318.294-.594.63zm2.676 3.222c.06 0 .15.018.27.054.132.036.258.09.378.162.132.06.246.132.342.216.096.084.144.168.144.252-.024.312-.156.648-.396 1.008-.24.36-.564.72-.972 1.08a9.128 9.128 0 01-1.386.99c-.528.3-1.086.558-1.674.774-.096.18-.18.354-.252.522-.072.156-.12.3-.144.432a.431.431 0 00.054.288c.06.072.162.108.306.108.168 0 .348-.042.54-.126.204-.096.408-.21.612-.342.084-.048.174-.108.27-.18.108-.072.246-.174.414-.306.168-.132.378-.312.63-.54l1.008-.918 1.584-1.548-.09.234a3.274 3.274 0 01-.18.378c-.072.144-.18.318-.324.522a7.687 7.687 0 01-.576.666l-.108.09c-.924.9-1.734 1.614-2.43 2.142-.696.516-1.338.762-1.926.738-.516-.012-.84-.21-.972-.594s-.114-.852.054-1.404c.108-.36.318-.798.63-1.314.324-.528.708-1.038 1.152-1.53a8.46 8.46 0 011.44-1.278c.528-.36 1.056-.552 1.584-.576h.018zm-2.718 3.564a.226.226 0 01-.054.09.226.226 0 00-.054.09c.384-.24.744-.486 1.08-.738.336-.264.636-.522.9-.774.276-.264.504-.51.684-.738.18-.24.3-.456.36-.648a5.017 5.017 0 00-.72.468 14.29 14.29 0 00-.846.72c-.276.264-.54.534-.792.81-.24.264-.426.504-.558.72zm8.777-4.122c.42.156.696.354.828.594.144.24.186.492.126.756-.048.252-.18.516-.396.792a4.55 4.55 0 01-.774.738 6.559 6.559 0 01-.918.576 3.227 3.227 0 01-.882.306c.384-.3.702-.624.954-.972.252-.36.528-.786.828-1.278-.228.048-.498.174-.81.378-.312.192-.624.42-.936.684a9.407 9.407 0 00-.882.81 3.783 3.783 0 00-.576.738c-.156.24-.306.498-.45.774a3.978 3.978 0 00-.324.756c-.072.228-.09.42-.054.576.036.144.162.216.378.216.168 0 .366-.042.594-.126.24-.096.462-.21.666-.342.084-.048.174-.108.27-.18.108-.072.24-.174.396-.306.168-.132.384-.312.648-.54l1.008-.918 1.584-1.548-.09.234a3.274 3.274 0 01-.18.378c-.072.144-.18.318-.324.522a6.473 6.473 0 01-.594.666l-.09.09c-.936.9-1.758 1.608-2.466 2.124-.708.504-1.368.756-1.98.756-.324 0-.582-.054-.774-.162a.98.98 0 01-.396-.432c-.084-.18-.12-.39-.108-.63.024-.24.072-.498.144-.774.108-.36.318-.798.63-1.314.324-.528.708-1.038 1.152-1.53a9.05 9.05 0 011.458-1.278c.528-.36 1.056-.552 1.584-.576.096 0 .21.012.342.036a.88.88 0 01.396.198.627.627 0 00.072-.414 2.36 2.36 0 00-.054-.378z" fill="#fff"/><path d="M92.938 9.234c-.216-.228-.57-.378-1.062-.45a8.218 8.218 0 00-1.584-.108c-.576 0-1.164.03-1.764.09l-1.548.126c-.06.096-.24.348-.54.756-.288.396-.642.87-1.062 1.422l-1.314 1.782c-.468.624-.906 1.212-1.314 1.764a69.028 69.028 0 01-1.044 1.422c-.288.384-.456.618-.504.702-.096.144-.126.24-.09.288.036.048.108.066.216.054.108-.012.234-.048.378-.108.156-.072.3-.15.432-.234.156-.096.33-.216.522-.36.192-.156.384-.318.576-.486l.612-.54c.204-.18.39-.354.558-.522l1.584-1.548-.09.234a3.274 3.274 0 01-.18.378c-.072.144-.18.318-.324.522a7.687 7.687 0 01-.576.666l-.576.54c-.156.168-.378.39-.666.666-.288.264-.606.522-.954.774a7.5 7.5 0 01-1.062.666c-.36.18-.696.27-1.008.27-.516 0-.81-.114-.882-.342-.084-.228-.024-.54.18-.936.132-.252.372-.66.72-1.224.36-.576.768-1.218 1.224-1.926.456-.72.93-1.464 1.422-2.232l1.404-2.142c-.252 0-.432-.054-.54-.162-.096-.108-.114-.348-.054-.72.12.18.276.264.468.252.204-.024.414-.078.63-.162.108-.168.228-.348.36-.54.132-.204.252-.396.36-.576.12-.18.216-.33.288-.45.084-.132.132-.21.144-.234.096-.168.168-.3.216-.396a.889.889 0 00.09-.288c0-.012.06.036.18.144.12.108.252.246.396.414.144.156.27.33.378.522.12.18.18.336.18.468 0 .048-.042.162-.126.342-.072.18-.126.312-.162.396.384-.048.798-.102 1.242-.162.444-.06.882-.108 1.314-.144.432-.036.84-.048 1.224-.036.396.012.732.066 1.008.162.288.084.498.222.63.414.132.192.162.456.09.792z" fill="#fff"/></svg>