<svg width="16" height="16" fill="none" xmlns="http://www.w3.org/2000/svg"><path fill-rule="evenodd" clip-rule="evenodd" d="M16 8c0-4.415-3.585-8-8-8S0 3.585 0 8s3.585 8 8 8 8-3.585 8-8zm-4.711-2.467a1.037 1.037 0 00-.545-.11 1.05 1.05 0 00-.519.198l-.036.029-.036.03c-.67.64-1.321 1.301-1.972 1.961-.31.316-.621.632-.934.945L5.954 7.293a1.042 1.042 0 00-.396-.243.988.988 0 00-.732.043 1.007 1.007 0 00-.543 1.173c.042.153.121.288.224.407a62.886 62.886 0 002.066 2.066 1.003 1.003 0 001.347 0 110.886 110.886 0 003.646-3.646c.103-.12.182-.254.224-.406a1.009 1.009 0 00-.501-1.154z" fill="#0DC268"/></svg>