<svg width="20" height="20" viewBox="0 0 20 20" fill="none" xmlns="http://www.w3.org/2000/svg">
<path fill-rule="evenodd" clip-rule="evenodd" d="M6 0C2.68629 0 0 2.68629 0 6V14C0 17.3137 2.68629 20 6 20H14C17.3137 20 20 17.3137 20 14V6C20 2.68629 17.3137 0 14 0H6ZM12.875 6.375C13.375 5.875 14.125 5.875 14.625 6.375C15.125 6.875 15.125 7.625 14.625 8.125L9.625 13.125C9.375 13.375 9.125 13.5 8.75 13.5C8.375 13.5 8.125 13.375 7.875 13.125L5.375 10.625C4.875 10.125 4.875 9.375 5.375 8.875C5.875 8.375 6.625 8.375 7.125 8.875L8.75 10.5L12.875 6.375Z" fill="#005FF9"/>
</svg>
