<svg width="16" height="16" viewBox="0 0 16 16" fill="none" xmlns="http://www.w3.org/2000/svg">
<path fill-rule="evenodd" clip-rule="evenodd" d="M7.5 1C9.984 1 12 2.26562 12 5C12 7.73438 9.984 9 7.5 9H6V10H8.049C8.601 10 9.049 10.448 9.049 11C9.049 11.552 8.601 12 8.049 12H6V13C6 13.552 5.552 14 5 14C4.448 14 4 13.552 4 13V12H3C2.448 12 2 11.552 2 11C2 10.448 2.448 10 3 10H4V9H3C2.448 9 2 8.552 2 8C2 7.448 2.448 7 3 7H4V2C4 1.448 4.448 1 5 1H7.5ZM7.91667 3H6V7H7.91667C9.06667 7 10 6.104 10 5C10 3.896 9.06667 3 7.91667 3Z" fill="#2C2D2E"/>
</svg>
