<svg width="16" height="16" viewBox="0 0 16 16" fill="none" xmlns="http://www.w3.org/2000/svg">
<path fill-rule="evenodd" clip-rule="evenodd" d="M2.11999 5.01L2.203 4.80004C2.879 3.11005 4.517 2 6.338 2H9.66197C11.483 2 13.121 3.11005 13.797 4.80004L13.88 5.01H13.885C13.923 5 13.962 4.99999 14 4.99999H16V5.01C16 5.53 15.79 6.03991 15.416 6.41991C15.264 6.56991 15.09 6.69003 14.901 6.79003L14.9099 6.80004C15.0729 6.92004 15.222 7.05996 15.354 7.21996C15.614 7.52996 15.805 7.90003 15.909 8.29003C15.969 8.52003 15.999 8.75999 16 8.99998V12H15V14H12V12H3.99999V14H0.999998V12H0V8.99998C0 8.10999 0.419998 7.30003 1.099 6.79003C0.909997 6.69003 0.735983 6.56991 0.583983 6.41991C0.209984 6.03991 0 5.53 0 5.01V4.99999H2C2.041 4.99999 2.08099 5 2.11999 5.01ZM15 7.99999H13.622C13.192 7.99999 12.7789 8.16996 12.4749 8.46996C12.1709 8.77996 12 9.1901 12 9.6201V9.99998H13C14.1 9.99998 14.993 9.10999 15 8.01V7.99999ZM2.37799 7.99999H0.999998C0.999998 9.10998 1.89498 9.99998 2.99798 9.99998C3.54998 9.99998 3.99999 9.99998 3.99999 9.99998V9.6201C3.99999 9.1901 3.82902 8.77996 3.52502 8.46996C3.22102 8.16996 2.80798 7.99999 2.37799 7.99999ZM6.338 4C5.335 4 4.43299 4.61003 4.05999 5.54003L3.87701 5.99999H12.123L11.94 5.54003C11.854 5.33003 11.738 5.12993 11.596 4.93994C11.436 4.73994 11.244 4.55992 11.028 4.41992C10.815 4.26992 10.58 4.16008 10.334 4.09008C10.115 4.03008 9.88897 4 9.66197 4H6.338Z" fill="#2C2D2E"/>
</svg>
