<svg width="30" height="30" viewBox="0 0 30 30" fill="none" xmlns="http://www.w3.org/2000/svg">
<path d="M14.7937 26C11.8497 26 8.9058 26 5.96185 26C5.1721 26 5.04878 25.8822 5.04629 25.0869C5.04629 22.7484 4.97155 20.4073 5.06747 18.0738C5.13972 16.3385 5.61057 14.7249 7.36324 13.8962C8.18073 13.4896 9.07159 13.2624 9.97915 13.229C13.467 13.1778 16.945 13.2072 20.4266 13.1932C20.9486 13.1932 21.1217 13.4288 21.108 13.9308C21.0893 14.6749 21.108 15.419 21.108 16.1631C21.108 17.0186 21.052 17.0775 20.236 17.0788C17.3751 17.0788 14.5142 17.0788 11.6533 17.0788C10.2831 17.0788 9.67147 17.7127 9.67023 19.1381C9.67023 19.6901 9.69764 20.2446 9.66276 20.7953C9.62788 21.346 9.84837 21.4818 10.3504 21.4779C12.9214 21.4587 15.4913 21.4702 18.0623 21.4702C19.9495 21.4702 21.8355 21.4856 23.7227 21.4613C24.2907 21.4613 24.4987 21.6687 24.48 22.2463C24.4501 23.18 24.4801 24.1161 24.4713 25.051C24.4713 25.9552 24.4315 25.9974 23.5682 25.9987L14.7937 26Z" fill="white"/>
<path d="M16.9157 8.51699C14.7607 8.51699 12.6057 8.54004 10.4507 8.5029C9.80667 8.49138 9.61608 8.71037 9.65345 9.34302C9.69954 10.1486 9.66592 10.958 9.66467 11.7648C9.66467 12.6882 9.27228 12.9955 8.43021 12.6434C7.78993 12.3757 7.13595 12.1311 6.59035 11.638C5.64114 10.7851 5.08558 9.73236 5.02579 8.45424C4.96973 7.22478 5.02578 5.9902 5.00461 4.75818C4.99589 4.22541 5.16779 3.99872 5.72211 4.00001C11.6482 4.01452 17.5747 4.01452 23.5016 4.00001C24.0298 4.00001 24.2565 4.17418 24.2428 4.73384C24.2179 5.75241 24.2179 6.77184 24.2428 7.79212C24.2565 8.34921 24.0373 8.52979 23.5054 8.52466C21.3092 8.50417 19.1131 8.51699 16.9157 8.51699Z" fill="white"/>
</svg>
