<svg width="16" height="16" viewBox="0 0 16 16" fill="none" xmlns="http://www.w3.org/2000/svg">
<path fill-rule="evenodd" clip-rule="evenodd" d="M9.33333 4.77067V3.16667C9.33333 2.52267 9.79733 2 10.3707 2C10.6227 2 10.8533 2.10133 11.0333 2.26933L15.1267 5.72267C15.3867 5.93467 15.556 6.27867 15.556 6.66667C15.556 7.05467 15.3867 7.39867 15.1267 7.61067L11.0333 11.064C10.8533 11.232 10.6227 11.3333 10.3707 11.3333C9.79733 11.3333 9.33333 10.8107 9.33333 10.1667V7.492C8.91733 7.388 8.48267 7.33333 8.036 7.33333C5.084 7.33333 2.68667 9.72 2.66667 12.6667C2.66667 13.4027 2.06933 14 1.33333 14C0.597333 14 0 13.4027 0 12.6667C0 12.6573 0 12.648 0 12.6387C0.0346667 8.23333 3.62133 4.66667 8.036 4.66667C8.47733 4.66667 8.91067 4.70267 9.33333 4.77067Z" fill="#2C2D2E"/>
</svg>
