<svg width="33" height="32" viewBox="0 0 33 32" fill="none" xmlns="http://www.w3.org/2000/svg">
<path d="M18.7166 16.65C18.6943 16.6556 18.6055 16.6556 18.5666 16.6556H15.6999V17.3222H18.6166C18.6388 17.3222 18.811 17.3222 18.8443 17.3167C19.4388 17.2611 19.711 16.7667 19.711 16.3333C19.711 15.8889 19.4277 15.4111 18.8888 15.3611C18.7832 15.35 18.6943 15.35 18.6555 15.35H16.7499C16.6666 15.35 16.5721 15.3444 16.5388 15.3333C16.3888 15.2944 16.3332 15.1611 16.3332 15.05C16.3332 14.95 16.3888 14.8167 16.5443 14.7722C16.5888 14.7611 16.6388 14.7556 16.7443 14.7556H19.4943V14.1H16.6999C16.5832 14.1 16.4943 14.1056 16.4221 14.1167C15.9443 14.1833 15.611 14.5667 15.611 15.0556C15.611 15.4556 15.861 15.9222 16.411 16C16.511 16.0111 16.6499 16.0111 16.711 16.0111H18.5666C18.5999 16.0111 18.6832 16.0111 18.6999 16.0167C18.911 16.0444 18.9832 16.2 18.9832 16.3389C18.9832 16.4722 18.8999 16.6167 18.7166 16.65Z" fill="#2C2D2E"/>
<path d="M13.2832 16.65C13.261 16.6556 13.1721 16.6556 13.1388 16.6556H10.2666V17.3222H13.1832C13.2055 17.3222 13.3777 17.3222 13.411 17.3167C14.0055 17.2611 14.2777 16.7667 14.2777 16.3333C14.2777 15.8889 13.9943 15.4111 13.4555 15.3611C13.3499 15.35 13.261 15.35 13.2221 15.35H11.3166C11.2332 15.35 11.1388 15.3444 11.1055 15.3333C10.9555 15.2944 10.8999 15.1611 10.8999 15.05C10.8999 14.95 10.9555 14.8167 11.111 14.7722C11.1555 14.7611 11.2055 14.7556 11.311 14.7556H14.061V14.1H11.2666C11.1499 14.1 11.061 14.1056 10.9888 14.1167C10.511 14.1833 10.1777 14.5667 10.1777 15.0556C10.1777 15.4556 10.4277 15.9222 10.9777 16C11.0777 16.0111 11.2166 16.0111 11.2777 16.0111H13.1332C13.1666 16.0111 13.2499 16.0111 13.2666 16.0167C13.4777 16.0444 13.5499 16.2 13.5499 16.3389C13.5499 16.4722 13.4721 16.6167 13.2832 16.65Z" fill="#2C2D2E"/>
<path d="M8.77212 14.0778H8.0499V17.3389H8.77212V14.0778Z" fill="#2C2D2E"/>
<path d="M6.45546 17.3389V14.0778H5.73324V16.5111L3.32768 14.0778H2.3999V17.3389H3.12212V14.8944L5.54435 17.3389H6.45546Z" fill="#2C2D2E"/>
<path d="M29.6832 14.0778V16.5111L27.2777 14.0778H26.3499V17.3389H27.0721V14.8944L29.4888 17.3389H30.3999V14.0778H29.6832Z" fill="#2C2D2E"/>
<path d="M22.5888 14.0778L20.5555 17.3389H21.4332L21.7943 16.7556H24.1666L24.5277 17.3389H25.3999L23.3666 14.0778H22.5888ZM23.7943 16.1389H22.1666L22.9832 14.8278L23.7943 16.1389Z" fill="#2C2D2E"/>
<path d="M6.41657 12.2278C7.87212 7.97778 11.8832 5.12222 16.4055 5.12222C20.9277 5.12222 24.9443 7.97778 26.3943 12.2278L26.4055 12.2611H29.5888V11.8778L28.2666 11.7222C27.4499 11.6278 27.2777 11.2667 27.0555 10.8111L26.9999 10.7C25.0888 6.63333 20.9277 4 16.4055 4C11.8777 4 7.72212 6.63333 5.81101 10.7111L5.75546 10.8222C5.53324 11.2778 5.36101 11.6389 4.54435 11.7333L3.22212 11.8889V12.2722H6.3999L6.41657 12.2278Z" fill="#2C2D2E"/>
<path d="M26.4055 19.1611L26.3943 19.1944C24.9388 23.4444 20.9277 26.2944 16.4055 26.2944C11.8832 26.2944 7.86657 23.4389 6.41657 19.1889L6.40546 19.1556H3.22768V19.5389L4.5499 19.6944C5.36657 19.7889 5.53879 20.15 5.76101 20.6056L5.81657 20.7167C7.72768 24.7944 11.8888 27.4278 16.411 27.4278C20.9332 27.4278 25.0943 24.7944 27.0055 20.7222L27.061 20.6111C27.2832 20.1556 27.4555 19.7944 28.2721 19.7L29.5943 19.5444V19.1611H26.4055Z" fill="#2C2D2E"/>
</svg>
