<svg width="33" height="32" viewBox="0 0 33 32" fill="none" xmlns="http://www.w3.org/2000/svg">
<path fill-rule="evenodd" clip-rule="evenodd" d="M5.61892 11.7576C8.49919 10.6671 12.4537 10 16.8053 10C21.1517 10 25.1036 10.6671 27.9826 11.7576C29.4207 12.3024 30.6105 12.9601 31.4474 13.7094C32.2841 14.4585 32.8 15.3302 32.8 16.2912C32.8 17.2522 32.2841 18.1233 31.4473 18.8715C30.6103 19.6199 29.4204 20.2764 27.9823 20.8199C25.1034 21.908 21.1516 22.5726 16.8053 22.5726C12.4539 22.5726 8.49942 21.908 5.61918 20.8199C4.1804 20.2764 2.99021 19.6199 2.15303 18.8716C1.31604 18.1234 0.800049 17.2522 0.800049 16.2912C0.800049 15.3302 1.31596 14.4585 2.15285 13.7094C2.98996 12.9601 4.18012 12.3024 5.61892 11.7576ZM2.65414 14.2695C1.90992 14.9356 1.55168 15.6196 1.55168 16.2912C1.55168 16.9627 1.90984 17.646 2.65396 18.3112C3.39789 18.9762 4.49575 19.5921 5.8848 20.1168C8.66022 21.1653 12.5205 21.8209 16.8053 21.8209C21.0848 21.8209 24.9425 21.1653 27.7166 20.1168C29.105 19.5921 30.2025 18.9762 30.9463 18.3112C31.6903 17.646 32.0484 16.9627 32.0484 16.2912C32.0484 15.6195 31.6902 14.9356 30.9461 14.2694C30.2023 13.6035 29.1047 12.9865 27.7163 12.4605C24.9422 11.4097 21.0847 10.7516 16.8053 10.7516C12.5207 10.7516 8.66045 11.4097 5.88507 12.4605C4.49604 12.9865 3.39813 13.6035 2.65414 14.2695Z" fill="#393939"/>
<path d="M15.4997 13.017C16.2596 13.2237 17.7238 13.8626 19.1331 13.8626C20.0899 13.8626 21.2189 13.2477 21.2189 12.9253C21.2189 12.8449 21.2189 12.7644 21.0175 12.7644C20.7957 12.7644 20.9167 12.784 20.362 12.8749C19.8382 12.9554 19.1933 12.9351 18.6897 12.9351C17.3194 12.9155 15.6365 12.6329 14.9616 12.5119C14.4356 12.4198 13.9028 12.3728 13.3688 12.3713C10.8599 12.3713 9.84219 13.3785 9.83167 14.3767C9.8219 14.9103 10.215 15.4545 10.799 15.4545C11.8475 15.4545 12.4519 14.3662 12.5022 13.9738C12.5022 13.9738 12.5225 13.9032 12.4616 13.8528C12.4316 13.8325 12.3511 13.8423 12.3211 13.9129C12.1798 14.2452 11.6153 14.6285 11.2124 14.6991C10.8396 14.7698 10.5878 14.5684 10.5675 14.2557C10.5269 13.489 11.3943 12.6532 13.3388 12.6532C13.8927 12.6532 14.5985 12.8043 15.3742 12.9854L15.3937 12.9899C15.0818 13.0598 13.9807 13.9084 13.1163 15.2328C12.8848 15.2629 11.9182 15.344 11.5957 15.7063C11.5667 15.7455 11.546 15.7903 11.5349 15.8379C11.5552 15.9183 11.6153 15.9581 11.7062 15.8882C11.9077 15.6567 12.7239 15.565 12.9156 15.5552C11.7265 17.2284 10.6276 18.3265 9.65052 18.3265C9.5498 18.3265 9.44909 18.337 9.33784 18.307C8.94474 18.216 8.71324 17.8034 8.71324 17.4298C8.71324 16.936 9.18677 16.4023 9.45886 16.3016C9.54905 16.261 9.58964 16.2107 9.58964 16.1701C9.58964 16.11 9.5498 16.0694 9.43931 16.0694C8.50128 16.3016 7.99768 17.0668 8.00821 17.6921C8.02775 18.7196 8.80418 19.2939 9.68059 19.2939C10.9103 19.2939 11.5349 18.7602 13.5402 15.5154C14.337 15.4342 14.7293 15.3846 15.1322 15.314C15.1322 15.314 15.2532 15.6056 15.5553 15.6056C15.6057 15.6161 15.5959 15.5658 15.626 15.4553C15.4952 15.4448 15.3441 15.3538 15.3441 15.2433C15.4644 15.1832 15.5659 15.1118 15.6561 15.0419C15.7876 14.9209 15.9184 14.6691 15.9184 14.4977C15.9168 14.414 15.8855 14.3337 15.8302 14.2709C15.7748 14.2081 15.699 14.167 15.6162 14.155C15.293 14.1046 15.042 14.3662 15.0112 14.7999C15.0112 14.9103 15.0518 15.0419 15.0518 15.0419C15.0518 15.0419 14.346 15.1621 13.7417 15.1922C14.4873 13.9332 15.1728 13.4898 15.3742 13.3086C15.4148 13.2786 15.5155 13.1673 15.5253 13.147C15.5353 13.1254 15.5382 13.1012 15.5336 13.0779C15.529 13.0545 15.5172 13.0332 15.4997 13.017ZM16.8053 21.1782C8.7636 21.1782 2.26423 18.9917 2.26423 16.2911C2.26423 13.6003 8.7636 11.413 16.8053 11.413C24.8365 11.413 31.3569 13.6003 31.3569 16.2911C31.3569 18.9917 24.8365 21.1782 16.8053 21.1782ZM20.6146 17.269C20.4131 17.4501 20.1711 17.6921 19.6164 17.6921C19.294 17.6921 19.0422 17.4298 19.1031 17.0976C19.1429 16.8353 19.2338 16.7045 19.4255 16.6338C19.5157 16.8954 19.6871 17.0367 19.9795 17.0367C20.3117 17.0269 20.5033 16.7248 20.5131 16.4625C20.5131 16.2407 20.3726 15.9589 19.9697 15.9386C19.5969 15.9183 19.3143 16.0897 18.9114 16.5534C18.9114 16.5534 19.0121 15.8679 18.256 15.8882C18.1755 15.8882 18.0951 15.8882 18.0147 15.9281C17.6013 16.0596 17.0676 16.7248 16.6437 17.2382C16.664 17.1374 16.664 17.0367 16.664 16.936C16.664 16.6436 16.5535 16.261 16.3513 16.0596C16.3115 16.019 16.2709 16.019 16.2311 16.019C16.0995 16.019 15.989 16.1302 15.989 16.3016C16.0898 16.4023 16.2205 16.6541 16.2205 16.8954C16.2205 17.1374 16.1499 17.5809 16.0492 17.7523C15.6658 18.4077 15.1825 18.8309 14.5985 18.7399C14.2858 18.6693 14.0739 18.3671 14.1348 17.9131C14.1648 17.6516 14.3264 17.2893 14.4775 17.0668C14.7293 16.7248 15.1427 16.3715 15.747 16.2813C15.747 16.2813 15.7771 16.1603 15.6967 16.0994C15.6666 16.0491 15.626 15.9889 15.4854 15.9889C14.6286 16.019 14.1047 16.6338 13.8018 17.2382C13.6913 17.4501 13.5297 17.7523 13.4395 17.9439C13.4395 17.9439 13.3591 18.1657 12.9863 18.4475C12.7946 18.5986 12.7337 18.649 12.7037 18.6392C12.7142 18.7098 12.7638 18.8106 12.8547 18.891C12.8848 18.9113 12.9863 18.8512 13.0261 18.8309C13.4996 18.5588 13.55 18.4272 13.55 18.4272C13.6507 18.9917 14.1348 19.2841 14.6692 19.2841C15.4043 19.2841 16.0792 18.6189 16.4731 18.0349C16.8865 17.42 17.4502 16.815 17.4502 16.815C17.6719 16.6038 17.9034 16.4625 18.044 16.4625C18.1755 16.4722 18.2665 16.5827 18.2364 16.7045C18.1853 16.9157 18.1154 17.1179 17.9733 17.3697L16.876 19.2337H17.7328C18.2259 18.307 18.2462 18.2762 18.7302 17.39C18.861 17.8831 19.1226 18.0747 19.5458 18.0852C19.9088 18.095 20.1606 18.0747 20.4327 17.9334C20.362 18.216 20.4026 18.4979 20.4928 18.6896C20.5943 18.9211 20.7957 19.2134 21.2896 19.2232C21.8833 19.2232 22.4681 18.9616 22.6395 18.8098C22.6898 19.103 22.8312 19.2533 23.204 19.2533C23.9601 19.2337 24.6245 18.4581 25.0282 17.9537C25.0988 17.8635 25.189 17.7117 25.189 17.6718C25.189 17.6117 25.1086 17.5711 25.0688 17.5711C25.0282 17.5711 24.9575 17.6613 24.9169 17.7117C24.726 17.9139 23.9293 18.7399 23.4963 18.7602C23.5865 18.7602 23.346 18.8106 23.325 18.6189C23.3152 18.4986 23.4152 18.3468 23.4558 18.2664L25.6129 14.4473H24.8162L23.5159 16.6429C23.4159 16.4414 23.2648 15.9679 22.6703 15.9581C21.6827 15.9476 21.2993 16.6233 20.6146 17.269Z" fill="#2C2D2E"/>
<path d="M22.7101 16.4324C22.3569 16.3918 21.9142 16.694 21.5511 17.1374C21.3707 17.3592 21.1783 17.7823 21.1482 18.0349C21.1077 18.2867 21.1783 18.5385 21.2693 18.6091C21.3595 18.6798 21.7631 18.891 22.3877 18.2559C22.741 17.9033 23.0829 17.3291 23.0829 17.3291L22.9725 17.299C23.1837 16.9059 23.1438 16.4828 22.7101 16.4324ZM15.293 15.0216C15.293 15.0216 15.3945 15.0314 15.5456 14.86C15.6057 14.7999 15.7064 14.618 15.6869 14.4977C15.6764 14.4376 15.6463 14.3662 15.5756 14.3767C15.4253 14.4068 15.3336 14.4774 15.2938 14.6285C15.2533 14.7564 15.2533 14.8937 15.2938 15.0216" fill="#2C2D2E"/>
</svg>
