<svg width="30" height="27" viewBox="0 0 30 27" fill="none" xmlns="http://www.w3.org/2000/svg">
<path d="M0.0175742 26.3002C0.0117202 26.1802 0.00489051 26.1012 0.00489051 26.0212C0.00489051 24.5986 0.00781752 23.1761 1.21505e-05 21.7536C-0.000963521 21.5555 0.0566011 21.4706 0.251735 21.4189C3.93782 20.455 7.62196 19.4832 11.3071 18.5134C11.669 18.4178 12.031 18.3251 12.392 18.2285C13.1482 18.0265 13.556 17.5084 13.5775 16.7289C13.5823 16.5581 13.5872 16.3874 13.5892 16.2166C13.5931 15.8537 13.3921 15.6995 13.0399 15.7971C10.0982 16.6176 7.15656 17.4382 4.21491 18.2597C3.58853 18.4343 2.96313 18.6109 2.33675 18.7846C2.07917 18.8558 2.05283 18.8363 2.05185 18.5719C2.04404 17.2635 2.04112 15.9552 2.02648 14.6468C2.02356 14.4253 2.08795 14.3199 2.31431 14.2565C6.50677 13.0906 10.6963 11.9159 14.8858 10.7431C15.1922 10.6573 15.2068 10.668 15.2059 10.9792C15.2049 13.5482 15.2039 16.1171 15.2 18.6861C15.1971 20.7018 13.9736 22.3546 12.0388 22.9156C9.96259 23.5176 7.87856 24.0923 5.79745 24.6796C3.97587 25.1928 2.15527 25.707 0.333692 26.2202C0.241003 26.2465 0.147339 26.268 0.0165986 26.3012L0.0175742 26.3002Z" fill="black"/>
<path d="M29.9804 6.61993C29.9863 6.73799 29.9941 6.81702 29.9941 6.89702C29.9941 8.22199 29.9892 9.54695 30 10.8719C30.0019 11.0866 29.9258 11.1675 29.7297 11.2212C28.4447 11.5715 27.1637 11.9383 25.8778 12.2847C25.6475 12.3461 25.5685 12.4437 25.5685 12.6828C25.5704 14.7629 25.5568 16.843 25.5597 18.9232C25.5597 19.1719 25.4816 19.2763 25.2397 19.3398C23.9362 19.6852 22.6375 20.0491 21.337 20.4052C21.2384 20.4325 21.136 20.4481 20.9916 20.4774V13.6584C19.5915 14.0487 18.2392 14.4253 16.8567 14.8107C16.8489 14.68 16.8391 14.6009 16.8391 14.5219C16.8391 13.2047 16.843 11.8886 16.8342 10.5714C16.8333 10.3538 16.9016 10.2641 17.1152 10.2045C21.3067 9.03667 25.4953 7.86099 29.6858 6.68725C29.7707 6.66384 29.8575 6.64823 29.9804 6.61993Z" fill="black"/>
<path d="M2.05283 12.2232C2.04307 12.0954 2.03136 12.0086 2.03136 11.9217C2.03038 10.6212 2.03526 9.32157 2.02648 8.021C2.02453 7.78879 2.09673 7.68244 2.33089 7.61707C6.5175 6.45504 10.7022 5.28229 14.8878 4.11246C15.198 4.02562 15.2068 4.03245 15.2068 4.34954C15.2078 5.65792 15.201 6.9663 15.2137 8.27467C15.2156 8.51078 15.1268 8.59859 14.9141 8.65713C11.9617 9.4728 9.01229 10.2963 6.06088 11.1178C4.8169 11.4641 3.57292 11.8115 2.32894 12.1569C2.25284 12.1783 2.17478 12.1939 2.0538 12.2232H2.05283Z" fill="black"/>
<path d="M29.9785 0C29.9844 0.132691 29.9922 0.212696 29.9922 0.292701C29.9931 1.60986 29.9883 2.92701 29.999 4.24417C30.0009 4.45784 29.9248 4.53785 29.7287 4.59249C25.5275 5.76329 21.3282 6.93995 17.1279 8.11466C17.0518 8.13613 16.9728 8.14686 16.8606 8.17027C16.8528 8.05222 16.8411 7.95953 16.8411 7.86684C16.8411 6.59066 16.8411 5.31448 16.8411 4.03733C16.8411 3.66072 16.8411 3.65877 17.1982 3.56023C21.0804 2.47821 24.9626 1.39619 28.8448 0.315142C29.2097 0.213672 29.5755 0.113178 29.9785 0.00195134V0Z" fill="black"/>
</svg>
