<svg width="16" height="16" viewBox="0 0 16 16" fill="none" xmlns="http://www.w3.org/2000/svg">
<path fill-rule="evenodd" clip-rule="evenodd" d="M0 8C0 6.159 0.331 4.535 0.833 3.577C1.073 2.995 1.479 2.5 1.992 2.151C2.912 1.479 5.256 1 8 1C10.744 1 13.088 1.479 14.008 2.151C14.521 2.5 14.927 2.995 15.167 3.577C15.669 4.535 16 6.159 16 8C16 9.841 15.669 11.465 15.167 12.423C14.927 13.005 14.521 13.5 14.008 13.849C13.088 14.521 10.744 15 8 15C5.256 15 2.912 14.521 1.992 13.849C1.479 13.5 1.073 13.005 0.833 12.423C0.331 11.465 0 9.841 0 8V8ZM6.833 10.897C6.746 10.962 6.638 11 6.521 11C6.234 11 6 10.766 6 10.479V5.521C6 5.234 6.234 5 6.521 5C6.638 5 6.746 5.038 6.833 5.103L10.764 7.546L10.762 7.549C10.906 7.648 11 7.813 11 8C11 8.187 10.906 8.352 10.762 8.451L10.764 8.454L6.833 10.897Z" fill="#2C2D2E"/>
</svg>
