<svg width="16" height="14" viewBox="0 0 16 14" fill="none" xmlns="http://www.w3.org/2000/svg">
<path fill-rule="evenodd" clip-rule="evenodd" d="M4.86546 2.16474C4.20286 2.16474 3.56718 2.42807 3.09807 2.89718L2.89632 3.09894C2.42844 3.56621 2.16474 4.20266 2.16474 4.86633C2.16474 5.5296 2.42768 6.16508 2.89632 6.63372L6.78851 10.5259C7.45771 11.1951 8.54229 11.1951 9.21149 10.5259C9.78306 9.95435 10.2602 9.47711 10.7028 9.03439C11.4986 8.23842 12.1828 7.55406 13.1037 6.63372C13.5723 6.16508 13.8353 5.5296 13.8353 4.86633C13.8353 4.20266 13.5721 3.56671 13.1042 3.09943L12.9019 2.89718C12.4328 2.42807 11.7971 2.16474 11.1345 2.16474C10.5317 2.16474 9.72619 2.53747 9.21091 3.05342L9.20967 3.05465L7.99925 4.26272L6.78958 3.05304C6.27333 2.5368 5.46855 2.16474 4.86546 2.16474ZM1.56737 1.36648C2.44213 0.491724 3.62829 0 4.86546 0C6.0075 0 7.17304 0.537462 8.00038 1.23009C8.82732 0.537646 9.99298 0 11.1345 0C12.3717 0 13.5579 0.491724 14.4326 1.36648L14.6339 1.56774C14.6341 1.56791 14.6337 1.56758 14.6339 1.56774C15.5096 2.44256 16 3.63046 16 4.86633C16 6.10283 15.5096 7.28919 14.6344 8.16442C13.7137 9.08453 13.0298 9.76865 12.2342 10.5644C11.7915 11.0072 11.3142 11.4846 10.7422 12.0566C9.2276 13.5712 6.7724 13.5712 5.25781 12.0566L1.36562 8.16442C0.490384 7.28919 0 6.10283 0 4.86633C0 3.63046 0.489938 2.44305 1.36562 1.56824C1.36568 1.56817 1.36555 1.5683 1.36562 1.56824L1.56737 1.36648Z" fill="#2C2D2E"/>
</svg>
