<svg width="16" height="16" viewBox="0 0 16 16" fill="none" xmlns="http://www.w3.org/2000/svg">
<path fill-rule="evenodd" clip-rule="evenodd" d="M3.97195 13C4.52395 13 4.97195 13.448 4.97195 14C4.97195 14.552 4.52395 15 3.97195 15H2.00195C1.44995 15 1.00195 14.552 1.00195 14C1.00195 13.448 1.44995 13 2.00195 13H3.97195ZM6.00195 9C6.55395 9 7.00195 9.448 7.00195 10C7.00195 10.552 6.55395 11 6.00195 11H2.00195C1.44995 11 1.00195 10.552 1.00195 10C1.00195 9.448 1.44995 9 2.00195 9H6.00195ZM8.94195 5C9.49395 5 9.94195 5.448 9.94195 6C9.94195 6.552 9.49395 7 8.94195 7H2.00195C1.44995 7 1.00195 6.552 1.00195 6C1.00195 5.448 1.44995 5 2.00195 5H8.94195ZM14.002 1C14.554 1 15.002 1.448 15.002 2C15.002 2.552 14.554 3 14.002 3H2.00195C1.44995 3 1.00195 2.552 1.00195 2C1.00195 1.448 1.44995 1 2.00195 1H14.002Z" fill="#2C2D2E"/>
<path d="M13.001 14L13.001 11.414L13.355 11.768C13.745 12.158 14.378 12.158 14.769 11.768C15.159 11.378 15.159 10.744 14.769 10.354L12.721 8.306C12.717 8.302 12.713 8.297 12.708 8.293C12.513 8.098 12.257 8 12.001 8C11.745 8 11.489 8.098 11.294 8.293C11.29 8.297 11.286 8.302 11.281 8.306L9.23396 10.354C8.84396 10.744 8.84396 11.378 9.23396 11.768C9.62396 12.158 10.258 12.158 10.648 11.768L11.001 11.415L11.001 14C11.001 14.552 11.449 15 12.001 15C12.553 15 13.001 14.552 13.001 14Z" fill="#2C2D2E"/>
</svg>
