<svg width="16" height="16" viewBox="0 0 16 16" fill="none" xmlns="http://www.w3.org/2000/svg">
<path fill-rule="evenodd" clip-rule="evenodd" d="M16 3C16 1.344 14.656 0 13 0H3C1.344 0 0 1.344 0 3V13C0 14.656 1.344 16 3 16H13C14.656 16 16 14.656 16 13V3ZM2.445 4.514H3.767C4.097 4.514 4.224 4.653 4.351 5.022C4.999 6.89 6.08 8.53 6.524 8.53C6.69 8.53 6.766 8.453 6.766 8.034V6.102C6.73451 5.55317 6.54334 5.31382 6.40164 5.13642C6.31382 5.02646 6.245 4.9403 6.245 4.819C6.245 4.666 6.372 4.514 6.575 4.514H8.634C8.914 4.514 9.015 4.666 9.015 4.997V7.602C9.015 7.881 9.13 7.983 9.219 7.983C9.384 7.983 9.524 7.881 9.829 7.576C10.769 6.522 11.443 4.895 11.443 4.895C11.532 4.704 11.684 4.526 12.015 4.526H13.324C13.718 4.526 13.807 4.73 13.718 5.009C13.5788 5.6489 12.4303 7.34311 12.0709 7.87315C12.0018 7.97512 11.9619 8.034 11.964 8.034C11.824 8.263 11.773 8.364 11.964 8.619C12.0327 8.71224 12.1777 8.85461 12.3437 9.01751C12.5159 9.18655 12.7107 9.3777 12.866 9.559C13.425 10.194 13.857 10.728 13.972 11.097C14.073 11.465 13.896 11.656 13.514 11.656H12.205C11.8587 11.656 11.6798 11.4568 11.2989 11.0329C11.1353 10.8508 10.9344 10.6271 10.667 10.36C9.892 9.61 9.549 9.508 9.358 9.508C9.092 9.508 9.015 9.572 9.015 9.953V11.135C9.015 11.453 8.914 11.643 8.075 11.643C6.69 11.643 5.152 10.804 4.072 9.241C2.445 6.954 2 5.225 2 4.882C2 4.692 2.064 4.514 2.445 4.514Z" fill="#2C2D2E"/>
</svg>
