<svg width="16" height="16" viewBox="0 0 16 16" fill="none" xmlns="http://www.w3.org/2000/svg">
<path fill-rule="evenodd" clip-rule="evenodd" d="M6.2879 0.690009C6.89932 0.52504 7.52844 0.890396 7.69248 1.5046L8.31041 3.81977C8.47445 4.43398 8.11096 5.0659 7.49955 5.23087C7.45388 5.24298 7.40821 5.2523 7.36254 5.25883L6.27113 5.48251C6.27113 5.48251 5.61684 5.57851 5.63362 6.23373C5.65319 7.06324 7.03446 9.46602 7.74001 9.89848C8.29736 10.2396 8.70653 9.7186 8.70653 9.7186L9.44563 8.88163C9.47452 8.84528 9.50528 8.8108 9.5379 8.77725C9.98621 8.32801 10.7123 8.32801 11.1606 8.77725L12.8485 10.4726C13.2958 10.9218 13.2958 11.6516 12.8485 12.1009C12.8485 12.1009 11.84 13.1569 10.5883 13.9239C9.084 14.8466 7.64774 14.019 7.19291 13.7897C6.12294 13.2482 4.65126 11.5239 3.67822 9.86306L3.63255 9.78384C2.68654 8.10711 1.93625 5.96437 2.00429 4.76485C2.03318 4.2541 2.03784 2.59135 3.58501 1.74414C4.87308 1.03859 6.2879 0.690009 6.2879 0.690009Z" fill="#2C2D2E"/>
</svg>
