<svg width="31" height="30" viewBox="0 0 31 30" fill="none" xmlns="http://www.w3.org/2000/svg">
<path d="M26.4365 7.26287C26.4324 7.25436 26.4279 7.24331 26.4228 7.23067C26.4088 7.19616 26.39 7.14982 26.3609 7.11112C26.2185 6.92214 26.0743 6.73438 25.9302 6.54663L25.9301 6.54653L25.9298 6.54605C25.8271 6.41234 25.7245 6.27863 25.6225 6.1445C25.5713 6.07739 25.5272 6.07931 25.4647 6.13108C25.3806 6.20065 25.2927 6.26694 25.1996 6.32336C25.1053 6.38061 25.0842 6.43211 25.1585 6.5266C25.2741 6.67359 25.3869 6.82287 25.4996 6.97216L25.4997 6.97219L25.4997 6.97225C25.5929 7.09557 25.686 7.2189 25.7808 7.34093C25.8389 7.41598 25.9065 7.48583 25.9794 7.54636C26.0517 7.60662 26.1322 7.63319 26.23 7.57649C26.3428 7.51134 26.4362 7.44126 26.4365 7.26287Z" fill="black"/>
<path d="M22.2719 3.96817L22.272 3.96836L22.272 3.96893C22.2824 4.0576 22.2929 4.14813 22.3035 4.24139L22.3033 4.24166C22.0285 4.07119 21.7681 3.90985 21.5032 3.74569L21.5008 3.74418C21.4081 3.68675 21.3149 3.62896 21.2202 3.57031C21.2383 3.56177 21.2541 3.55385 21.2684 3.54665C21.2969 3.53236 21.3197 3.52089 21.3438 3.51306C21.4392 3.48191 21.5348 3.45146 21.6305 3.42101C21.7644 3.37839 21.8983 3.33578 22.0315 3.2912C22.1351 3.25641 22.1956 3.27093 22.2079 3.39419C22.227 3.58281 22.2489 3.77091 22.2719 3.96817Z" fill="black"/>
<path d="M7.34129 4.63554C7.55149 4.48911 7.75169 4.3496 7.95021 4.21126L7.9606 4.20402C8.1184 4.09405 8.27523 3.98476 8.43528 3.87326C8.14131 3.79897 7.85525 3.72688 7.55607 3.65148L7.45031 3.62482C7.4357 3.76039 7.42109 3.89572 7.40626 4.03302L7.4054 4.04103C7.38465 4.23324 7.36347 4.4294 7.34129 4.63554Z" fill="black"/>
<path fill-rule="evenodd" clip-rule="evenodd" d="M14.9999 30C23.2841 30 29.9998 23.2843 29.9998 15.0001C29.9998 6.71588 23.2841 0.000193929 14.9999 0.000193929C6.71569 0.000193929 0 6.71588 0 15.0001C0 23.2843 6.71569 30 14.9999 30ZM14.9969 26.9262C21.5852 26.9262 26.926 21.5854 26.926 14.9971C26.926 8.40882 21.5852 3.06797 14.9969 3.06797C8.40862 3.06797 3.06777 8.40882 3.06777 14.9971C3.06777 21.5854 8.40862 26.9262 14.9969 26.9262ZM25.891 8.29435L25.8938 8.31834L25.8941 8.32057C25.9111 8.46435 25.9282 8.60812 25.9451 8.75184L25.906 8.76663C25.8547 8.69426 25.7952 8.62742 25.7358 8.56062C25.5726 8.37712 25.4097 8.19399 25.4168 7.89779C25.4222 7.67264 25.3927 7.43762 25.3278 7.22233C25.2916 7.10257 25.2099 6.99555 25.1292 6.88982C25.1034 6.85603 25.0776 6.82236 25.0536 6.78846C25.018 6.7383 24.9744 6.69389 24.9306 6.64918C24.9109 6.6292 24.8913 6.60915 24.8722 6.58851C24.836 6.61612 24.8005 6.6422 24.7658 6.66761L24.7656 6.66778L24.7655 6.66783C24.6873 6.72526 24.6136 6.77933 24.5463 6.84023C24.4797 6.90049 24.4395 6.88926 24.3913 6.82708C24.3236 6.73961 24.2553 6.65274 24.1797 6.55651L24.1795 6.55624L24.1791 6.55578C24.1399 6.50577 24.0986 6.45323 24.0544 6.39677C24.0684 6.38846 24.082 6.38099 24.0951 6.37381C24.1213 6.35948 24.1454 6.34627 24.1669 6.32966C24.2329 6.2791 24.299 6.22859 24.3651 6.17807L24.3659 6.17743L24.3676 6.17615C24.6521 5.95857 24.9367 5.74093 25.2179 5.51917C25.3165 5.44138 25.3768 5.43645 25.46 5.54574C25.6846 5.84078 25.9122 6.13355 26.1397 6.42632L26.14 6.42663L26.1401 6.42683L26.1402 6.42693C26.3156 6.65255 26.491 6.87817 26.665 7.10482C26.731 7.19083 26.7847 7.28834 26.8312 7.38668C26.9772 7.69455 26.8334 7.93504 26.6578 8.0457C26.468 8.16512 26.1656 8.11418 25.9794 7.92929C25.959 7.90909 25.9371 7.89028 25.9152 7.87149L25.9152 7.87143L25.9151 7.87135L25.915 7.87129C25.9046 7.86236 25.8943 7.85344 25.8841 7.84438C25.8693 7.84986 25.8548 7.85533 25.84 7.86054L25.8397 7.86081C25.8567 8.00528 25.8739 8.14981 25.891 8.29435ZM18.718 1.41697C18.6765 1.4129 18.6349 1.40882 18.5932 1.40452L18.5926 1.4048L18.5492 1.62199C18.5031 1.85314 18.4588 2.07475 18.4149 2.29637C18.3765 2.49029 18.2642 2.60643 18.0703 2.65738C17.7832 2.7327 17.506 2.6823 17.2362 2.59438C16.7336 2.43086 16.6895 2.21255 16.7539 1.83291C16.7716 1.72786 16.789 1.62275 16.8063 1.51766L16.8064 1.51746L16.8064 1.51727C16.8283 1.38438 16.8502 1.25152 16.873 1.11883C16.887 1.03748 16.858 1.00462 16.7739 0.998041C16.6421 0.987907 16.5106 0.970377 16.3808 0.946547C16.3099 0.933673 16.283 0.950107 16.2712 1.02215C16.2269 1.29633 16.1781 1.56996 16.1285 1.84332C16.0675 2.17913 16.205 2.42236 16.4857 2.59C16.5901 2.65217 16.7065 2.70312 16.824 2.73243C16.8542 2.73997 16.8843 2.74758 16.9146 2.7552L16.9149 2.75529C17.1633 2.81789 17.4131 2.88087 17.666 2.90992C17.9489 2.94252 18.2387 2.94526 18.5228 2.92416C18.7263 2.9091 18.9093 2.78475 18.9638 2.58178C19.0366 2.31139 19.0854 2.03429 19.1341 1.75742L19.1341 1.75739L19.1341 1.75735L19.1342 1.75691C19.1461 1.68925 19.158 1.6216 19.1703 1.55408C19.1752 1.52668 19.133 1.4656 19.1067 1.46177C18.9782 1.44245 18.8485 1.42975 18.7181 1.41698L18.718 1.41697ZM13.3317 1.9874L13.3369 1.9861C13.5238 1.93943 13.7088 1.89324 13.9162 1.8414C13.9255 1.90128 13.9348 1.95975 13.944 2.01718L13.944 2.01724L13.944 2.01747L13.944 2.01756C13.9734 2.20249 14.0011 2.37659 14.023 2.55165C14.026 2.5763 13.9767 2.62834 13.9458 2.63382C13.2854 2.74776 12.6244 2.85897 11.9627 2.96497C11.8763 2.97869 11.7854 2.97097 11.6969 2.96344C11.6899 2.96285 11.683 2.96226 11.6762 2.96169C11.2806 2.92827 11.0319 2.71599 10.9656 2.36046C10.8994 2.00356 11.053 1.66747 11.4009 1.51792C11.6447 1.41328 11.9112 1.35275 12.1733 1.30098C12.521 1.23237 12.871 1.17422 13.2209 1.11609C13.3613 1.09276 13.5018 1.06943 13.642 1.04542C13.6567 1.04288 13.6715 1.04179 13.6905 1.04038C13.7002 1.03966 13.711 1.03886 13.7234 1.03776C13.7267 1.07443 13.73 1.11017 13.7336 1.14811C13.7367 1.18158 13.74 1.21676 13.7436 1.25579L13.6651 1.27009C13.3864 1.32088 13.109 1.37144 12.8315 1.42177C12.766 1.43369 12.7004 1.44523 12.6348 1.45678C12.4892 1.48239 12.3437 1.508 12.1991 1.53764C12.1103 1.55572 12.0224 1.58475 11.9388 1.62008C11.6291 1.75046 11.5293 1.96274 11.6165 2.29253C11.6888 2.56562 11.9238 2.72722 12.2207 2.68614C12.448 2.6546 12.6744 2.61644 12.9007 2.57829L12.9007 2.57828C13.0341 2.5558 13.1675 2.53333 13.301 2.5122C13.3758 2.50043 13.401 2.46865 13.3878 2.39278C13.3721 2.30254 13.3604 2.2115 13.3481 2.11525L13.3481 2.11517L13.348 2.11512L13.348 2.11508C13.3427 2.07378 13.3373 2.03152 13.3314 1.98794L13.3317 1.9874ZM22.999 5.34479L22.9993 5.34496H22.999L22.999 5.34479ZM22.999 5.34479C22.9444 5.31224 22.8916 5.28154 22.8402 5.25173C22.7133 5.17803 22.5958 5.10974 22.4849 5.03216C22.435 4.9971 22.392 4.91246 22.3934 4.85138C22.3983 4.62897 22.2991 4.49366 22.1077 4.38601C21.7343 4.17592 21.3701 3.94913 21.0068 3.72178C20.8855 3.64591 20.768 3.67768 20.6688 3.72945C20.4821 3.82758 20.3645 3.73884 20.2283 3.636C20.2002 3.61484 20.1714 3.59308 20.141 3.57223C20.1892 3.55853 20.2344 3.54602 20.2775 3.53409C20.3688 3.5088 20.4506 3.48616 20.5313 3.46047C21.0266 3.30325 21.5218 3.14548 22.0159 2.98497C22.146 2.94279 22.2479 2.97511 22.3745 3.03208C22.6708 3.16547 22.7566 3.38159 22.7831 3.68754C22.8139 4.04562 22.8682 4.40156 22.9226 4.75751L22.9226 4.75756C22.946 4.9113 22.9695 5.06505 22.991 5.21897C22.994 5.24056 22.995 5.26249 22.9962 5.29031C22.9969 5.3062 22.9977 5.32402 22.999 5.34479ZM9.56619 3.77601C9.44777 3.86676 9.33912 3.95002 9.21893 4.01021C9.13731 4.05102 9.00583 4.01843 8.90558 3.98912C8.78753 3.95488 8.70398 3.95735 8.59579 4.0376C8.25721 4.2878 7.9081 4.52395 7.55928 4.7599C7.5308 4.77916 7.50233 4.79843 7.47386 4.81769C7.37279 4.88617 7.29883 4.95848 7.30623 5.0905C7.30813 5.1246 7.30183 5.15923 7.2955 5.19393C7.29274 5.20912 7.28996 5.22434 7.28788 5.23951C7.26158 5.42988 7.15859 5.52575 6.94467 5.55177C6.95267 5.47496 6.96062 5.39833 6.96856 5.32182L6.96858 5.32162C6.98727 5.14142 7.0059 4.96189 7.02493 4.78236C7.03437 4.69339 7.04361 4.60438 7.05284 4.51535L7.05285 4.51531C7.08404 4.21462 7.11524 3.91381 7.15476 3.61414C7.16462 3.53881 7.21639 3.45472 7.27391 3.40268C7.36758 3.31804 7.47934 3.25231 7.5889 3.18794C7.62752 3.1652 7.68587 3.15479 7.72887 3.16493C8.23762 3.28541 8.74529 3.40958 9.25303 3.53377C9.31552 3.54906 9.37802 3.56435 9.44052 3.57963C9.49544 3.59295 9.54987 3.60793 9.61458 3.62573C9.64831 3.63502 9.68483 3.64506 9.72566 3.65605V3.65632C9.66959 3.69677 9.61698 3.73708 9.56619 3.77601ZM5.46186 6.91073C5.48021 6.85328 5.49902 6.79439 5.52144 6.73532H5.52117C5.50073 6.69523 5.48366 6.65306 5.46695 6.61177C5.43148 6.52414 5.39762 6.44049 5.33656 6.3891C5.13574 6.21977 4.92065 6.06747 4.70573 5.91529C4.64948 5.87547 4.59325 5.83565 4.53729 5.79554C4.47594 5.75144 4.42499 5.76898 4.38253 5.84183C4.32118 5.94756 4.24996 6.04864 4.17409 6.14478C4.10178 6.23626 4.12205 6.2883 4.21463 6.35213C4.42088 6.49401 4.62494 6.64055 4.81777 6.79969C5.00622 6.955 5.02978 7.08428 4.94185 7.30944C4.91885 7.3686 4.8931 7.42859 4.85749 7.48035C4.67419 7.74602 4.48933 8.01044 4.30444 8.27491C4.24399 8.36137 4.18354 8.44784 4.12314 8.53435C4.11705 8.54305 4.11037 8.55155 4.10376 8.55996C4.06665 8.60713 4.03183 8.6514 4.11739 8.71185C4.20011 8.77046 4.25544 8.78032 4.31816 8.68993C4.42777 8.53215 4.53846 8.37515 4.64914 8.21818C4.87699 7.89502 5.10476 7.57196 5.32286 7.24233C5.38672 7.14599 5.42327 7.03154 5.46186 6.91073Z" fill="black"/>
<path d="M0.0304037 15.1199C-0.131202 7.00238 6.52669 0.0423738 14.9272 0.000191935C23.2529 -0.0414421 30.0165 6.69561 30.008 15.0252C29.9998 23.3355 23.2318 29.9685 15.0636 29.9997C6.56476 30.0323 -0.0139695 23.0392 0.0304037 15.1199ZM29.8242 14.8337C29.7297 6.57016 22.9028 0.0218307 14.679 0.188367C6.59352 0.352164 0.032321 7.06839 0.199405 15.3245C0.361559 23.3333 6.93865 29.9118 15.1715 29.8168C23.4381 29.7214 29.9053 22.9682 29.8242 14.834V14.8337Z" fill="black"/>
<path d="M15.0102 26.9311C8.34763 26.9552 3.0486 21.4587 3.07599 14.9581C3.10338 8.45903 8.39255 3.04194 15.0551 3.07317C21.7272 3.10439 27.0501 8.56941 26.9345 15.2188C26.82 21.8233 21.4372 26.9254 15.0099 26.9314L15.0102 26.9311ZM26.7406 14.9471C26.7406 8.42616 21.3985 3.17342 14.8694 3.25833C8.40679 3.34242 3.21404 8.59379 3.2691 15.1071C3.32415 21.6088 8.60401 26.7901 15.0954 26.7408C21.5801 26.6915 26.808 21.3839 26.7403 14.9471H26.7406Z" fill="black"/>
<path d="M26.6332 15.0178C26.6737 21.3552 21.4651 26.6271 15.0252 26.6391C8.70097 26.6512 3.43508 21.5132 3.37893 15.1301C3.32141 8.62283 8.47938 3.46404 14.856 3.36351C21.2298 3.26299 26.7003 8.46259 26.6329 15.0175L26.6332 15.0178ZM19.3387 20.5222C19.5502 20.279 19.7343 20.0651 19.9203 19.8531C20.4379 19.2633 20.9674 18.6832 21.3887 18.0162C22.1512 16.8086 22.4545 15.5097 22.1102 14.1059C21.9562 13.4784 21.73 12.8684 21.5352 12.251C21.387 11.7815 21.2219 11.3167 21.0907 10.8426C20.9543 10.3493 21.1156 9.94443 21.5508 9.67491C22.1011 9.33416 22.6632 9.01287 23.2209 8.68418C23.2466 8.66884 23.2795 8.66555 23.309 8.65652C23.3006 8.6924 23.2855 8.70911 23.268 8.7228C22.7837 9.10326 22.3011 9.48564 21.8141 9.86226C21.4632 10.1334 21.352 10.478 21.5026 10.8913C21.7837 11.6621 22.0765 12.4285 22.3649 13.1965C22.398 13.2845 22.4629 13.325 22.5462 13.273C22.6793 13.1897 22.8286 13.1146 22.928 12.9991C23.2115 12.6701 23.3411 12.2606 23.4493 11.8497C23.735 10.764 23.8048 9.65491 23.7829 8.53709C23.7777 8.27441 23.7772 8.28208 23.5068 8.30619C23.0617 8.3459 22.6161 8.40096 22.1704 8.4026C21.2808 8.40589 20.4097 8.23278 19.542 8.05748C18.4368 7.83424 17.3313 7.61813 16.2033 7.5387C14.8995 7.44694 13.6026 7.49432 12.3141 7.71345C11.5902 7.83671 10.8701 7.98215 10.1486 8.11938C9.38574 8.26455 8.62044 8.40616 7.84199 8.40425C7.35553 8.40288 6.86907 8.3407 6.38289 8.30098C6.29469 8.29386 6.2484 8.30016 6.24484 8.40644C6.21471 9.32567 6.24319 10.2411 6.41302 11.1477C6.51409 11.6868 6.63132 12.2217 6.89591 12.7095C7.02794 12.953 7.18735 13.1711 7.4651 13.2743C7.57 13.3135 7.61575 13.2804 7.65135 13.1886C7.71737 13.0185 7.79132 12.8517 7.85487 12.6805C8.08002 12.0735 8.30846 11.4679 8.52293 10.8571C8.65824 10.4714 8.57086 10.1422 8.23259 9.88746C7.98114 9.69819 7.7401 9.49522 7.49358 9.29993C7.23008 9.09093 6.96521 8.88359 6.70089 8.67542C6.75047 8.66227 6.79073 8.66829 6.82333 8.68747C7.36813 9.01068 7.91841 9.3254 8.45336 9.66395C8.7385 9.84446 8.97187 10.0997 8.95981 10.461C8.9505 10.7344 8.89243 11.0138 8.80999 11.2759C8.57443 12.0239 8.3112 12.7629 8.06715 13.5083C7.87596 14.0922 7.74667 14.6891 7.76777 15.3087C7.80803 16.4843 8.21341 17.532 8.93379 18.4496C9.45751 19.1165 10.0231 19.7506 10.5715 20.3984C10.6049 20.4379 10.6498 20.4674 10.6994 20.5102C10.7632 20.3938 10.8169 20.2938 10.8722 20.1949C11.0829 19.8183 11.1437 19.4334 10.9363 19.0341C10.8818 18.9289 10.8347 18.8182 10.7687 18.7207C10.5638 18.4189 10.3535 18.1203 10.1415 17.8234C9.72511 17.2403 9.49202 16.6127 9.6465 15.8833C9.72758 15.4996 9.90206 15.1638 10.1412 14.8573C10.1354 14.9033 10.1204 14.9452 10.1039 14.9865C9.91466 15.4634 9.86125 15.9584 10.0053 16.4489C10.2283 17.2068 10.8328 17.6451 11.654 17.67C11.9221 17.6782 12.1933 17.6615 12.4595 17.6284C13.0882 17.5503 13.7149 17.4553 14.3424 17.3665C14.3547 17.3649 14.3659 17.3556 14.381 17.3482C14.3216 17.2928 14.2739 17.2512 14.2295 17.2066C13.9874 16.9631 13.8146 16.6749 13.6943 16.3555C13.6313 16.1882 13.5365 16.1016 13.3434 16.0674C12.7406 15.9603 12.3763 15.696 12.2968 14.9602C12.2571 14.5916 12.3418 14.2442 12.4538 13.8997C12.4842 13.8065 12.5176 13.7145 12.5647 13.5789C12.3878 13.606 12.2511 13.6266 12.1144 13.6479C11.8011 13.6967 11.5595 13.8956 11.2921 14.0407C10.9714 14.2152 10.6375 14.3182 10.2677 14.2352C10.0387 14.1837 9.88782 14.0361 9.76894 13.8446C9.8177 13.849 9.85769 13.8679 9.89905 13.8832C10.1174 13.9649 10.3373 14.0643 10.5753 14.0084C10.918 13.9279 11.1815 13.6953 11.4759 13.5115C11.3645 13.4855 11.2568 13.4809 11.15 13.4691C10.6055 13.4088 10.1497 13.1954 9.91822 12.669C9.8281 12.4641 9.80153 12.2299 9.75689 12.0067C9.72374 11.8404 9.63609 11.7377 9.4723 11.6939C9.34219 11.6588 9.21428 11.6161 9.06472 11.5704C9.10006 11.5413 9.1143 11.5232 9.13292 11.5153C9.50873 11.3556 9.89768 11.266 10.3072 11.3312C11.2494 11.4813 11.9194 12.0124 12.3826 12.829C12.402 12.8632 12.4321 12.8914 12.4571 12.9224C12.5069 12.6901 12.5231 12.4693 12.4059 12.2732C12.2749 12.0546 12.1243 11.8478 11.9829 11.6353C11.9295 11.555 11.8789 11.4726 11.8271 11.3912C12.081 11.5273 12.3135 11.675 12.5384 11.8333C12.7154 11.9579 12.834 12.1297 12.8877 12.3417C12.9129 12.4414 12.9307 12.543 12.9518 12.6438C12.9641 12.649 12.9767 12.6542 12.989 12.6594C13.0772 12.5101 13.1775 12.3661 13.2506 12.2097C13.3256 12.0489 13.3741 11.8758 13.4336 11.7103C13.4366 11.7183 13.4473 11.7369 13.4511 11.7569C13.5009 12.0207 13.5133 12.2872 13.4221 12.5414C13.3207 12.824 13.2002 13.1001 13.0775 13.3743C12.8929 13.7868 12.7496 14.2054 12.8014 14.6677C12.8332 14.9518 12.9167 15.0356 13.1964 15.0473C13.2415 15.0493 13.2873 15.0416 13.3328 15.043C13.6089 15.0506 13.8444 15.1303 13.971 15.404C14.0208 15.5116 14.0783 15.6157 14.1246 15.725C14.2358 15.9874 14.4152 16.1548 14.7141 16.1539C14.9507 16.1534 15.1877 16.1471 15.4241 16.1378C15.6106 16.1304 15.7363 16.0263 15.8209 15.8663C15.9171 15.685 16.0102 15.5023 16.1099 15.3229C16.1874 15.1835 16.3055 15.0945 16.4682 15.0786C16.604 15.0654 16.741 15.0613 16.8769 15.0462C17.0875 15.023 17.2083 14.9044 17.2294 14.6935C17.2568 14.4185 17.2491 14.1426 17.1461 13.8832C16.9744 13.4513 16.7835 13.027 16.6123 12.5945C16.4959 12.3003 16.4901 11.9982 16.6128 11.695C16.6345 12.0746 16.8174 12.3718 17.0776 12.6731C17.0913 12.5953 17.1001 12.5529 17.1061 12.5099C17.1415 12.2532 17.2247 12.0196 17.4458 11.8634C17.6819 11.6966 17.924 11.538 18.1779 11.366C18.1678 11.4041 18.1672 11.4326 18.1538 11.4526C18.0475 11.6112 17.9322 11.7643 17.8328 11.927C17.729 12.0968 17.6263 12.2696 17.5479 12.4518C17.4833 12.6022 17.5244 12.7638 17.5608 12.9204C17.5978 12.8969 17.6181 12.8731 17.6315 12.8459C17.8835 12.3403 18.2678 11.9549 18.7466 11.6706C19.3141 11.3334 19.9241 11.2088 20.5738 11.4C20.6971 11.4361 20.8137 11.4948 20.971 11.5578C20.7836 11.6279 20.6401 11.6824 20.496 11.735C20.3421 11.7911 20.2566 11.8845 20.2344 12.0617C20.1922 12.3973 20.1202 12.7309 19.8877 12.9974C19.5957 13.3319 19.2138 13.4672 18.7797 13.4789C18.7005 13.4811 18.6214 13.4872 18.5422 13.4915C18.54 13.503 18.5381 13.5148 18.5359 13.5263C18.7438 13.6523 18.9495 13.7824 19.1602 13.9035C19.4335 14.0607 19.7154 14.0615 20 13.9303C20.0799 13.8934 20.1621 13.861 20.2435 13.8265C20.126 14.0503 19.9463 14.1834 19.7091 14.2347C19.3275 14.3168 18.9909 14.1947 18.6652 14.009C18.4601 13.892 18.2538 13.7707 18.0347 13.6863C17.8673 13.6219 17.6786 13.6123 17.4674 13.5723C17.511 13.7129 17.5474 13.8063 17.5682 13.903C17.6279 14.1785 17.715 14.4535 17.7295 14.7321C17.7504 15.1325 17.655 15.5157 17.3381 15.8006C17.1289 15.9885 16.8643 16.0493 16.5942 16.0794C16.4926 16.0909 16.4208 16.1205 16.3879 16.223C16.3685 16.2835 16.3397 16.3407 16.3178 16.4005C16.2113 16.6919 16.0568 16.9518 15.8209 17.1586C15.7514 17.2197 15.681 17.2802 15.5925 17.3569C15.6407 17.3605 15.6621 17.3613 15.6832 17.3638C16.045 17.4068 16.4088 17.4383 16.7684 17.4958C17.3269 17.5848 17.8805 17.7064 18.4527 17.6659C19.1911 17.6136 19.8134 17.1507 20.0194 16.455C20.1621 15.9732 20.1334 15.4892 19.9296 15.0227C19.9077 14.9726 19.8882 14.9213 19.8677 14.8704C19.9044 14.8715 19.9194 14.8816 19.9296 14.8956C20.2607 15.3538 20.4344 15.8625 20.4141 16.4314C20.3933 17.0148 20.1156 17.4923 19.7915 17.953C19.5634 18.2773 19.3316 18.6008 19.1262 18.9393C18.8923 19.3247 18.9046 19.7293 19.1141 20.1264C19.1813 20.2535 19.2563 20.376 19.3401 20.5219L19.3387 20.5222ZM18.4757 20.5069C18.4466 20.5786 18.4266 20.6189 18.4135 20.6611C18.1911 21.3771 18.038 22.1076 17.953 22.8529C17.9218 23.1263 17.7983 23.3553 17.6035 23.5478C17.3009 23.8469 16.9207 23.9861 16.5137 24.045C15.7527 24.1548 14.988 24.1786 14.22 24.12C13.7546 24.0844 13.2925 24.0463 12.8523 23.874C12.3837 23.6908 12.1188 23.3531 12.0569 22.8535C11.9703 22.1561 11.8635 21.4626 11.6315 20.795C11.6022 20.7109 11.5847 20.623 11.5592 20.5266C11.523 20.5452 11.4987 20.5507 11.485 20.5658C11.3404 20.7238 11.1913 20.8789 11.0577 21.0459C11.0243 21.0878 11.0245 21.1733 11.0371 21.2327C11.1073 21.562 11.202 21.8868 11.2574 22.2183C11.3204 22.5954 11.3313 22.9816 11.4003 23.3574C11.4863 23.8242 11.7496 24.18 12.1629 24.4251C12.5718 24.6678 13.0202 24.7883 13.4837 24.8448C14.3377 24.9483 15.1956 24.9469 16.0535 24.8916C16.6082 24.8557 17.1505 24.7678 17.6589 24.5284C17.9971 24.369 18.2765 24.1474 18.4584 23.8108C18.6419 23.4711 18.6641 23.0956 18.7175 22.7266C18.7748 22.33 18.7802 21.9181 18.898 21.5409C18.9977 21.221 18.9944 20.9923 18.7285 20.78C18.6389 20.7085 18.5704 20.611 18.4759 20.5072L18.4757 20.5069ZM13.6658 21.1484C13.6735 21.313 13.6721 21.4823 13.691 21.6494C13.7294 21.9915 13.9121 22.2311 14.2328 22.3601C14.6631 22.533 15.108 22.5417 15.5506 22.4366C16.1107 22.3034 16.3493 21.9843 16.349 21.4059C16.349 21.2144 16.3414 21.0221 16.3222 20.832C16.2803 20.4192 16.2291 20.0073 16.1806 19.595C16.1639 19.4521 16.1173 19.3198 15.9667 19.2738C15.8546 19.2395 15.7281 19.1998 15.6191 19.2209C15.3304 19.2762 15.3035 19.2244 15.2863 19.5537C15.269 19.8772 15.252 20.2009 15.2175 20.5228C15.206 20.6296 15.1501 20.7353 15.0984 20.8331C15.0472 20.9298 14.9565 20.9106 14.9127 20.8356C14.8571 20.7405 14.8108 20.6296 14.7995 20.5214C14.768 20.213 14.7543 19.9029 14.7371 19.5931C14.7193 19.2691 14.6708 19.2181 14.3443 19.2181C14.2728 19.2181 14.2019 19.2447 14.1301 19.2551C13.9422 19.2825 13.8573 19.3989 13.8378 19.5794C13.782 20.101 13.7239 20.6219 13.6661 21.1484H13.6658ZM13.6442 18.8475C13.7784 18.664 13.9061 18.4934 14.0296 18.3195C14.0926 18.2307 14.1501 18.2356 14.2128 18.3156C14.2972 18.4233 14.3848 18.5287 14.4648 18.6394C14.5692 18.7837 14.6056 18.7832 14.7061 18.632C14.7768 18.526 14.8538 18.4238 14.9286 18.3205C14.982 18.2469 15.0381 18.2444 15.0926 18.3189C15.1762 18.4329 15.26 18.5465 15.3408 18.6624C15.4158 18.7698 15.4695 18.7728 15.549 18.6659C15.6306 18.5561 15.7075 18.4433 15.79 18.3342C15.8798 18.2159 15.9143 18.2189 16.0004 18.3359C16.1233 18.5032 16.2499 18.6681 16.3822 18.8434C16.5742 18.6643 16.7509 18.4994 16.9516 18.3121C17.1891 19.0207 17.2795 19.718 17.3798 20.4381C17.4022 20.4001 17.4121 20.3858 17.4195 20.3705C17.6559 19.8887 17.8153 19.3808 17.9322 18.8585C18.0021 18.5468 17.9089 18.3605 17.6137 18.2384C17.216 18.074 16.7898 18.0264 16.3699 17.996C15.7519 17.9513 15.1301 17.95 14.51 17.9442C13.8688 17.9382 13.2325 18.0053 12.6121 18.1685C12.1648 18.2863 11.9706 18.4748 12.1125 18.9588C12.2303 19.3609 12.3661 19.7575 12.5012 20.1541C12.5283 20.2335 12.5872 20.3023 12.6313 20.3762C12.7417 19.6778 12.8384 18.9952 13.0687 18.3096C13.2769 18.5043 13.4612 18.6769 13.6436 18.8478L13.6442 18.8475ZM14.6031 22.8567C14.4922 23.009 14.3988 23.138 14.3046 23.2662C14.2435 23.3492 14.189 23.3583 14.129 23.2591C14.0466 23.1227 13.9573 22.9901 13.8669 22.8589C13.8154 22.7842 13.762 22.7647 13.7014 22.86C13.648 22.9444 13.5823 23.0211 13.519 23.0986C13.4034 23.2402 13.376 23.2482 13.2925 23.0803C13.0876 22.6688 12.9016 22.2484 12.7077 21.8315C12.685 21.783 12.6611 21.7348 12.6379 21.6866C12.6168 21.6904 12.5959 21.6943 12.5749 21.6981C12.5749 22.0013 12.5595 22.3054 12.5781 22.6075C12.6118 23.1531 12.8822 23.458 13.4127 23.5807C13.9863 23.7135 14.5708 23.73 15.1548 23.7187C15.6604 23.7091 16.168 23.6985 16.6632 23.5686C17.1121 23.4511 17.3877 23.1602 17.4263 22.6973C17.4518 22.39 17.4304 22.0788 17.4277 21.7693C17.4274 21.7392 17.4093 21.7091 17.3863 21.6389C17.3502 21.7236 17.3324 21.7685 17.3121 21.8126C17.1127 22.2462 16.9179 22.6823 16.7109 23.112C16.646 23.2471 16.6161 23.2394 16.5211 23.1222C16.4249 23.0038 16.3263 22.8874 16.2165 22.7554C16.0757 22.974 15.95 23.1693 15.8116 23.384C15.6939 23.2306 15.5963 23.0994 15.4942 22.9723C15.4054 22.8619 15.3863 22.8674 15.3104 22.9844C15.2233 23.1189 15.1293 23.249 15.0176 23.4109C14.8661 23.2084 14.7404 23.0403 14.6034 22.857L14.6031 22.8567ZM8.90421 19.3463C8.83382 19.2565 8.76835 19.1754 8.70563 19.0921C8.64756 19.0152 8.5936 19.0171 8.5106 19.068C7.74476 19.5367 6.9759 19.9999 6.20813 20.465C5.90163 20.6507 5.5954 20.8364 5.2752 21.0306C5.41188 21.2412 5.53925 21.4374 5.67702 21.6496C6.7628 20.8747 7.82556 20.1163 8.90421 19.3463ZM24.3354 21.6483C24.4395 21.4888 24.5329 21.345 24.6271 21.2012C24.7003 21.0895 24.6796 20.9985 24.5649 20.9282C24.5455 20.9164 24.5257 20.9049 24.5063 20.8931C23.555 20.3171 22.6032 19.7419 21.653 19.1639C21.3323 18.9689 21.4237 18.9607 21.1753 19.2447C21.1079 19.322 21.1238 19.3592 21.2021 19.4137C21.5914 19.6843 21.9776 19.9596 22.3635 20.2354C23.0127 20.6992 23.6607 21.1645 24.3354 21.648V21.6483ZM20.2522 20.3935C20.2424 20.4039 20.2062 20.4381 20.1742 20.4757C20.0589 20.6113 20.0579 20.7466 20.1712 20.8813C20.7349 21.5513 21.2991 22.221 21.8631 22.8907C22.0737 23.1408 22.2849 23.3906 22.5051 23.6516C22.653 23.5166 22.7936 23.3816 22.9415 23.255C23.0225 23.1857 23.0277 23.1413 22.9475 23.0605C22.378 22.4886 21.8184 21.9068 21.2473 21.3366C20.9282 21.018 20.5935 20.7156 20.2522 20.3932V20.3935ZM6.98904 23.1605C7.16133 23.3246 7.33526 23.4903 7.51084 23.6577C7.80995 23.2972 8.09563 22.9485 8.38625 22.6039C8.89216 22.0041 9.40218 21.4075 9.90672 20.8065C9.94232 20.7641 9.98149 20.6784 9.96232 20.6452C9.90315 20.543 9.8166 20.4565 9.73634 20.3582C8.81163 21.3012 7.90828 22.2229 6.98904 23.1602V23.1605ZM8.15233 18.3666C8.09563 18.2762 8.04332 18.2066 8.00579 18.1296C7.95676 18.0291 7.89787 18.0198 7.79762 18.0623C7.08519 18.3649 6.37083 18.6624 5.65648 18.9604C5.30341 19.1078 4.95062 19.2554 4.59591 19.3981C4.4921 19.44 4.46827 19.4945 4.51867 19.5959C4.58139 19.7219 4.63727 19.852 4.68849 19.9834C4.72574 20.0793 4.75834 20.1234 4.87475 20.0629C5.95997 19.4964 7.04876 18.9366 8.15233 18.3663V18.3666ZM6.24347 22.3588C7.25967 21.4908 8.25313 20.6422 9.25454 19.7868C9.21373 19.7268 9.17155 19.6737 9.13895 19.615C9.07896 19.5077 9.02172 19.4959 8.91462 19.5731C8.21232 20.079 7.50399 20.5765 6.7984 21.0783C6.46917 21.3125 6.14185 21.5497 5.79645 21.7978C5.95175 21.9928 6.0972 22.1755 6.24319 22.3591L6.24347 22.3588ZM25.256 20.1371C25.3404 19.9454 25.4107 19.7684 25.4951 19.5986C25.5477 19.4926 25.5181 19.4493 25.416 19.4069C24.8092 19.1557 24.2053 18.8988 23.6002 18.6443C23.1422 18.4518 22.6845 18.2581 22.2249 18.0696C22.1781 18.0505 22.0904 18.0412 22.068 18.0672C21.9907 18.157 21.934 18.2647 21.8721 18.3619C23.0094 18.9585 24.1226 19.5425 25.2563 20.1371H25.256ZM20.9792 19.4803C20.9299 19.543 20.8877 19.6065 20.8354 19.6611C20.7614 19.7383 20.7705 19.7865 20.8548 19.8577C21.6722 20.5502 22.4854 21.2473 23.2989 21.9444C23.4539 22.0772 23.6051 22.2144 23.7777 22.3667C23.9177 22.1857 24.05 22.0191 24.1743 21.8471C24.1864 21.8304 24.159 21.7636 24.1324 21.7439C23.9127 21.5814 23.6881 21.425 23.466 21.2659C22.6413 20.674 21.8165 20.0818 20.9795 19.4806L20.9792 19.4803ZM23.6558 22.5061C22.6429 21.6414 21.6393 20.7846 20.6258 19.9194C20.5522 20.0171 20.4845 20.107 20.4048 20.2124C21.3257 21.1473 22.2455 22.0813 23.1754 23.0257C23.3389 22.8491 23.4953 22.6798 23.6558 22.5061ZM6.36481 22.5012C6.52723 22.6779 6.68692 22.8515 6.8436 23.0219C7.779 22.072 8.69056 21.1465 9.61336 20.2094C9.53913 20.1179 9.46134 20.0221 9.38218 19.9246C8.36982 20.789 7.37882 21.6354 6.36508 22.5012H6.36481ZM19.9033 20.8643C19.6548 21.0555 19.6244 21.2103 19.7951 21.4428C20.4023 22.27 21.0126 23.095 21.622 23.9206C21.6883 24.0104 21.7576 24.0981 21.8343 24.1983C22.0176 24.0496 22.186 23.9129 22.3638 23.7686C21.5358 22.7913 20.7225 21.8312 19.903 20.8641L19.9033 20.8643ZM5.17385 20.8799C5.47022 20.7003 5.73893 20.537 6.0079 20.374C6.8069 19.8898 7.60534 19.4052 8.40488 18.9223C8.46623 18.8851 8.48623 18.8511 8.45035 18.7799C8.31777 18.5175 8.29778 18.5079 8.04113 18.6281C8.02469 18.6358 8.0088 18.6454 7.99264 18.6536C7.16818 19.0839 6.34372 19.514 5.51953 19.9443C5.30286 20.0574 5.08675 20.1719 4.85475 20.2941C4.96459 20.4957 5.06566 20.6814 5.17358 20.8794L5.17385 20.8799ZM3.59587 14.0076C3.63285 14.0207 3.64517 14.0281 3.65777 14.029C4.79476 14.1092 5.93203 14.1865 7.06875 14.2722C7.21009 14.2829 7.27391 14.2396 7.28925 14.1059C7.29171 14.0835 7.29582 14.0596 7.30568 14.0402C7.36731 13.9194 7.32623 13.8715 7.19612 13.8523C6.70007 13.7783 6.20567 13.6948 5.71017 13.617C5.08401 13.5187 4.45786 13.4209 3.83088 13.3286C3.78678 13.322 3.69941 13.3554 3.69393 13.3825C3.65229 13.5904 3.62627 13.8011 3.59587 14.0079V14.0076ZM26.4152 14.0196C26.3965 13.8663 26.3848 13.7348 26.3642 13.6047C26.3125 13.2779 26.3738 13.2968 26.0248 13.3499C24.9467 13.514 23.8708 13.6904 22.7936 13.8594C22.6908 13.8756 22.6566 13.9177 22.6991 14.0153C22.7136 14.0487 22.7292 14.0829 22.7358 14.1182C22.759 14.2442 22.8245 14.2807 22.9563 14.2705C23.8933 14.1977 24.8312 14.1341 25.7687 14.0673C25.9769 14.0525 26.1851 14.0366 26.4152 14.0194V14.0196ZM5.34587 15.0934C5.34587 15.0917 5.34587 15.0903 5.34587 15.0887C4.80298 15.0887 4.26037 15.0912 3.71748 15.0868C3.61039 15.086 3.56985 15.1194 3.57752 15.227C3.58655 15.3544 3.58327 15.4823 3.58738 15.61C3.59368 15.8135 3.5945 15.814 3.79199 15.7992C4.80161 15.7244 5.81124 15.6497 6.82086 15.5743C7.11559 15.5524 7.10902 15.5513 7.12216 15.2539C7.12792 15.124 7.08519 15.0898 6.96056 15.0912C6.42233 15.0966 5.8841 15.0936 5.34587 15.0936V15.0934ZM26.4097 15.8137C26.4212 15.6234 26.4335 15.456 26.4406 15.2887C26.4489 15.0961 26.4469 15.0956 26.2495 15.0956C25.242 15.0956 24.2346 15.0956 23.2271 15.0961C22.8579 15.0961 22.9031 15.0282 22.9015 15.4303C22.9012 15.5294 22.9343 15.5606 23.0351 15.5675C23.7583 15.6152 24.4808 15.6697 25.2037 15.7228C25.5984 15.7518 25.9931 15.7825 26.4097 15.814V15.8137ZM25.1505 20.2965C24.0053 19.6945 22.8856 19.1056 21.7508 18.509C21.6719 18.624 21.5944 18.7369 21.5125 18.8566C22.6309 19.5356 23.7284 20.202 24.8424 20.8783C24.9487 20.6778 25.0481 20.4905 25.1508 20.2968L25.1505 20.2965ZM4.38609 19.3009C5.55075 18.8095 6.68145 18.3326 7.82008 17.8522C7.77105 17.7596 7.72312 17.6865 7.69217 17.6065C7.6519 17.5021 7.59438 17.4865 7.49112 17.5218C7.07313 17.6651 6.65186 17.7993 6.23251 17.9393C5.54609 18.1683 4.86023 18.3992 4.14752 18.638C4.22586 18.856 4.30611 19.0785 4.38582 19.3006L4.38609 19.3009ZM7.52371 17.3167C7.49632 17.2468 7.47961 17.2003 7.46017 17.1551C7.34512 16.8883 7.39881 16.9044 7.10765 16.9757C6.07529 17.2279 5.04402 17.4849 4.01111 17.7358C3.92648 17.7563 3.90511 17.7919 3.92456 17.8672C3.96592 18.0261 4.0133 18.1833 4.04754 18.3438C4.06836 18.4419 4.10534 18.4553 4.19792 18.4244C5.01499 18.151 5.8337 17.8834 6.65131 17.6125C6.93618 17.5183 7.21968 17.4199 7.52344 17.3167H7.52371ZM8.1789 24.2011C8.36461 23.9502 8.53443 23.7201 8.70508 23.49C9.24276 22.765 9.78099 22.0402 10.3173 21.3141C10.342 21.2807 10.3735 21.2204 10.3598 21.1963C10.2937 21.0783 10.2132 20.9684 10.1349 20.8512C9.29809 21.8411 8.48677 22.8011 7.66532 23.7727C7.84063 23.919 8.00387 24.0551 8.1789 24.2011ZM7.19393 14.4606C7.13723 14.4554 7.11011 14.4524 7.08299 14.4508C6.29962 14.4006 5.51596 14.3524 4.73286 14.2993C4.40061 14.2768 4.06918 14.2407 3.73693 14.2185C3.69174 14.2155 3.60408 14.256 3.60299 14.2799C3.59231 14.4867 3.59669 14.6943 3.59669 14.9148C3.64709 14.9148 3.69667 14.9148 3.74597 14.9148C4.04261 14.9131 4.33953 14.9096 4.63617 14.9104C5.42147 14.9129 6.20649 14.9181 6.99178 14.9186C7.03889 14.9186 7.12107 14.8975 7.12764 14.8715C7.16024 14.7411 7.17284 14.6058 7.19448 14.4604L7.19393 14.4606ZM22.4925 17.3216C23.6446 17.707 24.7742 18.0847 25.9257 18.4698C25.9854 18.2452 26.044 18.036 26.0931 17.8245C26.0977 17.8045 26.0462 17.7538 26.0136 17.7456C25.3858 17.5892 24.7569 17.438 24.1289 17.2841C23.6821 17.1745 23.2356 17.0639 22.79 16.9499C22.6999 16.9269 22.6421 16.9401 22.6095 17.0343C22.5785 17.1233 22.5388 17.2093 22.4928 17.3216H22.4925ZM3.71831 16.8957C3.75802 17.1047 3.79582 17.3186 3.84321 17.5303C3.84732 17.5492 3.91716 17.5711 3.94976 17.5635C4.78709 17.361 5.62361 17.1551 6.45985 16.9491C6.73321 16.8817 7.0063 16.8127 7.29117 16.7412C7.27446 16.6631 7.26021 16.5927 7.24433 16.5229C7.19283 16.2966 7.19338 16.301 6.95837 16.3416C5.8893 16.5259 4.81996 16.7078 3.71803 16.896L3.71831 16.8957ZM25.6321 19.302C25.6997 19.1039 25.7603 18.9149 25.8293 18.7289C25.86 18.6462 25.8337 18.6202 25.7553 18.595C25.2609 18.4375 24.7673 18.2762 24.2748 18.1124C23.6873 17.9171 23.1012 17.7171 22.5131 17.5235C22.4706 17.5095 22.3906 17.5128 22.3723 17.5391C22.3063 17.6336 22.2592 17.741 22.1989 17.8552C23.3455 18.3381 24.4732 18.8133 25.6323 19.3017L25.6321 19.302ZM22.8231 14.4593C22.8404 14.5762 22.8648 14.6746 22.8672 14.7737C22.8702 14.8956 22.9256 14.9238 23.0387 14.923C24.1291 14.915 25.2196 14.9118 26.31 14.9066C26.3489 14.9066 26.3878 14.9 26.4327 14.8959C26.4327 14.7195 26.4357 14.556 26.4319 14.3924C26.4278 14.2119 26.4245 14.2119 26.2407 14.2256C25.3943 14.2881 24.5482 14.3513 23.7018 14.4113C23.4161 14.4316 23.1296 14.4428 22.8231 14.4595V14.4593ZM22.7286 16.7442C23.8749 17.028 25.0084 17.3087 26.1574 17.593C26.1999 17.3742 26.2377 17.1737 26.2782 16.9737C26.2949 16.8913 26.2549 16.8768 26.1832 16.8666C25.8583 16.8204 25.534 16.7708 25.2108 16.7157C24.4518 16.5862 23.6936 16.4514 22.9343 16.3238C22.8965 16.3175 22.8237 16.3487 22.8141 16.3777C22.7763 16.493 22.7571 16.6144 22.7289 16.7442H22.7286ZM15.1052 5.2417C15.1028 5.2417 15.1 5.2417 15.0976 5.2417C15.0976 5.7068 15.0973 6.17189 15.0976 6.63726C15.0977 6.83174 15.1923 6.93592 15.3813 6.94979C15.3994 6.95116 15.418 6.95171 15.4358 6.95472C15.5372 6.9728 15.567 6.9298 15.5739 6.829C15.6183 6.18312 15.6714 5.5378 15.718 4.89219C15.7456 4.51037 15.7637 4.12772 15.7916 3.74561C15.8004 3.62509 15.756 3.58127 15.6374 3.5862C15.5101 3.5914 15.3816 3.59031 15.2548 3.5799C15.1422 3.57059 15.1025 3.60784 15.1033 3.72315C15.108 4.22934 15.1052 4.73552 15.1052 5.2417ZM19.5362 21.4324C19.5127 21.4825 19.505 21.4941 19.5014 21.5069C19.4256 21.7882 19.413 22.0386 19.594 22.3155C20.1043 23.0961 20.5749 23.9025 21.0712 24.7155C21.272 24.5802 21.4728 24.4449 21.6837 24.3027C20.9611 23.3369 20.2561 22.3947 19.5362 21.4324ZM14.2252 3.57716C14.2252 3.72973 14.218 3.84313 14.2262 3.95515C14.2917 4.8459 14.3588 5.73638 14.4281 6.62686C14.4539 6.95691 14.4574 6.9539 14.7858 6.94377C14.882 6.94075 14.9179 6.91665 14.9173 6.81065C14.9121 5.95386 14.9143 5.09708 14.9138 4.24029C14.9138 4.05349 14.9151 3.86641 14.9066 3.67988C14.905 3.64454 14.8598 3.58291 14.8327 3.58182C14.6338 3.57333 14.4347 3.57716 14.2257 3.57716H14.2252ZM3.59779 15.9948C3.62764 16.2046 3.65859 16.4013 3.68297 16.5988C3.69393 16.687 3.72488 16.7083 3.81691 16.6919C4.28776 16.6073 4.76025 16.5325 5.23165 16.4519C5.83315 16.349 6.43465 16.2441 7.03588 16.1386C7.07012 16.1326 7.1312 16.1161 7.1312 16.1046C7.1312 16.0011 7.13367 15.8932 7.10381 15.7965C7.0945 15.7661 6.98767 15.7496 6.92714 15.7538C6.47273 15.7847 6.01859 15.8241 5.56417 15.8573C4.91912 15.9041 4.27379 15.9477 3.59806 15.9948H3.59779ZM14.0058 6.98732C14.0331 6.9854 14.0605 6.98403 14.0877 6.98129C14.2621 6.96458 14.2627 6.96431 14.2501 6.78627C14.1767 5.75747 14.1019 4.72894 14.031 3.70015C14.0247 3.6103 13.9882 3.5914 13.9099 3.60455C13.7973 3.62345 13.6842 3.63797 13.5716 3.6555C13.3207 3.69467 13.3177 3.69521 13.3569 3.95132C13.5034 4.90726 13.6524 5.86293 13.7995 6.81887C13.8277 7.00211 13.8258 7.00238 14.0058 6.98732ZM26.3119 16.7089C26.3453 16.484 26.3796 16.2736 26.4028 16.0622C26.4053 16.0405 26.3423 15.9918 26.307 15.989C25.2253 15.9071 24.1431 15.8318 23.0617 15.748C22.9149 15.7368 22.8971 15.8105 22.8859 15.9214C22.8749 16.0296 22.8511 16.1194 23.0121 16.146C23.9429 16.2994 24.872 16.4629 25.8016 16.6226C25.9665 16.6511 26.1317 16.6785 26.3122 16.7089H26.3119ZM13.2783 7.05415C13.3807 7.03881 13.4437 7.02347 13.507 7.02156C13.6028 7.01854 13.6338 6.9802 13.6168 6.88378C13.5886 6.72245 13.5733 6.55865 13.5486 6.3965C13.4171 5.53177 13.2832 4.66759 13.1544 3.80231C13.1429 3.72534 13.112 3.71055 13.0473 3.72398C12.9402 3.74616 12.8332 3.76807 12.7261 3.79081C12.4149 3.85682 12.416 3.85655 12.4935 4.16825C12.6762 4.90205 12.8575 5.63613 13.0397 6.3702C13.0857 6.55591 13.1268 6.74299 13.1813 6.92596C13.1972 6.97938 13.252 7.02101 13.278 7.05388L13.2783 7.05415ZM12.2316 3.90284C12.092 3.93872 11.9597 3.96912 11.8296 4.00692C11.5425 4.09019 11.5477 4.09019 11.6427 4.37259C11.855 5.00313 12.0616 5.63558 12.2716 6.26667C12.3593 6.53017 12.4483 6.79312 12.5417 7.0547C12.5551 7.09222 12.6003 7.14838 12.6264 7.14591C12.7669 7.13304 12.906 7.10428 13.0257 7.08428C12.7586 6.01412 12.4984 4.9719 12.2316 3.90256V3.90284ZM10.4545 21.4672C10.0672 21.9934 9.68759 22.5113 9.30494 23.0274C9.01405 23.4196 8.71768 23.8078 8.42843 24.2011C8.40186 24.237 8.38789 24.3301 8.40707 24.3441C8.58045 24.4725 8.7626 24.5895 8.94393 24.7111C8.97214 24.6703 8.98584 24.6522 8.99761 24.6328C9.50215 23.8028 10.0056 22.9723 10.5115 22.1429C10.612 21.9783 10.5896 21.6305 10.4543 21.4672H10.4545ZM15.7796 6.69314C15.7623 6.98622 15.7092 6.96458 16.0365 6.99061C16.0502 6.9917 16.0639 6.99225 16.0773 6.99499C16.1715 7.01361 16.2 6.97143 16.2129 6.87967C16.2885 6.34281 16.3712 5.80705 16.4526 5.27101C16.5252 4.79331 16.5967 4.31562 16.6739 3.83902C16.6906 3.73521 16.6629 3.68837 16.5561 3.67659C16.4112 3.66043 16.2674 3.63495 16.1239 3.61003C16.0338 3.59442 15.9954 3.6166 15.9886 3.71904C15.922 4.71059 15.8503 5.70187 15.7799 6.69342L15.7796 6.69314ZM16.8993 3.72288C16.8862 3.75137 16.8774 3.76287 16.8755 3.7752C16.7859 4.36081 16.6966 4.94643 16.6076 5.53204C16.5413 5.9692 16.4748 6.40636 16.4109 6.84379C16.4041 6.89172 16.4046 6.98074 16.4203 6.98513C16.523 7.01416 16.6306 7.03635 16.7366 7.03553C16.7687 7.03553 16.8171 6.96048 16.8295 6.91254C16.9694 6.3702 17.1042 5.8265 17.2398 5.28279C17.3466 4.85412 17.454 4.42573 17.5562 3.99597C17.5666 3.95241 17.5518 3.86339 17.5326 3.85874C17.3225 3.80587 17.1091 3.76561 16.8988 3.72261L16.8993 3.72288ZM16.9894 7.09031C17.0979 7.10483 17.1982 7.10756 17.2921 7.13331C17.4173 7.16755 17.4608 7.11386 17.4953 7.00375C17.5997 6.66876 17.7128 6.33679 17.8235 6.00371C18.0218 5.40742 18.2193 4.81057 18.4209 4.21537C18.4485 4.13347 18.4412 4.0828 18.3538 4.05951C18.1955 4.01706 18.036 3.97816 17.8785 3.93269C17.8027 3.91078 17.7725 3.93543 17.7545 4.00939C17.5794 4.72648 17.4025 5.44302 17.225 6.15929C17.1497 6.46333 17.0716 6.76655 16.9897 7.09003L16.9894 7.09031ZM12.3793 7.19248C12.0391 6.16806 11.7063 5.16638 11.3688 4.15045C11.1897 4.21509 11.0125 4.28384 10.832 4.34246C10.7293 4.37588 10.7246 4.42408 10.7635 4.51584C10.9788 5.0234 11.187 5.53396 11.3995 6.04261C11.5578 6.42115 11.717 6.79914 11.8824 7.1744C11.9005 7.21576 11.966 7.26588 12.0051 7.2626C12.1303 7.25191 12.2536 7.21795 12.379 7.19275L12.3793 7.19248ZM17.6386 7.19713C17.7364 7.21521 17.8284 7.22206 17.9131 7.25027C18.056 7.29793 18.1157 7.23164 18.1661 7.10948C18.4603 6.39732 18.7594 5.68735 19.0569 4.97656C19.1355 4.78893 19.2147 4.60185 19.3029 4.39204C19.0733 4.31096 18.8594 4.23536 18.6521 4.16223C18.3086 5.19021 17.9772 6.18312 17.6383 7.19713H17.6386ZM23.0269 13.5874C23.0338 13.5981 23.0406 13.6088 23.0475 13.6195C24.1253 13.4518 25.2031 13.2842 26.299 13.1138C26.2599 12.9224 26.2193 12.7413 26.1867 12.5589C26.1684 12.4553 26.1273 12.4274 26.0194 12.4532C25.1867 12.652 24.3521 12.844 23.5189 13.0407C23.477 13.0506 23.4298 13.0752 23.4033 13.1078C23.2745 13.2647 23.1518 13.4269 23.0269 13.5874ZM7.01726 13.6293C6.92495 13.5047 6.84524 13.4157 6.78717 13.3143C6.69158 13.1475 6.55463 13.0615 6.36755 13.0215C5.95805 12.9336 5.55157 12.8306 5.144 12.7334C4.75861 12.6413 4.37377 12.5471 3.98728 12.4597C3.94647 12.4504 3.86211 12.4718 3.85635 12.4942C3.80212 12.6991 3.76103 12.9076 3.71666 13.1111C4.8238 13.2847 5.90628 13.4548 7.01726 13.6293ZM11.7353 7.31628C11.6532 7.12811 11.5803 6.96678 11.5121 6.80353C11.2045 6.06836 10.8963 5.33346 10.5934 4.59665C10.5499 4.49064 10.5058 4.46408 10.4025 4.52406C10.3047 4.58076 10.1968 4.6202 10.0935 4.66814C9.9111 4.75277 9.90836 4.75442 9.99765 4.93218C10.4014 5.73748 10.806 6.54222 11.2144 7.34532C11.2322 7.38065 11.2921 7.42256 11.325 7.41708C11.4576 7.39462 11.5871 7.35463 11.7353 7.31656V7.31628ZM20.095 4.78071C20.0512 4.75086 20.0101 4.71552 19.963 4.69279C19.8441 4.63499 19.7211 4.58624 19.6028 4.52735C19.508 4.48024 19.4639 4.50078 19.422 4.60267C19.0917 5.40687 18.7548 6.2086 18.4195 7.01087C18.3784 7.10921 18.3346 7.20644 18.2847 7.32121C18.4146 7.34997 18.5266 7.3675 18.6337 7.40119C18.7216 7.42886 18.7668 7.40503 18.8068 7.32587C19.2325 6.48114 19.6609 5.6375 20.0947 4.78071H20.095ZM11.0547 7.4809C11.0429 7.43708 11.0415 7.42311 11.0355 7.4116C10.6181 6.58741 10.1998 5.7635 9.78318 4.93876C9.75086 4.87494 9.71306 4.86453 9.65253 4.89822C9.50544 4.98039 9.3578 5.0612 9.20907 5.13981C9.14498 5.17377 9.14087 5.21349 9.17675 5.2721C9.6287 6.01494 10.0787 6.75888 10.5331 7.50035C10.5542 7.53486 10.6131 7.57239 10.6487 7.56746C10.7821 7.54856 10.9133 7.51267 11.0549 7.48117L11.0547 7.4809ZM20.8981 5.18062C20.7031 5.07982 20.5242 4.98313 20.3402 4.8974C20.3174 4.88672 20.2492 4.92397 20.2333 4.95492C19.9197 5.56683 19.611 6.18148 19.3004 6.79504C19.1897 7.01334 19.0766 7.23027 18.9512 7.47351C19.0903 7.50446 19.2084 7.52884 19.3251 7.5576C19.4154 7.57978 19.4675 7.54938 19.5069 7.46392C19.5486 7.37325 19.6069 7.29026 19.6592 7.2048C20.0654 6.54057 20.4719 5.87662 20.8978 5.18035L20.8981 5.18062ZM8.36653 5.68735C8.42295 5.77582 8.46185 5.84348 8.50677 5.9062C8.93544 6.5025 9.36438 7.09825 9.7966 7.69181C9.81906 7.72276 9.87549 7.75399 9.90891 7.74769C10.0678 7.71811 10.2242 7.67538 10.3943 7.63429C9.90808 6.8468 9.4334 6.0774 8.95105 5.29593C8.74589 5.43344 8.56155 5.5567 8.36653 5.68735ZM21.0751 5.2984C20.5842 6.0941 20.1128 6.85913 19.6307 7.64086C19.7847 7.67538 19.9268 7.70167 20.0657 7.74029C20.1416 7.76138 20.1827 7.74139 20.2237 7.67811C20.3007 7.55979 20.3848 7.44612 20.4681 7.3319C20.8587 6.79449 21.2501 6.25763 21.6626 5.69118C21.4654 5.55916 21.2728 5.43015 21.0753 5.29813L21.0751 5.2984ZM19.4037 22.3692C19.3905 22.3711 19.3771 22.373 19.3639 22.3749C19.3357 22.5311 19.3103 22.6877 19.2779 22.8428C19.244 23.0055 19.2601 23.1537 19.3486 23.3007C19.4448 23.4602 19.5214 23.6314 19.6064 23.7976C19.8351 24.246 20.0638 24.6947 20.2985 25.1548C20.5053 25.0401 20.7072 24.9283 20.9154 24.8127C20.407 23.991 19.9052 23.18 19.4037 22.3692ZM10.6471 22.3933L10.6076 22.3862C10.1135 23.1912 9.61939 23.9965 9.11485 24.8182C9.3137 24.9275 9.5142 25.0376 9.71744 25.1494C9.98752 24.6177 10.2469 24.1058 10.5077 23.5947C10.5822 23.4487 10.6849 23.312 10.7312 23.158C10.8101 22.8956 10.6953 22.6461 10.6471 22.3933ZM26.1152 12.2395C26.0626 12.0472 26.0114 11.8692 25.966 11.6898C25.9419 11.5947 25.9016 11.5695 25.8008 11.6013C25.1714 11.7999 24.5397 11.9911 23.9092 12.1858C23.8711 12.1976 23.8166 12.2113 23.8035 12.2395C23.715 12.4299 23.6355 12.6244 23.5389 12.8509C24.4187 12.6422 25.2576 12.443 26.115 12.2395H26.1152ZM3.90484 12.2425C4.76874 12.4449 5.60855 12.6419 6.48012 12.8459C6.39138 12.6353 6.32399 12.4622 6.24374 12.2951C6.22374 12.2538 6.16622 12.2195 6.11856 12.2039C5.88081 12.125 5.64059 12.0535 5.40147 11.9787C5.00129 11.8538 4.60166 11.727 4.20038 11.6057C4.16368 11.5947 4.08507 11.6092 4.07877 11.629C4.01467 11.8308 3.96154 12.036 3.90456 12.2425H3.90484ZM7.67108 6.2275C7.70942 6.28255 7.73435 6.32556 7.76612 6.36308C8.18027 6.85365 8.5947 7.34367 9.01104 7.83233C9.03541 7.86109 9.07869 7.89697 9.10909 7.89341C9.28083 7.87314 9.45121 7.84219 9.65609 7.80904C9.15182 7.12181 8.67714 6.47456 8.19424 5.81636C8.01702 5.95551 7.8472 6.0889 7.67135 6.22722L7.67108 6.2275ZM22.3553 6.23352C22.1838 6.09383 22.0135 5.95523 21.8368 5.81116C21.3446 6.48415 20.8691 7.13441 20.3697 7.81699C20.5653 7.84794 20.7335 7.87779 20.9028 7.89834C20.9293 7.90162 20.9677 7.86766 20.9896 7.84164C21.4388 7.31464 21.8864 6.786 22.3553 6.23325V6.23352ZM25.8654 11.389C25.8098 11.2293 25.7627 11.0831 25.7082 10.9395C25.626 10.7232 25.6225 10.7199 25.4105 10.8045C24.9709 10.9795 24.5326 11.1584 24.0946 11.3384C24.0552 11.3545 24.0009 11.383 23.9914 11.4167C23.9396 11.5975 23.9001 11.7815 23.8456 12.0086C24.5414 11.7952 25.1913 11.5958 25.8654 11.3893V11.389ZM6.16732 11.9987C6.11802 11.7911 6.08597 11.6213 6.03393 11.4575C6.01804 11.4077 5.95394 11.3608 5.90081 11.3373C5.69702 11.2463 5.48857 11.1661 5.28232 11.0803C4.99335 10.9601 4.70492 10.8385 4.40006 10.7106C4.32145 10.9223 4.24366 11.1253 4.17491 11.3312C4.16888 11.3493 4.21791 11.4038 4.24996 11.414C4.75423 11.5728 5.25959 11.7273 5.76522 11.8818C5.88547 11.9185 6.00708 11.9522 6.16732 11.9987ZM6.97151 6.86296C7.31691 7.19768 7.653 7.50007 7.9595 7.83013C8.10659 7.98873 8.24601 8.06131 8.45637 8.01393C8.58511 7.98489 8.7185 7.9775 8.87025 7.95778C8.40488 7.41516 7.96416 6.90076 7.51002 6.37102C7.34266 6.52387 7.17311 6.6789 6.97151 6.86296ZM21.1498 7.97038C21.3827 7.99229 21.5848 8.01502 21.7878 8.02735C21.8256 8.02954 21.874 7.99804 21.9039 7.96846C22.2742 7.59841 22.6418 7.22562 23.0269 6.8364C22.8587 6.68328 22.687 6.52715 22.5207 6.37568C22.0603 6.91117 21.619 7.42475 21.1501 7.97038H21.1498ZM19.2163 23.4533C19.2051 23.4552 19.1936 23.4569 19.1823 23.4588C19.1689 23.5048 19.1558 23.5508 19.1424 23.5968C19.0928 23.7669 19.0528 23.9406 18.9901 24.1055C18.9545 24.1992 18.9429 24.2764 18.995 24.3635C19.0227 24.4101 19.0399 24.4629 19.0613 24.5133C19.2023 24.8478 19.3434 25.1825 19.4927 25.5361C19.7039 25.4397 19.9041 25.3485 20.129 25.2458C19.8184 24.6358 19.5176 24.0447 19.2166 23.4533H19.2163ZM10.8186 23.4651C10.8062 23.4656 10.7936 23.4662 10.7813 23.4667C10.7147 23.6149 10.6539 23.7656 10.5808 23.9105C10.3762 24.3172 10.1691 24.7229 9.95711 25.1258C9.90699 25.2208 9.91603 25.271 10.0201 25.3107C10.1519 25.3608 10.2814 25.4183 10.4069 25.4824C10.4923 25.526 10.5326 25.5131 10.5701 25.4213C10.7164 25.0634 10.8739 24.7095 11.0182 24.3506C11.044 24.2868 11.0445 24.2027 11.0286 24.1348C10.9974 24.0028 10.9454 23.8757 10.9037 23.7459C10.8739 23.6527 10.8465 23.5588 10.818 23.4651H10.8186ZM25.2582 9.90718C24.8928 10.0877 24.5537 10.2531 24.2173 10.4238C24.1678 10.449 24.1009 10.4936 24.0932 10.538C24.0585 10.7426 24.042 10.9502 24.0182 11.1644C24.5293 10.953 25.0237 10.7484 25.5381 10.5355C25.4447 10.3257 25.3521 10.1178 25.2582 9.90691V9.90718ZM4.47977 10.5385C4.99034 10.7464 5.48419 10.9478 5.99887 11.1576C5.97476 10.962 5.96435 10.7892 5.92792 10.6218C5.91313 10.5531 5.85616 10.4731 5.79535 10.4386C5.56609 10.3079 5.32752 10.194 5.09223 10.074C4.98842 10.0211 4.88406 9.96908 4.76107 9.90718C4.66384 10.1252 4.57427 10.326 4.4795 10.5385H4.47977ZM11.4077 13.207C11.5803 13.1713 11.7545 13.1423 11.9246 13.0979C12.0227 13.0725 12.0405 13.0018 11.9709 12.9224C11.9109 12.8542 11.8479 12.7884 11.7846 12.723C11.689 12.6241 11.5965 12.6309 11.505 12.7312C11.4313 12.812 11.3551 12.89 11.2798 12.9692C11.1902 13.0634 11.1451 13.0637 11.1122 12.9393C11.0555 12.7257 11.0284 12.5044 10.9799 12.2885C10.9681 12.2365 10.9306 12.1639 10.8887 12.1499C10.6772 12.0795 10.4184 12.1549 10.3296 12.2965C10.2458 12.4304 10.2937 12.6375 10.4543 12.8188C10.7071 13.1045 11.0391 13.1861 11.4077 13.2067V13.207ZM18.6597 13.1856C19.0728 13.1985 19.4007 13.047 19.6392 12.7084C19.7225 12.5901 19.7677 12.4597 19.6995 12.3233C19.6291 12.1831 19.4949 12.1365 19.3453 12.1299C19.3089 12.1283 19.2722 12.1297 19.2358 12.1316C19.0632 12.1412 19.0558 12.1636 19.0353 12.3365C19.0117 12.5348 18.9709 12.732 18.923 12.9262C18.8915 13.0536 18.812 13.0656 18.7315 12.97C18.6844 12.9141 18.64 12.8558 18.5885 12.8046C18.3628 12.5797 18.3587 12.5805 18.1451 12.8101C18.1201 12.8366 18.096 12.8643 18.0722 12.8917C17.961 13.0196 17.9758 13.0884 18.1453 13.1237C18.3138 13.159 18.4883 13.1661 18.66 13.1856H18.6597ZM7.88938 8.08131C7.89157 8.06679 7.89349 8.05227 7.89568 8.03776C7.54919 7.69838 7.20297 7.35901 6.85346 7.0169C6.7565 7.11249 6.65049 7.21137 6.55106 7.31656C6.38918 7.48775 6.3911 7.48939 6.5675 7.65155C6.59106 7.67318 6.61352 7.69565 6.6368 7.71756C7.0693 8.1276 6.90495 8.07391 7.52974 8.08103C7.64971 8.0824 7.76941 8.08103 7.88938 8.08103V8.08131ZM23.6432 7.49734C23.5043 7.34477 23.369 7.19165 23.2266 7.04539C23.2096 7.02786 23.1392 7.03224 23.1187 7.05223C22.8037 7.36202 22.4928 7.67565 22.1819 7.98928C22.1627 8.00872 22.1507 8.03529 22.1354 8.05857C22.4142 8.05857 22.6815 8.06296 22.9486 8.05474C23.0001 8.0531 23.0562 8.00927 23.0998 7.97229C23.2767 7.82219 23.4498 7.66716 23.6435 7.49734H23.6432ZM18.8252 24.4616C18.674 24.601 18.5378 24.7193 18.4124 24.8481C18.3834 24.8779 18.3743 24.9475 18.385 24.9919C18.4269 25.1639 18.4792 25.3337 18.5307 25.5032C18.5658 25.6188 18.606 25.7328 18.648 25.8588C18.8408 25.7884 19.0185 25.721 19.1982 25.6591C19.2922 25.6268 19.3138 25.5821 19.2686 25.4874C19.1823 25.3071 19.1081 25.1209 19.0292 24.9371C18.9616 24.7796 18.8942 24.6221 18.8254 24.4616H18.8252ZM11.3724 25.8621C11.4631 25.5597 11.5469 25.2866 11.6249 25.0119C11.6373 24.9686 11.6425 24.8987 11.6178 24.8735C11.4831 24.7355 11.3379 24.6076 11.1941 24.4739C11.0407 24.8324 10.889 25.1822 10.7435 25.5347C10.7325 25.5613 10.7567 25.6298 10.7802 25.6394C10.9725 25.718 11.1689 25.787 11.3721 25.8621H11.3724ZM24.1206 10.2578C24.4737 10.0795 24.8092 9.90992 25.1629 9.73133C25.0456 9.52097 24.9333 9.31937 24.8183 9.11312C24.5959 9.24241 24.4025 9.35252 24.2119 9.46756C24.1757 9.48947 24.1258 9.52891 24.1247 9.56178C24.1171 9.78693 24.1206 10.0124 24.1206 10.2578ZM4.86297 9.73626C5.22261 9.91732 5.56089 10.088 5.89451 10.2559C5.89451 10.0217 5.89807 9.7957 5.89067 9.57027C5.88958 9.53576 5.84466 9.49221 5.80932 9.47057C5.6384 9.36649 5.46228 9.27089 5.29136 9.16681C5.22398 9.12599 5.18454 9.13887 5.14948 9.20488C5.05799 9.37717 4.96431 9.54836 4.86297 9.73599V9.73626ZM18.471 25.9185C18.3784 25.6309 18.2932 25.3682 18.21 25.105C18.1859 25.0286 18.1475 25.0217 18.0771 25.054C17.9618 25.1072 17.8435 25.1565 17.7224 25.1932C17.6337 25.2203 17.6055 25.2647 17.6233 25.3523C17.6685 25.5747 17.7079 25.7985 17.7572 26.0201C17.7635 26.0483 17.8207 26.0911 17.8446 26.0853C18.047 26.0371 18.2472 25.9793 18.4707 25.9182L18.471 25.9185ZM15.7957 25.9831C15.7903 25.9831 15.7848 25.9831 15.7793 25.9831C15.7793 25.8738 15.7777 25.7646 15.7799 25.6553C15.7818 25.5627 15.7415 25.5227 15.6478 25.5276C15.5024 25.535 15.3564 25.5408 15.2107 25.5399C15.1293 25.5394 15.1088 25.5799 15.1091 25.6492C15.1104 25.8725 15.1118 26.0957 15.1107 26.3189C15.1104 26.3995 15.1427 26.4348 15.2255 26.4302C15.3846 26.4211 15.544 26.4143 15.7034 26.4118C15.7842 26.4104 15.8201 26.3811 15.8127 26.297C15.8034 26.1927 15.8009 26.0878 15.7957 25.9831ZM14.9154 26.0048C14.9129 26.0048 14.9105 26.0048 14.908 26.0048C14.908 25.8862 14.9157 25.7667 14.9036 25.6492C14.8998 25.6112 14.8477 25.5515 14.813 25.5476C14.659 25.5309 14.5034 25.5252 14.3487 25.5293C14.3139 25.5301 14.2536 25.5849 14.2509 25.6186C14.2326 25.8503 14.2221 26.0831 14.2205 26.3157C14.2205 26.3488 14.2777 26.4088 14.3125 26.4118C14.4804 26.426 14.6497 26.4304 14.8182 26.4252C14.8516 26.4241 14.9069 26.3682 14.911 26.3329C14.9233 26.2247 14.9154 26.1143 14.9154 26.0048ZM11.8339 25.0192C11.7498 25.3044 11.6668 25.5767 11.5923 25.8511C11.585 25.8788 11.6197 25.9429 11.6469 25.9508C11.8164 26.0012 11.9887 26.0439 12.1621 26.0798C12.1903 26.0856 12.2522 26.0505 12.2579 26.025C12.3086 25.8037 12.3535 25.5808 12.3911 25.357C12.3976 25.3186 12.3733 25.2491 12.3437 25.2351C12.1851 25.1595 12.0205 25.0968 11.8339 25.0195V25.0192ZM16.7689 25.4381C16.8035 25.701 16.8355 25.962 16.8763 26.2223C16.8801 26.2464 16.9412 26.2831 16.97 26.2787C17.1453 26.2513 17.32 26.2187 17.4921 26.1757C17.5249 26.1675 17.5707 26.1006 17.5652 26.0686C17.5268 25.8445 17.4803 25.6213 17.426 25.4005C17.4178 25.3668 17.3515 25.3192 17.3195 25.3244C17.1409 25.3531 16.9648 25.3961 16.7689 25.4383V25.4381ZM12.4453 26.1004C12.4699 26.1234 12.499 26.173 12.5373 26.182C12.7052 26.2212 12.8762 26.2472 13.0457 26.2806C13.1142 26.294 13.1429 26.2757 13.1517 26.2012C13.1775 25.9848 13.2062 25.7684 13.2454 25.5542C13.2618 25.4638 13.2372 25.4301 13.1514 25.4148C12.9997 25.3879 12.8499 25.3499 12.6978 25.3258C12.6674 25.3208 12.6064 25.3512 12.6006 25.3753C12.5461 25.6049 12.5004 25.8366 12.4453 26.1001V26.1004ZM14.0247 25.9678C14.0277 25.9678 14.0307 25.9678 14.0334 25.9678C14.0383 25.8585 14.0419 25.7489 14.0485 25.6399C14.0531 25.5619 14.0216 25.5202 13.9411 25.5145C13.8094 25.5049 13.6779 25.4871 13.5459 25.4838C13.513 25.483 13.4544 25.52 13.4494 25.5471C13.4095 25.7665 13.3796 25.9875 13.3465 26.2083C13.3347 26.2874 13.3708 26.328 13.4483 26.3378C13.6067 26.3578 13.7647 26.3795 13.9228 26.3997C13.9899 26.4082 14.0263 26.3828 14.0252 26.3096C14.0233 26.1957 14.0247 26.0817 14.0247 25.9678ZM16.0006 25.5235C16.0006 25.7991 15.9987 26.0667 16.0045 26.3337C16.005 26.3543 16.0628 26.3934 16.0907 26.3907C16.263 26.3743 16.4348 26.3521 16.6051 26.322C16.6355 26.3165 16.6832 26.262 16.6799 26.236C16.6501 26.0105 16.6139 25.7854 16.5693 25.5624C16.5627 25.5295 16.5011 25.4838 16.466 25.4849C16.3077 25.4901 16.1496 25.5098 16.0004 25.5235H16.0006ZM24.7123 8.94795C24.6148 8.79429 24.5304 8.65432 24.4381 8.51956C24.4052 8.47135 24.3272 8.39438 24.3146 8.40205C24.245 8.44561 24.1426 8.50724 24.1368 8.57023C24.1157 8.80251 24.1286 9.03807 24.1286 9.29253C24.3315 9.17256 24.5134 9.06519 24.7123 8.94795ZM5.88903 9.29061C5.88903 9.03862 5.89861 8.811 5.88245 8.58557C5.87835 8.52668 5.79891 8.46779 5.74413 8.42095C5.72907 8.40808 5.66168 8.42671 5.64525 8.44999C5.53158 8.61214 5.42475 8.7795 5.31026 8.95371C5.51049 9.07039 5.68935 9.17475 5.88875 9.29089L5.88903 9.29061ZM23.9746 7.89259C23.9218 7.81973 23.8958 7.77097 23.8577 7.73509C23.8281 7.70742 23.7648 7.66935 23.7487 7.68085C23.6235 7.7696 23.506 7.86958 23.386 7.96599C23.3937 7.98024 23.4014 7.99448 23.409 8.00872C23.5887 7.97174 23.7684 7.93477 23.9746 7.89259ZM6.62639 8.009C6.6294 7.99448 6.63242 7.98024 6.6357 7.96572C6.51518 7.86492 6.39439 7.76385 6.25798 7.64963C6.19142 7.7329 6.13007 7.80987 6.04707 7.91395C6.2662 7.94983 6.44643 7.97941 6.62639 8.00872V8.009Z" fill="black"/>
<path d="M20.3095 9.92142C20.0999 9.95731 19.8912 10.0006 19.6806 10.0274C18.918 10.1244 18.2056 10.3931 17.4877 10.6487C16.887 10.8626 16.2814 11.0672 15.6678 11.2389C15.1718 11.3778 14.6588 11.3518 14.1665 11.2009C13.5653 11.0165 12.9682 10.8163 12.379 10.5963C11.585 10.2997 10.7766 10.0682 9.93356 9.96635C9.85385 9.95676 9.77551 9.93594 9.69854 9.90883C10.1823 9.88253 10.6597 9.93539 11.1344 10.0113C11.9586 10.1433 12.7356 10.4424 13.5248 10.6988C14.1224 10.893 14.7335 11.0625 15.3649 10.9502C15.879 10.8587 16.3923 10.7311 16.8856 10.5607C17.8692 10.2208 18.8641 9.95402 19.9077 9.89842C20.0394 9.89129 20.172 9.89732 20.304 9.89732C20.3056 9.90526 20.3076 9.91321 20.3092 9.92142H20.3095Z" fill="black"/>
<path d="M10.9665 8.49491C13.665 7.86629 16.3633 7.85999 19.0613 8.49546C16.363 8.36672 13.6647 8.35193 10.9665 8.49491Z" fill="black"/>
<path d="M14.069 11.6933C14.1528 11.7281 14.238 11.7596 14.3202 11.7982C14.4352 11.8522 14.5486 11.91 14.6618 11.9681C14.9683 12.1261 15.252 12.0428 15.5322 11.8919C15.6618 11.8221 15.7968 11.7629 15.9346 11.7106C15.7275 12.0702 15.1586 12.3529 14.8316 12.2685C14.7453 12.2464 14.6555 12.211 14.5851 12.1582C14.4021 12.0215 14.229 11.8717 14.052 11.727C14.0578 11.7158 14.0635 11.7046 14.069 11.6936V11.6933Z" fill="black"/>
</svg>
