<svg width="16" height="16" viewBox="0 0 16 16" fill="none" xmlns="http://www.w3.org/2000/svg">
<path d="M8.00002 3.20505C7.54371 3.20461 7.08967 3.26926 6.65162 3.39705L8.00002 6.38186L9.34755 3.39705C8.92077 3.27138 8.46781 3.20505 8.00002 3.20505Z" fill="#2C2D2E"/>
<path d="M10.5744 3.95435L8.81515 7.87256H7.19184L5.42626 3.95304C4.92273 4.27422 4.48326 4.68617 4.13023 5.16791L6.33829 10.0658L7.19184 8.16842H8.80904L9.66259 10.0658L11.8741 5.17227C11.5208 4.68986 11.0803 4.27546 10.5744 3.95435Z" fill="#2C2D2E"/>
<path d="M3.36657 6.75893C3.08174 7.82731 3.17427 8.96125 3.62854 9.96931C4.0828 10.9774 4.87098 11.7978 5.86002 12.2922L3.36657 6.75893Z" fill="#2C2D2E"/>
<path d="M9.32572 12.6098C8.45917 12.8588 7.53999 12.8588 6.67344 12.6098L6.67256 12.6089L7.99914 9.66775L9.32572 12.6098Z" fill="#2C2D2E"/>
<path d="M12.3719 9.97499C11.9171 10.9812 11.1291 11.7996 10.1409 12.2921L12.6369 6.76934C12.9202 7.83654 12.8266 8.96882 12.3719 9.97499Z" fill="#2C2D2E"/>
<path fill-rule="evenodd" clip-rule="evenodd" d="M3.05025 3.05025C4.36301 1.7375 6.14348 1 8 1C9.85651 1 11.637 1.7375 12.9497 3.05025C14.2625 4.36301 15 6.14349 15 8C15 9.85652 14.2625 11.637 12.9497 12.9497C11.637 14.2625 9.85651 15 8 15C6.14348 15 4.36301 14.2625 3.05025 12.9497C1.7375 11.637 1 9.85652 1 8C1 6.14349 1.7375 4.36301 3.05025 3.05025ZM8 2.07021C6.42732 2.07021 4.91906 2.69495 3.807 3.80701C2.69495 4.91906 2.07021 6.42732 2.07021 8C2.07021 9.57268 2.69495 11.0809 3.807 12.193C4.91906 13.305 6.42732 13.9298 8 13.9298C9.57268 13.9298 11.0809 13.305 12.193 12.193C13.305 11.0809 13.9298 9.57268 13.9298 8C13.9298 6.42732 13.305 4.91906 12.193 3.80701C11.0809 2.69495 9.57268 2.07021 8 2.07021Z" fill="#2C2D2E"/>
</svg>
