<svg width="16" height="17" viewBox="0 0 16 17" fill="none" xmlns="http://www.w3.org/2000/svg">
<path fill-rule="evenodd" clip-rule="evenodd" d="M2.23508 8.62209C2.21608 8.41209 2.20706 8.20221 2.20706 7.99221C2.20706 4.13221 5.34406 0.992221 9.20705 0.992221C12.485 0.992222 15.239 3.25227 15.999 6.29226L14.059 6.78225C13.516 4.60225 11.548 2.99222 9.20705 2.99222C6.44705 2.99222 4.20706 5.23221 4.20706 7.99221C4.20706 8.19221 4.21907 8.3923 4.24307 8.5923L2.23508 8.62209ZM7.27407 8.50221C7.23007 8.34222 7.20705 8.17221 7.20705 7.99221C7.20705 6.89221 8.10305 5.99221 9.20705 5.99221C10.311 5.99221 11.207 6.89221 11.207 7.99221C11.207 9.0922 10.311 9.9922 9.20705 9.9922C9.02605 9.9922 8.85107 9.97213 8.68507 9.92213L6.61605 11.9922L6.57607 14.8623L4.20706 16.9922L2.20706 14.9922L0.207065 12.9922L2.33304 10.6221L5.19705 10.5823L7.27407 8.50221Z" fill="#2C2D2E"/>
</svg>
