<svg width="16" height="16" viewBox="0 0 16 16" fill="none" xmlns="http://www.w3.org/2000/svg">
<path fill-rule="evenodd" clip-rule="evenodd" d="M13 1C14.104 1 15 1.896 15 3V13C15 14.104 14.104 15 13 15H3C1.896 15 1 14.104 1 13V3C1 1.896 1.896 1 3 1H13ZM3 4C3 3.44772 3.44772 3 4 3H12C12.5523 3 13 3.44772 13 4V6C13 6.55228 12.5523 7 12 7H4C3.44772 7 3 6.55228 3 6V4ZM4 9C3.44772 9 3 9.44771 3 10V12C3 12.5523 3.44772 13 4 13H12C12.5523 13 13 12.5523 13 12V10C13 9.44771 12.5523 9 12 9H4Z" fill="#2C2D2E"/>
</svg>
