<svg width="16" height="16" viewBox="0 0 16 16" fill="none" xmlns="http://www.w3.org/2000/svg">
<path fill-rule="evenodd" clip-rule="evenodd" d="M13.1333 2C14.1637 2 15 2.83627 15 3.86667V11.3333C15 12.3637 14.1637 13.2 13.1333 13.2H2.86667C1.83627 13.2 1 12.3637 1 11.3333V3.86667C1 2.83627 1.83627 2 2.86667 2H13.1333ZM7.53333 10.8667C7.53333 10.6091 7.32427 10.4 7.06667 10.4H3.33333C3.07573 10.4 2.86667 10.6091 2.86667 10.8667C2.86667 11.1243 3.07573 11.3333 3.33333 11.3333H7.06667C7.32427 11.3333 7.53333 11.1243 7.53333 10.8667ZM5.66667 9C5.66667 8.7424 5.4576 8.53333 5.2 8.53333H3.33333C3.07573 8.53333 2.86667 8.7424 2.86667 9C2.86667 9.2576 3.07573 9.46667 3.33333 9.46667H5.2C5.4576 9.46667 5.66667 9.2576 5.66667 9ZM8.93333 8.53333H7.06667C6.80907 8.53333 6.6 8.7424 6.6 9C6.6 9.2576 6.80907 9.46667 7.06667 9.46667H8.93333C9.19093 9.46667 9.4 9.2576 9.4 9C9.4 8.7424 9.19093 8.53333 8.93333 8.53333ZM12.6667 8.53333H10.8C10.5424 8.53333 10.3333 8.7424 10.3333 9C10.3333 9.2576 10.5424 9.46667 10.8 9.46667H12.6667C12.9243 9.46667 13.1333 9.2576 13.1333 9C13.1333 8.7424 12.9243 8.53333 12.6667 8.53333ZM5.9 3.86667H3.56667C3.18027 3.86667 2.86667 4.18027 2.86667 4.56667V5.96667C2.86667 6.35307 3.18027 6.66667 3.56667 6.66667H5.9C6.2864 6.66667 6.6 6.35307 6.6 5.96667V4.56667C6.6 4.18027 6.2864 3.86667 5.9 3.86667Z" fill="#2C2D2E"/>
</svg>
