<svg fill="none" height="30" viewBox="0 0 30 30" width="30" xmlns="http://www.w3.org/2000/svg" xmlns:xlink="http://www.w3.org/1999/xlink"><clipPath id="a"><path d="m0 13h30v3.10345h-30z"/></clipPath><g clip-path="url(#a)" fill="#fff"><path d="m2.96021 16.0977v-3.0712h1.36015c.00262.0489.00729.0954.00729.1419.00058.7555-.00117 1.511.00233 2.2665.00029.0939-.02215.1661-.10232.2308-.10086.0812-.20055.1668-.28246.2633-.11369.134-.24865.1872-.43638.1716-.17694-.0146-.3568-.0029-.54861-.0029z"/><path d="m22.6833 15.4479c.2367 0 .4681-.0056.6993.0024.116.0039.1944-.0317.2813-.0997.1589-.1242.2233-.2622.2099-.4547-.0193-.2783-.0044-.5588-.0053-.8382-.0006-.1673-.241-.3846-.4238-.3849-.2425-.0005-.4851-.0011-.7276-.0024-.0087 0-.0175-.0053-.0344-.0108v-.6382c.0429-.0018.0886-.0052.1347-.0052.4221-.0006.8442-.0043 1.266.0037.0705.0013.1568.0383.2066.0843.1554.1435.3519.2797.4283.4555.074.171.0207.3872.021.5836.0008.4238-.0033.8473.0026 1.271.0014.1031-.0233.1803-.1108.2527-.1425.1179-.2708.2499-.4081.373-.0286.0254-.0711.054-.1073.0542-.4745.0037-.9491.0024-1.4324.0024z"/><path d="m22.4886 15.4479v.6365c-.0365.0043-.0729.0125-.1094.0125-.4221.0008-.8441.0031-1.2662-.0024-.0598-.0008-.1301-.0296-.1761-.0656-.0948-.074-.1668-.1731-.2653-.2416-.2008-.1393-.2483-.3143-.2413-.5361.0172-.5281.0026-1.0568.0093-1.5853.0009-.0658.0364-.1422.0825-.1948.1201-.1367.253-.2646.3853-.3923.0301-.0288.0782-.0595.1184-.0597.4842-.004.9684-.0027 1.4613-.0027v.6564c-.2014 0-.4125.0254-.6124-.0061-.2776-.0436-.4049.1121-.5434.2678-.0236.0267-.0286.0724-.0289.1094-.002.3408-.0073.6815.0041 1.022.0023.0666.065.1356.1117.1967.1128.1478.2646.2083.471.1893.1953-.018.3947-.004.5994-.004z"/><path d="m27.9437 16.0966v-.6484h.7303c.1941 0 .4553-.235.4556-.4111.0006-.3188.0006-.6379 0-.9567-.0003-.1959-.2326-.4073-.446-.4076-.2417 0-.4836 0-.7369 0v-.6566h.569c.2813 0 .5629-.0045.8442.0034.0623.0018.1361.0357.1819.0759.1139.1004.2087.2188.3232.319.1018.0891.1367.1859.1353.3133-.0067.572 0 1.1443-.007 1.7167-.0009.0687-.042.1493-.0924.203-.1283.1364-.2714.2614-.4113.3886-.0286.0259-.0697.0576-.1053.0579-.4745.0039-.9497.0026-1.4406.0026z"/><path d="m27.7452 15.4479v.6392c-.0492.004-.0912.0098-.1332.01-.4078.0008-.8156.0045-1.2231-.0031-.0717-.0014-.154-.0397-.2111-.0828-.0962-.0721-.1667-.1731-.2653-.2419-.1883-.1311-.232-.2944-.2259-.5022.0155-.5329.0024-1.0661.0088-1.5993.0009-.0664.0358-.1446.0833-.1962.1417-.1543.2691-.355.4557-.4306.1865-.0756.4375-.0233.6605-.0246.2801-.0016.5606-.0002.8497-.0002v.6566c-.2469 0-.4926 0-.7386 0-.2105 0-.4463.2149-.4466.4082-.0006.2884.0111.5773-.0047.8652-.0084.1557.0545.2603.1685.3669.1052.0986.2114.147.3667.138.2119-.0125.425-.0032.6553-.0032z"/><path d="m7.64874 13.6725h-1.19633c-.08104.3601-.1612.7132-.2402 1.0667-.09182.4102-.18539.82-.27168 1.2311-.02099.0993-.06471.1342-.18073.13-.24603-.0092-.49293-.0029-.76315-.0029.04984-.2305.09503-.4465.14342-.6619.1714-.7653.34659-1.5298.51304-2.2959.02128-.0981.05918-.1271.16791-.1261.51421.005 1.02842.0048 1.54234 0 .10815-.001.15158.0254.16703.1261.02653.1718.07433.3415.11835.5329z"/><path d="m9.2966 16.0971c-.29266 0-.56347.0035-.83399-.0045-.03439-.001-.08745-.0584-.09619-.0962-.14867-.6402-.2915-1.2813-.43551-1.9223-.07783-.3458-.15566-.6918-.23757-1.0566.295 0 .57863-.0024.86197.0042.02507.0005.06268.0576.07084.0931.1198.5207.23553 1.0423.35213 1.5636.10436.4658.20901.9313.31832 1.4187z"/><path d="m10.1495 16.0866v-3.0633h.853v3.0633z"/><path d="m16.1662 13.0283v3.0575c-.1714.0298-.3227.0259-.4294-.1163-.0161-.0215-.0359-.0429-.0592-.0574-.3393-.212-.4066-.5065-.3825-.8618.0315-.461.0047-.9249.0111-1.3875.0009-.0619.0353-.1325.0776-.183.0868-.1044.2034-.1898.2827-.2982.1245-.1694.2921-.1916.4997-.1533z"/><path d="m11.1972 13.663v-.6386h3.1914v.6386z"/><path d="m19.5461 13.6672h-3.1864v-.6399h3.1864z"/><path d="m14.3889 15.459v.6305h-3.1862v-.6305z"/><path d="m19.5505 15.4598v.6286h-3.1911v-.6286z"/><path d="m14.1597 14.2356v.6402h-2.9567v-.6402z"/><path d="m2.76257 16.0977c-.05597 0-.10319 0-.15071 0-.62556 0-1.25113-.0019-1.87669.0018-.096779.0005-.161784-.0259-.222417-.093-.161492-.1787-.329981-.3524-.512753-.5459h2.76257z"/></g></svg>