<svg width="16" height="16" viewBox="0 0 16 16" fill="none" xmlns="http://www.w3.org/2000/svg">
<path fill-rule="evenodd" clip-rule="evenodd" d="M4.86546 3.16474C4.20286 3.16474 3.56718 3.42807 3.09807 3.89718L2.89632 4.09894C2.42844 4.56621 2.16474 5.20266 2.16474 5.86633C2.16474 6.5296 2.42768 7.16508 2.89632 7.63372L6.78851 11.5259C7.45771 12.1951 8.54229 12.1951 9.21149 11.5259C9.78306 10.9543 10.2602 10.4771 10.7028 10.0344C11.4986 9.23842 12.1828 8.55406 13.1037 7.63372C13.5723 7.16508 13.8353 6.5296 13.8353 5.86633C13.8353 5.20266 13.5721 4.56671 13.1042 4.09943L12.9019 3.89718C12.4328 3.42807 11.7971 3.16474 11.1345 3.16474C10.5317 3.16474 9.72619 3.53747 9.21091 4.05342L9.20967 4.05465L7.99925 5.26272L6.78958 4.05304C6.27333 3.5368 5.46855 3.16474 4.86546 3.16474ZM1.56737 2.36648C2.44213 1.49172 3.62829 1 4.86546 1C6.0075 1 7.17304 1.53746 8.00038 2.23009C8.82732 1.53765 9.99298 1 11.1345 1C12.3717 1 13.5579 1.49172 14.4326 2.36648L14.6339 2.56774C14.6341 2.56791 14.6337 2.56758 14.6339 2.56774C15.5096 3.44256 16 4.63046 16 5.86633C16 7.10283 15.5096 8.28919 14.6344 9.16442C13.7137 10.0845 13.0298 10.7686 12.2342 11.5644C11.7915 12.0072 11.3142 12.4846 10.7422 13.0566C9.2276 14.5712 6.7724 14.5712 5.25781 13.0566L1.36562 9.16442C0.490384 8.28919 0 7.10283 0 5.86633C0 4.63046 0.489938 3.44305 1.36562 2.56824C1.36568 2.56817 1.36555 2.5683 1.36562 2.56824L1.56737 2.36648Z" fill="#2C2D2E"/>
</svg>
