<svg width="16" height="16" viewBox="0 0 16 16" fill="none" xmlns="http://www.w3.org/2000/svg">
<path fill-rule="evenodd" clip-rule="evenodd" d="M8.28571 4C8.52214 4 8.71429 4.19214 8.71429 4.42857V8.28571H12.5714C12.8079 8.28571 13 8.47786 13 8.71429V9.28571C13 9.52214 12.8079 9.71429 12.5714 9.71429H8.71429V13.5714C8.71429 13.8079 8.52214 14 8.28571 14H7.71429C7.47786 14 7.28571 13.8079 7.28571 13.5714V9.71429H3.42857C3.19214 9.71429 3 9.52214 3 9.28571V8.71429C3 8.47786 3.19214 8.28571 3.42857 8.28571H7.28571V4.42857C7.28571 4.19214 7.47786 4 7.71429 4H8.28571V4Z" fill="#005FF9"/>
</svg>
