<svg width="33" height="32" viewBox="0 0 33 32" fill="none" xmlns="http://www.w3.org/2000/svg">
<path d="M32.2 16.018C32.2 20.405 25.016 24 16.2 24C7.34695 24 0.199951 20.405 0.199951 16.018C0.199951 11.595 7.34695 8 16.2 8C25.016 8 32.2 11.595 32.2 16.018ZM15.438 14.903C16.817 14.652 18.159 14.184 19.211 13.789C22.621 12.602 24.218 11.379 24.544 11.092C24.98 10.696 24.654 10.552 24.254 10.409C21.932 9.726 18.413 9.222 16.164 9.33C14.531 9.366 13.624 11.128 13.261 11.883C11.556 15.443 14.604 15.083 15.438 14.903ZM4.98995 19.937C5.06295 19.793 7.74795 13.573 10.904 10.193C11.303 9.833 10.868 9.762 10.36 9.87C5.13495 10.876 1.50695 13.25 1.50695 15.982C1.50695 17.492 2.59495 18.894 4.40995 20.009C4.66395 20.153 4.91695 20.045 4.98995 19.937ZM16.927 17.097C15.547 17.348 14.205 17.816 13.153 18.211C9.74295 19.398 8.14695 20.656 7.81995 20.944C7.38395 21.304 7.71095 21.484 8.10995 21.591C10.432 22.274 13.951 22.777 16.201 22.706C17.834 22.634 18.741 20.872 19.14 20.116C20.809 16.557 17.761 16.953 16.927 17.096V17.097ZM30.859 16.018C30.859 14.508 29.806 13.142 27.956 12.027C27.702 11.847 27.484 11.955 27.376 12.099C27.303 12.207 24.618 18.427 21.462 21.807C21.0989 22.202 21.498 22.274 22.006 22.167C27.231 21.124 30.859 18.75 30.859 16.018Z" fill="#2C2D2E"/>
</svg>
