<svg width="16" height="16" viewBox="0 0 16 16" fill="none" xmlns="http://www.w3.org/2000/svg">
<path fill-rule="evenodd" clip-rule="evenodd" d="M13.817 11.8938C14.5872 10.7432 14.9989 9.39007 15 8.00549C15.0015 6.14945 14.2657 4.36881 12.9546 3.05511C11.6435 1.7414 9.86427 1.00219 8.00823 1C6.62365 0.998377 5.26968 1.4074 4.11757 2.17533C2.96547 2.94327 2.06697 4.03563 1.53574 5.31424C1.0045 6.59286 0.864383 8.0003 1.1331 9.35856C1.40183 10.7168 2.06732 11.9649 3.04541 12.9449C4.0235 13.9249 5.27025 14.5928 6.62798 14.8642C7.98571 15.1356 9.39342 14.9982 10.6731 14.4695C11.9527 13.9408 13.0468 13.0444 13.817 11.8938ZM13.6825 11.797C14.4323 10.6747 14.8326 9.35527 14.8326 8.00553C14.8329 7.10924 14.6567 6.22166 14.3138 5.39353C13.971 4.56539 13.4683 3.81294 12.8346 3.17916C12.2008 2.54539 11.4483 2.04272 10.6202 1.69989C9.79208 1.35706 8.9045 1.18079 8.00821 1.18115C6.65847 1.18115 5.33905 1.5814 4.21678 2.33127C3.09452 3.08114 2.21982 4.14696 1.7033 5.39396C1.18678 6.64095 1.05163 8.0131 1.31495 9.3369C1.57827 10.6607 2.22823 11.8767 3.18264 12.8311C4.13705 13.7855 5.35304 14.4355 6.67684 14.6988C8.00063 14.9621 9.37279 14.827 10.6198 14.3104C11.8668 13.7939 12.9326 12.9192 13.6825 11.797Z" fill="#2C2D2E"/>
<path fill-rule="evenodd" clip-rule="evenodd" d="M13.2832 11.5302C13.9803 10.4869 14.3524 9.26031 14.3524 8.00555C14.3524 6.32297 13.684 4.70931 12.4942 3.51954C11.3045 2.32978 9.69081 1.66138 8.00823 1.66138C6.75347 1.66138 5.52689 2.03346 4.48359 2.73056C3.4403 3.42767 2.62715 4.41849 2.14697 5.57774C1.6668 6.73699 1.54116 8.01259 1.78595 9.24324C2.03074 10.4739 2.63497 11.6043 3.52222 12.4916C4.40947 13.3788 5.53989 13.983 6.77054 14.2278C8.00119 14.4726 9.27679 14.347 10.436 13.8668C11.5953 13.3866 12.5861 12.5735 13.2832 11.5302ZM12.8154 11.2178C13.4507 10.267 13.7898 9.14922 13.7898 8.00571C13.7898 6.47232 13.1807 5.00174 12.0964 3.91747C11.0121 2.8332 9.54156 2.22406 8.00817 2.22406C6.86467 2.22406 5.74685 2.56315 4.79606 3.19844C3.84527 3.83374 3.10422 4.73671 2.66662 5.79317C2.22902 6.84963 2.11453 8.01213 2.33761 9.13366C2.5607 10.2552 3.11135 11.2854 3.91993 12.094C4.7285 12.9025 5.7587 13.4532 6.88023 13.6763C8.00176 13.8994 9.16426 13.7849 10.2207 13.3473C11.2772 12.9097 12.1801 12.1686 12.8154 11.2178Z" fill="#2C2D2E"/>
<path fill-rule="evenodd" clip-rule="evenodd" d="M10.8345 10.0007C11.4233 10.096 11.9699 10.3656 12.4041 10.7745C12.4194 10.7895 12.4315 10.8075 12.4398 10.8273C12.448 10.8471 12.4523 10.8683 12.4523 10.8897C12.4523 10.9112 12.448 10.9324 12.4398 10.9522C12.4315 10.972 12.4194 10.9899 12.4041 11.005C11.9698 11.4132 11.423 11.6818 10.8345 11.776C10.8146 11.7792 10.7943 11.778 10.7749 11.7726C10.7555 11.7672 10.7375 11.7576 10.7221 11.7446C10.7067 11.7316 10.6943 11.7154 10.6858 11.6971C10.6773 11.6789 10.6728 11.659 10.6726 11.6388V11.4029C10.6727 11.3881 10.6696 11.3735 10.6638 11.3599C10.6579 11.3464 10.6492 11.3342 10.6384 11.3241C10.6276 11.3141 10.6148 11.3064 10.6009 11.3015C10.5869 11.2966 10.5721 11.2947 10.5574 11.2958H5.76631C5.72658 11.292 5.68658 11.2996 5.65106 11.3178L5.05012 11.669C5.01471 11.691 4.97378 11.7024 4.93212 11.702H4.29825C4.27889 11.7037 4.25945 11.6997 4.24237 11.6904C4.22529 11.6811 4.21132 11.667 4.20221 11.6498C3.92608 11.1898 3.60925 10.7554 3.25553 10.3519C3.22441 10.3231 3.20308 10.2853 3.19455 10.2437C3.18602 10.2022 3.19071 10.159 3.20796 10.1203C3.22522 10.0815 3.25416 10.0492 3.29074 10.0277C3.32733 10.0063 3.3697 9.99681 3.41194 10.0007H4.86901C4.90542 10.0016 4.94111 10.011 4.97328 10.0281L5.89802 10.4617C5.93719 10.4863 5.98269 10.4991 6.02897 10.4984C6.07526 10.4977 6.12034 10.4835 6.15872 10.4576C6.19711 10.4317 6.22714 10.3952 6.24516 10.3526C6.26318 10.31 6.26842 10.263 6.26023 10.2174C5.95839 8.11003 4.12538 7.62709 3.09912 7.44598C3.07205 7.44233 3.046 7.43325 3.02253 7.41929C2.99906 7.40533 2.97864 7.38678 2.9625 7.36475C2.94636 7.34272 2.93483 7.31766 2.9286 7.29107C2.92237 7.26448 2.92157 7.2369 2.92624 7.21C3.01582 6.62234 3.21204 6.056 3.50523 5.53889C3.53043 5.4993 3.56825 5.46937 3.61256 5.45393C3.65688 5.43849 3.70511 5.43846 3.74945 5.45382C4.31576 5.60041 4.86284 5.81317 5.3794 6.08769C5.69222 6.25233 5.90625 6.29075 6.04345 6.1755C5.477 5.6636 4.8526 5.21971 4.18301 4.85288C4.11166 4.81721 4.06501 4.75135 4.13636 4.66629C4.50664 4.22286 4.95489 3.85087 5.45898 3.56868C5.49887 3.5488 5.5434 3.54009 5.58785 3.54347C5.6323 3.54685 5.675 3.5622 5.71143 3.58789C6.3216 3.92767 6.8875 4.34149 7.39626 4.81995C7.47861 4.91644 7.58144 4.99335 7.69726 5.04509C7.81308 5.09683 7.93898 5.12209 8.0658 5.11905C7.65114 4.4501 7.12814 3.85476 6.51817 3.35739C6.42213 3.25861 6.39469 3.13787 6.57305 3.08299C7.05568 2.93905 7.55667 2.86603 8.06031 2.86621C8.12204 2.86621 8.17763 2.86964 8.23319 2.87307C8.28875 2.8765 8.34432 2.87993 8.40606 2.87993C8.5088 2.88696 8.60586 2.92967 8.68046 3.00067C9.89943 4.10662 10.15 4.83787 10.4025 5.5748L10.4174 5.61846C10.6245 6.25291 10.7174 6.91904 10.6918 7.58593C10.6701 8.46191 10.5242 9.33037 10.2583 10.1653C10.2253 10.286 10.2555 10.4918 10.4202 10.4918H10.5601C10.5926 10.4871 10.6221 10.4704 10.6429 10.445C10.6637 10.4197 10.6743 10.3874 10.6726 10.3546V10.1406C10.6728 10.1204 10.6773 10.1004 10.6858 10.082C10.6944 10.0637 10.7067 10.0473 10.722 10.0341C10.7373 10.0209 10.7553 10.011 10.7747 10.0053C10.7941 9.99951 10.8145 9.99794 10.8345 10.0007ZM9.48099 9.60907C9.55182 9.50221 9.58934 9.37674 9.58879 9.24854C9.58807 9.07727 9.51952 8.91325 9.39815 8.7924C9.27679 8.67155 9.11248 8.60369 8.94121 8.6037C8.81301 8.6037 8.6877 8.64175 8.58114 8.71303C8.47459 8.78431 8.39159 8.88561 8.34265 9.0041C8.29372 9.12259 8.28106 9.25294 8.30627 9.37864C8.33148 9.50433 8.39343 9.61971 8.48427 9.71017C8.57511 9.80063 8.69076 9.86209 8.81656 9.88676C8.94236 9.91144 9.07265 9.89822 9.19093 9.84879C9.30922 9.79935 9.41017 9.71592 9.48099 9.60907Z" fill="#2C2D2E"/>
</svg>
