<svg width="16" height="16" viewBox="0 0 16 16" fill="none" xmlns="http://www.w3.org/2000/svg">
<path d="M8.00195 0C7.44995 0 7.00195 0.448 7.00195 1V2H7V4H7.00195V5.99999H7L7 12H7.00195V13C7.00195 13.552 7.44995 14 8.00195 14C8.55395 14 9.00195 13.552 9.00195 13L9.00195 1C9.00195 0.448 8.55395 0 8.00195 0Z" fill="#2C2D2E"/>
<path fill-rule="evenodd" clip-rule="evenodd" d="M2.203 4.80004C2.70748 3.53883 3.74775 2.60061 5 2.20571V4.39657C4.58516 4.66619 4.25228 5.06059 4.05999 5.54003L3.87701 5.99999H5L5 12H3.99999V14H0.999998V12H0V8.99998C0 8.10999 0.419998 7.30003 1.099 6.79003C0.909997 6.69003 0.735983 6.56991 0.583983 6.41991C0.209984 6.03991 0 5.53 0 5.01V4.99999H2C2.041 4.99999 2.08099 5 2.11999 5.01L2.203 4.80004ZM0.999998 7.99999H2.37799C2.80798 7.99999 3.22102 8.16996 3.52502 8.46996C3.82902 8.77996 3.99999 9.1901 3.99999 9.6201V9.99998H2.99798C1.89498 9.99998 0.999998 9.10999 0.999998 7.99999Z" fill="#2C2D2E"/>
<path fill-rule="evenodd" clip-rule="evenodd" d="M11 5.99999H12.123L11.94 5.54003C11.854 5.33003 11.738 5.12993 11.596 4.93994C11.436 4.73994 11.244 4.55992 11.028 4.41992L11 4.40052V2.20572C12.2522 2.60063 13.2925 3.53884 13.797 4.80004L13.88 5.01H13.885C13.923 5 13.962 4.99999 14 4.99999H16V5.01C16 5.53 15.79 6.03991 15.416 6.41991C15.264 6.56991 15.09 6.69003 14.901 6.79003L14.9099 6.80004C15.0729 6.92004 15.222 7.05996 15.354 7.21996C15.614 7.52996 15.805 7.90003 15.909 8.29003C15.969 8.52003 15.999 8.75998 16 8.99998V12H15V14H12V12H11L11 5.99999ZM13.622 7.99999H15V8.01C14.993 9.10999 14.1 9.99998 13 9.99998H12V9.6201C12 9.1901 12.1709 8.77996 12.4749 8.46996C12.7789 8.16996 13.192 7.99999 13.622 7.99999Z" fill="#2C2D2E"/>
</svg>
