<svg width="16" height="16" viewBox="0 0 16 16" fill="none" xmlns="http://www.w3.org/2000/svg">
<path fill-rule="evenodd" clip-rule="evenodd" d="M8 0C12.415 0 16 3.585 16 8C16 12.415 12.415 16 8 16C3.585 16 0 12.415 0 8C0 3.585 3.585 0 8 0ZM7.446 10.581C7.212 10.53 6.969 10.612 6.814 10.796C6.428 11.249 5.772 12.032 5.772 12.032C5.664 12.16 5.623 12.332 5.661 12.495C5.699 12.659 5.812 12.794 5.965 12.862C6.593 13.12 7.28 13.265 8 13.265C8.721 13.265 9.408 13.12 10.033 12.856C10.185 12.79 10.297 12.655 10.334 12.494C10.372 12.332 10.332 12.162 10.225 12.035C9.944 11.696 9.56 11.236 9.19 10.794C9.034 10.609 8.789 10.525 8.553 10.577C8.375 10.62 8.19 10.64 8 10.64C7.81 10.64 7.625 10.62 7.446 10.581ZM10.434 9.001C10.341 9.223 10.379 9.478 10.534 9.662C10.911 10.123 11.57 10.907 11.57 10.907C11.677 11.035 11.838 11.106 12.005 11.097C12.172 11.089 12.325 11.002 12.419 10.863C12.943 10.039 13.251 9.063 13.251 8.015C13.251 7.872 13.184 7.737 13.072 7.651C12.959 7.564 12.812 7.535 12.675 7.572C12.675 7.572 11.64 7.849 11.04 8.01C10.799 8.075 10.617 8.272 10.571 8.518C10.545 8.686 10.496 8.847 10.434 9.001ZM5.424 8.519C5.378 8.276 5.198 8.08 4.959 8.016C4.361 7.849 3.326 7.572 3.326 7.572C3.189 7.535 3.042 7.564 2.929 7.65C2.816 7.737 2.749 7.871 2.749 8.014C2.75 8.014 2.75 8.014 2.75 8.015C2.75 9.063 3.058 10.039 3.588 10.859C3.68 10.996 3.831 11.081 3.996 11.09C4.161 11.099 4.32 11.029 4.426 10.903C4.715 10.565 5.106 10.101 5.471 9.667C5.627 9.48 5.666 9.223 5.572 8.999C5.504 8.847 5.456 8.686 5.424 8.519ZM8 7C8.552 7 9 7.448 9 8C9 8.552 8.552 9 8 9C7.448 9 7 8.552 7 8C7 7.448 7.448 7 8 7ZM6.77 5.696C6.983 5.586 7.117 5.366 7.117 5.126C7.125 4.53 7.125 3.501 7.125 3.501C7.125 3.334 7.047 3.177 6.914 3.076C6.781 2.975 6.609 2.943 6.448 2.988C5.276 3.36 4.277 4.124 3.615 5.129C3.527 5.269 3.511 5.443 3.572 5.598C3.633 5.752 3.763 5.868 3.923 5.911C4.359 6.033 4.952 6.194 5.51 6.344C5.738 6.406 5.981 6.338 6.145 6.168C6.324 5.978 6.536 5.82 6.77 5.696ZM9.861 6.164C10.023 6.332 10.264 6.398 10.489 6.338C11.065 6.191 12.079 5.919 12.079 5.919C12.242 5.876 12.375 5.758 12.437 5.601C12.499 5.444 12.483 5.267 12.394 5.124C11.723 4.124 10.724 3.36 9.55 2.997C9.392 2.952 9.223 2.984 9.092 3.083C8.961 3.182 8.884 3.337 8.884 3.501C8.879 3.946 8.877 4.554 8.876 5.125C8.876 5.368 9.012 5.591 9.228 5.702C9.465 5.82 9.677 5.978 9.861 6.164Z" fill="#2C2D2E"/>
</svg>
