<svg width="30" height="30" viewBox="0 0 30 30" fill="none" xmlns="http://www.w3.org/2000/svg">
<path d="M14.1317 2.02951C21.2952 1.55014 27.4911 6.96863 27.9705 14.1321C28.4499 21.2957 23.0314 27.4915 15.8679 27.9711C8.70426 28.4505 2.50854 23.032 2.02917 15.8683C1.69642 10.8993 4.2319 6.17687 8.55764 3.709C10.265 2.73548 12.1706 2.1611 14.1317 2.02951ZM14.5243 3.13463C7.9709 3.39516 2.86964 8.91908 3.13041 15.4723C3.39093 22.0257 8.91462 27.127 15.4681 26.8664C22.0212 26.6057 27.1225 21.082 26.862 14.5286C26.7032 10.5375 24.549 6.89375 21.1284 4.83109C19.1402 3.63048 16.8427 3.04036 14.5219 3.13463H14.5243Z" fill="white"/>
<path d="M11.6523 5.22126C12.921 4.80247 14.2566 4.6241 15.5906 4.69535C15.7306 4.68881 15.8702 4.7128 16.0001 4.76563C17.4642 5.92965 18.6229 7.43271 19.3761 9.14492C20.1921 11.1206 20.4933 13.2712 20.251 15.3952C20.1017 16.9402 19.7321 18.4556 19.1531 19.8957H20.1952C20.297 19.6315 20.3891 19.3649 20.4958 19.1032C21.709 19.2573 22.8344 19.8166 23.69 20.6906C22.8376 21.5703 21.7092 22.1306 20.4933 22.278C20.394 22.0187 20.2946 21.7618 20.2025 21.5024C17.0083 21.5024 13.8117 21.5024 10.6175 21.5024C10.4575 21.5131 10.3039 21.5686 10.174 21.6624C9.82259 21.8393 9.47602 22.0235 9.12461 22.2004C8.99592 22.2598 8.85391 22.2848 8.71261 22.2731C8.30062 22.2731 7.88861 22.2731 7.47419 22.2731C6.60439 21.3456 5.90036 20.2759 5.39239 19.1104H8.21579C8.4167 19.0898 8.61979 19.1112 8.81197 19.1734C9.28044 19.3753 9.74915 19.5799 10.2176 19.7866C10.5715 19.995 10.9956 19.8714 11.3858 19.9029C11.3259 18.9015 11.0365 17.927 10.5399 17.0553C10.0121 16.2124 9.27705 15.519 8.40482 15.0413C7.23572 14.4127 5.97452 13.9733 4.66776 13.7399C4.84201 12.359 5.29545 11.0282 6.0007 9.82836C6.92018 10.0375 7.82439 10.308 8.70776 10.6378C9.65536 10.9752 10.5523 11.4407 11.3736 12.0216L11.6378 11.8932C11.107 11.3009 10.5092 10.7723 9.85651 10.3179C8.92806 9.64078 7.95671 9.02472 6.94829 8.47361C7.79579 7.43804 8.83718 6.57794 10.014 5.94104C10.8194 6.26967 11.5721 6.71487 12.2485 7.26185C13.2768 8.08682 14.2312 9 15.101 9.99074L15.4403 9.90107C14.5678 8.07374 13.1792 6.53723 11.6523 5.22126ZM16.3734 16.1877C15.6974 16.4029 15.3237 17.1251 15.5389 17.8012C15.7541 18.4772 16.4763 18.8509 17.1525 18.6357C17.8284 18.4205 18.2019 17.698 17.9869 17.0221C17.9062 16.7688 17.7489 16.5466 17.5366 16.3864C17.2036 16.136 16.7706 16.0621 16.3734 16.1877Z" fill="white"/>
</svg>
