<svg width="56" height="32" viewBox="0 0 56 32" fill="none" xmlns="http://www.w3.org/2000/svg">
<path fill-rule="evenodd" clip-rule="evenodd" d="M12.692 9.94977C5.40621 9.5363 0.678633 15.6749 7.86941 15.7867C13.7397 11.2262 21.1152 7.62293 23.7306 9.51431C26.1586 12.4965 13.5409 17.1124 8.71393 16.4544C2.987 23.0197 7.85621 24.2451 15.6989 19.1093C18.272 16.6936 20.7519 15.7488 22.7841 16.3831L19.42 20.0673C18.6591 21.6587 20.13 20.9321 21.8005 19.4991C23.9039 16.7253 26.2211 16.0471 28.0395 16.3004C28.9315 15.3327 29.9484 14.4882 30.8414 13.5205H32.1275C30.0012 15.5623 27.8028 17.5179 25.849 19.7691C25.4769 20.8688 26.3663 21.0315 28.2409 19.1885L31.2724 16.435L32.4125 16.4218L29.1655 19.6592C28.4389 20.9647 29.6951 21.0456 31.9577 19.8483C32.5603 17.3235 36.8454 13.2029 38.5309 13.1484C39.8549 13.9991 36.6448 17.5602 32.8445 19.7867C32.3149 21.2154 33.8772 20.9532 36.3132 19.9926C36.7477 17.6226 41.2492 13.3903 42.5838 13.5205C44.2244 13.8478 41.7551 17.2039 37.3072 19.8439C36.8621 21.5435 38.6339 20.7474 40.4425 19.3231C42.5961 16.8362 45.1367 15.6301 47.6887 16.4324L44.5068 20.0066C44.0494 20.5556 44.6141 21.306 45.5607 20.4667C47.1882 18.8753 50.2848 14.8718 53.0436 16.1042C53.7825 16.7341 53.0787 17.7546 51.8946 18.3642C51.6114 18.4328 51.5278 18.3598 51.6448 18.1443C52.4717 17.4792 52.8518 16.9039 52.4383 16.4904C50.3798 15.8861 45.7287 20.6224 48.9494 20.9418C50.2848 20.8001 51.5287 20.2996 52.7101 19.5545L52.9134 19.9503C50.283 21.7837 46.3736 22.4303 46.9331 19.6205C45.1552 21.8637 43.533 21.6464 43.6183 20.1773C41.6451 22.0238 39.8232 21.5233 40.4399 19.7533C38.5529 21.9297 36.607 21.6579 36.2384 20.4184C33.3776 21.8356 32.0624 21.6992 32.029 20.2732C29.4919 22.0485 27.465 21.6922 28.2823 19.5571C26.3346 21.8708 24.4837 21.8426 25.0212 19.8738C22.4489 22.2068 20.693 21.5461 21.7715 19.7542C20.2021 21.4758 18.0389 22.1927 18.5078 20.2257C16.2064 22.0291 14.7901 21.3711 15.5819 19.668C11.3003 23.8747 0.972456 25.365 7.25361 16.4377C0.557232 16.4992 1.32786 9.45889 12.721 9.53718L12.692 9.94977ZM9.29982 15.9441C14.9247 16.6769 24.2945 11.608 23.2943 9.98672C22.1243 8.5739 16.7888 10.1398 9.29982 15.9441ZM21.5278 16.5731C19.5678 19.1296 18.0538 20.5274 17.1108 20.7271C16.3666 20.8846 16.261 20.5433 16.495 19.9759C17.2216 18.4038 19.7957 16.5986 21.5278 16.5731ZM27.3929 16.6022C25.4329 19.1595 23.9189 20.5565 22.9758 20.7562C22.2307 20.9136 22.126 20.5723 22.36 20.0058C23.0867 18.4328 25.6607 16.6277 27.3929 16.6022ZM46.3067 16.6312C44.3467 19.1885 42.8318 20.5855 41.8888 20.7852C41.1446 20.9427 41.0399 20.6022 41.2739 20.0348C41.9996 18.4619 44.5754 16.6567 46.3067 16.6312ZM33.272 14.8506C33.5183 15.0917 33.4884 15.5122 33.2051 15.7875C32.921 16.0629 32.4882 16.0902 32.2419 15.8491C31.9955 15.6081 32.0246 15.1876 32.3087 14.9122C32.5929 14.6369 33.0248 14.6096 33.272 14.8506ZM32.9747 19.1305C36.9255 16.3638 38.7403 14.2067 37.9996 13.7484C35.8267 15.1119 33.5667 17.371 32.9747 19.1305ZM37.4515 19.1876C41.4023 16.4218 43.2163 14.2639 42.4764 13.8056C40.3036 15.1691 38.0427 17.4282 37.4515 19.1876Z" fill="#393939"/>
</svg>
