<svg width="16" height="16" viewBox="0 0 16 16" fill="none" xmlns="http://www.w3.org/2000/svg">
<path fill-rule="evenodd" clip-rule="evenodd" d="M11.356 7H12.5C13.328 7 14 7.672 14 8.5C14 8.816 13.902 9.11 13.735 9.352H13.734C13.729 9.36 13.723 9.369 13.717 9.377L9.669 15.102C9.646 15.136 9.623 15.17 9.598 15.202V15.203C9.233 15.687 8.653 16 8 16C7.347 16 6.767 15.687 6.402 15.203V15.202C6.377 15.17 6.354 15.136 6.331 15.102L2.283 9.377C2.105 9.13 2 8.827 2 8.5C2 7.672 2.672 7 3.5 7H4.626C5.452 7.926 6.654 8.509 7.991 8.509C9.328 8.509 10.53 7.926 11.356 7ZM7.991 1C9.647 1 10.991 2.344 10.991 4C10.991 5.656 9.647 7 7.991 7C6.335 7 4.991 5.656 4.991 4C4.991 2.344 6.335 1 7.991 1Z" fill="#2C2D2E"/>
</svg>
