<svg version="1.1" id="Слой_1" xmlns="http://www.w3.org/2000/svg" x="0" y="0" viewBox="0 0 201.9 49.4" xml:space="preserve"><style>.st0{fill:#439539}.st1{fill:#d90664}.st2{fill:#84bb32}.st3{fill:#318836}</style><path class="st0" d="M93.6 36.5v2.7c0 1.1.1 1.7.4 2.2.4.6 1 .6 1.5.6l.6.1v.6c-1.9-.1-2.6-.1-3.7-.1s-1.7 0-3.7.1v-.6l.6-.1c.5 0 1.1-.1 1.5-.6.3-.5.4-1.1.4-2.2v-9.5c0-1.1-.1-1.7-.4-2.2-.4-.6-1-.6-1.5-.6l-.6-.1v-.6c1.9.1 2.6.1 3.7.1s1.7 0 3.7-.1v.6l-.7.1c-.5 0-1 .1-1.5.6-.3.5-.4 1.1-.4 2.2v5.9c1.8-1.8 6.1-6.3 6.1-7.8 0-.8-.6-.8-1.7-.9h-.3v-.6c.9.1 2.5.1 3.3.1l2.3-.1v.6c-1.1 0-1.7.3-2.4 1.2l-1.7 2-2.7 3.1 4.2 4.7c1.4 1.7 1.6 2 2.9 3.4.8.9 1.2.7 1.6.8l.5.1v.6l-3.9-.2-3.7.1v-.6l.7-.1c.6-.1 1.2-.2 1.2-.6 0-.4-.3-.8-1.5-2.3L95 34.9l-1.4 1.6zm16 10.5c0 1.7.6 1.7 1.2 1.8l.6.1v.6c-.8 0-2-.1-2.9-.1s-1.9 0-2.8.1v-.6l.5-.1c1.3-.2 1.3-1 1.3-1.8V35.2c0-.7 0-2.3-1.5-2.3h-.3v-.5c1.7-.2 2.9-.6 3.5-.9.1.3.2 1 .2 2.2.6-1.1 1.8-2 3.7-2 3.4 0 5.5 2.6 5.5 5.7 0 3.8-2.9 5.6-5.5 5.6-.9 0-2.3-.3-3.4-1.5l-.1 5.5zm0-8.2c0 1.8 1 3.3 2.8 3.3s3.7-1.3 3.7-4.9c0-4.2-2.2-4.9-3.3-4.9-1.8 0-3.2 1.4-3.2 3.3v3.2zm20.3 2.1c-1.5 1.9-3.3 2.1-4.2 2.1-4 0-5.9-2.8-5.9-5.5 0-3.1 2.6-5.8 5.9-5.8 2.7 0 4.5 1.8 4.7 3.8v.3c0 .2-.1.2-.5.2h-7.5c-.1.4-.1.8-.1 1.2 0 3.1 1.8 4.9 4 4.9 1.6 0 2.6-1 3.1-1.7l.5.5zm-2.9-5.7c.9 0 .9-.1.9-.6 0-2.2-1.6-2.5-2.3-2.5-1.7 0-2.8 1.5-3 3.1h4.4zm15.7 10.9h-.7l-.1-.6c-.3-1.5-1.3-2.9-2.9-2.9h-4.4c-1.7 0-2.7 1.4-2.9 2.9l-.1.6h-.6v-4h.8c.6 0 1.2-.8 1.6-1.4 1.1-1.8 1.6-3.4 1.7-5.3.2-1.5.1-2.8-1.5-2.8h-.4V32c.9.1 2 .1 2.9.1h4c.8 0 1.9-.1 2.6-.1v.6l-.5.1c-1.2.2-1.3.9-1.3 1.8V41c0 .8.1 1.1.7 1.1h1.1v4zm-4.1-12.7c0-.4 0-.7-.6-.7h-1c-.8 0-1 0-1.2 1.6l-.2 1.2c-.4 3.2-1 4.4-1.9 5.8-.2.3-.2.5-.2.6 0 .4.6.3.7.3h3.8c.4 0 .6-.1.6-.8v-8zm5 8.7l.5-.1c1.2-.2 1.3-.9 1.3-1.8v-5.9c0-.9-.1-1.7-1.3-1.8l-.5-.1v-.6c.9.1 1.9.1 2.8.1.9 0 1.9 0 2.8-.1v.6l-.5.1c-1.2.2-1.3.9-1.3 1.8v5.6l5.7-6.3c0-.8-.6-1-1.2-1.1l-.5-.1v-.6c.9.1 1.9.1 2.8.1.9 0 1.9 0 2.8-.1v.6l-.5.1c-1.2.2-1.3.9-1.3 1.8v5.9c0 .9.1 1.7 1.3 1.8l.5.1v.6c-.9 0-1.9-.1-2.8-.1-.9 0-1.9 0-2.8.1v-.6l.5-.1c1.2-.2 1.3-.9 1.3-1.8v-5.7l-5.7 6.4c0 .8.5 1 1.2 1.1l.5.1v.6c-.9 0-1.9-.1-2.8-.1-.9 0-1.9 0-2.8.1v-.6zm22.4.6c-.9 0-1.9-.1-2.8-.1-.9 0-1.9 0-2.8.1v-.6l.5-.1c1.2-.2 1.3-.9 1.3-1.8V34c0-1.1-.1-1.3-.8-1.3h-.4c-1.2 0-2 .4-2.6 2l-.2.6h-.7l.3-3.3h1.5c.6 0 1.3.1 1.9.1h4c.6 0 1.3 0 1.9-.1h1.5l.3 3.3h-.6l-.2-.6c-.6-1.6-1.4-2-2.6-2h-.3c-.7 0-.8.2-.8 1.3v6.3c0 .9.1 1.7 1.3 1.8l.5.1-.2.5z"/><path class="st1" d="M93.6 18.1c0 2.4.2 3 2.3 3.2l.6.1v.6c-1.9-.1-2.8-.1-3.2-.1h-1.7c-.4 0-1.1 0-2.8.1v-.6l.6-.1c1.2-.1 1.7-.4 1.7-2.9V9c0-1.1-.1-1.8-.4-2.2-.4-.6-1-.6-1.5-.6l-.6-.1v-.6c.5 0 1.7.1 2.3.1h1.5c3.5 0 9.3-.6 9.3 4.2 0 3.1-3 4.5-6.2 4.5-.6 0-1.6-.1-1.9-.1v3.9zm0-4.5c.2 0 .9.1 1.6.1 3 0 3.7-2.2 3.7-4 0-3.6-2.9-3.6-3.8-3.6-1.2 0-1.5-.1-1.5.9v6.6zm18.7 6.6c-1.5 1.9-3.3 2.1-4.2 2.1-4 0-5.9-2.8-5.9-5.5 0-3.1 2.6-5.8 5.9-5.8 2.7 0 4.5 1.8 4.7 3.8v.3c0 .2-.1.2-.5.2h-7.5v1.2c0 3.1 1.8 4.9 4 4.9 1.6 0 2.6-1 3.1-1.7l.4.5zm-2.8-5.6c.9 0 .9-.1.9-.6 0-2.2-1.6-2.5-2.3-2.5-1.7 0-2.8 1.5-3 3.1h4.4zm9.9 7.4c-.9-.1-1.9-.1-2.8-.1s-1.9 0-2.8.1v-.6l.5-.1c1.2-.2 1.3-.9 1.3-1.8v-5.9c0-.9-.1-1.7-1.3-1.8l-.5-.1v-.5c.9.1 1.9.1 2.8.1s1.9 0 2.8-.1v.6l-.5.1c-1.2.2-1.3.9-1.3 1.8v2.4h5.5v-2.4c0-.9-.1-1.7-1.3-1.8l-.5-.1v-.6c.9.1 1.9.1 2.8.1s1.9 0 2.8-.1v.6l-.5.1c-1.2.2-1.3.9-1.3 1.8v5.8c0 .9.1 1.7 1.3 1.8l.5.1v.6c-.9-.1-1.9-.1-2.8-.1s-1.9 0-2.8.1v-.6l.5-.1c1.2-.2 1.3-.9 1.3-1.8v-2.8h-5.5v2.8c0 .9 0 1.7 1.3 1.8l.5.1v.6zm19-1.8c-1.5 1.9-3.3 2.1-4.2 2.1-4 0-5.9-2.8-5.9-5.5 0-3.1 2.6-5.8 5.9-5.8 2.7 0 4.5 1.8 4.7 3.8v.3c0 .2-.1.2-.5.2h-7.5c-.1.4-.1.8-.1 1.2 0 3.1 1.8 4.9 4 4.9 1.6 0 2.6-1 3.1-1.7l.5.5zm-3-5.6c.9 0 .9-.1.9-.6 0-2.2-1.6-2.5-2.3-2.5-1.7 0-2.8 1.5-3 3.1h4.4zm14.3 5.8c-1.5 1.7-3.1 1.9-4.3 1.9-3.3 0-5.4-2.2-5.4-5.3 0-2.6 1.7-6 6-6 2.3 0 3.4.8 3.4 1.7 0 .5-.3.9-.8.9s-.9-.2-1.2-1c-.1-.4-.2-.9-1.2-.9-1.5 0-3.6 1.1-3.6 5 0 4.2 2.3 4.9 3.6 4.9s2.4-.7 3.1-1.6l.4.4zm11.1 0c-1.5 1.7-3.1 1.9-4.2 1.9-3.3 0-5.4-2.2-5.4-5.3 0-2.6 1.7-6 6-6 2.3 0 3.4.8 3.4 1.7 0 .5-.3.9-.8.9s-.9-.2-1.2-1c-.1-.4-.2-.9-1.2-.9-1.5 0-3.6 1.1-3.6 5 0 4.2 2.3 4.9 3.6 4.9s2.4-.7 3.1-1.6l.3.4zm12.1.2c-.6 1.2-1.5 1.7-2.2 1.7-.9 0-1.8-.6-2.1-1.7-1.1.9-2.4 1.7-4 1.7-1.7 0-2.7-1.1-2.7-2.2 0-2.5 2.9-3.4 5.5-4.5 1.1-.5 1.1-.6 1.1-1v-.4c0-1.8-.3-2.7-2.2-2.7-1.4 0-2.2.4-2.2 1.4 0 .3 0 1.2-1 1.2-.5 0-.9-.3-.9-.9 0-1.2 1.6-2.2 4.5-2.2 3.9 0 4 1.8 4 4.3V19c0 1 0 2.3.9 2.3.4 0 .6-.3.8-.6l.1-.2.4.1zm-4.5-4.8l-.5.2c-1.8.8-4 1.7-4 3.7 0 .8.6 1.7 1.7 1.7 1.2 0 2.4-1.1 2.8-1.4v-4.2z"/><path class="st1" d="M178.5 22c-.9-.1-1.9-.1-2.8-.1-.9 0-1.9 0-2.8.1v-.6l.5-.1c1.2-.2 1.3-.9 1.3-1.8v-5.9c0-.9-.1-1.7-1.3-1.8l-.5-.1v-.5c.9.1 1.9.1 2.8.1.9 0 1.9 0 2.8-.1v.6l-.5.1c-1.2.2-1.3.9-1.3 1.8v2.4h5.5v-2.4c0-.9-.1-1.7-1.3-1.8l-.5-.1v-.6c.9.1 1.9.1 2.8.1.9 0 1.9 0 2.8-.1v.6l-.4.1c-1.2.2-1.3.9-1.3 1.8v5.8c0 .9.1 1.7 1.3 1.8l.5.1v.6c-.9-.1-1.9-.1-2.8-.1-.9 0-1.9 0-2.8.1v-.6l.5-.1c1.2-.2 1.3-.9 1.3-1.8v-2.8h-5.5v2.8c0 .9.1 1.7 1.3 1.8l.5.1-.1.6zm18.6-1.6c-1.4 1.7-3.1 1.9-4.3 1.9-3.3 0-5.4-2.2-5.4-5.3 0-2.6 1.7-6 6-6 2.3 0 3.4.8 3.4 1.7 0 .5-.3.9-.8.9s-.9-.2-1.2-1c-.1-.4-.2-.9-1.2-.9-1.5 0-3.6 1.1-3.6 5 0 4.2 2.3 4.9 3.6 4.9s2.4-.7 3.1-1.6l.4.4zm-163.7-.2c-.8 0-2.4.4-4 1l.8-4.7h6.6c1.1 0 2-.9 2-2v-1.4h-9.6l-.3.9c0 .1-.1.2-.1.4v.1L27.7 23c.7-.2 2-.6 3.4-.6 2.8 0 4.6 1.8 4.6 4.6 0 2.3-.9 4-2.9 4-1.8 0-3.3-1.2-4-1.9-.4-.3-.7-.4-1.1-.2-.5.4-1 1.1-1 1.6s.2.8.8 1.3c.7.6 2 1 3.2 1 1.9 0 4.1-.8 5.8-2.1 2.2-1.5 3.1-3.3 3.1-5.3 0-2.7-2.3-5.2-6.2-5.2z"/><path id="XMLID_9_" class="st1" d="M17.6 26.9v-1c2.4-.1 2.6-.6 2.6-2.7V12.3c0-1.6-.1-1.8-1.3-1.9l-1.5-.1v-.9c2-.3 4.2-.8 6.8-1.6v15.3c0 2.1.2 2.6 2.6 2.7v1l-9.2.1z"/><path class="st0" d="M12.5 23.6l-1.3.2c-1.6.2-2.4 0-2.9-1l.6-.3c.4.7.9.8 2.2.6l2-.3.4 2.9-4.5.7-.1-.8 3.8-.6-.2-1.4zm1.3 3l1.3 2.9-.6.3-1-2.2-1.1.5.8 1.9-.6.3-.8-1.9-1.2.5 1 2.2-.6.3-1.3-2.9 4.1-1.9zM16 32l-3.1 2.3-.5-.6 3.1-2.3-.8-1 .6-.4 2 2.7-.6.3-.7-1zm2.4 7.4l-1.7-1.2 2.5-3.8 1.7 1.1c.7.5.8 1.2.4 1.7-.2.3-.5.5-1 .5.2.4.2.9 0 1.2-.4.7-1.1 1-1.9.5zm1-1.8l-.9-.6-.8 1.1.9.6c.4.3.8.2 1-.2.3-.2.1-.7-.2-.9zm1-1.5l-.9-.6-.6 1 .9.6c.3.2.7.2.9-.1.2-.4 0-.7-.3-.9zm5.3 3.3l-.7.7-1 1-.5-.1-.3-1.3-.2-1-.7 2.7-.7-.2 1.2-4.4.7.2.4 1.9.2 1.3.9-1 1.3-1.4.7.2-1.2 4.4-.7-.2.6-2.8zm2.2-1.5l3.1.1v.7l-2.4-.1-.1 1.2 2 .1v.7l-2-.1-.1 1.3 2.4.1v.7l-3.1-.1.2-4.6zm6.7 1.1c-.3-.2-.6-.3-1-.3-.5 0-1 .3-1 .9V41c0 .7.5.9.9.9.3 0 .7-.1 1-.3l.4.6c-.3.2-.8.4-1.4.4-.9 0-1.7-.5-1.7-1.5v-1.7c0-.9.8-1.5 1.7-1.5.5 0 1 .1 1.3.4l-.2.7zm3.1-.3l.1 3.9H37v-3.9h-1.3V38H39v.7h-1.3zm2.1-.7l3.1-.2v.7l-2.4.1.1 1.2 2-.1v.7l-2 .1.1 1.3 2.4-.1v.7l-3.1.2-.2-4.6z"/><path class="st1" d="M44.5 11.4h.6C44 8.6 41.7 6 38.7 4.6c-1.7-.8-3.6-1.3-5.4-1.4-1.7-.1-3.3-.2-5-.3s-3.3-.1-5-.1-3.3-.1-5 0c-3.3 0-6.6.2-9.9.4l-2.2.2.2 1.9.3 3.8c.1 1.3.3 2.5.4 3.8s.3 2.5.5 3.8c.2 1.3.4 2.5.7 3.8h.3l.1-15h19.6c3.3.1 6.7-.4 9.8.8 2.6 1 4.9 2.8 6.4 5.1z"/><path class="st2" d="M63.4 25v-9.4c0-4.9 4-8.9 8.9-8.9h6.4v12.7c0 3.1-2.5 5.6-5.5 5.6h-9.8z"/><path class="st3" d="M67.9 26.4h10.5v3.9c0 4.1-3.4 7.5-7.5 7.5h-6.3V43h-1.4V31.1c0-2.6 2.2-4.7 4.7-4.7z"/><path d="M59.3 25h-7.7c-4.1 0-7.5-3.4-7.5-7.5v-4.6h10.5c2.6 0 4.7 2.1 4.7 4.7V25z" fill="#d50057"/><path class="st3" d="M54.6 26.2H44.1v3.9c0 4.1 3.4 7.5 7.5 7.5H58V43h1.4V30.9c-.1-2.6-2.2-4.7-4.8-4.7z"/><path class="st2" d="M60.5 43V14.5c0-6.1 5-11.1 11.1-11.1h.2v1.5h-.2c-5.3 0-9.6 4.3-9.6 9.6V43h-1.5z"/></svg>