<svg width="178" height="81" viewBox="0 0 178 81" fill="none" xmlns="http://www.w3.org/2000/svg">
<g clip-path="url(#clip0_489_17315)">
<path d="M0.05182 21.1634C0.0504451 25.3405 1.28208 29.4243 3.59096 32.8981C5.89985 36.372 9.18226 39.0799 13.0231 40.6794C16.8639 42.2789 21.0905 42.6981 25.1685 41.884C29.2464 41.0699 32.9925 39.0591 35.9329 36.1059C38.8733 33.1527 40.876 29.3897 41.6876 25.2929C42.4992 21.1962 42.0834 16.9496 40.4926 13.0902C38.9019 9.2309 36.2077 5.93222 32.7508 3.61137C29.2939 1.29052 25.2296 0.051758 21.0719 0.0517578C15.4982 0.0517575 10.1528 2.27579 6.21092 6.23478C2.26909 10.1938 0.0536631 15.5636 0.05182 21.1634" fill="#EC6608"/>
<path d="M0.05182 21.1634C0.0504451 25.3405 1.28208 29.4243 3.59096 32.8981C5.89985 36.372 9.18226 39.0799 13.0231 40.6794C16.8639 42.2789 21.0905 42.6981 25.1685 41.884C29.2464 41.0699 32.9925 39.0591 35.9329 36.1059C38.8733 33.1527 40.876 29.3897 41.6876 25.2929C42.4992 21.1962 42.0834 16.9496 40.4926 13.0902C38.9019 9.2309 36.2077 5.93222 32.7508 3.61137C29.2939 1.29052 25.2296 0.051758 21.0719 0.0517578C15.4982 0.0517575 10.1528 2.27579 6.21092 6.23478C2.26909 10.1938 0.0536631 15.5636 0.05182 21.1634" stroke="#EC6608" stroke-width="0.3"/>
<path d="M0.0518188 53.5435C0.0518188 56.6512 9.46012 59.1723 21.0719 59.1723C32.6837 59.1723 42.0885 56.6512 42.0885 53.5435C42.0885 50.4357 32.6802 47.9111 21.0719 47.9111C9.46359 47.9111 0.0518188 50.4287 0.0518188 53.5435Z" fill="#EC6608" stroke="#EC6608" stroke-width="0.3"/>
<path d="M21.0719 64.8037C36.2079 64.8037 42.0885 66.2773 42.0885 68.327C42.0885 70.3767 36.2079 71.8397 21.0719 71.8397C5.93592 71.8397 0.0518188 70.3697 0.0518188 68.327C0.0518188 66.2842 5.92896 64.8037 21.0719 64.8037Z" fill="#EC6608" stroke="#EC6608" stroke-width="0.3"/>
<path d="M21.0719 77.4727C39.7391 77.4727 42.0885 77.8952 42.0885 78.8694C42.0885 79.8436 39.7391 80.2661 21.0719 80.2661C2.40476 80.2661 0.0518188 79.8715 0.0518188 78.8834C0.0518188 77.8952 2.39434 77.4727 21.0719 77.4727Z" fill="#EC6608" stroke="#EC6608" stroke-width="0.3"/>
<path d="M67.2518 52.5344C69.1001 52.5783 70.9168 53.0251 72.5763 53.8439L73.341 58.4845H75.7982V51.7034C73.1625 50.7074 70.3701 50.1953 67.5542 50.1914C62.2018 50.1914 58.7367 52.0002 56.6757 53.8508C54.1316 56.0926 51.8969 59.8812 51.8969 65.304C51.8969 71.2402 54.5695 74.7774 55.9354 76.2335C59.3484 79.9313 63.5643 80.8113 67.1093 80.8113C70.0711 80.7854 73.0078 80.2626 75.7982 79.2644V72.3122H73.341L72.2531 77.8467C70.8039 78.2329 69.3139 78.4439 67.8148 78.4752C63.2515 78.4752 60.6656 76.3627 59.265 74.5993C57.6836 72.6159 56.4846 69.4908 56.4846 65.3494C56.4846 61.8576 57.3708 58.1667 59.4735 55.7853C60.9576 54.1162 63.5503 52.5274 67.2379 52.5274" fill="#223E92"/>
<path d="M103.776 53.5053C106.713 56.2394 108.6 60.4226 108.6 65.4858C108.6 70.2032 106.984 74.0722 104.652 76.6352C102.727 78.7478 99.4388 81 94.4827 81C89.9645 81 86.628 79.1423 84.4036 76.8098C82.6936 74.9975 80.2781 71.3835 80.2781 65.4788C80.2781 59.3995 82.8188 55.5655 85.1926 53.4494C87.7894 51.1771 91.1333 49.9539 94.5765 50.017C98.702 50.017 101.628 51.5115 103.783 53.5088L103.776 53.5053ZM88.2615 54.9614C86.0719 57.2555 84.8832 61.0861 84.8832 65.4369C84.8832 67.1514 85.0605 71.5127 87.337 74.8194C88.1057 75.9751 89.1411 76.9269 90.355 77.5937C91.5689 78.2605 92.9253 78.6225 94.3085 78.649C95.6918 78.6754 97.0609 78.3654 98.2991 77.7454C99.5373 77.1254 100.608 76.2138 101.42 75.0883C103.815 71.8409 104.009 67.3365 104.009 65.5766C104.009 61.0372 102.775 57.252 100.718 55.0487C99.9026 54.1811 98.9162 53.4938 97.8216 53.0309C96.7271 52.5679 95.5485 52.3394 94.361 52.36C93.2215 52.347 92.0916 52.5711 91.0424 53.0182C89.9933 53.4653 89.0476 54.1257 88.2649 54.9579" fill="#223E92"/>
<path d="M148.034 53.4563C146.407 51.9164 143.474 50.0238 138.924 50.0238C135.547 49.9761 132.273 51.2006 129.749 53.4563C126.148 56.77 125.349 61.5573 125.116 64.3089H118.954V52.8138L122.43 52.5344V50.7292H111.777V52.5344L115.02 52.8208V78.1994L111.777 78.4822V80.2945H122.43V78.4752L118.954 78.1959V66.3237H125.067C125.259 70.7269 127.007 74.6028 128.953 76.7992C130.753 78.8174 133.854 80.9893 138.723 80.9893C143.776 80.9893 146.887 78.7371 148.774 76.6246C151.141 73.9778 152.632 70.1472 152.632 65.4507C152.632 60.2898 150.787 56.1031 148.02 53.4598L148.034 53.4563ZM145.531 75.1091C144.757 76.2305 143.718 77.1422 142.508 77.7632C141.298 78.3842 139.954 78.6952 138.596 78.6686C137.237 78.642 135.906 78.2786 134.721 77.6107C133.536 76.9428 132.534 75.9911 131.803 74.8402C130.138 72.375 129.436 68.6702 129.436 65.4577C129.436 62.0636 130.309 57.5696 132.728 54.9822C134.17 53.3934 136.182 52.3843 138.984 52.3843C141.354 52.3843 143.231 53.0826 144.857 54.9822C147.186 57.6709 148.013 61.9868 148.013 65.6009C148.013 68.953 147.276 72.6474 145.525 75.1231" fill="#223E92"/>
<path d="M162.513 63.778V66.4179L166.294 65.9709C167.876 65.9709 170.465 66.149 172.081 67.8635C172.912 68.705 173.614 70.1576 173.614 72.1829C173.614 74.1243 173.002 75.9296 171.032 77.2076C169.405 78.311 167.208 78.6044 165.422 78.6044C163.651 78.6314 161.905 78.1779 160.369 77.2914L159.618 71.6556H157.185V79.4075C159.915 80.3124 162.769 80.7837 165.644 80.8042C168.244 80.8042 172.095 80.2281 174.59 78.4682C177.086 76.7083 178.014 74.3757 178.014 71.5997C178.014 69.791 177.534 68.0311 175.908 66.5715C174.417 65.2516 172.22 64.5916 170.347 64.5008V64.417C171.955 63.9916 173.441 63.1913 174.684 62.081C175.286 61.5026 175.76 60.8044 176.077 60.0312C176.395 59.2579 176.547 58.4266 176.526 57.5905C176.526 54.5072 174.997 52.6566 173.232 51.595C171.212 50.4113 168.595 50.1983 166.044 50.1983C163.34 50.1922 160.652 50.6081 158.075 51.4309V58.2575H160.528L161.067 53.519C162.649 52.8188 164.354 52.4391 166.082 52.4017C167.747 52.4017 169.238 52.7089 170.521 53.8577C171.522 54.7831 172.224 56.0995 172.224 58.0479C172.26 58.9011 172.092 59.7506 171.733 60.5248C171.374 61.299 170.836 61.9752 170.163 62.4965C169.057 63.3956 167.703 63.933 166.284 64.0364L162.53 63.785" fill="#223E92"/>
<path d="M71.6275 24.1394C69.3476 22.5995 66.5428 22.3935 64.0439 22.3935C62.3884 22.3954 60.7341 22.484 59.0878 22.6588V11.9354H70.2964L71.0193 16.3421H73.4765V9.91016H51.8969V11.7189L55.143 12.0053V37.3769L51.8969 37.6667V39.4755H63.4669C65.8025 39.4755 69.5283 39.2101 72.1106 37.0941C74.5227 35.1561 74.964 32.6909 74.964 30.8402C74.964 27.7918 73.8623 25.6374 71.6275 24.1394V24.1394ZM68.7741 35.6869C66.9772 37.3629 64.2246 37.4328 62.2887 37.4328C61.2193 37.4379 60.1506 37.3808 59.0878 37.2617V24.7539C60.5365 24.5254 62.0005 24.4086 63.4669 24.4047C65.3576 24.4047 67.4673 24.6212 68.9965 26.21C70.3589 27.6626 70.5779 29.6041 70.5779 30.9275C70.5779 32.3242 70.2721 34.2762 68.7741 35.6869Z" fill="#223E92"/>
<path d="M105.305 37.1392L94.7885 9.55371H91.8968L81.6336 37.1392L78.0225 37.6664V39.4752H87.6741V37.6664L84.1985 37.3906L87.5211 28.4096H97.8748L101.246 37.4011L98.0069 37.6664V39.4752H107.957V37.6664L105.316 37.1392H105.305ZM88.2684 26.3843L92.6059 14.1874L97.1241 26.3843H88.258" fill="#223E92"/>
<path d="M142.973 11.7184V9.91309H132.317V11.7184L135.782 11.9942V23.4858H120.699V11.9942L124.164 11.7184V9.91309H113.497V11.7184L116.74 12.0082V37.3798L113.497 37.6662V39.4749H124.164V37.6662L120.699 37.3868V25.5146H135.782V37.3868L132.317 37.6662V39.4749H142.973V37.6662L139.727 37.3798V12.0047L142.973 11.7184Z" fill="#223E92"/>
<path d="M174.705 37.4427L164.744 23.0738L173.954 12.0675L176.843 11.7184V9.91309H167.73V11.7184L170.896 12.0047L161.356 23.7058H158.113V11.9942L161.578 11.7184V9.91309H150.922V11.7184L154.165 12.0047V37.3798L150.922 37.6662V39.4749H161.578V37.6662L158.113 37.3868V25.5146H161.745L171.598 39.4749H178V37.6662L174.705 37.4427Z" fill="#223E92"/>
</g>
<defs>
<clipPath id="clip0_489_17315">
<rect width="178" height="81" fill="white"/>
</clipPath>
</defs>
</svg>
