<svg xmlns="http://www.w3.org/2000/svg" viewBox="0 0 358 46"><path d="M73.19 15.909a3.52 3.52 0 011.286-4.805l15.87-9.162a1.763 1.763 0 011.757.002l15.864 9.16a3.516 3.516 0 11-3.515 6.09l-13.23-7.64-13.23 7.64a3.516 3.516 0 01-4.802-1.285" fill="#ee3224"/><path d="M106.074 21.045H76.369c-.97 0-1.755.786-1.755 1.758v17.136a3.953 3.953 0 107.907 0V28.073h4.745V39.94a3.956 3.956 0 007.91 0V28.073h4.746V39.94a3.955 3.955 0 007.91 0V22.803c0-.972-.786-1.758-1.758-1.758m-87.13 11.494a7.816 7.816 0 00-1.757-.926c1.223-.663 2.873-2.05 2.873-4.569 0-.89-.027-5.999-7.109-5.999H2.311a.65.65 0 00-.65.65V43.24c0 .36.29.654.65.654h11.252c7.271 0 7.751-5.42 7.751-6.54 0-2.47-1.152-3.94-2.37-4.814zM8.617 26.234h2.375c.495 0 1.137.048 1.65.306.477.24.858.66.858 1.518 0 1.062-.666 1.692-2.508 1.692H8.617v-3.516zm2.633 12.47H8.617v-3.765h2.633c1.971 0 2.988.774 2.988 1.812 0 1.224-.9 1.953-2.988 1.953zm223.594-19.396c3.458 0 5.693-1.458 7.037-3.356a.65.65 0 00-.16-.906l-3.368-1.695c-.267-.123-.585-.045-.84.282-.68.966-1.677 1.437-2.67 1.437-.99 0-1.988-.471-2.672-1.437-.252-.327-.57-.405-.837-.282l-3.366 1.695a.647.647 0 00-.162.906c1.341 1.898 3.579 3.356 7.038 3.356zM61.746 26.432c1.733 0 3.39.864 4.517 2.211a.654.654 0 00.924 0l3.159-3.95c.254-.255.254-.666-.018-.954-2.26-1.99-5.313-3.09-8.582-3.09-6.674 0-11.648 4.59-11.648 11.815 0 4.758 2.853 11.828 11.648 11.828 3.746 0 6.566-1.29 8.563-3.153.256-.258.256-.669-.02-.984l-3.057-3.821a.654.654 0 00-.924 0c-1.248 1.449-3.105 2.172-4.562 2.172-2.355 0-4.722-1.93-4.722-6.042 0-3.365 1.722-6.032 4.722-6.032zm-26.04-5.783c-6.677 0-11.65 4.59-11.65 11.815 0 4.758 2.85 11.828 11.65 11.828 8.798 0 11.654-7.07 11.654-11.828 0-7.226-4.977-11.815-11.654-11.815zm0 17.989c-2.349 0-4.721-1.962-4.721-6.174 0-3.446 1.722-6.164 4.721-6.164s4.722 2.718 4.722 6.164c0 4.212-2.373 6.174-4.722 6.174zm148.297-17.593h-5.648a.651.651 0 00-.654.65v7.956h-6.73v-7.955a.654.654 0 00-.655-.651h-5.651a.652.652 0 00-.651.65V43.24c0 .36.294.654.65.654h5.652c.36 0 .654-.294.654-.654v-8.378h6.731v8.378c0 .36.291.654.654.654h5.648c.36 0 .651-.294.651-.654V21.696a.65.65 0 00-.65-.651zm60.4 0h-5.909a.638.638 0 00-.573.342l-6.332 11.806V21.696a.652.652 0 00-.65-.651h-5.655a.652.652 0 00-.651.65V43.24c0 .36.294.654.65.654h5.919c.24 0 .471-.147.573-.342l6.323-11.821V43.24c0 .36.294.654.654.654h5.651c.36 0 .651-.294.651-.654V21.696a.65.65 0 00-.65-.651zm-120.839-.396c-6.677 0-11.65 4.59-11.65 11.815 0 4.758 2.853 11.828 11.65 11.828 8.798 0 11.65-7.07 11.65-11.828 0-7.226-4.976-11.815-11.65-11.815zm0 17.989c-2.348 0-4.72-1.962-4.72-6.174 0-3.446 1.724-6.164 4.72-6.164 2.997 0 4.722 2.718 4.722 6.164 0 4.212-2.373 6.174-4.722 6.174zm95.07-17.593h-5.652a.648.648 0 00-.647.65V43.24c0 .36.287.654.647.654h5.652c.36 0 .654-.294.654-.654V21.696a.653.653 0 00-.654-.651zm-18.403 8.342h-3.272v-7.691a.653.653 0 00-.654-.651h-5.652a.65.65 0 00-.65.65V43.24c0 .36.29.654.65.654h9.578c5.918 0 9.059-2.562 9.059-7.343 0-4.772-3.156-7.163-9.059-7.163zm-.6 9.317h-2.672v-4.13h2.672c.501 0 1.2.044 1.758.317.522.255.948.717.948 1.659 0 1.812-1.695 2.154-2.706 2.154zm-41.616-17.659h-5.651a.65.65 0 00-.651.65v9.378c-5.415.816-6.368-1.095-6.368-2.757v-6.62a.652.652 0 00-.651-.651h-5.655a.658.658 0 00-.633.495c-.006.867-.024 2.745-.018 4.535.012 2.418.06 5.118.216 6.063.504 3.053 3.279 4.241 6.108 4.58 2.567.312 5.345-.048 7-.465v6.986c0 .36.292.654.652.654h5.65c.36 0 .655-.294.655-.654V21.696a.653.653 0 00-.654-.651zm172.249 0h-5.649a.653.653 0 00-.653.65v7.956h-6.732v-7.955a.65.65 0 00-.65-.651h-5.649a.651.651 0 00-.654.65V43.24c0 .36.291.654.654.654h5.649c.36 0 .65-.294.65-.654v-8.378h6.732v8.378c0 .36.294.654.653.654h5.649a.654.654 0 00.654-.654V21.696a.651.651 0 00-.654-.651zm-55.907 8.606h-4.946v-3.393h10.427c.36 0 .65-.294.65-.657v-3.905a.65.65 0 00-.65-.651h-16.732a.648.648 0 00-.648.65V43.24c0 .36.288.654.648.654h11.251c7.223 0 7.745-5.282 7.754-7.142-.009-1.82-.53-7.1-7.754-7.1zm-2.313 9.053h-2.633v-3.87h2.633c2.05 0 2.955.705 2.988 1.956-.036 1.215-.939 1.914-2.988 1.914zm77.261-6.237l6.923-10.402a.66.66 0 00.111-.37c0-.36-.288-.65-.648-.65h-6.017a.655.655 0 00-.56.315l-5.895 9.683v-9.347a.65.65 0 00-.65-.651h-5.652a.653.653 0 00-.654.65v21.547c0 .36.294.65.654.65h5.651a.65.65 0 00.651-.65v-9.344l5.894 9.68a.655.655 0 00.561.315h6.017a.65.65 0 00.648-.654.626.626 0 00-.11-.363l-6.924-10.409zm-50.31-11a.652.652 0 00-.611-.422h-6.053a.656.656 0 00-.615.423L283.52 43.01a.655.655 0 00.612.882h5.957a.657.657 0 00.627-.462l1.002-3.36h7.274l1.005 3.36a.663.663 0 00.627.462h5.957a.653.653 0 00.612-.882l-8.198-21.543zm-5.71 13.394l2.07-6.917 2.075 6.917h-4.145z" fill="#00559f"/></svg>