<svg width="239" height="22" xmlns="http://www.w3.org/2000/svg"><g fill-rule="evenodd"><path d="M30 16.72a9.7 9.7 0 003.42-.56 6.26 6.26 0 003.85-3.92 9.7 9.7 0 000-6.07 7 7 0 00-1.47-2.45 6.67 6.67 0 00-2.37-1.62 8.5 8.5 0 00-3.21-.58 9.8 9.8 0 00-1.87.18 10.82 10.82 0 00-1.6.44c-.45.164-.892.354-1.32.57l.85 2.59a8.82 8.82 0 011.82-.73 6.77 6.77 0 011.75-.25 5.07 5.07 0 012.2.44 3.49 3.49 0 011.4 1.19 4.39 4.39 0 01.67 1.74h-6.75v2.72h6.79a3.78 3.78 0 01-1.3 2.58 4.62 4.62 0 01-3 .9 9.82 9.82 0 01-2-.21 8.89 8.89 0 01-1.89-.61v2.94a10 10 0 001.16.35 13.13 13.13 0 002.93.35l-.06.01zm9.68-.22h3.4v-4.16h1.37a.55.55 0 01.41.22c.156.206.278.435.36.68l1.15 3.26h3.69l-1.91-4.14a2.48 2.48 0 00-.52-.76 2 2 0 00-.67-.43 1.47 1.47 0 00.43-.47 4 4 0 00.3-.62c.09-.22.18-.44.27-.65.084-.2.195-.39.33-.56a.92.92 0 01.31-.23 1 1 0 01.41-.08c.12-.01.24-.01.36 0l.31.08V5.78a2.36 2.36 0 00-.43-.1l-.49-.06h-.41a2.93 2.93 0 00-1.26.25 2.22 2.22 0 00-.81.65 4 4 0 00-.48.82c-.13.3-.24.59-.35.88-.11.29-.21.56-.32.8a1.8 1.8 0 01-.4.58.86.86 0 01-.6.22h-1.06V5.88h-3.4v10.64l.01-.02zm16.56.22c.5.002 1-.045 1.49-.14a7.13 7.13 0 001.32-.38 5.22 5.22 0 001.06-.58l-.94-2.29a6.24 6.24 0 01-1.18.53 4 4 0 01-1.25.19 2.87 2.87 0 01-1.4-.33 2.2 2.2 0 01-.92-1 3.67 3.67 0 010-3.05 2.54 2.54 0 01.94-1.05 2.85 2.85 0 011.51-.4 4.13 4.13 0 011.41.23c.44.166.851.399 1.22.69V6.33a4.08 4.08 0 00-.69-.36 5.17 5.17 0 00-1-.3 7.05 7.05 0 00-1.35-.12 6.33 6.33 0 00-1.79.25 6.09 6.09 0 00-1.6.74 5.33 5.33 0 00-2.15 2.74 5.87 5.87 0 00-.31 1.91 6.31 6.31 0 00.37 2.18 4.92 4.92 0 001.12 1.74 4.87 4.87 0 001.77 1.15 6.6 6.6 0 002.39.42l-.02.04zm4.91-.22h3.4V8.85h3.28v7.65h3.4V5.86H61.16V16.5h-.01zm21.77-4.3v-.79a7.44 7.44 0 00-.6-3.12 4.46 4.46 0 00-1.72-2 5.14 5.14 0 00-2.73-.7 5.33 5.33 0 00-2.21.44 4.42 4.42 0 00-1.59 1.21 5.37 5.37 0 00-1 1.81 7.55 7.55 0 00-.32 2.24 6.61 6.61 0 00.19 1.61 5.16 5.16 0 00.61 1.48 4.52 4.52 0 001.09 1.21 5.12 5.12 0 001.63.82 7.6 7.6 0 002.22.3 8.56 8.56 0 002.05-.23 6.8 6.8 0 001.95-.8l-1-2.29a5.23 5.23 0 01-1.24.53 5.41 5.41 0 01-1.5.19 3.88 3.88 0 01-1.31-.21 2.1 2.1 0 01-.93-.63 1.8 1.8 0 01-.39-1.08h6.75l.05.01zm-6.79-2.25a2.27 2.27 0 01.18-.9 1.63 1.63 0 01.55-.68 1.6 1.6 0 01.93-.27 1.72 1.72 0 011 .27c.244.17.435.406.55.68.117.282.178.584.18.89h-3.4l.01.01zm8.19 11.87h3.4v-5.26c.24.056.484.096.73.12a6.5 6.5 0 00.71 0 6.41 6.41 0 002.38-.43 5.05 5.05 0 002.9-2.94 6 6 0 00.39-2.18 6.44 6.44 0 00-.38-2.27 4.73 4.73 0 00-1.14-1.76 5.1 5.1 0 00-1.91-1.14 8.29 8.29 0 00-2.69-.4 13.91 13.91 0 00-2.38.21 14.82 14.82 0 00-2 .49V21.8l-.01.02zm3.4-8V8.47a3 3 0 01.41-.07h.45a2.81 2.81 0 012.07.71 2.89 2.89 0 01.72 2.12 3.65 3.65 0 01-.27 1.47 2.05 2.05 0 01-.82 1 2.64 2.64 0 01-1.39.34 3.91 3.91 0 01-.63 0l-.54-.11v-.11zm11.07 2.7h3.4V8.67h2.95l.85-2.79H95.7v2.79h3.1v7.85h-.01zm13.53-7.06v4.8h1.31a6.27 6.27 0 001.48-.15c.36-.079.7-.228 1-.44a1.79 1.79 0 00.58-.73 2.61 2.61 0 00.19-1.06 3.22 3.22 0 00-.07-.68 2.25 2.25 0 00-.2-.56 1.81 1.81 0 00-.32-.44 1.83 1.83 0 00-.43-.33 2.67 2.67 0 00-.48-.2 3.87 3.87 0 00-.57-.13l-.67-.07h-1.83l.01-.01zm1.24 7h-3.86V1.39h9.3l-.06.17-.65 1.93v.09h-5.94v3.65h2.17c.367 0 .72.043 1.06.13a7 7 0 01.94.23c.289.09.57.205.84.34.342.172.659.39.94.65.272.25.504.54.69.86.19.331.332.688.42 1.06.095.413.142.836.14 1.26a5.57 5.57 0 01-.08 1 4.7 4.7 0 01-.25.9 3.63 3.63 0 01-.43.8 4.09 4.09 0 01-1.45 1.24 5.93 5.93 0 01-1 .41 7.89 7.89 0 01-1.26.25c-.494.06-.992.09-1.49.09l-.03.01zm16.38 0h-2.09v-.09l-.32-.89-.27.23c-.147.113-.3.22-.46.32a4.38 4.38 0 01-1.05.48 4 4 0 01-.6.13 5 5 0 01-.65 0 4.38 4.38 0 01-1-.11 3.56 3.56 0 01-.87-.32 3.24 3.24 0 01-1.62-2.07 4.21 4.21 0 01-.12-1 4.21 4.21 0 01.06-.69 3.08 3.08 0 01.44-1.14 2.88 2.88 0 01.37-.46c.139-.14.29-.267.45-.38a4.43 4.43 0 011.12-.56 5.28 5.28 0 01.66-.17l.72-.1.78-.05 1.78-.06v-.32a2.68 2.68 0 00-.07-.6 1.59 1.59 0 00-.19-.46 1.47 1.47 0 00-.69-.59 2.36 2.36 0 00-.49-.15 3 3 0 00-.56 0 5.65 5.65 0 00-.79.06 4.76 4.76 0 00-.73.17 6.77 6.77 0 00-.66.25 5.06 5.06 0 00-.58.3l-.12.07-.06-.12-.81-1.55-.06-.11.11-.06a8.23 8.23 0 011-.48 7.78 7.78 0 011-.33 8.24 8.24 0 011-.2 8.41 8.41 0 011.05-.07c.415-.004.83.03 1.24.1.345.067.68.174 1 .32a3 3 0 011.45 1.31c.177.312.305.65.38 1 .087.397.13.803.13 1.21v5.92c0 .25 0 .45.06.64.022.162.056.322.1.48v.17h-.17l.13-.03zm-2.67-2.84v-2.21l-1.46.06h-.52l-.44.07-.37.1a2.06 2.06 0 00-.31.14 1.32 1.32 0 00-.3.22 1.15 1.15 0 00-.21.28 1.33 1.33 0 00-.13.34 1.81 1.81 0 000 .4 1.82 1.82 0 00.11.64c.067.178.173.339.31.47.144.134.314.236.5.3.216.073.442.11.67.11a3 3 0 00.49 0 2.47 2.47 0 00.45-.12l.4-.18a3.1 3.1 0 00.35-.21l.29-.21.2-.17-.03-.03zm7.2 2.84H132V5.56h2.6v4h4.23v-4h2.6v10.9h-2.6v-4.63h-4.23v4.63h-.13zm11.62 0h-2.47V5.56h2.6v4.32h1.15a1 1 0 00.33-.06.85.85 0 00.27-.16 1.57 1.57 0 00.23-.26 2.17 2.17 0 00.19-.34c.06-.127.117-.263.17-.41.053-.147.107-.297.16-.45l.15-.48.17-.49a4.91 4.91 0 01.44-.9 2.2 2.2 0 01.81-.75 2.12 2.12 0 01.55-.2 3 3 0 01.64-.07h.79l.24.06h.09v2.29l-.18-.07h-.72l-.18.06-.15.1a.84.84 0 00-.13.14 2.45 2.45 0 00-.18.31 3.54 3.54 0 00-.15.38l-.2.59-.09.28a4.65 4.65 0 01-.18.45c-.067.14-.137.277-.21.41a2 2 0 01-.28.37l-.19.17.22.12c.13.084.247.185.35.3.11.125.21.259.3.4a5 5 0 01.28.51l2 4 .09.19h-2.82v-.08l-1.46-3.46a4.77 4.77 0 00-.26-.48 1.73 1.73 0 00-.23-.31.79.79 0 00-.2-.16.37.37 0 00-.17 0h-1.56v4.52h-.13l-.08.06z" fill-rule="nonzero"/><path d="M4 0h10.14a4.06 4.06 0 014 4v10.14a4.06 4.06 0 01-4 4H4a4.06 4.06 0 01-4-4V4.05a4.06 4.06 0 014-4V0zm10.14 1.69H4a2.37 2.37 0 00-2.36 2.36v10.14A2.37 2.37 0 004 16.55h10.14a2.37 2.37 0 002.36-2.36V4.05a2.37 2.37 0 00-2.36-2.36z"/><path d="M3.87 9.55a1.057 1.057 0 011.49-1.5l2.69 2.68 4.78-5.49a1.06 1.06 0 111.59 1.39L8.9 12.97v.05a1.05 1.05 0 01-1.49 0L3.92 9.54l-.05.01zm159.8-.25h.91V4.36h2.62V9.3h.91V3.59h-4.44V9.3zm68.52 7.18h.81a2.19 2.19 0 01-.06-.44v-2.3a1.65 1.65 0 00-.19-.82 1.13 1.13 0 00-.54-.48 2.07 2.07 0 00-.86-.16 3 3 0 00-1.54.41l.31.6c.155-.089.32-.16.49-.21a2 2 0 01.6-.09 1.05 1.05 0 01.43.08.62.62 0 01.29.25.83.83 0 01.1.44v.17h-.74a4 4 0 00-.57.06 1.81 1.81 0 00-.47.16 1.33 1.33 0 00-.36.26 1.08 1.08 0 00-.24.37 1.32 1.32 0 00-.08.48c-.005.241.053.48.17.69.111.191.274.347.47.45.213.11.45.165.69.16a1.69 1.69 0 00.87-.25 2.05 2.05 0 00.23-.2l.15.42.04-.05zm-.19-1.95v.93l-.21.17a1.4 1.4 0 01-.3.16 1.1 1.1 0 01-.38.07.69.69 0 01-.49-.17.62.62 0 01-.18-.46.64.64 0 01.07-.31.52.52 0 01.22-.21 1 1 0 01.28-.1 2.19 2.19 0 01.38 0h.61v-.08zm2 1.95h.88v-2.75l.16.3.22.37.65 1.07h.41l.64-1.07.22-.36.17-.31v2.78h.88v-4.1h-.9l-.69 1.16-.2.35-.18.32-.13.26-.13-.29-.18-.32-.2-.34-.71-1.17H234v4.1zm-64.54-5.13h.9V9.27l.32.08c.113.01.227.01.34 0 .29 0 .58-.054.85-.16a1.91 1.91 0 001.1-1.12 2.65 2.65 0 00-.1-2 1.72 1.72 0 00-.74-.74 2.55 2.55 0 00-1.19-.26 4.4 4.4 0 00-1.48.26v6.02zm.9-2.85V5.93l.26-.06h.28a1.47 1.47 0 01.68.15 1 1 0 01.45.45c.115.243.17.51.16.78a1.8 1.8 0 01-.14.74 1.09 1.09 0 01-.42.49 1.29 1.29 0 01-.68.17 1.42 1.42 0 01-.32 0 1.48 1.48 0 01-.28-.1l.01-.05zm5.51.88a2 2 0 00.82-.16 1.83 1.83 0 00.63-.45 2 2 0 00.4-.68 2.6 2.6 0 000-1.7 2.05 2.05 0 00-.4-.68 1.81 1.81 0 00-.63-.45 2.13 2.13 0 00-1.64 0 1.81 1.81 0 00-.63.45 2 2 0 00-.41.68 2.52 2.52 0 00-.14.85c-.003.29.044.577.14.85a2 2 0 00.41.68c.176.193.39.346.63.45a2 2 0 00.82.16zm0-.74a1 1 0 01-.58-.18 1.12 1.12 0 01-.36-.5 2 2 0 01-.13-.73 2 2 0 01.13-.73 1.12 1.12 0 01.36-.49 1 1 0 01.58-.18 1 1 0 01.58.18 1.1 1.1 0 01.36.49 2 2 0 01.12.73 2 2 0 01-.12.73 1.11 1.11 0 01-.36.5.94.94 0 01-.58.18zm4.84 2.7h.87v-2a2.74 2.74 0 00.91-.23 2 2 0 00.65-.47 1.92 1.92 0 00.39-.65 2.28 2.28 0 00.13-.78 2.3 2.3 0 00-.13-.78 1.93 1.93 0 00-1.04-1.12 2.76 2.76 0 00-.91-.23V3.31h-.87v1.8a2.77 2.77 0 00-.91.23 2 2 0 00-.65.47 1.92 1.92 0 00-.39.65 2.3 2.3 0 00-.13.78c-.003.266.041.53.13.78.085.24.218.462.39.65a2 2 0 00.65.47c.288.128.596.206.91.23v2-.03zm0-2.72a1.38 1.38 0 01-.66-.24 1.22 1.22 0 01-.41-.49 1.63 1.63 0 010-1.32 1.22 1.22 0 01.36-.46 1.38 1.38 0 01.66-.24v2.77l.05-.02zm.86 0V5.85c.234.023.457.106.65.24.177.125.318.294.41.49.191.42.191.9 0 1.32a1.25 1.25 0 01-.41.49 1.37 1.37 0 01-.65.24v-.01zm6.4-1.16v-.22a2.94 2.94 0 00-.21-1.15 1.64 1.64 0 00-.6-.74 1.7 1.7 0 00-1-.26 1.74 1.74 0 00-.75.16 1.62 1.62 0 00-.56.44 2 2 0 00-.36.68 2.87 2.87 0 00-.12.86c-.001.275.04.548.12.81a2 2 0 00.37.69c.174.204.393.365.64.47a2.3 2.3 0 00.92.18 3 3 0 00.49 0 2.77 2.77 0 00.48-.13 2.14 2.14 0 00.43-.21l-.27-.62a2.27 2.27 0 01-.47.2 2 2 0 01-.56.08 1.32 1.32 0 01-.64-.15 1.07 1.07 0 01-.42-.42 1.35 1.35 0 01-.16-.62h2.7l-.03-.05zm-2.64-.64c0-.136.02-.27.06-.4a1.09 1.09 0 01.17-.33.8.8 0 01.27-.23.82.82 0 01.37-.08.75.75 0 01.64.32c.072.1.126.211.16.33.035.124.055.251.06.38h-1.72l-.01.01zm5.42 2.56a2.64 2.64 0 001-.19c.13-.053.254-.12.37-.2l-.26-.62a2.56 2.56 0 01-.44.2 1.73 1.73 0 01-.53.08 1.25 1.25 0 01-.65-.16 1.09 1.09 0 01-.43-.47 1.74 1.74 0 01-.15-.76 1.76 1.76 0 01.09-.57 1.34 1.34 0 01.25-.45c.11-.128.246-.23.4-.3a1.34 1.34 0 01.54-.11 1.76 1.76 0 011 .3v-.77a2.12 2.12 0 00-.64-.23 2.34 2.34 0 00-.44 0 2.17 2.17 0 00-.85.17 2 2 0 00-.67.46 2.07 2.07 0 00-.44.69 2.4 2.4 0 00-.16.87c-.005.282.04.563.13.83a1.81 1.81 0 001.03 1.12c.277.11.572.164.87.16l-.02-.05zm3.93 0a2.65 2.65 0 001-.19 2 2 0 00.37-.2l-.26-.62a2.52 2.52 0 01-.44.2 1.72 1.72 0 01-.53.08 1.25 1.25 0 01-.65-.16 1.09 1.09 0 01-.43-.47 1.75 1.75 0 01-.15-.76 1.77 1.77 0 01.09-.57 1.36 1.36 0 01.25-.45c.11-.128.246-.23.4-.3a1.34 1.34 0 01.54-.11 1.7 1.7 0 011 .3v-.77a2.1 2.1 0 00-.64-.23 2.35 2.35 0 00-.44 0c-.292 0-.58.057-.85.17a2.06 2.06 0 00-1.11 1.15 2.39 2.39 0 00-.16.87c-.004.282.04.563.13.83a1.81 1.81 0 001.03 1.12c.277.11.572.164.87.16l-.02-.05zm2.11-.09h.87l1.39-2 .32-.48.23-.37V9.3h.88V5.2h-.87l-1.4 2-.32.48-.24.38V5.2h-.88v4.1l.02-.01zm6.64.09a2 2 0 00.82-.16 1.83 1.83 0 00.63-.45 2.05 2.05 0 00.4-.68 2.6 2.6 0 000-1.7 2.06 2.06 0 00-.4-.68 1.81 1.81 0 00-.63-.45 2.13 2.13 0 00-1.64 0 1.81 1.81 0 00-.63.45 2 2 0 00-.41.68 2.53 2.53 0 00-.14.85 2.5 2.5 0 00.14.85 2 2 0 00.41.68c.176.193.39.346.63.45a2 2 0 00.82.16zm0-.74a1 1 0 01-.58-.18 1.12 1.12 0 01-.36-.5 2 2 0 01-.13-.73 2 2 0 01.13-.73 1.11 1.11 0 01.36-.49 1 1 0 011.16 0c.163.127.288.296.36.49a2 2 0 01.12.73 2 2 0 01-.12.73 1.11 1.11 0 01-.36.5 1 1 0 01-.58.18zm3 .65h.9V7.51H209v1.78h.9v-4.1h-.9v1.53h-1.73V5.19h-.9v4.1h.06zm7.15 0h.77a2.17 2.17 0 01-.06-.44v-2.3a1.65 1.65 0 00-.19-.82 1.14 1.14 0 00-.54-.48 2.09 2.09 0 00-.86-.16 3 3 0 00-1.54.41l.31.6a2.34 2.34 0 01.49-.21c.194-.06.397-.09.6-.09a1.07 1.07 0 01.43.08.62.62 0 01.29.25.84.84 0 01.11.44v.17h-.74a4 4 0 00-.57.06 1.79 1.79 0 00-.48.16 1.32 1.32 0 00-.36.26 1.08 1.08 0 00-.24.37 1.31 1.31 0 00-.08.48c-.006.241.053.48.17.69.111.191.274.347.47.45.213.11.45.165.69.16.16 0 .318-.024.47-.07.1-.054.193-.117.28-.19a2.06 2.06 0 00.33-.26l.15.42.1.02zm-.21-1.95v.93l-.21.17a1.36 1.36 0 01-.3.16 1.09 1.09 0 01-.38.07.69.69 0 01-.49-.17.61.61 0 01-.18-.46.64.64 0 01.07-.31.52.52 0 01.22-.21 1 1 0 01.28-.1 2.14 2.14 0 01.38 0h.62l-.01-.08zm1.83 2c.19.003.379-.038.55-.12a1.16 1.16 0 00.42-.36 3.12 3.12 0 00.38-.7 7.11 7.11 0 00.31-1c.094-.396.164-.796.21-1.2h.84v3.31h.9v-4.1h-2.43c-.06.487-.133.93-.22 1.33a8.69 8.69 0 01-.29 1 3.12 3.12 0 01-.32.68.75.75 0 01-.21.22.44.44 0 01-.24.07h-.2v.81h.23l.07.06zm4.78-.06h1.4a3.22 3.22 0 00.88-.11 1.49 1.49 0 00.56-.29 1 1 0 00.3-.42 1.41 1.41 0 000-.99 1.05 1.05 0 00-.31-.41 1.55 1.55 0 00-.57-.28 3.24 3.24 0 00-.88-.11h-.48V5.16h-.9v4.12zm.9-.7V7.4h.46c.16-.018.32-.018.48 0a.77.77 0 01.29.12.44.44 0 01.15.19.78.78 0 010 .48.44.44 0 01-.14.19.73.73 0 01-.29.13 2 2 0 01-.48 0h-.48l.01.07zm3.29.7h.83V7.51h1.73v1.78h.9v-4.1h-.9v1.53H225V5.19h-.9v4.1l.07-.01zm4.7 0h1.34a3 3 0 00.84-.11 1.42 1.42 0 00.54-.29 1 1 0 00.29-.42 1.43 1.43 0 000-1 1 1 0 00-.29-.41 1.45 1.45 0 00-.54-.28 2.86 2.86 0 00-.82-.11h-.46V5.15h-.9v4.13zm.9-.7V7.4h.43a1.52 1.52 0 01.54.08.49.49 0 01.27.21.61.61 0 01.07.31.74.74 0 010 .24.43.43 0 01-.13.19.65.65 0 01-.27.13c-.15.02-.3.02-.45 0h-.53l.07.02zm2.75.7h.9v-4.1h-.9v4.1zm2.07 0h.87l1.39-2 .32-.48.23-.37v2.86h.88v-4.1h-.87l-1.39 2-.32.48-.24.38V5.19h-.88v4.1l.01-.01zm1.88-4.69a1.6 1.6 0 00.78-.18 1.16 1.16 0 00.48-.49 1.45 1.45 0 00.15-.72H237a1 1 0 01-.06.36.56.56 0 01-.2.26.67.67 0 01-.38.1.69.69 0 01-.39-.1.55.55 0 01-.21-.26 1 1 0 01-.06-.36h-.7a1.45 1.45 0 00.15.72c.106.208.274.38.48.49.244.125.516.187.79.18h.05zm-72.72 11.88h.91v-4.94h2.62v4.94h.91v-5.71h-4.44v5.71zm7.52.09a2 2 0 00.82-.16 1.84 1.84 0 00.63-.45 2 2 0 00.4-.68 2.59 2.59 0 000-1.7 2 2 0 00-.4-.68 1.8 1.8 0 00-.63-.45 2.13 2.13 0 00-1.64 0 1.81 1.81 0 00-.63.45 2 2 0 00-.41.68 2.52 2.52 0 00-.14.85c-.003.29.044.577.14.85a2 2 0 00.41.68c.176.193.39.346.63.45a2 2 0 00.82.16zm0-.74a1 1 0 01-.58-.18 1.13 1.13 0 01-.36-.5 2 2 0 01-.13-.73 1.94 1.94 0 01.13-.73 1.12 1.12 0 01.36-.49 1 1 0 01.58-.18 1 1 0 01.58.18 1.1 1.1 0 01.36.49 2 2 0 01.12.73 2 2 0 01-.12.73 1.11 1.11 0 01-.36.5 1 1 0 01-.58.18zm2.55 2.09h.84v-1.44h2.72v1.44h.84v-2.17h-.58v-3.36h-2.37c-.08.44-.157.83-.23 1.17-.08.34-.16.64-.26.9a4.82 4.82 0 01-.31.71 4 4 0 01-.39.58h-.26v2.17zm2.92-2.17H175c.139-.22.26-.45.36-.69a6.55 6.55 0 00.29-.85c.091-.35.165-.703.22-1.06h.81v2.62l.06-.02zm1.89.74h1l1-1.45 1 1.45h1l-1.48-2.06 1.48-2h-1l-1 1.42-1-1.42h-1l1.46 2-1.52 2.06h.06zm6.45.09a2 2 0 00.82-.16 1.85 1.85 0 00.63-.45 2 2 0 00.4-.68 2.6 2.6 0 000-1.7 2 2 0 00-.4-.68 1.82 1.82 0 00-.63-.45 2.13 2.13 0 00-1.64 0 1.81 1.81 0 00-.63.45 2 2 0 00-.41.68 2.52 2.52 0 00-.14.85c-.003.29.044.577.14.85a2 2 0 00.41.68c.176.193.39.346.63.45a2 2 0 00.82.16zm0-.74a1 1 0 01-.58-.18 1.13 1.13 0 01-.36-.5 2 2 0 01-.13-.73 2 2 0 01.13-.73 1.12 1.12 0 01.36-.49 1 1 0 01.58-.18 1 1 0 01.58.18 1.1 1.1 0 01.36.49 2 2 0 01.12.73 2 2 0 01-.12.73 1.11 1.11 0 01-.36.5 1 1 0 01-.58.18zm2.55 2.09h.84v-1.44h2.72v1.44h.81v-2.17h-.58v-3.36H189c-.073.44-.15.83-.23 1.17-.08.34-.17.64-.26.9a4.79 4.79 0 01-.31.71 3.94 3.94 0 01-.39.58h-.26v2.17h.08zm2.92-2.17h-1.75c.138-.22.259-.45.36-.69a6.5 6.5 0 00.29-.85c.092-.35.165-.703.22-1.06h.81v2.62l.07-.02zm4.26.74h.9v-1.74h.65a.25.25 0 01.18.09c.083.092.15.197.2.31l.56 1.33h1l-.75-1.55a1.46 1.46 0 00-.21-.34.6.6 0 00-.27-.18.66.66 0 00.23-.24c.06-.101.11-.209.15-.32l.11-.34a1.2 1.2 0 01.14-.28.36.36 0 01.12-.11.37.37 0 01.17 0h.12v-.77h-.38a.91.91 0 00-.43.1.83.83 0 00-.3.27 1.79 1.79 0 00-.16.34c0 .12-.09.25-.12.37a2.86 2.86 0 01-.13.34.77.77 0 01-.17.25.39.39 0 01-.26.1h-.49v-1.66h-.9v4.1l.04-.07zm8.43.16h.91v-.78a3.48 3.48 0 001.28-.32c.34-.16.626-.418.82-.74a2.5 2.5 0 000-2.33 2 2 0 00-.82-.76 3.34 3.34 0 00-1.28-.34v-.72h-.91v.72a3.35 3.35 0 00-1.28.33 2 2 0 00-.83.76 2.51 2.51 0 000 2.34c.195.322.48.579.82.74a3.48 3.48 0 001.29.32v.78zm0-1.57a1.7 1.7 0 01-1.1-.41 1.38 1.38 0 01-.37-1 1.63 1.63 0 01.17-.78 1.21 1.21 0 01.5-.49 2.07 2.07 0 01.8-.21v2.92-.03zm.91 0v-2.97a1.66 1.66 0 011.09.44c.245.274.374.633.36 1 .01.27-.05.538-.17.78a1.11 1.11 0 01-.49.47 2.1 2.1 0 01-.79.19v.09zm3.44 1.41h.87l1.4-2 .32-.48.23-.37v2.86h.88v-4.1h-.87l-1.39 2-.32.48-.24.38V12.4h-.88v4.1-.01zm4.8 0h.9v-1.78H215v1.78h.9v-4.1h-.9v1.53h-1.73v-1.53h-.9v4.1h.02zm7.1 0h.77a2.23 2.23 0 01-.06-.44v-2.3a1.64 1.64 0 00-.19-.82 1.13 1.13 0 00-.54-.48 2.08 2.08 0 00-.86-.16 3.06 3.06 0 00-1.54.41l.31.6c.155-.089.32-.16.49-.21a2 2 0 01.6-.09 1 1 0 01.43.08.62.62 0 01.29.25.84.84 0 01.11.44v.17h-.74a4 4 0 00-.57.06 1.81 1.81 0 00-.48.16 1.34 1.34 0 00-.36.26 1.09 1.09 0 00-.24.37 1.37 1.37 0 00.09 1.17c.111.191.274.347.47.45.213.11.45.165.69.16a1.68 1.68 0 00.87-.25 2 2 0 00.33-.26l.15.42-.02.01zm-.21-1.95v.93l-.21.17a1.4 1.4 0 01-.3.16 1.1 1.1 0 01-.38.07.69.69 0 01-.49-.17.62.62 0 01-.18-.46.64.64 0 01.07-.31.52.52 0 01.21-.21 1 1 0 01.28-.1 2.18 2.18 0 01.38 0h.62v-.08zm2 1.95h.9v-1.78h1.73v1.78h.9v-4.1h-.9v1.53h-1.73v-1.53h-.9v4.1zm6.47.09a2.67 2.67 0 001-.19 2 2 0 00.37-.2l-.26-.62a2.53 2.53 0 01-.44.2 1.74 1.74 0 01-.53.08 1.25 1.25 0 01-.65-.16 1.08 1.08 0 01-.43-.47 1.91 1.91 0 01-.06-1.32 1.34 1.34 0 01.25-.45c.11-.128.246-.23.4-.3a1.33 1.33 0 01.54-.11 1.77 1.77 0 011 .3v-.77a1.58 1.58 0 00-.28-.13 2 2 0 00-.36-.1 2.35 2.35 0 00-.44 0 2.17 2.17 0 00-.85.17 2 2 0 00-.67.46 2.07 2.07 0 00-.44.69 2.41 2.41 0 00-.16.87c-.005.282.04.563.13.83a1.81 1.81 0 001.03 1.12c.277.11.572.165.87.16l-.02-.06z" fill-rule="nonzero"/></g></svg>