<svg xmlns="http://www.w3.org/2000/svg" xmlns:xlink="http://www.w3.org/1999/xlink" viewBox="0 0 273.46 42.8"><defs><linearGradient id="a" x1="149.34" y1="18.17" x2="198.05" y2="18.17" gradientUnits="userSpaceOnUse"><stop offset="0" stop-color="#f5a04c"/><stop offset=".65" stop-color="#f28a3d"/><stop offset="1" stop-color="#f28a3d"/></linearGradient><linearGradient id="b" x1="204.02" y1="17.9" x2="237.86" y2="17.9" gradientUnits="userSpaceOnUse"><stop offset="0" stop-color="#f28a3d"/><stop offset=".35" stop-color="#f28a3d"/><stop offset="1" stop-color="#f5a04c"/></linearGradient><linearGradient id="c" x1="235.91" y1="30.23" x2="271.83" y2="30.23" xlink:href="#a"/><linearGradient id="d" x1="129.93" y1="29.95" x2="172.96" y2="29.95" xlink:href="#b"/></defs><g data-name="Layer 2"><g data-name="Layer 1"><path d="M264.19 26.11c-6 0-11.91.07-17.81.07-11.71 0-24.14 0-35.84-.08-3.83 0-8.44-2-5.72-6.25 1.5-2.37 7.27-2 10-2h56.54s2.11-4.1 2.05-4.1c-18 0-37.92-.08-55.86 0-2.73 0-5.5-.08-8.22.14-4.35.36-5.33 3.5-5.35 6.95 0 2.53-.39 4.63 1 6.89 1.92 3.1 10.25 2.43 13.33 2.43 12.3 0 23.91 0 36.21.07 4.3 0 12-.51 15.16 1a3.63 3.63 0 011.87 4.46c-.73 2.13-4.05 2.5-6.05 2.57-10 .36-20.39.16-30.44.19-9.57 0-30.33-.08-31.16-.07h-64.63c-3.65 0-11-.14-8.85-5.61 1.36-3.5 8.1-2.67 11.09-2.67h49.93c7.22 0 7.66-9.84 5.41-13.66-1.88-3.21-7.83-2.73-11-2.73H37.67v4h145.86c3.85 0 9.73-.39 13.07 1.75a3.43 3.43 0 01.68 4.91c-1.2 1.71-5.07 1.56-6.95 1.59-12.19.15-24.38 0-36.57 0h-12.31c-4.1 0-9.56-.59-11.08 3.52-.71 1.92-.37 4.6-.33 6.61.09 4.67 2.27 6.38 7.51 6.38H204q28.67-.13 57.33 0c3.89 0 8.65.23 10.09-4 .66-1.91.45-4.58.34-6.58-.3-4.41-2.85-5.81-7.57-5.78zM10.08 5.76a5.76 5.76 0 115.76 5.76 5.76 5.76 0 01-5.76-5.76M0 13.68h31.67V18H0zM2.16 0A5.74 5.74 0 000 .42V11.1A5.76 5.76 0 102.16 0m27.35 0a5.74 5.74 0 012.16.42V11.1A5.76 5.76 0 1129.51 0" fill="#f5a04c"/><path d="M5 42.8a20.79 20.79 0 01-4.84-.67l.49-2.8a20.36 20.36 0 003.6.49c3.55 0 5-1.76 5.23-5.39H3.29v-2.82h6.16c-.23-2.85-1.81-4.56-4.92-4.56a14.47 14.47 0 00-3.55.44L.37 24.8a15.53 15.53 0 014.43-.65c5.93 0 8.68 3 8.68 8.83 0 5.59-2.38 9.81-8.52 9.81M31.43 36c0 2.38.72 3.88 3 3.88a11.31 11.31 0 003.57-.63l.75 2.59a12.14 12.14 0 01-5 1c-4.3 0-6.11-2.3-6.11-6.58 0-4.07 1.89-6.89 6.27-6.89a13.43 13.43 0 014.12.49l-.65 2.64a9.23 9.23 0 00-2.87-.34c-2.12 0-3.08 1.66-3.08 3.91m9-6.48v12.93H44V32.29h4.74v10.23h3.63V29.57zM67.15 36c0 4.19-2.2 6.76-6.65 6.76-4.27 0-6.35-2.43-6.35-6.73 0-3.94 2.18-6.73 6.5-6.73s6.5 2.56 6.5 6.71m-3.78 0c0-1.87-.54-4-2.72-4-2 0-2.72 2-2.72 4 0 2.25.52 4 2.72 4s2.72-1.79 2.72-4m11.57-11.67a40.42 40.42 0 014.84-1l.54 2.77-4.44.89a6.13 6.13 0 00-3 1.27c-1 .88-1.3 1.84-1.35 3.47.05 0 .08 0 .1.08a5.72 5.72 0 014.48-2.28c3.83 0 5.52 2.67 5.52 6.65s-2.28 6.58-6.53 6.58c-4.07 0-6.16-2.87-6.35-7.2-.21-4.71.28-6.76 1.5-8.6a8.68 8.68 0 014.66-2.67m.41 8c-1.94 0-2.82 2.12-2.82 4.09s.6 3.68 2.72 3.68 2.61-1.71 2.61-3.81-.44-4-2.51-4M94.71 40h1.68l.18 2.17a9.27 9.27 0 01-3.16.62c-1.11 0-1.89-.39-2-1.58h-.05a6.59 6.59 0 01-4.53 1.58A3.54 3.54 0 0182.9 39c0-2.67 2-4.09 4.71-4.3.49 0 3-.08 3.52-.08v-.26c0-1.71-.57-2.36-2.41-2.36a11.32 11.32 0 00-3.89.8L84 30.32a16.67 16.67 0 015.59-1c3.16 0 5.08 1.21 5.08 4.58zm-6.19-3c-1.19.08-1.84.65-1.84 1.76s.65 1.55 1.81 1.55a4.86 4.86 0 002.64-1.11v-2.4zm17.87 5.52V37.1h-4.77v5.41H98V29.57h3.62v4.82h4.77v-4.82H110v12.95zm-91 0V29.57H19V35h.49l3.75-5.46h4l-4.58 5.77 5 7.17h-4.39l-3.83-5.67H19v5.67zm97.08 0V29.57h3.62V35h.5l3.75-5.46h4l-4.58 5.77 5 7.18h-4.37l-3.83-5.67h-.42v5.67z" fill="#00455c"/><path d="M149.59 17.84h33.95c3.85 0 9.73-.39 13.07 1.75a3 3 0 01.92.89 4.1 4.1 0 01.48 2.06 9.58 9.58 0 000-2 10 10 0 00-1.14-4c-1.88-3.21-7.83-2.73-11-2.73h-36.53a4.93 4.93 0 01.25 4.03z" fill="url(#a)"/><path d="M237.86 13.78h-1.26c-2.73 0-24.5-.08-27.22.14-4.35.36-5.33 3.5-5.35 6.95v1.17a4.26 4.26 0 01.3-1.22 6.09 6.09 0 01.5-1c1.48-2.4 7.27-2 10-2h21.72a5.57 5.57 0 011.31-4.04z" fill="url(#b)"/><path d="M264.19 26.11c-6 0-21.91.07-27.81.07h-.48a5.71 5.71 0 010 4.05h8.67c3 0 12.07-.08 18.77 0a14.62 14.62 0 016.39 1.05 3.64 3.64 0 012.05 3c0-.82-.07-1.62-.11-2.34-.21-4.46-2.76-5.86-7.48-5.83z" fill="url(#c)"/><path d="M130.19 33.64a6 6 0 01.23-.75c1.36-3.5 8.1-2.67 11.09-2.67H173a5 5 0 010-4.05l-31.51-.07c-4.1 0-9.56-.59-11.08 3.52a11.55 11.55 0 00-.42 4.23z" fill="url(#d)"/></g></g></svg>