<svg width="142" height="31" xmlns="http://www.w3.org/2000/svg" xmlns:xlink="http://www.w3.org/1999/xlink"><defs><path id="a" d="M0 .058h29.926V31H0z"/><path id="c" d="M.853.743h8.879v13.541H.852z"/></defs><g fill="none" fill-rule="evenodd"><path d="M29.668 15.47c0 8.398-6.584 15.207-14.705 15.207S.258 23.867.258 15.47 6.842.267 14.963.267 29.668 7.075 29.668 15.47" fill="#FEFEFE"/><g transform="translate(0 -.058)"><mask id="b" fill="#fff"><use xlink:href="#a"/></mask><path d="M0 15.528C0 24.06 6.712 31 14.963 31c8.25 0 14.963-6.94 14.963-15.472 0-8.53-6.713-15.47-14.963-15.47C6.712.057 0 6.997 0 15.527m.517 0C.517 7.293 6.997.59 14.963.59c7.967 0 14.446 6.703 14.446 14.938 0 8.236-6.479 14.938-14.446 14.938-7.966 0-14.446-6.702-14.446-14.938" fill="#1E5378" mask="url(#b)"/></g><path d="M4.663 11.23c3.825-2.594 8.052-4.103 15.219-2.823.397-.238.615-.462.717-.946-1.79-.667-3.73-.903-6.238-.858-2.261.061-6.32.93-8.486 2.253l.658-.85c1.519-.918 5.47-2.142 8.43-2.2 2.09-.04 3.176.078 5.655.77-.214-.44-.733-.659-1.482-1.007-2.404-1.116-6.893-1.22-10.572.452.466-.313.922-.605 1.517-.888 1.212-.572 3.196-1.128 5.677-1.086 1.984.035 4.337.748 5.78 2.23.24.291.378.602.438.85 1.144.597 1.805 1.155 2.18 1.818.15.335.216.708.148 1.122.474.296.699.54.932.862.173.274.297.578.33.862.044.37.084.785-.29 1.27.396.196.698.754.748 1.004.179.89-.374 1.754-1.106 2.43-.838.762-2.69 1.664-4.198 2.062-2.998.78-5.644 1.112-7.75 1.512.939.231 2.224.547 4.323.547 4.468 0 8.424-2.187 8.424-2.187s-.092.29-.18.535c-2.835 1.78-7.36 2.53-9.283 2.438-1.965-.093-3.608-.393-5.221-.905a9.469 9.469 0 00-1.451.512c2.456 1.154 4.308 1.413 6.409 1.572 2.14.161 5.684-.372 8.676-1.492-.135.14-.206.365-.345.497-1.531.827-4.773 1.665-6.398 1.735-1.62.07-3.595.007-5.312-.332-1.483-.294-2.684-.78-3.946-1.35a.976.976 0 00-.385.652c4.924 2.66 9.539 2.718 14.785 1.033l-.48.476c-5.78 2.421-10.297 1.484-13.793-.26-.11-.054-.253-.11-.352-.178.32.585 2.994 2.6 5.978 2.852 2.057.175 4.57-.189 6.059-.807l-.871.472c-.723.368-2.633 1.2-5.31 1.017-3.564-.25-5.568-1.879-6.467-2.732-.418-.397-.615-.862-.742-1.428-.806-.437-1.312-.887-1.73-1.562-.247-.399-.2-.845-.137-1.219.022-.118.05-.227.094-.337-.387-.288-.778-.598-.945-.91-.352-.657-.136-1.223.108-1.659-.212-.248-.406-.495-.496-.75a2.342 2.342 0 01-.084-.907c.067-.554.354-1.06.719-1.496.78-.929 2-1.65 4.1-2.369 2.052-.703 2.879-.81 4.427-1.18 1.807-.432 3.966-.57 5.778-1.224-5.042-.917-10.28-.085-14.55 2.957l.29-.85zM21.84 8.015c-.066.257-.333.554-.517.756.55.15 1.103.357 1.635.564-.065-.503-.635-.992-1.118-1.32zM6.304 18.436a10.527 10.527 0 01-.82-.518c-.15.332.126.695.423.87.124-.128.267-.234.397-.352zm16.998-6.816c.36.185.687.32 1.005.551.229-.45.089-.743-.386-1.16a4.452 4.452 0 01-.62.61zm-1.078.682c-.738.352-1.793.717-3.307 1.11-1.238.321-4.262.771-7.508 1.5-1.033.231-3.815.911-5.183 2.113.38.316.617.396 1.044.642.569-.375 1.332-.729 2.478-1.047 1.994-.55 3.479-.787 5.272-1.078 1.78-.292 5.124-1.015 6.979-1.703.602-.225 1.165-.512 1.584-.848-.13-.15-1.321-.745-1.36-.689zM8.192 20.32c.273-.168.6-.337.982-.49a36.09 36.09 0 01-1.592-.724 3.769 3.769 0 00-.636.498c.412.246.823.49 1.246.716zm-1.715.177c-.006.345.195.653.642 1.027.056-.186.135-.323.268-.502-.31-.162-.613-.34-.91-.525zm2.519-6.367c3.648-1.107 7.483-1.446 11.36-2.519-1.514-.423-2.344-.6-3.948-.405-2.328.282-4.887.807-7.078 1.48-.857.262-5.382 1.586-4.076 3.44 0 .023.777-1.1 3.742-1.996zm13.688-3.864a13.873 13.873 0 00-2.126-.766c-.352.292-.766.547-1.352.782.983.18 1.725.464 2.552.712.15.077.82-.575.926-.728zm1.799 3.631a9.71 9.71 0 01-.368.302c-.827.656-2.131 1.182-3.943 1.683-3.757 1.042-6.483 1.198-9.587 1.983a12.76 12.76 0 00-1.82.611c.587.298 1.208.58 1.849.83 1.256-.369 1.863-.54 3.689-.86.695-.12 2.833-.509 4.386-.849 2.789-.615 6.882-1.95 5.794-3.7zm19.767 8.33h3.086l.371-2.341h2.124l.371 2.34h3.085l-2.606-13.54h-3.825l-2.606 13.54zm4.519-9.451l.575 4.132h-1.15l.575-4.132zm7.426 1.158c.488 0 1.397-.333 1.397-1.33 0-1.177-1.046-1.254-1.338-1.254-.35 0-1.01.055-1.675.376L54.553 8.8c1.034-.275 1.776-.354 2.655-.352 2.481.002 3.603 1.804 3.603 3.553 0 1.712-.965 2.754-1.882 3.152v.133c.88.286 2.08 1.175 2.08 3.248 0 2.55-1.727 3.963-3.93 3.963-1.185-.001-1.954-.178-2.878-.703l.054-2.812c.854.383 1.432.41 2.017.41.975 0 1.366-.737 1.366-1.29 0-.76-.466-1.272-1.503-1.272h-1.24v-2.896h1.3zm6.237-5.248h8.289v13.54h-3.036v-10.28H65.47V22.23l-3.038-.003zm10.027 13.54l3.04.004v-4.467h1.021c3.008.002 3.935-2.794 3.935-4.57 0-1.754-1.059-4.507-3.935-4.504l-4.061-.003v13.54zm3.04-10.558h.723c.69 0 1.121.426 1.121 1.548 0 1.468-.728 1.568-1.121 1.568h-.723v-3.116zM86.083 22.39c3.604 0 4.819-3.474 4.819-6.951 0-3.474-1.215-6.951-4.819-6.951-3.602 0-4.817 3.477-4.817 6.95 0 3.478 1.215 6.952 4.817 6.952m0-3.271c-1.069 0-1.623-1.294-1.623-3.68 0-2.387.554-3.68 1.623-3.68 1.071 0 1.627 1.293 1.627 3.68 0 2.386-.556 3.68-1.627 3.68m18.054 3.107h3.63c.784 0 4.073-.338 4.078-4.436.005-3.46-2.548-4.063-4.192-4.063h-.541v-1.793h4.022v-3.25h-6.997v13.542zm2.975-2.708v-3.082h.444c.355 0 1.315.019 1.315 1.41 0 1.434-.96 1.672-1.315 1.672h-.444zm15.67-10.833h2.974v4.873h2.126V8.686h2.973v13.54h-2.973V16.81h-2.126v5.417h-2.974z" fill="#1E5378"/><g transform="translate(132 7.942)"><mask id="d" fill="#fff"><use xlink:href="#c"/></mask><path fill="#1E5378" mask="url(#d)" d="M.853.743h2.974l-.004 4.872h.646L6.173.743h3.236L7.085 7.17l2.647 7.115H6.236L4.527 8.842h-.706l.004 5.442H.852z"/></g><path fill="#1E5378" d="M38.367 8.686h6.232l.002 3.378h-3.137V22.23l-3.097-.003zm53.993.003h2.58l2.28 3.189 2.292-3.19h2.575v13.54h-3.036v-8.26l-1.83 2.372-1.822-2.372v8.264l-3.039-.003zm20.082 13.562h3.083l.372-2.343h2.125l.37 2.343h3.084L118.871 8.71h-3.825l-2.604 13.542zm4.52-9.45l.572 4.128h-1.15l.577-4.129z"/></g></svg>