<svg width="1117" height="154" xmlns="http://www.w3.org/2000/svg" xmlns:xlink="http://www.w3.org/1999/xlink"><defs><path id="a" d="M0 154h1116.656V.145H0z"/></defs><g transform="translate(0 -.145)" fill="none" fill-rule="evenodd"><path d="M665.492 118.723V55.085l38.59-.284c5.363-.039 10.156.18 14.367.477 3.164.225 6.056.668 8.677 1.354 2.625.685 4.85 1.513 6.679 2.482 1.829.988 3.386 2.086 4.632 3.293 1.266 1.211 2.266 2.625 3.047 4.264.762 1.625 1.207 3.375 1.34 5.236.149 2.086-.078 4.043-.655 5.86-.582 1.811-1.574 3.53-3.01 5.12-1.404 1.61-3.24 2.991-5.476 4.152-2.234 1.164-5.41 2.356-9.531 3.567l19.094 27.526h-26.23l-21.938-35.116c2.293.301 5.07.362 7.259.362 3.047 0 6.422-.018 8.862-.707 2.442-.682 3.09-1.965 4.274-3.397 1.165-1.43 1.704-2.926 1.589-4.517-.092-1.34-.648-2.514-1.686-3.518-1.04-1.016-2.613-1.766-4.732-2.258-2.092-.492-5.307-.75-9.621-.75-1.48 0-2.984.022-4.566.065l-4.831.125.643 50.302h-26.777zm-298.91-62.894h34.129l13.176 38.468L427 55.829h34.012v63.23h-21.188V70.845l-16.437 48.214h-19.176l-16.379-48.214v48.214h-21.25zm-39.285 52.793h-29.555l-4.066 10.438h-26.504l31.547-63.231h28.285l31.566 63.23h-27.152l-4.121-10.437zm-5.434-13.676l-9.285-22.731-9.227 22.73h18.512zM178.062 55.829H204v22.128h28.359V55.829h26.055v63.23h-26.055v-25.57H204v25.57h-25.938z" fill="#006430"/><mask id="b" fill="#fff"><use xlink:href="#a"/></mask><path d="M477.516 118.59h26.304V55.84h-26.304v62.75zm27.304-33.109c8.539-9.781 17.321-19.492 25.141-29.641 9.637.082 19.246.071 28.883 0L531.34 85.247l31.211 33.343c-10.149-.066-20.282-.086-30.43 0-5.562-7.453-14.664-18.484-27.301-33.109zm84.87-30.831h38.888c13.496 0 24.53 9.771 24.53 21.718v20.625c0 11.945-11.034 21.718-24.53 21.718H589.69c-13.496 0-24.531-9.773-24.531-21.718V76.368c0-11.947 11.035-21.719 24.53-21.719zm9.478 16.378c-6.915 0-12.57 5.012-12.57 11.133V92.73c0 6.122 5.655 11.13 12.57 11.13h19.933c6.915 0 12.57-5.008 12.57-11.13V82.161c0-6.121-5.655-11.133-12.57-11.133h-19.933z" fill="#006430" mask="url(#b)"/><path fill="#56AC26" mask="url(#b)" d="M936.883 55.829h24.237l31.61 34.98v-34.98h24.45v63.23h-24.45l-31.453-34.714v34.714h-24.394zm-39.735 52.793h-29.554l-4.067 10.438h-26.504l31.547-63.231h28.285l31.567 63.23h-27.153l-4.121-10.437zm-5.433-13.676l-9.285-22.731-9.227 22.73h18.512zM756.336 55.829h48.573c8.095 0 14.306 1.523 18.625 4.535 4.336 3.019 6.513 6.758 6.513 11.203 0 3.739-1.539 6.953-4.634 9.629-2.065 1.785-5.082 3.195-9.05 4.222 6.02 1.09 10.464 2.97 13.313 5.625 2.843 2.657 4.261 6.009 4.261 10.028 0 3.28-1.01 6.23-3.032 8.847-2.026 2.625-4.789 4.68-8.307 6.21-2.168.947-5.454 1.635-9.853 2.064-5.844.57-9.715.867-11.629.867h-44.78v-63.23zm26.176 24.809h11.276c4.048 0 6.867-.524 8.462-1.58 1.59-1.05 2.366-2.573 2.366-4.545 0-1.841-.78-3.286-2.366-4.317-1.602-1.043-4.359-1.558-8.285-1.558h-11.453v12zm0 24.836h13.23c4.477 0 7.62-.595 9.441-1.782 1.833-1.2 2.754-2.8 2.754-4.817 0-1.867-.899-3.371-2.714-4.503-1.822-1.133-4.986-1.707-9.54-1.707h-13.17v12.809zm249.113 13.116h26.301V55.84h-26.301v62.75zm27.305-33.109c8.539-9.781 17.316-19.492 25.136-29.641 9.637.082 19.246.071 28.883 0l-27.504 29.407 31.211 33.343c-10.148-.066-20.281-.086-30.43 0-5.562-7.453-14.66-18.484-27.296-33.109zM50.7 31.446h44.222L44.223 154H0zM113.656.145h44.223L107.18 122.7H62.957z"/></g></svg>