<svg width="153" height="26" viewBox="0 0 153 26" fill="none" xmlns="http://www.w3.org/2000/svg">
<path fill-rule="evenodd" clip-rule="evenodd" d="M2.59935 6.00806H5.33432C5.37953 6.25767 5.44734 6.4846 5.56036 6.71152C5.60556 6.7796 5.62817 6.84767 5.67337 6.91575C6.46448 8.27729 8.36314 8.88998 10.4426 8.59498C10.8495 8.52691 11.2789 8.45883 11.6632 8.32268C12.0474 8.20921 12.4317 8.05037 12.8159 7.86883L12.8838 7.84614C13.1098 7.73267 13.3132 7.64191 13.494 7.52844C14.2399 7.09729 14.8502 6.57537 15.3249 6.00806H17.2913C18.7153 6.00806 19.8907 7.18806 19.8907 8.61768V23.4131C19.8907 24.8427 18.7153 26 17.2913 26H2.59935C1.17536 26 0 24.82 0 23.4131V8.59498C0 7.16537 1.17536 6.00806 2.59935 6.00806ZM7.59463 19.8277L7.54943 10.2061C7.54943 10.0246 7.68504 9.88845 7.84327 9.88845H11.9796C12.1378 9.88845 12.2735 10.0246 12.2735 10.2061L12.3187 19.8277H14.7146C14.8728 19.8277 15.0084 20.0319 15.0084 20.2588V21.3254C15.0084 21.575 14.8728 21.7565 14.7146 21.7565H5.1761C5.01788 21.7565 4.88226 21.5523 4.88226 21.3254V20.2588C4.88226 20.0092 5.01788 19.8277 5.1761 19.8277H7.59463Z" fill="#234A98"/>
<path fill-rule="evenodd" clip-rule="evenodd" d="M8.45347 0.629951C10.6686 -0.436588 13.1549 -0.118896 13.9912 1.35611C14.8501 2.80841 13.7426 4.85073 11.5275 5.91726C9.31239 6.9838 6.84865 6.66611 5.98974 5.19111C5.15342 3.7388 6.23837 1.69649 8.45347 0.629951ZM15.144 3.87495C15.0084 5.05496 13.9912 6.30303 12.4316 7.07457C11.1206 7.70996 9.71924 7.84611 8.61169 7.55111C8.92814 7.55111 9.24458 7.52842 9.56102 7.48304C9.96788 7.43765 10.3747 7.34688 10.7816 7.21073C11.1658 7.09727 11.5501 6.93842 11.9343 6.75688L12.0022 6.73419C12.2056 6.64342 12.409 6.52996 12.6124 6.4165C13.7878 5.71303 14.6467 4.80534 15.144 3.87495ZM8.76992 1.03841C10.4877 0.221489 12.4542 0.471105 13.1097 1.60572C13.2453 1.83264 13.3131 2.10495 13.3357 2.37726C13.3131 2.30918 13.2679 2.24111 13.2227 2.17303C12.5446 1.03841 10.6008 0.766105 8.88293 1.60572C7.50414 2.2638 6.69043 3.42111 6.73564 4.41957C6.28358 3.28495 7.14249 1.83264 8.76992 1.03841Z" fill="#9B3589"/>
<path fill-rule="evenodd" clip-rule="evenodd" d="M24.6823 25.2285C25.4734 25.2058 26.0159 25.1604 26.2645 25.0696C26.7844 24.8881 27.146 24.4569 27.3269 23.8216L31.0564 10.3423C31.2824 9.57077 31.2146 9.07153 30.8756 8.82192C30.6721 8.66307 30.1297 8.59499 29.2933 8.5723L29.4968 7.82346H36.7071L36.5037 8.5723C35.6448 8.66307 35.1023 8.75384 34.8989 8.82192C34.4016 9.02615 34.0626 9.4573 33.8818 10.1154L30.1749 23.4812C29.9714 24.2527 30.0166 24.7519 30.3783 24.9789C30.6043 25.1377 31.1242 25.2058 31.9605 25.2285L31.7571 25.9773H24.4789L24.6823 25.2285ZM32.9098 25.3192C33.5427 25.3192 33.9948 25.2058 34.3338 25.0016C34.7181 24.7519 34.9893 24.3435 35.1701 23.7308L37.3174 16.0154C37.4756 15.4708 37.3852 15.1077 37.0914 14.9262C36.888 14.79 36.4811 14.6992 35.8934 14.6992L36.0969 13.9958C37.8373 13.9504 39.3065 13.8823 40.4819 13.7462L39.962 15.6069C40.8435 14.8808 41.4764 14.4042 41.9058 14.1773C42.5839 13.8142 43.2846 13.61 44.0305 13.61C46.3813 13.61 47.2402 14.7446 46.6299 17.0139L44.7538 23.7762C44.5956 24.3662 44.5956 24.7746 44.799 24.9789C45.0025 25.1831 45.3867 25.2739 45.997 25.2512L45.7936 25.9773H39.8264L40.0298 25.2512C40.6401 25.2285 41.0921 25.1604 41.386 25.0016C41.7702 24.7973 42.0641 24.4116 42.1997 23.8442L43.9853 17.445C44.2114 16.6054 44.2792 15.9927 44.1436 15.6069C43.9853 15.1077 43.5107 14.8581 42.697 14.8581C41.9511 14.8581 41.2278 15.2665 40.4819 16.0835C39.849 16.7869 39.3969 17.5585 39.1935 18.3527C39.0353 18.92 38.7866 19.805 38.4702 20.985C38.1537 22.165 37.9051 23.0273 37.7469 23.6173C37.5661 24.2754 37.5661 24.7292 37.7469 24.9562C37.9277 25.1831 38.3572 25.2739 39.0579 25.2512L38.8544 25.9773H32.729L32.9098 25.3192ZM50.1786 13.8823H51.9416C51.9868 13.7462 52.032 13.5646 52.0998 13.315C52.1676 13.0654 52.2128 12.8838 52.2581 12.7704C52.6649 11.2046 53.1622 10.0473 53.7499 9.25307C54.5862 8.11846 55.6937 7.55115 57.0725 7.55115C57.9314 7.55115 58.5643 7.80076 58.9712 8.32269C59.4006 8.84461 59.491 9.50269 59.265 10.3423C59.1746 10.6827 58.9486 10.9777 58.5869 11.25C58.2253 11.5223 57.8862 11.6585 57.5472 11.6585C57.1855 11.6585 56.9143 11.5223 56.7109 11.2273C56.53 10.9323 56.4622 10.6146 56.5752 10.2515C56.6204 10.0473 56.7787 9.775 56.9821 9.4573C57.1855 9.13961 57.3211 8.91269 57.3663 8.75384C57.4568 8.45884 57.2533 8.29999 56.7561 8.29999C56.4848 8.29999 56.191 8.45884 55.8745 8.75384C55.5581 9.04884 55.3773 9.34384 55.2869 9.66153C55.1512 10.1608 54.993 10.8642 54.8574 11.7492C54.6766 12.7477 54.541 13.4285 54.4506 13.8142H57.1403L56.8917 14.6992H54.2019L51.7382 23.5946C51.5574 24.23 51.58 24.6612 51.806 24.9335C51.9868 25.1831 52.4163 25.2966 53.0718 25.2512L52.8909 25.9092H46.8559L47.0367 25.2512C47.6922 25.2058 48.1443 25.1377 48.3703 25.0242C48.732 24.8427 49.0032 24.4569 49.1614 23.8669L51.7156 14.6765H49.9525L50.1786 13.8823ZM55.0382 25.3419C55.7163 25.2966 56.1684 25.2058 56.3944 25.0923C56.8239 24.9108 57.0951 24.525 57.2533 23.9577L59.4458 16.0608C59.6041 15.4708 59.5588 15.0623 59.265 14.8581C59.0842 14.7219 58.6547 14.6312 58.0218 14.6085L58.2027 13.9958L62.5199 13.7915L59.7171 23.8669C59.5362 24.4796 59.5815 24.8654 59.8075 25.0469C59.9205 25.115 60.3047 25.2285 61.0054 25.3419L60.8246 25.9773H54.8574L55.0382 25.3419ZM62.7459 7.80076H62.7233C63.1075 7.80076 63.424 7.95961 63.6274 8.2773C63.8308 8.59499 63.876 8.93538 63.7856 9.34384C63.6726 9.775 63.424 10.1154 63.0397 10.365C62.6555 10.6373 62.2486 10.7508 61.8192 10.7508C61.4349 10.7508 61.1411 10.5919 60.9376 10.2742C60.7342 9.95653 60.6664 9.61615 60.7794 9.23038C60.8924 8.84461 61.1411 8.50423 61.5479 8.20923C61.9322 7.93692 62.339 7.80076 62.7459 7.80076ZM61.8418 25.3192C62.4746 25.3192 62.9267 25.2058 63.2658 25.0016C63.65 24.7519 63.9212 24.3435 64.1021 23.7308L66.2494 16.0154C66.4076 15.4708 66.3172 15.1077 66.0233 14.9262C65.8199 14.79 65.413 14.6992 64.8254 14.6992L65.0288 13.9958C66.7692 13.9504 68.2384 13.8823 69.4138 13.7462L68.8939 15.6069C69.7754 14.8808 70.4083 14.4042 70.8378 14.1773C71.5159 13.8142 72.2166 13.61 72.9625 13.61C75.3132 13.61 76.1721 14.7446 75.5618 17.0139L73.6858 23.7762C73.5275 24.3662 73.5275 24.7746 73.731 24.9789C73.9344 25.1831 74.3187 25.2739 74.9289 25.2512L74.7255 25.9773H68.7583L68.9617 25.2512C69.572 25.2285 70.0241 25.1604 70.3179 25.0016C70.7022 24.7973 70.996 24.4116 71.1316 23.8442L72.9173 17.445C73.1433 16.6054 73.2111 15.9927 73.0755 15.6069C72.9173 15.1077 72.4426 14.8581 71.6289 14.8581C70.883 14.8581 70.1597 15.2665 69.4138 16.0835C68.7809 16.7869 68.3288 17.5585 68.1254 18.3527C67.9672 18.92 67.7186 19.805 67.4021 20.985C67.0857 22.165 66.837 23.0273 66.6788 23.6173C66.498 24.2754 66.498 24.7292 66.6788 24.9562C66.8596 25.1831 67.2891 25.2739 67.9898 25.2512L67.7864 25.9773H61.6609L61.8418 25.3192Z" fill="#9B3589"/>
<path d="M80.4895 7.46033H87.8581C89.3273 7.46033 90.4123 7.5284 91.1356 7.64187C91.8589 7.75533 92.4918 8.02763 93.0568 8.4134C93.6219 8.79917 94.0966 9.3211 94.4808 9.95648C94.8651 10.5919 95.0459 11.318 95.0459 12.1123C95.0459 12.9746 94.8199 13.7688 94.3452 14.4949C93.8705 15.2211 93.2377 15.7657 92.4465 16.1288C93.5767 16.4465 94.4356 17.0138 95.0459 17.808C95.6562 18.6023 95.95 19.5326 95.95 20.5992C95.95 21.4388 95.7466 22.2557 95.3623 23.05C94.9781 23.8442 94.4356 24.4796 93.7575 24.9561C93.0794 25.4327 92.2431 25.7277 91.2486 25.8411C90.6383 25.9092 89.1239 25.9546 86.7506 25.9773H80.4669V7.46033H80.4895ZM84.1964 10.5465V14.8353H86.6376C88.0842 14.8353 88.9883 14.8126 89.3499 14.7673C89.9828 14.6992 90.4801 14.4723 90.8643 14.1092C91.226 13.7461 91.4068 13.2696 91.4068 12.6569C91.4068 12.0896 91.2486 11.613 90.9321 11.2499C90.6157 10.8869 90.141 10.6826 89.5308 10.6146C89.1691 10.5692 88.1068 10.5465 86.3437 10.5465H84.1964ZM84.1964 17.9215V22.8684H87.6321C88.9657 22.8684 89.8246 22.823 90.1862 22.755C90.7513 22.6642 91.1808 22.4146 91.5424 22.0288C91.8815 21.643 92.0623 21.1211 92.0623 20.463C92.0623 19.8957 91.9267 19.4419 91.6554 19.0561C91.3842 18.6703 90.9999 18.3753 90.5027 18.2165C90.0054 18.035 88.8979 17.9442 87.2026 17.9442L84.1964 17.9215ZM115.705 25.9773H111.659L110.054 21.7792H102.686L101.171 25.9773H97.1932L104.381 7.46033H108.314L115.705 25.9773ZM108.856 18.6703L106.325 11.7946L103.838 18.6703H108.856ZM117.717 25.9773V7.46033H121.333L128.883 19.8276V7.46033H132.341V25.9773H128.611L121.175 13.9049V25.9773H117.717ZM136.342 25.9773V7.46033H140.071V15.6749L147.598 7.46033H152.616L145.677 14.6765L153 25.9773H148.186L143.123 17.2861L140.094 20.3723V25.9773H136.342Z" fill="#234A98"/>
</svg>
