<svg width="200" height="36" xmlns="http://www.w3.org/2000/svg"><defs><linearGradient x1="-.062%" y1="49.923%" x2="100.076%" y2="49.923%" id="a"><stop stop-color="#790E2E" offset="0%"/><stop stop-color="#8A132F" offset="7.594%"/><stop stop-color="#AE1D31" offset="25.79%"/><stop stop-color="#C92633" offset="44.19%"/><stop stop-color="#DD2B34" offset="62.65%"/><stop stop-color="#E92F35" offset="81.2%"/><stop stop-color="#ED3035" offset="100%"/></linearGradient></defs><g fill="none" fill-rule="evenodd"><path fill="url(#a)" d="M.2 0l17.5 17.5L35.1 0z"/><path fill="#790E2E" d="M0 34.8v.2h35v-.2L17.5 17.4z"/><path fill="#B01D2D" d="M.2 0H0v34.8l17.6-17.4z"/><path fill="#9C0631" fill-rule="nonzero" d="M45.9 16l7.6-8.7h5.1l-8.7 9.5L59 28h-5.3l-7.3-9.3-.5.5V28h-4V7.3h4V16zM70 14.5h3.8V28H70v-1.7c-1.4 2-3.2 2.2-4.1 2.2-4.1 0-6.9-3.2-6.9-7.2s2.7-7.1 6.7-7.1c1 0 3 .2 4.3 2.2v-1.9zm-7.1 6.7c0 2.1 1.6 3.8 3.7 3.8s3.7-1.7 3.7-3.8c0-2.1-1.6-3.8-3.7-3.8s-3.7 1.7-3.7 3.8zm16.7 13.9h-3.8V14.5h3.8v1.7c1.3-1.9 3.2-2.2 4.4-2.2 4 0 6.6 3.1 6.6 7.1 0 4.1-2.7 7.2-6.7 7.2-.9 0-2.8-.2-4.3-2.2v9zm-.4-13.9c0 2.1 1.6 3.8 3.7 3.8s3.7-1.7 3.7-3.8c0-2.1-1.6-3.8-3.7-3.8s-3.7 1.7-3.7 3.8zM94 6.6c1.2 0 2.3 1 2.3 2.3 0 1.3-1 2.3-2.3 2.3-1.3 0-2.3-1-2.3-2.3 0-1.3 1.1-2.3 2.3-2.3zm1.9 7.9V28h-3.8V14.5h3.8zm7.9 3.3V28H100V17.8h-1.5v-3.2h1.5V9.9h3.8v4.6h2.6v3.2h-2.6zm14.2-3.3h3.8V28H118v-1.7c-1.4 2-3.2 2.2-4.1 2.2-4.1 0-6.9-3.2-6.9-7.2s2.7-7.1 6.7-7.1c1 0 3 .2 4.3 2.2v-1.9zm-7.1 6.7c0 2.1 1.6 3.8 3.7 3.8 2.2 0 3.7-1.7 3.7-3.8 0-2.1-1.5-3.8-3.7-3.8-2.1 0-3.7 1.7-3.7 3.8zm16.9-16.5V28H124V4.7zm13.8 2.6c1.1 0 3.4 0 5.1 1.3 1.2.9 1.9 2.5 1.9 4.3 0 2.7-1.8 3.8-2.3 4.1 1.4.2 2.2.8 2.7 1.3 1.2 1.2 1.5 2.8 1.5 3.9 0 1.2-.3 2.9-1.8 4.2-1.6 1.4-3.4 1.7-5.2 1.7h-6.9V7.3h5zm-1.1 8.6h1.1c.6 0 3.1-.1 3.1-2.7 0-1.9-1.5-2.6-3.1-2.6h-1.2v5.3h.1zm0 8.8h1.7c.7 0 1.9 0 2.8-.6 1-.6 1.3-1.6 1.3-2.4 0-.7-.2-1.8-1.5-2.4-.9-.4-1.9-.4-2.8-.4h-1.5v5.8zm22.7-10.2h3.8V28h-3.8v-1.7c-1.4 2-3.2 2.2-4.1 2.2-4.1 0-6.9-3.2-6.9-7.2s2.7-7.1 6.7-7.1c1 0 3 .2 4.3 2.2v-1.9zm-7.1 6.7c0 2.1 1.5 3.8 3.7 3.8s3.7-1.7 3.7-3.8c0-2.1-1.6-3.8-3.7-3.8s-3.7 1.7-3.7 3.8zm13.1-6.7h3.8v1.7c.7-1 2-2.2 4.2-2.2 1.2 0 2.9.3 4 1.6.9 1.1 1.1 2.5 1.1 3.8V28h-3.8v-7.3c0-.7 0-1.9-.7-2.6-.6-.6-1.4-.7-1.8-.7-1 0-1.8.3-2.3 1.2-.6.9-.6 1.8-.6 2.6V28h-3.8V14.5h-.1zm19.7-9.8v14.7l5-4.9h4.9l-6.3 5.9 6.8 7.5h-5l-5-5.7-.4.4V28h-3.8V4.7z"/></g></svg>