<svg width="141" height="32" viewBox="0 0 141 32" fill="none" xmlns="http://www.w3.org/2000/svg">
<g clip-path="url(#clip0_1710_19679)">
<path d="M27.9645 10.335C29.898 10.335 31.4767 11.1859 32.1412 11.8204L31.0286 13.1826C30.1606 12.4627 29.0739 12.0588 27.9464 12.0369C25.5168 12.0369 24.0012 13.7088 24.0012 16.0002C24.0012 18.2915 25.4266 19.9604 27.9645 19.9604C29.1899 19.9376 30.3653 19.4707 31.2722 18.6464L32.3247 20.0536C31.6601 20.7513 30.0032 21.6624 27.9615 21.6624C24.3861 21.6624 22.173 19.2568 22.173 16.0002C22.173 12.7436 24.4343 10.335 27.9645 10.335Z" fill="#003790"/>
<path d="M38.9942 10.335C42.3019 10.335 44.7075 12.7406 44.7075 16.0002C44.7075 19.2598 42.3019 21.6624 38.9942 21.6624C35.6865 21.6624 33.2809 19.2568 33.2809 16.0002C33.2809 12.7436 35.6835 10.335 38.9942 10.335ZM38.9942 19.9574C41.2374 19.9574 42.9033 18.2705 42.9033 15.9972C42.9033 13.7239 41.2465 12.0339 38.9942 12.0339C36.742 12.0339 35.0851 13.7209 35.0851 15.9972C35.0851 18.2735 36.751 19.9604 38.9942 19.9604V19.9574Z" fill="#003790"/>
<path d="M56.0951 18.2733C56.0951 19.867 55.0727 21.4156 52.4266 21.4156H46.6531V10.5693H52.0868C54.2849 10.5693 55.5538 11.9315 55.5538 13.4651C55.5538 14.3311 55.1509 15.119 54.1917 15.7534C55.1659 16.0902 56.0951 16.7878 56.0951 18.2733ZM48.4332 12.2833V15.1641L51.8703 15.146C53.0911 15.146 53.7256 14.4664 53.7256 13.6605C53.7256 12.9178 53.1843 12.2833 52.1018 12.2833H48.4332ZM52.5348 19.7137C53.7887 19.7137 54.2699 19.016 54.2699 18.2583C54.2699 17.4374 53.6955 16.7728 52.5649 16.7728H48.4332V19.7137H52.5348Z" fill="#003790"/>
<path d="M63.2128 15.8286L68.024 21.4156H65.6424L61.6431 16.6796H59.5863V21.4156H57.8062V10.5693H59.5863V15.0558H61.6431L65.5522 10.5693H67.9217L63.2128 15.8286Z" fill="#003790"/>
<path d="M73.5058 10.335C76.8135 10.335 79.2191 12.7406 79.2191 16.0002C79.2191 19.2598 76.8135 21.6624 73.5058 21.6624C70.1981 21.6624 67.7925 19.2568 67.7925 16.0002C67.7925 12.7436 70.1921 10.335 73.5058 10.335ZM73.5058 19.9574C75.749 19.9574 77.4149 18.2705 77.4149 15.9972C77.4149 13.7239 75.7581 12.0339 73.5058 12.0339C71.2536 12.0339 69.5967 13.7209 69.5967 15.9972C69.5967 18.2735 71.2656 19.9604 73.5058 19.9604V19.9574Z" fill="#003790"/>
<path d="M91.2081 10.5693H92.916V21.3946H91.1359V13.3689L87.5756 18.12H86.4931L82.9327 13.3689V21.4156H81.1526V10.5693H82.8696L87.0343 16.1263L91.2081 10.5693Z" fill="#003790"/>
<path d="M101.083 15.0077C103.465 15.0077 104.767 16.3999 104.767 18.1951C104.767 19.9903 103.465 21.4156 101.206 21.4156H95.3217V10.5693H103.756V12.2833H97.1048V15.0077H101.083ZM101.128 19.7137C102.367 19.7137 102.932 19.0311 102.932 18.2102C102.932 17.3892 102.376 16.7067 101.128 16.7067H97.1048V19.7137H101.128Z" fill="#003790"/>
<path d="M114.654 21.4156L113.478 18.7093H108.366L107.19 21.4156H105.245L109.948 10.5903H111.914L116.62 21.4156H114.654ZM109.052 17.0825H112.78L110.925 12.7644L109.052 17.0825Z" fill="#003790"/>
<path d="M125.966 10.5693H127.746V21.3946H125.966V16.7728H119.7V21.4156H117.919V10.5693H119.7V15.0799H125.966V10.5693Z" fill="#003790"/>
<path d="M135.562 15.8286L140.358 21.4156H137.991L133.983 16.6796H131.926V21.4156H130.146V10.5693H131.926V15.0558H133.983L137.892 10.5814H140.262L135.562 15.8286Z" fill="#003790"/>
<path d="M0.729985 15.9968C0.728799 17.1794 0.960738 18.3505 1.41254 19.4433C1.86433 20.5361 2.52713 21.5291 3.36301 22.3656C4.1989 23.202 5.19148 23.8655 6.28398 24.318C7.37648 24.7705 8.54747 25.0032 9.72998 25.0029H10.0908V21.5779H9.72998C8.98637 21.5951 8.24681 21.4636 7.55477 21.1909C6.86272 20.9183 6.23216 20.5101 5.70014 19.9903C5.16811 19.4704 4.74536 18.8495 4.45674 18.164C4.16811 17.4785 4.01943 16.7422 4.01943 15.9983C4.01943 15.2545 4.16811 14.5182 4.45674 13.8327C4.74536 13.1472 5.16811 12.5262 5.70014 12.0064C6.23216 11.4866 6.86272 11.0784 7.55477 10.8058C8.24681 10.5331 8.98637 10.4016 9.72998 10.4188H10.0908V7.00586H9.72998C7.3446 7.00586 5.05678 7.95283 3.36921 9.63871C1.68164 11.3246 0.732376 13.6115 0.729985 15.9968" fill="#FC5055"/>
<path d="M11.5281 7.18066V11.8596H9.72392C9.17097 11.8447 8.62064 11.9407 8.10542 12.142C7.5902 12.3433 7.12054 12.6458 6.72417 13.0317C6.3278 13.4175 6.01275 13.8788 5.79763 14.3884C5.58251 14.898 5.47168 15.4456 5.47168 15.9987C5.47168 16.5519 5.58251 17.0994 5.79763 17.609C6.01275 18.1186 6.3278 18.58 6.72417 18.9658C7.12054 19.3516 7.5902 19.6541 8.10542 19.8555C8.62064 20.0568 9.17097 20.1528 9.72392 20.1379H11.5281V24.8168C13.5606 24.4018 15.3873 23.2975 16.6992 21.6907C18.0111 20.0838 18.7277 18.0731 18.7277 15.9987C18.7277 13.9244 18.0111 11.9137 16.6992 10.3068C15.3873 8.69997 13.5606 7.59564 11.5281 7.18066Z" fill="#003790"/>
</g>
<defs>
<clipPath id="clip0_1710_19679">
<rect width="139.631" height="18" fill="white" transform="translate(0.72998 7)"/>
</clipPath>
</defs>
</svg>
