<svg width="117" height="32" viewBox="0 0 117 32" fill="none" xmlns="http://www.w3.org/2000/svg">
<g clip-path="url(#clip0_1710_19678)">
<path d="M26.952 0H7.048C3.70778 0 1 2.70778 1 6.048V25.952C1 29.2922 3.70778 32 7.048 32H26.952C30.2922 32 33 29.2922 33 25.952V6.048C33 2.70778 30.2922 0 26.952 0Z" fill="#FFE600"/>
<path d="M21.5759 14.4401V11.3921L22.6799 10.2881V12.9361L23.6399 13.8961L27.5039 10.0321L28.4559 10.9921C28.4409 9.28337 27.7507 7.64991 26.5359 6.44811C25.9542 5.79233 25.1372 5.39256 24.2624 5.33564C23.3877 5.27872 22.5258 5.56925 21.8639 6.14411L18.0079 10.0001L18.9919 10.9841L16.9999 12.9761L15.0079 10.9841L15.9919 10.0001L12.1359 6.14411C11.4741 5.56925 10.6122 5.27872 9.73745 5.33564C8.86267 5.39256 8.04569 5.79233 7.46395 6.44811C6.24916 7.64991 5.55897 9.28337 5.54395 10.9921L6.49595 10.0321L10.3599 13.8961L11.3199 12.9361V10.2881L12.4239 11.3921V14.4401L13.9759 16.0001L6.33595 23.6481L9.35194 26.6641L16.9999 19.0241L24.6479 26.6641L27.6639 23.6481L20.0239 16.0001L21.5759 14.4401Z" fill="#2B2D34"/>
<path d="M38.336 17.3359H44.096V19.1519H40.488V21.0159H41.688C42.1621 20.9781 42.639 21.035 43.0909 21.1834C43.5427 21.3317 43.9606 21.5685 44.32 21.8799C44.5783 22.1328 44.7823 22.4355 44.9199 22.7697C45.0574 23.1039 45.1255 23.4626 45.12 23.8239C45.1276 24.1939 45.0606 24.5616 44.9232 24.9052C44.7858 25.2488 44.5806 25.5612 44.32 25.8239C43.9287 26.1374 43.4788 26.3696 42.9967 26.507C42.5145 26.6443 42.0097 26.6841 41.512 26.6239H38.312L38.336 17.3359ZM41.344 24.9279C41.7511 24.9535 42.1561 24.8529 42.504 24.6399C42.6225 24.5308 42.7161 24.3974 42.7783 24.2489C42.8405 24.1003 42.87 23.9401 42.8647 23.7791C42.8594 23.6181 42.8194 23.4602 42.7475 23.316C42.6756 23.1719 42.5734 23.045 42.448 22.9439C42.1105 22.7596 41.728 22.6737 41.344 22.6959H40.488V24.9279H41.344Z" fill="#2B2D34"/>
<path d="M50.888 20.4239H52.904V26.6639H50.888V25.9119C50.6913 26.2206 50.4172 26.4724 50.093 26.6422C49.7688 26.812 49.4057 26.894 49.04 26.8799C48.6044 26.9043 48.1689 26.8315 47.7649 26.6668C47.3609 26.5022 46.9985 26.2498 46.704 25.9279C46.1063 25.299 45.7813 24.4594 45.8 23.5919C45.7758 22.6568 46.124 21.7504 46.768 21.0719C47.0532 20.7907 47.3922 20.5699 47.7647 20.4229C48.1372 20.2758 48.5356 20.2054 48.936 20.2159C49.3118 20.2001 49.686 20.2747 50.027 20.4334C50.368 20.5921 50.666 20.8303 50.896 21.1279L50.888 20.4239ZM48.328 22.3999C48.1767 22.5472 48.0575 22.7241 47.9776 22.9196C47.8978 23.115 47.8591 23.3249 47.864 23.5359C47.8549 23.9462 48.0039 24.3443 48.28 24.6479C48.4351 24.8066 48.6206 24.9323 48.8254 25.0175C49.0302 25.1028 49.2502 25.1458 49.472 25.1439C49.6672 25.1442 49.8605 25.1054 50.0405 25.0298C50.2204 24.9542 50.3835 24.8434 50.52 24.7039C50.6765 24.5527 50.8005 24.3711 50.8844 24.1703C50.9683 23.9694 51.0104 23.7536 51.008 23.5359C51.0126 23.1118 50.8486 22.7032 50.552 22.3999C50.2442 22.1236 49.8457 21.9698 49.432 21.9679C49.0223 21.9653 48.6271 22.1199 48.328 22.3999V22.3999Z" fill="#2B2D34"/>
<path d="M54.12 20.4238H56.136V22.5918H58.384V20.4238H60.4V26.6638H58.384V24.2158H56.136V26.6638H54.12V20.4238Z" fill="#2B2D34"/>
<path d="M61.616 20.4238H63.632V22.9038L65.672 20.4238H68.2L65.52 23.3198L68.376 26.6638H65.8L63.672 23.8958V26.6638H61.616V20.4238Z" fill="#2B2D34"/>
<path d="M41.6239 5.33614C42.5117 5.284 43.3863 5.56981 44.0719 6.13614C44.3804 6.41769 44.6234 6.76348 44.7837 7.14912C44.9441 7.53476 45.0179 7.95088 44.9999 8.36814C45.0204 8.7697 44.9601 9.17128 44.8227 9.54915C44.6853 9.92703 44.4736 10.2735 44.1999 10.5681C43.8753 10.8576 43.495 11.0778 43.0824 11.2154C42.6697 11.3529 42.2333 11.4049 41.7999 11.3681H40.4879V14.6401H38.3359V5.33614H41.6239ZM40.4879 9.60014H41.2879C41.7058 9.63949 42.1224 9.51308 42.4479 9.24814C42.5647 9.12417 42.6559 8.9784 42.7163 8.81917C42.7767 8.65994 42.8051 8.49036 42.7999 8.32014C42.8074 8.15325 42.78 7.98665 42.7194 7.83098C42.6587 7.67532 42.5663 7.53402 42.4479 7.41614C42.1093 7.14648 41.6786 7.02012 41.2479 7.06414H40.5199L40.4879 9.60014Z" fill="#2B2D34"/>
<path d="M50.24 8.42411H52.256V14.6641H50.24V13.9121C50.0445 14.2219 49.7706 14.4746 49.4461 14.6445C49.1216 14.8145 48.758 14.8958 48.392 14.8801C47.9565 14.9033 47.5213 14.83 47.1175 14.6654C46.7137 14.5008 46.3512 14.2491 46.056 13.9281C45.4583 13.2986 45.1309 12.4601 45.144 11.5921C45.1198 10.657 45.468 9.75057 46.112 9.07211C46.3974 8.79126 46.7365 8.57073 47.109 8.42367C47.4814 8.27661 47.8797 8.20602 48.28 8.21611C48.6559 8.19965 49.0303 8.27393 49.3714 8.43267C49.7126 8.59141 50.0105 8.82994 50.24 9.12811V8.42411ZM47.68 10.4001C47.5317 10.5496 47.4144 10.7269 47.3348 10.9219C47.2551 11.1168 47.2148 11.3255 47.216 11.5361C47.2091 11.9475 47.3609 12.3458 47.64 12.6481C47.7941 12.8058 47.9783 12.9309 48.1817 13.0161C48.3851 13.1013 48.6035 13.1449 48.824 13.1441C49.2204 13.1431 49.6002 12.9849 49.88 12.7041C50.1858 12.3955 50.3574 11.9786 50.3574 11.5441C50.3574 11.1096 50.1858 10.6927 49.88 10.3841C49.5734 10.1058 49.1741 9.95174 48.76 9.95211C48.3564 9.95985 47.9706 10.1199 47.68 10.4001V10.4001Z" fill="#2B2D34"/>
<path d="M55.488 8.42386V11.9999L58.144 8.43186H60.024V14.6719H58.0081V11.0399L55.3521 14.6639H53.472V8.42386H55.488ZM59.28 5.90386C59.1229 6.39011 58.8075 6.80974 58.3841 7.09586C57.8772 7.3537 57.3167 7.4881 56.748 7.4881C56.1794 7.4881 55.6189 7.3537 55.112 7.09586C54.6886 6.80974 54.3732 6.39011 54.216 5.90386L55.616 5.35986C55.6557 5.62426 55.7942 5.86377 56.0035 6.03007C56.2129 6.19636 56.4775 6.27705 56.744 6.25586C57.0324 6.2765 57.3179 6.18798 57.544 6.00786C57.7326 5.83781 57.8593 5.60983 57.904 5.35986L59.28 5.90386Z" fill="#2B2D34"/>
<path d="M64.4721 17.7759V14.7679H64.3841C63.9122 14.7908 63.4405 14.719 62.9967 14.5569C62.553 14.3948 62.1461 14.1456 61.8001 13.8239C61.5008 13.5218 61.2669 13.1613 61.1128 12.765C60.9587 12.3686 60.8876 11.9449 60.9041 11.5199C60.8873 11.058 60.9758 10.5982 61.1629 10.1755C61.35 9.75275 61.6308 9.37812 61.9841 9.07994C62.6824 8.57774 63.524 8.31404 64.3841 8.32794H64.4801V5.33594H66.4961V8.32794H66.6001C67.4601 8.31404 68.3017 8.57774 69 9.07994C69.3505 9.38004 69.6288 9.75522 69.8144 10.1776C70 10.6 70.0881 11.0588 70.072 11.5199C70.0885 11.9449 70.0174 12.3686 69.8633 12.765C69.7092 13.1613 69.4753 13.5218 69.1761 13.8239C68.832 14.1461 68.4266 14.3957 67.984 14.5579C67.5415 14.7201 67.0708 14.7915 66.6001 14.7679H66.5201V17.7759H64.4721ZM64.5681 9.95194C64.3402 9.93336 64.111 9.96215 63.8948 10.0365C63.6787 10.1108 63.4803 10.2291 63.3121 10.3839C63.033 10.6948 62.8865 11.1025 62.9041 11.5199C62.8894 11.9393 63.0354 12.3485 63.3121 12.6639C63.4768 12.8265 63.6735 12.9531 63.8897 13.0358C64.1059 13.1184 64.3369 13.1552 64.5681 13.1439V9.95194ZM66.3921 13.1519C66.6232 13.1627 66.854 13.1257 67.0702 13.0431C67.2863 12.9605 67.483 12.8341 67.648 12.6719C67.9247 12.3565 68.0707 11.9473 68.0561 11.5279C68.0715 11.1133 67.9252 10.7088 67.648 10.3999C67.4796 10.2455 67.2811 10.1275 67.065 10.0532C66.8489 9.97886 66.6198 9.94984 66.3921 9.96794V13.1519Z" fill="#2B2D34"/>
<path d="M74.168 17.7759V14.7679H74.08C73.6121 14.7875 73.145 14.7142 72.7055 14.5522C72.2661 14.3901 71.8632 14.1426 71.52 13.8239C71.2165 13.5238 70.9781 13.1643 70.8198 12.7678C70.6615 12.3714 70.5867 11.9466 70.6 11.5199C70.5832 11.058 70.6717 10.5982 70.8588 10.1755C71.046 9.75275 71.3268 9.37812 71.68 9.07994C72.3784 8.57774 73.22 8.31404 74.08 8.32794H74.176V5.33594H76.2V8.32794H76.296C77.1561 8.31404 77.9977 8.57774 78.696 9.07994C79.0378 9.38464 79.3071 9.76186 79.4842 10.184C79.6614 10.6062 79.742 11.0626 79.72 11.5199C79.7365 11.9449 79.6654 12.3686 79.5113 12.765C79.3572 13.1613 79.1232 13.5218 78.824 13.8239C78.4819 14.1441 78.0791 14.3926 77.6395 14.5547C77.1998 14.7168 76.7321 14.7893 76.264 14.7679H76.2V17.7759H74.168ZM74.264 9.95194C74.0338 9.93484 73.8025 9.96584 73.5849 10.043C73.3673 10.1201 73.1681 10.2417 73 10.3999C72.7209 10.7108 72.5745 11.1185 72.592 11.5359C72.5815 11.9498 72.7272 12.3525 73 12.6639C73.1648 12.8265 73.3615 12.9531 73.5777 13.0358C73.7939 13.1184 74.0249 13.1552 74.256 13.1439L74.264 9.95194ZM76.088 13.1519C76.3192 13.1627 76.55 13.1257 76.7662 13.0431C76.9823 12.9605 77.179 12.8341 77.344 12.6719C77.6207 12.3565 77.7666 11.9473 77.752 11.5279C77.7675 11.1133 77.6212 10.7088 77.344 10.3999C77.1756 10.2455 76.9771 10.1275 76.761 10.0532C76.5449 9.97886 76.3158 9.94984 76.088 9.96794V13.1519Z" fill="#2B2D34"/>
<path d="M85.416 8.42411H87.4V14.6641H85.384V13.9121C85.1885 14.2219 84.9147 14.4746 84.5902 14.6445C84.2657 14.8145 83.902 14.8958 83.536 14.8801C83.1006 14.9033 82.6654 14.83 82.2616 14.6654C81.8577 14.5008 81.4953 14.2491 81.2 13.9281C80.6023 13.2986 80.275 12.4601 80.288 11.5921C80.2639 10.657 80.6121 9.75057 81.256 9.07211C81.5415 8.79126 81.8805 8.57073 82.253 8.42367C82.6255 8.27661 83.0237 8.20602 83.424 8.21611C83.8 8.19965 84.1743 8.27393 84.5155 8.43267C84.8566 8.59141 85.1545 8.82994 85.384 9.12811L85.416 8.42411ZM82.856 10.4001C82.7078 10.5496 82.5904 10.7269 82.5108 10.9219C82.4312 11.1168 82.3908 11.3255 82.392 11.5361C82.3851 11.9475 82.537 12.3458 82.816 12.6481C82.9711 12.8068 83.1566 12.9325 83.3615 13.0177C83.5663 13.1029 83.7862 13.1459 84.008 13.1441C84.4018 13.1419 84.7787 12.9837 85.056 12.7041C85.3619 12.3955 85.5334 11.9786 85.5334 11.5441C85.5334 11.1096 85.3619 10.6927 85.056 10.3841C84.7495 10.1058 84.3501 9.95174 83.936 9.95211C83.5324 9.95985 83.1466 10.1199 82.856 10.4001V10.4001Z" fill="#2B2D34"/>
<path d="M90.664 8.42386V11.9999L93.32 8.43186H95.2V14.6719H93.184V11.0399L90.528 14.6639H88.6479V8.42386H90.664ZM94.456 5.90386C94.2988 6.39011 93.9833 6.80974 93.5599 7.09586C93.0531 7.3537 92.4926 7.4881 91.924 7.4881C91.3553 7.4881 90.7948 7.3537 90.288 7.09586C89.8646 6.80974 89.5491 6.39011 89.3919 5.90386L90.7919 5.35986C90.8316 5.62426 90.9701 5.86377 91.1794 6.03007C91.3888 6.19636 91.6534 6.27705 91.92 6.25586C92.2083 6.2765 92.4938 6.18798 92.72 6.00786C92.9085 5.83781 93.0352 5.60983 93.08 5.35986L94.456 5.90386Z" fill="#2B2D34"/>
<path d="M96.2 8.96003C96.528 8.7566 96.8734 8.58259 97.232 8.44003C97.7068 8.28377 98.2043 8.20806 98.704 8.21603C99.4612 8.17564 100.209 8.40212 100.816 8.85603C100.971 9.00362 101.093 9.18285 101.173 9.3816C101.253 9.58035 101.29 9.79398 101.28 10.008C101.294 10.2023 101.266 10.3973 101.2 10.5805C101.134 10.7637 101.031 10.9311 100.896 11.072C100.747 11.225 100.567 11.3449 100.368 11.424C100.668 11.5031 100.944 11.6573 101.168 11.872C101.308 12.0037 101.418 12.1642 101.489 12.3424C101.561 12.5205 101.593 12.7122 101.584 12.904C101.586 13.1469 101.539 13.3877 101.446 13.6119C101.352 13.8361 101.214 14.0389 101.04 14.208C100.721 14.4671 100.354 14.66 99.9598 14.7754C99.5655 14.8908 99.1522 14.9264 98.744 14.88C98.1639 14.8887 97.5869 14.7939 97.04 14.6C96.6344 14.4384 96.2565 14.2143 95.92 13.936L96.776 12.608C97.0154 12.8159 97.2852 12.9859 97.576 13.112C97.881 13.2373 98.2064 13.3052 98.536 13.312C98.7879 13.3167 99.0374 13.2619 99.264 13.152C99.3507 13.108 99.423 13.0403 99.4726 12.9567C99.5222 12.8731 99.547 12.7772 99.544 12.68C99.5452 12.5884 99.5182 12.4986 99.4667 12.4228C99.4152 12.347 99.3417 12.2888 99.256 12.256C99.0201 12.1834 98.7749 12.1456 98.528 12.144H97.728V10.776H98.304C98.5592 10.7815 98.8135 10.7436 99.056 10.664C99.1355 10.6316 99.2035 10.5762 99.2514 10.505C99.2993 10.4338 99.3249 10.3499 99.3249 10.264C99.3249 10.1782 99.2993 10.0943 99.2514 10.0231C99.2035 9.95181 99.1355 9.89645 99.056 9.86403C98.8551 9.78439 98.6401 9.74629 98.424 9.75203C98.1486 9.75142 97.876 9.80865 97.624 9.92003C97.3791 10.0182 97.1521 10.156 96.952 10.328L96.2 8.96003Z" fill="#2B2D34"/>
<path d="M108.936 11.8962H104.28C104.283 12.2829 104.415 12.6576 104.656 12.9602C104.792 13.0951 104.955 13.1997 105.134 13.2673C105.313 13.3348 105.505 13.3638 105.696 13.3522C105.974 13.3615 106.25 13.298 106.496 13.1682C106.684 13.037 106.833 12.8573 106.928 12.6482L108.832 12.8482C108.641 13.5104 108.214 14.0796 107.632 14.4482C107.028 14.7803 106.345 14.9408 105.656 14.9122C105.201 14.9488 104.744 14.8877 104.315 14.7332C103.886 14.5787 103.495 14.3342 103.168 14.0162C102.86 13.6983 102.618 13.3225 102.456 12.9106C102.294 12.4987 102.215 12.0587 102.224 11.6162C102.215 10.7034 102.556 9.82191 103.176 9.15218C103.495 8.84869 103.872 8.61286 104.284 8.45888C104.697 8.3049 105.136 8.23595 105.576 8.25618C106.03 8.23315 106.484 8.30443 106.91 8.46552C107.335 8.62661 107.723 8.87402 108.048 9.19218C108.661 9.8903 108.977 10.8004 108.928 11.7282L108.936 11.8962ZM107.08 10.6962C107.011 10.4217 106.87 10.1705 106.672 9.96818C106.416 9.72435 106.073 9.59202 105.72 9.60018C105.53 9.59295 105.341 9.62551 105.165 9.69578C104.988 9.76605 104.829 9.87247 104.696 10.0082C104.523 10.1969 104.404 10.4292 104.352 10.6802L107.08 10.6962Z" fill="#2B2D34"/>
<path d="M109.848 8.42383H111.864V10.5918H114.112V8.42383H116.128V14.6638H114.112V12.2158H111.864V14.6638H109.848V8.42383Z" fill="#2B2D34"/>
</g>
<defs>
<clipPath id="clip0_1710_19678">
<rect width="115.128" height="32" fill="white" transform="translate(1)"/>
</clipPath>
</defs>
</svg>
