<svg width="154" height="32" viewBox="0 0 154 32" fill="none" xmlns="http://www.w3.org/2000/svg">
<path d="M22.0242 8.62158C22.5817 9.3521 23.0537 10.1457 23.4306 10.9866L12.7396 18.9736L8.27148 16.1351V12.7202L12.7396 15.5587L22.0242 8.62158Z" fill="#21A038"/>
<path d="M3.71147 15.894C3.71147 15.7408 3.71516 15.5886 3.72253 15.4372L1.01475 15.3027C1.00553 15.4989 1 15.6969 1 15.8968C0.998851 17.4584 1.30193 19.0048 1.89186 20.4473C2.48179 21.8899 3.34695 23.2003 4.43772 24.3032L6.35842 22.3576C5.51879 21.5101 4.8527 20.5027 4.39844 19.3935C3.94419 18.2843 3.71073 17.095 3.71147 15.894Z" fill="url(#paint0_linear_1710_19480)"/>
<path d="M12.737 6.74707C12.8882 6.74707 13.0383 6.75268 13.1877 6.76015L13.3231 4.015C13.129 4.00566 12.9336 4.00099 12.737 4.00099C11.1954 3.99908 9.66874 4.30579 8.24449 4.90352C6.82024 5.50124 5.52652 6.3782 4.43762 7.48404L6.35832 9.43059C7.1946 8.57937 8.18867 7.90408 9.28336 7.44355C10.3781 6.98302 11.5517 6.74632 12.737 6.74707Z" fill="url(#paint1_linear_1710_19480)"/>
<path d="M12.7371 25.0414C12.586 25.0414 12.4357 25.0414 12.2855 25.0293L12.15 27.7735C12.3448 27.7835 12.5405 27.7885 12.7371 27.7885C14.278 27.7901 15.804 27.4832 17.2275 26.8853C18.651 26.2874 19.9438 25.4103 21.0319 24.3045L19.1149 22.3589C18.2785 23.2097 17.2845 23.8846 16.19 24.3449C15.0956 24.8053 13.9221 25.042 12.7371 25.0414Z" fill="url(#paint2_linear_1710_19480)"/>
<path d="M17.8246 8.34332L20.1066 6.63869C18.0208 4.92702 15.4173 3.99525 12.7334 4.00002V6.74704C14.5508 6.74476 16.326 7.30137 17.8246 8.34332Z" fill="url(#paint3_linear_1710_19480)"/>
<path d="M24.4733 15.8942C24.4748 15.1796 24.4131 14.4662 24.289 13.7627L21.7628 15.6495C21.7628 15.7308 21.7628 15.812 21.7628 15.8942C21.7634 17.1722 21.4991 18.4361 20.9869 19.604C20.4747 20.7719 19.7261 21.8176 18.7896 22.6735L20.6117 24.7144C21.8292 23.6004 22.8021 22.2396 23.4674 20.7202C24.1327 19.2007 24.4754 17.5565 24.4733 15.8942Z" fill="#21A038"/>
<path d="M12.7371 25.0411C11.476 25.0415 10.2288 24.7735 9.07625 24.2544C7.9238 23.7354 6.89174 22.9768 6.04692 22.0278L4.03406 23.8735C5.13308 25.1076 6.47577 26.0938 7.97507 26.7682C9.47436 27.4425 11.0968 27.79 12.7371 27.788V25.0411Z" fill="url(#paint4_linear_1710_19480)"/>
<path d="M6.68469 9.11462L4.86353 7.07373C3.64564 8.18746 2.67235 9.54819 2.00676 11.0677C1.34119 12.5871 0.998185 14.2314 1.00001 15.8939H3.71148C3.71092 14.6159 3.9753 13.352 4.48748 12.1841C4.99967 11.0163 5.74824 9.97055 6.68469 9.11462Z" fill="url(#paint5_linear_1710_19480)"/>
<path d="M68.7308 10.8017L72.089 8.32275H60.8499V23.2193H72.089V20.7403H64.0568V16.9246H70.9086V14.4456H64.0568V10.8017H68.7308Z" fill="#21A038"/>
<path d="M53.2875 14.1262H49.3855V10.801H55.6129L58.9691 8.31445H46.1804V23.211H52.8747C56.6279 23.211 58.7819 21.5066 58.7819 18.5341C58.7819 15.6904 56.8309 14.1262 53.2875 14.1262ZM52.7304 20.7313H49.3855V16.6036H52.7304C54.7604 16.6036 55.7121 17.2953 55.7121 18.6675C55.7121 20.0395 54.6994 20.7313 52.7304 20.7313Z" fill="#21A038"/>
<path d="M80.3506 8.3208H74.2328V23.2173H77.4393V18.9974H80.3506C84.2539 18.9974 86.6684 16.9394 86.6684 13.6511C86.6684 10.3629 84.2539 8.3208 80.3506 8.3208ZM80.283 16.5165H77.4393V10.8017H80.283C82.3361 10.8017 83.4692 11.8171 83.4692 13.6602C83.4692 15.5034 82.3361 16.5165 80.283 16.5165Z" fill="#21A038"/>
<path d="M41.3683 19.7018C40.54 20.1513 39.6119 20.384 38.67 20.3785C35.8508 20.3785 33.8056 18.3618 33.8056 15.5849C33.8056 12.8079 35.8508 10.7868 38.67 10.7868C39.6866 10.7695 40.6822 11.0784 41.5112 11.6684L43.7543 10.0132L43.6026 9.90525C42.2941 8.75258 40.5458 8.14209 38.5447 8.14209C36.3741 8.14209 34.406 8.8738 33.0008 10.205C32.2902 10.8904 31.7283 11.7152 31.3499 12.6279C30.9716 13.5407 30.7849 14.5217 30.8017 15.5099C30.7866 16.5082 30.9725 17.4992 31.348 18.4239C31.7236 19.3487 32.2812 20.188 32.9876 20.892C34.3994 22.2761 36.3632 23.0386 38.5183 23.0386C40.7701 23.0386 42.7384 22.2518 44.071 20.8193L42.0632 19.3206L41.3683 19.7018Z" fill="#21A038"/>
<path d="M99.3833 14.1262H95.4829V10.801H103.865V8.31445H92.2756V23.211H98.9615C102.714 23.211 104.868 21.5066 104.868 18.5341C104.877 15.6904 102.927 14.1262 99.3833 14.1262ZM98.8262 20.7313H95.4829V16.6036H98.8262C100.856 16.6036 101.807 17.2953 101.807 18.6675C101.807 20.0395 100.804 20.7313 98.8262 20.7313Z" fill="#21A038"/>
<path d="M141.325 23.1896H138.074V8.29297H141.325V14.5496H143.095L147.873 8.29297H151.557L145.889 15.3794L152.471 23.1896H148.157L143.32 17.3309H141.325V23.1896Z" fill="#21A038"/>
<path d="M116.679 20.3588H109.802L108.636 23.2515H105.177L111.627 8.35498H115.086L121.431 23.2515H117.845L116.679 20.3588ZM115.602 17.6597L113.261 11.8741L110.907 17.6597H115.602Z" fill="#21A038"/>
<path d="M125.808 8.35498V14.5755H132.535V8.35498H135.887V23.2515H132.535V17.3818H125.808V23.2515H122.456V8.35498H125.808Z" fill="#21A038"/>
<defs>
<linearGradient id="paint0_linear_1710_19480" x1="4.9861" y1="23.9604" x2="1.95246" y2="15.3072" gradientUnits="userSpaceOnUse">
<stop offset="0.14" stop-color="#F1E813"/>
<stop offset="0.3" stop-color="#E6E418"/>
<stop offset="0.58" stop-color="#C9DA26"/>
<stop offset="0.89" stop-color="#A2CC39"/>
</linearGradient>
<linearGradient id="paint1_linear_1710_19480" x1="5.2118" y1="7.96974" x2="12.8677" y2="5.09094" gradientUnits="userSpaceOnUse">
<stop offset="0.06" stop-color="#0FA7DF"/>
<stop offset="0.54" stop-color="#0098F8"/>
<stop offset="0.92" stop-color="#0290EA"/>
</linearGradient>
<linearGradient id="paint2_linear_1710_19480" x1="11.9713" y1="26.1305" x2="20.6107" y2="24.2047" gradientUnits="userSpaceOnUse">
<stop offset="0.12" stop-color="#A2CC39"/>
<stop offset="0.28" stop-color="#86C239"/>
<stop offset="0.87" stop-color="#219F38"/>
</linearGradient>
<linearGradient id="paint3_linear_1710_19480" x1="12.1694" y1="4.92005" x2="19.5631" y2="7.17144" gradientUnits="userSpaceOnUse">
<stop offset="0.06" stop-color="#0290EA"/>
<stop offset="0.79" stop-color="#0C89CA"/>
</linearGradient>
<linearGradient id="paint4_linear_1710_19480" x1="4.71422" y1="23.5391" x2="12.7696" y2="26.5097" gradientUnits="userSpaceOnUse">
<stop offset="0.13" stop-color="#F1E813"/>
<stop offset="0.3" stop-color="#EAE616"/>
<stop offset="0.53" stop-color="#D8DF1F"/>
<stop offset="0.8" stop-color="#BAD52D"/>
<stop offset="0.98" stop-color="#A2CC39"/>
</linearGradient>
<linearGradient id="paint5_linear_1710_19480" x1="2.01012" y1="16.2264" x2="5.30893" y2="7.75897" gradientUnits="userSpaceOnUse">
<stop offset="0.07" stop-color="#A2CC39"/>
<stop offset="0.26" stop-color="#81C45E"/>
<stop offset="0.92" stop-color="#0FA7DF"/>
</linearGradient>
</defs>
</svg>
