<svg width="71" height="32" viewBox="0 0 71 32" fill="none" xmlns="http://www.w3.org/2000/svg">
<g clip-path="url(#clip0_1710_19547)">
<path fill-rule="evenodd" clip-rule="evenodd" d="M6.54593 2L5.40874 5.11499H21.1677L22.3049 2H6.54593ZM4.83979 6.67178L3.7026 9.78606H19.4615L20.5987 6.67178H4.83979ZM3.13719 11.3436L2 14.4578H17.7589L18.8954 11.3436H3.13719Z" fill="#009FDF"/>
<mask id="mask0_1710_19547" style="mask-type:alpha" maskUnits="userSpaceOnUse" x="25" y="6" width="44" height="20">
<path d="M25.6434 25.8127H68.7817V6.73145H25.6434V25.8127Z" fill="white"/>
</mask>
<g mask="url(#mask0_1710_19547)">
<path fill-rule="evenodd" clip-rule="evenodd" d="M35.5025 15.6447V15.7104C36.2227 15.9747 36.9106 16.437 37.2711 16.7338C38.3847 17.6583 38.8763 18.8796 38.8763 20.4642C38.8763 23.0729 37.5004 24.9544 35.2402 25.5488C34.5523 25.7467 33.8321 25.8131 32.4885 25.8131H25.6434V6.73145H31.7031C32.9478 6.73145 33.7991 6.79717 34.5523 6.99506C36.7473 7.58947 38.1883 9.10835 38.1883 11.5178C38.1883 12.8055 37.7297 13.8954 36.9766 14.6212C36.6491 14.9513 36.1904 15.3478 35.5025 15.6447ZM29.4429 17.6583V22.6764H32.0635C32.8489 22.6764 33.5698 22.6107 34.0944 22.1153C34.6182 21.6198 34.8475 20.9929 34.8475 20.1674C34.8475 19.5405 34.6834 18.946 34.3559 18.517C33.7991 17.8237 33.1112 17.6583 31.9324 17.6583H29.4429ZM29.4099 14.3569H31.539C32.1939 14.3569 32.5214 14.3569 32.8489 14.258C33.7339 13.9936 34.2907 13.202 34.2907 12.1122C34.2907 10.8251 33.701 10.2632 32.8489 9.9996C32.4885 9.90065 32.1287 9.86743 31.4078 9.86743H29.4099V14.3569ZM44.5755 25.8131V9.93316H39.1056V6.73145H54.3041L53.2235 9.93316H48.3749V25.8131H44.5755ZM55.4829 25.8131V6.73145H67.7992L66.7186 9.93316H59.2501V14.159H62.2964C64.753 14.159 66.0307 14.7534 66.915 15.5125C67.6029 16.1069 68.7817 17.4272 68.7817 20.0359C68.7817 22.6107 67.5699 24.0299 66.5545 24.7565C65.3757 25.5813 64.1309 25.8131 61.6085 25.8131H55.4829ZM59.2501 22.6107H62.1001C63.1807 22.6107 63.8357 22.3464 64.2943 21.752C64.5236 21.4551 64.8511 20.9264 64.8511 19.9362C64.8511 18.946 64.5236 18.2527 63.8687 17.7572C63.476 17.4604 62.9514 17.2957 62.0671 17.2957H59.2501V22.6107Z" fill="#0A2973"/>
</g>
</g>
<defs>
<clipPath id="clip0_1710_19547">
<rect width="66.9091" height="24" fill="white" transform="translate(2 2)"/>
</clipPath>
</defs>
</svg>
