<svg width="85" height="45" xmlns="http://www.w3.org/2000/svg" xmlns:xlink="http://www.w3.org/1999/xlink"><defs><path id="a" d="M.08.956H6v6.437H.08z"/><path id="c" d="M.873.79h5.994V10H.873z"/><path id="e" d="M.398.584h23.268v23.268H.398z"/></defs><g fill="none" fill-rule="evenodd"><path fill="#0D4BA0" d="M72.272 41.809v-6.437h1.852v2.385h2.04v-2.385h1.85v6.437h-1.85v-2.873h-2.04v2.873zm-2.7-1.014v-2.287c-.78.107-1.942.237-1.942 1.358 0 1.382 1.475 1.109 1.942.929m-3.65-.825c0-.881.464-1.535 1.345-1.875a4.784 4.784 0 011.07-.295 47.23 47.23 0 011.223-.172v-.217c.037-.933-.504-1.093-1.15-1.105-.614 0-1.235.203-1.776.49l-.122-1.161a6.645 6.645 0 012.317-.411c.498 0 .93.054 1.28.166.711.219 1.093.762 1.172 1.419.02.142.026.364.026.652v4.02c-1.628.618-5.385 1.038-5.385-1.511m-2.782.604c-.177.245-.428.367-.754.367-1.057 0-1.323-1.746-1.323-2.546 0-.646.137-1.333.51-1.782a.965.965 0 01.776-.346c.419 0 .792.26.996.795.215.535.275 1.107.275 1.623 0 .671-.108 1.39-.48 1.89m2.25-3.434c-.115-.509-.411-.952-.812-1.327-.643-.614-2.878-1.105-3.96.51-.001-1.703.71-2.55 2.159-2.782 1.447-.234 2.255-.379 2.255-.379l-.15-1.386s-1.474.21-2.704.491c-1.311.303-2.582 1.262-2.9 3.204-.201 1.247-.176 3.432.195 4.438.432 1.17 1.305 2.053 2.9 2.053 2.195 0 3.198-1.348 3.198-3.444 0-.412-.062-.867-.18-1.378"/><g transform="translate(79 34.416)"><mask id="b" fill="#fff"><use xlink:href="#a"/></mask><path fill="#0D4BA0" mask="url(#b)" d="M.08 7.393V.956h1.84v2.95L3.995.957h1.802L3.695 3.828 6 7.393H3.947L1.92 4.183v3.21z"/></g><path d="M49.687 41.95c-.587 0-1.206-.048-1.765-.265l.154-1.126c.441.265.847.382 1.358.382.922.012 1.44-.43 1.408-1.02 0-.302-.093-.53-.283-.676a1.115 1.115 0 00-.645-.259 6.428 6.428 0 00-.628-.038h-.456v-.97h.125c.689 0 1.764-.024 1.764-.905.02-.687-.7-.853-1.07-.842-.584 0-1.052.137-1.562.412l-.11-1.082c.656-.252 1.364-.35 2.072-.35 1.493-.03 2.423.634 2.385 1.647.02.836-.682 1.317-1.186 1.476.332.055.608.154.83.302.442.29.621.787.621 1.234 0 .831-.45 1.41-1.094 1.711-.64.295-1.354.368-1.918.368m-16.606.001c-2.116 0-3.307-1.305-3.307-3.4 0-2.09 1.265-3.34 3.35-3.34.559 0 .984.074 1.519.253l-.222 1.17c-.338-.168-.633-.278-1.008-.278-1.249 0-1.777 1.032-1.777 2.153 0 1.123.516 2.267 1.789 2.267.375 0 .701-.086 1.045-.252l.123 1.187a4.659 4.659 0 01-1.512.24m20.41-.141v-6.437h1.825v2.027c.394-.017.64-.023.744-.023.855 0 1.477.148 1.865.442.465.346.77.959.753 1.624-.046 2.113-2.192 2.508-3.333 2.508-1.21 0-1.854-.141-1.854-.141zm1.825-1.03s1.673.336 1.673-1.251c0-.29-.05-.51-.147-.665-.198-.32-.622-.38-1.07-.38h-.265c-.018 0-.079.006-.19.013v2.284zm-17.918-2.733v-1.767s.18-.02.652-.02c.875 0 1.056.516 1.056.84 0 .639-.393.947-1.278.947h-.43zm.467 1c.166 0 .356.008.583.02a.964.964 0 01.584.222c.165.129.253.343.253.644 0 .703-.617.969-1.433.969-.213 0-.454-.027-.454-.027v-1.827h.467zm1.825-.661c.768-.241 1.155-.733 1.155-1.478 0-.32-.077-.583-.213-.794a1.374 1.374 0 00-.697-.57c-.598-.271-1.4-.333-2.113-.333-1.352 0-2.227.162-2.227.162v6.437s.918.14 2.227.14c1.293 0 3.262-.33 3.312-1.965l.002-.063c.03-.715-.412-1.396-1.446-1.536zm5.472-.229h-.454c-.884 0-1.254-.293-1.254-1.01 0-.75.571-.927 1.036-.927.45 0 .672.044.672.044v1.893zm-.41-2.946c-1.353 0-3.05.223-3.05 1.963 0 .91.448 1.487 1.347 1.727l-1.716 2.908h1.906l1.383-2.57h.54v2.57h1.815v-6.436s-.874-.162-2.225-.162zM0 41.809v-8.891h6.787v8.89H4.813v-7.642H1.979v7.643z" fill="#0D4BA0"/><g transform="translate(7 34.416)"><mask id="d" fill="#fff"><use xlink:href="#c"/></mask><path d="M5.042 3.956c0-2.425-1.697-2.217-2.306-2.065v4.213c.244.043 2.305.833 2.305-2.148zM.872 10V1.12C2.487.794 6.867-.125 6.867 3.802c0 1.04-.281 1.942-.816 2.557-1.042 1.252-2.751 1.117-3.314.89V10H.871z" fill="#0D4BA0" mask="url(#d)"/></g><path d="M17.706 40.929c.542 0 .903-.43 1.05-1.002.148-.584.16-.991.16-1.432 0-.616-.067-1.077-.246-1.55-.178-.486-.576-.725-.964-.725-.536 0-.91.388-1.083.91-.18.516-.203 1.027-.203 1.365 0 .805.179 2.434 1.286 2.434m-.143 1.02c-2.114 0-3.043-1.352-3.043-3.362 0-2.092 1.107-3.377 3.247-3.377.756 0 1.37.173 1.838.517.46.338.769.768.917 1.292.147.516.22 1.02.22 1.519 0 2.176-.916 3.412-3.18 3.412m3.575-.141l.67-6.437h2.14l1.323 4.382 1.333-4.382h2.127l.615 6.437h-1.708l-.357-4.636-1.41 4.636h-1.473l-1.421-4.66-.35 4.66z" fill="#0D4BA0"/><g transform="translate(33 -.584)"><mask id="f" fill="#fff"><use xlink:href="#e"/></mask><path d="M23.666 7.478A6.893 6.893 0 0016.772.583H7.034A6.895 6.895 0 00.398 5.63H12.17c4.528 0 6.45 2.106 6.45 7.05v11.172c2.922-.814 5.046-3.503 5.046-6.634v-9.74z" fill="#0D4BA0" mask="url(#f)"/></g><path d="M28.333 21.42a6.892 6.892 0 006.894 6.892h9.739a6.892 6.892 0 006.636-5.045H39.83c-4.529 0-6.451-2.106-6.451-7.05V5.045c-2.921.813-5.046 3.504-5.046 6.634v9.74z" fill="#F16522"/><path d="M46.6 13.763h-.91v-2.216h.91c1.115 0 1.419.536 1.419 1.103s-.405 1.113-1.418 1.113zm-.91-5.444h.729c1.235 0 1.296.757 1.296.99 0 .344-.182.982-1.235.982h-.79V8.319zm-1.598 3.865v1.932c-.386-.232-.83-.415-1.294-.617-.506-.223-1.052-.507-1.052-1.145 0-.324.202-.807 1.174-.807h1.799l-.627.637zM37.9 17.123h-.75V14.52h.75c.93 0 1.356.566 1.356 1.254 0 .64-.384 1.349-1.356 1.349zm10.159-6.235v-.03c.546-.172 1.274-.628 1.274-1.823 0-1.344-1.092-1.961-2.63-1.961h-2.611v3.217h-1.537c-2.064 0-2.49 1.449-2.49 2.237 0 1.122.649 1.62 1.843 2.215.728.363 1.597.586 1.597 1.417 0 .437-.404.963-1.274.963h-1.618c.242-.416.343-.871.343-1.266 0-.515-.182-2.581-3.056-2.581h-2.347v7.963h1.598v-3.47l.647.648h4.373c2.04 0 3.014-1.051 3.014-2.306 0-.445-.081-.803-.223-1.093H46.6c2.53 0 3.118-1.255 3.118-2.238 0-1-.648-1.74-1.66-1.892z" fill="#0D4BA0"/></g></svg>