<svg width="319" height="70" xmlns="http://www.w3.org/2000/svg" xmlns:xlink="http://www.w3.org/1999/xlink"><defs><path id="a" d="M0 69.541h320.626V0H0z"/><path id="c" d="M0 69.541h320.626V0H0v7.05z"/></defs><g fill="none" fill-rule="evenodd"><path d="M299.248 27.83h6.637v-7.552h6.105v7.552h6.636V8.934h-6.636v6.651h-6.105v-6.65h-6.637V27.83zM259.04 14.333c1.398-.94 3.297-1.607 4.93-1.607.834 0 2.654.122 2.654 1.727 0 1.563-1.596 1.601-2.243 1.601h-3.258v4.106h2.883c.95 0 2.731.08 2.731 1.606 0 .624-.375 1.842-2.695 1.842-2.314 0-3.792-.63-5.729-1.804l-1.702 4.462c3.64 2.08 6.94 2.275 8.457 2.275 7.587 0 8.536-4.387 8.536-5.832 0-1.998-1.176-4.033-3.83-4.66v-.078c1.666-.744 2.73-2.386 2.73-4.42 0-4.422-4.664-5.32-7.513-5.32-2.654 0-5.728.78-7.735 1.875l1.784 4.227zm-14.367-7.865c3 0 6.11-1.172 7.473-4.384L247.823.446c-.53 2.192-2.388 2.305-3.15 2.305-.759 0-2.614-.113-3.143-2.305l-4.322 1.638c1.36 3.212 4.474 4.384 7.465 4.384zm-10.348 2.466V27.83h6.443l6.563-10.404V27.83h6.637V8.934h-6.372l-6.64 10.131V8.935h-6.63zm-44.002 14.83V13.276c-2.238-.04-4.52 1.644-4.52 5.243 0 3.6 2.282 5.28 4.52 5.243zm5.802-10.487v10.486c2.24.037 4.513-1.643 4.513-5.243 0-3.599-2.274-5.284-4.513-5.243zm-6.222 22.776v-7.94c-3.946.037-10.473-1.572-10.473-9.75 0-8.136 6.493-9.742 10.473-9.705V.446h6.637v8.212c3.987-.037 10.47 1.57 10.47 9.704 0 8.18-6.523 9.788-10.47 9.751v7.94h-6.637zm-29.432-12.29V13.277c-2.238-.04-4.515 1.644-4.515 5.243 0 3.6 2.277 5.28 4.515 5.243zm5.807-10.486v10.486c2.233.037 4.51-1.643 4.51-5.243 0-3.599-2.277-5.284-4.51-5.243zm-6.225 22.776v-7.94c-3.948.037-10.47-1.572-10.47-9.75 0-8.136 6.487-9.742 10.47-9.705V.446h6.637v8.212c3.984-.037 10.467 1.57 10.467 9.704 0 8.18-6.519 9.788-10.467 9.751v7.94h-6.637zM137.14 6.468c3 0 6.11-1.172 7.472-4.384L140.29.446c-.533 2.192-2.392 2.305-3.15 2.305s-2.617-.113-3.15-2.305l-4.323 1.638c1.367 3.212 4.478 4.384 7.473 4.384zm-10.35 2.466V27.83h6.442l6.564-10.404V27.83h6.64V8.934h-6.374l-6.636 10.131V8.935h-6.637zM86.26 6.035v6.3h2.43c3.301 0 3.643-1.997 3.643-3.167 0-1.37-.456-3.133-3.643-3.133h-2.43zM79.133 27.83V.013h11.188c7.551 0 9.674 5.396 9.674 9.155 0 3.793-2.16 9.194-9.674 9.194h-4.06v9.468h-7.128zM230.188 8.903V27.83h-6.619v-2.103h-.07c-1.164 1.884-3.456 2.732-5.638 2.732-5.524 0-9.416-4.685-9.416-10.108 0-5.425 3.815-10.074 9.347-10.074 2.143 0 4.396.811 5.777 2.471V8.903h6.62zm-10.653 5.203c-2.69 0-4.255 1.957-4.255 4.278 0 2.398 1.565 4.243 4.255 4.243 2.692 0 4.256-1.845 4.256-4.243 0-2.32-1.564-4.278-4.256-4.278zm-96.883-5.203V27.83h-6.618v-2.103h-.073c-1.163 1.884-3.453 2.732-5.638 2.732-5.524 0-9.415-4.685-9.415-10.108 0-5.425 3.82-10.074 9.345-10.074 2.145 0 4.4.811 5.781 2.471V8.903h6.618zM112 14.106c-2.69 0-4.256 1.957-4.256 4.278 0 2.398 1.565 4.243 4.256 4.243 2.69 0 4.252-1.845 4.252-4.243 0-2.32-1.563-4.278-4.252-4.278zm183.983 5.078v.704h-13.928c0 2.731 1.423 4.205 4.143 4.205 1.425 0 2.44-.478 3.165-1.734h6.367c-1.059 4.465-5.239 6.496-9.492 6.496-6.178 0-10.8-3.543-10.8-10.078 0-6.308 4.255-10.104 10.328-10.104 6.468 0 10.217 4.055 10.217 10.511zm-13.818-3.17h7.67c-.322-1.808-1.96-2.986-3.743-2.986-1.926 0-3.528 1.03-3.927 2.986zM89.73 57.992h-2.046l-1.01 5.901h1.946c4.356 0 5.204-1.23 5.454-2.813.28-1.74-.062-3.088-4.344-3.088zm11.981 3.17c-.303 1.867-.913 3.756-2.265 5.125-2.979 3-7.473 3.241-10.324 3.252H77.974l4.735-27.816h18.973l-.887 5.477H89.322l-.886 5.551h3.323c2.453 0 5.6.33 7.84 2.245 1.65 1.411 2.53 3.54 2.112 6.165zm19.955 3.543h-10.47l-2.822 4.834h-8.066l15.878-27.816h8.297l6.383 27.816h-8.104l-1.096-4.834zm-1.133-5.53l-1.628-8.855h-.079l-4.615 8.854h6.322zm52.75-17.452h-7.663l-4.627 27.813 7.596.001 2.012-12.06h.077l7.81 12.062 9.85-.002-10.254-14.646 13.832-13.168h-9.425l-11.099 11.471h-.084l1.974-11.47zm-29.403 0l-1.69 10.37h10.133l1.687-10.37h7.383l-4.49 27.816h-7.358l1.907-11.959h-10.127l-1.915 11.96h-7.415l4.53-27.817h7.355z" fill="#000" fill-rule="nonzero"/><g transform="translate(-2)"><mask id="b" fill="#fff"><use xlink:href="#a"/></mask><path fill="#FFED00" fill-rule="nonzero" mask="url(#b)" d="M2.318 67.223h64.904V2.32H2.318z"/></g><g transform="translate(-2)"><mask id="d" fill="#fff"><use xlink:href="#c"/></mask><path d="M34.77 42.698l-19.973 19.97-7.925-7.914 19.976-19.978-4.167-4.17v-8.233l-2.894-2.897v7.18l-2.52 2.52-10.126-10.13-2.505 2.504c.018-1.89.395-7.356 5.032-11.914 5.004-4.814 10.408-2.645 12.256-.795l10.122 10.125-2.582 2.579 5.307 5.309 5.306-5.31-2.581-2.578L47.616 8.84c1.848-1.85 7.252-4.02 12.256.795 4.638 4.558 5.015 10.025 5.034 11.914L62.4 19.046l-10.128 10.13-2.518-2.52v-7.18l-2.896 2.897v8.233l-4.167 4.17 19.977 19.978-7.924 7.915L34.77 42.698z" fill="#000" fill-rule="nonzero" mask="url(#d)"/></g></g></svg>