<svg width="188" height="101" xmlns="http://www.w3.org/2000/svg"><g fill="none" fill-rule="evenodd"><path d="M92.117 1.995c-14.82 0-26.834 12.054-26.834 26.917 0 14.873 12.015 26.934 26.834 26.934 14.824 0 26.839-12.061 26.839-26.934 0-10.421-5.918-19.443-14.56-23.917-.08-.074-.15-.141-.236-.218 0 0-.005.04-.005.1a26.46 26.46 0 00-3.276-1.386c.086-.366.2-.908.247-1.31.052-.49-.34-1.001-1.143-.808-.558.123-1.99.625-3.241 1.049a26.803 26.803 0 00-4.625-.427" fill="#60553E"/><path d="M92.117 1.995c-14.82 0-26.834 12.054-26.834 26.917 0 14.873 12.015 26.934 26.834 26.934 14.824 0 26.839-12.061 26.839-26.934 0-10.421-5.918-19.443-14.56-23.917-.08-.074-.15-.141-.236-.218 0 0-.005.04-.005.1a26.46 26.46 0 00-3.276-1.386c.086-.366.2-.908.247-1.31.052-.49-.34-1.001-1.143-.808-.558.123-1.99.625-3.241 1.049a26.803 26.803 0 00-4.625-.427z" stroke="#DCD6CC" stroke-width=".353" stroke-linejoin="round"/><path d="M92.117 57.494c15.733 0 28.483-12.798 28.483-28.583 0-12.343-7.803-22.864-18.738-26.859l.115.646c10.556 3.992 18.065 14.224 18.065 26.213 0 15.474-12.503 28.02-27.925 28.02s-27.92-12.546-27.92-28.02c0-15.468 12.498-28.009 27.92-28.009 1.66 0 3.292.144 4.877.424L97.96.94a28.807 28.807 0 00-5.843-.597c-15.728 0-28.483 12.79-28.483 28.568 0 15.785 12.755 28.583 28.483 28.583" fill="#60553E"/><path d="M92.117 57.494c15.733 0 28.483-12.798 28.483-28.583 0-12.343-7.803-22.864-18.738-26.859l.115.646c10.556 3.992 18.065 14.224 18.065 26.213 0 15.474-12.503 28.02-27.925 28.02s-27.92-12.546-27.92-28.02c0-15.468 12.498-28.009 27.92-28.009 1.66 0 3.292.144 4.877.424L97.96.94a28.807 28.807 0 00-5.843-.597c-15.728 0-28.483 12.79-28.483 28.568 0 15.785 12.755 28.583 28.483 28.583z" stroke="#DCD6CC" stroke-width=".353" stroke-linejoin="round"/><path d="M72.718 90.508c.667.467.667 1.05.667 1.453v7.258c0 .404 0 .98-.667 1.453h3.51c.874 0 4.24-.092 4.24-3.24 0-1.914-1.372-3.004-3.716-3.004-.477 0-1.414.076-1.891.103v-2.857h3.034c.506 0 1.074.023 1.523.506v-1.711a3.204 3.204 0 01-.523.039h-6.177zm2.143 5.062a16.78 16.78 0 011.224-.064c.627 0 2.723 0 2.723 1.902 0 .819-.344 2.192-2.447 2.192a9.178 9.178 0 01-1.5-.133V95.57z" fill="#60553E"/><path d="M72.718 90.508c.667.467.667 1.05.667 1.453v7.258c0 .404 0 .98-.667 1.453h3.51c.874 0 4.24-.092 4.24-3.24 0-1.914-1.372-3.004-3.716-3.004-.477 0-1.414.076-1.891.103v-2.857h3.034c.506 0 1.074.023 1.523.506v-1.711a3.204 3.204 0 01-.523.039h-6.177zm2.143 5.062a16.78 16.78 0 011.224-.064c.627 0 2.723 0 2.723 1.902 0 .819-.344 2.192-2.447 2.192a9.178 9.178 0 01-1.5-.133V95.57z" stroke="#DCD6CC" stroke-width=".353" stroke-linejoin="round"/><path d="M84.71 90.508c.592.277.391.826.333.975l-2.896 7.345c-.27.698-.563 1.348-1.316 1.844h2.735c-.678-.484-.545-1.072-.344-1.586l.907-2.277h3.896l1.098 2.726c.127.334.241.832-.437 1.137h3.115c-.713-.381-1-.928-1.236-1.498l-3.482-8.666H84.71zm1.356 1.32l1.58 4.006h-3.138l1.558-4.006z" fill="#60553E"/><path d="M84.71 90.508c.592.277.391.826.333.975l-2.896 7.345c-.27.698-.563 1.348-1.316 1.844h2.735c-.678-.484-.545-1.072-.344-1.586l.907-2.277h3.896l1.098 2.726c.127.334.241.832-.437 1.137h3.115c-.713-.381-1-.928-1.236-1.498l-3.482-8.666H84.71zm1.356 1.32l1.58 4.006h-3.138l1.558-4.006z" stroke="#DCD6CC" stroke-width=".353" stroke-linejoin="round"/><path d="M100.275 94.516V91.96c0-.478-.017-.986-.666-1.453h2.804c-.65.467-.66.975-.66 1.453v7.258c0 .479.01.98.66 1.453H99.61c.65-.472.666-.974.666-1.453v-3.545h-5.573v3.545c0 .479.017.98.666 1.453h-2.803c.648-.472.666-.974.666-1.453V91.96c0-.478-.018-.986-.666-1.453h2.803c-.649.467-.666.975-.666 1.453v2.555h5.573z" fill="#60553E"/><path d="M100.275 94.516V91.96c0-.478-.017-.986-.666-1.453h2.804c-.65.467-.66.975-.66 1.453v7.258c0 .479.01.98.66 1.453H99.61c.65-.472.666-.974.666-1.453v-3.545h-5.573v3.545c0 .479.017.98.666 1.453h-2.803c.648-.472.666-.974.666-1.453V91.96c0-.478-.018-.986-.666-1.453h2.803c-.649.467-.666.975-.666 1.453v2.555h5.573z" stroke="#DCD6CC" stroke-width=".353" stroke-linejoin="round"/><path d="M109.217 92.354c.39-.525.592-.842.592-1.137 0-.345-.277-.588-.524-.71h2.783l-3.518 4.574 1.667 2.209c1.315 1.757 2.05 2.656 3.31 3.382l-1.546.069c-1.144.058-1.724-.825-2.45-1.826l-2.573-3.512 2.259-3.05zm-1.885-1.846c-.661.467-.661 1.05-.661 1.453v7.258c0 .405 0 .98.66 1.453h-2.802c.666-.472.666-1.048.666-1.453V91.96c0-.402 0-.986-.666-1.453h2.803z" fill="#60553E"/><path d="M109.217 92.354c.39-.525.592-.842.592-1.137 0-.345-.277-.588-.524-.71h2.783l-3.518 4.574 1.667 2.209c1.315 1.757 2.05 2.656 3.31 3.382l-1.546.069c-1.144.058-1.724-.825-2.45-1.826l-2.573-3.512 2.259-3.05zm-1.885-1.846c-.661.467-.661 1.05-.661 1.453v7.258c0 .405 0 .98.66 1.453h-2.802c.666-.472.666-1.048.666-1.453V91.96c0-.402 0-.986-.666-1.453h2.803z" stroke="#DCD6CC" stroke-width=".353" stroke-linejoin="round"/><path d="M65.283 28.912c0-14.863 12.015-26.917 26.834-26.917 14.824 0 26.839 12.054 26.839 26.917 0 14.873-12.015 26.934-26.84 26.934-14.818 0-26.833-12.061-26.833-26.934" fill="#FEFEFE"/><path d="M65.283 28.912c0-14.863 12.015-26.917 26.834-26.917 14.824 0 26.839 12.054 26.839 26.917 0 14.873-12.015 26.934-26.84 26.934-14.818 0-26.833-12.061-26.833-26.934z" stroke="#60553E" stroke-width=".095" stroke-linejoin="round"/><path d="M101.977 2.698c10.556 3.992 18.065 14.224 18.065 26.213 0 15.474-12.503 28.018-27.925 28.018s-27.92-12.544-27.92-28.018c0-15.468 12.498-28.009 27.92-28.009 1.66 0 3.293.144 4.878.423L97.96.94a28.8 28.8 0 00-5.843-.597c-15.727 0-28.483 12.79-28.483 28.568 0 15.785 12.756 28.583 28.483 28.583 15.733 0 28.483-12.798 28.483-28.583 0-12.343-7.803-22.864-18.738-26.859l.115.646z" fill="#60553E"/><path d="M96.242 8.425c-2.339 1.9-6.188 6.442-8.004 10.7-.139.317 0 .365.448.092.453-.274 1.758-.902 2.384-1.084 0 0-.678 2.358-.902 3.657-.178 1.07.707.987 1.26.86.551-.124 2.837-.226 3.24-.274 0 0-2.115-.499-2.339-1.358-.224-.853.38-2.76.81-4.055.092-.277-.046-.678-.494-.502-.454.18-1.08.314-1.396.502 0 0 1.982-4.877 5.04-8.4l-.047-.138 10.486 2.173c-.229 1.78-.879 1.62-1.172 1.534-.315-.092-.402-.226-1.35-.314-.299-.029-1.684-.185-.943.4 1.19.954 2.201 2.892 2.201 2.892.137-.632-.184-1.534-.356-1.848-.178-.32.046-.407.264-.363.23.043.357.13.77.363.403.222.672.181.765-.363.074-.47.051-1.43-.04-2.298-.013-.063-.115-.094-.139-.003L96.242 8.425zm2.97-4.869c.133-.149 0-.27-.356-.042-.362.221-1.948 1.178-3.016 2.974-.132.228-.052.565.516.37a9.792 9.792 0 011.73-.416c.317-.046.317-.268.093-.355-.225-.095-.277-.182-.179-.544.086-.36.72-1.4 1.212-1.987zM78.533 34.244c.275-.34.85-.819 1.608-1.194 1.08-.547 4.161-.904 5.867-.88 1.011.01 1.69.472 2.161.944.47.473-.339.542-.742.202-.408-.334-.856-.45-1.327-.45-.47 0-.97.184-1.235.381-.27.207-.339.484-1.012.68-.816.23-1.757-.507-1.757-.507.66 1.251 1.797 1.21 2.43 1.055.46-.122.603-.335 1.281-.346 1.08-.017 1.551.611 1.551.611-1.35-.069-3.637.778-4.722 1.014-1.35.3-2.632.34-2.632.34.872 1.084 2.16 1.084 3.108 1.084.942 0 3.976-.225 5.798-.069 2.287.19 4.114 1.695 4.114 3.926s-1.546 3.447-1.546 3.447c1.954-.605 2.764-2.162 2.764-2.162 1.041 4.024-1.12 7.241-3.097 8.555-1.643 1.096-6.574 2.226-10.36.41-4.189-2.012-5.775-3.972-5.775-3.972 9.107.743 13.561-1.787 13.561-1.787-8.228.478-13.969-1.609-17.68-3.24a24.739 24.739 0 01-3.196-7.754v.006c6.81 5.142 12.85 6.024 12.85 6.024-7.356-3.995-11.016-8.468-13.448-12.929a24.98 24.98 0 011.495-7.379l.017-.04c2.73 7.284 5.73 9.453 5.73 9.453-2.972-6.775-2.949-11.626-2.679-15.28a24.953 24.953 0 013.908-4.365l.022-.027c-1.148 6.503.231 10.73.231 10.73 0-5.143 2.88-11.262 5.171-14.38a24.207 24.207 0 014.448-1.716h.005c-2.092 2.637-3.01 5.197-3.01 5.197 4.292-4.099 11.4-6.56 12.48-6.838 1.08-.264 4.188-1.417 5.067-1.616.805-.193 1.196.32 1.144.81-.069.637-.339 1.694-.339 1.694 2.384.583 3.42 1.76 3.42 1.76-.093-.318-.047-.86-.047-.86 3.287 2.934 4.183 4.333 4.275 6.992.092 2.664 1.258 3.07 1.931 3.43.678.361 2.344 1.315 2.88 1.765.4.34.228.72 0 .991-.226.268-.226.361-.266.675-.202 1.383-.816 1.942-1.667 2.254-.856.314-1.803-.179-1.803-.179-.943 1.038-1.122.36-1.167-.043-.04-.407-.54-.09-.896.043-.362.135-.495-.36-.495-.36-1.71-.225-2.459.79-2.459.79 1.488.201 2.235 1.216 2.298 1.622.07.415.742.136.742.136s.063-.136.34-.268c.268-.136.338-.07.268.268-.068.337-.137.611-.137.611l.747.476c-.276 1.83-1.08 1.752-1.488 1.553-2.592-1.3-7.217-1.553-7.217-1.553.27-.407.92-.929.92-.929-11.872 0-13.878 1.447-14.487 2.211-.42.53-.057 1.352-.057 1.352-1.414.271-4.999 1.18-6.373 2.443-1.32 1.21-1.763 4.053-1.809 5.101-.012.22.201.214.293.087z" fill="#60553E"/><path d="M109.728 46.973c-1.058-3.55-3.977-5.816-5.597-7.783-.662-.8-1.638-1.925-1.638-1.925.949.542 2.749.812 2.749.812-.496-.409-1.623-1.758-2.072-2.305-1.252-1.505-3.422-3.188-5.038-3.92-3.172-1.44-6.476-1.626-6.924-1.712-.454-.093-1.395.086-.816-.819.587-.904 4.005-3.564 4.005-3.564-.718 0-3.867.277-4.816.406-.942.14-1.16-.178-1.21-.807 0 0-1.897 1.79-.99 2.704.138.136.54.182 1.04-.043.49-.228 1.477-.545 1.84-.586 0 0-.81 1.262-.989 1.804-.178.542-.225.812.626 1.083.856.265 5.178 1.626 7.827 3.43 2.654 1.805 5.4 4.111 7.43 8.348 2.022 4.25.906 7.465.591 8.053a24.614 24.614 0 004.005-3.194l-.023.018zm5.917-8.993c-2.602-2.121-7.17-5.91-12.743-7.211 0 0 7.953 3.188 10.79 11.212a24.896 24.896 0 001.954-4.001" fill="#60553E"/><path d="M100.034 52.876c.851-1.989 1.787-6.716.8-10.376 0 0 .182 8.612-5.707 11.454a25.474 25.474 0 004.895-1.073l.012-.005zm17.284-24.298c-.764-.31-5.47-1.647-5.47-1.647 1.574-.087 2.206-1.257 2.206-1.257-1.482.4-3.735.582-5.619.31 0 0 4.362 1.895 8.705 6.03v-.04c.116-.998.184-2.02.184-3.062 0-.126 0-.196-.006-.334" fill="#60553E"/><path d="M153.748 75.762l1.127-2.541 1.114 2.54h-2.241zm6.747 2.549l-4.132-9.42h-4.074c.528.38 1.126 1.019 1.368 1.58l-3.46 7.846c-.356.812-.626 1.193-1.482 1.988h4.091c-.517-.588-.569-1.09-.356-1.586 0 0 .218-.506.361-.848h4.109l.368.848c.241.537.241.865-.345 1.586h5.119c-.843-.744-1.189-1.135-1.567-1.994z" fill="#FEFEFE"/><path d="M153.748 75.762l1.127-2.541 1.114 2.54h-2.241zm6.747 2.549l-4.132-9.42h-4.074c.528.38 1.126 1.019 1.368 1.58l-3.46 7.846c-.356.812-.626 1.193-1.482 1.988h4.091c-.517-.588-.569-1.09-.356-1.586 0 0 .218-.506.361-.848h4.109l.368.848c.241.537.241.865-.345 1.586h5.119c-.843-.744-1.189-1.135-1.567-1.994z" stroke="#60553E" stroke-width=".095" stroke-linejoin="round"/><path d="M40.758 70.69c1.672 0 2.045.547 2.85 1.544l1.694-3.896c-.62.385-1.2.692-1.947.692-.873 0-1.31-.335-2.723-.335-3.598 0-6.022 2.37-6.022 5.897 0 3.597 2.19 5.925 5.843 5.925 2.023 0 3.46-.927 4.42-2.27l-.828-1.873c-.903 1.29-1.863 2.156-3.287 2.15-1.822 0-2.89-1.781-2.89-3.933 0-2.07.988-3.901 2.89-3.901" fill="#FEFEFE"/><path d="M40.758 70.69c1.672 0 2.045.547 2.85 1.544l1.694-3.896c-.62.385-1.2.692-1.947.692-.873 0-1.31-.335-2.723-.335-3.598 0-6.022 2.37-6.022 5.897 0 3.597 2.19 5.925 5.843 5.925 2.023 0 3.46-.927 4.42-2.27l-.828-1.873c-.903 1.29-1.863 2.156-3.287 2.15-1.822 0-2.89-1.781-2.89-3.933 0-2.07.988-3.901 2.89-3.901z" stroke="#60553E" stroke-width=".095" stroke-linejoin="round"/><path d="M55.744 78.195l-3.494-4.227 3.282-3.134c.988-.94 1.448-1.315 2.437-1.944h-5.351c.644.71.712.975.253 1.424.006 0-3.194 3.055-3.194 3.055v-2.692c0-.818.298-1.29.775-1.787h-4.688c.487.496.78.97.78 1.787v7.846c0 .813-.293 1.28-.78 1.781h4.688c-.477-.502-.775-.968-.775-1.78v-2.849l2.63 3.165c.455.548.3.83-.223 1.464h5.993c-1.052-.72-1.465-1.054-2.333-2.109" fill="#FEFEFE"/><path d="M55.744 78.195l-3.494-4.227 3.282-3.134c.988-.94 1.448-1.315 2.437-1.944h-5.351c.644.71.712.975.253 1.424.006 0-3.194 3.055-3.194 3.055v-2.692c0-.818.298-1.29.775-1.787h-4.688c.487.496.78.97.78 1.787v7.846c0 .813-.293 1.28-.78 1.781h4.688c-.477-.502-.775-.968-.775-1.78v-2.849l2.63 3.165c.455.548.3.83-.223 1.464h5.993c-1.052-.72-1.465-1.054-2.333-2.109z" stroke="#60553E" stroke-width=".095" stroke-linejoin="round"/><path d="M69.719 68.89h-4.683c.476.497.776.97.776 1.788v.047l-3.69 4.375v-4.422c0-.818.293-1.291.776-1.787h-4.683c.477.496.775.969.775 1.787v7.846c0 .812-.298 1.279-.775 1.78h4.683c-.483-.501-.776-.968-.776-1.78v-.086l3.69-4.381v4.467c0 .812-.3 1.279-.776 1.78h4.683c-.477-.501-.776-.968-.776-1.78v-7.846c0-.818.299-1.291.776-1.787" fill="#FEFEFE"/><path d="M69.719 68.89h-4.683c.476.497.776.97.776 1.788v.047l-3.69 4.375v-4.422c0-.818.293-1.291.776-1.787h-4.683c.477.496.775.969.775 1.787v7.846c0 .812-.298 1.279-.775 1.78h4.683c-.483-.501-.776-.968-.776-1.78v-.086l3.69-4.381v4.467c0 .812-.3 1.279-.776 1.78h4.683c-.477-.501-.776-.968-.776-1.78v-7.846c0-.818.299-1.291.776-1.787z" stroke="#60553E" stroke-width=".095" stroke-linejoin="round"/><path d="M77.297 68.244c2.045 0 3.04-.846 3.04-1.867 0-.455-.288-.992-.759-1.418h-2.034c.517.502.661.963.661 1.176 0 .201-.23.611-.908.611-.684 0-.908-.41-.908-.61 0-.214.133-.675.661-1.177h-2.04c-.46.426-.758.963-.758 1.418 0 1.021.994 1.867 3.045 1.867" fill="#FEFEFE"/><path d="M77.297 68.244c2.045 0 3.04-.846 3.04-1.867 0-.455-.288-.992-.759-1.418h-2.034c.517.502.661.963.661 1.176 0 .201-.23.611-.908.611-.684 0-.908-.41-.908-.61 0-.214.133-.675.661-1.177h-2.04c-.46.426-.758.963-.758 1.418 0 1.021.994 1.867 3.045 1.867z" stroke="#60553E" stroke-width=".095" stroke-linejoin="round"/><path d="M20.664 68.89c.3.49.391.837.086 1.593-.005 0-1.327 3.199-2.045 4.933l-2.115-4.933c-.287-.641-.293-1.028.046-1.592h-4.925c.685.623 1.046 1.137 1.477 1.994-.005 0 3.252 7.178 3.84 8.48-.783 1.829-1.455 2.549-2.345 2.549-1.138 0-1.615-.744-2.27-1.966l-1.138 2.427c.632.662 1.73 1.592 3.34 1.592 2.642 0 3.687-1.955 4.7-4.324l3.734-8.773c.402-.924.764-1.454 1.241-1.98h-3.626z" fill="#FEFEFE"/><path d="M20.664 68.89c.3.49.391.837.086 1.593-.005 0-1.327 3.199-2.045 4.933l-2.115-4.933c-.287-.641-.293-1.028.046-1.592h-4.925c.685.623 1.046 1.137 1.477 1.994-.005 0 3.252 7.178 3.84 8.48-.783 1.829-1.455 2.549-2.345 2.549-1.138 0-1.615-.744-2.27-1.966l-1.138 2.427c.632.662 1.73 1.592 3.34 1.592 2.642 0 3.687-1.955 4.7-4.324l3.734-8.773c.402-.924.764-1.454 1.241-1.98h-3.626z" stroke="#60553E" stroke-width=".095" stroke-linejoin="round"/><path d="M5.851 74.234h-.833v-4.79h.62c1.65 0 2.723.537 2.723 2.25 0 1.733-.798 2.54-2.51 2.54m4.723-5.603c-.983-.987-2.488-1.51-4.35-1.51H.835c.637.628.873 1.096.873 1.995v9.189c0 .904-.236 1.365-.873 2h5.05c-.638-.635-.867-1.096-.867-2v-1.737h1.206c1.753 0 3.27-.558 4.275-1.566.84-.841 1.281-1.984 1.281-3.292 0-1.221-.419-2.282-1.206-3.08" fill="#FEFEFE"/><path d="M5.851 74.234h-.833v-4.79h.62c1.65 0 2.723.537 2.723 2.25 0 1.733-.798 2.54-2.51 2.54zm4.723-5.603c-.983-.987-2.488-1.51-4.35-1.51H.835c.637.628.873 1.096.873 1.995v9.189c0 .904-.236 1.365-.873 2h5.05c-.638-.635-.867-1.096-.867-2v-1.737h1.206c1.753 0 3.27-.558 4.275-1.566.84-.841 1.281-1.984 1.281-3.292 0-1.221-.419-2.282-1.206-3.08z" stroke="#60553E" stroke-width=".095" stroke-linejoin="round"/><path d="M30.065 78.523c-1.811 0-2.884-1.78-2.884-3.931 0-2.07.993-3.903 2.884-3.903 1.683 0 2.05.548 2.86 1.546l1.685-3.897c-.615.385-1.196.692-1.942.692-.874 0-1.311-.335-2.724-.335-3.597 0-6.016 2.37-6.016 5.897 0 3.597 2.19 5.925 5.838 5.925 2.023 0 3.459-.927 4.424-2.27l-.833-1.873c-.902 1.29-1.855 2.156-3.292 2.15" fill="#FEFEFE"/><path d="M30.065 78.523c-1.811 0-2.884-1.78-2.884-3.931 0-2.07.993-3.903 2.884-3.903 1.683 0 2.05.548 2.86 1.546l1.685-3.897c-.615.385-1.196.692-1.942.692-.874 0-1.311-.335-2.724-.335-3.597 0-6.016 2.37-6.016 5.897 0 3.597 2.19 5.925 5.838 5.925 2.023 0 3.459-.927 4.424-2.27l-.833-1.873c-.902 1.29-1.855 2.156-3.292 2.15z" stroke="#60553E" stroke-width=".095" stroke-linejoin="round"/><path d="M136.063 68.89h-4.688c.48.497.78.97.78 1.788v2.682h-3.385v-2.682c0-.818.287-1.291.775-1.787h-4.687c.481.496.78.969.78 1.787v7.846c0 .812-.299 1.279-.78 1.78h4.688c-.488-.501-.775-.968-.775-1.78v-3.028h3.384v3.028c0 .812-.3 1.279-.78 1.78h4.688c-.482-.501-.781-.968-.781-1.78v-7.846c0-.818.298-1.291.78-1.787" fill="#FEFEFE"/><path d="M136.063 68.89h-4.688c.48.497.78.97.78 1.788v2.682h-3.385v-2.682c0-.818.287-1.291.775-1.787h-4.687c.481.496.78.969.78 1.787v7.846c0 .812-.299 1.279-.78 1.78h4.688c-.488-.501-.775-.968-.775-1.78v-3.028h3.384v3.028c0 .812-.3 1.279-.78 1.78h4.688c-.482-.501-.781-.968-.781-1.78v-7.846c0-.818.298-1.291.78-1.787z" stroke="#60553E" stroke-width=".095" stroke-linejoin="round"/><path d="M116.491 75.762l1.126-2.541 1.11 2.54h-2.236zm6.745 2.549l-4.142-9.42h-4.069c.534.38 1.121 1.019 1.368 1.58l-3.454 7.846c-.362.812-.632 1.193-1.488 1.988h4.092c-.518-.588-.574-1.09-.363-1.586 0 0 .225-.506.374-.848h4.11l.36.848c.242.537.242.865-.339 1.586h5.115c-.839-.744-1.19-1.135-1.564-1.994z" fill="#FEFEFE"/><path d="M116.491 75.762l1.126-2.541 1.11 2.54h-2.236zm6.745 2.549l-4.142-9.42h-4.069c.534.38 1.121 1.019 1.368 1.58l-3.454 7.846c-.362.812-.632 1.193-1.488 1.988h4.092c-.518-.588-.574-1.09-.363-1.586 0 0 .225-.506.374-.848h4.11l.36.848c.242.537.242.865-.339 1.586h5.115c-.839-.744-1.19-1.135-1.564-1.994z" stroke="#60553E" stroke-width=".095" stroke-linejoin="round"/><path d="M83.038 68.89h-4.683c.477.497.776.97.776 1.788v.047L75.44 75.1v-4.422c0-.818.299-1.291.776-1.787h-4.688c.488.496.78.969.78 1.787v7.846c0 .812-.292 1.279-.78 1.78h4.688c-.477-.501-.775-.968-.775-1.78v-.086l3.689-4.381v4.467c0 .812-.3 1.279-.776 1.78h4.683c-.477-.501-.776-.968-.776-1.78v-7.846c0-.818.299-1.291.776-1.787" fill="#FEFEFE"/><path d="M83.038 68.89h-4.683c.477.497.776.97.776 1.788v.047L75.44 75.1v-4.422c0-.818.299-1.291.776-1.787h-4.688c.488.496.78.969.78 1.787v7.846c0 .812-.292 1.279-.78 1.78h4.688c-.477-.501-.775-.968-.775-1.78v-.086l3.689-4.381v4.467c0 .812-.3 1.279-.776 1.78h4.683c-.477-.501-.776-.968-.776-1.78v-7.846c0-.818.299-1.291.776-1.787z" stroke="#60553E" stroke-width=".095" stroke-linejoin="round"/><path d="M143.86 77.947c0 .168-.047.213-.168.213h-2.603c.38-.738.455-1.586.455-2.818V71.26c0-.127.045-.225.217-.225h2.098v6.912zm3.131-.46v-6.81c0-.818.3-1.29.776-1.787h-9.315c.483.496.776.97.776 1.787v4.665c0 1.982-.356 2.824-2.207 3.585v2.778c.92-.824 2.276-1.4 3.523-1.4h4.223c1.5 0 2.706.755 3.522 1.4V78.84c-.798-.243-1.298-.518-1.298-1.354z" fill="#FEFEFE"/><path d="M143.86 77.947c0 .168-.047.213-.168.213h-2.603c.38-.738.455-1.586.455-2.818V71.26c0-.127.045-.225.217-.225h2.098v6.912zm3.131-.46v-6.81c0-.818.3-1.29.776-1.787h-9.315c.483.496.776.97.776 1.787v4.665c0 1.982-.356 2.824-2.207 3.585v2.778c.92-.824 2.276-1.4 3.523-1.4h4.223c1.5 0 2.706.755 3.522 1.4V78.84c-.798-.243-1.298-.518-1.298-1.354z" stroke="#60553E" stroke-width=".095" stroke-linejoin="round"/><path d="M166.689 74.961h-.667v-3.949h.489c.822 0 1.379.168 1.724.508.287.293.43.726.43 1.332 0 1.463-.614 2.109-1.976 2.109zm6.39-6.07l-1.339 3.119a3.495 3.495 0 00-.954-1.817c-.851-.847-2.16-1.302-3.781-1.302h-4.883c.475.496.774.968.774 1.787v7.846c0 .812-.298 1.279-.774 1.781h4.68c-.481-.502-.78-.969-.78-1.781v-1.418h.983c1.518 0 2.833-.485 3.712-1.36.724-.738 1.115-1.73 1.115-2.873 0-.23-.018-.449-.052-.662.88-.656 1.7-1.182 2.643-1.182l1.435.006v7.489c0 .812-.292 1.279-.774 1.781h4.683c-.477-.502-.775-.969-.775-1.781v-7.489h.999c.953 0 1.165.156 1.74 1.037l1.392-3.181h-10.044z" fill="#FEFEFE"/><path d="M166.689 74.961h-.667v-3.949h.489c.822 0 1.379.168 1.724.508.287.293.43.726.43 1.332 0 1.463-.614 2.109-1.976 2.109zm6.39-6.07l-1.339 3.119a3.495 3.495 0 00-.954-1.817c-.851-.847-2.16-1.302-3.781-1.302h-4.883c.475.496.774.968.774 1.787v7.846c0 .812-.298 1.279-.774 1.781h4.68c-.481-.502-.78-.969-.78-1.781v-1.418h.983c1.518 0 2.833-.485 3.712-1.36.724-.738 1.115-1.73 1.115-2.873 0-.23-.018-.449-.052-.662.88-.656 1.7-1.182 2.643-1.182l1.435.006v7.489c0 .812-.292 1.279-.774 1.781h4.683c-.477-.502-.775-.969-.775-1.781v-7.489h.999c.953 0 1.165.156 1.74 1.037l1.392-3.181h-10.044z" stroke="#60553E" stroke-width=".095" stroke-linejoin="round"/><path d="M97.661 78.379c-2.109 0-3.63-2.006-3.63-4.703 0-2.354 1.2-4.67 3.63-4.67 1.925 0 2.586.762 3.321 1.74l1.845-4.201c-.678.438-1.322.68-2.115.68-.867 0-1.81-.393-3.199-.393-4.184 0-6.988 2.756-6.988 6.844 0 3.973 2.533 6.877 6.785 6.877 2.41 0 4.051-1.096 5.097-2.6l-.907-2.006c-.926 1.395-1.954 2.432-3.839 2.432" fill="#FEFEFE"/><path d="M97.661 78.379c-2.109 0-3.63-2.006-3.63-4.703 0-2.354 1.2-4.67 3.63-4.67 1.925 0 2.586.762 3.321 1.74l1.845-4.201c-.678.438-1.322.68-2.115.68-.867 0-1.81-.393-3.199-.393-4.184 0-6.988 2.756-6.988 6.844 0 3.973 2.533 6.877 6.785 6.877 2.41 0 4.051-1.096 5.097-2.6l-.907-2.006c-.926 1.395-1.954 2.432-3.839 2.432z" stroke="#60553E" stroke-width=".095" stroke-linejoin="round"/><path d="M110.263 71.035c.954 0 1.166.156 1.74 1.037l1.392-3.182h-10.401l-1.477 3.46c.942-.727 1.815-1.32 2.822-1.32l1.613.005v7.488c0 .813-.292 1.28-.774 1.782h4.689c-.484-.502-.777-.969-.777-1.782v-7.488h1.173z" fill="#FEFEFE"/><path d="M110.263 71.035c.954 0 1.166.156 1.74 1.037l1.392-3.182h-10.401l-1.477 3.46c.942-.727 1.815-1.32 2.822-1.32l1.613.005v7.488c0 .813-.292 1.28-.774 1.782h4.689c-.484-.502-.777-.969-.777-1.782v-7.488h1.173z" stroke="#60553E" stroke-width=".095" stroke-linejoin="round"/><path d="M5.638 68.938h-1.12v5.793H5.85c1.534 0 3.01-.611 3.01-3.037 0-2.215-1.602-2.756-3.223-2.756m.586 7.137H4.517v2.23c0 .87.213 1.303.357 1.498H1.811c.138-.195.391-.627.391-1.498v-9.19c0-.87-.253-1.29-.39-1.491h4.412c3.138 0 5.062 1.568 5.062 4.085 0 2.987-2.44 4.366-5.062 4.366m16.365-5.397l-3.734 8.768c-1.087 2.554-2.052 4.019-4.241 4.019-1.316 0-2.258-.715-2.741-1.193l.586-1.252c.569.98 1.304 1.388 2.224 1.388 1.269 0 2.068-1.082 2.89-3.054l-3.942-8.676c-.258-.576-.511-1.061-.798-1.291h3.085c-.11.28-.11.518.213 1.29l2.58 6.019 2.493-6.018c.27-.63.339-.922.213-1.291h1.873c-.287.369-.465.732-.701 1.29m7.481-.484c-2.35 0-3.384 2.213-3.384 4.398 0 3.178 1.884 4.422 3.384 4.422 1.477 0 2.42-.709 3.166-1.677l.38.841c-.925 1.235-2.339 1.84-3.85 1.84-3.529 0-5.344-2.445-5.344-5.426 0-3.222 2.12-5.4 5.522-5.4 1.281 0 2.051.346 2.724.346.413 0 .66-.04.965-.18l-.839 1.926c-.603-.75-1.517-1.09-2.724-1.09m10.688 0c-2.356 0-3.385 2.213-3.385 4.398 0 3.178 1.885 4.422 3.385 4.422 1.471 0 2.42-.709 3.166-1.677l.373.841c-.925 1.235-2.332 1.84-3.844 1.84-3.528 0-5.343-2.445-5.343-5.426 0-3.222 2.12-5.4 5.522-5.4 1.281 0 2.045.346 2.723.346.408 0 .661-.04.96-.18l-.839 1.926c-.604-.75-1.51-1.09-2.718-1.09m8.418.485c0-.75.195-1.113.321-1.291h-2.775c.121.178.316.54.316 1.29v7.847c0 .744-.195 1.1-.316 1.279h2.775c-.126-.178-.32-.535-.32-1.28v-7.845z" fill="#60553E"/><path d="M56.588 79.803c-.287-.213-.753-.715-1.23-1.28l-3.786-4.593 3.412-3.252c.748-.721.995-.97 1.443-1.291h-2.85c.213.305.282.662-.356 1.29l-3.936 3.755 3.402 4.092c.568.69.568.98.356 1.279h3.545zm9.418 0c.126-.178.299-.535.299-1.28v-5.827l-4.683 5.556v.272c0 .744.196 1.1.327 1.279h-2.78c.12-.178.32-.535.32-1.28v-7.845c0-.75-.2-1.113-.32-1.291h2.78c-.131.178-.327.54-.327 1.29v5.788l4.683-5.557v-.23c0-.75-.173-1.113-.3-1.291h2.742c-.126.178-.3.54-.3 1.29v7.847c0 .744.174 1.1.3 1.279h-2.741zm13.325 0c.115-.178.3-.535.3-1.28v-5.827l-4.689 5.556v.272c0 .744.201 1.1.321 1.279h-2.78c.131-.178.321-.535.321-1.28v-7.845c0-.75-.19-1.113-.322-1.291h2.781c-.12.178-.32.54-.32 1.29v5.788l4.687-5.557v-.23c0-.75-.184-1.113-.299-1.291h2.735c-.126.178-.304.54-.304 1.29v7.847c0 .744.178 1.1.304 1.279h-2.735zm-2.034-12.055c-1.799 0-2.55-.685-2.55-1.324 0-.342.177-.732.453-.963h.937c-.16.248-.248.449-.248.766 0 .35.425 1.015 1.408 1.015.977 0 1.391-.664 1.391-1.015 0-.317-.092-.518-.253-.766h.942c.27.23.45.62.45.963 0 .639-.73 1.324-2.53 1.324zm20.364.768c-2.758 0-4.13 2.588-4.13 5.16 0 3.735 2.371 5.199 4.13 5.199 1.735 0 2.851-.824 3.724-1.964l.448.984c-1.086 1.459-2.74 2.162-4.523 2.162-4.13 0-6.292-2.883-6.292-6.381 0-3.787 2.494-6.347 6.483-6.347 1.516 0 2.412.398 3.211.398.5 0 .781-.041 1.138-.197l-.994 2.265c-.713-.875-1.763-1.28-3.195-1.28m14.228 2.589c-.431-.553-1.058-.57-1.626-.57h-1.672v7.99c0 .744.195 1.1.32 1.279h-2.78c.127-.178.322-.535.322-1.28v-7.99h-1.408c-.781 0-1.528-.097-2.477.57l.748-1.716h9.314l-.741 1.717zm5.728.871l-1.896 4.295h3.77l-1.874-4.295zm2.937 7.828c.126-.178.235-.588-.076-1.28l-.494-1.146h-4.752l-.505 1.147c-.304.69-.19 1.1-.069 1.279h-2.08c.23-.23.477-.535.816-1.28l3.545-8.064-.034-.076c-.213-.494-.448-.783-.696-.996h2.563l4.005 9.137c.345.744.592 1.049.821 1.279h-3.044zm11.773 0c.126-.178.322-.535.322-1.28v-3.521h-4.379v3.522c0 .744.213 1.1.323 1.279h-2.782c.126-.178.322-.535.322-1.28v-7.845c0-.75-.196-1.113-.322-1.291h2.782c-.11.178-.323.54-.323 1.29v3.177h4.38v-3.176c0-.75-.197-1.113-.323-1.291h2.781c-.109.178-.322.54-.322 1.29v7.847c0 .744.213 1.1.322 1.279h-2.78zm12.026-9.27h-2.706a.594.594 0 00-.603.588v4.221c0 1.527-.218 2.623-.875 3.32h3.58c.34 0 .605-.272.605-.61v-7.519zm.415 9.27h-4.225c-.78 0-2.08.29-3.028.951V79.25c1.817-.836 2.207-1.949 2.207-3.908v-4.664c0-.75-.195-1.114-.322-1.29h7.413c-.126.176-.321.54-.321 1.29v6.808c0 .742.31 1.377 1.299 1.705v1.563c-.944-.662-2.243-.95-3.023-.95zm10.112-7.828l-1.89 4.295h3.764l-1.873-4.295zm2.937 7.828c.127-.178.23-.588-.07-1.28l-.493-1.146h-4.764l-.5 1.147c-.298.69-.19 1.1-.07 1.279h-2.08c.23-.23.484-.535.823-1.28l3.545-8.064-.046-.076c-.206-.494-.437-.783-.69-.996h2.563l4.006 9.137c.339.744.586 1.049.82 1.279h-3.044zm8.693-9.293h-.981v4.953h1.16c1.293 0 2.476-.531 2.476-2.611 0-1.891-1.263-2.342-2.654-2.342m.494 6.1h-1.476v1.914c0 .744.217 1.1.32 1.279h-2.774c.12-.178.316-.535.316-1.28v-7.845c0-.75-.195-1.113-.316-1.291h3.93c2.695 0 4.332 1.326 4.332 3.486 0 2.549-2.085 3.737-4.332 3.737m14.606-5.506c-.432-.553-1.05-.57-1.62-.57h-1.494v7.99c0 .744.19 1.1.315 1.279h-2.774c.126-.178.315-.535.315-1.28v-7.99h-1.223c-.789 0-1.535-.097-2.478.57l.748-1.716h8.958l-.747 1.717zm5.724.392a2.005 2.005 0 01-2.843 0 2.013 2.013 0 01-.59-1.424 2.01 2.01 0 013.431-1.418 2.01 2.01 0 01.002 2.842m-1.42.37a1.789 1.789 0 001.786-1.793 1.785 1.785 0 00-1.786-1.788 1.793 1.793 0 00-1.793 1.787 1.793 1.793 0 001.793 1.793" fill="#60553E"/><path d="M185.536 70.043h.46c.126 0 .367-.057.367-.426 0-.301-.155-.398-.402-.398h-.425v.824zm-.299-1.088h.771c.234 0 .671.039.671.633 0 .34-.173.525-.373.576v.018c.292.068.316.318.321.564.007.33 0 .428.07.561h-.3c-.069-.11-.069-.186-.069-.496-.005-.219 0-.502-.36-.502h-.432v.998h-.299v-2.352z" fill="#60553E"/></g></svg>