<svg xmlns="http://www.w3.org/2000/svg" width="609.66" height="163.281" viewBox="0 0 5795.6 1552.19" shape-rendering="geometricPrecision" text-rendering="geometricPrecision" image-rendering="optimizeQuality" fill-rule="evenodd" clip-rule="evenodd"><defs><linearGradient id="a" gradientUnits="userSpaceOnUse" x1="4555.6" y1="709.01" x2="5230.7" y2="1878.33"><stop offset="0" stop-color="#00a04a"/><stop offset=".58" stop-color="#00a096"/><stop offset="1" stop-color="#00a0e3"/></linearGradient></defs><path fill="url(#a)" fill-rule="nonzero" d="M5795.6 1552.19H3990.7v-517.04h1804.9z"/><path d="M1688.22 880.12c-70.57 59.6-170.95 87.83-269.79 87.83-227.43 0-379.57-147.43-379.57-370.15 0-205.48 141.17-370.18 373.31-370.18 181.96 0 334.1 130.17 334.1 327.81 0 43.92-3.13 70.6-11 97.26h-509.76c15.71 106.65 100.38 164.69 211.77 164.69 86.26 0 158.41-31.37 199.19-64.31l51.76 127.04zm-468.97-348.21h346.65c1.55-86.26-58.05-153.72-161.56-153.72-108.23 0-166.27 61.18-185.09 153.72zm591.27-287.03h643.1v180.38h-230.56v525.45h-180.37V425.26h-232.17zM3165.7 880.12c-70.57 59.6-170.96 87.83-269.79 87.83-227.42 0-379.56-147.43-379.56-370.15 0-205.48 141.17-370.18 373.3-370.18 181.96 0 334.1 130.17 334.1 327.81 0 43.92-3.13 70.6-11 97.26h-509.76c15.71 106.65 100.39 164.69 211.77 164.69 86.26 0 158.41-31.37 199.19-64.31l51.76 127.04zm-468.97-348.21h346.65c1.55-86.26-58.05-153.72-161.56-153.72-108.22 0-166.27 61.18-185.08 153.72zm1113.59-113.7h-186.64l-4.71 75.28c-34.5 384.28-128.62 464.27-318.42 464.27l-15.68-175.67c61.18 6.26 144.3-51.76 159.98-324.68l11-219.58h534.84v705.82h-180.38V418.2zm986.53 461.91c-70.57 59.6-170.95 87.83-269.79 87.83-227.43 0-379.57-147.43-379.57-370.15 0-205.48 141.17-370.18 373.31-370.18 181.96 0 334.1 130.17 334.1 327.81 0 43.92-3.13 70.6-11 97.26h-509.76c15.71 106.65 100.39 164.69 211.77 164.69 86.25 0 158.41-31.37 199.18-64.31l51.76 127.04zm-468.98-348.21h346.65c1.55-86.26-58.05-153.72-161.56-153.72-108.23 0-166.27 61.18-185.09 153.72zm672.86-287.03h163.11l240.01 294.87 227.42-294.87h158.44v705.83H5609.3V519.35l-208.61 263.53h-4.68l-214.9-263.53v431.36h-180.38zM877.21 870.25c-68.66 70.46-164.53 114.27-270.68 114.27-72.82 0-140.8-20.64-198.5-56.32-5.27-2.95-10.57-6.15-15.9-9.82-.83-.67-47.48-34.25-58.06-45.66-12.85-13.85-44.85-60.83-44.85-60.83-.25-.39-.45-.77-.69-1.16-37.9-58.9-59.98-128.95-59.98-204.2 0-208.76 169.23-377.99 377.99-377.99 104.38 0 198.88 42.31 267.28 110.71l161.61-161.61C925.67 67.88 774.03-.01 606.54-.01 271.56-.01 0 271.54 0 606.53c0 334.98 271.55 606.54 606.54 606.54 169.26 0 322.3-69.36 432.33-181.17L877.22 870.25z" fill="#2b2a29" fill-rule="nonzero"/><path d="M4246.4 1177.28c70.57 0 123.82 48.51 123.82 122.46 0 71.24-53.25 122.46-123.82 122.46-70.55 0-123.49-48.51-123.49-122.46 0-68.87 50.55-122.46 123.49-122.46zm0 205.92c49.87 0 79.73-36.64 79.73-83.45 0-49.19-34.94-83.45-79.73-83.45-45.45 0-79.38 34.26-79.38 83.45 0 47.49 34.94 83.45 79.38 83.45zm322.31-66.14h-108.56v101.42h-41.72v-237.46h41.72v97.02h108.56v-97.02h41.39v237.46h-41.39zm247.34-97.03h-69.21l-4.74 44.78c-13.91 138.07-44.78 160.46-91.59 153.67l1.02-41.39c18.32 2.38 42.41-5.42 52.93-148.59l3.39-47.48h149.6v237.46h-41.39v-198.46zm177.12-39.69h36.64l100.41 238.14h-44.44l-24.77-60.73h-101.42l-24.77 60.73h-42.06l100.41-238.14zm-17.64 138.41h69.54l-34.6-84.48-34.94 84.48zm190.34 99.73v-237.46h41.72v168.94l124.5-168.94h36.64v237.46h-41.72v-168.6l-124.5 168.6h-36.64zm76.67-295.13c2.71 13.22 11.87 19.67 28.84 19.67 15.26 0 25.78-5.09 27.13-19.67h39.02c-1.01 29.17-28.84 48.51-66.15 48.51-40.71 0-65.48-19.68-67.85-48.51h39zm342.32 193.71h-108.55v101.42h-41.73v-237.46h41.73v97.02h108.55v-97.02h41.4v237.46h-41.4z" fill="#fefefe" fill-rule="nonzero"/></svg>