<svg width="121" height="32" xmlns="http://www.w3.org/2000/svg"><g fill="#B52E1E"><path d="M15.356 1.312v.023l-.233 13.92c-.005.308-.16.564-.4.746-.24.18-.522.253-.806.163L1.23 12.084l-.004-.001c.026.008.053.017.08.024l11.719 2.997c.335.085.66.02.939-.191.28-.21.442-.512.468-.868l.922-12.617c.003-.038.004-.077.003-.116m.46-.015v.023l.232 13.92c.006.307.161.563.401.744.24.181.522.256.805.164l12.688-4.08.009-.003c-.028.01-.056.017-.085.025l-11.719 2.998a1.08 1.08 0 01-.938-.191 1.164 1.164 0 01-.468-.869L15.82 1.412a1.104 1.104 0 01-.003-.115M7.753 28.983a.214.214 0 01.042-.096l7.128-9.84c.17-.232.424-.337.704-.336.28 0 .536.106.703.339l7.085 9.838a.196.196 0 01.04.103l-6.963-8.573a1.09 1.09 0 00-.867-.419 1.088 1.088 0 00-.87.417m-7.965 8.97l7.588-10.838c.174-.25.19-.553.097-.846-.093-.294-.278-.526-.56-.625L2.08 12.897l10.342 4.419c.322.138.55.393.656.736.107.344.067.692-.116.999m11.434 10.313l-7.589-10.838c-.174-.249-.189-.553-.097-.845.093-.295.279-.526.56-.625l11.835-4.18-10.341 4.418a1.15 1.15 0 00-.657.738c-.107.343-.066.69.117.997"/><path d="M12.854 13.32l-10.15-2.596 5.608-4.298 5.34-4.034-.798 10.928zM14.694.453a.924.924 0 00-1.049.065L7.445 5.2.997 10.142c-.311.24-.453.62-.377 1.015a.974.974 0 00.723.785l11.72 2.998c.288.074.564.017.804-.164s.378-.436.4-.744l.923-12.617a1.004 1.004 0 00-.497-.962zm3.625 12.85l-.8-10.926 5.346 4.035 5.603 4.297-10.15 2.594zm11.855-3.177l-6.446-4.943-6.2-4.682a.93.93 0 00-1.05-.065c-.339.198-.526.56-.497.963l.923 12.617c.022.307.16.563.4.744.24.182.516.238.805.164l11.718-2.997a.976.976 0 00.724-.786 1.016 1.016 0 00-.377-1.015zM4.843 29.079l-2.433-7.78L.17 14.13c-.12-.383-.021-.78.264-1.057a.934.934 0 011.035-.194l10.835 4.63a.97.97 0 01.557.624c.09.296.057.586-.099.847L6.6 29.3a.942.942 0 01-.947.472.964.964 0 01-.81-.692m20.432-1.529l-5.304-8.883 9.328-3.984-4.024 12.867zm5.476-14.498a.933.933 0 00-1.034-.194l-10.836 4.63a.97.97 0 00-.557.625 1.01 1.01 0 00.1.846l6.161 10.319a.946.946 0 00.947.472.967.967 0 00.81-.693l2.432-7.78 2.242-7.169c.12-.383.02-.78-.265-1.056zm-7.772 18.2H8.222a.956.956 0 01-.886-.59 1.026 1.026 0 01.142-1.081l7.4-9.055a.932.932 0 01.746-.358.936.936 0 01.744.36l7.357 9.055c.25.309.303.715.139 1.082a.957.957 0 01-.885.587m22.065-1.328c.337-.04.653-.096.951-.172v-2.258a4.61 4.61 0 01-1.488.246c-.39 0-.747-.056-1.071-.166a2.647 2.647 0 01-.879-.506 2.635 2.635 0 01-.75-1.107c-.165-.447-.248-.972-.248-1.576 0-.512.07-.97.209-1.374.14-.406.349-.757.63-1.051.28-.298.616-.52 1.007-.667.389-.148.83-.222 1.328-.222a4.033 4.033 0 01.738.068 4.258 4.258 0 01.34.07c.065.017.126.034.184.052v-2.188c-.134-.03-.269-.062-.404-.089a6.43 6.43 0 00-1.391-.142c-.835 0-1.583.127-2.24.38a4.612 4.612 0 00-1.709 1.131 4.925 4.925 0 00-1.09 1.763c-.241.672-.363 1.428-.363 2.268 0 .788.097 1.503.29 2.146.192.64.483 1.21.867 1.707a4.263 4.263 0 001.661 1.31c.66.29 1.422.436 2.292.436.4.002.78-.018 1.136-.059zm9.037-6.769c.082.375.125.795.125 1.259 0 .46-.043.877-.128 1.251a3.39 3.39 0 01-.389.995v.001a2.125 2.125 0 01-.757.765 2.04 2.04 0 01-1.034.258c-.398 0-.748-.086-1.05-.258a2.08 2.08 0 01-.754-.766 3.462 3.462 0 01-.377-.995 5.776 5.776 0 01-.126-1.251c0-.51.05-.964.148-1.362.098-.4.246-.746.444-1.033a1.97 1.97 0 01.73-.655c.286-.145.614-.219.985-.219.399 0 .75.086 1.05.256.302.171.555.428.756.768.167.282.292.612.377.986zm2.872 1.262v-.003c0-.874-.118-1.656-.358-2.342a4.875 4.875 0 00-1.072-1.783 4.48 4.48 0 00-1.594-1.084c-.605-.24-1.281-.362-2.032-.362-.758 0-1.441.12-2.048.362a4.404 4.404 0 00-1.589 1.084 4.871 4.871 0 00-1.062 1.783c-.238.686-.357 1.468-.357 2.342 0 .874.12 1.654.357 2.342a4.86 4.86 0 001.062 1.783c.91.962 2.121 1.445 3.635 1.445h.003c.75 0 1.427-.121 2.032-.364a4.441 4.441 0 001.593-1.083c.953-1.003 1.43-2.376 1.43-4.12zm9.732 3.53a3 3 0 00.204-1.133c0-.32-.03-.614-.09-.879a2.398 2.398 0 00-.839-1.38 3.41 3.41 0 00-.85-.496l-.144-.06.14-.07c.194-.094.37-.204.526-.333.154-.127.29-.27.407-.43a2.164 2.164 0 00.426-1.338c0-.342-.052-.659-.152-.951a2.536 2.536 0 00-1.49-1.54c-.421-.164-.916-.245-1.484-.245h-5.015V29.74h5.015c.601 0 1.13-.076 1.588-.225a2.95 2.95 0 001.147-.671c.27-.261.475-.559.611-.896zM64 25.806c.094.174.142.39.142.645 0 .177-.034.34-.1.485a.997.997 0 01-.293.375c-.13.107-.29.185-.484.238a2.531 2.531 0 01-.66.078H60.99v-6.424h1.549c.16 0 .298.006.418.016s.227.024.316.045a.878.878 0 01.51.299c.112.146.17.336.17.57 0 .154-.022.293-.072.413a.839.839 0 01-.224.317c-.194.17-.543.256-1.046.257h-.96v2.112h.927c.216 0 .407.014.573.041.164.03.304.07.417.127h.003c.19.091.33.227.428.406zm4.257 3.932H74.8v-2.272h-3.876v-6.102h3.621v-2.272h-6.29v10.646zm3.33-5.075h3.559v-2.271h-3.56v2.27zm8.796-3.3h2.288v-2.271H75.29v2.272h2.356v8.374h2.67v-8.374h.067zm9.102 8.561a7.35 7.35 0 00.95-.172v-2.258a4.61 4.61 0 01-1.487.246c-.39 0-.749-.056-1.072-.166a2.697 2.697 0 01-.88-.506 2.636 2.636 0 01-.746-1.107c-.167-.447-.25-.972-.25-1.576 0-.512.072-.97.21-1.374.14-.406.35-.757.63-1.051.279-.298.615-.52 1.005-.667a3.72 3.72 0 011.33-.222 4.082 4.082 0 01.736.068 4.308 4.308 0 01.34.07c.064.017.127.034.183.052v-2.188c-.132-.03-.269-.062-.402-.089a6.402 6.402 0 00-1.39-.142c-.836 0-1.583.127-2.242.38a4.655 4.655 0 00-1.71 1.131 4.964 4.964 0 00-1.089 1.763c-.241.672-.364 1.428-.364 2.268 0 .788.098 1.503.291 2.146.191.64.48 1.21.866 1.707a4.268 4.268 0 001.661 1.31c.66.29 1.424.436 2.294.436.4.002.78-.018 1.136-.059zm8.35-.186h2.747a14.1 14.1 0 00-.483-1.887 15.437 15.437 0 00-.78-1.917 16.375 16.375 0 00-.994-1.76 13.144 13.144 0 00-1.134-1.504l-.055-.063.073-.043a6.32 6.32 0 00.926-.68c.307-.271.621-.587.934-.948.292-.336.544-.669.76-.993.193-.289.356-.574.488-.854h-3.219c-.26.44-.636.865-1.126 1.271a5.512 5.512 0 01-.767.537 4.498 4.498 0 01-.787.368l-.094.034v-2.21h-2.669v10.647h2.67v-5.593l.048-.016a2.316 2.316 0 00.464-.21l.049-.032.041.045c.338.388.653.784.936 1.19.284.41.542.83.776 1.265v.002c.305.564.558 1.13.757 1.699.194.549.342 1.101.44 1.652zm9.761 0h2.669V19.09h-2.722c-.25.127-.518.296-.801.503-.292.21-.6.463-.927.757-.296.27-.568.539-.815.803-.247.265-.468.527-.668.787l-.126.165V19.09h-2.67v10.647h2.67v-4.194l.01-.016c.17-.285.38-.586.627-.901a16.375 16.375 0 011.794-1.917 8.33 8.33 0 01.849-.68l.11-.077v7.785zm10.454 0h2.669V19.09h-2.722a5.954 5.954 0 00-.72.46c-.276.203-.575.444-.9.73-.348.303-.652.594-.913.87a8.22 8.22 0 00-.664.787l-.127.179V19.09h-2.668v10.647h2.668v-4.193l.01-.017c.18-.303.391-.615.636-.934.245-.316.524-.643.832-.976.31-.333.615-.633.912-.896.298-.266.59-.497.879-.691l.109-.077v7.785zm-.182-11.499c.095-.14.16-.297.199-.472h-3.45c.036.157.096.301.178.43.098.151.228.285.39.401v.002c.162.115.338.202.531.26.194.06.4.088.625.088.204 0 .395-.023.575-.074.18-.048.35-.123.507-.22.186-.116.336-.253.445-.415zm-70.309-6.688c.467-.61.7-1.357.7-2.238 0-.567-.088-1.072-.263-1.511a2.961 2.961 0 00-.785-1.127c-.698-.628-1.665-.94-2.895-.943h-.005a7.101 7.101 0 00-1.424.147V7.97c.067-.017.13-.03.195-.045a4.698 4.698 0 01.807-.08c.258 0 .489.033.69.103a1.374 1.374 0 01.846.813c.07.185.106.394.106.623 0 .298-.06.55-.182.757a1.23 1.23 0 01-.543.491c-.142.069-.31.12-.501.157-.19.034-.404.051-.64.051h-1.432V4.624h4.995V2.37h-7.643v10.566h4.436c.83 0 1.538-.117 2.13-.35a3.203 3.203 0 001.408-1.036zm9.182 1.388h2.648a46.04 46.04 0 00-.488-2.62 37.091 37.091 0 00-.635-2.485 28.504 28.504 0 00-1.292-3.512 23.034 23.034 0 00-.98-1.95h-2.578c-.36.63-.715 1.377-1.065 2.244a36.797 36.797 0 00-1.048 3.016c-.28.94-.53 1.859-.746 2.76-.209.87-.387 1.72-.533 2.547h2.645c.101-.634.214-1.254.344-1.861a33.457 33.457 0 01.448-1.854c.165-.607.348-1.198.548-1.776.2-.577.417-1.137.65-1.683l.062-.143.065.142c.112.237.22.487.325.75v.001a19.225 19.225 0 01.573 1.664c.08.27.147.526.205.773l.02.086H54.17a22.819 22.819 0 00-.128.52 40.253 40.253 0 00-.343 1.576h2.734l.013.058c.052.27.088.469.105.603.01.065.03.197.063.397l.127.747zm10.782 0h2.648V2.372h-2.648v3.015h-2.697v2.27h2.697v5.282zm-6.002 0h2.65V2.372h-2.65V12.94zm17.7 0h2.725a14.812 14.812 0 00-1.255-3.774 16.163 16.163 0 00-.985-1.747 13.16 13.16 0 00-1.126-1.491l-.055-.063.073-.045c.304-.18.61-.404.917-.675.309-.268.617-.583.93-.94.287-.334.54-.663.752-.986.192-.286.355-.57.485-.846h-3.193c-.26.436-.634.857-1.12 1.26-.25.208-.503.386-.76.536-.256.15-.517.272-.78.364l-.093.032V2.372h-2.65V12.94h2.65V7.39l.048-.017c.085-.027.169-.06.242-.093.077-.036.148-.075.217-.116l.05-.03.038.045a12.97 12.97 0 011.704 2.436c.3.561.55 1.125.749 1.688.195.542.339 1.089.436 1.637z"/></g></svg>