<svg width="290" height="32" xmlns="http://www.w3.org/2000/svg"><g fill="none" fill-rule="evenodd"><path d="M59.123 28.081a2.936 2.936 0 00-.71-.07h-.456l-4.28.211c-2.072 0-3.904-.225-5.481-.672-1.84-.519-3.455-1.356-4.843-2.51-1.512-1.25-2.648-2.742-3.415-4.474-.765-1.733-1.147-3.6-1.147-5.605a12 12 0 01.885-4.58 9.038 9.038 0 012.634-3.625 10.797 10.797 0 013.996-2.085c1.495-.425 3.093-.638 4.79-.638l3.89.32 1.133.106c.352 0 .635-.053.848-.16.212-.106.389-.3.53-.583l1.626 6.683-.284.106c-.633-1.462-1.66-2.599-3.075-3.412-1.416-.813-2.97-1.22-4.667-1.22-1.25 0-2.34.177-3.272.53-.93.353-1.767.967-2.508 1.84a9.283 9.283 0 00-1.703 2.988 10.574 10.574 0 00-.58 3.482c0 3.181.966 5.894 2.9 8.132 2.026 2.36 4.606 3.537 7.743 3.537 1.79 0 3.343-.488 4.65-1.468 1.31-.977 2.363-2.326 3.167-4.048l.353.14-2.724 7.075zm7.57-3.112a11.924 11.924 0 01-2.797-3.997 11.96 11.96 0 01-.989-4.774c0-3.513 1.198-6.418 3.59-8.717 2.392-2.298 5.358-3.448 8.893-3.448 3.63 0 6.644 1.162 9.035 3.484 2.396 2.322 3.592 5.3 3.592 8.93 0 3.37-1.276 6.2-3.82 8.486-2.453 2.193-5.392 3.29-8.808 3.29-1.673 0-3.244-.267-4.72-.798a11.373 11.373 0 01-3.975-2.456m9.51 1.414c2.359 0 4.23-.908 5.624-2.723 1.296-1.674 1.943-3.724 1.943-6.154 0-3.134-.906-5.857-2.72-8.168-1.817-2.31-3.974-3.466-6.472-3.466-2.382 0-4.245.932-5.59 2.795-1.226 1.697-1.838 3.783-1.838 6.258 0 2.924.768 5.493 2.3 7.708 1.72 2.5 3.973 3.75 6.754 3.75m27.618-21.89c1.624 0 2.83.13 3.608.39 1.388.447 2.083 1.32 2.083 2.616 0 1.202-.611 2.275-1.837 3.217-.401.307-1.545.968-3.433 1.982 2.171.706 3.914 1.661 5.238 2.864 1.625 1.484 2.438 3.217 2.438 5.198 0 2.994-1.358 5.011-4.066 6.048-1.274.494-2.684.776-4.226.848-1.546.07-2.849.105-3.908.105h-8.876v-.317c.777-.119 1.354-.43 1.734-.938.375-.506.564-1.55.564-3.13V9.126c0-1.674-.176-2.782-.531-3.325-.351-.54-.944-.872-1.767-.989v-.319h12.979zm-6.791 9.265c2.003-.589 3.664-1.224 4.987-1.91 2.192-1.154 3.288-2.38 3.288-3.678 0-.895-.556-1.495-1.662-1.802-.613-.166-1.547-.248-2.792-.248-.897 0-1.635.035-2.212.106-.58.071-.998.272-1.255.601-.14.166-.238.484-.284.954-.045.472-.07.9-.07 1.274v4.703zm0 9.583c0 1.203.153 1.97.463 2.3.303.33 1.07.494 2.294.494 1.084 0 2.11-.083 3.078-.248.965-.164 1.822-.483 2.563-.954.745-.472 1.34-1.144 1.786-2.016.448-.872.674-1.755.674-2.653 0-1.532-.569-2.935-1.699-4.208-.966-1.107-2.239-1.99-3.821-2.652l-5.338 2.016v7.921zm19.484-14.215c0-1.65-.177-2.753-.531-3.307-.354-.554-.94-.89-1.768-1.007v-.319h8.488v.32c-.777.071-1.355.365-1.731.884-.377.52-.567 1.581-.567 3.186v4.318l3.048-2.439c1.626-1.346 2.776-2.385 3.459-3.117.848-.898 1.272-1.558 1.272-1.984 0-.307-.075-.513-.231-.619-.153-.106-.394-.183-.723-.23v-.319h8.522v.32c-1.203 0-2.391.364-3.573 1.095-.302.188-1.32.98-3.042 2.37l-2.65 2.192c1.722 1.603 3.243 3.454 4.562 5.551 1.224 1.91 2.312 4.056 3.25 6.436l.674 1.627c.47 1.155.779 1.851.918 2.086.472.756 1.064 1.18 1.772 1.274v.317h-7.78v-.317c.823-.119 1.235-.577 1.235-1.379 0-.873-.305-2.064-.917-3.572a28.852 28.852 0 00-1.681-3.378 31.67 31.67 0 00-2.14-3.254 43.114 43.114 0 00-2.616-3.128l-3.36 2.687v7.71c0 1.367.094 2.31.284 2.83.327.895 1.002 1.39 2.015 1.484v.317h-8.488v-.317c.99-.167 1.652-.65 1.983-1.45.21-.519.316-1.39.316-2.618V9.126zM141.73 24.97a11.828 11.828 0 01-2.794-3.997 11.896 11.896 0 01-.992-4.774c0-3.513 1.197-6.418 3.587-8.717 2.394-2.298 5.36-3.448 8.895-3.448 3.635 0 6.645 1.162 9.036 3.484 2.392 2.322 3.591 5.3 3.591 8.93 0 3.37-1.275 6.2-3.82 8.486-2.452 2.193-5.389 3.29-8.807 3.29-1.674 0-3.245-.267-4.718-.798a11.408 11.408 0 01-3.978-2.456m9.51 1.414c2.36 0 4.232-.908 5.624-2.723 1.297-1.674 1.944-3.724 1.944-6.154 0-3.134-.907-5.857-2.72-8.168-1.818-2.31-3.975-3.466-6.473-3.466-2.382 0-4.245.932-5.587 2.795-1.225 1.697-1.836 3.783-1.836 6.258 0 2.924.763 5.493 2.296 7.708 1.72 2.5 3.97 3.75 6.751 3.75m19.31-19.45V23.13c0 1.368.095 2.31.285 2.83.33.896 1 1.392 2.014 1.485v.317h-6.898v-.317c.994-.142 1.652-.613 1.982-1.415.21-.518.32-1.402.32-2.652V9.127c0-1.674-.18-2.782-.53-3.326-.358-.541-.947-.871-1.772-.988v-.32h8.951v.32c-.404.094-.602.329-.602.705 0 .307.152.743.462 1.308l4.051 7.41 4.03-6.532c.62-.988.931-1.705.931-2.153 0-.398-.21-.645-.635-.74v-.317h8.49v.319c-.993.164-1.653.647-1.982 1.449-.21.519-.32 1.39-.32 2.617v14.25c0 1.652.177 2.753.534 3.306.35.555.94.89 1.767 1.009v.317h-8.489v-.317c.99-.118 1.648-.577 1.98-1.38.213-.541.32-1.437.32-2.687V6.933l-7.745 12.553-7.145-12.553z" fill="#D8232A"/><path d="M196.686 8.879c0-1.226-.094-2.087-.28-2.581-.335-.85-.993-1.345-1.982-1.485v-.32h15.382c.355 0 .643-.028.867-.086a.975.975 0 00.547-.373l1.735 7.002-.32.106c-.658-1.698-1.663-2.924-3.012-3.678-1.354-.754-3.123-1.131-5.309-1.131-1.74 0-2.796.064-3.174.195-.374.13-.564.504-.564 1.12v4.908c4.53 0 8.085.882 10.682 2.646 2.332 1.576 3.5 3.54 3.5 5.892 0 2.14-.768 3.764-2.299 4.87-1.65 1.199-4.148 1.797-7.498 1.797h-10.574v-.317c.778-.118 1.355-.43 1.734-.937.375-.507.565-1.551.565-3.13V8.879zm3.89 14.613c0 1.339.107 2.115.32 2.326.212.213 1.118.317 2.721.317 2.194 0 3.916-.482 5.165-1.446 1.248-.963 1.874-2.196 1.874-3.701 0-1.88-.754-3.432-2.263-4.654-1.793-1.458-4.397-2.187-7.817-2.187v9.345zm20.453-.465a17.818 17.818 0 00-.435 1.378 4.565 4.565 0 00-.146 1.131c0 .565.19 1.024.57 1.38.374.352.836.528 1.378.528v.317h-7.212v-.317c.421-.093.77-.217 1.038-.37.275-.155.547-.42.815-.798.272-.377.562-.896.868-1.555.21-.47.448-1.038.706-1.698l5.694-15.03c.19-.518.323-.907.405-1.166a2.86 2.86 0 00.123-.885c0-.305-.098-.552-.299-.742-.199-.188-.464-.319-.796-.388v-.319h7.852v.32c-.688.188-1.026.612-1.026 1.272 0 .19.031.401.09.635.056.238.133.483.23.743l6.045 17.398c.162.426.343.85.531 1.274.352.684.894 1.12 1.626 1.308v.317h-8.026v-.317c.61-.14 1.056-.422 1.324-.847.272-.424.407-.966.407-1.626 0-1.743-.904-3.406-2.719-4.984-1.976-1.719-4.304-2.579-6.99-2.579l-2.053 5.62zm5.782-15.858l-3.206 8.466c1.39 0 2.694.23 3.92.69a8.533 8.533 0 013.21 2.138L226.811 7.17zm19.772 15.96c0 1.368.094 2.31.283 2.83.327.896 1 1.39 2.016 1.485v.317h-8.488v-.317c.777-.118 1.355-.43 1.73-.937.38-.507.57-1.551.57-3.13V9.126c0-1.673-.18-2.781-.533-3.325-.355-.541-.942-.871-1.767-.988v-.32h8.488v.32c-.989.117-1.652.578-1.983 1.378-.209.542-.316 1.439-.316 2.688v2.085h10.537V9.126c0-1.414-.096-2.393-.286-2.935-.302-.92-.976-1.378-2.013-1.378v-.32h8.49v.32c-.996.117-1.653.589-1.982 1.413-.212.544-.318 1.427-.318 2.653v14.25c0 1.344.094 2.275.281 2.794.328.896 1.004 1.403 2.018 1.52v.318h-8.489v-.317c.99 0 1.652-.425 1.981-1.273.212-.542.318-1.474.318-2.794V12.663h-10.537v10.466zm21.57-14.003c0-1.65-.177-2.753-.53-3.307-.354-.554-.942-.89-1.77-1.007v-.319h8.49v.32c-.779.071-1.357.365-1.737.884-.374.52-.564 1.581-.564 3.186v4.318l3.051-2.439c1.624-1.346 2.777-2.385 3.46-3.117.844-.898 1.27-1.558 1.27-1.984 0-.307-.076-.513-.229-.619-.155-.106-.395-.183-.728-.23v-.319h8.525v.32c-1.203 0-2.397.364-3.572 1.095-.309.188-1.323.98-3.043 2.37l-2.652 2.192a27.612 27.612 0 014.562 5.551c1.227 1.91 2.308 4.056 3.251 6.436l.676 1.627c.47 1.155.778 1.851.918 2.086.471.756 1.063 1.18 1.77 1.274v.317h-7.78v-.317c.823-.119 1.235-.577 1.235-1.379 0-.873-.306-2.064-.917-3.572a29.169 29.169 0 00-1.68-3.378 31.837 31.837 0 00-2.14-3.254 42.885 42.885 0 00-2.618-3.128l-3.359 2.687v7.71c0 1.367.093 2.31.283 2.83.33.895 1.003 1.39 2.017 1.484v.317h-8.49v-.317c.992-.167 1.653-.65 1.982-1.45.213-.519.318-1.39.318-2.618V9.126zM18.725.691v8.106h-3.12a7.172 7.172 0 100 14.342h3.12v8.108c7.116-1.446 12.47-7.737 12.47-15.278 0-7.543-5.354-13.835-12.47-15.279" fill="#0A417A"/><path d="M15.607 25.635c-5.339 0-9.668-4.33-9.668-9.666 0-5.34 4.33-9.667 9.668-9.667h.623V.392a18.277 18.277 0 00-.623-.014C6.997.378.017 7.36.017 15.97s6.98 15.59 15.59 15.59c.21 0 .418-.007.623-.013v-5.912h-.623z" fill="#D8232A"/></g></svg>