<svg xmlns="http://www.w3.org/2000/svg" width="212" height="28" viewBox="0 0 212000 27994" shape-rendering="geometricPrecision" text-rendering="geometricPrecision" image-rendering="optimizeQuality" fill-rule="evenodd" clip-rule="evenodd"><path d="M61794 7923c-1771 0-3285 1490-3285 3260v2807h-4542V7923h-154c-1771 0-3286 1490-3286 3260v11114h154c1772 0 3286-1489 3286-3260v-2711h4542v5971h3438V7923h-153zm136658 0c-1771 0-3285 1490-3285 3260v2807h-4543V7923h-154c-1771 0-3285 1490-3285 3260v11114h155c1769 0 3284-1489 3284-3260v-2711h4543v5971h3437V7923h-152zM42323 19756c-2104 0-3494-3439-3494-7470 0-4029 1466-6851 3494-6851 2026 0 3568 2822 3568 6851 0 4563-1325 7470-3568 7470zm0-17093c-3990 0-6573 3440-6932 8444h-4061V2946h-26c-1975 0-3515 1565-3515 3490v15861h27c1938-16 3514-1601 3514-3568v-5056h4061c306 4696 2899 8930 6932 8930 4626 0 7084-4474 7084-10291 0-5440-2617-9649-7084-9649zm31870 5260c-1127 0-2137 361-2944 1643l-4485 7803V7923h-3438v14374h1456c1110 0 2121-359 2944-1643l4737-8069v6452c0 1771 1513 3260 3283 3260h156V7923h-1709zm69144 0c-1126 0-2140 361-2943 1643l-4486 7803V7923h-3439v14374h1458c1109 0 2120-359 2942-1643l4737-8069v6452c0 1771 1514 3260 3285 3260h152V7923h-1706zm-55224 7365c-796-1797-1986-3080-3707-3747l6193-8596h-3859l-5983 8518V2983h-76c-1977 0-3465 1436-3465 3387v15926h77c1976 0 3464-1437 3464-3387v-5907c1771 0 3107 1182 3747 2720l2544 6574h3896l-2831-7008zm68014-7365h-10341v2748h3478v11626h154c1795 0 3231-1465 3231-3235v-8391h3478V7923zm-35620 11756c1592-1688 2352-4724 2712-7057l231-2079h2669l821 9136h-6433zm9615-102l-1181-11654h-8237l-513 3491c-462 3106-1190 7010-3973 8675l230 5954h184c1356 0 2457-1100 2457-2459l46-1287h9375l128 3746h182c1359 0 2459-1100 2459-2459l121-3495-1278-512zm79652-1875c-762-1508-1667-2660-3028-3224l5092-6554h-3704l-4929 6477V7924h-3441v14372h154c1772 0 3287-1488 3287-3259v-3273c1435 0 2463 1066 3028 2323l2067 4209h3700l-2226-4594zm-42313 2228l-2080-4v-6867c437-103 1207-250 1874-250 2488 0 3944 1482 3944 3316 0 1974-1402 3805-3738 3805zm154-9741c-846 0-1746 144-2234 272V5947h4557c1630 0 2951-1320 2951-2950v-51h-10946v19350h5570c4169 0 7279-2249 7279-6096 0-3296-2583-6011-7177-6011zm-60459 3920c0-2541 898-3901 2822-3951h130c949 0 2720 307 2823 3156l-5775 795zm8752 616c0-4311-2080-6802-5826-6802-3799 0-6108 2850-6108 7240 0 4515 2489 7339 6673 7339 2308 0 3926-565 4798-1027v-2848c-872 616-2078 1385-4465 1385-2155 0-3337-1231-3618-3567l8546-1180v-540zm67199 5826c-333 78-1180 128-1898 128-1848 0-2926-795-2926-2566 0-2387 1822-3003 4824-3285v5723zm-7879-2335c0 2696 1977 4286 5774 4286h720c1333 0 3542-206 4492-386v-9136c0-3593-2413-5057-5314-5057-2207 0-3899 644-4797 1079v2285c1514-796 2873-1310 4233-1310 1643 0 2771 488 2771 2310v950c-4284 411-7879 1283-7879 4979zm-78991 2079c-488 0-874-52-1207-179v-9779c436-154 872-231 1437-231 2234 0 3209 1617 3209 5056 0 2309-590 5133-3439 5133zm307-12371c-1948 0-3567 333-4824 1001l-77 52v19017h180c1770 0 3207-1462 3207-3234v-2488c488 127 1156 230 1900 230 3720 0 6159-2977 6159-7443 0-4440-2464-7135-6545-7135z" fill-rule="nonzero"/><path d="M12458 6181c7-10 14-21 22-32 185-269 108-469-16-576-78-69-1934-1193-1934-1193-134-90-223-243-223-418 0-275 165-483 539-586 1193-328 5388-500 6814-500 494 0 1346-2 2111 20l-34-33C17647 1078 14933 0 11969 0 5358 0 0 5357 0 11968c0 2906 1035 5569 2757 7643 1504-2163 5216-7492 6029-8581 937-1255 3075-4045 3436-4518l18-22 218-309zM4671 21455c2020 1556 4550 2481 7298 2481 6610 0 11968-5358 11968-11968 0-2001-491-3886-1358-5543l1 1c412-397 887-1025 575-1813-98-234-563-766-683-895l17 46c291 879-285 1430-699 1804-227 207-3266 3072-6830 6188-3142 2747-6655 5542-8691 7066-2863 2142-3420 2454-3420 2454-76 41-202 76-294 76-175 0-327-78-423-204l-3-3c-15 37-20 69-7 91 307 498 816 1073 1113 1073 92 0 219-35 295-75 0 0 225-125 1141-779z" fill="#e2001a"/><path d="M12475 6149c184-268 107-468-16-576-78-68-1934-1193-1934-1193-134-90-223-242-223-417 0-276 165-483 539-587 1192-328 5388-499 6813-499 673 0 2006-5 2883 53 984 64 1731 268 1916 744 365 933-238 1509-666 1897-226 206-3265 3071-6829 6187-3142 2747-6656 5541-8691 7066-2863 2142-3420 2454-3420 2454-76 41-202 76-295 76-296 0-529-227-529-525 0-112 34-218 94-303 0 0 5637-8122 6664-9496 1026-1372 3488-4586 3488-4586s29-36 206-295z" fill="#fefefe"/></svg>