<svg width="100" height="32" xmlns="http://www.w3.org/2000/svg" xmlns:xlink="http://www.w3.org/1999/xlink"><defs><path id="a" d="M0 .64h20.288v30.323H0z"/></defs><g fill="none" fill-rule="evenodd"><path fill="#1E388C" d="M31.301 26.08h-3.583l1.633-2.88-4.058-7.228h3.637l2.107 4.295 2.108-4.295h3.584zm45.266 0h-4.48c-2.477 0-4.426-2.042-4.426-4.923 0-3.247 1.95-5.185 4.426-5.185h4.48v2.514h-2.899c-1.739 0-2.74.524-2.74 2.619 0 2.042 1.001 2.46 2.74 2.46h2.899v2.515zm11.75 0h-3.319v-7.123l-3.794 7.123H77.25V15.972h3.268v6.914l3.794-6.914h4.005zm-42.735 0l4.269-10.108h3.687l3.531 8.38 3.53-8.38h3.637l4.269 10.108h-3.478l-2.583-7.28-2.634 7.28h-5.48l-.792-2.095h-3.687l-.791 2.095z"/><path fill="#FEFEFE" d="M51.695 18.8l-1.055 2.88h2.108z"/><path d="M40.26 26.08h-3.267V15.972h6.797c3.425 0 3.425 2.829 3.425 3.457 0 .68 0 3.718-3.425 3.718h-3.53v2.933z" fill="#1E388C"/><path d="M40.26 20.633h2.37c.37 0 1.318 0 1.318-1.099 0-1.048-.949-1.048-1.318-1.048h-2.37v2.147z" fill="#FEFEFE"/><path d="M98.594 15.972v2.514H92.27v1.309h3.32c3.477 0 3.477 1.99 3.477 3.09 0 1.153 0 3.195-3.424 3.195h-6.692V15.972h9.643z" fill="#1E388C"/><path d="M92.27 22.152v1.572h2.793c.738 0 .738-.578.738-.839 0-.209 0-.733-.738-.733H92.27z" fill="#FEFEFE"/><g transform="translate(0 .197)"><mask id="b" fill="#fff"><use xlink:href="#a"/></mask><path d="M10.592 14.414c.105 4.766.421 10.737 2.003 14.77.158.418.42.889.631 1.308-1 .262-2.055.471-3.108.471-1.108 0-2.16-.209-3.11-.47.264-.525.474-.996.686-1.468 1.475-3.98 1.896-9.898 1.95-14.611h.948zm-.053-3.666c.263 0 .527 0 .738.105l-.053-6.861h.843s-.105 1.885.264 7.018c4.532.995 7.957 4.975 7.957 9.793 0 3.614-1.897 6.704-4.69 8.485-.053-.053-.158-.21-.264-.315-3.003-3.822-3.741-9.531-3.952-14.506.422.104.844.156 1.265.209.843 5.447 3.372 9.06 5.427 11.312.95-1.256 1.53-2.671 1.53-4.243 0-1.831-.739-3.456-1.95-4.765a10.01 10.01 0 00-4.848-2.88 11.1 11.1 0 00-2.688-.315c-.897 0-1.792.106-2.688.315-3.9.995-6.797 4.033-6.797 7.645 0 1.572.579 2.987 1.475 4.243 2.107-2.252 4.584-5.865 5.427-11.312.423-.053.844-.105 1.318-.21-.21 4.976-.949 10.632-3.952 14.455v-.052c-.106.156-.211.314-.317.419C1.792 27.508 0 24.418 0 20.803c0-4.818 3.373-8.798 7.958-9.793.262-5.133.21-7.018.21-7.018h.842l-.052 6.861c.21-.105.474-.105.685-.105V.64h.896v10.108z" fill="#1E388C" mask="url(#b)"/></g></g></svg>