<svg width="999" height="248" xmlns="http://www.w3.org/2000/svg" xmlns:xlink="http://www.w3.org/1999/xlink"><defs><path id="a" d="M.36.88h60.903v57.895H.36z"/><path id="c" d="M.962.88h60.902v57.895H.962z"/><path id="e" d="M.376.97h6.391V13H.376z"/><path id="g" d="M0 249.12h998.872V1H0z"/></defs><g transform="translate(0 -1)" fill="none" fill-rule="evenodd"><path d="M0 9.27c0-4.135 3.383-7.52 7.52-7.52h225.94c4.134 0 7.518 3.385 7.518 7.52v225.564c0 4.136-3.384 7.519-7.519 7.519H7.52c-4.136 0-7.519-3.383-7.519-7.52V9.272z" fill="#FEFEFE"/><path d="M103.007 48.744c.752 0 1.128-.752.752-1.128l-1.88-3.76c-.375-.752-1.127-1.128-1.879-1.128H36.09c-.752 0-1.128.752-.752 1.128l1.88 3.76c.375.752 1.127 1.128 1.88 1.128h63.91zm4.888 7.519c-.376-.752-1.128-1.128-1.88-1.128h-63.91c-.751 0-1.127.752-.751 1.128l1.879 3.76c.376.751 1.128 1.127 1.88 1.127h63.91c.752 0 1.128-.752.752-1.127l-1.88-3.76zm6.015 12.03c-.376-.752-1.128-1.128-1.88-1.128H48.12c-.752 0-1.127.752-.752 1.128l1.88 3.76c.376.751 1.128 1.127 1.88 1.127h63.91c.752 0 1.128-.752.752-1.128l-1.88-3.759zm6.015 12.405c-.376-.75-1.128-1.126-1.88-1.126h-63.91c-.752 0-1.127.75-.752 1.126l1.88 3.76c.376.752 1.128 1.129 1.88 1.129h63.91c.75 0 1.127-.752.75-1.129l-1.878-3.76zm5.639 12.407c-.376-.752-1.128-1.128-1.88-1.128h-63.91c-.752 0-1.127.752-.752 1.128l1.88 3.76c.376.752 1.128 1.128 1.88 1.128h63.909c.752 0 1.128-.752.752-1.128l-1.879-3.76zm6.016 12.406c-.377-.752-1.129-1.128-1.88-1.128H65.79c-.753 0-1.128.752-.753 1.128l1.88 3.76c.376.752 1.128 1.127 1.88 1.127h63.91c.751 0 1.127-.376.751-1.127l-1.879-3.76zm6.014 12.406c-.376-.752-1.127-1.128-1.88-1.128h-63.91c-.751 0-1.127.752-.751 1.128l1.879 3.76c.376.751 1.128 1.127 1.88 1.127h63.91c.752 0 1.128-.752.752-1.128l-1.88-3.759z" fill="#1E3B6E"/><path d="M202.256 122.804c8.646 0 15.413-6.767 15.413-15.413 0-8.647-6.767-15.414-15.413-15.414-8.647 0-15.414 6.767-15.414 15.414 0 8.646 6.767 15.413 15.414 15.413" fill="#E11E2D"/><path d="M119.173 36.338c.752 0 1.504-.752 1.504-1.504V31.45c0-.752-.752-1.503-1.504-1.503H20.3c-.752 0-1.504.751-1.504 1.503v3.384c0 .752.752 1.504 1.504 1.504h98.872zm-42.106 92.858c-.75 0-1.126.752-.75 1.127l40.225 83.459c.376.752 1.127.752 1.504 0l36.841-77.443c.376-.752 1.129-1.128 1.88-1.128h59.399c.751 0 1.504-.752 1.504-1.504v-3.008c0-.751-.752-1.503-1.504-1.503H77.067zm139.098-99.248h-51.127c-.752 0-1.504.75-1.504 1.503v3.383c0 .752.752 1.505 1.504 1.505h7.518c1.88 0 12.782 0 8.647 12.782l-33.835 72.556c-.376.75 0 1.126.752 1.126h11.654c.752 0 1.88-.751 1.88-1.126l36.842-76.693a16.515 16.515 0 016.015-7.142c2.256-1.127 5.263-1.88 9.4-1.88h2.254c.752 0 1.504-.752 1.504-1.504v-3.007c0-.753-.752-1.503-1.504-1.503M466.541 78.82h-10.15c-.376 0-.752.376-.752.752v22.556h-29.7V79.572c0-.376-.376-.752-.752-.752h-10.15c-.375 0-.75.376-.75.752v54.887c0 .376.375.752.75.752h10.15c.376 0 .752-.376.752-.752v-22.933h29.7v22.933c0 .376.376.752.752.752h10.15c.376 0 .752-.376.752-.752V79.572c0-.376-.376-.752-.752-.752m-143.984 45.864c-1.504 1.504-3.384 1.504-5.64 1.504h-18.045c-1.127 0-3.007 0-3.76-.752 0 0-.375-.376-.375-3.008v-10.902h21.804c1.88 0 4.136 0 5.264 1.504 1.504 1.504 1.88 3.383 1.88 5.639v.376c.376 1.503.376 4.135-1.128 5.639m10.526-18.045c-2.255-3.008-6.015-4.136-10.526-4.136h-27.444V91.225c0-.752 0-1.88.752-2.631.752-.376 1.88-.376 2.63-.376h28.197c.376 0 .752-.376.752-.752v-7.143c0-.375-.376-.751-.752-.751H291.73c-3.384 0-5.264 1.127-6.016 2.255-1.88 1.879-2.255 4.51-2.255 6.39v40.227c0 1.504.375 3.759 1.879 5.262 1.504 1.504 3.384 2.256 6.016 2.256h31.203c6.015 0 9.022-2.256 10.15-3.76 2.255-2.254 3.383-6.766 3.383-12.781 0-6.391-.752-10.15-3.007-12.782m29.699 4.887l9.022-22.18s.752-1.88 1.504-1.88 1.503 1.88 1.503 1.88l9.024 22.18h-21.053zm42.48 22.557l-21.05-49.248c-2.257-4.887-5.265-6.391-10.528-6.391-5.639 0-8.27 1.504-10.526 6.39l-21.053 49.249v.376c0 .376.376.752.752 1.128h9.4c.375 0 .751-.376.751-.376l6.014-14.287h28.947l6.015 14.287c0 .376.376.376.752.376h9.4c.75-.376 1.126-.752 1.126-1.504zm127.445-.377l-26.692-22.557c-1.128-1.127-3.759-3.006-3.759-4.886 0-1.128 1.503-2.632 3.007-4.136l24.06-21.805s.376-.375.376-.75c0-.377-.376-.753-.752-.753h-12.406L493.61 99.496c-1.128.751-1.504 1.88-2.256 2.631V79.195c0-.376-.375-.752-.75-.752H480.45c-.376 0-.752.376-.752.752v55.263c0 .376.376.752.752.752h10.151c.376 0 .751-.376.751-.752v-24.06c.752 1.127 1.504 2.255 3.007 3.76l24.813 21.428h12.782c.376 0 .752-.376.752-1.128.376-.376.376-.376 0-.752m407.52-121.428c0-1.128 0-3.76-1.128-6.391-1.504-2.631-4.136-4.135-8.27-4.135-4.512 0-7.143 1.504-10.151 6.39L896.993 44.61c-.376.376-.752 1.128-1.128 1.128h-.376c-.376-.376-.376-1.128-.376-1.88V2.504c0-.376-.376-.752-.752-.752H884.21c-.376 0-.751.376-.751.752v45.489c0 3.007 0 9.774 9.023 9.774 6.015 0 7.894-3.008 9.398-5.263l24.06-37.218c.376-.752 1.128-1.88 1.504-1.88.376 0 .376 0 .376 1.504v41.729c0 .376.376.752.752.752h10.15c.376 0 .752-.376.752-.752l.752-44.361zM322.557 47.24c-1.504 1.88-4.512 1.88-6.016 1.88h-17.67c-.751 0-2.254 0-3.006-.752-.376-.376-.376-1.504-.376-3.008V34.084h21.804c3.384 0 4.888 1.504 5.64 2.256.752 1.128 1.128 3.007 1.128 5.261-.376 1.88-.376 4.136-1.504 5.64zm-27.444-22.18V13.405c0-1.129.376-1.88.752-2.257.376-.375 1.128-.375 1.88-.375h18.42c1.88 0 3.76 0 5.264 1.504 1.504 1.503 1.88 3.76 1.88 5.64 0 3.383-.752 4.886-1.128 5.262-1.504 1.88-3.76 1.88-5.64 1.88h-21.428zm37.97 7.143c-1.128-1.505-3.007-2.256-5.263-3.008 1.504-.375 3.008-1.128 4.51-2.631 2.632-3.009 3.008-6.015 3.008-9.398 0-3.76-.376-9.024-3.76-12.03-3.006-3.009-7.517-3.385-10.901-3.385h-28.571c-3.008 0-4.888.752-6.392 2.257-1.128 1.503-1.88 3.758-1.88 6.015v39.85c0 3.007 1.128 4.887 2.256 6.014 2.256 2.255 4.888 2.255 7.52 2.255h28.947c3.759 0 7.519 0 10.902-3.759 3.383-3.76 3.383-8.27 3.383-12.03-.752-3.008-.752-7.142-3.76-10.15z" fill="#1E3B6E"/><g transform="translate(344 .12)"><mask id="b" fill="#fff"><use xlink:href="#a"/></mask><path d="M16.15 14.79c3.76-4.512 10.15-4.512 14.662-4.512 5.64 0 11.277.375 14.662 4.511 2.256 3.008 3.76 7.896 3.76 15.039s-1.129 12.028-3.76 15.037c-3.76 4.511-10.15 4.511-14.662 4.511-7.143 0-11.277-.752-14.662-4.511-2.631-3.009-3.76-7.895-3.76-15.038 0-7.519 1.128-12.03 3.76-15.038m38.346-7.894C48.106.88 37.58.88 30.811.88c-7.142 0-16.916 0-23.683 6.014C.737 12.534.36 21.556.36 29.828c0 6.015 0 16.541 6.768 22.933 6.39 6.015 16.918 6.015 23.683 6.015 6.769 0 17.294 0 23.685-6.015 6.767-6.392 6.767-18.045 6.767-22.932-.377-7.895-1.128-17.294-6.767-22.933" fill="#1E3B6E" mask="url(#b)"/></g><g transform="translate(534 .12)"><mask id="d" fill="#fff"><use xlink:href="#c"/></mask><path d="M17.128 14.79c3.759-4.512 10.15-4.512 14.661-4.512 5.64 0 11.278.375 14.662 4.511 2.632 3.008 3.759 7.896 3.759 15.039s-1.127 12.028-3.759 15.037c-3.76 4.511-10.15 4.511-14.662 4.511-7.142 0-11.278-.752-14.661-4.511-2.632-3.009-3.76-7.895-3.76-15.038 0-7.519 1.128-12.03 3.76-15.038m37.97-7.894C48.707.88 38.181.88 31.413.88c-7.142 0-16.917 0-23.683 6.014C1.338 12.534.962 21.556.962 29.828c0 6.015 0 16.541 6.768 22.933 6.39 6.015 16.917 6.015 23.683 6.015 6.768 0 17.294 0 23.685-6.015 6.766-6.392 6.766-18.045 6.766-22.932 0-7.895-.752-17.294-6.766-22.933" fill="#1E3B6E" mask="url(#d)"/></g><path d="M807.143 49.12h-30.827c-1.504 0-3.007 0-3.383-.752-.376-.376-.752-1.128-.752-1.88V34.082h28.195c.376 0 .752-.376.752-.752v-7.519c0-.376-.376-.752-.752-.752H772.18V13.781c0-.752 0-1.88.752-2.256.752-.752 1.879-.752 2.63-.752h31.204c.376 0 .752-.376.752-.75v-7.52c0-.376-.376-.752-.752-.752h-36.842c-2.632 0-5.263.376-7.142 2.256-1.128 1.504-2.256 3.76-2.256 6.015v39.474c0 2.631.376 4.887 2.256 6.767 1.879 1.88 4.51 1.88 6.766 1.88h37.594c.376 0 .752-.377.752-.752v-7.144c0-.75-.376-1.127-.752-1.127m190.602 0h-30.827c-1.504 0-3.007 0-3.383-.752-.376-.376-.752-1.128-.752-1.88V34.082h28.195c.376 0 .752-.376.752-.752v-7.519c0-.376-.376-.752-.752-.752h-28.195V13.781c0-.752 0-1.88.752-2.256.752-.752 1.88-.752 2.631-.752h31.203c.376 0 .752-.376.752-.75v-7.52c0-.376-.376-.752-.752-.752h-36.842c-2.632 0-5.263.376-7.142 2.256-1.128 1.504-2.256 3.76-2.256 6.015v39.474c0 2.631.376 4.887 2.256 6.767 1.88 1.88 4.51 1.88 6.766 1.88h37.594c.376 0 .752-.377.752-.752v-7.144c0-.75-.376-1.127-.752-1.127M871.429 1.751h-10.15c-.376 0-.752.376-.752.752V25.06h-29.7V2.503c0-.376-.376-.752-.752-.752h-10.15c-.376 0-.752.376-.752.752v54.888c0 .376.376.752.752.752h10.15c.376 0 .752-.376.752-.752V34.082h29.7v22.933c0 .376.376.752.752.752h10.15c.376 0 .752-.376.752-.752V2.503c0-.376-.376-.752-.752-.752M512.406 27.316c-1.88 1.88-4.512 1.88-6.768 1.88h-20.676V13.782c0-.752 0-1.88.752-2.256.752-.752 1.504-.752 2.255-.752h18.045c1.504 0 4.512 0 6.392 1.88 1.88 1.88 1.88 4.888 1.88 7.518 0 1.128 0 5.264-1.88 7.144m9.398-22.181c-3.759-3.383-8.646-3.383-12.03-3.383h-27.819c-3.008 0-5.264.752-6.768 2.255-2.255 1.88-2.255 4.512-2.255 6.39v46.994c0 .376.376.752.752.752h10.151c.375 0 .751-.376.751-.752V38.594h27.068c3.383 0 6.767-1.128 9.023-2.632 3.382-2.631 5.262-7.894 5.262-15.414.376-5.638 0-11.653-4.135-15.413m159.023 51.504l-22.933-22.557c-1.504-1.128-3.007-3.007-3.007-4.886 0-1.504 1.128-2.632 2.255-3.76L677.82 3.255s.376-.376.376-.752-.376-.752-.752-.752h-12.03c-.376 0-.376 0-.376.376l-18.42 20.677c-.753 1.128-1.505 1.88-1.88 2.632V2.879c0-.376-.376-.752-.752-.752h-10.15c-.376 0-.752.376-.752.752v22.557c-.376-.752-1.128-1.88-1.88-2.632 0 0-18.045-20.677-18.42-20.677l-.377-.376h-12.03c-.376 0-.752.376-.752.752s0 .376.376.752l20.677 22.181c1.128 1.128 2.255 2.256 2.255 3.76 0 1.879-1.503 3.758-3.007 4.886l-22.933 22.557s-.376.376-.376.752.376.752.752 1.128h12.782c.376 0 .376 0 .376-.376l19.55-21.053c1.503-1.504 2.255-2.632 2.631-3.76v24.437c0 .376.376.752.752.752h10.15c.376 0 .752-.376.752-.752V32.954c.751 1.128 1.503 2.256 3.007 3.76l19.55 21.053.375.376H679.7c.376 0 .752-.376.752-1.128.752 0 .376-.376.376-.376m37.217-44.361s.752-1.88 1.504-1.88 1.504 1.88 1.504 1.88L736.09 49.12h-32.706l14.661-36.843zM751.88 49.12h-4.512L730.075 7.767c-2.256-4.887-4.887-6.391-10.526-6.391-5.264 0-8.271 1.504-10.526 6.39L691.73 49.122h-4.512c-.376 0-.752.376-1.128.752v7.142c0 .376.376.752.752.752h64.662c.376 0 .752-.376.752-.752v-7.142c.752-.376 0-.752-.376-.752zM459.399 32.202c-1.505-1.504-3.009-2.255-5.264-3.007 1.504-.376 3.007-1.128 4.512-2.632 2.632-3.007 3.007-6.015 3.007-9.398 0-3.76-.375-9.023-3.76-12.406-3.007-3.008-7.517-3.384-10.901-3.384h-31.955c-.377 0-.752.376-.752.752V9.27c0 .376.375.752.752.752h27.443c1.88 0 3.76 0 5.264 1.503 1.503 1.504 1.88 3.76 1.88 5.64 0 3.383-.752 4.887-1.128 5.263-1.505 1.88-3.76 1.88-5.64 1.88h-21.429c-.375 0-.752.375-.752.751v7.143c0 .376.377.752.752.752h22.182c3.382 0 4.887 1.504 5.638 2.256.752 1.128 1.129 3.008 1.129 5.263 0 1.88-.377 4.135-1.505 5.263-1.504 1.88-4.51 1.88-6.014 1.88H414.66c-.375 0-.75.376-.75.752v7.143c0 .376.375.752.75.752h33.46c3.759 0 7.518 0 10.901-3.76 3.385-3.759 3.385-8.27 3.385-12.03-.376-1.127-.376-5.263-3.008-8.27M295.864 229.947h-6.39v7.52h6.39c2.632 0 4.512-1.505 4.512-3.76 0-1.88-1.88-3.76-4.512-3.76m.376 12.781h-12.78V214.91h21.05v4.889h-15.037v5.637h6.767c6.392 0 10.526 3.76 10.526 8.648-.376 4.887-4.134 8.645-10.526 8.645m27.069-19.925l-4.136 10.15h7.895l-3.76-10.15zm7.519 19.925l-1.88-4.887h-11.28l-1.88 4.887h-6.39l11.655-27.82h4.887l11.654 27.82h-6.766zm27.819 0v-11.654h-10.902v11.654h-6.392v-27.82h6.392v11.279h10.901V214.91h6.015v27.819zm13.91 0v-27.82h6.015v13.159l10.526-13.158h7.519l-10.903 12.782 11.655 15.037h-7.52l-11.277-14.661v14.66z" fill="#1E3B6E"/><g transform="translate(400 236.12)"><mask id="f" fill="#fff"><use xlink:href="#e"/></mask><path fill="#FEFEFE" mask="url(#f)" d="M.376 13V.97h6.391v7.518z"/></g><path fill="#1E3B6E" d="M424.06 242.729v-27.82h6.392v13.159l10.526-13.158h7.143l-10.527 12.782 11.654 15.037h-7.518l-11.278-14.661v14.66zm42.857-21.805c-1.128-1.127-2.256-1.503-4.135-1.503-1.504 0-3.008.376-4.136 1.503-1.503 1.504-1.503 4.136-1.503 7.52v1.503c0 3.007 0 5.64 1.503 6.767 1.128.752 2.256 1.504 4.136 1.504 1.504 0 3.007-.376 4.135-1.504 1.128-1.128 1.504-2.632 1.504-8.27 0-4.888-.376-6.392-1.504-7.52zm7.52 8.647c0 3.76 0 7.143-3.384 10.151-2.256 1.88-5.264 3.007-8.647 3.007-3.384 0-6.39-1.128-8.646-3.007-3.008-2.632-3.008-6.768-3.008-9.775v-2.255c0-5.64.752-7.895 3.008-10.15 2.255-1.88 5.262-3.009 8.646-3.009 3.383 0 6.391 1.128 8.647 3.008 2.256 1.88 3.383 4.511 3.383 9.023v3.007zm18.044-10.15v23.308h-6.392v-23.308h-8.27v-4.512h22.933v4.512zm27.068 1.503c-1.128-1.127-2.256-1.503-4.136-1.503-1.503 0-3.007.376-4.135 1.503-1.503 1.504-1.503 4.136-1.503 7.52v1.503c0 3.007 0 5.64 1.503 6.767 1.128.752 2.256 1.504 4.135 1.504 1.504 0 3.008-.376 4.136-1.504 1.128-1.128 1.504-2.632 1.504-8.27.376-4.888 0-6.392-1.504-7.52zm7.895 8.647c0 3.76 0 7.143-3.383 10.151-2.256 1.88-5.264 3.007-8.648 3.007-3.383 0-6.39-1.128-8.646-3.007-3.007-2.632-3.007-6.768-3.007-9.775v-2.255c0-5.64.75-7.895 3.007-10.15 2.256-1.88 5.263-3.009 8.646-3.009 3.384 0 6.392 1.128 8.648 3.008 2.255 1.88 3.383 4.511 3.383 9.023v3.007zm18.42-2.255c2.632 0 4.512-1.504 4.512-3.76s-1.88-3.76-4.512-3.76h-6.015v7.52h6.015zm.376-12.406c6.016 0 10.526 3.76 10.526 8.646 0 5.264-4.51 8.647-10.526 8.647h-6.015v10.526h-6.39v-27.82h12.405z"/><mask id="h" fill="#fff"><use xlink:href="#g"/></mask><path d="M588.722 242.728h6.391v-27.819h-6.391v27.819zm-14.286-12.78h-6.015v7.518h6.015c3.007 0 4.511-1.504 4.511-3.76 0-1.88-1.88-3.758-4.511-3.758zm.376 12.781H562.03v-27.82h6.391v10.527h6.391c6.391 0 10.526 3.76 10.526 8.646 0 4.888-4.511 8.647-10.526 8.647zm39.849-29.323c-3.383 0-7.143-1.504-7.143-5.64h4.512c0 1.88 1.128 2.256 3.007 2.256 1.504 0 2.632-.751 3.008-2.255h4.512c-.752 4.135-4.512 5.639-7.896 5.639zm5.64 29.323v-18.045l-12.407 18.045h-5.638v-27.82h6.39v17.67l12.407-17.67h5.638v27.82h-6.39zm37.218-4.887c2.632 0 4.136-1.504 4.136-3.384 0-2.256-1.504-3.384-4.136-3.384h-6.391v6.768h6.39zm-.376-11.654c2.632 0 4.136-1.128 4.136-3.384 0-1.88-1.504-3.383-4.136-3.383h-6.015v6.391h6.015v.376zm8.647 3.76c1.503 1.126 1.879 3.006 1.879 4.886 0 4.888-3.758 7.895-9.774 7.895H644.36v-27.82h12.782c6.016 0 9.774 3.008 9.774 7.52 0 2.631-1.127 4.511-4.134 6.015 1.879.376 2.255.752 3.007 1.503zm19.172 12.781c-3.383 0-6.391-1.128-8.646-3.007-3.383-2.632-3.007-6.391-3.007-11.278 0-4.888 0-8.272 3.007-11.278 2.255-1.88 5.263-3.008 8.646-3.008 6.016 0 10.526 3.008 11.654 8.646h-6.39c-.752-2.256-2.256-4.135-5.264-4.135-1.879 0-3.007.376-4.135 1.503-1.128 1.128-1.504 2.632-1.504 7.896 0 5.263.376 6.766 1.504 7.894.752.752 2.256 1.504 4.135 1.504 3.008 0 4.888-1.88 5.264-4.135h6.39c-1.128 6.39-5.638 9.398-11.654 9.398m17.294 0v-27.82h21.053v4.512H708.27v6.767h12.782v4.887H708.27v6.767h15.038v4.887zm33.458-23.308v23.308h-6.391v-27.82h20.3v4.512zm33.835 0h-7.143v4.135c0 5.64-.752 10.15-3.007 14.286h9.774v-18.42h.376zm4.136 29.323v-6.015h-17.67v6.015H750v-10.902h3.008c2.63-3.384 3.759-9.399 3.759-15.79v-7.143h19.173v22.933h3.759v10.902h-6.014zm21.803-25.94l-4.135 10.15h7.895l-3.76-10.15zm7.144 19.925l-1.88-4.887h-11.279l-1.88 4.887h-6.39l11.654-27.82h4.887l11.654 27.82h-6.766zm31.954 0c-3.383 0-6.391-1.128-8.646-3.007-3.383-2.632-3.007-6.391-3.007-11.278 0-4.888 0-8.272 3.007-11.278 2.255-1.88 5.263-3.008 8.646-3.008 6.016 0 10.526 3.008 11.654 8.646h-6.39c-.752-2.256-2.256-4.135-5.263-4.135-1.88 0-3.008.376-4.136 1.503-1.128 1.128-1.504 2.632-1.504 7.896 0 5.263.376 6.766 1.504 7.894.752.752 2.256 1.504 4.136 1.504 3.007 0 4.887-1.88 5.263-4.135h6.39c-1.128 6.39-6.014 9.398-11.654 9.398m39.85-23.308v23.308h-6.391v-23.308h-8.27v-4.512h22.932v4.512zm27.068 1.503c-1.128-1.127-2.256-1.503-4.136-1.503-1.504 0-3.008.376-4.135 1.503-1.503 1.504-1.503 4.136-1.503 7.52v1.503c0 3.007 0 5.64 1.503 6.767 1.127.752 2.255 1.504 4.135 1.504 1.504 0 3.008-.376 4.136-1.504 1.128-1.128 1.504-2.632 1.504-8.27.376-4.888 0-6.392-1.504-7.52zm7.895 8.647c0 3.76 0 7.143-3.384 10.151-2.255 1.88-5.263 3.007-8.647 3.007-3.383 0-6.39-1.128-8.646-3.007-3.008-2.632-3.008-6.768-3.008-9.775v-2.255c0-5.64.752-7.895 3.008-10.15 2.256-1.88 5.263-3.009 8.646-3.009 3.384 0 6.392 1.128 8.647 3.008 2.256 1.88 3.384 4.511 3.384 9.023v3.007zm19.172.376h-6.39v7.52h6.39c2.632 0 4.512-1.505 4.512-3.76-.376-1.88-1.88-3.76-4.512-3.76m0 12.781H915.79V214.91h21.053v4.889h-15.038v5.637h6.767c6.391 0 10.526 3.76 10.526 8.648 0 4.887-3.759 8.645-10.526 8.645m31.578-21.805c-1.127-1.127-2.255-1.503-4.135-1.503-1.505 0-3.007.376-4.135 1.503-1.504 1.504-1.504 4.136-1.504 7.52v1.503c0 3.007 0 5.64 1.504 6.767 1.128.752 2.255 1.504 4.135 1.504 1.504 0 3.008-.376 4.135-1.504 1.129-1.128 1.505-2.632 1.505-8.27 0-4.888-.376-6.392-1.505-7.52zm7.895 8.647c0 3.76 0 7.143-3.006 10.151-2.256 1.88-5.264 3.007-8.649 3.007-3.382 0-6.39-1.128-8.645-3.007-3.008-2.632-3.008-6.768-3.008-9.775v-2.255c0-5.64.752-7.895 3.008-10.15 2.255-1.88 5.263-3.009 8.645-3.009 3.385 0 6.393 1.128 8.649 3.008 2.255 1.88 3.006 4.511 3.006 9.023v3.007zm18.421-16.165c-3.383 0-7.143-1.504-7.143-5.64h4.512c0 1.88 1.127 2.256 3.007 2.256 1.504 0 2.632-.751 3.008-2.255h4.512c-.752 4.135-4.136 5.639-7.896 5.639zm6.016 29.323v-18.045l-12.407 18.045h-5.638v-27.82h6.39v17.67l12.407-17.67h5.638v27.82h-6.39z" fill="#1E3B6E" mask="url(#h)"/></g></svg>